<?xml version="1.0" encoding="UTF-8" standalone="no"?><!DOCTYPE svg PUBLIC "-//W3C//DTD SVG 1.1//EN" "http://www.w3.org/Graphics/SVG/1.1/DTD/svg11.dtd"><svg width="100%" height="100%" viewBox="0 0 322 100" version="1.1" xmlns="http://www.w3.org/2000/svg" xmlns:xlink="http://www.w3.org/1999/xlink" xml:space="preserve" xmlns:serif="http://www.serif.com/" style="fill-rule:evenodd;clip-rule:evenodd;stroke-linejoin:round;stroke-miterlimit:1.41421;"><g><path d="M190.853,44.64c-6.979,0 -12.344,-5.652 -12.344,-13.151c0,-7.498 5.365,-13.151 12.344,-13.151c7.037,0 12.344,5.653 12.344,13.151c0,7.499 -5.307,13.151 -12.344,13.151Zm0,7.095c11.536,0 20.189,-8.652 20.189,-20.188c0,-11.537 -8.422,-20.189 -20.189,-20.189c-11.537,0 -20.189,8.652 -20.189,20.189c0,11.536 8.422,20.188 20.189,20.188Zm-55.663,-0.749l29.533,0l0,-7.095l-21.688,0l0,-9.056l18.458,0l0,-6.922l-18.458,0l0,-8.883l21.4,0l0,-6.979l-29.245,0l0,38.935Zm-34.494,0l27.745,0l0,-7.095l-19.842,0l0,-31.84l-7.903,0l0,38.935Zm-22.207,-18.69l-8.134,0l0,-13.555l7.961,0c4.845,0 7.787,2.538 7.787,6.749c0,4.153 -3.057,6.806 -7.614,6.806Zm0.518,-20.245l-16.496,0l0,38.935l7.844,0l0,-11.998l7.845,0c9.345,0 15.401,-5.307 15.401,-13.498c0,-8.248 -5.71,-13.439 -14.594,-13.439Z" style="fill:#496d80;fill-rule:nonzero;"/><path d="M251.399,50.986l1.615,0l0,-38.935l-7.902,0l0,23.072l-25.611,-23.361l-1.615,0l0,39.224l7.844,0l0,-23.188l25.669,23.188Z" style="fill:#496d80;fill-rule:nonzero;"/><path d="M277.759,25.49l6.434,13.094l-12.586,0l6.152,-13.094Zm11.94,25.496l8.826,0l-19.843,-39.224l-1.615,0l-19.669,39.224l8.709,0l2.717,-5.942l18.159,0l2.716,5.942Z" style="fill:#496d80;fill-rule:nonzero;"/><path d="M37.362,25.49l6.434,13.094l-12.586,0l6.152,-13.094Zm11.94,25.496l8.825,0l-19.842,-39.224l-1.616,0l-19.669,39.224l8.71,0l2.716,-5.942l18.16,0l2.716,5.942Z" style="fill:#496d80;fill-rule:nonzero;"/><path d="M33.851,89.926l-2.003,0l0,-8.959l-10.513,0l0,8.959l-2.003,0l0,-19.367l2.003,0l0,8.537l10.513,0l0,-8.537l2.003,0l0,19.367Z" style="fill:#11586c;fill-rule:nonzero;"/><path d="M49.912,72.298l-0.975,1.712c-1.343,-1.08 -3.214,-1.95 -5.243,-1.95c-2.319,0 -4.137,1.081 -4.137,3.505c0,2.029 1.159,2.793 4.638,3.557c4.558,1.002 6.376,2.451 6.376,5.428c0,3.4 -2.609,5.718 -6.693,5.718c-2.82,0 -5.112,-0.896 -6.851,-2.424l1.133,-1.66c1.423,1.37 3.61,2.24 5.771,2.24c2.635,0 4.637,-1.291 4.637,-3.716c0,-1.976 -1.475,-2.977 -4.953,-3.715c-4.559,-1.001 -6.061,-2.398 -6.061,-5.323c0,-3.372 2.53,-5.454 6.166,-5.454c2.53,0 4.638,0.896 6.192,2.082Z" style="fill:#11586c;fill-rule:nonzero;"/><path d="M69.051,72.983l-1.291,1.476c-1.344,-1.423 -3.215,-2.372 -5.534,-2.372c-4.452,0 -7.589,3.452 -7.589,8.169c0,4.716 3.241,8.142 7.905,8.142c1.977,0 3.69,-0.58 4.981,-1.582l0,-4.954l-5.323,0l0,-1.765l7.325,0l0,7.721c-1.765,1.58 -4.163,2.45 -6.983,2.45c-5.796,0 -9.907,-4.242 -9.907,-10.012c0,-5.772 4.005,-10.04 9.591,-10.04c2.873,0 5.086,1.001 6.825,2.767Z" style="fill:#11586c;fill-rule:nonzero;"/><path d="M96.193,72.983l-1.291,1.476c-1.343,-1.423 -3.214,-2.372 -5.533,-2.372c-4.453,0 -7.589,3.452 -7.589,8.169c0,4.716 3.136,8.142 7.589,8.142c2.398,0 4.348,-1.002 5.692,-2.53l1.264,1.528c-1.765,1.898 -4.11,2.872 -6.956,2.872c-5.587,0 -9.592,-4.242 -9.592,-10.012c0,-5.772 4.005,-10.04 9.592,-10.04c2.872,0 5.085,1.001 6.824,2.767Z" style="fill:#11586c;fill-rule:nonzero;"/><path d="M109.507,89.926l-1.766,0l-0.052,-1.739c-0.844,1.001 -2.187,2.002 -4.427,2.002c-2.978,0 -4.691,-2.214 -4.691,-5.481l0,-7.957l1.924,0l0,7.878c0,2.214 1.238,3.742 3.189,3.742c1.87,0 2.924,-0.975 3.899,-2.292l0,-9.328l1.924,0l0,13.175Z" style="fill:#11586c;fill-rule:nonzero;"/><rect x="113.468" y="69.9" width="1.923" height="20.026" style="fill:#11586c;fill-rule:nonzero;"/><path d="M121.244,89.926l-1.898,0l0,-13.175l1.898,0l0,13.175Zm0.421,-17.444c0,0.791 -0.605,1.37 -1.37,1.37c-0.79,0 -1.396,-0.579 -1.396,-1.37c0,-0.79 0.606,-1.396 1.396,-1.396c0.765,0 1.37,0.606 1.37,1.396Z" style="fill:#11586c;fill-rule:nonzero;"/><path d="M136.374,82.047l0,7.879l-1.897,0l0,-7.774c0,-2.266 -1.37,-3.82 -3.504,-3.82c-1.74,0 -2.899,0.975 -3.9,2.292l0,9.302l-1.897,0l0,-13.175l1.739,0l0.079,1.765c0.79,-0.974 2.239,-2.029 4.4,-2.029c3.162,0 4.98,2.24 4.98,5.56Z" style="fill:#11586c;fill-rule:nonzero;"/><path d="M141.292,83.339c0,3.03 1.791,5.111 4.374,5.111c1.976,0 3.082,-1.001 3.979,-2.371l0,-5.481c-0.897,-1.37 -2.003,-2.372 -3.979,-2.372c-2.583,0 -4.374,2.108 -4.374,5.113Zm8.458,-4.849l0.053,-1.739l1.765,0l0,13.175l-1.765,0l-0.053,-1.766c-0.791,1.028 -2.135,2.029 -4.375,2.029c-3.583,0 -6.007,-2.872 -6.007,-6.85c0,-3.953 2.424,-6.852 6.007,-6.852c2.24,0 3.584,1.001 4.375,2.003Z" style="fill:#11586c;fill-rule:nonzero;"/><path d="M161.305,78.411l-0.184,0c-1.661,0 -2.767,0.922 -3.716,2.345l0,9.17l-1.897,0l0,-13.175l1.739,0l0.106,1.87c0.659,-1.054 1.949,-2.134 3.952,-2.134l0,1.924Z" style="fill:#11586c;fill-rule:nonzero;"/><path d="M164.378,82.416l8.327,0c-0.106,-2.503 -1.555,-4.242 -4.032,-4.242c-2.477,0 -4.163,1.712 -4.295,4.242Zm10.224,0.817l0,0.79l-10.224,0c0.132,2.767 1.766,4.48 4.638,4.48c1.923,0 3.293,-0.869 4.005,-1.871l1.291,1.054c-1.186,1.554 -2.899,2.503 -5.296,2.503c-4.111,0 -6.561,-2.872 -6.561,-6.824c0,-3.953 2.529,-6.878 6.218,-6.878c3.847,0 5.929,3.004 5.929,6.746Z" style="fill:#11586c;fill-rule:nonzero;"/><path d="M186.07,77.805l-0.817,1.528c-0.922,-0.632 -2.108,-1.133 -3.636,-1.133c-1.581,0 -2.767,0.579 -2.767,1.976c0,1.239 0.896,1.661 3.084,2.161c3.108,0.738 4.505,1.871 4.505,3.847c0,2.424 -1.976,4.005 -5.006,4.005c-2.003,0 -3.663,-0.579 -4.901,-1.554l0.895,-1.555c1.054,0.87 2.398,1.423 4.006,1.423c1.791,0 3.083,-0.711 3.083,-2.161c0,-1.265 -0.976,-1.792 -3.136,-2.266c-3.136,-0.737 -4.427,-1.713 -4.427,-3.742c0,-2.424 1.871,-3.847 4.717,-3.847c1.739,0 3.293,0.554 4.4,1.318Z" style="fill:#11586c;fill-rule:nonzero;"/><path d="M197.96,77.805l-0.817,1.528c-0.923,-0.632 -2.108,-1.133 -3.636,-1.133c-1.582,0 -2.767,0.579 -2.767,1.976c0,1.239 0.896,1.661 3.083,2.161c3.109,0.738 4.506,1.871 4.506,3.847c0,2.424 -1.977,4.005 -5.007,4.005c-2.003,0 -3.662,-0.579 -4.901,-1.554l0.896,-1.555c1.054,0.87 2.398,1.423 4.005,1.423c1.792,0 3.083,-0.711 3.083,-2.161c0,-1.265 -0.975,-1.792 -3.135,-2.266c-3.136,-0.737 -4.428,-1.713 -4.428,-3.742c0,-2.424 1.872,-3.847 4.717,-3.847c1.739,0 3.294,0.554 4.401,1.318Z" style="fill:#11586c;fill-rule:nonzero;"/></g></svg>