<?xml version="1.0" encoding="utf-8"?>
<!-- Generator: Adobe Illustrator 16.0.4, SVG Export Plug-In . SVG Version: 6.00 Build 0)  -->
<!DOCTYPE svg PUBLIC "-//W3C//DTD SVG 1.1//EN" "http://www.w3.org/Graphics/SVG/1.1/DTD/svg11.dtd">
<svg version="1.1" id="Layer_1" xmlns="http://www.w3.org/2000/svg" xmlns:xlink="http://www.w3.org/1999/xlink" x="0px" y="0px"
	 width="870.479px" height="247.68px" viewBox="0 0 870.479 247.68" enable-background="new 0 0 870.479 247.68"
	 xml:space="preserve">
<g>
	<g>
		<g>
			<path fill="#D71712" d="M758.175,67.477c7.711,0,15.093-3.698,19.751-9.889c3.228-4.307,4.937-9.417,4.937-14.8
				c0-5.378-1.709-10.5-4.937-14.807c-4.658-6.187-12.04-9.885-19.751-9.885c-13.617,0-24.695,11.074-24.695,24.691
				C733.479,56.4,744.558,67.477,758.175,67.477z"/>
			<path fill="#D71712" d="M852.175,68.957c-0.271-0.327-0.818-0.362-1.456-0.163c-0.122,0.043-0.229,0.086-0.35,0.132
				c-18.529,6.798-59.362,14.202-114.327,4.432c-65.464-11.629-88.962-5.783-100.506-1.56c-0.104,0.036-0.197,0.068-0.294,0.111
				c-0.695,0.291-1.134,0.743-1.101,1.206c0.029,0.481,0.537,0.869,1.278,1.069c0.039,0.003,0.066,0.01,0.102,0.024
				c82.646,18.562,31.491,87.66-81.338,152.843c-0.204,0.096-0.396,0.202-0.56,0.32c-0.644,0.441-0.984,0.989-0.853,1.452
				c0.155,0.527,0.914,0.801,1.875,0.755c0.089-0.007,0.178-0.011,0.255-0.021c19.677-1.772,48.668-12.298,83.476-27.792
				c0.015-0.01,0.018-0.014,0.043-0.018c4.062-1.805,8.204-3.684,12.419-5.627c17.594-7.699,37.564-14.907,50.236-10.917
				c16.712,5.265,19.927,17.715,21.926,41.313c0.013,0.121,0.029,0.238,0.039,0.367c0.083,0.612,0.323,1.057,0.716,1.178
				c0.427,0.131,0.932-0.171,1.367-0.723c0.049-0.071,0.099-0.139,0.156-0.21c8.118-11.169,38.255-54.817,39.957-89.276
				c40.484-23.474,74.26-47.557,86.47-66.809c0.158-0.203,0.287-0.42,0.394-0.63C852.401,69.83,852.448,69.285,852.175,68.957z"/>
		</g>
		<g>
			<path fill="#181716" d="M457.508,81.54v7.095c-4.784-3.407-10.284-5.86-16.241-7.095c-2.838-0.583-5.77-0.89-8.785-0.89
				c-3.01,0-5.954,0.306-8.787,0.89c-19.56,4.043-34.277,21.31-34.398,42.036c-0.004,0.082-0.004,0.175-0.004,0.263
				c0,0.09,0,0.182,0.004,0.264c0.139,23.733,19.419,42.929,43.186,42.929c9.326,0,17.969-2.953,25.026-7.98v7.084h17.271h0.9h0.004
				V81.54h-0.904H457.508z M432.481,148.865c-13.82,0-25.022-11.208-25.022-25.026s11.202-25.025,25.022-25.025
				c13.821,0,25.023,11.208,25.023,25.025S446.303,148.865,432.481,148.865z"/>
			<path fill="#181716" d="M230.545,81.54v7.095c-4.784-3.407-10.291-5.86-16.242-7.095c-2.834-0.583-5.777-0.89-8.791-0.89
				c-3.008,0-5.945,0.306-8.781,0.89c-11.427,2.367-21.203,9.24-27.379,18.676c-4.367,6.678-6.937,14.633-7.022,23.187
				c0,0.146-0.007,0.295-0.007,0.437c0,0.147,0.007,0.295,0.007,0.438c0.086,8.554,2.655,16.516,7.022,23.187
				c7.714,11.785,21.028,19.568,36.16,19.568c9.34,0,17.971-2.953,25.033-7.98v7.084h17.263h0.908V81.54h-0.908H230.545z
				 M205.512,148.865c-13.817,0-25.023-11.208-25.023-25.026s11.206-25.025,25.023-25.025c13.824,0,25.029,11.208,25.029,25.025
				S219.336,148.865,205.512,148.865z"/>
			<path fill="#181716" d="M86.344,81.54v7.095c-4.776-3.407-10.283-5.86-16.238-7.095c-2.837-0.583-5.776-0.89-8.784-0.89
				c-3.014,0-5.951,0.306-8.791,0.89c-19.642,4.065-34.406,21.459-34.406,42.299c0,23.859,19.342,43.193,43.197,43.193
				c9.326,0,17.969-2.953,25.022-7.98v7.084h17.272h0.898h0.004V81.54h-0.902H86.344z M61.321,148.865
				c-13.825,0-25.027-11.208-25.027-25.026s11.202-25.025,25.027-25.025c13.816,0,25.022,11.208,25.022,25.025
				S75.138,148.865,61.321,148.865z"/>
			<path fill="#181716" d="M519.455,81.54c-4.923,1.249-9.337,3.73-12.906,7.104V81.54H488.37v84.596h18.179v-47.194
				c-0.004,0-0.004,0-0.007,0c0-11.115,9.007-20.124,20.128-20.124h5.901V81.54v-0.89h-5.901
				C524.175,80.65,521.762,80.959,519.455,81.54z"/>
			<path fill="#181716" d="M354.581,81.54c-2.502-0.583-5.107-0.89-7.788-0.89c-0.252,0-0.505,0-0.747,0.007
				c-0.203,0-0.399,0.015-0.602,0.022c-0.027,0-0.066,0-0.099,0c-9.49,0.419-16.641,4.876-20.492,7.956
				c-2.079,1.658-3.192,2.918-3.192,2.918s-1.51-1.677-4.161-3.723c-3.666-2.827-9.507-6.343-16.509-7.058
				c-0.057,0-0.121-0.004-0.178-0.011c-0.135-0.015-0.273-0.028-0.412-0.032c-0.107-0.01-0.203-0.014-0.303-0.028
				c-0.106-0.008-0.219-0.011-0.329-0.018c-0.138-0.003-0.278-0.01-0.411-0.015c-0.079-0.006-0.154-0.011-0.238-0.011
				c-0.219-0.007-0.438-0.007-0.656-0.007c-2.534,0-4.944,0.295-7.221,0.89c-4.332,1.146-8.219,3.399-11.664,6.845
				c0-3.883,0-6.845,0-6.845h-18.165v84.596h18.165v-50.201c0-9.454,7.218-17.121,16.941-17.121c9.725,0,16.057,7.667,16.057,17.121
				v50.201h18.159v-50.201c0-9.454,7.03-17.121,16.491-17.121c9.464,0,15.613,7.667,15.613,17.121v50.201h18.169v-51.272
				C381.01,98.67,369.704,85.078,354.581,81.54z"/>
			<polygon fill="#181716" points="610.966,81.54 589.065,81.54 559.659,117.127 559.659,60.917 559.659,53.342 541.487,53.342 
				541.487,166.135 545.544,166.135 559.659,166.135 559.659,130.499 589.065,166.135 610.966,166.135 576.041,123.839 			"/>
			<path fill="#181716" d="M148.291,81.54c-4.913,1.249-9.332,3.73-12.906,7.104V81.54H117.21v84.596h18.175c0,0,0-34.518,0-45.535
				c0-13.024,8.471-21.784,21.47-21.784h4.549V81.54v-0.89h-5.901C153.018,80.65,150.599,80.959,148.291,81.54z"/>
		</g>
	</g>
	<g>
		<path fill="#D71712" d="M755.791,206.192h-2.106v5.978h-1.837v-5.978h-2.106v-1.44h6.05V206.192z M765.834,212.169h-1.729v-5.258
			h-0.036l-1.908,5.258h-1.242l-1.909-5.258h-0.036v5.258h-1.729v-7.418h2.449l1.854,4.879l1.854-4.879h2.431V212.169z"/>
	</g>
</g>
</svg>
