<?xml version="1.0" encoding="UTF-8" standalone="no"?>
<!-- Created with Inkscape (http://www.inkscape.org/) -->

<svg
   xmlns:dc="http://purl.org/dc/elements/1.1/"
   xmlns:cc="http://creativecommons.org/ns#"
   xmlns:rdf="http://www.w3.org/1999/02/22-rdf-syntax-ns#"
   xmlns:svg="http://www.w3.org/2000/svg"
   xmlns="http://www.w3.org/2000/svg"
   version="1.1"
   width="892.91339"
   height="279.21259"
   id="svg3780">
  <defs
     id="defs3782" />
  <metadata
     id="metadata3785">
    <rdf:RDF>
      <cc:Work
         rdf:about="">
        <dc:format>image/svg+xml</dc:format>
        <dc:type
           rdf:resource="http://purl.org/dc/dcmitype/StillImage" />
        <dc:title></dc:title>
      </cc:Work>
    </rdf:RDF>
  </metadata>
  <g
     transform="translate(66.320993,-258.78488)"
     id="layer1">
    <g
       transform="matrix(6.6333196,0,0,-6.6333196,365.46544,481.05825)"
       id="g3554"
       style="fill:#805c52;fill-opacity:1">
      <path
         d="m 0,0 c -9.004,13.258 -0.954,21.841 -0.281,24.103 0,0 -12.161,-10.842 -0.56,-24.101 L 0,0 z"
         id="path3556"
         style="fill:#805c52;fill-opacity:1;fill-rule:nonzero;stroke:none" />
    </g>
    <g
       transform="matrix(6.6333196,0,0,-6.6333196,297.03147,317.58142)"
       id="g3558"
       style="fill:#805c52;fill-opacity:1">
      <path
         d="M 0,0 C -3.44,-6.601 3.715,-9.581 3.715,-9.581 7.027,-2.269 0,0 0,0"
         id="path3560"
         style="fill:#805c52;fill-opacity:1;fill-rule:nonzero;stroke:none" />
    </g>
    <g
       transform="matrix(6.6333196,0,0,-6.6333196,411.4244,314.39809)"
       id="g3562"
       style="fill:#805c52;fill-opacity:1">
      <path
         d="M 0,0 C -7.568,0.464 -8.013,-6.011 -8.013,-6.011 1.117,-5.622 0,0 0,0"
         id="path3564"
         style="fill:#805c52;fill-opacity:1;fill-rule:nonzero;stroke:none" />
    </g>
    <g
       transform="matrix(6.6333196,0,0,-6.6333196,337.24531,344.07888)"
       id="g3566"
       style="fill:#805c52;fill-opacity:1">
      <path
         d="M 0,0 C 4.691,6.149 -1.732,9.286 -1.732,9.286 -6.014,3.674 0,0 0,0"
         id="path3568"
         style="fill:#805c52;fill-opacity:1;fill-rule:nonzero;stroke:none" />
    </g>
    <g
       transform="matrix(6.6333196,0,0,-6.6333196,346.73361,387.42364)"
       id="g3570"
       style="fill:#805c52;fill-opacity:1">
      <path
         d="M 0,0 C 8.465,-1.983 9.152,4.227 9.152,4.227 1.435,6.412 0,0 0,0"
         id="path3572"
         style="fill:#805c52;fill-opacity:1;fill-rule:nonzero;stroke:none" />
    </g>
    <g
       transform="matrix(6.6333196,0,0,-6.6333196,389.87274,262.35173)"
       id="g3574"
       style="fill:#f1aa00;fill-opacity:1">
      <path
         d="m 0,0 c 0,0 3.654,-6.519 -4.598,-8.13 0,0 -2.603,7.717 4.598,8.13"
         id="path3576"
         style="fill:#f1aa00;fill-opacity:1;fill-rule:nonzero;stroke:none" />
    </g>
    <g
       transform="matrix(6.6333196,0,0,-6.6333196,16.324643,336.14078)"
       id="g3578"
       style="fill:#805c52;fill-opacity:1">
      <path
         d="m 0,0 3.161,-7.72 -6.324,0 L 0,0 z m 2.328,5.733 9.725,-22.853 -5.069,0 -2.094,5.126 -9.782,0 -2.09,-5.126 -4.943,0 9.725,22.853 4.528,0 z M 109.563,0 l 3.164,-7.72 -6.329,0 3.165,7.72 z m 12.054,-17.12 -5.074,0 -2.09,5.126 -9.781,0 -2.09,-5.126 -4.942,0 9.725,22.853 4.527,0 9.725,-22.853 z m -93.122,8.157 -0.101,-0.038 5.554,-8.119 -5.67,0 -4.899,7.313 -0.113,0 -3.97,0 0,-7.313 -4.859,0 0,22.689 10.362,0 c 2.895,0 5.121,-0.811 6.604,-2.291 1.258,-1.256 1.936,-3.028 1.936,-5.168 l 0,-0.066 c 0,-3.652 -1.968,-5.939 -4.844,-7.007 m -4.02,3.431 -5.179,0 0,6.732 5.08,0 c 2.479,0 4.036,-1.13 4.036,-3.349 l 0,-0.064 c 0,-1.988 -1.453,-3.319 -3.937,-3.319 m 36.501,11.101 18.481,0 0,-3.703 -12.678,-14.748 12.678,0 0,-4.238 -18.872,0 0,3.703 12.672,14.749 -12.281,0 0,4.237 z m 39.367,-4.465 -6.957,0 0,-18.224 -4.861,0 0,18.224 -6.955,0 0,4.465 18.773,0 0,-4.465 z M 44.296,-7.299 c 0.315,-0.195 0.812,-0.436 1.271,-0.645 l 0.079,-0.036 c -0.355,-2.719 -0.052,-5.79 1.452,-9.062 l 0.035,-0.077 -4.984,0 0,8.963 -8.723,13.749 5.68,0 1.737,-2.925 c -1.513,-3.482 -0.467,-6.185 1.077,-7.971 0.79,-0.913 1.69,-1.57 2.376,-1.996"
         id="path3580"
         style="fill:#805c52;fill-opacity:1;fill-rule:evenodd;stroke:none" />
    </g>
    <g
       transform="matrix(6.6333196,0,0,-6.6333196,572.45486,512.89222)"
       id="g3582"
       style="fill:#805c52;fill-opacity:1">
      <path
         d="m 0,0 c 0,1.288 1.108,2.688 2.267,2.688 0.902,0 1.374,-0.704 1.374,-1.624 0,-1.279 -1.116,-2.679 -2.275,-2.679 C 0.464,-1.615 0,-0.911 0,0 m 2.697,1.503 c 0,0.524 -0.146,0.755 -0.413,0.755 -0.79,0 -1.348,-1.416 -1.348,-2.696 0,-0.515 0.146,-0.748 0.413,-0.748 0.789,0 1.348,1.461 1.348,2.689 M -19.623,0 c 0,1.288 1.107,2.688 2.267,2.688 0.902,0 1.374,-0.704 1.374,-1.624 0,-1.279 -1.116,-2.679 -2.276,-2.679 -0.901,0 -1.365,0.704 -1.365,1.615 m 2.697,1.503 c 0,0.524 -0.146,0.755 -0.413,0.755 -0.79,0 -1.348,-1.416 -1.348,-2.696 0,-0.515 0.146,-0.748 0.412,-0.748 0.79,0 1.349,1.461 1.349,2.689 M 9.008,-0.163 c 0,1.511 1.117,2.799 2.087,2.799 0.619,0 0.799,-0.291 0.954,-0.661 l 0.197,0.807 0.206,0.696 c 0.043,0.137 0.06,0.241 0.06,0.301 0,0.086 -0.077,0.137 -0.283,0.137 l -0.429,0 0.12,0.472 1.752,0.146 -1.486,-4.869 c -0.06,-0.198 -0.112,-0.378 -0.112,-0.498 0,-0.086 0.035,-0.138 0.095,-0.138 0.137,0 0.3,0.215 0.652,0.747 l 0.327,-0.223 c -0.421,-0.704 -0.764,-1.091 -1.228,-1.091 -0.464,0 -0.576,0.267 -0.576,0.473 0,0.163 0.035,0.266 0.061,0.352 -0.379,-0.473 -0.713,-0.859 -1.323,-0.859 -0.618,0 -1.074,0.481 -1.074,1.409 m 2.723,1.486 c 0,0.48 -0.172,0.781 -0.515,0.781 -0.67,0 -1.237,-1.116 -1.237,-2.439 0,-0.481 0.129,-0.67 0.412,-0.67 0.524,0 1.34,1.168 1.34,2.328 M 4.474,0 c 0,1.288 1.107,2.688 2.267,2.688 0.902,0 1.374,-0.704 1.374,-1.624 0,-1.279 -1.116,-2.679 -2.276,-2.679 -0.901,0 -1.365,0.704 -1.365,1.615 m 2.697,1.503 c 0,0.524 -0.146,0.755 -0.413,0.755 -0.789,0 -1.348,-1.416 -1.348,-2.696 0,-0.515 0.146,-0.748 0.412,-0.748 0.79,0 1.349,1.461 1.349,2.689 M -4.268,-2.62 c 0,0.276 0.189,0.456 0.387,0.456 0.231,0 0.369,-0.121 0.412,-0.318 0.017,-0.078 0.017,-0.164 0.077,-0.164 0.095,0 0.198,0.207 0.361,0.894 l 0.91,3.804 -0.498,0 0.12,0.499 0.498,0 c 0.3,1.176 1.091,1.949 1.872,1.949 0.421,0 0.748,-0.24 0.748,-0.601 0,-0.284 -0.215,-0.558 -0.55,-0.558 -0.275,0 -0.429,0.163 -0.429,0.403 0,0.146 0.06,0.223 0.06,0.267 0,0.016 -0.018,0.085 -0.12,0.042 C -0.661,3.95 -0.807,3.727 -1.056,2.774 l -0.06,-0.223 0.824,0 -0.12,-0.499 -0.833,0 -0.49,-1.915 c -0.67,-2.611 -1.271,-3.272 -1.958,-3.272 -0.369,0 -0.575,0.241 -0.575,0.515 M -29.516,1.7 c 0.034,0.103 0.043,0.206 0.043,0.258 0,0.077 -0.086,0.138 -0.283,0.138 l -0.378,0 0.111,0.455 1.469,0.077 C -28.571,2.404 -28.64,2.104 -28.82,1.675 l -0.147,-0.352 c 0.542,0.832 0.911,1.34 1.452,1.34 0.275,0 0.575,-0.138 0.575,-0.576 0,-0.344 -0.249,-0.618 -0.524,-0.618 -0.214,0 -0.36,0.111 -0.42,0.292 -0.018,0.042 -0.052,0.112 -0.086,0.112 -0.292,0 -0.945,-1.006 -1.288,-2.097 l -0.396,-1.262 -0.901,0 1.039,3.186 z m 18.893,-1.863 c 0,1.511 1.117,2.799 2.087,2.799 0.618,0 0.799,-0.291 0.953,-0.661 l 0.198,0.807 0.206,0.696 c 0.043,0.137 0.06,0.241 0.06,0.301 0,0.086 -0.077,0.137 -0.284,0.137 l -0.429,0 0.12,0.472 1.753,0.146 -1.486,-4.869 c -0.061,-0.198 -0.112,-0.378 -0.112,-0.498 0,-0.086 0.034,-0.138 0.095,-0.138 0.137,0 0.3,0.215 0.652,0.747 l 0.327,-0.223 c -0.421,-0.704 -0.765,-1.091 -1.229,-1.091 -0.463,0 -0.575,0.267 -0.575,0.473 0,0.163 0.034,0.266 0.06,0.352 -0.378,-0.473 -0.713,-0.859 -1.322,-0.859 -0.619,0 -1.074,0.481 -1.074,1.409 m 2.722,1.486 c 0,0.48 -0.171,0.781 -0.515,0.781 -0.67,0 -1.237,-1.116 -1.237,-2.439 0,-0.481 0.129,-0.67 0.413,-0.67 0.524,0 1.339,1.168 1.339,2.328 M -15.149,0 c 0,1.288 1.107,2.688 2.267,2.688 0.902,0 1.374,-0.704 1.374,-1.624 0,-1.279 -1.116,-2.679 -2.276,-2.679 -0.901,0 -1.365,0.704 -1.365,1.615 m 2.697,1.503 c 0,0.524 -0.146,0.755 -0.413,0.755 -0.79,0 -1.348,-1.416 -1.348,-2.696 0,-0.515 0.146,-0.748 0.412,-0.748 0.79,0 1.349,1.461 1.349,2.689 M -38.885,-2.62 c 0,0.276 0.189,0.456 0.386,0.456 0.232,0 0.369,-0.121 0.412,-0.318 0.018,-0.078 0.018,-0.164 0.078,-0.164 0.094,0 0.197,0.207 0.361,0.894 l 0.91,3.804 -0.498,0 0.12,0.499 0.498,0 c 0.301,1.176 1.091,1.949 1.872,1.949 0.421,0 0.748,-0.24 0.748,-0.601 0,-0.284 -0.216,-0.558 -0.55,-0.558 -0.275,0 -0.43,0.163 -0.43,0.403 0,0.146 0.06,0.223 0.06,0.267 0,0.016 -0.017,0.085 -0.12,0.042 -0.24,-0.103 -0.386,-0.326 -0.635,-1.279 l -0.06,-0.223 0.824,0 -0.12,-0.499 -0.833,0 -0.49,-1.915 c -0.67,-2.611 -1.271,-3.272 -1.958,-3.272 -0.369,0 -0.575,0.241 -0.575,0.515 m -4.476,1.727 c 0,0.206 0.06,0.455 0.155,0.695 l 0.515,1.314 c 0.078,0.198 0.198,0.55 0.198,0.73 0,0.112 -0.051,0.189 -0.172,0.189 -0.558,0 -1.323,-1.262 -1.64,-2.267 l -0.395,-1.254 -0.902,0 1.039,3.186 c 0.034,0.103 0.043,0.206 0.043,0.258 0,0.077 -0.086,0.138 -0.284,0.138 l -0.386,0 0.112,0.455 1.494,0.077 c 0,-0.232 -0.12,-0.584 -0.275,-0.953 l -0.12,-0.293 c 0.524,0.765 0.945,1.246 1.615,1.246 0.515,0 0.755,-0.292 0.755,-0.747 0,-0.292 -0.111,-0.593 -0.206,-0.842 l -0.541,-1.365 c -0.051,-0.138 -0.146,-0.404 -0.146,-0.507 0,-0.086 0.026,-0.138 0.086,-0.138 0.138,0 0.266,0.189 0.636,0.722 l 0.326,-0.224 c -0.438,-0.704 -0.756,-1.065 -1.245,-1.065 -0.456,0 -0.662,0.258 -0.662,0.645 m 18.345,-1.306 c 0,0.507 0.627,0.816 1.451,0.919 -0.524,0.155 -0.799,0.352 -0.799,0.644 0,0.241 0.318,0.525 0.936,0.756 -0.283,0.249 -0.446,0.61 -0.446,0.98 0,0.927 0.816,1.605 1.7,1.605 0.275,0 0.524,-0.069 0.739,-0.171 0.369,0.428 0.618,0.523 0.97,0.523 0.258,0 0.55,-0.197 0.55,-0.523 0,-0.258 -0.198,-0.456 -0.438,-0.456 -0.241,0 -0.378,0.155 -0.395,0.43 -0.129,0.068 -0.249,-0.026 -0.395,-0.172 0.309,-0.258 0.489,-0.619 0.489,-0.988 0,-0.867 -0.764,-1.597 -1.76,-1.597 -0.25,0 -0.481,0.051 -0.679,0.146 -0.283,-0.146 -0.36,-0.258 -0.36,-0.344 0,-0.146 0.154,-0.206 1.013,-0.327 1.073,-0.154 1.46,-0.574 1.46,-1.167 0,-0.705 -0.652,-1.306 -1.932,-1.306 -1.143,0 -2.104,0.378 -2.104,1.048 m 3.315,0.06 c 0,0.413 -0.558,0.584 -1.478,0.584 -0.652,0 -0.962,-0.266 -0.962,-0.593 0,-0.463 0.559,-0.644 1.289,-0.644 0.73,0 1.151,0.241 1.151,0.653 m 0.12,3.779 c 0,0.361 -0.189,0.67 -0.507,0.67 -0.524,0 -0.859,-0.816 -0.859,-1.46 0,-0.429 0.189,-0.704 0.481,-0.704 0.533,0 0.885,0.807 0.885,1.494 M -34.703,0 c 0,1.288 1.108,2.688 2.268,2.688 0.901,0 1.374,-0.704 1.374,-1.624 0,-1.279 -1.117,-2.679 -2.276,-2.679 -0.902,0 -1.366,0.704 -1.366,1.615 m 2.697,1.503 c 0,0.524 -0.146,0.755 -0.412,0.755 -0.79,0 -1.349,-1.416 -1.349,-2.696 0,-0.515 0.147,-0.748 0.413,-0.748 0.79,0 1.348,1.461 1.348,2.689 m -24.837,-2.104 c 0,0.377 0.266,0.592 0.532,0.592 0.267,0 0.533,-0.146 0.533,-0.464 0,-0.301 -0.283,-0.334 -0.283,-0.48 0,-0.112 0.214,-0.241 0.643,-0.241 0.43,0 0.671,0.283 0.671,0.635 0,0.387 -0.198,0.507 -0.679,0.808 -0.438,0.275 -0.842,0.61 -0.842,1.237 0,0.678 0.541,1.202 1.461,1.202 0.833,0 1.202,-0.421 1.202,-0.815 0,-0.293 -0.155,-0.55 -0.498,-0.55 -0.232,0 -0.455,0.171 -0.455,0.412 0,0.249 0.171,0.292 0.171,0.378 0,0.094 -0.154,0.163 -0.464,0.163 -0.395,0 -0.661,-0.224 -0.661,-0.559 0,-0.36 0.172,-0.454 0.584,-0.721 0.49,-0.318 0.954,-0.601 0.954,-1.331 0,-0.73 -0.61,-1.263 -1.469,-1.263 -0.953,0 -1.4,0.516 -1.4,0.997 m -3.899,0 c 0,0.377 0.266,0.592 0.533,0.592 0.266,0 0.532,-0.146 0.532,-0.464 0,-0.301 -0.283,-0.334 -0.283,-0.48 0,-0.112 0.214,-0.241 0.644,-0.241 0.429,0 0.67,0.283 0.67,0.635 0,0.387 -0.198,0.507 -0.679,0.808 -0.438,0.275 -0.842,0.61 -0.842,1.237 0,0.678 0.542,1.202 1.461,1.202 0.833,0 1.202,-0.421 1.202,-0.815 0,-0.293 -0.155,-0.55 -0.498,-0.55 -0.232,0 -0.455,0.171 -0.455,0.412 0,0.249 0.171,0.292 0.171,0.378 0,0.094 -0.154,0.163 -0.463,0.163 -0.395,0 -0.662,-0.224 -0.662,-0.559 0,-0.36 0.172,-0.454 0.584,-0.721 0.49,-0.318 0.954,-0.601 0.954,-1.331 0,-0.73 -0.61,-1.263 -1.469,-1.263 -0.953,0 -1.4,0.516 -1.4,0.997 M -49.793,0 c 0,1.288 1.108,2.688 2.268,2.688 0.901,0 1.374,-0.704 1.374,-1.624 0,-1.279 -1.117,-2.679 -2.276,-2.679 -0.902,0 -1.366,0.704 -1.366,1.615 m 2.697,1.503 c 0,0.524 -0.146,0.755 -0.412,0.755 -0.79,0 -1.348,-1.416 -1.348,-2.696 0,-0.515 0.146,-0.748 0.412,-0.748 0.79,0 1.348,1.461 1.348,2.689 m -5.565,-2.388 c 0,0.164 0.078,0.438 0.146,0.661 l 0.619,1.924 c 0.034,0.103 0.042,0.206 0.042,0.258 0,0.077 -0.085,0.138 -0.283,0.138 l -0.412,0 0.111,0.455 1.581,0.077 c -0.026,-0.481 -0.112,-0.782 -0.258,-1.254 l -0.524,-1.666 c -0.068,-0.232 -0.129,-0.456 -0.129,-0.55 0,-0.077 0.009,-0.12 0.069,-0.12 0.129,0 0.266,0.172 0.618,0.713 l 0.327,-0.224 c -0.429,-0.713 -0.739,-1.065 -1.237,-1.065 -0.455,0 -0.67,0.267 -0.67,0.653 m 0.988,4.715 c 0,0.326 0.292,0.61 0.635,0.61 0.344,0 0.627,-0.284 0.627,-0.61 0,-0.326 -0.283,-0.61 -0.627,-0.61 -0.343,0 -0.635,0.284 -0.635,0.61 m -13.938,-3.993 c 0,1.494 1.117,2.799 2.061,2.799 0.61,0 0.824,-0.291 0.979,-0.841 0.215,0.197 0.395,0.524 0.524,0.841 l 0.481,0 -0.919,-2.971 c -0.06,-0.198 -0.111,-0.378 -0.111,-0.498 0,-0.086 0.034,-0.138 0.094,-0.138 0.137,0 0.3,0.215 0.652,0.747 l 0.327,-0.223 c -0.421,-0.704 -0.765,-1.091 -1.228,-1.091 -0.464,0 -0.576,0.267 -0.576,0.473 0,0.163 0.034,0.266 0.061,0.352 -0.378,-0.481 -0.714,-0.859 -1.297,-0.859 -0.602,0 -1.048,0.481 -1.048,1.409 m 2.671,1.486 c 0,0.48 -0.155,0.781 -0.464,0.781 -0.781,0 -1.271,-1.468 -1.271,-2.465 0,-0.403 0.146,-0.644 0.404,-0.644 0.507,0 1.331,1.168 1.331,2.328 m -5.453,0.163 c 1.279,0 1.614,0.652 1.614,1.571 0,0.542 -0.249,0.859 -0.996,0.859 l -0.309,0 c -0.327,0 -0.464,-0.06 -0.55,-0.387 l -0.515,-2.043 0.756,0 z m -3.144,-2.499 0.369,0 c 0.327,0 0.473,0.06 0.55,0.386 l 1.039,4.156 c 0.078,0.327 -0.034,0.387 -0.36,0.387 l -0.37,0 0.121,0.472 2.396,0 c 1.288,0 2.018,-0.6 2.018,-1.494 0,-1.297 -1.159,-1.881 -2.731,-1.881 l -0.756,0 -0.412,-1.64 c -0.086,-0.326 0.034,-0.386 0.361,-0.386 l 0.515,0 -0.121,-0.473 -2.739,0 0.12,0.473 z"
         id="path3584"
         style="fill:#805c52;fill-opacity:1;fill-rule:evenodd;stroke:none" />
    </g>
  </g>
</svg>
