<?xml version="1.0" encoding="utf-8"?>
<!-- Generator: Adobe Illustrator 19.0.0, SVG Export Plug-In . SVG Version: 6.00 Build 0)  -->
<!DOCTYPE svg PUBLIC "-//W3C//DTD SVG 1.1//EN" "http://www.w3.org/Graphics/SVG/1.1/DTD/svg11.dtd">
<svg version="1.1" id="Ebene_1" xmlns="http://www.w3.org/2000/svg" xmlns:xlink="http://www.w3.org/1999/xlink" x="0px" y="0px"
	 width="331.3px" height="100px" viewBox="-22 271 331.3 100" style="enable-background:new -22 271 331.3 100;"
	 xml:space="preserve">
<style type="text/css">
	.st0{fill:#12596D;}
	.st1{opacity:0.8;fill:#12596D;}
</style>
<g>
	<path class="st0" d="M4.1,327.6l-1.3,4.6h-4.2l5.5-17.9h5.3l5.6,17.9h-4.4l-1.4-4.6H4.1z M8.6,324.6l-1.1-3.8
		c-0.3-1.1-0.6-2.4-0.9-3.5H6.6c-0.3,1.1-0.5,2.4-0.8,3.5l-1.1,3.8H8.6z"/>
	<path class="st0" d="M26.2,332.2l-1.6-3.2c-0.7-1.2-1.1-2.2-1.6-3.2h-0.1c-0.4,1-0.8,2-1.4,3.2l-1.5,3.2h-4.6l5.2-9.1l-5-8.9h4.7
		l1.6,3.3c0.5,1.1,0.9,2,1.4,3h0.1c0.4-1.1,0.8-1.9,1.2-3l1.5-3.3h4.6l-5.1,8.7l5.3,9.2H26.2z"/>
	<path class="st0" d="M36.9,327.6l-1.3,4.6h-4.2l5.5-17.9h5.3l5.6,17.9h-4.4l-1.4-4.6H36.9z M41.4,324.6l-1.1-3.8
		c-0.3-1.1-0.6-2.4-0.9-3.5h-0.1c-0.3,1.1-0.5,2.4-0.8,3.5l-1.1,3.8H41.4z"/>
	<path class="st0" d="M59.6,314.3v17.9h-4.1v-17.9H59.6z"/>
	<path class="st0" d="M63,323.4c0-1.6-0.1-3-0.1-4.1h3.5l0.2,1.8h0.1c0.5-0.8,1.9-2.1,4-2.1c2.7,0,4.7,1.8,4.7,5.6v7.7h-4V325
		c0-1.7-0.6-2.8-2-2.8c-1.1,0-1.8,0.8-2,1.5c-0.1,0.2-0.2,0.6-0.2,1v7.5h-4V323.4z"/>
	<path class="st0" d="M78.6,323.4c0-1.6-0.1-3-0.1-4.1H82l0.2,1.8h0.1c0.5-0.8,1.9-2.1,4-2.1c2.7,0,4.7,1.8,4.7,5.6v7.7h-4V325
		c0-1.7-0.6-2.8-2-2.8c-1.1,0-1.8,0.8-2,1.5c-0.1,0.2-0.2,0.6-0.2,1v7.5h-4V323.4z"/>
	<path class="st0" d="M107,325.6c0,4.8-3.4,6.9-6.9,6.9c-3.8,0-6.7-2.5-6.7-6.7c0-4.2,2.8-6.9,6.9-6.9
		C104.4,318.9,107,321.7,107,325.6z M97.6,325.7c0,2.2,0.9,3.9,2.7,3.9c1.6,0,2.6-1.6,2.6-3.9c0-1.9-0.7-3.9-2.6-3.9
		C98.3,321.8,97.6,323.8,97.6,325.7z"/>
	<path class="st0" d="M112.3,319.2l1.8,6c0.3,1.1,0.6,2.1,0.7,3.2h0.1c0.2-1.1,0.4-2,0.7-3.2l1.7-6h4.3l-4.8,13h-4l-4.7-13H112.3z"
		/>
	<path class="st0" d="M130.6,332.2l-0.2-1.3h-0.1c-0.9,1-2.2,1.6-3.7,1.6c-2.6,0-4.2-1.9-4.2-4c0-3.4,3-5,7.6-5v-0.2
		c0-0.7-0.4-1.7-2.4-1.7c-1.3,0-2.7,0.5-3.6,1l-0.7-2.6c0.9-0.5,2.7-1.1,5.1-1.1c4.3,0,5.7,2.6,5.7,5.6v4.5c0,1.2,0.1,2.4,0.2,3.2
		H130.6z M130.1,326.1c-2.1,0-3.8,0.5-3.8,2c0,1,0.7,1.5,1.6,1.5c1,0,1.8-0.7,2.1-1.5c0.1-0.2,0.1-0.5,0.1-0.7V326.1z"/>
	<path class="st0" d="M141.5,315.5v3.7h2.9v3h-2.9v4.7c0,1.6,0.4,2.3,1.6,2.3c0.5,0,0.9-0.1,1.2-0.1l0,3.1c-0.5,0.2-1.5,0.3-2.6,0.3
		c-1.3,0-2.4-0.5-3-1.1c-0.7-0.8-1.1-2-1.1-3.9v-5.3h-1.7v-3h1.7v-2.8L141.5,315.5z"/>
	<path class="st0" d="M150.9,315.6c0,1.1-0.9,2-2.2,2c-1.3,0-2.1-0.9-2.1-2c0-1.2,0.8-2,2.1-2S150.9,314.4,150.9,315.6z
		 M146.8,332.2v-13h4v13H146.8z"/>
	<path class="st0" d="M166.9,325.6c0,4.8-3.4,6.9-6.9,6.9c-3.8,0-6.7-2.5-6.7-6.7c0-4.2,2.8-6.9,6.9-6.9
		C164.2,318.9,166.9,321.7,166.9,325.6z M157.5,325.7c0,2.2,0.9,3.9,2.7,3.9c1.6,0,2.6-1.6,2.6-3.9c0-1.9-0.7-3.9-2.6-3.9
		C158.2,321.8,157.5,323.8,157.5,325.7z"/>
	<path class="st0" d="M169.4,323.4c0-1.6-0.1-3-0.1-4.1h3.5l0.2,1.8h0.1c0.5-0.8,1.9-2.1,4-2.1c2.7,0,4.7,1.8,4.7,5.6v7.7h-4V325
		c0-1.7-0.6-2.8-2-2.8c-1.1,0-1.8,0.8-2,1.5c-0.1,0.2-0.2,0.6-0.2,1v7.5h-4V323.4z"/>
	<path class="st0" d="M194.7,327.6l-1.3,4.6h-4.2l5.5-17.9h5.3l5.6,17.9h-4.4l-1.4-4.6H194.7z M199.2,324.6l-1.1-3.8
		c-0.3-1.1-0.6-2.4-0.9-3.5h-0.1c-0.3,1.1-0.5,2.4-0.8,3.5l-1.1,3.8H199.2z"/>
	<path class="st0" d="M209.8,319.2l1,5.3c0.3,1.4,0.5,2.8,0.7,4.3h0.1c0.3-1.5,0.6-3,1-4.3l1.4-5.3h3.2l1.3,5.2
		c0.3,1.5,0.7,2.9,1,4.4h0.1c0.2-1.5,0.5-3,0.7-4.4l1.1-5.2h4l-4,13h-3.8l-1.2-4.6c-0.3-1.3-0.6-2.4-0.8-4h-0.1
		c-0.2,1.6-0.5,2.8-0.9,4l-1.3,4.6h-3.8l-3.8-13H209.8z"/>
	<path class="st0" d="M234.3,332.2l-0.2-1.3H234c-0.9,1-2.2,1.6-3.7,1.6c-2.6,0-4.2-1.9-4.2-4c0-3.4,3-5,7.6-5v-0.2
		c0-0.7-0.4-1.7-2.4-1.7c-1.3,0-2.7,0.5-3.6,1l-0.7-2.6c0.9-0.5,2.7-1.1,5.1-1.1c4.3,0,5.7,2.6,5.7,5.6v4.5c0,1.2,0.1,2.4,0.2,3.2
		H234.3z M233.9,326.1c-2.1,0-3.8,0.5-3.8,2c0,1,0.7,1.5,1.6,1.5c1,0,1.8-0.7,2.1-1.5c0.1-0.2,0.1-0.5,0.1-0.7V326.1z"/>
	<path class="st0" d="M241,323.5c0-1.9-0.1-3.2-0.1-4.3h3.5l0.1,2.4h0.1c0.7-1.9,2.3-2.7,3.5-2.7c0.4,0,0.6,0,0.9,0.1v3.8
		c-0.3-0.1-0.6-0.1-1.1-0.1c-1.5,0-2.5,0.8-2.8,2c-0.1,0.3-0.1,0.6-0.1,0.9v6.6h-4V323.5z"/>
	<path class="st0" d="M263.5,313.3v15c0,1.5,0.1,3,0.1,3.9H260l-0.2-1.9h-0.1c-0.8,1.5-2.4,2.2-4.1,2.2c-3.1,0-5.6-2.6-5.6-6.7
		c0-4.4,2.7-6.9,5.8-6.9c1.6,0,2.8,0.6,3.4,1.5h0.1v-7H263.5z M259.4,324.7c0-0.2,0-0.5-0.1-0.7c-0.2-1.1-1.1-2-2.4-2
		c-1.8,0-2.8,1.6-2.8,3.7c0,2.2,1.1,3.6,2.8,3.6c1.2,0,2.1-0.8,2.3-1.9c0.1-0.3,0.1-0.6,0.1-0.9V324.7z"/>
</g>
<polygon class="st1" points="270.2,337.6 291,310.7 286,310.7 265.2,337.6 "/>
</svg>
