<?xml version="1.0" encoding="utf-8"?>
<!-- Generator: Adobe Illustrator 19.0.0, SVG Export Plug-In . SVG Version: 6.00 Build 0)  -->
<!DOCTYPE svg PUBLIC "-//W3C//DTD SVG 1.1//EN" "http://www.w3.org/Graphics/SVG/1.1/DTD/svg11.dtd">
<svg version="1.1" id="Ebene_1" xmlns="http://www.w3.org/2000/svg" xmlns:xlink="http://www.w3.org/1999/xlink" x="0px" y="0px"
	 width="223px" height="100px" viewBox="0 0 223 100" style="enable-background:new 0 0 223 100;" xml:space="preserve">
<style type="text/css">
	.st0{fill:#11586C;}
	.st1{opacity:0.7;fill:#11586C;}
</style><g><g><path d="M62.012,22.327c0.256,0.163 0.556,0.256 0.962,0.256c0.539,0 0.983,-0.275 0.983,-0.894c0,-0.857 -2.002,-0.962 -2.002,-2.107c0,-0.7 0.613,-1.138 1.383,-1.138c0.212,0 0.555,0.031 0.856,0.143l-0.069,0.395c-0.193,-0.107 -0.5,-0.163 -0.794,-0.163c-0.45,0 -0.944,0.188 -0.944,0.75c0,0.876 2.001,0.883 2.001,2.158c0,0.881 -0.757,1.231 -1.432,1.231c-0.425,0 -0.757,-0.087 -0.988,-0.187l0.044,-0.444Z" style="fill:#11586c;fill-rule:nonzero;"/><path d="M67.777,20.12c-0.213,-0.094 -0.469,-0.163 -0.682,-0.163c-0.769,0 -1.201,0.557 -1.201,1.332c0,0.726 0.439,1.333 1.157,1.333c0.251,0 0.482,-0.057 0.72,-0.145l0.037,0.37c-0.269,0.093 -0.519,0.111 -0.819,0.111c-1.026,0 -1.526,-0.781 -1.526,-1.669c0,-0.982 0.632,-1.67 1.576,-1.67c0.381,0 0.656,0.088 0.769,0.125l-0.031,0.376Z" style="fill:#11586c;fill-rule:nonzero;"/><path d="M68.965,18.194l0.394,0l0,2.038l0.013,0c0.168,-0.35 0.525,-0.613 0.994,-0.613c0.857,0 1.087,0.57 1.087,1.358l0,1.906l-0.393,0l0,-1.901c0,-0.55 -0.107,-1.025 -0.757,-1.025c-0.7,0 -0.944,0.663 -0.944,1.22l0,1.706l-0.394,0l0,-4.689Z" style="fill:#11586c;fill-rule:nonzero;"/><path d="M76.206,22.883l-0.475,0l-0.869,-2.757l-0.013,0l-0.869,2.757l-0.475,0l-1.026,-3.189l0.432,0l0.837,2.758l0.013,0l0.888,-2.758l0.475,0l0.844,2.758l0.013,0l0.882,-2.758l0.394,0l-1.051,3.189Z" style="fill:#11586c;fill-rule:nonzero;"/><path d="M80.227,21.064c0,-0.557 -0.225,-1.107 -0.813,-1.107c-0.581,0 -0.938,0.582 -0.938,1.107l1.751,0ZM80.421,22.783c-0.275,0.114 -0.632,0.175 -0.926,0.175c-1.057,0 -1.451,-0.712 -1.451,-1.669c0,-0.975 0.539,-1.67 1.345,-1.67c0.9,0 1.269,0.726 1.269,1.583l0,0.2l-2.182,0c0,0.675 0.362,1.22 1.051,1.22c0.287,0 0.706,-0.12 0.894,-0.239l0,0.4Z" style="fill:#11586c;fill-rule:nonzero;"/><path d="M81.896,19.694l0.394,0l0,3.189l-0.394,0l0,-3.189ZM82.29,18.844l-0.394,0l0,-0.525l0.394,0l0,0.525Z" style="fill:#11586c;fill-rule:nonzero;"/><path d="M83.478,22.552l1.92,-2.52l-1.845,0l0,-0.338l2.301,0l0,0.338l-1.919,2.514l1.919,0l0,0.337l-2.376,0l0,-0.331Z" style="fill:#11586c;fill-rule:nonzero;"/><path d="M88.981,21.064c0,-0.557 -0.225,-1.107 -0.813,-1.107c-0.581,0 -0.938,0.582 -0.938,1.107l1.751,0ZM89.175,22.783c-0.275,0.114 -0.632,0.175 -0.926,0.175c-1.056,0 -1.451,-0.712 -1.451,-1.669c0,-0.975 0.539,-1.67 1.345,-1.67c0.9,0 1.27,0.726 1.27,1.583l0,0.2l-2.183,0c0,0.675 0.363,1.22 1.051,1.22c0.287,0 0.707,-0.12 0.894,-0.239l0,0.4Z" style="fill:#11586c;fill-rule:nonzero;"/><path d="M90.651,20.407c0,-0.35 0,-0.481 -0.025,-0.713l0.394,0l0,0.613l0.012,0c0.144,-0.356 0.413,-0.688 0.82,-0.688c0.093,0 0.206,0.019 0.275,0.038l0,0.413c-0.082,-0.025 -0.188,-0.038 -0.288,-0.038c-0.626,0 -0.795,0.7 -0.795,1.276l0,1.575l-0.393,0l0,-2.476Z" style="fill:#11586c;fill-rule:nonzero;"/><path d="M93.221,19.694l0.393,0l0,3.189l-0.393,0l0,-3.189ZM93.614,18.844l-0.393,0l0,-0.525l0.393,0l0,0.525Z" style="fill:#11586c;fill-rule:nonzero;"/><path d="M94.853,22.421c0.237,0.119 0.525,0.201 0.831,0.201c0.376,0 0.707,-0.208 0.707,-0.57c0,-0.756 -1.532,-0.638 -1.532,-1.564c0,-0.631 0.513,-0.869 1.038,-0.869c0.169,0 0.506,0.038 0.788,0.144l-0.037,0.344c-0.207,-0.094 -0.488,-0.15 -0.707,-0.15c-0.407,0 -0.688,0.125 -0.688,0.531c0,0.594 1.57,0.52 1.57,1.564c0,0.675 -0.632,0.906 -1.114,0.906c-0.306,0 -0.612,-0.037 -0.894,-0.149l0.038,-0.388Z" style="fill:#11586c;fill-rule:nonzero;"/><path d="M100.093,20.12c-0.213,-0.094 -0.47,-0.163 -0.682,-0.163c-0.769,0 -1.201,0.557 -1.201,1.332c0,0.726 0.438,1.333 1.157,1.333c0.251,0 0.481,-0.057 0.72,-0.145l0.036,0.37c-0.268,0.093 -0.519,0.111 -0.818,0.111c-1.026,0 -1.526,-0.781 -1.526,-1.669c0,-0.982 0.631,-1.67 1.576,-1.67c0.381,0 0.656,0.088 0.768,0.125l-0.03,0.376Z" style="fill:#11586c;fill-rule:nonzero;"/><path d="M101.281,18.194l0.393,0l0,2.038l0.013,0c0.169,-0.35 0.526,-0.613 0.994,-0.613c0.857,0 1.088,0.57 1.088,1.358l0,1.906l-0.394,0l0,-1.901c0,-0.55 -0.106,-1.025 -0.756,-1.025c-0.701,0 -0.945,0.663 -0.945,1.22l0,1.706l-0.393,0l0,-4.689Z" style="fill:#11586c;fill-rule:nonzero;"/><path d="M107.189,21.064c0,-0.557 -0.225,-1.107 -0.812,-1.107c-0.582,0 -0.939,0.582 -0.939,1.107l1.751,0ZM107.383,22.783c-0.275,0.114 -0.63,0.175 -0.925,0.175c-1.057,0 -1.45,-0.712 -1.45,-1.669c0,-0.975 0.537,-1.67 1.344,-1.67c0.901,0 1.27,0.726 1.27,1.583l0,0.2l-2.184,0c0,0.675 0.364,1.22 1.051,1.22c0.288,0 0.707,-0.12 0.894,-0.239l0,0.4Z" style="fill:#11586c;fill-rule:nonzero;"/><path d="M110.942,18.519l2.138,0l0,0.375l-1.707,0l0,1.558l1.62,0l0,0.375l-1.62,0l0,1.681l1.782,0l0,0.375l-2.213,0l0,-4.364Z" style="fill:#11586c;fill-rule:nonzero;"/><path d="M114.513,19.694l0.393,0l0,3.189l-0.393,0l0,-3.189ZM114.906,18.844l-0.393,0l0,-0.525l0.393,0l0,0.525Z" style="fill:#11586c;fill-rule:nonzero;"/><path d="M117.576,22.622c0.701,0 0.944,-0.751 0.944,-1.333c0,-0.582 -0.243,-1.332 -0.944,-1.332c-0.75,0 -0.944,0.713 -0.944,1.332c0,0.619 0.194,1.333 0.944,1.333ZM118.914,22.883l-0.394,0l0,-0.506l-0.012,0c-0.213,0.406 -0.538,0.581 -0.995,0.581c-0.875,0 -1.313,-0.725 -1.313,-1.669c0,-0.969 0.376,-1.67 1.313,-1.67c0.626,0 0.939,0.457 0.995,0.613l0.012,0l0,-2.038l0.394,0l0,4.689Z" style="fill:#11586c;fill-rule:nonzero;"/><path d="M121.516,22.546c0.712,0 0.969,-0.675 0.969,-1.257c0,-0.769 -0.225,-1.332 -0.944,-1.332c-0.75,0 -0.944,0.713 -0.944,1.332c0,0.625 0.25,1.257 0.919,1.257ZM122.879,22.622c0,0.887 -0.4,1.612 -1.494,1.612c-0.419,0 -0.801,-0.118 -0.963,-0.169l0.031,-0.393c0.244,0.125 0.594,0.225 0.938,0.225c1.013,0 1.101,-0.738 1.101,-1.639l-0.013,0c-0.212,0.463 -0.563,0.625 -0.969,0.625c-1.02,0 -1.345,-0.887 -1.345,-1.594c0,-0.969 0.375,-1.67 1.313,-1.67c0.425,0 0.7,0.057 0.995,0.438l0.012,0l0,-0.363l0.394,0l0,2.928Z" style="fill:#11586c;fill-rule:nonzero;"/><path d="M126.262,21.064c0,-0.557 -0.225,-1.107 -0.813,-1.107c-0.581,0 -0.938,0.582 -0.938,1.107l1.751,0ZM126.456,22.783c-0.275,0.114 -0.632,0.175 -0.926,0.175c-1.057,0 -1.45,-0.712 -1.45,-1.669c0,-0.975 0.538,-1.67 1.344,-1.67c0.9,0 1.269,0.726 1.269,1.583l0,0.2l-2.182,0c0,0.675 0.363,1.22 1.051,1.22c0.287,0 0.706,-0.12 0.894,-0.239l0,0.4Z" style="fill:#11586c;fill-rule:nonzero;"/><path d="M127.932,20.445c0,-0.244 0,-0.494 -0.025,-0.751l0.381,0l0,0.569l0.013,0c0.131,-0.287 0.368,-0.644 1.032,-0.644c0.788,0 1.087,0.526 1.087,1.226l0,2.038l-0.393,0l0,-1.938c0,-0.6 -0.213,-0.988 -0.757,-0.988c-0.719,0 -0.944,0.632 -0.944,1.163l0,1.763l-0.394,0l0,-2.438Z" style="fill:#11586c;fill-rule:nonzero;"/><path d="M133.141,22.622c0.687,0 1.057,-0.595 1.057,-1.333c0,-0.737 -0.37,-1.332 -1.057,-1.332c-0.688,0 -1.058,0.595 -1.058,1.332c0,0.738 0.37,1.333 1.058,1.333ZM133.141,19.619c1.032,0 1.488,0.801 1.488,1.67c0,0.869 -0.456,1.669 -1.488,1.669c-1.032,0 -1.488,-0.8 -1.488,-1.669c0,-0.869 0.456,-1.67 1.488,-1.67Z" style="fill:#11586c;fill-rule:nonzero;"/><path d="M135.617,22.421c0.237,0.119 0.526,0.201 0.831,0.201c0.375,0 0.707,-0.208 0.707,-0.57c0,-0.756 -1.532,-0.638 -1.532,-1.564c0,-0.631 0.513,-0.869 1.038,-0.869c0.169,0 0.507,0.038 0.787,0.144l-0.036,0.344c-0.207,-0.094 -0.488,-0.15 -0.707,-0.15c-0.407,0 -0.688,0.125 -0.688,0.531c0,0.594 1.57,0.52 1.57,1.564c0,0.675 -0.632,0.906 -1.114,0.906c-0.306,0 -0.612,-0.037 -0.894,-0.149l0.038,-0.388Z" style="fill:#11586c;fill-rule:nonzero;"/><path d="M138.537,22.421c0.237,0.119 0.526,0.201 0.831,0.201c0.375,0 0.707,-0.208 0.707,-0.57c0,-0.756 -1.532,-0.638 -1.532,-1.564c0,-0.631 0.513,-0.869 1.038,-0.869c0.169,0 0.507,0.038 0.787,0.144l-0.037,0.344c-0.206,-0.094 -0.487,-0.15 -0.706,-0.15c-0.407,0 -0.688,0.125 -0.688,0.531c0,0.594 1.57,0.52 1.57,1.564c0,0.675 -0.632,0.906 -1.114,0.906c-0.306,0 -0.612,-0.037 -0.894,-0.149l0.038,-0.388Z" style="fill:#11586c;fill-rule:nonzero;"/><path d="M143.646,21.064c0,-0.557 -0.226,-1.107 -0.813,-1.107c-0.582,0 -0.939,0.582 -0.939,1.107l1.752,0ZM143.838,22.783c-0.274,0.114 -0.63,0.175 -0.924,0.175c-1.056,0 -1.451,-0.712 -1.451,-1.669c0,-0.975 0.538,-1.67 1.345,-1.67c0.9,0 1.27,0.726 1.27,1.583l0,0.2l-2.184,0c0,0.675 0.364,1.22 1.051,1.22c0.288,0 0.707,-0.12 0.893,-0.239l0,0.4Z" style="fill:#11586c;fill-rule:nonzero;"/><path d="M145.315,20.445c0,-0.244 0,-0.494 -0.025,-0.751l0.382,0l0,0.569l0.012,0c0.131,-0.287 0.369,-0.644 1.032,-0.644c0.787,0 1.087,0.526 1.087,1.226l0,2.038l-0.393,0l0,-1.938c0,-0.6 -0.212,-0.988 -0.757,-0.988c-0.719,0 -0.944,0.632 -0.944,1.163l0,1.763l-0.394,0l0,-2.438Z" style="fill:#11586c;fill-rule:nonzero;"/><path d="M149.036,22.421c0.237,0.119 0.525,0.201 0.832,0.201c0.375,0 0.705,-0.208 0.705,-0.57c0,-0.756 -1.531,-0.638 -1.531,-1.564c0,-0.631 0.512,-0.869 1.038,-0.869c0.168,0 0.507,0.038 0.788,0.144l-0.038,0.344c-0.206,-0.094 -0.487,-0.15 -0.707,-0.15c-0.405,0 -0.687,0.125 -0.687,0.531c0,0.594 1.57,0.52 1.57,1.564c0,0.675 -0.633,0.906 -1.113,0.906c-0.307,0 -0.614,-0.037 -0.895,-0.149l0.038,-0.388Z" style="fill:#11586c;fill-rule:nonzero;"/><path d="M154.276,20.12c-0.213,-0.094 -0.469,-0.163 -0.682,-0.163c-0.769,0 -1.201,0.557 -1.201,1.332c0,0.726 0.438,1.333 1.157,1.333c0.251,0 0.482,-0.057 0.72,-0.145l0.037,0.37c-0.269,0.093 -0.519,0.111 -0.819,0.111c-1.025,0 -1.526,-0.781 -1.526,-1.669c0,-0.982 0.631,-1.67 1.576,-1.67c0.381,0 0.656,0.088 0.769,0.125l-0.031,0.376Z" style="fill:#11586c;fill-rule:nonzero;"/><path d="M155.464,18.194l0.394,0l0,2.038l0.012,0c0.169,-0.35 0.526,-0.613 0.994,-0.613c0.857,0 1.088,0.57 1.088,1.358l0,1.906l-0.393,0l0,-1.901c0,-0.55 -0.106,-1.025 -0.756,-1.025c-0.701,0 -0.945,0.663 -0.945,1.22l0,1.706l-0.394,0l0,-4.689Z" style="fill:#11586c;fill-rule:nonzero;"/><path d="M161.223,21.277l-0.112,0c-0.683,0 -1.494,0.069 -1.494,0.769c0,0.419 0.299,0.576 0.661,0.576c0.926,0 0.945,-0.808 0.945,-1.151l0,-0.194ZM161.26,22.371l-0.012,0c-0.175,0.381 -0.62,0.587 -1.013,0.587c-0.907,0 -1.051,-0.612 -1.051,-0.9c0,-1.069 1.139,-1.119 1.964,-1.119l0.075,0l0,-0.162c0,-0.545 -0.194,-0.82 -0.725,-0.82c-0.331,0 -0.644,0.075 -0.939,0.263l0,-0.382c0.244,-0.118 0.657,-0.219 0.939,-0.219c0.787,0 1.119,0.357 1.119,1.188l0,1.408c0,0.256 0,0.45 0.031,0.668l-0.388,0l0,-0.512Z" style="fill:#11586c;fill-rule:nonzero;"/><path d="M163.311,20.032l-0.643,0l0,-0.338l0.643,0l0,-0.231c0,-0.669 0.025,-1.344 0.845,-1.344c0.124,0 0.293,0.018 0.368,0.063l-0.025,0.344c-0.081,-0.044 -0.2,-0.069 -0.312,-0.069c-0.539,0 -0.482,0.581 -0.482,0.962l0,0.275l0.719,0l0,0.338l-0.719,0l0,2.851l-0.394,0l0,-2.851Z" style="fill:#11586c;fill-rule:nonzero;"/><path d="M166.988,20.032l-0.725,0l0,2.064c0,0.287 0.106,0.526 0.425,0.526c0.15,0 0.25,-0.032 0.362,-0.076l0.026,0.325c-0.094,0.037 -0.288,0.087 -0.482,0.087c-0.7,0 -0.726,-0.481 -0.726,-1.062l0,-1.864l-0.625,0l0,-0.338l0.625,0l0,-0.769l0.395,-0.138l0,0.907l0.725,0l0,0.338Z" style="fill:#11586c;fill-rule:nonzero;"/><path d="M65.076,27.632c-0.275,-0.144 -0.669,-0.188 -0.976,-0.188c-1.132,0 -1.77,0.801 -1.77,1.883c0,1.1 0.62,1.881 1.77,1.881c0.288,0 0.726,-0.037 0.976,-0.187l0.025,0.375c-0.238,0.144 -0.725,0.187 -1.001,0.187c-1.376,0 -2.201,-0.906 -2.201,-2.256c0,-1.326 0.85,-2.258 2.201,-2.258c0.257,0 0.776,0.044 1.001,0.163l-0.025,0.4Z" style="fill:#11586c;fill-rule:nonzero;"/><path d="M67.783,31.247c0.689,0 1.057,-0.595 1.057,-1.333c0,-0.737 -0.368,-1.332 -1.057,-1.332c-0.687,0 -1.056,0.595 -1.056,1.332c0,0.738 0.369,1.333 1.056,1.333ZM67.783,28.245c1.032,0 1.489,0.8 1.489,1.669c0,0.869 -0.457,1.669 -1.489,1.669c-1.031,0 -1.488,-0.8 -1.488,-1.669c0,-0.869 0.457,-1.669 1.488,-1.669Z" style="fill:#11586c;fill-rule:nonzero;"/><path d="M70.503,29.07c0,-0.244 0,-0.494 -0.025,-0.751l0.382,0l0,0.569l0.013,0c0.13,-0.287 0.368,-0.643 1.031,-0.643c0.789,0 1.088,0.525 1.088,1.225l0,2.039l-0.394,0l0,-1.939c0,-0.6 -0.212,-0.988 -0.756,-0.988c-0.719,0 -0.944,0.632 -0.944,1.163l0,1.764l-0.395,0l0,-2.439Z" style="fill:#11586c;fill-rule:nonzero;"/><path d="M74.737,28.657l-0.644,0l0,-0.338l0.644,0l0,-0.231c0,-0.669 0.025,-1.344 0.844,-1.344c0.125,0 0.294,0.018 0.369,0.062l-0.025,0.345c-0.082,-0.044 -0.2,-0.069 -0.313,-0.069c-0.538,0 -0.481,0.581 -0.481,0.962l0,0.275l0.719,0l0,0.338l-0.719,0l0,2.852l-0.394,0l0,-2.852Z" style="fill:#11586c;fill-rule:nonzero;"/><path d="M78.326,27.087l0.494,0l-0.787,0.901l-0.289,0l0.582,-0.901ZM78.983,29.689c0,-0.557 -0.225,-1.107 -0.813,-1.107c-0.582,0 -0.938,0.582 -0.938,1.107l1.751,0ZM79.177,31.408c-0.275,0.114 -0.632,0.175 -0.926,0.175c-1.057,0 -1.451,-0.712 -1.451,-1.669c0,-0.975 0.538,-1.669 1.344,-1.669c0.901,0 1.27,0.725 1.27,1.582l0,0.2l-2.182,0c0,0.675 0.362,1.22 1.051,1.22c0.287,0 0.706,-0.12 0.894,-0.239l0,0.4Z" style="fill:#11586c;fill-rule:nonzero;"/><path d="M81.84,31.247c0.7,0 0.944,-0.751 0.944,-1.333c0,-0.582 -0.244,-1.332 -0.944,-1.332c-0.75,0 -0.944,0.713 -0.944,1.332c0,0.619 0.194,1.333 0.944,1.333ZM83.178,31.509l-0.394,0l0,-0.507l-0.012,0c-0.213,0.406 -0.538,0.581 -0.994,0.581c-0.875,0 -1.314,-0.725 -1.314,-1.669c0,-0.969 0.375,-1.669 1.314,-1.669c0.625,0 0.937,0.456 0.994,0.612l0.012,0l0,-2.038l0.394,0l0,4.69Z" style="fill:#11586c;fill-rule:nonzero;"/><path d="M85.904,27.087l0.494,0l-0.788,0.901l-0.287,0l0.581,-0.901ZM86.561,29.689c0,-0.557 -0.225,-1.107 -0.813,-1.107c-0.581,0 -0.938,0.582 -0.938,1.107l1.751,0ZM86.755,31.408c-0.275,0.114 -0.632,0.175 -0.926,0.175c-1.056,0 -1.451,-0.712 -1.451,-1.669c0,-0.975 0.539,-1.669 1.345,-1.669c0.9,0 1.27,0.725 1.27,1.582l0,0.2l-2.183,0c0,0.675 0.363,1.22 1.051,1.22c0.287,0 0.707,-0.12 0.894,-0.239l0,0.4Z" style="fill:#11586c;fill-rule:nonzero;"/><path d="M88.231,29.032c0,-0.35 0,-0.481 -0.025,-0.713l0.394,0l0,0.613l0.013,0c0.143,-0.356 0.412,-0.687 0.819,-0.687c0.093,0 0.206,0.018 0.275,0.037l0,0.413c-0.082,-0.025 -0.188,-0.038 -0.288,-0.038c-0.626,0 -0.794,0.7 -0.794,1.275l0,1.577l-0.394,0l0,-2.477Z" style="fill:#11586c;fill-rule:nonzero;"/><path d="M92.596,29.902l-0.113,0c-0.681,0 -1.495,0.069 -1.495,0.769c0,0.419 0.3,0.576 0.663,0.576c0.926,0 0.945,-0.808 0.945,-1.151l0,-0.194ZM92.633,30.996l-0.012,0c-0.175,0.381 -0.619,0.587 -1.013,0.587c-0.907,0 -1.051,-0.612 -1.051,-0.9c0,-1.069 1.138,-1.119 1.963,-1.119l0.076,0l0,-0.162c0,-0.545 -0.194,-0.82 -0.726,-0.82c-0.332,0 -0.644,0.075 -0.937,0.263l0,-0.382c0.243,-0.118 0.655,-0.218 0.937,-0.218c0.788,0 1.119,0.356 1.119,1.188l0,1.407c0,0.256 0,0.45 0.032,0.669l-0.388,0l0,-0.513Z" style="fill:#11586c;fill-rule:nonzero;"/><path d="M95.791,28.657l-0.726,0l0,2.064c0,0.287 0.107,0.526 0.425,0.526c0.151,0 0.251,-0.032 0.363,-0.076l0.025,0.325c-0.094,0.037 -0.287,0.087 -0.481,0.087c-0.7,0 -0.725,-0.481 -0.725,-1.062l0,-1.864l-0.626,0l0,-0.338l0.626,0l0,-0.768l0.393,-0.139l0,0.907l0.726,0l0,0.338Z" style="fill:#11586c;fill-rule:nonzero;"/><path d="M96.985,28.319l0.394,0l0,3.19l-0.394,0l0,-3.19ZM97.379,27.469l-0.394,0l0,-0.525l0.394,0l0,0.525Z" style="fill:#11586c;fill-rule:nonzero;"/><path d="M100.105,31.247c0.688,0 1.057,-0.595 1.057,-1.333c0,-0.737 -0.369,-1.332 -1.057,-1.332c-0.687,0 -1.057,0.595 -1.057,1.332c0,0.738 0.37,1.333 1.057,1.333ZM100.105,28.245c1.032,0 1.488,0.8 1.488,1.669c0,0.869 -0.456,1.669 -1.488,1.669c-1.032,0 -1.488,-0.8 -1.488,-1.669c0,-0.869 0.456,-1.669 1.488,-1.669Z" style="fill:#11586c;fill-rule:nonzero;"/><path d="M102.825,29.07c0,-0.244 0,-0.494 -0.025,-0.751l0.382,0l0,0.569l0.012,0c0.131,-0.287 0.369,-0.643 1.032,-0.643c0.788,0 1.088,0.525 1.088,1.225l0,2.039l-0.394,0l0,-1.939c0,-0.6 -0.212,-0.988 -0.757,-0.988c-0.719,0 -0.944,0.632 -0.944,1.163l0,1.764l-0.394,0l0,-2.439Z" style="fill:#11586c;fill-rule:nonzero;"/><path d="M108.71,31.046c0.238,0.119 0.525,0.201 0.832,0.201c0.375,0 0.706,-0.207 0.706,-0.57c0,-0.756 -1.532,-0.638 -1.532,-1.563c0,-0.632 0.512,-0.869 1.038,-0.869c0.169,0 0.507,0.037 0.788,0.143l-0.038,0.344c-0.206,-0.094 -0.487,-0.15 -0.706,-0.15c-0.406,0 -0.688,0.125 -0.688,0.532c0,0.593 1.569,0.519 1.569,1.563c0,0.675 -0.631,0.906 -1.112,0.906c-0.307,0 -0.614,-0.037 -0.895,-0.149l0.038,-0.388Z" style="fill:#11586c;fill-rule:nonzero;"/><path d="M114.362,30.758c0,0.244 0,0.494 0.026,0.751l-0.382,0l0,-0.569l-0.013,0c-0.131,0.287 -0.369,0.643 -1.031,0.643c-0.789,0 -1.089,-0.525 -1.089,-1.225l0,-2.039l0.395,0l0,1.939c0,0.6 0.212,0.989 0.756,0.989c0.719,0 0.944,-0.633 0.944,-1.164l0,-1.764l0.394,0l0,2.439Z" style="fill:#11586c;fill-rule:nonzero;"/><path d="M115.838,28.319l0.394,0l0,3.19l-0.394,0l0,-3.19ZM116.232,27.469l-0.394,0l0,-0.525l0.394,0l0,0.525Z" style="fill:#11586c;fill-rule:nonzero;"/><path d="M117.47,31.046c0.238,0.119 0.525,0.201 0.832,0.201c0.375,0 0.706,-0.207 0.706,-0.57c0,-0.756 -1.532,-0.638 -1.532,-1.563c0,-0.632 0.512,-0.869 1.038,-0.869c0.169,0 0.507,0.037 0.788,0.143l-0.038,0.344c-0.206,-0.094 -0.487,-0.15 -0.706,-0.15c-0.406,0 -0.688,0.125 -0.688,0.532c0,0.593 1.569,0.519 1.569,1.563c0,0.675 -0.631,0.906 -1.112,0.906c-0.307,0 -0.614,-0.037 -0.894,-0.149l0.037,-0.388Z" style="fill:#11586c;fill-rule:nonzero;"/><path d="M120.39,31.046c0.238,0.119 0.526,0.201 0.833,0.201c0.375,0 0.705,-0.207 0.705,-0.57c0,-0.756 -1.531,-0.638 -1.531,-1.563c0,-0.632 0.512,-0.869 1.038,-0.869c0.168,0 0.507,0.037 0.788,0.143l-0.038,0.344c-0.206,-0.094 -0.487,-0.15 -0.707,-0.15c-0.405,0 -0.687,0.125 -0.687,0.532c0,0.593 1.57,0.519 1.57,1.563c0,0.675 -0.633,0.906 -1.113,0.906c-0.307,0 -0.614,-0.037 -0.895,-0.149l0.037,-0.388Z" style="fill:#11586c;fill-rule:nonzero;"/><path d="M125.499,29.689c0,-0.557 -0.225,-1.107 -0.812,-1.107c-0.583,0 -0.939,0.582 -0.939,1.107l1.751,0ZM125.693,31.408c-0.275,0.114 -0.631,0.175 -0.925,0.175c-1.057,0 -1.451,-0.712 -1.451,-1.669c0,-0.975 0.537,-1.669 1.344,-1.669c0.901,0 1.27,0.725 1.27,1.582l0,0.2l-2.183,0c0,0.675 0.363,1.22 1.05,1.22c0.289,0 0.707,-0.12 0.895,-0.239l0,0.4Z" style="fill:#11586c;fill-rule:nonzero;"/><path d="M65.076,36.257c-0.275,-0.144 -0.669,-0.188 -0.976,-0.188c-1.132,0 -1.77,0.801 -1.77,1.883c0,1.1 0.62,1.881 1.77,1.881c0.288,0 0.726,-0.037 0.976,-0.187l0.025,0.375c-0.238,0.144 -0.725,0.187 -1.001,0.187c-1.376,0 -2.201,-0.906 -2.201,-2.256c0,-1.326 0.85,-2.258 2.201,-2.258c0.257,0 0.776,0.043 1.001,0.163l-0.025,0.4Z" style="fill:#11586c;fill-rule:nonzero;"/><path d="M67.783,39.872c0.689,0 1.057,-0.595 1.057,-1.333c0,-0.737 -0.368,-1.332 -1.057,-1.332c-0.687,0 -1.056,0.595 -1.056,1.332c0,0.738 0.369,1.333 1.056,1.333ZM67.783,36.87c1.032,0 1.489,0.8 1.489,1.669c0,0.869 -0.457,1.669 -1.489,1.669c-1.031,0 -1.488,-0.8 -1.488,-1.669c0,-0.869 0.457,-1.669 1.488,-1.669Z" style="fill:#11586c;fill-rule:nonzero;"/><path d="M70.503,37.695c0,-0.244 0,-0.493 -0.025,-0.751l0.382,0l0,0.57l0.013,0c0.13,-0.288 0.368,-0.644 1.031,-0.644c0.789,0 1.088,0.525 1.088,1.225l0,2.039l-0.394,0l0,-1.939c0,-0.6 -0.212,-0.988 -0.756,-0.988c-0.719,0 -0.944,0.632 -0.944,1.163l0,1.764l-0.395,0l0,-2.439Z" style="fill:#11586c;fill-rule:nonzero;"/><path d="M74.737,37.282l-0.644,0l0,-0.338l0.644,0l0,-0.231c0,-0.669 0.025,-1.344 0.844,-1.344c0.125,0 0.294,0.018 0.369,0.063l-0.025,0.344c-0.082,-0.044 -0.2,-0.069 -0.313,-0.069c-0.538,0 -0.481,0.581 -0.481,0.962l0,0.275l0.719,0l0,0.338l-0.719,0l0,2.852l-0.394,0l0,-2.852Z" style="fill:#11586c;fill-rule:nonzero;"/><path d="M78.983,38.314c0,-0.557 -0.225,-1.107 -0.813,-1.107c-0.582,0 -0.938,0.582 -0.938,1.107l1.751,0ZM79.177,40.034c-0.275,0.113 -0.632,0.174 -0.926,0.174c-1.057,0 -1.451,-0.712 -1.451,-1.669c0,-0.975 0.538,-1.669 1.344,-1.669c0.901,0 1.27,0.725 1.27,1.582l0,0.2l-2.182,0c0,0.675 0.362,1.22 1.051,1.22c0.287,0 0.706,-0.12 0.894,-0.238l0,0.4Z" style="fill:#11586c;fill-rule:nonzero;"/><path d="M81.84,39.872c0.7,0 0.944,-0.751 0.944,-1.333c0,-0.582 -0.244,-1.332 -0.944,-1.332c-0.75,0 -0.944,0.713 -0.944,1.332c0,0.619 0.194,1.333 0.944,1.333ZM83.178,40.134l-0.394,0l0,-0.507l-0.012,0c-0.213,0.407 -0.538,0.581 -0.994,0.581c-0.875,0 -1.314,-0.725 -1.314,-1.669c0,-0.969 0.375,-1.669 1.314,-1.669c0.625,0 0.937,0.456 0.994,0.612l0.012,0l0,-2.038l0.394,0l0,4.69Z" style="fill:#11586c;fill-rule:nonzero;"/><path d="M86.561,38.314c0,-0.557 -0.225,-1.107 -0.813,-1.107c-0.581,0 -0.938,0.582 -0.938,1.107l1.751,0ZM86.755,40.034c-0.275,0.113 -0.632,0.174 -0.926,0.174c-1.056,0 -1.451,-0.712 -1.451,-1.669c0,-0.975 0.539,-1.669 1.345,-1.669c0.9,0 1.27,0.725 1.27,1.582l0,0.2l-2.183,0c0,0.675 0.363,1.22 1.051,1.22c0.287,0 0.707,-0.12 0.894,-0.238l0,0.4Z" style="fill:#11586c;fill-rule:nonzero;"/><path d="M88.231,37.657c0,-0.35 0,-0.481 -0.025,-0.713l0.394,0l0,0.613l0.013,0c0.143,-0.355 0.412,-0.687 0.819,-0.687c0.093,0 0.206,0.018 0.275,0.037l0,0.413c-0.082,-0.025 -0.188,-0.038 -0.288,-0.038c-0.626,0 -0.794,0.701 -0.794,1.276l0,1.576l-0.394,0l0,-2.477Z" style="fill:#11586c;fill-rule:nonzero;"/><path d="M92.596,38.527l-0.113,0c-0.681,0 -1.495,0.069 -1.495,0.769c0,0.419 0.3,0.576 0.663,0.576c0.926,0 0.945,-0.808 0.945,-1.151l0,-0.194ZM92.633,39.621l-0.012,0c-0.175,0.381 -0.619,0.587 -1.013,0.587c-0.907,0 -1.051,-0.612 -1.051,-0.9c0,-1.069 1.138,-1.119 1.963,-1.119l0.076,0l0,-0.162c0,-0.545 -0.194,-0.82 -0.726,-0.82c-0.332,0 -0.644,0.075 -0.937,0.263l0,-0.382c0.243,-0.118 0.655,-0.218 0.937,-0.218c0.788,0 1.119,0.356 1.119,1.187l0,1.408c0,0.257 0,0.45 0.032,0.669l-0.388,0l0,-0.513Z" style="fill:#11586c;fill-rule:nonzero;"/><path d="M94.121,39.802l1.92,-2.52l-1.845,0l0,-0.338l2.301,0l0,0.338l-1.919,2.514l1.919,0l0,0.338l-2.376,0l0,-0.332Z" style="fill:#11586c;fill-rule:nonzero;"/><path d="M97.679,36.944l0.394,0l0,3.19l-0.394,0l0,-3.19ZM98.073,36.094l-0.394,0l0,-0.525l0.394,0l0,0.525Z" style="fill:#11586c;fill-rule:nonzero;"/><path d="M100.799,39.872c0.689,0 1.057,-0.595 1.057,-1.333c0,-0.737 -0.368,-1.332 -1.057,-1.332c-0.687,0 -1.056,0.595 -1.056,1.332c0,0.738 0.369,1.333 1.056,1.333ZM100.799,36.87c1.032,0 1.489,0.8 1.489,1.669c0,0.869 -0.457,1.669 -1.489,1.669c-1.031,0 -1.488,-0.8 -1.488,-1.669c0,-0.869 0.457,-1.669 1.488,-1.669Z" style="fill:#11586c;fill-rule:nonzero;"/><path d="M103.519,37.695c0,-0.244 0,-0.493 -0.025,-0.751l0.382,0l0,0.57l0.012,0c0.131,-0.288 0.369,-0.644 1.032,-0.644c0.788,0 1.088,0.525 1.088,1.225l0,2.039l-0.394,0l0,-1.939c0,-0.6 -0.212,-0.988 -0.756,-0.988c-0.72,0 -0.945,0.632 -0.945,1.163l0,1.764l-0.394,0l0,-2.439Z" style="fill:#11586c;fill-rule:nonzero;"/><path d="M109.428,38.314c0,-0.557 -0.225,-1.107 -0.812,-1.107c-0.582,0 -0.938,0.582 -0.938,1.107l1.75,0ZM109.623,40.034c-0.275,0.113 -0.632,0.174 -0.926,0.174c-1.057,0 -1.451,-0.712 -1.451,-1.669c0,-0.975 0.538,-1.669 1.345,-1.669c0.9,0 1.269,0.725 1.269,1.582l0,0.2l-2.182,0c0,0.675 0.362,1.22 1.05,1.22c0.288,0 0.707,-0.12 0.895,-0.238l0,0.4Z" style="fill:#11586c;fill-rule:nonzero;"/><path d="M113.187,39.577c0.256,0.163 0.556,0.256 0.963,0.256c0.538,0 0.982,-0.275 0.982,-0.893c0,-0.858 -2.002,-0.963 -2.002,-2.108c0,-0.7 0.613,-1.138 1.383,-1.138c0.212,0 0.556,0.032 0.856,0.143l-0.069,0.395c-0.193,-0.106 -0.5,-0.163 -0.794,-0.163c-0.45,0 -0.944,0.188 -0.944,0.751c0,0.875 2.001,0.882 2.001,2.157c0,0.882 -0.756,1.231 -1.432,1.231c-0.425,0 -0.757,-0.087 -0.988,-0.187l0.044,-0.444Z" style="fill:#11586c;fill-rule:nonzero;"/><path d="M117.983,40.134l-0.463,0l-1.082,-3.19l0.432,0l0.882,2.758l0.011,0l0.926,-2.758l0.413,0l-1.119,3.19Z" style="fill:#11586c;fill-rule:nonzero;"/><path d="M120.14,36.944l0.394,0l0,3.19l-0.394,0l0,-3.19ZM120.534,36.094l-0.394,0l0,-0.525l0.394,0l0,0.525Z" style="fill:#11586c;fill-rule:nonzero;"/><path d="M121.723,39.802l1.92,-2.52l-1.845,0l0,-0.338l2.3,0l0,0.338l-1.919,2.514l1.919,0l0,0.338l-2.375,0l0,-0.332Z" style="fill:#11586c;fill-rule:nonzero;"/><path d="M124.987,39.802l1.92,-2.52l-1.845,0l0,-0.338l2.301,0l0,0.338l-1.92,2.514l1.92,0l0,0.338l-2.376,0l0,-0.332Z" style="fill:#11586c;fill-rule:nonzero;"/><path d="M130.488,38.314c0,-0.557 -0.225,-1.107 -0.812,-1.107c-0.582,0 -0.938,0.582 -0.938,1.107l1.75,0ZM130.683,40.034c-0.275,0.113 -0.631,0.174 -0.926,0.174c-1.057,0 -1.45,-0.712 -1.45,-1.669c0,-0.975 0.537,-1.669 1.344,-1.669c0.901,0 1.269,0.725 1.269,1.582l0,0.2l-2.182,0c0,0.675 0.363,1.22 1.05,1.22c0.288,0 0.707,-0.12 0.895,-0.238l0,0.4Z" style="fill:#11586c;fill-rule:nonzero;"/><path d="M132.158,37.657c0,-0.35 0,-0.481 -0.024,-0.713l0.394,0l0,0.613l0.012,0c0.144,-0.355 0.413,-0.687 0.819,-0.687c0.094,0 0.207,0.018 0.275,0.037l0,0.413c-0.081,-0.025 -0.187,-0.038 -0.287,-0.038c-0.625,0 -0.794,0.701 -0.794,1.276l0,1.576l-0.395,0l0,-2.477Z" style="fill:#11586c;fill-rule:nonzero;"/><path d="M136.523,38.527l-0.112,0c-0.682,0 -1.495,0.069 -1.495,0.769c0,0.419 0.301,0.576 0.663,0.576c0.925,0 0.944,-0.808 0.944,-1.151l0,-0.194ZM136.561,39.621l-0.013,0c-0.175,0.381 -0.619,0.587 -1.013,0.587c-0.907,0 -1.05,-0.612 -1.05,-0.9c0,-1.069 1.138,-1.119 1.963,-1.119l0.075,0l0,-0.162c0,-0.545 -0.194,-0.82 -0.725,-0.82c-0.331,0 -0.644,0.075 -0.938,0.263l0,-0.382c0.244,-0.118 0.657,-0.218 0.938,-0.218c0.788,0 1.12,0.356 1.12,1.187l0,1.408c0,0.257 0,0.45 0.03,0.669l-0.387,0l0,-0.513Z" style="fill:#11586c;fill-rule:nonzero;"/><path d="M65.076,44.882c-0.275,-0.144 -0.669,-0.188 -0.976,-0.188c-1.132,0 -1.77,0.8 -1.77,1.883c0,1.1 0.62,1.881 1.77,1.881c0.288,0 0.726,-0.037 0.976,-0.187l0.025,0.375c-0.238,0.144 -0.725,0.187 -1.001,0.187c-1.376,0 -2.201,-0.906 -2.201,-2.256c0,-1.326 0.85,-2.258 2.201,-2.258c0.257,0 0.776,0.043 1.001,0.162l-0.025,0.401Z" style="fill:#11586c;fill-rule:nonzero;"/><path d="M67.783,48.496c0.689,0 1.057,-0.594 1.057,-1.332c0,-0.738 -0.368,-1.332 -1.057,-1.332c-0.687,0 -1.056,0.594 -1.056,1.332c0,0.738 0.369,1.332 1.056,1.332ZM67.783,45.494c1.032,0 1.489,0.801 1.489,1.67c0,0.869 -0.457,1.669 -1.489,1.669c-1.031,0 -1.488,-0.8 -1.488,-1.669c0,-0.869 0.457,-1.67 1.488,-1.67Z" style="fill:#11586c;fill-rule:nonzero;"/><path d="M70.503,46.32c0,-0.244 0,-0.494 -0.025,-0.751l0.382,0l0,0.569l0.013,0c0.13,-0.287 0.368,-0.644 1.031,-0.644c0.789,0 1.088,0.526 1.088,1.226l0,2.038l-0.394,0l0,-1.938c0,-0.6 -0.212,-0.988 -0.756,-0.988c-0.719,0 -0.944,0.631 -0.944,1.163l0,1.763l-0.395,0l0,-2.438Z" style="fill:#11586c;fill-rule:nonzero;"/><path d="M74.737,45.907l-0.644,0l0,-0.338l0.644,0l0,-0.231c0,-0.669 0.025,-1.345 0.844,-1.345c0.125,0 0.294,0.019 0.369,0.064l-0.025,0.343c-0.082,-0.043 -0.2,-0.068 -0.313,-0.068c-0.538,0 -0.481,0.58 -0.481,0.962l0,0.275l0.719,0l0,0.338l-0.719,0l0,2.851l-0.394,0l0,-2.851Z" style="fill:#11586c;fill-rule:nonzero;"/><path d="M78.983,46.939c0,-0.557 -0.225,-1.107 -0.813,-1.107c-0.582,0 -0.938,0.581 -0.938,1.107l1.751,0ZM79.177,48.658c-0.275,0.113 -0.632,0.175 -0.926,0.175c-1.057,0 -1.451,-0.712 -1.451,-1.669c0,-0.976 0.538,-1.67 1.344,-1.67c0.901,0 1.27,0.726 1.27,1.583l0,0.2l-2.182,0c0,0.675 0.362,1.219 1.051,1.219c0.287,0 0.706,-0.119 0.894,-0.238l0,0.4Z" style="fill:#11586c;fill-rule:nonzero;"/><path d="M81.84,48.496c0.7,0 0.944,-0.751 0.944,-1.332c0,-0.582 -0.244,-1.332 -0.944,-1.332c-0.75,0 -0.944,0.713 -0.944,1.332c0,0.619 0.194,1.332 0.944,1.332ZM83.178,48.758l-0.394,0l0,-0.506l-0.012,0c-0.213,0.406 -0.538,0.581 -0.994,0.581c-0.875,0 -1.314,-0.725 -1.314,-1.669c0,-0.969 0.375,-1.67 1.314,-1.67c0.625,0 0.937,0.457 0.994,0.613l0.012,0l0,-2.039l0.394,0l0,4.69Z" style="fill:#11586c;fill-rule:nonzero;"/><path d="M86.561,46.939c0,-0.557 -0.225,-1.107 -0.813,-1.107c-0.581,0 -0.938,0.581 -0.938,1.107l1.751,0ZM86.755,48.658c-0.275,0.113 -0.632,0.175 -0.926,0.175c-1.056,0 -1.451,-0.712 -1.451,-1.669c0,-0.976 0.539,-1.67 1.345,-1.67c0.9,0 1.27,0.726 1.27,1.583l0,0.2l-2.183,0c0,0.675 0.363,1.219 1.051,1.219c0.287,0 0.707,-0.119 0.894,-0.238l0,0.4Z" style="fill:#11586c;fill-rule:nonzero;"/><path d="M88.231,46.282c0,-0.35 0,-0.481 -0.025,-0.713l0.394,0l0,0.613l0.013,0c0.143,-0.356 0.412,-0.688 0.819,-0.688c0.093,0 0.206,0.019 0.275,0.038l0,0.413c-0.082,-0.025 -0.188,-0.038 -0.288,-0.038c-0.626,0 -0.794,0.7 -0.794,1.275l0,1.576l-0.394,0l0,-2.476Z" style="fill:#11586c;fill-rule:nonzero;"/><path d="M92.596,47.152l-0.113,0c-0.681,0 -1.495,0.069 -1.495,0.769c0,0.418 0.3,0.575 0.663,0.575c0.926,0 0.945,-0.807 0.945,-1.151l0,-0.193ZM92.633,48.246l-0.012,0c-0.175,0.381 -0.619,0.587 -1.013,0.587c-0.907,0 -1.051,-0.612 -1.051,-0.9c0,-1.069 1.138,-1.119 1.963,-1.119l0.076,0l0,-0.163c0,-0.544 -0.194,-0.819 -0.726,-0.819c-0.332,0 -0.644,0.075 -0.937,0.262l0,-0.381c0.243,-0.119 0.655,-0.219 0.937,-0.219c0.788,0 1.119,0.357 1.119,1.188l0,1.408c0,0.256 0,0.45 0.032,0.668l-0.388,0l0,-0.512Z" style="fill:#11586c;fill-rule:nonzero;"/><path d="M94.121,48.427l1.92,-2.52l-1.845,0l0,-0.338l2.301,0l0,0.338l-1.919,2.514l1.919,0l0,0.337l-2.376,0l0,-0.331Z" style="fill:#11586c;fill-rule:nonzero;"/><path d="M97.679,45.569l0.394,0l0,3.189l-0.394,0l0,-3.189ZM98.073,44.719l-0.394,0l0,-0.525l0.394,0l0,0.525Z" style="fill:#11586c;fill-rule:nonzero;"/><path d="M102.043,48.008c0,0.244 0,0.494 0.025,0.75l-0.381,0l0,-0.568l-0.012,0c-0.132,0.287 -0.369,0.643 -1.032,0.643c-0.788,0 -1.088,-0.525 -1.088,-1.226l0,-2.038l0.394,0l0,1.938c0,0.601 0.213,0.989 0.757,0.989c0.719,0 0.944,-0.632 0.944,-1.164l0,-1.763l0.393,0l0,2.439Z" style="fill:#11586c;fill-rule:nonzero;"/><path d="M103.519,46.32c0,-0.244 0,-0.494 -0.025,-0.751l0.382,0l0,0.569l0.012,0c0.131,-0.287 0.369,-0.644 1.032,-0.644c0.788,0 1.088,0.526 1.088,1.226l0,2.038l-0.394,0l0,-1.938c0,-0.6 -0.212,-0.988 -0.756,-0.988c-0.72,0 -0.945,0.631 -0.945,1.163l0,1.763l-0.394,0l0,-2.438Z" style="fill:#11586c;fill-rule:nonzero;"/><path d="M109.403,48.296c0.238,0.119 0.526,0.2 0.832,0.2c0.375,0 0.707,-0.207 0.707,-0.569c0,-0.757 -1.532,-0.638 -1.532,-1.564c0,-0.631 0.513,-0.869 1.038,-0.869c0.169,0 0.506,0.038 0.787,0.144l-0.037,0.344c-0.206,-0.094 -0.487,-0.15 -0.706,-0.15c-0.407,0 -0.689,0.125 -0.689,0.531c0,0.594 1.57,0.519 1.57,1.564c0,0.675 -0.631,0.906 -1.113,0.906c-0.307,0 -0.612,-0.037 -0.894,-0.15l0.037,-0.387Z" style="fill:#11586c;fill-rule:nonzero;"/><path d="M113.674,48.758l-0.462,0l-1.082,-3.189l0.432,0l0.881,2.758l0.013,0l0.925,-2.758l0.412,0l-1.119,3.189Z" style="fill:#11586c;fill-rule:nonzero;"/><path d="M115.832,45.569l0.394,0l0,3.189l-0.394,0l0,-3.189ZM116.226,44.719l-0.394,0l0,-0.525l0.394,0l0,0.525Z" style="fill:#11586c;fill-rule:nonzero;"/><path d="M117.414,48.427l1.919,-2.52l-1.845,0l0,-0.338l2.302,0l0,0.338l-1.92,2.514l1.92,0l0,0.337l-2.376,0l0,-0.331Z" style="fill:#11586c;fill-rule:nonzero;"/><path d="M120.972,46.282c0,-0.35 0,-0.481 -0.025,-0.713l0.394,0l0,0.613l0.012,0c0.144,-0.356 0.413,-0.688 0.82,-0.688c0.093,0 0.205,0.019 0.275,0.038l0,0.413c-0.082,-0.025 -0.188,-0.038 -0.288,-0.038c-0.626,0 -0.794,0.7 -0.794,1.275l0,1.576l-0.394,0l0,-2.476Z" style="fill:#11586c;fill-rule:nonzero;"/><path d="M125.337,47.152l-0.113,0c-0.681,0 -1.495,0.069 -1.495,0.769c0,0.418 0.3,0.575 0.664,0.575c0.925,0 0.944,-0.807 0.944,-1.151l0,-0.193ZM125.374,48.246l-0.012,0c-0.175,0.381 -0.619,0.587 -1.014,0.587c-0.906,0 -1.05,-0.612 -1.05,-0.9c0,-1.069 1.138,-1.119 1.963,-1.119l0.076,0l0,-0.163c0,-0.544 -0.194,-0.819 -0.726,-0.819c-0.332,0 -0.644,0.075 -0.938,0.262l0,-0.381c0.244,-0.119 0.656,-0.219 0.938,-0.219c0.788,0 1.119,0.357 1.119,1.188l0,1.408c0,0.256 0,0.45 0.032,0.668l-0.388,0l0,-0.512Z" style="fill:#11586c;fill-rule:nonzero;"/><path d="M61.962,65.452c0.256,0.163 0.556,0.256 0.962,0.256c0.539,0 0.983,-0.275 0.983,-0.894c0,-0.857 -2.002,-0.962 -2.002,-2.107c0,-0.7 0.613,-1.138 1.383,-1.138c0.212,0 0.555,0.031 0.856,0.143l-0.069,0.395c-0.194,-0.107 -0.5,-0.163 -0.794,-0.163c-0.45,0 -0.944,0.188 -0.944,0.75c0,0.876 2.001,0.882 2.001,2.158c0,0.881 -0.757,1.231 -1.432,1.231c-0.425,0 -0.757,-0.087 -0.988,-0.187l0.044,-0.444Z" style="fill:#11586c;fill-rule:nonzero;"/><path d="M68.928,66.008l-0.475,0l-0.87,-2.757l-0.012,0l-0.869,2.757l-0.476,0l-1.025,-3.189l0.431,0l0.838,2.758l0.013,0l0.887,-2.758l0.476,0l0.844,2.758l0.012,0l0.882,-2.758l0.394,0l-1.05,3.189Z" style="fill:#11586c;fill-rule:nonzero;"/><path d="M71.003,62.819l0.395,0l0,3.189l-0.395,0l0,-3.189ZM71.398,61.969l-0.395,0l0,-0.525l0.395,0l0,0.525Z" style="fill:#11586c;fill-rule:nonzero;"/><path d="M72.636,65.546c0.237,0.119 0.525,0.2 0.832,0.2c0.375,0 0.705,-0.207 0.705,-0.569c0,-0.756 -1.531,-0.638 -1.531,-1.564c0,-0.631 0.512,-0.869 1.038,-0.869c0.168,0 0.506,0.038 0.788,0.144l-0.038,0.344c-0.207,-0.094 -0.487,-0.15 -0.707,-0.15c-0.405,0 -0.687,0.125 -0.687,0.531c0,0.594 1.569,0.519 1.569,1.564c0,0.675 -0.632,0.906 -1.113,0.906c-0.306,0 -0.613,-0.037 -0.894,-0.149l0.038,-0.388Z" style="fill:#11586c;fill-rule:nonzero;"/><path d="M75.556,65.546c0.237,0.119 0.525,0.2 0.832,0.2c0.375,0 0.706,-0.207 0.706,-0.569c0,-0.756 -1.532,-0.638 -1.532,-1.564c0,-0.631 0.513,-0.869 1.038,-0.869c0.169,0 0.507,0.038 0.788,0.144l-0.038,0.344c-0.206,-0.094 -0.487,-0.15 -0.706,-0.15c-0.406,0 -0.688,0.125 -0.688,0.531c0,0.594 1.569,0.519 1.569,1.564c0,0.675 -0.632,0.906 -1.112,0.906c-0.307,0 -0.613,-0.037 -0.895,-0.149l0.038,-0.388Z" style="fill:#11586c;fill-rule:nonzero;"/><path d="M83.985,62.132c-0.275,-0.144 -0.669,-0.188 -0.976,-0.188c-1.131,0 -1.77,0.8 -1.77,1.883c0,1.1 0.62,1.881 1.77,1.881c0.288,0 0.725,-0.037 0.976,-0.187l0.025,0.375c-0.238,0.144 -0.726,0.187 -1.001,0.187c-1.376,0 -2.201,-0.906 -2.201,-2.256c0,-1.326 0.85,-2.258 2.201,-2.258c0.256,0 0.776,0.043 1.001,0.163l-0.025,0.4Z" style="fill:#11586c;fill-rule:nonzero;"/><path d="M86.848,65.746c0.689,0 1.057,-0.594 1.057,-1.332c0,-0.737 -0.368,-1.332 -1.057,-1.332c-0.687,0 -1.056,0.595 -1.056,1.332c0,0.738 0.369,1.332 1.056,1.332ZM86.848,62.744c1.033,0 1.489,0.801 1.489,1.67c0,0.869 -0.456,1.669 -1.489,1.669c-1.03,0 -1.487,-0.8 -1.487,-1.669c0,-0.869 0.457,-1.67 1.487,-1.67Z" style="fill:#11586c;fill-rule:nonzero;"/><path d="M89.568,63.57c0,-0.244 0,-0.494 -0.024,-0.751l0.381,0l0,0.569l0.013,0c0.131,-0.287 0.369,-0.644 1.031,-0.644c0.789,0 1.089,0.526 1.089,1.226l0,2.038l-0.395,0l0,-1.938c0,-0.6 -0.212,-0.988 -0.756,-0.988c-0.719,0 -0.944,0.632 -0.944,1.163l0,1.763l-0.395,0l0,-2.438Z" style="fill:#11586c;fill-rule:nonzero;"/><path d="M93.803,63.157l-0.645,0l0,-0.338l0.645,0l0,-0.231c0,-0.669 0.024,-1.344 0.843,-1.344c0.126,0 0.294,0.018 0.369,0.063l-0.025,0.343c-0.081,-0.043 -0.2,-0.068 -0.312,-0.068c-0.538,0 -0.482,0.581 -0.482,0.962l0,0.275l0.719,0l0,0.338l-0.719,0l0,2.851l-0.393,0l0,-2.851Z" style="fill:#11586c;fill-rule:nonzero;"/><path d="M98.048,64.189c0,-0.557 -0.225,-1.107 -0.813,-1.107c-0.582,0 -0.938,0.581 -0.938,1.107l1.751,0ZM98.242,65.908c-0.275,0.114 -0.632,0.175 -0.926,0.175c-1.057,0 -1.45,-0.712 -1.45,-1.669c0,-0.976 0.537,-1.67 1.344,-1.67c0.9,0 1.269,0.726 1.269,1.583l0,0.2l-2.182,0c0,0.675 0.363,1.219 1.051,1.219c0.287,0 0.706,-0.119 0.894,-0.238l0,0.4Z" style="fill:#11586c;fill-rule:nonzero;"/><path d="M100.906,65.746c0.7,0 0.944,-0.75 0.944,-1.332c0,-0.582 -0.244,-1.332 -0.944,-1.332c-0.75,0 -0.944,0.713 -0.944,1.332c0,0.619 0.194,1.332 0.944,1.332ZM102.244,66.008l-0.394,0l0,-0.506l-0.012,0c-0.213,0.406 -0.538,0.581 -0.995,0.581c-0.875,0 -1.313,-0.725 -1.313,-1.669c0,-0.969 0.375,-1.67 1.313,-1.67c0.625,0 0.938,0.457 0.995,0.613l0.012,0l0,-2.038l0.394,0l0,4.689Z" style="fill:#11586c;fill-rule:nonzero;"/><path d="M105.627,64.189c0,-0.557 -0.225,-1.107 -0.813,-1.107c-0.581,0 -0.938,0.581 -0.938,1.107l1.751,0ZM105.821,65.908c-0.275,0.114 -0.632,0.175 -0.926,0.175c-1.057,0 -1.451,-0.712 -1.451,-1.669c0,-0.976 0.539,-1.67 1.345,-1.67c0.9,0 1.269,0.726 1.269,1.583l0,0.2l-2.182,0c0,0.675 0.362,1.219 1.051,1.219c0.287,0 0.706,-0.119 0.894,-0.238l0,0.4Z" style="fill:#11586c;fill-rule:nonzero;"/><path d="M107.296,63.532c0,-0.35 0,-0.481 -0.024,-0.713l0.393,0l0,0.613l0.013,0c0.144,-0.356 0.413,-0.688 0.819,-0.688c0.094,0 0.206,0.019 0.275,0.038l0,0.413c-0.081,-0.025 -0.188,-0.038 -0.288,-0.038c-0.625,0 -0.794,0.7 -0.794,1.275l0,1.576l-0.394,0l0,-2.476Z" style="fill:#11586c;fill-rule:nonzero;"/><path d="M111.661,64.402l-0.113,0c-0.681,0 -1.495,0.069 -1.495,0.769c0,0.419 0.301,0.575 0.664,0.575c0.925,0 0.944,-0.807 0.944,-1.15l0,-0.194ZM111.698,65.496l-0.012,0c-0.175,0.381 -0.619,0.587 -1.013,0.587c-0.907,0 -1.05,-0.612 -1.05,-0.9c0,-1.069 1.138,-1.119 1.963,-1.119l0.075,0l0,-0.162c0,-0.545 -0.194,-0.82 -0.725,-0.82c-0.332,0 -0.644,0.075 -0.938,0.263l0,-0.382c0.244,-0.118 0.656,-0.219 0.938,-0.219c0.787,0 1.119,0.357 1.119,1.188l0,1.408c0,0.256 0,0.45 0.031,0.668l-0.388,0l0,-0.512Z" style="fill:#11586c;fill-rule:nonzero;"/><path d="M114.857,63.157l-0.726,0l0,2.064c0,0.287 0.107,0.525 0.425,0.525c0.15,0 0.251,-0.031 0.363,-0.075l0.025,0.325c-0.094,0.037 -0.288,0.087 -0.481,0.087c-0.7,0 -0.726,-0.481 -0.726,-1.062l0,-1.864l-0.625,0l0,-0.338l0.625,0l0,-0.769l0.394,-0.138l0,0.907l0.726,0l0,0.338Z" style="fill:#11586c;fill-rule:nonzero;"/><path d="M116.051,62.819l0.393,0l0,3.189l-0.393,0l0,-3.189ZM116.444,61.969l-0.393,0l0,-0.525l0.393,0l0,0.525Z" style="fill:#11586c;fill-rule:nonzero;"/><path d="M119.171,65.746c0.688,0 1.057,-0.594 1.057,-1.332c0,-0.737 -0.369,-1.332 -1.057,-1.332c-0.688,0 -1.057,0.595 -1.057,1.332c0,0.738 0.369,1.332 1.057,1.332ZM119.171,62.744c1.032,0 1.489,0.801 1.489,1.67c0,0.869 -0.457,1.669 -1.489,1.669c-1.032,0 -1.488,-0.8 -1.488,-1.669c0,-0.869 0.456,-1.67 1.488,-1.67Z" style="fill:#11586c;fill-rule:nonzero;"/><path d="M121.892,63.57c0,-0.244 0,-0.494 -0.025,-0.751l0.381,0l0,0.569l0.012,0c0.132,-0.287 0.369,-0.644 1.032,-0.644c0.788,0 1.088,0.526 1.088,1.226l0,2.038l-0.394,0l0,-1.938c0,-0.6 -0.213,-0.988 -0.757,-0.988c-0.719,0 -0.944,0.632 -0.944,1.163l0,1.763l-0.393,0l0,-2.438Z" style="fill:#11586c;fill-rule:nonzero;"/><path d="M62.049,78.894l2.426,0l0,0.688l-1.551,0l0,1.075l1.476,0l0,0.688l-1.476,0l0,1.914l-0.875,0l0,-4.365Z" style="fill:#11586c;fill-rule:nonzero;"/><path d="M67.214,81.333c-0.025,-0.406 -0.212,-0.757 -0.681,-0.757c-0.47,0 -0.707,0.326 -0.745,0.757l1.426,0ZM67.777,83.077c-0.307,0.169 -0.657,0.256 -1.107,0.256c-1.062,0 -1.682,-0.612 -1.682,-1.669c0,-0.932 0.494,-1.701 1.495,-1.701c1.194,0 1.531,0.819 1.531,1.945l-2.226,0c0.038,0.519 0.4,0.813 0.919,0.813c0.407,0 0.757,-0.15 1.07,-0.325l0,0.681Z" style="fill:#11586c;fill-rule:nonzero;"/><path d="M70.14,82.683c0.557,0 0.738,-0.587 0.738,-1.044c0,-0.45 -0.212,-1.026 -0.75,-1.026c-0.544,0 -0.694,0.594 -0.694,1.026c0,0.444 0.156,1.044 0.706,1.044ZM70.909,82.897l-0.011,0c-0.251,0.312 -0.595,0.436 -0.989,0.436c-0.987,0 -1.351,-0.812 -1.351,-1.694c0,-0.887 0.364,-1.676 1.351,-1.676c0.419,0 0.714,0.144 0.963,0.451l0.013,0l0,-1.845l0.838,0l0,4.69l-0.814,0l0,-0.362Z" style="fill:#11586c;fill-rule:nonzero;"/><path d="M74.699,81.333c-0.025,-0.406 -0.212,-0.757 -0.681,-0.757c-0.47,0 -0.707,0.326 -0.745,0.757l1.426,0ZM75.262,83.077c-0.307,0.169 -0.657,0.256 -1.107,0.256c-1.063,0 -1.682,-0.612 -1.682,-1.669c0,-0.932 0.494,-1.701 1.495,-1.701c1.194,0 1.531,0.819 1.531,1.945l-2.226,0c0.038,0.519 0.4,0.813 0.92,0.813c0.406,0 0.756,-0.15 1.069,-0.325l0,0.681Z" style="fill:#11586c;fill-rule:nonzero;"/><path d="M76.268,80.038l0.745,0l0,0.732l0.012,0c0.038,-0.3 0.382,-0.807 0.882,-0.807c0.081,0 0.169,0 0.256,0.025l0,0.844c-0.075,-0.043 -0.225,-0.069 -0.375,-0.069c-0.681,0 -0.681,0.851 -0.681,1.314l0,1.182l-0.839,0l0,-3.221Z" style="fill:#11586c;fill-rule:nonzero;"/><path d="M79.902,82.721c0.256,0 0.456,-0.113 0.587,-0.288c0.138,-0.181 0.175,-0.412 0.175,-0.662l-0.362,0c-0.375,0 -0.932,0.062 -0.932,0.556c0,0.275 0.232,0.394 0.532,0.394ZM78.92,80.207c0.325,-0.15 0.763,-0.244 1.119,-0.244c0.982,0 1.389,0.407 1.389,1.357l0,0.413c0,0.325 0.006,0.569 0.012,0.807c0.006,0.243 0.019,0.468 0.038,0.719l-0.738,0c-0.032,-0.169 -0.032,-0.382 -0.037,-0.482l-0.013,0c-0.194,0.357 -0.613,0.556 -0.995,0.556c-0.568,0 -1.125,-0.343 -1.125,-0.956c0,-0.481 0.232,-0.763 0.55,-0.919c0.319,-0.156 0.732,-0.188 1.082,-0.188l0.462,0c0,-0.518 -0.231,-0.694 -0.725,-0.694c-0.356,0 -0.712,0.137 -0.994,0.351l-0.025,-0.72Z" style="fill:#11586c;fill-rule:nonzero;"/><rect x="82.365" y="78.569" width="0.838" height="4.69" style="fill:#11586c;fill-rule:nonzero;"/><path d="M88.012,82.646c0.895,0 1.226,-0.794 1.226,-1.582c0,-0.769 -0.357,-1.557 -1.226,-1.557c-0.869,0 -1.225,0.788 -1.225,1.557c0,0.788 0.331,1.582 1.225,1.582ZM88.012,78.819c1.37,0 2.139,0.925 2.139,2.245c0,1.319 -0.758,2.269 -2.139,2.269c-1.4,0 -2.139,-0.931 -2.139,-2.269c0,-1.338 0.75,-2.245 2.139,-2.245Z" style="fill:#11586c;fill-rule:nonzero;"/><path d="M91.276,80.652l-0.619,0l0,-0.614l0.619,0l0,-0.45c0,-0.644 0.362,-1.094 1.026,-1.094c0.212,0 0.45,0.031 0.612,0.068l-0.068,0.695c-0.076,-0.044 -0.182,-0.113 -0.363,-0.113c-0.281,0 -0.369,0.244 -0.369,0.494l0,0.4l0.732,0l0,0.614l-0.732,0l0,2.607l-0.838,0l0,-2.607Z" style="fill:#11586c;fill-rule:nonzero;"/><path d="M93.691,80.652l-0.619,0l0,-0.614l0.619,0l0,-0.45c0,-0.644 0.362,-1.094 1.026,-1.094c0.212,0 0.45,0.031 0.612,0.068l-0.068,0.695c-0.076,-0.044 -0.182,-0.113 -0.363,-0.113c-0.281,0 -0.369,0.244 -0.369,0.494l0,0.4l0.732,0l0,0.614l-0.732,0l0,2.607l-0.838,0l0,-2.607Z" style="fill:#11586c;fill-rule:nonzero;"/><path d="M95.929,80.038l0.839,0l0,3.221l-0.839,0l0,-3.221ZM95.929,78.65l0.839,0l0,0.801l-0.839,0l0,-0.801Z" style="fill:#11586c;fill-rule:nonzero;"/><path d="M99.831,80.732c-0.15,-0.069 -0.313,-0.119 -0.568,-0.119c-0.52,0 -0.851,0.414 -0.851,1.019c0,0.595 0.281,1.051 0.869,1.051c0.237,0 0.5,-0.087 0.644,-0.15l0.038,0.694c-0.244,0.075 -0.495,0.106 -0.838,0.106c-1.058,0 -1.589,-0.718 -1.589,-1.701c0,-0.93 0.551,-1.669 1.557,-1.669c0.338,0 0.582,0.038 0.814,0.106l-0.076,0.663Z" style="fill:#11586c;fill-rule:nonzero;"/><path d="M102.633,81.333c-0.025,-0.406 -0.213,-0.757 -0.682,-0.757c-0.469,0 -0.707,0.326 -0.744,0.757l1.426,0ZM103.196,83.077c-0.307,0.169 -0.657,0.256 -1.108,0.256c-1.062,0 -1.681,-0.612 -1.681,-1.669c0,-0.932 0.494,-1.701 1.494,-1.701c1.194,0 1.532,0.819 1.532,1.945l-2.226,0c0.037,0.519 0.401,0.813 0.919,0.813c0.407,0 0.757,-0.15 1.07,-0.325l0,0.681Z" style="fill:#11586c;fill-rule:nonzero;"/><path d="M106.322,80.652l-0.619,0l0,-0.614l0.619,0l0,-0.45c0,-0.644 0.363,-1.094 1.026,-1.094c0.212,0 0.45,0.031 0.612,0.068l-0.068,0.695c-0.076,-0.044 -0.182,-0.113 -0.364,-0.113c-0.28,0 -0.368,0.244 -0.368,0.494l0,0.4l0.732,0l0,0.614l-0.732,0l0,2.607l-0.838,0l0,-2.607Z" style="fill:#11586c;fill-rule:nonzero;"/><path d="M110.018,82.683c0.644,0 0.813,-0.575 0.813,-1.112c0,-0.494 -0.263,-0.958 -0.813,-0.958c-0.545,0 -0.807,0.476 -0.807,0.958c0,0.531 0.169,1.112 0.807,1.112ZM110.018,79.963c0.956,0 1.688,0.644 1.688,1.708c0,0.925 -0.619,1.662 -1.688,1.662c-1.063,0 -1.683,-0.737 -1.683,-1.662c0,-1.064 0.732,-1.708 1.683,-1.708Z" style="fill:#11586c;fill-rule:nonzero;"/><path d="M112.475,80.038l0.744,0l0,0.732l0.013,0c0.037,-0.3 0.381,-0.807 0.881,-0.807c0.082,0 0.17,0 0.257,0.025l0,0.844c-0.076,-0.043 -0.225,-0.069 -0.376,-0.069c-0.681,0 -0.681,0.851 -0.681,1.314l0,1.182l-0.838,0l0,-3.221Z" style="fill:#11586c;fill-rule:nonzero;"/><path d="M117.09,80.652l-0.619,0l0,-0.614l0.619,0l0,-0.644l0.838,-0.268l0,0.912l0.744,0l0,0.614l-0.744,0l0,1.5c0,0.275 0.075,0.531 0.394,0.531c0.15,0 0.293,-0.031 0.381,-0.087l0.025,0.663c-0.175,0.05 -0.369,0.074 -0.619,0.074c-0.656,0 -1.019,-0.406 -1.019,-1.043l0,-1.638Z" style="fill:#11586c;fill-rule:nonzero;"/><path d="M119.341,78.569l0.837,0l0,1.907l0.013,0c0.212,-0.313 0.576,-0.513 1.013,-0.513c0.764,0 1.094,0.539 1.094,1.264l0,2.032l-0.837,0l0,-1.72c0,-0.393 -0.006,-0.926 -0.544,-0.926c-0.607,0 -0.739,0.657 -0.739,1.07l0,1.576l-0.837,0l0,-4.69Z" style="fill:#11586c;fill-rule:nonzero;"/><path d="M125.275,81.333c-0.025,-0.406 -0.212,-0.757 -0.682,-0.757c-0.469,0 -0.705,0.326 -0.744,0.757l1.426,0ZM125.838,83.077c-0.306,0.169 -0.656,0.256 -1.107,0.256c-1.063,0 -1.682,-0.612 -1.682,-1.669c0,-0.932 0.494,-1.701 1.494,-1.701c1.195,0 1.533,0.819 1.533,1.945l-2.227,0c0.039,0.519 0.401,0.813 0.919,0.813c0.407,0 0.757,-0.15 1.07,-0.325l0,0.681Z" style="fill:#11586c;fill-rule:nonzero;"/><path d="M128.733,78.894l2.576,0l0,0.688l-1.701,0l0,1.075l1.558,0l0,0.688l-1.558,0l0,1.226l1.714,0l0,0.688l-2.589,0l0,-4.365Z" style="fill:#11586c;fill-rule:nonzero;"/><path d="M132.228,80.038l0.795,0l0,0.438l0.013,0c0.262,-0.369 0.618,-0.513 1.057,-0.513c0.762,0 1.094,0.539 1.094,1.264l0,2.032l-0.839,0l0,-1.72c0,-0.393 -0.005,-0.926 -0.544,-0.926c-0.606,0 -0.737,0.657 -0.737,1.07l0,1.576l-0.839,0l0,-3.221Z" style="fill:#11586c;fill-rule:nonzero;"/><path d="M135.787,80.038l0.9,0l0.801,2.345l0.012,0l0.776,-2.345l0.837,0l-1.188,3.221l-0.944,0l-1.194,-3.221Z" style="fill:#11586c;fill-rule:nonzero;"/><path d="M139.733,80.038l0.838,0l0,3.221l-0.838,0l0,-3.221ZM139.733,78.65l0.838,0l0,0.801l-0.838,0l0,-0.801Z" style="fill:#11586c;fill-rule:nonzero;"/><path d="M141.564,80.038l0.744,0l0,0.732l0.013,0c0.037,-0.3 0.382,-0.807 0.882,-0.807c0.081,0 0.169,0 0.256,0.025l0,0.844c-0.075,-0.043 -0.225,-0.069 -0.375,-0.069c-0.681,0 -0.681,0.851 -0.681,1.314l0,1.182l-0.839,0l0,-3.221Z" style="fill:#11586c;fill-rule:nonzero;"/><path d="M145.435,82.683c0.645,0 0.813,-0.575 0.813,-1.112c0,-0.494 -0.261,-0.958 -0.813,-0.958c-0.542,0 -0.805,0.476 -0.805,0.958c0,0.531 0.168,1.112 0.805,1.112ZM145.435,79.963c0.958,0 1.689,0.644 1.689,1.708c0,0.925 -0.618,1.662 -1.689,1.662c-1.062,0 -1.681,-0.737 -1.681,-1.662c0,-1.064 0.731,-1.708 1.681,-1.708Z" style="fill:#11586c;fill-rule:nonzero;"/><path d="M147.875,80.038l0.794,0l0,0.438l0.013,0c0.262,-0.369 0.619,-0.513 1.056,-0.513c0.764,0 1.095,0.539 1.095,1.264l0,2.032l-0.838,0l0,-1.72c0,-0.393 -0.007,-0.926 -0.544,-0.926c-0.607,0 -0.738,0.657 -0.738,1.07l0,1.576l-0.838,0l0,-3.221Z" style="fill:#11586c;fill-rule:nonzero;"/><path d="M151.777,80.038l0.781,0l0,0.45l0.013,0c0.262,-0.393 0.644,-0.525 0.957,-0.525c0.45,0 0.769,0.169 0.95,0.569c0.194,-0.387 0.613,-0.569 1.007,-0.569c0.794,0 1.019,0.544 1.019,1.264l0,2.032l-0.838,0l0,-1.92c0,-0.3 0,-0.726 -0.481,-0.726c-0.557,0 -0.626,0.664 -0.626,1.083l0,1.563l-0.837,0l0,-1.92c0,-0.3 0,-0.726 -0.482,-0.726c-0.557,0 -0.625,0.664 -0.625,1.083l0,1.563l-0.838,0l0,-3.221Z" style="fill:#11586c;fill-rule:nonzero;"/><path d="M159.462,81.333c-0.025,-0.406 -0.213,-0.757 -0.681,-0.757c-0.47,0 -0.708,0.326 -0.745,0.757l1.426,0ZM160.025,83.077c-0.307,0.169 -0.657,0.256 -1.107,0.256c-1.064,0 -1.682,-0.612 -1.682,-1.669c0,-0.932 0.494,-1.701 1.494,-1.701c1.195,0 1.533,0.819 1.533,1.945l-2.227,0c0.037,0.519 0.401,0.813 0.92,0.813c0.406,0 0.756,-0.15 1.069,-0.325l0,0.681Z" style="fill:#11586c;fill-rule:nonzero;"/><path d="M161.012,80.038l0.794,0l0,0.438l0.012,0c0.264,-0.369 0.62,-0.513 1.058,-0.513c0.762,0 1.094,0.539 1.094,1.264l0,2.032l-0.838,0l0,-1.72c0,-0.393 -0.007,-0.926 -0.544,-0.926c-0.607,0 -0.738,0.657 -0.738,1.07l0,1.576l-0.838,0l0,-3.221Z" style="fill:#11586c;fill-rule:nonzero;"/><path d="M165.202,80.652l-0.619,0l0,-0.614l0.619,0l0,-0.644l0.838,-0.268l0,0.912l0.743,0l0,0.614l-0.743,0l0,1.5c0,0.275 0.074,0.531 0.393,0.531c0.15,0 0.295,-0.031 0.382,-0.087l0.025,0.663c-0.175,0.05 -0.369,0.074 -0.619,0.074c-0.657,0 -1.019,-0.406 -1.019,-1.043l0,-1.638Z" style="fill:#11586c;fill-rule:nonzero;"/><path d="M169.36,78.894l2.427,0l0,0.688l-1.551,0l0,1.075l1.475,0l0,0.688l-1.475,0l0,1.914l-0.876,0l0,-4.365Z" style="fill:#11586c;fill-rule:nonzero;"/><path d="M174.507,82.646c0.894,0 1.225,-0.794 1.225,-1.582c0,-0.769 -0.356,-1.557 -1.225,-1.557c-0.869,0 -1.226,0.788 -1.226,1.557c0,0.788 0.331,1.582 1.226,1.582ZM174.507,78.819c1.369,0 2.138,0.925 2.138,2.245c0,1.319 -0.757,2.269 -2.138,2.269c-1.401,0 -2.139,-0.931 -2.139,-2.269c0,-1.338 0.75,-2.245 2.139,-2.245Z" style="fill:#11586c;fill-rule:nonzero;"/><path d="M177.538,78.894l2.577,0l0,0.688l-1.701,0l0,1.075l1.557,0l0,0.688l-1.557,0l0,1.226l1.714,0l0,0.688l-2.59,0l0,-4.365Z" style="fill:#11586c;fill-rule:nonzero;"/><path d="M181.067,78.894l1.075,0l1.663,3.264l0.013,0l0,-3.264l0.837,0l0,4.365l-1.069,0l-1.669,-3.264l-0.013,0l0,3.264l-0.837,0l0,-4.365Z" style="fill:#11586c;fill-rule:nonzero;"/><path d="M54.805,18.328c0,0 -3.307,-1.448 -8.845,-1.448l-0.002,0c-5.536,0 -8.845,1.448 -8.845,1.448c0,0 -0.295,6.414 0.96,10.04c2.218,6.376 7.885,8.168 7.885,8.168l0.003,0c0,0 5.667,-1.792 7.885,-8.168c1.256,-3.626 0.959,-10.04 0.959,-10.04Z" style="fill:#11586c;fill-rule:nonzero;"/><path d="M51.837,23.857l0,3.534l-4.122,0l0,4.122l-3.533,0l0,-4.122l-4.124,0l0,-3.534l4.124,0l0,-4.121l3.532,0l0.001,4.121l4.122,0Z" style="fill:#fff;fill-rule:nonzero;"/></g></g></svg>
