<?xml version="1.0" encoding="utf-8"?>
<!-- Generator: Adobe Illustrator 19.0.0, SVG Export Plug-In . SVG Version: 6.00 Build 0)  -->
<!DOCTYPE svg PUBLIC "-//W3C//DTD SVG 1.1//EN" "http://www.w3.org/Graphics/SVG/1.1/DTD/svg11.dtd">
<svg version="1.1" id="Ebene_1" xmlns="http://www.w3.org/2000/svg" xmlns:xlink="http://www.w3.org/1999/xlink" x="0px" y="0px"
	 width="279px" height="100px" viewBox="0 0 279 100" style="enable-background:new 0 0 279 100;" xml:space="preserve">
<style type="text/css">
	.st0{fill:#11586C;}
</style>
<g>
	<path class="st0" d="M48.6,86.1c0-3.5,0-6.9,0-10.5c-3,0-5.9,0-9,0c-0.3-1.4-0.1-2.8-0.1-4.2c0.4,0,0.8-0.1,1.1-0.1
		c4.7,0,9.3,0,14,0c0.3,0,0.6,0,0.9,0c1.2-1.2,2.3-2.3,3.4-3.4c0-1.2,0-2.5,0-3.7c-2.7-2.7-5.3-5.3-8-8c0-6.6,0-13.2,0-19.8
		c-0.4,0-0.7,0-1,0c-2.7,0-5.5,0-8.2,0c-0.3,0-0.6,0-1,0c-0.1-0.3-0.1-0.5-0.1-0.6c0-4.4,0-8.8,0-13.3c0-0.1,0-0.3,0.1-0.4
		c0.1,0,0.1,0,0.1,0c0,0,0.1,0,0.1,0c0.1,0.1,0.2,0.2,0.3,0.3c4.6,4.6,9.2,9.2,13.8,13.8c0,6.5,0,13,0,19.7c1.1,0,2.2,0,3.3,0
		c1.1,0,2.1,0,3.2,0c1,0,2.1,0,3.1,0c1.1,0,2.1,0,3.2,0c1.1,0,2.1,0,3.3,0c-0.7,0.9-1.4,1.5-2,2.2c-0.7,0.7-1.3,1.3-2,2
		c-0.7,0.7-1.3,1.3-2,2c-0.7,0.7-1.4,1.3-2,1.9c0,1.4,0,2.6,0,3.8c1.2,1.2,2.3,2.3,3.6,3.6c5.1,0,10.4,0,15.7,0
		c0.2,1.4,0.1,2.8,0.1,4.2c-0.4,0-0.7,0.1-1,0.1c-2.3,0-4.5,0-6.8,0c-0.3,0-0.6,0-0.9,0c-0.1,0.1-0.1,0.1-0.1,0.1c0,0,0,0,0,0.1
		c0,3.4,0,6.9,0,10.3C65.2,86.1,56.9,86.1,48.6,86.1z M64.8,75.6c-0.6-0.7-1.2-1.3-1.8-1.9c-0.6-0.6-1.2-1.3-2-1.9
		c-1.3,1.3-2.6,2.6-3.9,3.8c-0.8,0-1.5,0-2.2,0c-0.7,0-1.4-0.1-2.1,0.1c0,2.1,0,4.2,0,6.3c0.2,0,0.3,0,0.5,0c5.3,0,10.6,0,15.8,0
		c0,0,0,0,0.1-0.1c0,0,0,0,0.1-0.1c0.1-1.6,0.1-5.5-0.1-6.2C67.7,75.6,66.3,75.6,64.8,75.6z"/>
	<path class="st0" d="M244,56c-1.4,0-2.9,0-4.4,0c0-0.4,0-0.7,0-1c0-3.9,0-7.9,0-11.8c0-1-0.3-1.8-1.1-2.4c-0.4-0.3-0.9-0.4-1.4-0.5
		c-1-0.2-2-0.1-2.9,0.3c-0.9,0.5-1.5,1.2-1.5,2.3c0,4,0,8,0,12c0,0.3,0,0.6,0,0.9c-0.7,0.2-3.2,0.2-4.6,0.1c0-0.2-0.1-0.4-0.1-0.6
		c0-4.5-0.1-9,0-13.4c0-1.9,0.9-3.4,2.5-4.6c1.6-1.2,3.4-1.7,5.4-1.7c1.3,0,2.7,0,3.9,0.5c2.1,0.8,3.6,2.1,4.1,4.4
		c0,0.1,0.1,0.1,0.1,0.2C244,45.9,244,51,244,56z"/>
	<path class="st0" d="M32.7,55.8c3.3,0,6.6,0,10,0c0,0,0.1,0.1,0.2,0.1c-0.1,0.1-0.1,0.2-0.2,0.3c-3.2,3.2-6.4,6.4-9.6,9.6
		c-0.1,0.1-0.2,0.1-0.3,0.2C32.7,62.7,32.7,59.3,32.7,55.8z"/>
	<path class="st0" d="M65.3,13.6c-0.4,1-0.7,2.1-1.1,3.1c-1,2.6-2,5.2-3,7.8c0,0.1-0.1,0.2-0.2,0.4c-0.1-0.2-0.2-0.4-0.3-0.6
		c-1.4-3.5-2.7-6.9-4.1-10.4c0-0.1,0-0.2,0-0.3C59.5,13.6,62.4,13.6,65.3,13.6z"/>
	<path class="st0" d="M108.8,56c0-6.7,0-13.2,0-19.9c0.3,0,0.6,0,0.9,0c2.1,0,4.2,0,6.2,0c1.2,0,2.3,0,3.4,0.2
		c2,0.3,3.8,1.4,4.4,3.8c0.4,1.8,0.1,3.9-1.8,5.2c0.3,0.2,0.6,0.4,0.8,0.6c0.2,0.2,0.5,0.4,0.7,0.7c0.8,0.9,1.2,1.9,1.3,3.1
		c0,1,0,2.1-0.4,3c-0.7,1.6-1.9,2.5-3.4,3c-0.7,0.2-1.4,0.4-2.1,0.4c-3.1,0-6.2,0-9.3,0C109.4,56,109.1,56,108.8,56z M113.5,51.9
		c1.6,0,3.1,0,4.6,0c1,0,1.7-0.6,2-1.5c0.2-0.6,0-1.2-0.3-1.8c-0.2-0.2-0.5-0.5-0.7-0.7c-1.4-0.5-4.3-0.7-5.7-0.4
		C113.5,49,113.5,50.4,113.5,51.9z M113.4,43.7c1.3,0,2.5,0.1,3.7,0c1-0.1,2-0.4,2.1-1.8c-0.1-0.2-0.2-0.5-0.3-0.8
		c-0.6-0.7-1.2-0.9-2-0.9c-1,0-2,0-2.9,0c-0.2,0-0.4,0-0.6,0.1c0,0.2,0,0.4,0,0.6C113.4,41.7,113.4,42.7,113.4,43.7z"/>
	<path class="st0" d="M180.5,47.3c-4.6,0-9.1,0-13.5,0c-0.1,0.1-0.1,0.2-0.1,0.2c0,1.8,1.2,4.2,3.3,4.8c1.3,0.4,2.6,0.4,3.9-0.3
		c0.9-0.5,1.5-1.3,1.9-2.2c0.1-0.2,0.2-0.4,0.3-0.6c1.5,0,2.9,0,4.4,0c-0.3,1.4-0.9,2.5-1.7,3.6c-1.3,1.9-3.3,3.1-5.5,3.4
		c-3,0.5-5.9,0-8.3-2.1c-0.7-0.6-1.2-1.4-1.7-2.1c-0.9-1.4-1.3-2.9-1.4-4.5c0-0.6-0.2-1.3-0.1-1.9c0.1-2,0.5-3.9,1.6-5.6
		c1.4-2.1,3.3-3.6,5.9-4.1c2.4-0.5,4.8-0.2,6.9,1.1c1.7,1,2.8,2.5,3.5,4.4C180.5,43.2,180.7,45.2,180.5,47.3z M175.5,43.4
		c-0.3-2.5-2.3-4-4.9-3.8c-1.7,0.1-3.2,1.3-3.6,3.8C167.8,43.6,174.7,43.6,175.5,43.4z"/>
	<path class="st0" d="M206.2,46.3c-0.1-1.2,0-2.3,0.4-3.4c1-3.4,3.1-6,6.6-6.9c3.4-0.9,6.6-0.2,9.2,2.4c1.6,1.6,2.4,3.5,2.7,5.6
		c0.1,0.8,0.2,1.7,0.2,2.6c-0.1,3.1-1.1,5.9-3.6,7.9c-1,0.9-2.2,1.5-3.5,1.8c-1.8,0.4-3.5,0.4-5.3-0.1c-2.5-0.7-4.2-2.3-5.4-4.5
		C206.6,50,206.1,48.2,206.2,46.3z M215.6,52.3c0.6-0.1,1.1-0.1,1.5-0.3c1.7-0.6,2.8-1.8,3.3-3.6c0.5-1.8,0.3-3.6-0.4-5.3
		c-0.7-1.9-2.3-3-4.2-3.1c-2.1-0.1-3.8,1.1-4.5,3.1c-0.7,2-0.7,4,0,6c0.4,1.2,1.2,2.1,2.4,2.6C214.4,51.9,215.1,52.1,215.6,52.3z"/>
	<path class="st0" d="M154.2,36.3c0.8-0.2,3.2-0.3,4.5-0.1c0,0.2,0.1,0.4,0.1,0.6c0,4.5,0,9,0,13.4c0,1.5-0.6,2.8-1.6,3.9
		c-1.3,1.3-2.8,2-4.6,2.3c-2.1,0.4-4.1,0.3-6-0.6c-2-0.9-3.4-2.3-3.8-4.5c-0.1-0.5-0.2-1-0.2-1.5c0-4.3,0-8.5,0-12.8
		c0-0.3,0-0.5,0-0.8c0.8-0.2,3.7-0.2,4.5,0c0,0.3,0.1,0.7,0.1,1c0,4,0,8,0,11.9c0,0.8,0.2,1.5,0.8,2c0.3,0.2,0.6,0.4,0.9,0.6
		c1.1,0.4,2.3,0.4,3.5,0.1c1-0.3,1.8-1.2,1.8-2.4c0-0.3,0-0.6,0-0.9c0-3.8,0-7.5,0-11.3C154.2,36.9,154.2,36.6,154.2,36.3z"/>
	<path class="st0" d="M71.2,48.7c-1.4,0-2.6,0-3.8,0c-0.1,0-0.2-0.1-0.3-0.1c-0.2-0.7-0.3-8.2-0.1-12c4.9-4.9,9.6-9.6,14.4-14.4
		c0,4.6,0,9.3,0,14.1c-0.4,0-0.7,0.1-1.1,0.1c-2.6,0-5.3,0-7.9,0c-0.3,0-0.6,0-1.1,0c0,0.4,0,0.7,0,1c0,3.4,0,6.8,0,10.2
		C71.2,48,71.2,48.3,71.2,48.7z"/>
	<path class="st0" d="M188.6,51.8c2.5,0,4.9,0,7.3,0c0.2,0.7,0.2,3.3,0,4.2c-3.9,0-7.9,0-11.8,0c0,0-0.1-0.1-0.1-0.1c0,0,0,0,0-0.1
		c0-6.3,0-12.5,0-18.8c0-0.2,0-0.5,0-0.7c0-0.1,0-0.1,0.1-0.2c1-0.2,3.9-0.2,4.5,0.1c0,2.5,0,5.1,0,7.7
		C188.6,46.5,188.6,49.1,188.6,51.8z"/>
	<path class="st0" d="M133.2,51.8c2.5,0,4.9,0,7.3,0c0.3,0.7,0.3,2.8,0.1,4.2c-1,0.1-2,0-3,0.1c-1,0-2,0-3,0c-1,0-2,0-2.9,0
		c-1,0-2,0-3,0c-0.2-0.8-0.2-18.7-0.1-19.8c0.6-0.2,3.5-0.2,4.5,0c0,0.3,0.1,0.6,0.1,1c0,4.5,0,9,0,13.4
		C133.2,51,133.2,51.3,133.2,51.8z"/>
	<path class="st0" d="M203,36.2c0,6.6,0,13.1,0,19.7c-0.6,0.2-3.1,0.2-4.3,0.1c0,0,0,0-0.1-0.1c0,0,0,0,0-0.1c0-0.1,0-0.3,0-0.4
		c0-6.3,0-12.6,0-18.9c0-0.1,0-0.2,0.1-0.2C199.3,36,202.1,36,203,36.2z"/>
	<path class="st0" d="M79.2,56c0.1,0,0.3-0.1,0.5-0.1c3,0,6,0,9,0c0.1,0,0.3,0.1,0.5,0.1c0.2,0.9,0.1,1.7,0.1,2.6c0,0.8,0,1.7,0,2.5
		c0,0.9,0,1.7,0,2.6c0,0.8,0,1.6,0,2.4C85.8,62.7,82.5,59.4,79.2,56z"/>
</g>
</svg>
