<?xml version="1.0" encoding="utf-8"?>
<!-- Generator: Adobe Illustrator 25.0.0, SVG Export Plug-In . SVG Version: 6.00 Build 0)  -->
<svg version="1.1" id="Layer_1" xmlns="http://www.w3.org/2000/svg" xmlns:xlink="http://www.w3.org/1999/xlink" x="0px" y="0px"
	 viewBox="0 0 270.89 128.61" style="enable-background:new 0 0 270.89 128.61;" xml:space="preserve">
<style type="text/css">
	.st0{fill:#006937;}
	.st1{fill:url(#SVGID_1_);}
	.st2{fill:url(#SVGID_2_);}
	.st3{fill:none;}
</style>
<g>
	<g>
		<g>
			<path class="st0" d="M52.89,114.17h10.38v1.51h-8.75v5.16h7.82v1.49h-7.82v6.29h-1.63V114.17z"/>
			<path class="st0" d="M70.84,127.48c1.46,0,2.5-0.6,3.36-1.51l0.99,0.89c-1.07,1.2-2.37,2-4.39,2c-2.93,0-5.32-2.25-5.32-5.57
				c0-3.09,2.17-5.57,5.12-5.57c3.16,0,4.97,2.52,4.97,5.65c0,0.14,0,0.31-0.02,0.56h-8.46C67.31,126.18,68.96,127.48,70.84,127.48z
				 M73.96,122.65c-0.19-1.94-1.3-3.59-3.4-3.59c-1.84,0-3.24,1.53-3.47,3.59H73.96z"/>
			<path class="st0" d="M83.48,127.48c1.46,0,2.5-0.6,3.36-1.51l0.99,0.89c-1.07,1.2-2.37,2-4.39,2c-2.93,0-5.32-2.25-5.32-5.57
				c0-3.09,2.17-5.57,5.12-5.57c3.16,0,4.97,2.52,4.97,5.65c0,0.14,0,0.31-0.02,0.56h-8.46C79.96,126.18,81.61,127.48,83.48,127.48z
				 M86.6,122.65c-0.19-1.94-1.3-3.59-3.4-3.59c-1.84,0-3.24,1.53-3.47,3.59H86.6z"/>
			<path class="st0" d="M90.79,123.31v-0.04c0-3.49,2.54-5.55,5.1-5.55c1.98,0,3.26,1.07,4.08,2.27v-6.44h1.59v15.06h-1.59v-2.15
				c-0.87,1.28-2.12,2.37-4.08,2.37C93.33,128.84,90.79,126.82,90.79,123.31z M100.03,123.29v-0.04c0-2.46-1.88-4.11-3.86-4.11
				c-2.06,0-3.75,1.53-3.75,4.11v0.04c0,2.52,1.73,4.13,3.75,4.13C98.15,127.41,100.03,125.74,100.03,123.29z"/>
			<path class="st0" d="M112.68,125.78v-6.44h-1.49v-1.4h1.49v-3.22h1.59v3.22h3.38v1.4h-3.38v6.23c0,1.3,0.72,1.78,1.79,1.78
				c0.54,0,0.99-0.1,1.55-0.37v1.36c-0.56,0.29-1.16,0.45-1.92,0.45C113.98,128.8,112.68,127.95,112.68,125.78z"/>
			<path class="st0" d="M120.48,113.55h1.59v6.25c0.7-1.16,1.82-2.08,3.65-2.08c2.58,0,4.08,1.73,4.08,4.27v6.62h-1.59v-6.23
				c0-1.98-1.07-3.22-2.95-3.22c-1.84,0-3.2,1.34-3.2,3.34v6.11h-1.59V113.55z"/>
			<path class="st0" d="M138.28,127.48c1.46,0,2.5-0.6,3.36-1.51l0.99,0.89c-1.07,1.2-2.37,2-4.39,2c-2.93,0-5.32-2.25-5.32-5.57
				c0-3.09,2.17-5.57,5.12-5.57c3.16,0,4.97,2.52,4.97,5.65c0,0.14,0,0.31-0.02,0.56h-8.46
				C134.76,126.18,136.41,127.48,138.28,127.48z M141.4,122.65c-0.19-1.94-1.3-3.59-3.4-3.59c-1.84,0-3.24,1.53-3.47,3.59H141.4z"/>
			<path class="st0" d="M153.41,119.35h-1.46v-1.38h1.46v-0.93c0-1.22,0.33-2.15,0.93-2.74c0.54-0.54,1.32-0.83,2.29-0.83
				c0.74,0,1.24,0.08,1.75,0.27v1.38c-0.58-0.17-1.01-0.27-1.55-0.27c-1.24,0-1.86,0.74-1.86,2.27v0.87h3.38v1.36H155v9.26h-1.59
				V119.35z"/>
			<path class="st0" d="M160.72,124.57v-6.62h1.59v6.23c0,1.98,1.07,3.22,2.95,3.22c1.82,0,3.2-1.34,3.2-3.34v-6.11h1.57v10.66
				h-1.57v-1.86c-0.72,1.16-1.82,2.08-3.65,2.08C162.23,128.84,160.72,127.1,160.72,124.57z"/>
			<path class="st0" d="M174.32,125.78v-6.44h-1.49v-1.4h1.49v-3.22h1.59v3.22h3.38v1.4h-3.38v6.23c0,1.3,0.72,1.78,1.79,1.78
				c0.54,0,0.99-0.1,1.55-0.37v1.36c-0.56,0.29-1.16,0.45-1.92,0.45C175.62,128.8,174.32,127.95,174.32,125.78z"/>
			<path class="st0" d="M182.04,124.57v-6.62h1.59v6.23c0,1.98,1.07,3.22,2.95,3.22c1.82,0,3.2-1.34,3.2-3.34v-6.11h1.57v10.66
				h-1.57v-1.86c-0.72,1.16-1.82,2.08-3.65,2.08C183.54,128.84,182.04,127.1,182.04,124.57z"/>
			<path class="st0" d="M195.21,117.95h1.59v2.78c0.78-1.77,2.33-3.05,4.35-2.97v1.71h-0.12c-2.33,0-4.23,1.67-4.23,4.89v4.25h-1.59
				V117.95z"/>
			<path class="st0" d="M208.27,127.48c1.46,0,2.5-0.6,3.36-1.51l0.99,0.89c-1.07,1.2-2.37,2-4.39,2c-2.93,0-5.32-2.25-5.32-5.57
				c0-3.09,2.17-5.57,5.12-5.57c3.16,0,4.97,2.52,4.97,5.65c0,0.14,0,0.31-0.02,0.56h-8.46
				C204.74,126.18,206.39,127.48,208.27,127.48z M211.39,122.65c-0.19-1.94-1.3-3.59-3.4-3.59c-1.84,0-3.24,1.53-3.47,3.59H211.39z"
				/>
		</g>
	</g>
	<g>
		<g>
			<g>
				<g>
					<path class="st0" d="M0,81.49v-0.1C0,71.33,7.58,63.1,18.44,63.1c6.67,0,10.66,2.22,13.94,5.45l-4.95,5.71
						c-2.73-2.47-5.51-3.99-9.04-3.99c-5.96,0-10.25,4.95-10.25,11.01v0.1c0,6.06,4.19,11.11,10.25,11.11
						c4.04,0,6.52-1.62,9.29-4.14l4.95,5c-3.64,3.89-7.68,6.31-14.5,6.31C7.73,99.67,0,91.64,0,81.49z"/>
					<path class="st0" d="M35.41,63.71h7.78v35.36h-7.78V63.71z"/>
					<path class="st0" d="M47.93,63.71h16.16c4.5,0,7.98,1.26,10.3,3.59c1.97,1.97,3.03,4.75,3.03,8.08v0.1
						c0,5.71-3.08,9.29-7.58,10.96l8.64,12.63H69.4l-7.58-11.31h-0.1h-6.01v11.31h-7.78V63.71z M63.59,80.88
						c3.79,0,5.96-2.02,5.96-5v-0.1c0-3.33-2.32-5.05-6.11-5.05h-7.73v10.15H63.59z"/>
					<path class="st0" d="M81.73,63.71h26.92v7.07H89.51v7.53h16.87v7.07H89.51v13.69h-7.78V63.71z"/>
					<path class="st0" d="M109.23,81.49v-0.1c0-10.05,7.93-18.28,18.84-18.28c10.91,0,18.74,8.13,18.74,18.18v0.1
						c0,10.05-7.93,18.28-18.84,18.28C117.06,99.67,109.23,91.54,109.23,81.49z M138.67,81.49v-0.1c0-6.06-4.44-11.11-10.71-11.11
						c-6.26,0-10.61,4.95-10.61,11.01v0.1c0,6.06,4.44,11.11,10.71,11.11C134.33,92.5,138.67,87.55,138.67,81.49z"/>
					<path class="st0" d="M148.95,81.49v-0.1c0-10.05,7.93-18.28,18.84-18.28c10.91,0,18.74,8.13,18.74,18.18v0.1
						c0,10.05-7.93,18.28-18.84,18.28C156.78,99.67,148.95,91.54,148.95,81.49z M178.4,81.49v-0.1c0-6.06-4.44-11.11-10.71-11.11
						c-6.26,0-10.61,4.95-10.61,11.01v0.1c0,6.06,4.44,11.11,10.71,11.11C174.06,92.5,178.4,87.55,178.4,81.49z"/>
					<path class="st0" d="M189.31,63.71h13.79c11.11,0,18.79,7.63,18.79,17.58v0.1c0,9.95-7.68,17.68-18.79,17.68h-13.79V63.71z
						 M203.1,92.04c6.36,0,10.66-4.29,10.66-10.56v-0.1c0-6.26-4.29-10.66-10.66-10.66h-6.01v21.31H203.1z"/>
				</g>
			</g>
		</g>
	</g>
	<g>
		<linearGradient id="SVGID_1_" gradientUnits="userSpaceOnUse" x1="199.9803" y1="29.2406" x2="270.0429" y2="29.2406">
			<stop  offset="0" style="stop-color:#80BC00"/>
			<stop  offset="0.0903" style="stop-color:#87BF0F"/>
			<stop  offset="0.2651" style="stop-color:#9AC838"/>
			<stop  offset="0.4958" style="stop-color:#B7D676"/>
			<stop  offset="1" style="stop-color:#80BC00"/>
		</linearGradient>
		<path class="st1" d="M268.61,29.5c-1.85,2.67-4.74,5.09-8.32,7.17c-4.84,2.87-10.96,5.08-17.49,6.47
			c-12.38,2.64-22.56-2.06-24.12-11.5c-1.17-7.1,3.75-14.21,14.8-19.33c2.16-1,4.33-1.76,6.54-2.25c5.4-1.22,10.83-1.05,15.58,0.05
			c0.35,0.08,0.7,0.17,1.04,0.26l0.02,0C255,9.77,223.25,1,223.25,1s-2.61-0.66-4.9-0.85c-2.79-0.23-5.99-0.32-9.02,0.89
			c-8.9,3.53-14.01,15.48-3.41,33.63c10.6,18.16,38.49,25.46,47.87,23.51c3.06-0.64,6.02-3.28,7.45-7.11
			c3.86-10.93,8.81-24.18,8.81-24.18C269.68,27.78,269.19,28.66,268.61,29.5z"/>
		<linearGradient id="SVGID_2_" gradientUnits="userSpaceOnUse" x1="249.2767" y1="4.7146" x2="265.8714" y2="33.4574">
			<stop  offset="0.2122" style="stop-color:#006937"/>
			<stop  offset="0.6539" style="stop-color:#508D65"/>
			<stop  offset="1" style="stop-color:#006937"/>
		</linearGradient>
		<path class="st2" d="M256.64,10.37c-0.34-0.09-0.69-0.18-1.04-0.26c-4.76-1.1-10.18-1.27-15.58-0.05
			c6.52,5.15,12.42,11.8,16.54,18.86c1.63,2.8,2.86,5.38,3.73,7.75c3.57-2.08,6.46-4.5,8.32-7.17c0.59-0.85,1.07-1.72,1.44-2.62
			c0.55-1.34,0.84-2.73,0.84-4.16C270.89,17.53,264.88,12.56,256.64,10.37z"/>
	</g>
	<rect x="-36.57" y="-36.56" class="st3" width="343.92" height="172.8"/>
</g>
</svg>
