<?xml version="1.0" encoding="utf-8"?>
<!-- Generator: Adobe Illustrator 19.0.0, SVG Export Plug-In . SVG Version: 6.00 Build 0)  -->
<!DOCTYPE svg PUBLIC "-//W3C//DTD SVG 1.1//EN" "http://www.w3.org/Graphics/SVG/1.1/DTD/svg11.dtd">
<svg version="1.1" id="Ebene_1" xmlns="http://www.w3.org/2000/svg" xmlns:xlink="http://www.w3.org/1999/xlink" x="0px" y="0px"
	 width="321px" height="100px" viewBox="0 0 321 100" style="enable-background:new 0 0 321 100;" xml:space="preserve">
<style type="text/css">
	.st0{fill:#11586C;}
	.st1{opacity:0.7;fill:#11586C;}
</style>
<g><rect x="70.985" y="36.712" width="2.314" height="2.314" style="fill:#11586c;fill-rule:nonzero;"/><rect x="70.985" y="41.282" width="2.314" height="18.221" style="fill:#11586c;fill-rule:nonzero;"/><path d="M77.811,36.712l2.313,0l0,4.57l9.082,0l0,2.255l-9.082,0l0,11.396c0,1.272 0.984,2.314 2.256,2.314l6.826,0l0,2.256l-6.826,0c-2.372,0 -4.569,-1.909 -4.569,-4.57l0,-11.396l-3.413,0l0,-2.255l3.413,0l0,-4.57Z" style="fill:#11586c;"/><path d="M50.913,50.421l17.816,0c0,-2.025 -0.116,-3.529 -0.347,-4.512c-0.231,-0.983 -0.636,-1.851 -1.215,-2.603c-0.752,-0.868 -1.677,-1.504 -2.892,-1.793c-1.157,-0.289 -3.124,-0.463 -5.784,-0.463c-2.719,0 -4.629,0.174 -5.843,0.463c-1.214,0.289 -2.14,0.925 -2.834,1.793c-0.636,0.752 -1.041,1.62 -1.215,2.603c-0.231,0.983 -0.347,2.487 -0.405,4.512c0.058,1.967 0.174,3.471 0.405,4.454c0.174,0.983 0.579,1.851 1.215,2.603c0.694,0.868 1.62,1.504 2.834,1.793c1.214,0.347 3.124,0.463 5.843,0.463c2.66,0 4.627,-0.116 5.784,-0.463c1.215,-0.289 2.14,-0.925 2.892,-1.793c0.463,-0.578 0.81,-1.273 1.041,-1.967l-2.718,0c-0.174,0.232 -0.347,0.463 -0.579,0.694c-0.52,0.405 -1.272,0.752 -2.198,0.926c-0.983,0.173 -2.371,0.231 -4.165,0.231c-1.851,0 -3.239,-0.058 -4.164,-0.231c-0.984,-0.174 -1.678,-0.521 -2.198,-0.926c-0.695,-0.578 -1.1,-1.561 -1.215,-2.892c-0.058,-0.925 -0.058,-1.967 -0.058,-2.892ZM66.126,48.107l-15.213,0c0.058,-1.677 0.463,-2.834 1.273,-3.47c0.52,-0.463 1.214,-0.752 2.198,-0.926c0.925,-0.231 2.313,-0.289 4.164,-0.289c1.794,0 3.182,0.058 4.165,0.289c0.926,0.174 1.678,0.463 2.198,0.926c0.81,0.636 1.215,1.793 1.215,3.47Z" style="fill:#11586c;fill-rule:nonzero;"/><path d="M68.729,91.375c22.617,0 41.012,-18.337 41.012,-40.954c0,-22.675 -18.395,-41.012 -41.012,-41.012c-7.462,0 -14.461,1.967 -20.477,5.495l2.256,3.934c5.38,-3.124 11.569,-4.859 18.221,-4.859c20.13,0 36.442,16.312 36.442,36.442c0,20.072 -16.312,36.442 -36.442,36.442c-20.13,0 -36.442,-16.37 -36.442,-36.442l-4.57,0c0,22.617 18.395,40.954 41.012,40.954Z" style="fill:#11586c;"/><path d="M68.729,82.293c11.8,0 22.097,-6.42 27.592,-15.965l-3.933,-2.256c-4.744,8.156 -13.536,13.652 -23.659,13.652c-15.097,0 -27.303,-12.263 -27.303,-27.303c0,-15.097 12.206,-27.361 27.303,-27.361c10.123,0 18.915,5.496 23.659,13.652l3.933,-2.256c-5.495,-9.545 -15.792,-15.965 -27.592,-15.965c-17.585,0 -31.872,14.287 -31.872,31.93c0,17.585 14.287,31.872 31.872,31.872Z" style="fill:#11586c;fill-opacity:0.799204;"/><path d="M139.638,53.284l2.36,0c-0.062,1.654 -0.16,2.792 -0.293,3.415c-0.293,1.351 -1.195,2.183 -2.707,2.493c-1.228,0.25 -3.41,0.374 -6.55,0.374c-4.072,0 -6.824,-0.142 -8.256,-0.427c-1.36,-0.275 -2.276,-0.989 -2.747,-2.141c-0.472,-1.151 -0.707,-3.251 -0.707,-6.301c0,-2.908 0.178,-5.019 0.533,-6.336c0.428,-1.555 1.526,-2.462 3.295,-2.72c1.707,-0.258 4.21,-0.388 7.509,-0.388c3.148,0 5.402,0.156 6.763,0.467c0.674,0.152 1.259,0.447 1.753,0.887c0.493,0.44 0.807,0.95 0.94,1.527c0.134,0.543 0.209,1.606 0.227,3.188l-2.254,0c-0.008,-0.311 -0.013,-0.52 -0.013,-0.626c0,-0.872 -0.085,-1.492 -0.253,-1.861c-0.169,-0.369 -0.498,-0.652 -0.988,-0.847c-0.898,-0.365 -2.996,-0.547 -6.295,-0.547c-2.392,0 -4.188,0.064 -5.388,0.194c-1.201,0.128 -1.983,0.335 -2.348,0.62c-0.346,0.284 -0.603,0.872 -0.767,1.76c-0.164,0.89 -0.246,2.126 -0.246,3.708c0,0.747 0.031,1.712 0.093,2.894c0.062,1.183 0.125,1.997 0.186,2.441c0.099,0.702 0.323,1.212 0.675,1.527c0.351,0.316 0.904,0.51 1.659,0.581c1.379,0.142 3.348,0.213 5.909,0.213c0.783,0 1.807,-0.025 3.075,-0.074c1.266,-0.048 2.074,-0.095 2.421,-0.139c0.675,-0.089 1.178,-0.225 1.507,-0.407c0.328,-0.182 0.555,-0.456 0.679,-0.82c0.116,-0.321 0.192,-1.205 0.228,-2.655Z" style="fill:#11586c;fill-rule:nonzero;"/><rect x="144.508" y="41.307" width="2" height="18.206" style="fill:#11586c;fill-rule:nonzero;"/><path d="M149.156,46.855l2.002,0l0,12.658l-2.002,0l0,-12.658ZM149.156,41.307l2.002,0l0,2.374l-2.002,0l0,-2.374Z" style="fill:#11586c;fill-rule:nonzero;"/><path d="M154.121,46.855l2.014,0l0,1.668c0.631,-0.765 1.267,-1.261 1.907,-1.488c0.64,-0.226 1.734,-0.339 3.281,-0.339c2.072,0 3.559,0.151 4.461,0.453c0.903,0.303 1.603,0.885 2.101,1.747c0.409,-0.827 1.041,-1.4 1.894,-1.721c0.854,-0.32 2.188,-0.479 4.002,-0.479c1.725,0 3.016,0.11 3.874,0.333c0.858,0.223 1.554,0.623 2.088,1.2c0.408,0.463 0.675,0.98 0.8,1.554c0.124,0.574 0.186,1.599 0.186,3.075l0,6.655l-2,0l0,-7.122c0,-1.556 -0.232,-2.561 -0.694,-3.014c-0.622,-0.614 -2.045,-0.921 -4.268,-0.921c-1.272,0 -2.241,0.085 -2.908,0.254c-0.666,0.168 -1.173,0.453 -1.52,0.853c-0.347,0.409 -0.582,0.954 -0.707,1.634c-0.125,0.68 -0.187,1.789 -0.187,3.328l0,4.988l-2,0l0,-7.122c0,-0.898 -0.049,-1.561 -0.147,-1.988c-0.098,-0.426 -0.28,-0.765 -0.547,-1.014c-0.649,-0.621 -2.08,-0.933 -4.294,-0.933c-1.281,0 -2.265,0.087 -2.955,0.26c-0.689,0.174 -1.22,0.469 -1.594,0.887c-0.32,0.365 -0.531,0.863 -0.633,1.494c-0.102,0.631 -0.154,1.774 -0.154,3.428l0,4.988l-2,0l0,-12.658Z" style="fill:#11586c;fill-rule:nonzero;"/><path d="M190.132,53.737c-1.645,0 -2.796,0.029 -3.454,0.087c-0.658,0.058 -1.125,0.167 -1.401,0.327c-0.524,0.312 -0.786,0.886 -0.786,1.721c0,0.827 0.311,1.387 0.933,1.68c0.507,0.24 2.214,0.361 5.122,0.361c2.125,0 3.529,-0.139 4.215,-0.414c0.685,-0.276 1.026,-0.836 1.026,-1.681c0,-0.818 -0.381,-1.369 -1.146,-1.653c-0.766,-0.285 -2.268,-0.428 -4.509,-0.428ZM185.011,50.656l-2.081,0c-0.018,-0.23 -0.027,-0.413 -0.027,-0.546c0,-1.325 0.498,-2.228 1.495,-2.707c0.995,-0.481 2.862,-0.721 5.601,-0.721c2.152,0 3.699,0.098 4.642,0.293c0.941,0.196 1.68,0.57 2.213,1.121c0.445,0.445 0.735,0.969 0.868,1.574c0.133,0.605 0.2,1.663 0.2,3.174l0,6.669l-1.988,0l0.041,-1.481l-0.107,0c-0.498,0.694 -1.096,1.14 -1.794,1.34c-0.698,0.201 -2.016,0.301 -3.955,0.301c-2.214,0 -3.752,-0.053 -4.614,-0.16c-0.863,-0.107 -1.516,-0.329 -1.961,-0.667c-0.446,-0.32 -0.753,-0.702 -0.928,-1.147c-0.172,-0.444 -0.259,-1.067 -0.259,-1.867c0,-0.979 0.131,-1.73 0.393,-2.254c0.262,-0.525 0.705,-0.916 1.327,-1.174c0.676,-0.293 2.254,-0.44 4.735,-0.44c2.596,0 4.294,0.077 5.095,0.233c0.801,0.156 1.418,0.531 1.854,1.127l0.173,0l0,-1.36c0,-1.112 -0.2,-1.912 -0.6,-2.401c-0.356,-0.435 -0.896,-0.731 -1.621,-0.887c-0.724,-0.155 -1.909,-0.234 -3.554,-0.234c-2.161,0 -3.559,0.127 -4.194,0.381c-0.636,0.253 -0.954,0.807 -0.954,1.661c0,0.044 0,0.102 0,0.172Z" style="fill:#11586c;fill-rule:nonzero;"/><path d="M201.663,43.721l2.001,0l0,3.134l8.856,0l0,1.708l-8.856,0l0,5.495c0.018,1.2 0.049,1.934 0.093,2.2c0.045,0.267 0.174,0.534 0.387,0.801c0.249,0.311 0.622,0.532 1.12,0.66c0.498,0.129 1.228,0.194 2.188,0.194c0.898,0 1.552,-0.063 1.96,-0.188c0.409,-0.124 0.73,-0.351 0.961,-0.679c0.151,-0.232 0.251,-0.507 0.3,-0.828c0.049,-0.319 0.073,-0.862 0.073,-1.627l0,-0.8l1.987,0l0,0.8c0,0.969 -0.047,1.705 -0.139,2.207c-0.094,0.503 -0.27,0.946 -0.527,1.328c-0.374,0.552 -0.929,0.947 -1.667,1.187c-0.739,0.24 -1.774,0.36 -3.108,0.36c-1.369,0 -2.439,-0.112 -3.208,-0.333c-0.77,-0.222 -1.34,-0.587 -1.714,-1.094c-0.275,-0.374 -0.462,-0.805 -0.56,-1.294c-0.098,-0.489 -0.147,-1.231 -0.147,-2.227l0,-6.162l-3.107,0l0,-1.708l3.107,0l0,-3.134Z" style="fill:#11586c;fill-rule:nonzero;"/><path d="M228.139,51.924c-0.009,-1.236 -0.339,-2.098 -0.988,-2.588c-0.426,-0.328 -1.024,-0.558 -1.794,-0.687c-0.769,-0.128 -1.895,-0.193 -3.381,-0.193c-1.298,0 -2.287,0.06 -2.967,0.18c-0.68,0.12 -1.212,0.332 -1.594,0.634c-0.632,0.489 -0.996,1.374 -1.094,2.654l11.818,0ZM228.232,55.605l2.094,0c-0.035,1.511 -0.569,2.567 -1.601,3.167c-1.032,0.6 -2.827,0.901 -5.388,0.901c-2.116,0 -3.723,-0.083 -4.822,-0.247c-1.098,-0.164 -1.927,-0.442 -2.487,-0.834c-1.28,-0.907 -1.921,-2.698 -1.921,-5.374c0,-1.876 0.272,-3.285 0.814,-4.229c0.515,-0.898 1.26,-1.504 2.234,-1.82c0.973,-0.316 2.598,-0.473 4.875,-0.473c2.178,0 3.752,0.115 4.721,0.346c0.969,0.231 1.743,0.676 2.321,1.334c0.481,0.551 0.809,1.192 0.987,1.92c0.178,0.73 0.275,1.841 0.294,3.335l-14.098,0c0.053,1.573 0.364,2.654 0.933,3.241c0.383,0.4 0.993,0.674 1.834,0.821c0.84,0.146 2.207,0.22 4.102,0.22c1.431,0 2.481,-0.067 3.147,-0.2c0.667,-0.134 1.165,-0.379 1.494,-0.735c0.249,-0.274 0.405,-0.733 0.467,-1.373Z" style="fill:#11586c;fill-rule:nonzero;"/><rect x="231.768" y="51.87" width="10.71" height="2.361" style="fill:#11586c;fill-rule:nonzero;"/><path d="M243.839,41.307l2.427,0l0,7.829l3.162,0l11.803,-7.829l4.255,0l-13.537,8.883l14.244,9.323l-4.295,0l-12.47,-8.243l-3.162,0l0,8.243l-2.427,0l0,-18.206Z" style="fill:#11586c;fill-rule:nonzero;"/><rect x="267.381" y="41.307" width="2.427" height="18.206" style="fill:#11586c;fill-rule:nonzero;"/><path d="M291.068,53.284l2.36,0c-0.062,1.654 -0.16,2.792 -0.293,3.415c-0.293,1.351 -1.195,2.183 -2.707,2.493c-1.227,0.25 -3.41,0.374 -6.549,0.374c-4.073,0 -6.824,-0.142 -8.256,-0.427c-1.361,-0.275 -2.276,-0.989 -2.748,-2.141c-0.471,-1.151 -0.706,-3.251 -0.706,-6.301c0,-2.908 0.177,-5.019 0.533,-6.336c0.427,-1.555 1.525,-2.462 3.294,-2.72c1.707,-0.258 4.21,-0.388 7.51,-0.388c3.147,0 5.402,0.156 6.762,0.467c0.675,0.152 1.259,0.447 1.754,0.887c0.493,0.44 0.806,0.95 0.94,1.527c0.133,0.543 0.208,1.606 0.227,3.188l-2.254,0c-0.009,-0.311 -0.014,-0.52 -0.014,-0.626c0,-0.872 -0.084,-1.492 -0.253,-1.861c-0.169,-0.369 -0.498,-0.652 -0.988,-0.847c-0.898,-0.365 -2.995,-0.547 -6.295,-0.547c-2.392,0 -4.187,0.064 -5.388,0.194c-1.201,0.128 -1.982,0.335 -2.347,0.62c-0.347,0.284 -0.603,0.872 -0.767,1.76c-0.165,0.89 -0.247,2.126 -0.247,3.708c0,0.747 0.031,1.712 0.093,2.894c0.062,1.183 0.125,1.997 0.187,2.441c0.098,0.702 0.323,1.212 0.674,1.527c0.351,0.316 0.904,0.51 1.66,0.581c1.379,0.142 3.348,0.213 5.908,0.213c0.783,0 1.807,-0.025 3.075,-0.074c1.267,-0.048 2.074,-0.095 2.421,-0.139c0.675,-0.089 1.178,-0.225 1.507,-0.407c0.328,-0.182 0.555,-0.456 0.68,-0.82c0.115,-0.321 0.192,-1.205 0.227,-2.655Z" style="fill:#11586c;fill-rule:nonzero;"/></g></svg>
