<?xml version="1.0" encoding="utf-8"?>
<!-- Generator: Adobe Illustrator 19.0.0, SVG Export Plug-In . SVG Version: 6.00 Build 0)  -->
<!DOCTYPE svg PUBLIC "-//W3C//DTD SVG 1.1//EN" "http://www.w3.org/Graphics/SVG/1.1/DTD/svg11.dtd">
<svg version="1.1" id="Ebene_1" xmlns="http://www.w3.org/2000/svg" xmlns:xlink="http://www.w3.org/1999/xlink" x="0px" y="0px"
	 width="126.3px" height="100px" viewBox="-22 271 126.3 100" style="enable-background:new -22 271 126.3 100;"
	 xml:space="preserve">
<style type="text/css">
	.st0{fill:#E8EFF1;}
	.st1{fill:#FFFFFF;}
	.st2{fill:#E0EAEC;}
	.st3{fill:#DCE6E9;}
	.st4{fill:#D4E1E5;}
	.st5{fill:#DEE8EA;}
	.st6{fill:#D9E4E8;}
	.st7{fill:#CBDBDF;}
	.st8{fill:#D7E3E6;}
	.st9{fill:#D2E0E4;}
	.st10{fill:#CDDCE0;}
	.st11{fill:#C6D7DC;}
	.st12{fill:#C8D9DD;}
	.st13{fill:#C2D4D9;}
	.st14{fill:#BFD2D7;}
	.st15{fill:#C4D5DA;}
	.st16{fill:#B8CED3;}
	.st17{fill:#BDD1D6;}
	.st18{fill:#B6CCD2;}
	.st19{fill:#B1C8CF;}
	.st20{fill:#B3CAD0;}
	.st21{fill:#AEC6CD;}
	.st22{fill:#A9C3CA;}
	.st23{fill:#A8C2C9;}
	.st24{fill:#ACC5CC;}
	.st25{fill:#A5C0C7;}
	.st26{fill:#BACFD5;}
	.st27{fill:#12596D;}
	.st28{fill:#759FAA;}
	.st29{fill:#6996A3;}
</style>
<path class="st0" d="M82.3,320.7c0,23.6-19.1,42.7-42.7,42.7C16.1,363.4-3,344.3-3,320.7c0-23.6,19.1-42.7,42.7-42.7
	C63.2,278.1,82.3,297.2,82.3,320.7"/>
<path class="st1" d="M78.1,321c0,3.6-2.9,6.6-6.6,6.6c-3.6,0-6.6-2.9-6.6-6.6s2.9-6.6,6.6-6.6C75.1,314.4,78.1,317.3,78.1,321"/>
<path class="st2" d="M17.4,313.1C17.4,313,17.4,313,17.4,313.1c-0.7-0.7-1.2-1.7-1.2-2.8c0-2.2,1.7-4,3.9-4h0
	c-2.2,0.1-3.9,1.8-3.9,4C16.3,311.3,16.7,312.3,17.4,313.1 M16.4,327.4c-6.4,0-11.6-5.2-11.6-11.6c0-4.9,3.1-9.1,7.4-10.8
	c0,0.1,0.1,0.2,0.1,0.3c-3.7,1.7-6.3,5.4-6.3,9.8c0,5.9,4.8,10.8,10.8,10.8c5,0,9.3-3.5,10.4-8.2c0.3,0,0.5,0,0.8,0.1
	C27,323.2,22.2,327.4,16.4,327.4"/>
<path class="st3" d="M16.7,325.8c-5.9,0-10.8-4.8-10.8-10.8c0-4.4,2.6-8.1,6.3-9.8c0.1,0.2,0.1,0.4,0.2,0.6
	c-2.9,1.6-4.8,4.7-4.8,8.2c0,5.2,4.2,9.4,9.4,9.4c4,0,7.5-2.5,8.8-6.1c0.4,0.1,0.8,0.1,1.3,0.2C26,322.4,21.7,325.8,16.7,325.8"/>
<path class="st4" d="M17.1,323.6c-5.2,0-9.4-4.2-9.4-9.4c0-3.5,1.9-6.6,4.8-8.2c0,0.1,0.1,0.3,0.1,0.4c-2.3,1.5-3.8,4.1-3.8,7
	c0,4.6,3.8,8.4,8.4,8.4c3.1,0,5.8-1.7,7.3-4.2c0.3,0,0.6,0,0.9,0c0.2,0,0.4,0.1,0.6,0.1C24.5,321,21.1,323.6,17.1,323.6"/>
<path class="st5" d="M20.2,306.2C20.2,306.2,20.2,306.2,20.2,306.2C20.2,306.2,20.3,306.2,20.2,306.2L20.2,306.2L20.2,306.2"/>
<path class="st6" d="M20.2,306.2C20.2,306.2,20.2,306.2,20.2,306.2C20.2,306.2,20.2,306.2,20.2,306.2L20.2,306.2"/>
<path class="st5" d="M28.9,317.8c-0.3,0-0.7,0-1,0c0.1-0.3,0.1-0.6,0.1-0.9c4.6-1.6,7.9-5.9,7.9-11c0-6.4-5.2-11.7-11.6-11.7
	c-6.1,0-11.1,4.7-11.6,10.6c-0.2,0.1-0.4,0.1-0.5,0.2c-0.4-1.5-0.6-3-0.6-4.6c0-9.6,7.8-17.4,17.4-17.4c9.6,0,17.4,7.8,17.4,17.4
	C46.3,310,38.6,317.8,28.9,317.8"/>
<path class="st6" d="M12.2,305.3c0-0.1-0.1-0.2-0.1-0.3c0.2-0.1,0.4-0.1,0.5-0.2c0,0.1,0,0.2,0,0.4
	C12.5,305.2,12.4,305.2,12.2,305.3 M27.9,317.7c-0.3,0-0.5,0-0.8-0.1c0.1-0.2,0.1-0.4,0.1-0.6c0.3-0.1,0.5-0.1,0.8-0.2
	C28,317.1,28,317.4,27.9,317.7"/>
<path class="st4" d="M12.4,305.9c-0.1-0.2-0.1-0.4-0.2-0.6c0.1-0.1,0.3-0.1,0.4-0.2c0,0.2,0,0.4,0,0.7
	C12.6,305.8,12.5,305.8,12.4,305.9 M27.1,317.7c-0.4,0-0.8-0.1-1.3-0.2c0-0.1,0-0.1,0.1-0.2c0.5-0.1,0.9-0.2,1.3-0.3
	C27.2,317.3,27.2,317.5,27.1,317.7"/>
<path class="st7" d="M12.6,306.3c0-0.1-0.1-0.3-0.1-0.4c0.1,0,0.1-0.1,0.2-0.1v0C12.6,305.9,12.6,306.1,12.6,306.3
	C12.6,306.2,12.6,306.3,12.6,306.3 M25.9,317.5c-0.2,0-0.4-0.1-0.6-0.1c0.2,0,0.4,0,0.6-0.1C25.9,317.4,25.9,317.4,25.9,317.5"/>
<path class="st5" d="M20.2,314.3c-1.1,0-2.1-0.5-2.8-1.2C18.2,313.7,19.2,314.2,20.2,314.3c1.1-0.1,2.1-0.5,2.8-1.2
	C22.3,313.8,21.3,314.2,20.2,314.3"/>
<path class="st6" d="M20.2,314.3c-1.1,0-2.1-0.5-2.8-1.2c0,0,0,0,0,0C18.2,313.8,19.1,314.2,20.2,314.3L20.2,314.3"/>
<path class="st7" d="M24.5,317.4c0-0.1,0.1-0.1,0.1-0.2c0.2,0.1,0.5,0.1,0.7,0.2C25,317.4,24.7,317.4,24.5,317.4"/>
<path class="st8" d="M28,316.8c0-0.2,0-0.5,0-0.7c3.8-1.7,6.4-5.4,6.4-9.8c0-5.9-4.8-10.8-10.8-10.8h0c-5.4,0-9.8,4-10.6,9.1
	c-0.1,0-0.3,0.1-0.4,0.1c0.5-5.9,5.5-10.6,11.6-10.6c6.4,0,11.6,5.2,11.6,11.6C35.9,310.9,32.6,315.3,28,316.8"/>
<path class="st9" d="M12.7,305.1c0-0.1,0-0.2,0-0.4c0.1,0,0.3-0.1,0.4-0.1c0,0.1,0,0.2,0,0.3C12.9,305,12.8,305,12.7,305.1
	 M27.3,317.1c0-0.2,0.1-0.4,0.1-0.7c0.2-0.1,0.5-0.2,0.7-0.3c0,0.2,0,0.5,0,0.7C27.8,316.9,27.5,317,27.3,317.1"/>
<path class="st10" d="M12.6,305.8c0-0.2,0-0.4,0-0.7c0.1,0,0.2-0.1,0.4-0.1c0,0.2,0,0.4-0.1,0.6C12.9,305.6,12.8,305.7,12.6,305.8
	 M25.9,317.3c0.1-0.2,0.1-0.4,0.2-0.6c0.4-0.1,0.8-0.2,1.3-0.4c0,0.2-0.1,0.5-0.1,0.7C26.8,317.2,26.4,317.3,25.9,317.3"/>
<path class="st11" d="M12.7,306.2c0-0.1,0-0.3,0-0.4v0c0.1-0.1,0.2-0.1,0.3-0.2c0,0.1,0,0.3,0,0.4C12.9,306.1,12.8,306.2,12.7,306.2
	 M25.3,317.4c-0.2-0.1-0.5-0.1-0.7-0.2c0-0.1,0.1-0.2,0.1-0.3c0.5,0,1-0.1,1.4-0.2c-0.1,0.2-0.1,0.4-0.2,0.6
	C25.7,317.3,25.5,317.4,25.3,317.4"/>
<path class="st6" d="M17.4,313c-0.7-0.7-1.1-1.6-1.2-2.6c0-0.1,0-0.2,0-0.2c0-2.2,1.8-4,4-4c-2.2,0.1-3.9,1.8-3.9,4
	C16.3,311.3,16.7,312.3,17.4,313"/>
<path class="st9" d="M16.2,310.5c0-0.1,0-0.2,0-0.3c0-2.2,1.8-4,4-4c0,0,0,0,0,0c0,0,0,0,0,0c-2.2,0-4,1.8-4,4
	C16.2,310.3,16.2,310.4,16.2,310.5"/>
<path class="st12" d="M16.2,310.2L16.2,310.2c0-2.2,1.8-4,4-4C18,306.2,16.2,308,16.2,310.2"/>
<path class="st9" d="M20.2,314.3c-0.4,0-0.7-0.1-1-0.1c-1.6-0.5-2.8-1.9-2.9-3.6c0.1,1,0.5,1.9,1.2,2.6
	C18.1,313.8,19.1,314.2,20.2,314.3C20.2,314.3,20.2,314.3,20.2,314.3"/>
<path class="st12" d="M19.2,314.1c-0.7-0.2-1.3-0.5-1.7-1c-0.7-0.7-1.2-1.8-1.2-2.9v0c0,0.1,0,0.2,0,0.3
	C16.3,312.2,17.5,313.7,19.2,314.1"/>
<path class="st13" d="M17.4,313.1c-0.2-0.2-0.3-0.4-0.5-0.6c-0.5-0.7-0.7-1.5-0.7-2.3v0c0,0,0,0,0,0v0
	C16.2,311.4,16.7,312.4,17.4,313.1"/>
<path class="st10" d="M28.1,316.1c0-0.1,0-0.2,0-0.3c0-0.2,0-0.4,0-0.5c3-1.6,5.1-4.9,5.1-8.6c0-5.4-4.4-9.7-9.7-9.7
	c-4.6,0-8.4,3.2-9.5,7.4c-0.3,0.1-0.6,0.1-0.9,0.2c0.8-5.2,5.2-9.1,10.6-9.1h0c5.9,0,10.8,4.8,10.8,10.8
	C34.5,310.6,31.8,314.4,28.1,316.1"/>
<path class="st12" d="M13,305c0-0.1,0-0.2,0-0.3c0.3-0.1,0.6-0.2,0.9-0.2c0,0.1,0,0.2-0.1,0.3C13.6,304.8,13.3,304.9,13,305
	 M27.4,316.4c0-0.3,0.1-0.5,0.1-0.8c0.2-0.1,0.4-0.2,0.6-0.3c0,0.2,0,0.4,0,0.5c0,0.1,0,0.2,0,0.3C27.8,316.2,27.6,316.3,27.4,316.4
	"/>
<path class="st11" d="M13,305.6c0-0.2,0-0.4,0.1-0.6c0.3-0.1,0.6-0.2,0.9-0.3c0,0.2-0.1,0.4-0.1,0.6C13.5,305.3,13.2,305.5,13,305.6
	 M26.1,316.7c0.1-0.2,0.1-0.5,0.2-0.8c0.4-0.1,0.8-0.3,1.1-0.4c0,0.3,0,0.6-0.1,0.8C27,316.5,26.6,316.6,26.1,316.7"/>
<path class="st14" d="M13,306c0-0.1,0-0.3,0-0.4c0.3-0.1,0.5-0.2,0.8-0.4c0,0.1,0,0.3-0.1,0.4C13.5,305.8,13.2,305.9,13,306
	 M24.7,317c0.1-0.2,0.2-0.4,0.3-0.7c0.4-0.1,0.9-0.2,1.3-0.3c-0.1,0.3-0.1,0.5-0.2,0.8C25.7,316.8,25.2,316.9,24.7,317"/>
<path class="st5" d="M23,313c0.7-0.7,1.1-1.7,1.1-2.8c0-2.2-1.7-4-3.9-4c0.2,0,0.4,0,0.6,0.1c1.9,0.3,3.3,2,3.4,3.9
	C24.3,311.3,23.8,312.3,23,313"/>
<path class="st8" d="M20.9,306.3c-0.2,0-0.4-0.1-0.6-0.1c0,0,0,0,0,0c0,0,0,0,0,0C20.5,306.2,20.7,306.2,20.9,306.3"/>
<path class="st9" d="M20.2,306.2L20.2,306.2C20.2,306.2,20.2,306.2,20.2,306.2L20.2,306.2C20.2,306.2,20.2,306.2,20.2,306.2"/>
<path class="st8" d="M20.3,314.3C20.3,314.3,20.2,314.3,20.3,314.3c1.1,0,2.1-0.5,2.8-1.2c0.7-0.7,1.2-1.7,1.2-2.9v0
	C24.3,312.4,22.5,314.2,20.3,314.3"/>
<path class="st9" d="M20.3,314.3C20.3,314.3,20.2,314.3,20.3,314.3C20.2,314.3,20.3,314.3,20.3,314.3L20.3,314.3"/>
<path class="st12" d="M20.2,306.2L20.2,306.2C20.2,306.2,20.2,306.2,20.2,306.2C20.2,306.2,20.2,306.2,20.2,306.2L20.2,306.2"/>
<polyline class="st13" points="20.2,306.2 20.2,306.2 20.2,306.2 20.2,306.2 20.2,306.2 "/>
<path class="st12" d="M20.2,314.3C20.2,314.3,20.2,314.3,20.2,314.3C20.2,314.3,20.2,314.3,20.2,314.3
	C20.2,314.3,20.3,314.3,20.2,314.3C20.3,314.3,20.2,314.3,20.2,314.3"/>
<path class="st12" d="M28.1,315.2c0-0.3,0-0.7-0.1-1c2.4-1.6,3.9-4.3,3.9-7.4c0-4.9-4-8.9-8.9-8.9h0c-4.1,0-7.5,2.7-8.6,6.4
	c-0.1,0-0.2,0-0.4,0.1c1-4.3,4.9-7.4,9.5-7.4c5.4,0,9.7,4.4,9.7,9.7C33.2,310.4,31.1,313.6,28.1,315.2"/>
<path class="st15" d="M13.9,304.7c0-0.1,0-0.2,0.1-0.3c0.1,0,0.2-0.1,0.4-0.1c0,0.1-0.1,0.2-0.1,0.3C14.2,304.6,14,304.6,13.9,304.7
	 M27.4,315.6c0-0.2,0-0.3,0-0.5c0-0.2,0-0.3,0-0.5c0.2-0.1,0.4-0.2,0.5-0.3c0,0.3,0.1,0.7,0.1,1C27.9,315.4,27.7,315.5,27.4,315.6"
	/>
<path class="st14" d="M13.8,305.2c0-0.2,0.1-0.4,0.1-0.6c0.1,0,0.2-0.1,0.4-0.1c0,0.2-0.1,0.4-0.1,0.5
	C14,305.2,13.9,305.2,13.8,305.2 M26.3,316c0.1-0.3,0.1-0.6,0.1-0.9c0.3-0.1,0.7-0.3,1-0.5c0,0.2,0,0.3,0,0.5c0,0.2,0,0.3,0,0.5
	C27.1,315.7,26.7,315.9,26.3,316"/>
<path class="st16" d="M13.8,305.6c0-0.1,0-0.3,0-0.4c0.1,0,0.2-0.1,0.3-0.1c0,0.1,0,0.2-0.1,0.4C14,305.5,13.9,305.6,13.8,305.6
	 M25,316.3c0.1-0.3,0.2-0.5,0.3-0.8c0.4-0.1,0.8-0.2,1.2-0.4c0,0.3-0.1,0.6-0.1,0.9C25.9,316.1,25.4,316.2,25,316.3"/>
<path class="st17" d="M28,314.2c0-0.3-0.1-0.6-0.1-0.8c1.8-1.5,3-3.8,3-6.4c0-4.6-3.7-8.3-8.3-8.3c-3.6,0-6.7,2.3-7.8,5.5
	c-0.1,0-0.2,0-0.3,0.1c1.1-3.7,4.5-6.4,8.6-6.4h0c4.9,0,8.9,4,8.9,8.9C31.9,309.9,30.3,312.6,28,314.2"/>
<path class="st16" d="M14.3,304.6c0-0.1,0.1-0.2,0.1-0.3c0.1,0,0.2,0,0.3-0.1c0,0.1-0.1,0.2-0.1,0.3
	C14.5,304.5,14.4,304.6,14.3,304.6 M27.4,314.6c0-0.3,0-0.6-0.1-0.8c0.2-0.1,0.3-0.2,0.5-0.4c0.1,0.3,0.1,0.6,0.1,0.8
	C27.8,314.4,27.6,314.5,27.4,314.6"/>
<path class="st18" d="M14.2,305.1c0-0.2,0.1-0.4,0.1-0.5c0.1,0,0.2,0,0.3-0.1c-0.1,0.2-0.1,0.3-0.1,0.5
	C14.4,305.1,14.3,305.1,14.2,305.1 M26.4,315.1c0-0.3,0-0.5,0-0.8c0.3-0.2,0.6-0.4,0.9-0.6c0,0.3,0.1,0.5,0.1,0.8
	C27.1,314.8,26.8,314.9,26.4,315.1"/>
<path class="st19" d="M14.1,305.5c0-0.1,0-0.2,0.1-0.4c0.1,0,0.2-0.1,0.3-0.1c0,0.1-0.1,0.2-0.1,0.4
	C14.3,305.4,14.2,305.5,14.1,305.5 M25.3,315.5c0.1-0.2,0.1-0.5,0.2-0.7c0.4-0.1,0.7-0.3,1.1-0.5c0,0.3,0,0.5,0,0.8
	C26.1,315.2,25.7,315.4,25.3,315.5"/>
<path class="st15" d="M20.2,314.3c-0.2,0-0.5,0-0.7-0.1c-0.1,0-0.2,0-0.3-0.1C19.5,314.2,19.8,314.3,20.2,314.3
	C20.2,314.3,20.2,314.3,20.2,314.3"/>
<path class="st17" d="M20.2,314.3c-0.2,0-0.4,0-0.6-0.1c0,0,0,0,0,0C19.7,314.2,19.9,314.3,20.2,314.3L20.2,314.3"/>
<path class="st17" d="M19.5,314.2c-0.8-0.1-1.5-0.5-2.1-1.1c0.5,0.5,1.1,0.8,1.7,1C19.3,314.1,19.4,314.2,19.5,314.2"/>
<path class="st16" d="M19.5,314.2c-1.1-0.2-2-0.8-2.6-1.6c0.1,0.2,0.3,0.4,0.5,0.6C18,313.7,18.7,314,19.5,314.2
	C19.5,314.2,19.5,314.2,19.5,314.2"/>
<path class="st11" d="M20.3,314.3C20.3,314.3,20.3,314.3,20.3,314.3c2.2,0,4-1.8,4-4v0C24.3,312.4,22.5,314.2,20.3,314.3"/>
<path class="st15" d="M20.3,314.3C20.3,314.3,20.3,314.3,20.3,314.3C20.3,314.3,20.3,314.3,20.3,314.3"/>
<path class="st17" d="M20.2,314.3C20.2,314.3,20.2,314.3,20.2,314.3C20.2,314.3,20.2,314.3,20.2,314.3
	C20.2,314.3,20.2,314.3,20.2,314.3C20.2,314.3,20.3,314.3,20.2,314.3C20.3,314.3,20.3,314.3,20.2,314.3
	C20.3,314.3,20.3,314.3,20.2,314.3"/>
<path class="st16" d="M20.2,314.3C20.2,314.3,20.2,314.3,20.2,314.3C20.2,314.3,20.2,314.3,20.2,314.3L20.2,314.3"/>
<path class="st11" d="M24.3,310.2c0-2-1.5-3.6-3.4-3.9c0,0,0,0,0,0c1.2,0.2,2.3,1,2.8,2.1C24.1,308.9,24.3,309.5,24.3,310.2"/>
<path class="st13" d="M20.9,306.3C20.9,306.3,20.9,306.3,20.9,306.3c-0.2,0-0.5-0.1-0.7-0.1C20.5,306.2,20.7,306.2,20.9,306.3"/>
<path class="st17" d="M20.3,306.2L20.3,306.2L20.3,306.2z"/>
<path class="st13" d="M24.3,310.2L24.3,310.2L24.3,310.2z"/>
<path class="st16" d="M20.3,306.2L20.3,306.2L20.3,306.2z"/>
<path class="st20" d="M20.2,306.2L20.2,306.2L20.2,306.2z"/>
<path class="st21" d="M23.6,307.9c-0.3-0.4-0.6-0.7-1-1c0.2,0.1,0.4,0.3,0.6,0.4C23.3,307.5,23.4,307.7,23.6,307.9"/>
<path class="st22" d="M23.7,308.1c0-0.1-0.1-0.1-0.1-0.2c-0.1-0.2-0.3-0.4-0.5-0.6C23.3,307.6,23.6,307.8,23.7,308.1"/>
<path class="st22" d="M23.1,307.3c-0.2-0.2-0.4-0.3-0.6-0.4c0,0,0,0,0,0C22.8,307,22.9,307.2,23.1,307.3
	C23.1,307.3,23.1,307.3,23.1,307.3"/>
<path class="st23" d="M23.1,307.3c-0.2-0.2-0.3-0.3-0.5-0.4c-0.1,0-0.1-0.1-0.2-0.1C22.7,306.9,22.9,307.1,23.1,307.3"/>
<path class="st21" d="M27.8,313.4c-1.1-5.3-5.8-9.3-11.4-9.3c-0.6,0-1.2,0-1.7,0.1c1.1-3.2,4.2-5.5,7.8-5.5c4.6,0,8.3,3.7,8.3,8.3
	C30.8,309.6,29.6,311.9,27.8,313.4"/>
<path class="st24" d="M27.4,313.7c-0.7-5.3-5.2-9.4-10.7-9.4c-0.7,0-1.4,0.1-2.1,0.2c0-0.1,0.1-0.2,0.1-0.3c0.6-0.1,1.1-0.1,1.7-0.1
	c5.6,0,10.3,4,11.4,9.3C27.7,313.5,27.5,313.6,27.4,313.7"/>
<path class="st23" d="M26.5,314.3c0-0.1,0-0.1,0-0.2c0-5.2-4.2-9.4-9.4-9.4c-0.9,0-1.8,0.1-2.6,0.4c0-0.2,0.1-0.3,0.1-0.5
	c0.7-0.1,1.4-0.2,2.1-0.2c5.5,0,10,4.1,10.7,9.4C27.1,313.9,26.8,314.1,26.5,314.3"/>
<path class="st23" d="M23.7,308.1C23.7,308.1,23.7,308.1,23.7,308.1c-0.2-0.3-0.4-0.5-0.6-0.7c0,0,0,0,0,0
	C23.3,307.5,23.5,307.8,23.7,308.1"/>
<path class="st25" d="M25.4,314.8c0.1-0.5,0.1-1,0.1-1.5c0-2-0.7-3.8-1.8-5.2c-0.2-0.3-0.4-0.5-0.6-0.7c-0.2-0.2-0.5-0.4-0.7-0.6
	c-1.4-1.1-3.3-1.8-5.2-1.8c-1,0-1.9,0.2-2.8,0.5c0-0.1,0.1-0.2,0.1-0.4c0.8-0.2,1.7-0.4,2.6-0.4c5.2,0,9.4,4.2,9.4,9.4
	c0,0.1,0,0.1,0,0.2C26.1,314.5,25.8,314.7,25.4,314.8"/>
<path class="st26" d="M24.3,310.2c0-0.7-0.2-1.3-0.5-1.9C24.1,308.9,24.3,309.5,24.3,310.2L24.3,310.2"/>
<path class="st18" d="M20.3,314.3L20.3,314.3c2.2,0,4-1.8,4-4v0c0,0,0,0,0,0c0,0,0,0,0,0v0.1C24.3,312.4,22.5,314.2,20.3,314.3"/>
<path class="st20" d="M20.3,314.3L20.3,314.3L20.3,314.3z"/>
<path class="st21" d="M20.2,314.3L20.2,314.3C20.3,314.3,20.3,314.3,20.2,314.3L20.2,314.3C20.3,314.3,20.3,314.3,20.2,314.3"/>
<polygon class="st22" points="20.2,314.3 20.2,314.3 20.2,314.3 "/>
<path class="st12" d="M17.2,321.7c-4.6,0-8.4-3.8-8.4-8.4c0-2.9,1.5-5.5,3.8-7c0,0.1,0.1,0.2,0.1,0.2c0.4,6.1,5.4,10.9,11.6,10.9
	c0.1,0,0.1,0,0.2,0C23,320,20.3,321.7,17.2,321.7"/>
<path class="st15" d="M12.7,306.5c0-0.1-0.1-0.2-0.1-0.2c0,0,0.1,0,0.1,0C12.7,306.3,12.7,306.4,12.7,306.5"/>
<path class="st15" d="M24.3,317.4c-6.2,0-11.2-4.8-11.6-10.9c0.1,0.3,0.2,0.6,0.3,0.8c0.6,5.4,5.1,9.6,10.7,9.6c0,0,0.1,0,0.1,0
	c0.2,0.1,0.5,0.1,0.7,0.2c0,0.1-0.1,0.1-0.1,0.2C24.4,317.4,24.3,317.4,24.3,317.4"/>
<path class="st14" d="M13,307.4c-0.1-0.3-0.2-0.6-0.3-0.8c0-0.1,0-0.2,0-0.3c0.1-0.1,0.2-0.1,0.3-0.2c0,0.1,0,0.1,0,0.2
	C13,306.6,13,307,13,307.4 M24.6,317.2c-0.2-0.1-0.5-0.1-0.7-0.2c0.3,0,0.6,0,0.9,0C24.7,317.1,24.6,317.1,24.6,317.2"/>
<path class="st14" d="M23.7,317c-5.6,0-10.1-4.2-10.7-9.6c0.3,0.7,0.7,1.4,1.1,2.1c1.1,3.6,4.1,6.3,7.8,6.9c0.6,0.3,1.3,0.5,1.9,0.7
	C23.8,317,23.8,317,23.7,317"/>
<path class="st16" d="M14.1,309.4c-0.4-0.7-0.8-1.4-1.1-2.1c0-0.4-0.1-0.7-0.1-1.1c0-0.1,0-0.1,0-0.2c0.3-0.2,0.5-0.3,0.8-0.4
	c0,0.3-0.1,0.7-0.1,1.1C13.7,307.6,13.8,308.6,14.1,309.4 M23.8,317c-0.7-0.2-1.3-0.4-1.9-0.7c0.5,0.1,1,0.1,1.5,0.1
	c0.5,0,1.1,0,1.6-0.1c-0.1,0.2-0.2,0.5-0.3,0.7C24.4,317,24.1,317,23.8,317"/>
<path class="st16" d="M21.9,316.3c-3.7-0.6-6.8-3.3-7.8-6.9c0.2,0.3,0.4,0.7,0.6,1c1,2.3,2.9,4,5.2,4.9
	C20.6,315.7,21.3,316,21.9,316.3"/>
<path class="st18" d="M14.7,310.4c-0.2-0.3-0.4-0.6-0.6-1c-0.3-0.9-0.4-1.8-0.4-2.8c0-0.4,0-0.7,0.1-1.1c0.1,0,0.2-0.1,0.3-0.1
	c-0.1,0.4-0.1,0.9-0.1,1.3C14,308.1,14.3,309.3,14.7,310.4 M23.4,316.4c-0.5,0-1,0-1.5-0.1c-0.7-0.3-1.4-0.6-2-1
	c0.9,0.3,1.9,0.5,3,0.5c0.8,0,1.6-0.1,2.3-0.3c-0.1,0.3-0.2,0.6-0.3,0.8C24.5,316.4,24,316.4,23.4,316.4"/>
<path class="st14" d="M16.2,310.2L16.2,310.2c0-2.2,1.8-4,4-4C18,306.2,16.2,308,16.2,310.2"/>
<path class="st16" d="M16.9,312.6c-0.5-0.7-0.7-1.5-0.7-2.3v0v0v0C16.2,311.1,16.5,311.9,16.9,312.6"/>
<polygon class="st16" points="20.2,306.2 20.2,306.2 20.2,306.2 "/>
<path class="st19" d="M20,315.3c-2.3-0.8-4.2-2.6-5.2-4.9c0.2,0.3,0.4,0.6,0.6,0.8c0.8,1.3,1.9,2.3,3.2,3.1
	C19,314.6,19.5,315,20,315.3"/>
<path class="st21" d="M15.4,311.2c-0.2-0.3-0.4-0.5-0.6-0.8c-0.5-1.1-0.7-2.3-0.7-3.6c0-0.5,0-0.9,0.1-1.3c0.1,0,0.2-0.1,0.3-0.1
	c-0.1,0.5-0.2,1.1-0.2,1.6C14.2,308.6,14.6,310,15.4,311.2 M22.9,315.8c-1,0-2.1-0.2-3-0.5c-0.5-0.3-1-0.6-1.4-1c1.2,0.6,2.5,1,4,1
	c1,0,2-0.2,2.9-0.5c0,0.2-0.1,0.5-0.2,0.7C24.5,315.7,23.7,315.8,22.9,315.8"/>
<path class="st20" d="M20.2,314.3c-0.2,0-0.4,0-0.6-0.1c0,0,0,0,0,0C19.7,314.2,19.9,314.3,20.2,314.3L20.2,314.3"/>
<path class="st19" d="M19.6,314.2c-1.9-0.3-3.4-2-3.4-4c0,0.9,0.3,1.7,0.7,2.3C17.5,313.4,18.5,314,19.6,314.2
	C19.5,314.2,19.6,314.2,19.6,314.2"/>
<path class="st19" d="M20.2,314.3C20.2,314.3,20.2,314.3,20.2,314.3C20.2,314.3,20.2,314.3,20.2,314.3L20.2,314.3"/>
<path class="st19" d="M16.2,310.2L16.2,310.2c0-2.2,1.8-4,4-4h0C18,306.2,16.2,308,16.2,310.2"/>
<polygon class="st24" points="16.2,310.2 16.2,310.2 16.2,310.2 "/>
<path class="st17" d="M23.8,308.3c-0.6-1.1-1.6-1.8-2.8-2.1c0,0,0,0,0,0c0.8,0.1,1.4,0.5,2,1C23.3,307.5,23.6,307.9,23.8,308.3"/>
<path class="st16" d="M22.9,307.2c-0.5-0.5-1.2-0.8-2-1c0.1,0,0.2,0,0.2,0.1C21.9,306.5,22.5,306.8,22.9,307.2"/>
<path class="st16" d="M21,306.3C21,306.3,20.9,306.3,21,306.3c-0.3,0-0.5-0.1-0.7-0.1C20.5,306.2,20.7,306.2,21,306.3"/>
<path class="st18" d="M20.3,306.2L20.3,306.2L20.3,306.2z"/>
<path class="st20" d="M21.2,306.3c-0.1,0-0.2,0-0.2-0.1c-0.2,0-0.5-0.1-0.7-0.1c0,0,0,0,0,0C20.6,306.2,20.9,306.2,21.2,306.3"/>
<path class="st19" d="M20.3,306.2L20.3,306.2C20.3,306.2,20.3,306.2,20.3,306.2L20.3,306.2C20.3,306.2,20.3,306.2,20.3,306.2"/>
<path class="st19" d="M20.3,306.2L20.3,306.2L20.3,306.2z"/>
<path class="st24" d="M20.2,306.2C20.2,306.2,20.2,306.2,20.2,306.2L20.2,306.2L20.2,306.2C20.3,306.2,20.3,306.2,20.2,306.2
	L20.2,306.2L20.2,306.2L20.2,306.2L20.2,306.2"/>
<path class="st22" d="M16.2,310.2L16.2,310.2c0-1.1,0.4-2.1,1.1-2.9c0.7-0.7,1.7-1.1,2.8-1.1h0C18,306.2,16.2,308,16.2,310.2"/>
<path class="st22" d="M20.2,314.3C20.1,314.3,20.1,314.3,20.2,314.3c-0.2,0-0.4,0-0.6-0.1C19.8,314.2,20,314.3,20.2,314.3
	L20.2,314.3"/>
<path class="st25" d="M20.1,314.3c-2.2,0-4-1.8-4-4c0-1.1,0.5-2.2,1.2-2.9c-0.7,0.7-1.1,1.7-1.1,2.8v0v0v0c0,2,1.5,3.7,3.4,4
	C19.7,314.2,19.9,314.3,20.1,314.3"/>
<path class="st20" d="M24.3,310.2c0-0.7-0.2-1.3-0.5-1.9c-0.2-0.4-0.5-0.8-0.8-1.1C23.7,308,24.2,309,24.3,310.2L24.3,310.2"/>
<path class="st21" d="M24.3,310.2c0-1.2-0.5-2.2-1.3-2.9c-0.5-0.4-1.1-0.8-1.7-0.9c1.6,0.4,2.9,1.8,3,3.6
	C24.3,310,24.3,310.1,24.3,310.2L24.3,310.2"/>
<path class="st24" d="M24.3,309.9c-0.2-1.7-1.4-3.2-3-3.6c-0.3-0.1-0.6-0.1-0.9-0.1h0c0.8,0,1.6,0.3,2.3,0.7c0.4,0.3,0.7,0.6,1,1
	C24,308.5,24.2,309.1,24.3,309.9"/>
<polygon class="st22" points="20.3,306.2 20.3,306.2 20.3,306.2 "/>
<path class="st19" d="M20.3,314.3L20.3,314.3c2.2,0,4-1.8,4-4c0,0,0,0,0-0.1v0c0,0,0,0,0,0.1C24.3,312.4,22.5,314.2,20.3,314.3"/>
<path class="st21" d="M20.3,314.3L20.3,314.3L20.3,314.3z"/>
<path class="st24" d="M20.3,314.3L20.3,314.3c2.2,0,4-1.8,4-4c0,0,0,0,0-0.1v0c0-0.1,0-0.2,0-0.3c0,0.1,0,0.2,0,0.4
	C24.3,312.4,22.5,314.2,20.3,314.3C20.4,314.3,20.3,314.3,20.3,314.3"/>
<polygon class="st22" points="20.3,314.3 20.3,314.3 20.3,314.3 "/>
<path class="st22" d="M20.4,314.3c2.2-0.1,3.9-1.8,3.9-4c0-0.1,0-0.2,0-0.4c0-0.7-0.3-1.4-0.7-2c0,0.1,0.1,0.1,0.1,0.2
	c0.4,0.6,0.6,1.4,0.6,2.2C24.3,312.4,22.6,314.2,20.4,314.3"/>
<path class="st22" d="M22.6,306.9c-0.6-0.4-1.4-0.7-2.3-0.7C21.2,306.2,21.9,306.4,22.6,306.9C22.6,306.9,22.6,306.9,22.6,306.9"/>
<path class="st25" d="M17.3,307.3c0.7-0.8,1.8-1.2,2.9-1.2c0.8,0,1.5,0.2,2.2,0.6c0.1,0,0.1,0.1,0.2,0.1c-0.6-0.4-1.4-0.7-2.3-0.7h0
	h0h0h0h0C19.1,306.2,18.1,306.6,17.3,307.3"/>
<path class="st25" d="M18.5,314.3c-1.3-0.7-2.4-1.8-3.2-3.1C16.3,312.4,17.3,313.4,18.5,314.3"/>
<path class="st24" d="M20.2,314.3L20.2,314.3C20.3,314.3,20.3,314.3,20.2,314.3C20.3,314.3,20.3,314.3,20.2,314.3"/>
<path class="st22" d="M20.3,314.3L20.3,314.3C20.3,314.3,20.4,314.3,20.3,314.3C20.4,314.3,20.3,314.3,20.3,314.3"/>
<path class="st25" d="M20.2,314.3c0,0-0.1,0-0.1,0L20.2,314.3L20.2,314.3C20.2,314.3,20.2,314.3,20.2,314.3L20.2,314.3
	C20.3,314.3,20.3,314.3,20.2,314.3L20.2,314.3l0.1,0C20.3,314.3,20.3,314.3,20.2,314.3"/>
<path class="st25" d="M20.4,314.3L20.4,314.3c2.2,0,4-1.8,4-4c0-0.8-0.2-1.5-0.6-2.2c0,0,0,0,0,0c0.4,0.6,0.6,1.4,0.6,2.2
	C24.3,312.4,22.6,314.2,20.4,314.3"/>
<path class="st25" d="M22.5,315.3c-1.4,0-2.8-0.4-4-1c-1.2-0.9-2.2-1.9-3.2-3.1c-0.7-1.2-1.2-2.7-1.2-4.2c0-0.6,0.1-1.1,0.2-1.6
	c0.9-0.3,1.8-0.5,2.8-0.5c2,0,3.8,0.7,5.2,1.8c-0.6-0.4-1.4-0.6-2.2-0.6c-1.1,0-2.2,0.5-2.9,1.2c-0.8,0.7-1.2,1.8-1.2,2.9
	c0,2.2,1.8,4,4,4c0,0,0.1,0,0.1,0c0,0,0.1,0,0.1,0c2.2,0,4-1.8,4-4c0-0.8-0.2-1.5-0.6-2.2c1.1,1.4,1.8,3.2,1.8,5.2
	c0,0.5,0,1-0.1,1.5C24.5,315.1,23.5,315.3,22.5,315.3"/>
<path class="st27" d="M6.8,320.9c0,4.2,2.3,5.8,4.9,5.8c1.9,0,2.9-0.4,3.6-0.7l0.3,1c-0.5,0.3-1.8,0.8-4.1,0.8
	c-3.7,0-6.1-2.7-6.1-6.5c0-4.3,2.5-7,5.8-7c4.2,0,5.1,4,5.1,5.9c0,0.4,0,0.6-0.1,0.8H6.8z M15.1,319.9c0-1.8-0.7-4.6-3.9-4.6
	c-2.9,0-4.1,2.6-4.3,4.6H15.1z"/>
<rect x="19.7" y="314.5" class="st27" width="1.3" height="13"/>
<path class="st27" d="M27.1,311.7v2.9h3.7v1h-3.7v8.4c0,1.6,0.5,2.7,1.9,2.7c0.7,0,1.2-0.1,1.5-0.2l0.2,1c-0.4,0.2-1,0.3-1.8,0.3
	c-0.9,0-1.7-0.3-2.2-0.9c-0.6-0.7-0.8-1.8-0.8-3.1v-8.2h-2.2v-1h2.2v-2.4L27.1,311.7z"/>
<path class="st28" d="M33.5,314.5h0.4v1.4h0c0.1-0.1,0.2-0.2,0.2-0.3l0.9-1.1h0.5l-1.1,1.3l1.2,1.7h-0.5l-1-1.5l-0.3,0.3v1.1h-0.4
	V314.5z"/>
<path class="st28" d="M36,315.9c0-0.2,0-0.4,0-0.6h0.3l0,0.4h0c0.1-0.2,0.4-0.4,0.7-0.4c0.3,0,0.8,0.2,0.8,0.9v1.3h-0.4v-1.2
	c0-0.3-0.1-0.6-0.5-0.6c-0.3,0-0.5,0.2-0.5,0.4c0,0,0,0.1,0,0.2v1.3H36V315.9z"/>
<path class="st28" d="M40.4,316.4c0,0.8-0.5,1.1-1.1,1.1c-0.6,0-1-0.4-1-1.1c0-0.7,0.5-1.1,1.1-1.1C40,315.3,40.4,315.8,40.4,316.4
	 M38.7,316.4c0,0.5,0.3,0.8,0.7,0.8c0.4,0,0.7-0.3,0.7-0.8c0-0.4-0.2-0.8-0.6-0.8C38.9,315.6,38.7,316,38.7,316.4"/>
<path class="st28" d="M41,315.4l0.3,1.1c0.1,0.2,0.1,0.5,0.2,0.7h0c0-0.2,0.1-0.4,0.2-0.7l0.3-1.1h0.3l0.3,1.1
	c0.1,0.3,0.1,0.5,0.2,0.7h0c0-0.2,0.1-0.4,0.2-0.7l0.3-1.1h0.4l-0.7,2.1h-0.4l-0.3-1c-0.1-0.2-0.1-0.5-0.2-0.7h0
	c-0.1,0.3-0.1,0.5-0.2,0.7l-0.3,1h-0.4l-0.6-2.1H41z"/>
<rect x="44.1" y="314.4" class="st28" width="0.4" height="3.1"/>
<path class="st28" d="M45.4,316.5c0,0.5,0.3,0.7,0.7,0.7c0.3,0,0.4,0,0.6-0.1l0.1,0.3c-0.1,0.1-0.4,0.1-0.7,0.1
	c-0.7,0-1.1-0.4-1.1-1.1c0-0.6,0.4-1.2,1-1.2c0.7,0,0.9,0.6,0.9,1c0,0.1,0,0.1,0,0.2H45.4z M46.5,316.2c0-0.2-0.1-0.6-0.5-0.6
	c-0.4,0-0.6,0.4-0.6,0.6H46.5z"/>
<path class="st28" d="M49.2,314.4v2.6c0,0.2,0,0.4,0,0.6h-0.4l0-0.4h0c-0.1,0.2-0.4,0.4-0.7,0.4c-0.5,0-0.9-0.4-0.9-1.1
	c0-0.7,0.4-1.2,1-1.2c0.3,0,0.6,0.2,0.6,0.3h0v-1.3H49.2z M48.8,316.2c0,0,0-0.1,0-0.2c-0.1-0.2-0.3-0.5-0.6-0.5
	c-0.4,0-0.6,0.4-0.6,0.8c0,0.4,0.2,0.8,0.6,0.8c0.3,0,0.5-0.2,0.6-0.5c0-0.1,0-0.1,0-0.2V316.2z"/>
<path class="st28" d="M51.7,315.4c0,0.2,0,0.3,0,0.6v1.2c0,0.5-0.1,0.8-0.3,1c-0.2,0.2-0.5,0.3-0.8,0.3c-0.3,0-0.5-0.1-0.7-0.2
	L50,318c0.1,0.1,0.4,0.2,0.6,0.2c0.4,0,0.7-0.2,0.7-0.7v-0.2h0c-0.1,0.2-0.3,0.4-0.7,0.4c-0.5,0-0.9-0.5-0.9-1c0-0.7,0.5-1.1,1-1.1
	c0.4,0,0.6,0.2,0.7,0.4h0l0-0.3H51.7z M51.3,316.2c0-0.1,0-0.1,0-0.2c-0.1-0.2-0.3-0.4-0.5-0.4c-0.4,0-0.6,0.3-0.6,0.8
	c0,0.4,0.2,0.8,0.6,0.8c0.2,0,0.5-0.1,0.5-0.4c0-0.1,0-0.1,0-0.2V316.2z"/>
<path class="st28" d="M52.6,316.5c0,0.5,0.3,0.7,0.7,0.7c0.3,0,0.4,0,0.6-0.1l0.1,0.3c-0.1,0.1-0.4,0.1-0.7,0.1
	c-0.7,0-1.1-0.4-1.1-1.1c0-0.6,0.4-1.2,1-1.2c0.7,0,0.9,0.6,0.9,1c0,0.1,0,0.1,0,0.2H52.6z M53.7,316.2c0-0.2-0.1-0.6-0.5-0.6
	c-0.4,0-0.6,0.4-0.6,0.6H53.7z"/>
<path class="st28" d="M57.4,317.5c-0.1-0.1-0.2-0.2-0.3-0.3c-0.3,0.2-0.5,0.3-0.9,0.3c-0.6,0-0.9-0.4-0.9-0.8c0-0.4,0.2-0.7,0.6-0.9
	v0c-0.2-0.2-0.2-0.4-0.2-0.6c0-0.4,0.3-0.7,0.8-0.7c0.4,0,0.7,0.2,0.7,0.6c0,0.3-0.2,0.6-0.7,0.8v0c0.3,0.3,0.5,0.6,0.7,0.8
	c0.1-0.2,0.2-0.5,0.3-0.9h0.4c-0.1,0.5-0.2,0.8-0.4,1.1c0.2,0.2,0.3,0.3,0.5,0.5H57.4z M56.9,317c-0.2-0.2-0.5-0.6-0.8-0.9
	c-0.2,0.1-0.4,0.3-0.4,0.6c0,0.3,0.3,0.6,0.6,0.6C56.5,317.3,56.8,317.2,56.9,317 M56,315.2c0,0.2,0.1,0.4,0.2,0.5
	c0.3-0.2,0.5-0.3,0.5-0.6c0-0.2-0.1-0.4-0.3-0.4C56.1,314.7,56,314.9,56,315.2"/>
<rect x="33.5" y="319.5" class="st28" width="0.4" height="3"/>
<path class="st28" d="M34.6,320.9c0-0.2,0-0.4,0-0.6H35l0,0.4h0c0.1-0.2,0.4-0.4,0.7-0.4c0.3,0,0.8,0.2,0.8,0.9v1.3h-0.4v-1.2
	c0-0.3-0.1-0.6-0.5-0.6c-0.3,0-0.5,0.2-0.5,0.4c0,0,0,0.1,0,0.2v1.3h-0.4V320.9z"/>
<path class="st28" d="M37.1,320.9c0-0.2,0-0.4,0-0.6h0.3l0,0.4h0c0.1-0.2,0.4-0.4,0.7-0.4c0.3,0,0.8,0.2,0.8,0.9v1.3h-0.4v-1.2
	c0-0.3-0.1-0.6-0.5-0.6c-0.3,0-0.5,0.2-0.5,0.4c0,0,0,0.1,0,0.2v1.3h-0.4V320.9z"/>
<path class="st28" d="M41.5,321.4c0,0.8-0.5,1.1-1.1,1.1c-0.6,0-1-0.4-1-1.1c0-0.7,0.5-1.1,1.1-1.1
	C41.1,320.3,41.5,320.8,41.5,321.4 M39.8,321.4c0,0.5,0.3,0.8,0.7,0.8c0.4,0,0.7-0.3,0.7-0.8c0-0.4-0.2-0.8-0.6-0.8
	C40,320.6,39.8,321,39.8,321.4"/>
<path class="st28" d="M42.1,320.4l0.4,1.2c0.1,0.2,0.1,0.4,0.2,0.5h0c0-0.2,0.1-0.4,0.2-0.5l0.4-1.2h0.4l-0.8,2.1h-0.4l-0.8-2.1
	H42.1z"/>
<path class="st28" d="M45.3,322.5l0-0.3h0c-0.1,0.2-0.4,0.3-0.7,0.3c-0.4,0-0.7-0.3-0.7-0.6c0-0.5,0.5-0.8,1.3-0.8v0
	c0-0.2,0-0.5-0.5-0.5c-0.2,0-0.4,0.1-0.6,0.2l-0.1-0.3c0.2-0.1,0.4-0.2,0.7-0.2c0.7,0,0.8,0.4,0.8,0.9v0.8c0,0.2,0,0.4,0,0.5H45.3z
	 M45.2,321.4c-0.4,0-0.9,0.1-0.9,0.5c0,0.3,0.2,0.4,0.4,0.4c0.3,0,0.5-0.2,0.5-0.4c0,0,0-0.1,0-0.1V321.4z"/>
<path class="st28" d="M46.7,319.8v0.6h0.6v0.3h-0.6v1.2c0,0.3,0.1,0.4,0.3,0.4c0.1,0,0.2,0,0.2,0l0,0.3c-0.1,0-0.2,0.1-0.3,0.1
	c-0.2,0-0.3-0.1-0.4-0.2c-0.1-0.1-0.1-0.3-0.1-0.6v-1.2h-0.3v-0.3h0.3v-0.5L46.7,319.8z"/>
<path class="st28" d="M48.1,319.8c0,0.1-0.1,0.2-0.2,0.2c-0.1,0-0.2-0.1-0.2-0.2c0-0.1,0.1-0.2,0.2-0.2
	C48,319.5,48.1,319.6,48.1,319.8 M47.6,320.4H48v2.1h-0.4V320.4z"/>
<path class="st28" d="M50.6,321.4c0,0.8-0.5,1.1-1.1,1.1c-0.6,0-1-0.4-1-1.1c0-0.7,0.5-1.1,1.1-1.1
	C50.2,320.3,50.6,320.8,50.6,321.4 M48.9,321.4c0,0.5,0.3,0.8,0.7,0.8c0.4,0,0.7-0.3,0.7-0.8c0-0.4-0.2-0.8-0.6-0.8
	C49.1,320.6,48.9,321,48.9,321.4"/>
<path class="st28" d="M51.1,320.9c0-0.2,0-0.4,0-0.6h0.3l0,0.4h0c0.1-0.2,0.4-0.4,0.7-0.4c0.3,0,0.8,0.2,0.8,0.9v1.3h-0.4v-1.2
	c0-0.3-0.1-0.6-0.5-0.6c-0.3,0-0.5,0.2-0.5,0.4c0,0,0,0.1,0,0.2v1.3h-0.4V320.9z"/>
<path class="st28" d="M35.6,327.4c-0.1,0.1-0.4,0.1-0.8,0.1c-0.8,0-1.5-0.5-1.5-1.5c0-0.9,0.6-1.6,1.6-1.6c0.4,0,0.6,0.1,0.7,0.1
	l-0.1,0.3c-0.1-0.1-0.4-0.1-0.6-0.1c-0.7,0-1.2,0.4-1.2,1.2c0,0.7,0.4,1.2,1.1,1.2c0.2,0,0.5,0,0.6-0.1L35.6,327.4z"/>
<path class="st28" d="M38,326.4c0,0.8-0.5,1.1-1.1,1.1c-0.6,0-1-0.4-1-1.1c0-0.7,0.5-1.1,1.1-1.1C37.6,325.3,38,325.8,38,326.4
	 M36.3,326.4c0,0.5,0.3,0.8,0.7,0.8c0.4,0,0.7-0.4,0.7-0.8c0-0.4-0.2-0.8-0.6-0.8C36.5,325.6,36.3,326,36.3,326.4"/>
<path class="st28" d="M38.5,325.9c0-0.2,0-0.4,0-0.6h0.3l0,0.3h0c0.1-0.2,0.3-0.4,0.7-0.4c0.3,0,0.5,0.2,0.6,0.4h0
	c0.1-0.1,0.1-0.2,0.2-0.3c0.1-0.1,0.3-0.2,0.5-0.2c0.3,0,0.7,0.2,0.7,0.9v1.3h-0.4v-1.2c0-0.4-0.1-0.7-0.5-0.7
	c-0.2,0-0.4,0.2-0.5,0.4c0,0.1,0,0.1,0,0.2v1.3h-0.4v-1.3c0-0.3-0.1-0.6-0.4-0.6c-0.2,0-0.4,0.2-0.5,0.4c0,0.1,0,0.1,0,0.2v1.3h-0.4
	V325.9z"/>
<path class="st28" d="M42.2,325.9c0-0.2,0-0.4,0-0.6h0.3l0,0.3h0c0.1-0.2,0.3-0.4,0.7-0.4c0.3,0,0.5,0.2,0.6,0.4h0
	c0.1-0.1,0.2-0.2,0.2-0.3c0.1-0.1,0.3-0.2,0.5-0.2c0.3,0,0.7,0.2,0.7,0.9v1.3h-0.4v-1.2c0-0.4-0.2-0.7-0.5-0.7
	c-0.2,0-0.4,0.2-0.5,0.4c0,0.1,0,0.1,0,0.2v1.3h-0.4v-1.3c0-0.3-0.1-0.6-0.4-0.6c-0.2,0-0.4,0.2-0.5,0.4c0,0.1,0,0.1,0,0.2v1.3h-0.4
	V325.9z"/>
<path class="st28" d="M47.7,326.9c0,0.2,0,0.4,0,0.6h-0.3l0-0.4h0c-0.1,0.2-0.3,0.4-0.7,0.4c-0.3,0-0.7-0.2-0.7-0.9v-1.3h0.4v1.2
	c0,0.4,0.1,0.7,0.5,0.7c0.3,0,0.4-0.2,0.5-0.4c0-0.1,0-0.1,0-0.2v-1.3h0.4V326.9z"/>
<path class="st28" d="M48.3,325.9c0-0.2,0-0.4,0-0.6h0.3l0,0.4h0c0.1-0.2,0.4-0.4,0.7-0.4c0.3,0,0.8,0.2,0.8,0.9v1.3h-0.4v-1.2
	c0-0.3-0.1-0.6-0.5-0.6c-0.3,0-0.5,0.2-0.5,0.4c0,0,0,0.1,0,0.2v1.3h-0.4V325.9z"/>
<path class="st28" d="M51.2,324.8c0,0.1-0.1,0.2-0.2,0.2c-0.1,0-0.2-0.1-0.2-0.2c0-0.1,0.1-0.2,0.2-0.2
	C51.1,324.5,51.2,324.6,51.2,324.8 M50.8,325.4h0.4v2.1h-0.4V325.4z"/>
<path class="st28" d="M52.3,324.7v0.6h0.6v0.3h-0.6v1.2c0,0.3,0.1,0.4,0.3,0.4c0.1,0,0.2,0,0.2,0l0,0.3c-0.1,0-0.2,0.1-0.3,0.1
	c-0.2,0-0.3-0.1-0.4-0.2c-0.1-0.1-0.1-0.3-0.1-0.6v-1.2h-0.3v-0.3h0.3v-0.5L52.3,324.7z"/>
<path class="st28" d="M53.5,325.4l0.5,1.3c0,0.1,0.1,0.3,0.1,0.4h0c0-0.1,0.1-0.3,0.1-0.4l0.4-1.3H55l-0.6,1.5
	c-0.3,0.7-0.5,1.1-0.7,1.3c-0.2,0.2-0.4,0.2-0.5,0.3l-0.1-0.3c0.1,0,0.2-0.1,0.3-0.2c0.1-0.1,0.2-0.2,0.3-0.4c0,0,0-0.1,0-0.1
	s0-0.1,0-0.1l-0.8-2H53.5z"/>
<path class="st29" d="M11.1,339c-0.3,0.2-1,0.3-1.9,0.3c-2.1,0-3.6-1.2-3.6-3.5c0-2.2,1.6-3.6,3.8-3.6c0.9,0,1.5,0.2,1.7,0.3
	l-0.2,0.7c-0.4-0.2-0.9-0.3-1.5-0.3c-1.7,0-2.9,1-2.9,2.9c0,1.7,1,2.8,2.8,2.8c0.6,0,1.2-0.1,1.5-0.3L11.1,339z"/>
<rect x="12.2" y="332" class="st29" width="1" height="7.3"/>
<path class="st29" d="M15.9,332.9c0,0.3-0.2,0.6-0.6,0.6c-0.3,0-0.6-0.2-0.6-0.6c0-0.3,0.2-0.6,0.6-0.6
	C15.6,332.3,15.9,332.6,15.9,332.9 M14.8,334.3h1v5h-1V334.3z"/>
<path class="st29" d="M17.3,335.6c0-0.5,0-0.9,0-1.3h0.8l0,0.8h0c0.3-0.5,0.8-0.9,1.7-0.9c0.7,0,1.3,0.4,1.5,1h0
	c0.2-0.3,0.4-0.5,0.6-0.6c0.3-0.2,0.7-0.3,1.2-0.3c0.7,0,1.7,0.4,1.7,2.2v2.9h-0.9v-2.8c0-1-0.4-1.5-1.1-1.5c-0.5,0-1,0.4-1.1,0.8
	c0,0.1-0.1,0.3-0.1,0.5v3.1h-0.9v-3c0-0.8-0.4-1.4-1.1-1.4c-0.6,0-1,0.5-1.2,0.9c-0.1,0.1-0.1,0.3-0.1,0.4v3h-0.9V335.6z"/>
<path class="st29" d="M29.3,339.2l-0.1-0.6h0c-0.3,0.4-0.9,0.7-1.6,0.7c-1.1,0-1.6-0.7-1.6-1.4c0-1.2,1.1-1.9,3.2-1.8V336
	c0-0.4-0.1-1.1-1.2-1.1c-0.5,0-1,0.1-1.4,0.4l-0.2-0.6c0.4-0.3,1.1-0.4,1.7-0.4c1.6,0,2,1,2,2v1.9c0,0.4,0,0.9,0.1,1.2H29.3z
	 M29.2,336.7c-1,0-2.2,0.2-2.2,1.1c0,0.6,0.4,0.9,0.9,0.9c0.7,0,1.1-0.4,1.3-0.8c0-0.1,0.1-0.2,0.1-0.3V336.7z"/>
<path class="st29" d="M32.7,332.9v1.4h1.4v0.7h-1.4v2.7c0,0.6,0.2,1,0.7,1c0.2,0,0.4,0,0.6-0.1l0,0.7c-0.2,0.1-0.5,0.1-0.8,0.1
	c-0.4,0-0.8-0.1-1-0.4c-0.3-0.3-0.4-0.7-0.4-1.3V335H31v-0.7h0.8v-1.2L32.7,332.9z"/>
<path class="st29" d="M35.6,336.9c0,1.2,0.8,1.7,1.8,1.7c0.7,0,1.1-0.1,1.5-0.3l0.2,0.6c-0.3,0.1-0.9,0.3-1.7,0.3
	c-1.6,0-2.6-1-2.6-2.5c0-1.5,0.9-2.7,2.5-2.7c1.7,0,2.2,1.4,2.2,2.3c0,0.2,0,0.3,0,0.4H35.6z M38.4,336.3c0-0.6-0.2-1.5-1.3-1.5
	c-1,0-1.4,0.8-1.5,1.5H38.4z"/>
<rect x="40.4" y="336.1" class="st29" width="2.7" height="0.7"/>
<path class="st29" d="M44.2,332.3h0.9v3.3h0c0.2-0.3,0.4-0.5,0.6-0.7l2.2-2.6h1.2l-2.6,2.9l2.9,4h-1.1l-2.4-3.4l-0.7,0.8v2.6h-0.9
	V332.3z"/>
<rect x="50.1" y="332.3" class="st29" width="0.9" height="6.9"/>
<path class="st29" d="M57.8,339c-0.3,0.2-1,0.3-1.9,0.3c-2.1,0-3.6-1.2-3.6-3.5c0-2.2,1.6-3.6,3.8-3.6c0.9,0,1.5,0.2,1.7,0.3
	l-0.2,0.7c-0.4-0.2-0.9-0.3-1.5-0.3c-1.7,0-2.9,1-2.9,2.9c0,1.7,1,2.8,2.8,2.8c0.6,0,1.2-0.1,1.5-0.3L57.8,339z"/>
<path class="st1" d="M24.3,310.2c0,2.2-1.8,4-4,4c-2.2,0-4-1.8-4-4c0-2.2,1.8-4,4-4C22.5,306.2,24.3,308,24.3,310.2"/>
</svg>
