<?xml version="1.0" encoding="UTF-8" standalone="no"?><!DOCTYPE svg PUBLIC "-//W3C//DTD SVG 1.1//EN" "http://www.w3.org/Graphics/SVG/1.1/DTD/svg11.dtd"><svg width="175.6px" height="100px" viewBox="0 0 732 417" version="1.1" xmlns="http://www.w3.org/2000/svg" xmlns:xlink="http://www.w3.org/1999/xlink" xml:space="preserve" style="fill-rule:evenodd;clip-rule:evenodd;stroke-linejoin:round;stroke-miterlimit:1.41421;"><g><g><path d="M115.438,262.288l22.05,0l0,-139.87l-22.05,0l0,54.935l-0.398,0c-2.781,-4.866 -9.535,-13.785 -23.64,-13.785c-22.647,0 -32.381,22.501 -32.381,50.475c0,26.961 7.152,50.475 32.381,50.475c11.92,0 21.654,-10.135 23.64,-15.609l0.398,0l0,13.379Zm-32.977,-48.245c0,-16.014 1.788,-33.042 16.289,-33.042c12.714,0 16.688,15.204 16.688,33.042c0,15.406 -4.371,33.042 -16.688,33.042c-13.906,0 -16.289,-17.839 -16.289,-33.042Z" style="fill:#11586c;fill-rule:nonzero;"/><path d="M224.598,245.058c-3.973,1.419 -11.124,3.649 -18.077,3.649c-26.62,0 -35.56,-27.164 -35.56,-40.542l56.021,0l0,-5.474c0,-23.514 -11.919,-39.123 -35.957,-39.123c-28.606,0 -40.525,18.447 -40.525,45.407c0,35.475 17.084,55.543 47.677,55.543c10.132,0 18.475,-1.216 26.421,-3.851l0,-15.609Zm-53.041,-50.475c0.596,-5.676 4.966,-16.622 17.879,-16.622c13.707,0 16.687,10.541 16.687,16.622l-34.566,0Z" style="fill:#11586c;fill-rule:nonzero;"/><rect x="241.386" y="122.418" width="22.051" height="139.87" style="fill:#11586c;fill-rule:nonzero;"/><path d="M352.334,245.058c-3.974,1.419 -11.125,3.649 -18.078,3.649c-26.62,0 -35.56,-27.164 -35.56,-40.542l56.021,0l0,-5.474c0,-23.514 -11.919,-39.123 -35.956,-39.123c-28.607,0 -40.526,18.447 -40.526,45.407c0,35.475 17.084,55.543 47.677,55.543c10.132,0 18.475,-1.216 26.422,-3.851l0,-15.609Zm-53.042,-50.475c0.596,-5.676 4.967,-16.622 17.879,-16.622c13.708,0 16.688,10.541 16.688,16.622l-34.567,0Z" style="fill:#11586c;fill-rule:nonzero;"/></g><g><path d="M440.636,165.798l-21.058,0l0,11.555l-0.397,0c-3.179,-4.866 -8.543,-13.785 -24.435,-13.785c-22.448,0 -32.381,22.704 -32.381,48.245c0,25.745 7.152,50.475 32.381,50.475c14.899,0 22.051,-10.946 24.435,-15l0.397,0l0,15c0,12.568 -2.583,28.177 -24.435,28.177c-13.707,0 -23.839,-5.473 -29.202,-8.514l0,22.096c4.172,1.013 15.098,3.851 29.6,3.851c28.606,0 45.095,-10.744 45.095,-38.92l0,-103.18Zm-54.83,46.015c0,-12.77 1.987,-30.812 16.29,-30.812c13.707,0 17.482,18.042 17.482,30.812c0,13.785 -4.768,33.042 -17.482,33.042c-14.502,0 -16.29,-19.257 -16.29,-33.042Z" style="fill:#7197a1;fill-rule:nonzero;"/><path d="M507.683,262.288l21.057,0l0,-68.719c0,-19.663 -10.926,-30.001 -34.367,-30.001c-24.038,0 -35.957,12.163 -35.957,30.61l21.455,0c0,-6.487 2.384,-14.798 14.502,-14.798c10.926,0 13.31,8.108 13.31,17.635l0,9.528c-13.111,0.405 -52.843,0.608 -52.843,32.636c0,15.609 11.92,25.339 27.812,25.339c15.098,0 21.654,-7.095 24.634,-13.379l0.397,0l0,11.149Zm-31.388,-25.136c0,-12.973 17.085,-17.433 31.388,-17.433c0,13.176 -5.364,28.988 -19.667,28.988c-7.549,0 -11.721,-4.055 -11.721,-11.555Z" style="fill:#7197a1;fill-rule:nonzero;"/><path d="M603.142,247.085c-3.178,0.811 -6.555,1.622 -10.131,1.622c-13.509,0 -14.899,-10.136 -14.899,-21.69l0,-45.61l28.01,0l0,-15.609l-28.01,0l0,-36.488l-22.051,13.582l0,22.906l-18.475,0l0,15.609l18.475,0l0,56.556c0,14.392 3.973,26.555 29.003,26.555c5.96,0 12.119,-0.608 18.078,-1.622l0,-15.811Z" style="fill:#7197a1;fill-rule:nonzero;"/><path d="M681.307,245.058c-3.973,1.419 -11.124,3.649 -18.077,3.649c-26.62,0 -35.56,-27.164 -35.56,-40.542l56.021,0l0,-5.474c0,-23.514 -11.919,-39.123 -35.957,-39.123c-28.606,0 -40.525,18.447 -40.525,45.407c0,35.475 17.084,55.543 47.677,55.543c10.132,0 18.475,-1.216 26.421,-3.851l0,-15.609Zm-53.041,-50.475c0.596,-5.676 4.967,-16.622 17.879,-16.622c13.708,0 16.687,10.541 16.687,16.622l-34.566,0Z" style="fill:#7197a1;fill-rule:nonzero;"/></g></g></svg>
