<?xml version="1.0" encoding="utf-8"?>
<!-- Generator: Adobe Illustrator 16.2.1, SVG Export Plug-In . SVG Version: 6.00 Build 0)  -->
<!DOCTYPE svg PUBLIC "-//W3C//DTD SVG 1.1//EN" "http://www.w3.org/Graphics/SVG/1.1/DTD/svg11.dtd">
<svg version="1.1" id="Ebene_1" xmlns="http://www.w3.org/2000/svg" xmlns:xlink="http://www.w3.org/1999/xlink" x="0px" y="0px"
	 width="200px" height="70px" viewBox="0 0 595.275 226.771" enable-background="new 0 0 595.275 226.771"
	 xml:space="preserve">
<g>
	<path fill="#7C7C7B" d="M25.196,150.704h4.904c8.763,0,9.888,6.669,9.888,19.687c0,15.591-1.608,20.652-9.647,20.652h-5.146
		V150.704L25.196,150.704z M13.638,199.549h18.231c15.344,0,19.678-9.229,19.678-29.479c0-16.955-2.97-27.872-18.955-27.872H13.638
		V199.549L13.638,199.549z M82.904,199.549h10.595v-43.212H82.422v28.681c0,4.74-1.93,7.15-5.87,7.15
		c-3.297,0-4.745-1.607-4.745-6.025v-29.806H60.731v32.055c0,8.592,4.014,12.282,10.997,12.282c4.744,0,8.685-1.927,11.016-6.176
		h0.16V199.549L82.904,199.549z M101.366,185.417v1.527c0,8.354,3.371,13.729,15.902,13.729c9.32,0,16.062-4.493,16.062-13.569
		c0-6.51-2.568-10.046-9.551-12.376l-6.672-2.251c-3.78-1.205-4.825-2.893-4.825-5.062c0-3.134,2.412-4.661,5.227-4.661
		c3.619,0.005,4.905,2.092,4.905,6.508h9.952v-1.766c0-7.788-4.735-12.283-14.776-12.283c-11.328,0-15.903,5.94-15.903,13.005
		c0,6.107,3.13,9.884,9.229,12.055l7.799,2.813c2.172,0.884,4.02,2.089,4.02,4.902c0,3.456-2.17,5.144-5.628,5.144
		c-3.779,0-5.789-2.491-5.789-6.269v-1.443L101.366,185.417L101.366,185.417z M139.598,185.417v1.527
		c0,8.354,3.371,13.729,15.901,13.729c9.321,0,16.063-4.493,16.063-13.569c0-6.51-2.568-10.046-9.551-12.376l-6.673-2.251
		c-3.779-1.205-4.825-2.893-4.825-5.062c0-3.134,2.413-4.661,5.228-4.661c3.618,0.005,4.905,2.092,4.905,6.508h9.952v-1.766
		c0-7.788-4.735-12.283-14.777-12.283c-11.328,0-15.902,5.94-15.902,13.005c0,6.107,3.13,9.884,9.229,12.055l7.799,2.813
		c2.171,0.884,4.02,2.089,4.02,4.902c0,3.456-2.17,5.144-5.628,5.144c-3.779,0-5.79-2.491-5.79-6.269v-1.443L139.598,185.417
		L139.598,185.417z M179.283,199.549h11.077v-28.439c0-5.062,2.252-7.392,5.79-7.392c3.136,0,4.343,2.009,4.343,5.624v30.207h11.076
		v-28.439c0-5.062,2.252-7.392,5.79-7.392c3.136,0,4.343,2.009,4.343,5.624v30.207h11.076v-31.412
		c0-8.351-3.371-12.924-10.755-12.924c-5.227,0-9.248,2.327-10.935,6.9h-0.161c-1.204-4.493-4.816-6.9-9.953-6.9
		c-4.744,0-8.121,1.604-10.935,5.536h-0.161v-4.412h-10.595V199.549L179.283,199.549z M252.035,169.583v-1.204
		c0.001-3.455,1.689-5.625,5.147-5.625c3.779,0,5.146,2.009,5.146,5.304c0,2.894-1.125,4.18-4.422,5.063l-6.272,1.688
		c-7.626,2.089-10.917,5.305-10.917,13.501c0,5.785,2.729,12.364,10.434,12.364c5.387,0,8.443-1.125,11.017-5.614h0.16
		c0.321,1.523,0.642,3.126,1.365,4.489h10.596c-1.045-2.564-1.366-4.248-1.366-8.347v-22.743c0-7.787-2.488-13.246-15.661-13.246
		c-8.357,0-15.179,3.371-15.179,13.326v1.044H252.035L252.035,169.583z M262.328,186.461c0,4.823-3.859,6.671-6.835,6.671
		c-2.975,0-4.181-2.732-4.181-6.028c0-3.857,1.769-6.027,6.272-6.991c1.367-0.322,3.217-0.965,4.744-2.17V186.461L262.328,186.461z
		 M282.653,199.549h11.077v-28.681c0-4.74,1.93-7.15,5.871-7.15c3.297,0,4.744,1.607,4.744,6.026v29.805h11.076v-32.055
		c0-8.59-4.012-12.281-10.996-12.281c-4.744,0-8.684,1.925-11.016,6.178h-0.161v-5.054h-10.595V199.549L282.653,199.549z
		 M324.88,199.549h11.076v-28.681c0-4.74,1.93-7.15,5.869-7.15c3.297,0,4.744,1.607,4.744,6.026v29.805h11.076v-32.055
		c0-8.59-4.012-12.281-10.996-12.281c-4.742,0-8.684,1.925-11.016,6.178h-0.16v-5.054H324.88V199.549L324.88,199.549z
		 M424.407,159.184c0-11.61-5.217-18.11-17.83-18.11c-14.781,0-19.277,9.867-19.277,29.081c0,19.913,2.811,30.52,17.027,30.52
		c5.465,0,9.244-1.927,12.055-6.417h0.16v5.292h8.508v-31h-18.713v8.505h7.637v5.896c0,6.228-4.342,9.218-7.156,9.218
		c-6.672,0-7.959-8.729-7.959-22.576c0-14.33,2.332-20.013,7.879-20.013c4.744,0,6.594,5.443,6.594,9.604H424.407L424.407,159.184z
		 M434.556,199.549h11.076V173.6c0-5.783,4.338-7.793,8.195-7.793c1.205,0,2.25,0.08,3.455,0.161v-10.595
		c-0.645-0.08-1.367-0.16-2.01-0.16c-4.58,0-7.713,2.729-9.961,6.902l-0.162,0.005v-5.783h-10.594V199.549L434.556,199.549z
		 M462.384,177.943c0,15.108,3.775,22.972,17.025,22.73c12.613,0,17.027-7.944,17.027-22.73c0-15.109-3.771-22.972-17.027-22.73
		C466.8,155.213,462.384,163.156,462.384,177.943L462.384,177.943z M473.462,177.943c0-8.841,0.482-15.189,5.947-15.189
		c4.504,0,5.951,4.34,5.951,15.189c0,10.849-1.447,15.188-5.951,15.188C473.944,193.132,473.462,186.783,473.462,177.943
		L473.462,177.943z M526.685,199.549h10.596v-43.212h-11.076v28.681c0,4.74-1.93,7.15-5.869,7.15c-3.297,0-4.746-1.607-4.746-6.025
		v-29.806h-11.076v32.055c0,8.592,4.014,12.282,10.996,12.282c4.744,0,8.686-1.927,11.016-6.176h0.16V199.549L526.685,199.549z
		 M546.755,213.688h11.076v-18.146h0.162c2.332,3.447,5.145,5.132,9.326,5.132c9.074,0,13.248-6.66,13.248-22.73
		s-4.174-22.73-13.248-22.73c-4.422,0-7.316,1.604-9.809,5.697h-0.162v-4.573h-10.594V213.688L546.755,213.688z M557.831,177.948
		c0-9.408,0.965-14.23,5.871-14.23c4.822,0,5.789,4.822,5.789,14.226c0,9.402-0.967,14.225-5.789,14.225
		c-4.906,0-5.871-4.822-5.871-14.225V177.948L557.831,177.948z"/>
	<path fill="#E2001A" d="M384.384,57.052c0-23.563-19.102-42.666-42.666-42.666c-0.174,0-137.796,0-137.796,0l-7.415,12.112h82.611
		l0,0c9.562,0,17.313,7.751,17.313,17.312s-7.751,17.312-17.313,17.312l0,0H234.86l-23.644,38.583h14.191l16.229-26.483h37.481
		c16,0,28.968-13.168,28.968-29.412c0-6.474-2.064-12.455-5.555-17.312h39.188c16.873,0,30.553,13.68,30.553,30.554
		c0,16.875-13.68,30.554-30.553,30.554h-94.706l-7.415,12.1c0,0,101.949,0,102.121,0C365.282,99.706,384.384,80.616,384.384,57.052
		L384.384,57.052L384.384,57.052z"/>
</g>
</svg>
