<?xml version="1.0" encoding="UTF-8" standalone="no"?><!DOCTYPE svg PUBLIC "-//W3C//DTD SVG 1.1//EN" "http://www.w3.org/Graphics/SVG/1.1/DTD/svg11.dtd"><svg width="175.6px" height="100px" viewBox="0 0 732 417" version="1.1" xmlns="http://www.w3.org/2000/svg" xmlns:xlink="http://www.w3.org/1999/xlink" xml:space="preserve" style="fill-rule:evenodd;clip-rule:evenodd;stroke-linejoin:round;stroke-miterlimit:1.41421;"><g><g><g transform="matrix(1.72218,0,0,1.72218,-310.302,-17.3583)"><text x="351px" y="156.308px" style="font-family:'AdobeFanHeitiStd-Bold', 'Adobe Fan Heiti Std', sans-serif;font-weight:600;font-size:54px;fill:#11586c;">e<tspan x="378.702px 402.732px " y="156.308px 156.308px ">co</tspan></text><text x="443.448px" y="156.308px" style="font-family:'AdobeFanHeitiStd-Bold', 'Adobe Fan Heiti Std', sans-serif;font-weight:600;font-size:54px;fill:#11586c;">n<tspan x="471.69px 495.936px 521.046px 549.288px " y="156.308px 156.308px 156.308px 156.308px ">vent</tspan></text></g><text x="566.288px" y="293.385px" style="font-family:'AdobeFanHeitiStd-Bold', 'Adobe Fan Heiti Std', sans-serif;font-weight:600;font-size:30.999px;fill:#11586c;">C<tspan x="586.128px 603.89px 623.451px 635.819px 648.126px " y="293.385px 293.385px 293.385px 293.385px 293.385px ">entre</tspan></text><path d="M446.96,252c-15.566,78.54 -75.696,141.128 -152.896,160.266c73.87,-21.188 130.49,-83.351 143.641,-160.266l9.255,0Zm-7.038,-51c-8.506,-103.89 -95.624,-185.667 -201.692,-185.667c-92.736,0 -170.986,62.511 -194.877,147.658c21.906,-90.606 103.589,-157.991 200.887,-157.991c110.484,0 200.835,86.887 206.391,196l-10.709,0Z" style="fill:#11586c;fill-opacity:0.75;"/><circle cx="444.874" cy="191.857" r="4.305" style="fill:#fff;"/></g></g></svg>
