<?xml version="1.0" encoding="UTF-8" standalone="no"?>
<!DOCTYPE svg PUBLIC "-//W3C//DTD SVG 1.1//EN" "http://www.w3.org/Graphics/SVG/1.1/DTD/svg11.dtd">
<svg width="100%" height="100%" viewBox="0 0 322 100" version="1.1" xmlns="http://www.w3.org/2000/svg" xmlns:xlink="http://www.w3.org/1999/xlink" xml:space="preserve" xmlns:serif="http://www.serif.com/" style="fill-rule:evenodd;clip-rule:evenodd;stroke-linejoin:round;stroke-miterlimit:1.41421;">
    <g transform="matrix(0.803398,0,0,0.803398,27.7172,8.625)">
        <g transform="matrix(0.562384,0,0,0.562384,-15.6344,1.38824)">
            <path d="M466.089,134.797C453.328,135.163 440.535,133.312 428.318,134.797C416.019,136.304 403.833,136.409 391.731,138.054C400.211,138.975 403.361,138.356 410.7,139.947C414.637,140.807 423.137,142.125 427.43,141.592C415.725,143.737 403.246,142.491 391.146,143.068C355.353,144.753 320.42,149.034 287.873,154.571C244.125,162.016 203.266,171.971 167.789,187.621C168.375,186.041 169.003,184.501 169.265,182.597C166.877,183.067 163.737,185.328 161.297,186.731C162.92,182.921 163.057,177.091 165.433,173.457C167.265,170.652 170.772,170.464 173.096,168.433C173.703,164.904 175.001,162.067 176.048,159.001C204.313,150.008 235.164,143.12 268.401,138.346C328.962,129.637 402.388,127.543 466.089,134.797Z" style="fill:rgb(73,109,128);fill-opacity:0.698039;fill-rule:nonzero;"/>
        </g>
        <g transform="matrix(0.562384,0,0,0.562384,-15.6344,1.38824)">
            <path d="M425.659,105.297C432.59,103.957 428.916,118.163 423.305,114.739C419.985,112.709 422.069,105.998 425.659,105.297Z" style="fill:rgb(73,109,128);fill-rule:nonzero;"/>
        </g>
        <g transform="matrix(0.562384,0,0,0.562384,-15.6344,1.38824)">
            <path d="M621.871,98.514C621.715,99.341 621.432,100.042 621.274,100.868C619.014,100.868 616.752,100.868 614.49,100.868C613.883,103.119 613.402,105.485 613.308,108.249C614.794,108.93 617.537,108.354 619.506,108.542C619.715,109.642 619.003,109.809 619.212,110.907C617.149,110.907 615.088,110.907 613.015,110.907C611.832,113.599 612.219,116.048 611.246,118.875C613.12,119.555 616.261,118.969 618.626,119.168C618.374,119.995 618.28,120.989 618.029,121.816C614.889,121.816 611.737,121.816 608.597,121.816C609.916,114.09 611.152,106.28 612.429,98.514C615.579,98.514 618.72,98.514 621.871,98.514Z" style="fill:rgb(73,109,128);fill-rule:nonzero;"/>
        </g>
        <g transform="matrix(0.562384,0,0,0.562384,-15.6344,1.38824)">
            <path d="M541.022,98.514L541.022,118.277L548.109,98.514L551.062,98.514L551.062,117.984L557.718,98.479L560.494,98.514L551.941,121.816L548.988,121.816L548.988,102.052L541.912,121.816L538.96,121.816L538.374,98.514L541.022,98.514Z" style="fill:rgb(73,109,128);fill-rule:nonzero;"/>
        </g>
        <g transform="matrix(0.562384,0,0,0.562384,-15.6344,1.38824)">
            <path d="M511.427,98.514L510.937,100.868L504.435,100.868L503.308,108.249L509.156,108.215L508.863,110.907L502.823,110.907L500.897,121.816L498.275,121.816L502.373,98.514L511.427,98.514Z" style="fill:rgb(73,109,128);fill-rule:nonzero;"/>
        </g>
        <g transform="matrix(0.562384,0,0,0.562384,-15.6344,1.38824)">
            <path d="M356.033,98.514C355.876,99.341 355.594,100.042 355.437,100.868C353.175,100.868 348.653,100.868 348.653,100.868L347.47,108.249L353.995,108.237L353.375,110.907L346.884,110.907L345.408,119.272L352.495,119.168L352.191,121.816L342.523,121.816L346.59,98.514C346.59,98.514 352.882,98.514 356.033,98.514Z" style="fill:rgb(73,109,128);fill-rule:nonzero;"/>
        </g>
        <g transform="matrix(0.562384,0,0,0.562384,-15.6344,1.38824)">
            <path d="M335.085,98.514C335.085,98.514 334.235,105.587 333.757,108.804C332.665,115.216 332.012,124.943 323.569,121.523C321.718,119.73 322.503,117.063 322.984,114.446C323.77,114.446 324.555,114.446 325.35,114.446C324.994,116.645 324.207,118.961 325.84,119.546C328.374,120.457 329.956,116.752 330.364,114.446C331.27,109.327 332.72,98.514 332.72,98.514L335.085,98.514Z" style="fill:rgb(73,109,128);fill-rule:nonzero;"/>
        </g>
        <g transform="matrix(0.562384,0,0,0.562384,-15.6344,1.38824)">
            <path d="M303.903,119.2C305.023,113.14 306.758,100.868 306.758,100.868C306.758,100.868 310.464,100.232 311.445,101.868C313.146,103.831 313.995,120.352 303.903,119.2ZM312.071,98.681C309.831,98.064 304.403,98.514 304.403,98.514L300.854,121.816C300.854,121.816 307.349,122.019 309.709,120.644C315.437,117.31 317.334,102.326 312.071,98.681Z" style="fill:rgb(73,109,128);fill-rule:nonzero;"/>
        </g>
        <g transform="matrix(0.562384,0,0,0.562384,-15.6344,1.38824)">
            <path d="M283.361,98.514L286.899,117.623L290.145,98.514L292.511,98.514L288.375,121.816L285.423,121.816L281.591,102.052L278.64,121.816L276.048,121.816L280.116,98.514L283.361,98.514Z" style="fill:rgb(73,109,128);fill-rule:nonzero;"/>
        </g>
        <g transform="matrix(0.562384,0,0,0.562384,-15.6344,1.38824)">
            <path d="M392.232,98.514L395.772,117.623L399.018,98.514L401.383,98.514L397.249,121.816L394.296,121.816L390.464,102.052L387.512,121.816L384.921,121.816L388.988,98.514L392.232,98.514Z" style="fill:rgb(73,109,128);fill-rule:nonzero;"/>
        </g>
        <g transform="matrix(0.562384,0,0,0.562384,-15.6344,1.38824)">
            <path d="M258.372,113.557L263.024,101.231L263.973,113.557L258.372,113.557ZM265.156,98.514L262.204,98.514L252.761,121.816L255.242,121.816L257.482,116.216L264.267,116.216L264.863,121.816L267.218,121.816L265.156,98.514Z" style="fill:rgb(73,109,128);fill-rule:nonzero;"/>
        </g>
        <g transform="matrix(0.562384,0,0,0.562384,-15.6344,1.38824)">
            <path d="M366.198,113.557L370.851,101.231L371.799,113.557L366.198,113.557ZM372.982,98.514L370.03,98.514L360.587,121.816L363.068,121.816L365.31,116.216L372.092,116.216L372.688,121.816L375.044,121.816L372.982,98.514Z" style="fill:rgb(73,109,128);fill-rule:nonzero;"/>
        </g>
        <g transform="matrix(0.562384,0,0,0.562384,-15.6344,1.38824)">
            <path d="M241.547,108.249C240.07,108.249 237.718,108.249 237.718,108.249L238.901,100.868C238.901,100.868 242.319,100.868 243.509,100.868C244.985,103.214 244.146,106.798 241.547,108.249ZM245.391,98.807C243.151,98.189 237.121,98.514 237.121,98.514L233.29,121.816L235.656,121.816C235.656,121.816 236.777,114.457 237.425,110.907C245.622,109.673 240.356,117.806 241.843,121.816C242.638,121.816 243.423,121.816 244.208,121.816C243.434,117.492 246.292,111.139 242.732,109.432C246.449,108.636 247.958,101.466 245.391,98.807Z" style="fill:rgb(73,109,128);fill-rule:nonzero;"/>
        </g>
        <g transform="matrix(0.562384,0,0,0.562384,-15.6344,1.38824)">
            <path d="M595.896,108.249C594.42,108.249 592.067,108.249 592.067,108.249L593.251,100.868C593.251,100.868 596.667,100.868 597.858,100.868C599.335,103.214 598.495,106.798 595.896,108.249ZM599.74,98.807C597.501,98.189 591.47,98.514 591.47,98.514L587.639,121.816L590.005,121.816C590.005,121.816 591.126,114.457 591.774,110.907C599.972,109.673 594.705,117.806 596.192,121.816C596.987,121.816 597.772,121.816 598.558,121.816C597.784,117.492 600.642,111.139 597.082,109.432C600.798,108.636 602.308,101.466 599.74,98.807Z" style="fill:rgb(73,109,128);fill-rule:nonzero;"/>
        </g>
        <g transform="matrix(0.562384,0,0,0.562384,-15.6344,1.38824)">
            <path d="M150.085,98.514L149.793,100.821L145.365,100.868L141.823,121.816L139.167,121.816L142.706,100.887L137.995,100.868L138.288,98.514L150.085,98.514Z" style="fill:rgb(73,109,128);fill-rule:nonzero;"/>
        </g>
        <g transform="matrix(0.562384,0,0,0.562384,-15.6344,1.38824)">
            <path d="M531.14,98.514L530.847,100.821L526.419,100.868L522.877,121.816L520.222,121.816L523.76,100.887L519.049,100.868L519.341,98.514L531.14,98.514Z" style="fill:rgb(73,109,128);fill-rule:nonzero;"/>
        </g>
        <g transform="matrix(0.562384,0,0,0.562384,-15.6344,1.38824)">
            <path d="M107.301,98.514L103.71,121.816L101.114,121.816L104.946,98.514L107.301,98.514Z" style="fill:rgb(73,109,128);fill-rule:nonzero;"/>
        </g>
        <g transform="matrix(0.562384,0,0,0.562384,-15.6344,1.38824)">
            <path d="M39.444,98.514L42.982,117.623L46.227,98.514L48.593,98.514L44.458,121.816L41.506,121.816L37.675,102.052L34.723,121.816L32.132,121.816L36.198,98.514L39.444,98.514Z" style="fill:rgb(73,109,128);fill-rule:nonzero;"/>
        </g>
        <g transform="matrix(0.562384,0,0,0.562384,-15.6344,1.38824)">
            <path d="M487.808,110.656C487.253,113.779 486.299,117.931 483.635,118.968C482.33,119.38 481.155,119.21 480.296,118.85C477.55,116.979 479.351,108.631 480.691,104.967C481.492,102.782 483.425,100.224 486.641,101.519C488.872,102.929 488.328,107.736 487.808,110.656ZM488.037,98.514C483.368,96.634 480.525,99.466 479.362,102.639C477.416,107.956 475.081,119.099 479.069,121.816C480.315,122.34 482.021,122.587 483.914,121.987C487.783,120.481 488.888,115.431 489.693,110.897C490.447,106.658 491.275,100.56 488.037,98.514Z" style="fill:rgb(73,109,128);fill-rule:nonzero;"/>
        </g>
        <g transform="matrix(0.562384,0,0,0.562384,-15.6344,1.38824)">
            <path d="M173.399,119.754C169.16,118.686 171.974,111.9 174.838,110.041C176.128,112.599 178.286,117.131 178.286,117.131C178.286,117.131 175.812,120.362 173.399,119.754ZM178.414,100.283C180.981,101.235 177.95,105.925 176.074,106.884C174.713,104.707 174.027,99.686 178.414,100.283ZM183.713,107.956C183.022,107.956 182.331,107.956 181.651,107.956C180.897,110.615 180.967,112.802 179.897,115.07C178.971,113.07 177.985,110.991 177.121,108.956C179.812,106.727 183.773,100.494 180.476,98.514C173.871,95.164 170.782,103.758 173.986,108.542C168.462,111.115 165.067,124.183 176.048,122.119C177.601,121.387 178.554,120.784 179.339,119.602C179.601,120.429 180.183,121.816 180.183,121.816L182.842,121.816C182.842,121.816 181.84,119.241 181.12,117.608C182.704,115.193 182.907,110.981 183.713,107.956Z" style="fill:rgb(73,109,128);fill-rule:nonzero;"/>
        </g>
        <g transform="matrix(0.562384,0,0,0.562384,-15.6344,1.38824)">
            <path d="M127.663,104.71C126.972,104.71 126.291,104.71 125.601,104.71C128.082,98.514 119.937,99.865 119.989,104.407C120.042,108.312 125.736,108.489 126.479,113.263C127.38,119.011 122.587,124.311 116.612,121.585C114.44,120.352 114.755,116.938 115.864,115.032C116.356,115.032 117.318,115.052 117.81,115.052C117.287,116.917 116.829,118.912 118.661,119.632C121.636,120.352 124.323,118.058 124.124,115.032C123.894,111.589 118.23,110.604 117.633,106.48C116.796,100.723 120.811,96.614 126.873,98.728C128.933,99.579 128.866,102.952 127.663,104.71Z" style="fill:rgb(73,109,128);fill-rule:nonzero;"/>
        </g>
        <g transform="matrix(0.562384,0,0,0.562384,-15.6344,1.38824)">
            <path d="M69.541,104.71C68.85,104.71 68.159,104.71 67.479,104.71C67.835,102.491 67.382,100.707 65.699,100.283C59.873,98.815 58.478,115.914 59.512,118.571C60.135,120.058 63.783,119.68 65.112,118.875C65.584,116.687 66.295,111.727 66.295,111.727L63.051,111.787L63.343,109.128L68.944,109.128L67.175,120.644C67.175,120.644 67.027,122.164 59.209,122.119C53.548,122.119 57.827,102.711 60.684,99.696C64.17,96.012 72.218,98.074 69.541,104.71Z" style="fill:rgb(73,109,128);fill-rule:nonzero;"/>
        </g>
        <g transform="matrix(0.562384,0,0,0.562384,-15.6344,1.38824)">
            <path d="M91.524,104.71C90.834,104.71 90.143,104.71 89.462,104.71C89.818,102.491 89.367,100.707 87.683,100.283C81.857,98.815 80.461,115.914 81.496,118.571C82.119,120.058 85.767,119.68 87.096,118.875C87.568,116.687 88.279,111.727 88.279,111.727L85.034,111.787L85.327,109.128L90.928,109.128L89.159,120.644C89.159,120.644 89.011,122.164 81.192,122.119C75.532,122.119 79.811,102.711 82.668,99.696C86.154,96.012 94.201,98.074 91.524,104.71Z" style="fill:rgb(73,109,128);fill-rule:nonzero;"/>
        </g>
        <g transform="matrix(0.562384,0,0,0.562384,-15.6344,1.38824)">
            <path d="M12.592,92.609C16.528,92.609 24.401,92.609 24.401,92.609L23.803,95.854L15.251,95.854L13.986,104.71L21.741,104.704L21.155,108.249L13.482,108.249L11.892,118.575L20.266,118.571L19.679,121.816C19.679,121.816 11.807,121.816 7.871,121.816C9.577,112.238 11.262,102.396 12.592,92.609Z" style="fill:rgb(73,109,128);fill-rule:nonzero;"/>
        </g>
        <g transform="matrix(0.562384,0,0,0.562384,-15.6344,1.38824)">
            <path d="M466.675,100.283C465.691,100.283 464.707,100.283 463.724,100.283C465.45,92.63 455.453,94.454 456.939,101.466C457.672,104.923 462.704,105.685 464.31,109.432C466.356,114.213 463.766,119.137 461.368,120.937C457.327,123.973 447.95,122.366 451.328,112.971C452.219,112.971 453.098,112.971 453.987,112.971C451.614,122.133 462.499,120.089 461.66,112.971C461.106,108.291 454.842,108.106 453.694,102.941C451.292,92.123 468.958,86.307 466.675,100.283Z" style="fill:rgb(73,109,128);fill-rule:nonzero;"/>
        </g>
        <g transform="matrix(0.562384,0,0,0.562384,-15.6344,1.38824)">
            <path d="M222.968,100.283C222.078,100.283 221.199,100.283 220.309,100.283C220.549,95.812 218.194,93.342 214.405,95.854C211.651,97.687 208.958,111.912 209.879,116.176C211.057,121.628 217.144,118.048 217.144,118.048L218.54,109.152L214.405,109.128L215.001,105.884L221.785,105.884C221.785,105.884 220.298,115.42 219.722,120.34C213.944,123.397 206.94,123.647 206.741,115.922C206.627,111.809 208.46,99.285 210.838,95.5C214.332,89.943 225.102,90.092 222.968,100.283Z" style="fill:rgb(73,109,128);fill-rule:nonzero;"/>
        </g>
        <g transform="matrix(0.562384,0,0,0.562384,-15.6344,1.38824)">
            <path d="M261.618,11.771C270.369,11.144 281.686,10.044 290.532,11.468C292.604,15.886 289.37,21.382 286.396,23.569C276.41,23.601 264.947,24.334 255.127,25.338C252.133,25.642 248.742,25.59 246.868,26.229C242.848,27.58 240.66,32.594 237.718,34.781C244.69,34.101 256.635,31.274 265.742,31.536C272.295,31.725 275.122,35.598 273.123,43.041C262.204,46.694 247.36,46.967 234.18,48.349C229.501,48.84 224.402,48.433 220.896,49.825C218.006,50.986 215.556,54.368 213.525,56.315C211.065,58.681 208.281,60.492 206.741,63.402C211.63,64.156 216.792,62.408 222.371,61.633C227.647,60.89 233.374,60.293 239.194,60.157C251.16,59.864 263.418,61.434 274.306,60.743C274.452,58.231 271.835,56.922 271.94,55.436C280.021,57.529 289.978,65.842 285.811,76.383C279.163,77.503 272.536,75.148 265.742,74.321C251.484,72.573 236.074,73.013 222.078,74.908C213.557,76.059 206.93,77.807 197.885,78.445C194.085,76.342 192.473,71.202 193.458,65.758C194.546,59.728 201.79,56.41 204.083,52.19C202.91,52.4 201.173,53.258 199.948,52.484C198.869,47.365 201.937,43.868 203.486,40.393C208.951,38.529 214.917,38.937 219.419,36.843C223.46,34.98 224.758,30.699 227.689,27.998C221.325,28.427 214.593,31.295 207.914,29.474C205.371,26.009 207.213,18.932 210.573,17.373C212.604,16.43 216.32,16.587 219.722,16.188C222.727,15.844 226.035,15.331 228.862,15.017C234.923,14.326 242.229,14.661 247.16,12.944C251.055,11.594 254.06,5.459 257.189,5.281C260.329,5.092 261.627,9.552 261.618,11.771Z" style="fill:rgb(17,88,108);fill-rule:nonzero;"/>
        </g>
        <g transform="matrix(0.562384,0,0,0.562384,-15.6344,1.38824)">
            <path d="M335.672,26.815C338.342,24.145 345.491,25.433 345.408,20.617C345.334,16.398 337.798,17.78 334.489,18.555C330.804,19.424 326.303,21.308 323.874,22.387C317.498,25.234 310.924,29.191 306.172,33.598C301.502,37.922 291.62,49.207 300.854,54.253C312.233,60.471 334.877,56.189 339.808,47.763C333.776,48.998 326.91,49.667 320.629,49.825C317.949,47.302 314.934,42.612 316.493,37.733C335.421,40.026 347.178,32.897 363.403,31.536C365.737,33.734 366.313,39.23 365.476,43.638C364.471,44.894 362.179,44.862 360.451,45.407C353.898,56.849 347.679,68.626 340.687,79.628C340.635,82.926 340.247,85.878 338.331,87.302C333.526,87.479 327.601,85.428 326.826,81.397C325.518,74.677 333.379,69.736 335.379,65.171C316.284,74.938 279.31,71.148 283.152,45.7C283.486,43.491 284.041,41.178 284.921,39.209C293.118,20.858 318.356,4.883 340.1,3.512C352.014,2.758 361.864,11.688 356.033,23.569C352.903,29.935 341.21,31.871 335.672,26.815Z" style="fill:rgb(17,88,108);fill-rule:nonzero;"/>
        </g>
        <g transform="matrix(0.562384,0,0,0.562384,-15.6344,1.38824)">
            <path d="M568.813,113.539L573.465,101.214L574.414,113.539L568.813,113.539ZM575.598,98.496L572.646,98.496L563.202,121.798L565.683,121.798L567.925,116.198L574.707,116.198L575.303,121.798L577.659,121.798L575.598,98.496Z" style="fill:rgb(73,109,128);fill-rule:nonzero;"/>
        </g>
        <g transform="matrix(0.562384,0,0,0.562384,-15.6344,1.38824)">
            <path d="M407.078,2.622C396.106,4.611 383.252,7.552 376.091,13.833C372.103,17.341 367.831,22.836 369.893,31.243C371.925,39.502 381.817,43.376 389.375,47.176C392.777,48.893 396.558,51.039 400.881,53.373C404.503,55.331 409.245,58.429 408.554,63.109C407.644,69.181 395.824,67.946 389.669,66.354C386.926,65.643 383.282,64.47 380.226,63.402C377.86,62.575 373.023,60.817 372.553,58.681C371.568,54.232 375.955,55.352 376.688,51.897C368.878,51.154 362.063,55.237 361.634,61.036C361.299,65.653 364.199,69.191 367.245,71.662C375.704,78.54 398.871,84.664 411.799,78.152C419.001,74.53 422.613,64.868 418.29,56.022C413.463,46.161 399.698,40.141 389.669,34.781C386.874,33.284 383.398,31.494 383.178,29.181C382.529,22.366 397.164,18.597 402.063,17.079C406.45,15.707 424.413,10.767 426.549,17.079C427.848,20.942 422.593,27.82 420.06,30.353C416.51,33.902 412.616,35.378 409.434,38.32C419.85,39.743 430.758,33.629 434.223,27.704C442.315,13.823 427.262,3.46 414.447,2.622" style="fill:rgb(17,88,108);fill-rule:nonzero;"/>
        </g>
    </g>
</svg>
