<?xml version="1.0" encoding="UTF-8" standalone="no"?>
<!DOCTYPE svg PUBLIC "-//W3C//DTD SVG 1.1//EN" "http://www.w3.org/Graphics/SVG/1.1/DTD/svg11.dtd">
<svg width="393" height="75" viewBox="0 0 393 75" version="1.1" xmlns="http://www.w3.org/2000/svg" xmlns:xlink="http://www.w3.org/1999/xlink" xml:space="preserve" xmlns:serif="http://www.serif.com/" style="fill-rule:evenodd;clip-rule:evenodd;stroke-linejoin:round;stroke-miterlimit:2;">
    <g>
        <rect x="39.129" y="25.566" width="2.092" height="2.093" style="fill:rgb(19,89,109);fill-rule:nonzero;"/>
        <rect x="39.129" y="29.699" width="2.092" height="16.478" style="fill:rgb(19,89,109);fill-rule:nonzero;"/>
        <path d="M45.301,25.566L47.394,25.566L47.394,29.699L55.607,29.699L55.607,31.791L47.394,31.791L47.394,42.044C47.394,43.248 48.283,44.137 49.434,44.137L55.607,44.137L55.607,46.177L49.434,46.177C47.289,46.177 45.301,44.451 45.301,42.044L45.301,31.791L42.215,31.791L42.215,29.699L45.301,29.699L45.301,25.566Z" style="fill:rgb(19,89,109);"/>
        <path d="M34.734,35.872L20.976,35.872C21.029,34.354 21.395,33.309 22.127,32.733C22.598,32.314 23.226,32.053 24.115,31.896C24.952,31.739 26.208,31.634 27.881,31.634C29.503,31.634 30.758,31.739 31.648,31.896C32.485,32.053 33.165,32.314 33.636,32.733C34.368,33.309 34.734,34.354 34.734,35.872ZM20.976,37.964L37.088,37.964C37.088,36.133 36.983,34.773 36.774,33.884C36.565,32.995 36.199,32.21 35.676,31.53C34.996,30.745 34.159,30.222 33.06,29.908C32.014,29.646 30.235,29.49 27.829,29.49C25.371,29.49 23.644,29.646 22.545,29.908C21.447,30.222 20.61,30.745 19.983,31.53C19.407,32.21 19.041,32.995 18.884,33.884C18.675,34.773 18.57,36.133 18.518,37.964C18.57,39.743 18.675,41.103 18.884,41.992C19.041,42.881 19.407,43.666 19.983,44.346C20.61,45.13 21.447,45.706 22.545,45.967C23.644,46.282 25.371,46.386 27.829,46.386C30.235,46.386 32.014,46.282 33.06,45.967C34.159,45.706 34.996,45.13 35.676,44.346C36.094,43.823 36.408,43.195 36.617,42.568L34.159,42.568C34.002,42.777 33.845,42.986 33.636,43.195C33.165,43.561 32.485,43.875 31.648,44.033C30.758,44.189 29.503,44.242 27.881,44.242C26.208,44.242 24.952,44.189 24.115,44.033C23.226,43.875 22.598,43.561 22.127,43.195C21.5,42.672 21.133,41.783 21.029,40.58C20.976,39.743 20.976,38.853 20.976,37.964Z" style="fill:rgb(19,89,109);fill-rule:nonzero;"/>
        <path d="M37.088,75C57.542,75 74.177,58.417 74.177,37.964C74.177,17.458 57.542,0.875 37.088,0.875C30.34,0.875 24.01,2.707 18.57,5.845L20.61,9.402C25.475,6.578 31.072,5.008 37.088,5.008C55.293,5.008 70.044,19.76 70.044,37.964C70.044,56.168 55.293,70.92 37.088,70.92C18.884,70.92 4.132,56.168 4.132,37.964L0,37.964C0,58.417 16.634,75 37.088,75Z" style="fill:rgb(19,89,109);"/>
        <path d="M37.088,66.788C47.76,66.788 57.071,60.981 62.041,52.35L58.483,50.31C54.194,57.685 46.243,62.655 37.088,62.655C23.435,62.655 12.398,51.618 12.398,37.964C12.398,24.311 23.435,13.221 37.088,13.221C46.243,13.221 54.194,18.19 58.483,25.566L62.041,23.526C57.071,14.895 47.76,9.088 37.088,9.088C21.186,9.088 8.265,22.009 8.265,37.964C8.265,53.867 21.186,66.788 37.088,66.788Z" style="fill:rgb(93,140,154);"/>
        <path d="M86.663,46.177L86.663,38.801L99.322,38.801L99.322,36.866L86.663,36.866L86.663,31.634L99.95,31.634L99.95,29.699L84.465,29.699L84.465,46.177L86.663,46.177ZM103.455,35.035C102.618,35.349 101.938,35.872 101.467,36.761C100.997,37.598 100.735,38.801 100.735,40.422C100.735,41.835 100.892,42.986 101.258,43.771C101.572,44.555 102.095,45.183 102.879,45.602C103.403,45.863 104.083,46.073 104.92,46.177C105.705,46.282 106.96,46.333 108.582,46.333C110.308,46.333 111.511,46.229 112.295,46.124C113.028,45.967 113.656,45.706 114.127,45.34C114.597,45.026 114.963,44.555 115.225,43.927C115.644,43.143 115.853,41.992 115.853,40.475C115.853,39.115 115.696,38.017 115.33,37.18C115.016,36.395 114.493,35.767 113.76,35.349C113.29,35.035 112.609,34.878 111.773,34.773C110.936,34.616 109.575,34.564 107.797,34.564C105.757,34.616 104.292,34.721 103.455,35.035ZM111.982,36.499C112.662,36.708 113.185,37.127 113.499,37.755C113.76,38.33 113.918,39.219 113.918,40.422C113.918,41.416 113.813,42.202 113.656,42.777C113.446,43.352 113.185,43.771 112.767,44.033C112.4,44.293 111.929,44.503 111.302,44.608C110.674,44.66 109.732,44.712 108.425,44.712C106.437,44.712 105.077,44.608 104.397,44.346C103.769,44.084 103.298,43.666 103.089,43.09C102.827,42.515 102.67,41.678 102.67,40.528C102.67,39.481 102.775,38.696 102.984,38.069C103.141,37.493 103.455,37.075 103.874,36.813C104.24,36.552 104.763,36.395 105.338,36.29C105.966,36.238 106.856,36.185 108.059,36.185C109.941,36.185 111.25,36.29 111.982,36.499ZM120.038,35.035C119.201,35.349 118.521,35.872 118.05,36.761C117.579,37.598 117.317,38.801 117.317,40.422C117.317,41.835 117.475,42.986 117.788,43.771C118.154,44.555 118.678,45.183 119.462,45.602C119.985,45.863 120.666,46.073 121.45,46.177C122.235,46.282 123.49,46.333 125.112,46.333C126.838,46.333 128.042,46.229 128.772,46.124C129.558,45.967 130.186,45.706 130.657,45.34C131.127,45.026 131.494,44.555 131.755,43.927C132.174,43.143 132.331,41.992 132.331,40.475C132.331,39.115 132.174,38.017 131.86,37.18C131.546,36.395 131.022,35.767 130.291,35.349C129.82,35.035 129.14,34.878 128.302,34.773C127.414,34.616 126.106,34.564 124.275,34.564C122.287,34.616 120.875,34.721 120.038,35.035ZM128.46,36.499C129.192,36.708 129.715,37.127 130.029,37.755C130.291,38.33 130.396,39.219 130.396,40.422C130.396,41.416 130.343,42.202 130.134,42.777C129.977,43.352 129.715,43.771 129.297,44.033C128.931,44.293 128.46,44.503 127.832,44.608C127.204,44.66 126.263,44.712 124.955,44.712C122.967,44.712 121.607,44.608 120.98,44.346C120.352,44.084 119.881,43.666 119.619,43.09C119.357,42.515 119.253,41.678 119.253,40.528C119.253,39.481 119.357,38.696 119.515,38.069C119.724,37.493 120.038,37.075 120.456,36.813C120.822,36.552 121.293,36.395 121.869,36.29C122.496,36.238 123.386,36.185 124.589,36.185C126.472,36.185 127.78,36.29 128.46,36.499ZM146.821,29.699L146.821,36.133L146.716,36.133C146.35,35.505 145.775,35.087 145.095,34.878C144.415,34.668 143.316,34.564 141.694,34.564C139.236,34.564 137.562,34.721 136.673,34.982C135.731,35.296 135.051,35.872 134.528,36.761C134.057,37.598 133.795,38.853 133.795,40.475C133.795,41.887 133.953,42.986 134.266,43.771C134.58,44.555 135.104,45.13 135.835,45.549C136.359,45.863 136.986,46.073 137.771,46.177C138.556,46.282 139.707,46.333 141.276,46.333C143.107,46.333 144.362,46.229 145.043,46.02C145.775,45.811 146.35,45.392 146.769,44.712L146.874,44.712L146.874,46.177L148.652,46.177L148.652,29.699L146.821,29.699ZM145.565,36.708C146.036,36.97 146.402,37.389 146.612,38.017C146.821,38.592 146.926,39.429 146.926,40.58C146.926,41.574 146.821,42.306 146.612,42.829C146.455,43.405 146.141,43.823 145.67,44.084C145.356,44.346 144.833,44.503 144.101,44.608C143.421,44.712 142.375,44.712 140.962,44.712C138.765,44.712 137.353,44.451 136.725,43.927C136.097,43.405 135.731,42.253 135.731,40.475C135.731,39.481 135.835,38.644 136.045,38.069C136.202,37.546 136.516,37.075 136.986,36.813C137.353,36.552 137.823,36.395 138.503,36.342C139.184,36.238 140.177,36.185 141.538,36.185C143.578,36.185 144.885,36.342 145.565,36.708Z" style="fill:rgb(19,89,109);fill-rule:nonzero;"/>
        <path d="M296.867,13.037L222.482,13.037L222.482,62.839L296.867,62.839L296.867,13.037ZM296.367,13.537L296.367,62.339L222.982,62.339L222.982,13.537L296.367,13.537Z" style="fill:rgb(19,89,109);fill-rule:nonzero;"/>
        <path d="M258.689,22.028L257.096,20.877L259.061,20.88L259.66,18.995L260.26,20.877L262.229,20.877L260.633,22.028L261.23,23.888L259.66,22.737L258.091,23.888L258.689,22.028ZM249.968,26.081L251.538,24.93L253.107,26.081L252.51,24.218L254.103,23.07L252.138,23.07L251.538,21.185L250.935,23.07L248.973,23.07L250.565,24.218L249.968,26.081ZM245.594,27.167L244.993,29.053L243.028,29.053L244.621,30.201L244.024,32.063L245.594,30.912L247.163,32.063L246.565,30.201L248.158,29.053L246.196,29.053L245.594,27.167ZM243.415,39.058L244.981,40.209L244.387,38.35L245.981,37.199L244.016,37.199L243.415,35.313L242.812,37.202L240.847,37.199L242.442,38.35L241.846,40.209L243.415,39.058ZM246.196,45.372L245.594,43.486L244.993,45.372L243.028,45.372L244.621,46.519L244.024,48.381L245.594,47.228L247.163,48.381L246.565,46.519L248.158,45.372L246.196,45.372ZM252.149,51.351L251.55,49.468L250.949,51.354L248.984,51.351L250.577,52.501L249.98,54.361L251.55,53.21L253.119,54.361L252.522,52.501L254.114,51.351L252.149,51.351ZM260.264,53.517L259.66,51.631L259.061,53.52L257.096,53.517L258.689,54.668L258.094,56.528L259.663,55.376L261.23,56.528L260.633,54.668L262.229,53.517L260.264,53.517ZM268.375,51.351L267.774,49.468L267.174,51.354L265.209,51.351L266.802,52.501L266.205,54.361L267.774,53.21L269.344,54.361L268.746,52.501L270.34,51.351L268.375,51.351ZM274.333,45.372L273.73,43.486L273.127,45.372L271.165,45.372L272.758,46.519L272.161,48.381L273.73,47.228L275.3,48.381L274.702,46.519L276.295,45.372L274.333,45.372ZM278.453,37.175L276.488,37.175L275.886,35.289L275.285,37.178L273.32,37.175L274.913,38.326L274.318,40.186L275.886,39.035L277.455,40.186L276.86,38.326L278.453,37.175ZM272.161,32.037L273.73,30.886L275.3,32.037L274.702,30.177L276.295,29.029L274.333,29.029L273.73,27.143L273.127,29.032L271.165,29.029L272.758,30.177L272.161,32.037ZM267.798,21.187L267.197,23.073L265.232,23.07L266.825,24.221L266.229,26.081L267.801,24.93L269.367,26.081L268.77,24.221L270.366,23.07L268.398,23.07L267.798,21.187Z" style="fill:rgb(19,89,109);fill-rule:nonzero;"/>
        <path d="M314.368,25.256C314.368,25.311 314.364,25.361 314.355,25.405C314.347,25.448 314.333,25.483 314.314,25.512C314.294,25.54 314.272,25.561 314.245,25.577C314.219,25.593 314.19,25.6 314.161,25.6L310.905,25.6L310.905,28.783L313.991,28.783C314.022,28.783 314.05,28.789 314.076,28.8C314.102,28.81 314.125,28.828 314.145,28.853C314.164,28.881 314.178,28.915 314.187,28.959C314.195,29.001 314.199,29.056 314.199,29.121C314.199,29.177 314.195,29.227 314.187,29.27C314.178,29.313 314.164,29.349 314.145,29.377C314.125,29.406 314.102,29.427 314.076,29.442C314.05,29.458 314.022,29.465 313.991,29.465L310.905,29.465L310.905,33.168C310.905,33.194 310.899,33.218 310.887,33.239C310.874,33.261 310.852,33.278 310.822,33.29C310.791,33.305 310.751,33.315 310.701,33.323C310.651,33.332 310.588,33.336 310.51,33.336C310.436,33.336 310.373,33.332 310.321,33.323C310.27,33.315 310.229,33.305 310.198,33.29C310.168,33.278 310.146,33.261 310.133,33.239C310.12,33.218 310.113,33.194 310.113,33.168L310.113,25.301C310.113,25.145 310.155,25.038 310.236,24.98C310.319,24.92 310.399,24.892 310.477,24.892L314.161,24.892C314.19,24.892 314.219,24.899 314.245,24.914C314.272,24.93 314.294,24.953 314.314,24.983C314.333,25.013 314.347,25.051 314.355,25.097C314.364,25.142 314.368,25.195 314.368,25.256Z" style="fill:rgb(19,89,109);fill-rule:nonzero;"/>
        <path d="M320.699,33.168C320.699,33.194 320.693,33.218 320.683,33.239C320.672,33.261 320.651,33.278 320.621,33.29C320.591,33.305 320.552,33.315 320.504,33.323C320.456,33.332 320.398,33.336 320.328,33.336C320.251,33.336 320.188,33.332 320.14,33.323C320.093,33.315 320.056,33.305 320.029,33.29C320.004,33.278 319.985,33.261 319.975,33.239C319.964,33.218 319.959,33.194 319.959,33.168L319.959,32.336C319.621,32.713 319.29,32.986 318.968,33.156C318.646,33.323 318.323,33.409 318.003,33.409C317.617,33.409 317.293,33.343 317.028,33.214C316.765,33.083 316.552,32.907 316.389,32.684C316.227,32.461 316.109,32.203 316.038,31.907C315.966,31.613 315.931,31.258 315.931,30.842L315.931,27.289C315.931,27.263 315.937,27.24 315.947,27.217C315.958,27.196 315.979,27.177 316.009,27.162C316.039,27.147 316.079,27.136 316.129,27.13C316.179,27.123 316.24,27.12 316.314,27.12C316.393,27.12 316.456,27.123 316.506,27.13C316.556,27.136 316.595,27.147 316.622,27.162C316.651,27.177 316.672,27.196 316.685,27.217C316.697,27.24 316.703,27.263 316.703,27.289L316.703,30.77C316.703,31.135 316.732,31.431 316.788,31.661C316.845,31.89 316.929,32.086 317.041,32.248C317.154,32.41 317.298,32.537 317.474,32.625C317.649,32.715 317.854,32.759 318.087,32.759C318.387,32.759 318.684,32.652 318.981,32.44C319.277,32.228 319.593,31.917 319.926,31.504L319.926,27.289C319.926,27.263 319.931,27.24 319.942,27.217C319.953,27.196 319.974,27.177 320.004,27.162C320.034,27.147 320.074,27.136 320.124,27.13C320.174,27.123 320.237,27.12 320.315,27.12C320.39,27.12 320.451,27.123 320.5,27.13C320.55,27.136 320.589,27.147 320.618,27.162C320.646,27.177 320.666,27.196 320.68,27.217C320.692,27.24 320.699,27.263 320.699,27.289L320.699,33.168Z" style="fill:rgb(19,89,109);fill-rule:nonzero;"/>
        <path d="M327.504,33.168C327.504,33.194 327.498,33.218 327.484,33.239C327.472,33.261 327.451,33.278 327.423,33.29C327.395,33.305 327.355,33.315 327.306,33.323C327.256,33.332 327.194,33.336 327.121,33.336C327.043,33.336 326.979,33.332 326.929,33.323C326.879,33.315 326.84,33.305 326.813,33.29C326.784,33.278 326.764,33.261 326.751,33.239C326.737,33.218 326.73,33.194 326.73,33.168L326.73,29.68C326.73,29.316 326.703,29.02 326.647,28.792C326.59,28.565 326.506,28.37 326.393,28.208C326.28,28.046 326.137,27.919 325.961,27.831C325.785,27.743 325.581,27.698 325.347,27.698C325.048,27.698 324.75,27.804 324.451,28.016C324.151,28.228 323.838,28.541 323.509,28.952L323.509,33.168C323.509,33.194 323.503,33.218 323.489,33.239C323.477,33.261 323.455,33.278 323.428,33.29C323.399,33.305 323.36,33.315 323.311,33.323C323.261,33.332 323.196,33.336 323.119,33.336C323.045,33.336 322.983,33.332 322.934,33.323C322.884,33.315 322.844,33.305 322.814,33.29C322.783,33.278 322.763,33.261 322.752,33.239C322.741,33.218 322.736,33.194 322.736,33.168L322.736,27.289C322.736,27.263 322.741,27.24 322.752,27.217C322.763,27.196 322.783,27.177 322.814,27.162C322.844,27.147 322.882,27.136 322.927,27.13C322.973,27.123 323.032,27.12 323.105,27.12C323.18,27.12 323.24,27.123 323.288,27.13C323.335,27.136 323.372,27.147 323.398,27.162C323.424,27.177 323.442,27.196 323.453,27.217C323.464,27.24 323.47,27.263 323.47,27.289L323.47,28.12C323.808,27.743 324.139,27.47 324.464,27.302C324.789,27.133 325.111,27.049 325.432,27.049C325.817,27.049 326.142,27.113 326.406,27.244C326.67,27.373 326.884,27.548 327.046,27.77C327.208,27.991 327.325,28.248 327.397,28.542C327.468,28.837 327.504,29.192 327.504,29.607L327.504,33.168Z" style="fill:rgb(19,89,109);fill-rule:nonzero;"/>
        <path d="M333.484,28.926C333.159,28.532 332.847,28.231 332.546,28.023C332.244,27.815 331.929,27.71 331.6,27.71C331.301,27.71 331.046,27.783 330.833,27.925C330.621,28.069 330.448,28.256 330.314,28.491C330.18,28.724 330.082,28.989 330.022,29.283C329.961,29.578 329.931,29.876 329.931,30.179C329.931,30.505 329.957,30.82 330.009,31.127C330.061,31.436 330.149,31.709 330.275,31.95C330.4,32.19 330.567,32.383 330.775,32.528C330.983,32.673 331.243,32.746 331.555,32.746C331.711,32.746 331.862,32.725 332.01,32.681C332.156,32.638 332.308,32.565 332.465,32.466C332.62,32.366 332.781,32.238 332.948,32.079C333.115,31.921 333.294,31.727 333.484,31.492L333.484,28.926ZM334.257,33.168C334.257,33.198 334.251,33.224 334.24,33.245C334.23,33.268 334.211,33.285 334.183,33.298C334.154,33.31 334.118,33.32 334.075,33.328C334.031,33.333 333.978,33.336 333.913,33.336C333.843,33.336 333.786,33.333 333.74,33.328C333.695,33.32 333.658,33.31 333.63,33.298C333.603,33.285 333.58,33.268 333.565,33.245C333.55,33.224 333.542,33.198 333.542,33.168L333.542,32.324C333.23,32.661 332.908,32.927 332.574,33.119C332.241,33.312 331.877,33.409 331.483,33.409C331.059,33.409 330.697,33.326 330.398,33.161C330.1,32.996 329.855,32.774 329.667,32.493C329.479,32.211 329.342,31.88 329.255,31.501C329.168,31.122 329.125,30.721 329.125,30.297C329.125,29.798 329.18,29.349 329.287,28.949C329.396,28.548 329.557,28.206 329.769,27.925C329.98,27.643 330.242,27.427 330.555,27.275C330.866,27.124 331.228,27.049 331.639,27.049C331.994,27.049 332.318,27.127 332.613,27.285C332.908,27.443 333.198,27.676 333.484,27.983L333.484,24.444C333.484,24.417 333.489,24.394 333.5,24.372C333.511,24.35 333.531,24.333 333.563,24.32C333.592,24.308 333.632,24.296 333.683,24.288C333.732,24.279 333.793,24.275 333.867,24.275C333.945,24.275 334.009,24.279 334.059,24.288C334.108,24.296 334.147,24.308 334.176,24.32C334.203,24.333 334.225,24.35 334.237,24.372C334.251,24.394 334.257,24.417 334.257,24.444L334.257,33.168Z" style="fill:rgb(19,89,109);fill-rule:nonzero;"/>
        <path d="M340.288,29.698C340.302,29.076 340.158,28.588 339.859,28.237C339.561,27.887 339.125,27.71 338.554,27.71C338.26,27.71 338.001,27.766 337.777,27.877C337.555,27.988 337.366,28.133 337.213,28.315C337.059,28.497 336.94,28.708 336.858,28.949C336.776,29.189 336.729,29.439 336.716,29.698L340.288,29.698ZM341.087,29.926C341.087,30.082 341.046,30.189 340.964,30.248C340.882,30.306 340.802,30.335 340.724,30.335L336.716,30.335C336.716,30.7 336.751,31.028 336.822,31.322C336.895,31.617 337.013,31.87 337.177,32.079C337.342,32.289 337.556,32.452 337.82,32.564C338.084,32.676 338.408,32.733 338.794,32.733C339.067,32.733 339.312,32.709 339.528,32.661C339.745,32.614 339.932,32.561 340.09,32.501C340.248,32.443 340.378,32.391 340.48,32.342C340.582,32.295 340.654,32.271 340.697,32.271C340.724,32.271 340.747,32.278 340.77,32.291C340.791,32.304 340.808,32.325 340.821,32.352C340.834,32.38 340.844,32.416 340.851,32.46C340.856,32.503 340.859,32.557 340.859,32.622C340.859,32.652 340.857,32.682 340.854,32.71C340.849,32.737 340.844,32.765 340.837,32.787C340.83,32.811 340.821,32.834 340.808,32.855C340.795,32.878 340.778,32.899 340.756,32.921C340.734,32.942 340.667,32.98 340.555,33.035C340.442,33.089 340.295,33.143 340.113,33.197C339.931,33.251 339.72,33.299 339.48,33.343C339.239,33.386 338.98,33.409 338.703,33.409C338.249,33.409 337.846,33.34 337.495,33.204C337.145,33.067 336.85,32.865 336.611,32.6C336.373,32.333 336.192,32.002 336.069,31.608C335.945,31.214 335.884,30.758 335.884,30.237C335.884,29.74 335.948,29.294 336.076,28.899C336.203,28.505 336.387,28.171 336.625,27.896C336.863,27.621 337.149,27.412 337.485,27.267C337.82,27.122 338.194,27.049 338.605,27.049C339.047,27.049 339.424,27.122 339.736,27.269C340.048,27.416 340.305,27.615 340.506,27.864C340.707,28.113 340.855,28.401 340.948,28.731C341.041,29.06 341.087,29.407 341.087,29.771L341.087,29.926Z" style="fill:rgb(19,89,109);fill-rule:nonzero;"/>
        <path d="M346.704,28.926C346.379,28.532 346.065,28.231 345.765,28.023C345.464,27.815 345.148,27.71 344.819,27.71C344.521,27.71 344.266,27.783 344.053,27.925C343.841,28.069 343.668,28.256 343.533,28.491C343.399,28.724 343.302,28.989 343.241,29.283C343.181,29.578 343.149,29.876 343.149,30.179C343.149,30.505 343.176,30.82 343.229,31.127C343.28,31.436 343.369,31.709 343.495,31.95C343.62,32.19 343.787,32.383 343.994,32.528C344.203,32.673 344.463,32.746 344.773,32.746C344.931,32.746 345.082,32.725 345.229,32.681C345.376,32.638 345.527,32.565 345.684,32.466C345.84,32.366 346.001,32.238 346.168,32.079C346.335,31.921 346.513,31.727 346.704,31.492L346.704,28.926ZM347.477,33.168C347.477,33.198 347.471,33.224 347.46,33.245C347.449,33.268 347.431,33.285 347.402,33.298C347.373,33.31 347.338,33.32 347.295,33.328C347.251,33.333 347.197,33.336 347.133,33.336C347.063,33.336 347.006,33.333 346.96,33.328C346.915,33.32 346.878,33.31 346.85,33.298C346.821,33.285 346.8,33.268 346.785,33.245C346.77,33.224 346.762,33.198 346.762,33.168L346.762,32.324C346.45,32.661 346.128,32.927 345.794,33.119C345.461,33.312 345.097,33.409 344.703,33.409C344.278,33.409 343.917,33.326 343.618,33.161C343.319,32.996 343.075,32.774 342.887,32.493C342.698,32.211 342.562,31.88 342.475,31.501C342.388,31.122 342.345,30.721 342.345,30.297C342.345,29.798 342.399,29.349 342.507,28.949C342.615,28.548 342.776,28.206 342.987,27.925C343.199,27.643 343.462,27.427 343.774,27.275C344.086,27.124 344.447,27.049 344.858,27.049C345.214,27.049 345.538,27.127 345.833,27.285C346.128,27.443 346.418,27.676 346.704,27.983L346.704,24.444C346.704,24.417 346.709,24.394 346.72,24.372C346.73,24.35 346.751,24.333 346.782,24.32C346.812,24.308 346.852,24.296 346.902,24.288C346.952,24.279 347.013,24.275 347.087,24.275C347.165,24.275 347.229,24.279 347.278,24.288C347.328,24.296 347.367,24.308 347.396,24.32C347.423,24.333 347.444,24.35 347.457,24.372C347.47,24.394 347.477,24.417 347.477,24.444L347.477,33.168Z" style="fill:rgb(19,89,109);fill-rule:nonzero;"/>
        <path d="M356.708,30.277C356.708,29.947 356.683,29.63 356.631,29.322C356.578,29.015 356.489,28.741 356.364,28.504C356.238,28.265 356.071,28.074 355.864,27.928C355.655,27.783 355.397,27.71 355.084,27.71C354.933,27.71 354.782,27.733 354.633,27.776C354.483,27.82 354.33,27.891 354.175,27.991C354.019,28.09 353.857,28.22 353.691,28.377C353.524,28.535 353.348,28.731 353.161,28.965L353.161,31.524C353.486,31.918 353.799,32.22 354.1,32.43C354.4,32.641 354.714,32.746 355.038,32.746C355.338,32.746 355.593,32.673 355.805,32.528C356.018,32.383 356.19,32.193 356.325,31.959C356.459,31.727 356.557,31.462 356.617,31.167C356.678,30.873 356.708,30.576 356.708,30.277ZM357.52,30.153C357.52,30.656 357.466,31.108 357.357,31.507C357.25,31.908 357.089,32.249 356.874,32.531C356.659,32.813 356.396,33.029 356.082,33.181C355.768,33.332 355.407,33.409 354.999,33.409C354.818,33.409 354.65,33.39 354.496,33.353C354.343,33.316 354.191,33.256 354.044,33.174C353.897,33.091 353.747,32.988 353.593,32.863C353.439,32.737 353.273,32.585 353.097,32.408L353.097,33.168C353.097,33.198 353.09,33.224 353.077,33.245C353.064,33.268 353.042,33.285 353.012,33.298C352.981,33.31 352.944,33.32 352.901,33.328C352.858,33.333 352.804,33.336 352.739,33.336C352.674,33.336 352.619,33.333 352.573,33.328C352.527,33.32 352.491,33.31 352.463,33.298C352.435,33.285 352.415,33.268 352.404,33.245C352.394,33.224 352.389,33.198 352.389,33.168L352.389,24.411C352.389,24.386 352.394,24.361 352.404,24.34C352.415,24.317 352.437,24.299 352.466,24.285C352.496,24.269 352.536,24.259 352.586,24.252C352.636,24.245 352.697,24.242 352.772,24.242C352.85,24.242 352.913,24.245 352.963,24.252C353.013,24.259 353.052,24.269 353.08,24.285C353.108,24.299 353.129,24.317 353.143,24.34C353.155,24.361 353.161,24.386 353.161,24.411L353.161,28.081C353.348,27.887 353.525,27.723 353.694,27.591C353.863,27.458 354.027,27.352 354.188,27.272C354.348,27.193 354.507,27.134 354.665,27.1C354.823,27.066 354.986,27.049 355.156,27.049C355.58,27.049 355.943,27.13 356.244,27.295C356.545,27.46 356.789,27.684 356.978,27.965C357.166,28.247 357.304,28.575 357.391,28.952C357.477,29.329 357.52,29.73 357.52,30.153Z" style="fill:rgb(19,89,109);fill-rule:nonzero;"/>
        <path d="M361.389,33.298L360.57,35.5C360.548,35.547 360.503,35.587 360.434,35.62C360.364,35.653 360.254,35.668 360.103,35.668C360.024,35.668 359.96,35.664 359.907,35.656C359.855,35.647 359.815,35.631 359.787,35.607C359.759,35.583 359.743,35.553 359.738,35.516C359.734,35.479 359.743,35.435 359.765,35.382L360.596,33.298C360.562,33.285 360.531,33.264 360.505,33.232C360.48,33.203 360.462,33.173 360.453,33.141L358.315,27.406C358.294,27.345 358.283,27.296 358.283,27.26C358.283,27.223 358.295,27.194 358.319,27.171C358.343,27.15 358.382,27.136 358.436,27.13C358.49,27.123 358.563,27.12 358.653,27.12C358.749,27.12 358.825,27.123 358.881,27.13C358.938,27.136 358.981,27.146 359.014,27.159C359.047,27.171 359.07,27.19 359.086,27.211C359.101,27.232 359.115,27.258 359.128,27.289L360.967,32.42L360.992,32.42L362.798,27.289C362.82,27.228 362.85,27.188 362.886,27.168C362.923,27.149 362.972,27.136 363.032,27.13C363.093,27.123 363.166,27.12 363.253,27.12C363.335,27.12 363.403,27.124 363.458,27.133C363.512,27.142 363.552,27.157 363.578,27.179C363.604,27.2 363.616,27.23 363.616,27.267C363.616,27.302 363.605,27.349 363.584,27.406L361.389,33.298Z" style="fill:rgb(19,89,109);fill-rule:nonzero;"/>
        <path d="M370.542,32.817C370.542,32.908 370.534,32.982 370.52,33.038C370.504,33.094 370.48,33.139 370.448,33.171C370.415,33.204 370.368,33.234 370.305,33.262C370.242,33.29 370.169,33.313 370.088,33.333C370.005,33.353 369.918,33.368 369.827,33.379C369.736,33.39 369.647,33.396 369.562,33.396C369.271,33.396 369.023,33.356 368.82,33.278C368.617,33.2 368.45,33.083 368.32,32.924C368.19,32.766 368.096,32.565 368.038,32.324C367.98,32.081 367.95,31.794 367.95,31.466L367.95,27.809L367.073,27.809C367.013,27.809 366.965,27.782 366.93,27.727C366.896,27.673 366.878,27.592 366.878,27.484C366.878,27.427 366.882,27.379 366.892,27.338C366.9,27.296 366.913,27.263 366.93,27.234C366.947,27.206 366.969,27.184 366.992,27.171C367.016,27.159 367.043,27.153 367.073,27.153L367.95,27.153L367.95,25.709C367.95,25.684 367.955,25.661 367.967,25.639C367.978,25.617 367.998,25.599 368.027,25.583C368.059,25.569 368.098,25.558 368.147,25.552C368.197,25.544 368.26,25.541 368.333,25.541C368.411,25.541 368.475,25.544 368.524,25.552C368.574,25.558 368.613,25.569 368.642,25.583C368.67,25.599 368.69,25.617 368.704,25.639C368.717,25.661 368.723,25.684 368.723,25.709L368.723,27.153L370.347,27.153C370.378,27.153 370.404,27.159 370.428,27.171C370.452,27.184 370.473,27.206 370.49,27.234C370.507,27.263 370.521,27.296 370.529,27.338C370.538,27.379 370.542,27.427 370.542,27.484C370.542,27.592 370.523,27.673 370.486,27.727C370.45,27.782 370.403,27.809 370.347,27.809L368.723,27.809L368.723,31.362C368.723,31.808 368.787,32.147 368.914,32.382C369.042,32.615 369.275,32.733 369.613,32.733C369.717,32.733 369.811,32.722 369.896,32.701C369.98,32.679 370.055,32.655 370.119,32.628C370.185,32.602 370.24,32.58 370.285,32.557C370.331,32.536 370.37,32.524 370.405,32.524C370.428,32.524 370.446,32.528 370.464,32.539C370.481,32.547 370.496,32.562 370.507,32.587C370.517,32.611 370.525,32.641 370.532,32.678C370.539,32.715 370.542,32.76 370.542,32.817Z" style="fill:rgb(19,89,109);fill-rule:nonzero;"/>
        <path d="M376.717,33.168C376.717,33.194 376.71,33.218 376.696,33.239C376.684,33.261 376.663,33.278 376.635,33.29C376.607,33.305 376.568,33.315 376.519,33.323C376.469,33.332 376.406,33.336 376.333,33.336C376.255,33.336 376.191,33.332 376.142,33.323C376.092,33.315 376.053,33.305 376.024,33.29C375.996,33.278 375.976,33.261 375.963,33.239C375.95,33.218 375.943,33.194 375.943,33.168L375.943,29.68C375.943,29.316 375.915,29.02 375.859,28.792C375.802,28.565 375.719,28.37 375.605,28.208C375.493,28.046 375.35,27.919 375.174,27.831C374.998,27.743 374.793,27.698 374.56,27.698C374.261,27.698 373.962,27.804 373.663,28.016C373.364,28.228 373.051,28.541 372.722,28.952L372.722,33.168C372.722,33.194 372.715,33.218 372.702,33.239C372.689,33.261 372.668,33.278 372.641,33.29C372.611,33.305 372.572,33.315 372.522,33.323C372.473,33.332 372.409,33.336 372.332,33.336C372.258,33.336 372.196,33.332 372.147,33.323C372.097,33.315 372.057,33.305 372.026,33.29C371.996,33.278 371.976,33.261 371.965,33.239C371.953,33.218 371.948,33.194 371.948,33.168L371.948,24.411C371.948,24.386 371.953,24.361 371.965,24.34C371.976,24.317 371.996,24.299 372.026,24.285C372.057,24.269 372.097,24.259 372.147,24.252C372.196,24.245 372.258,24.242 372.332,24.242C372.409,24.242 372.473,24.245 372.522,24.252C372.572,24.259 372.611,24.269 372.641,24.285C372.668,24.299 372.689,24.317 372.702,24.34C372.715,24.361 372.722,24.386 372.722,24.411L372.722,28.081C373.042,27.726 373.362,27.466 373.683,27.298C374.003,27.132 374.323,27.049 374.644,27.049C375.029,27.049 375.355,27.113 375.619,27.244C375.883,27.373 376.096,27.548 376.259,27.77C376.421,27.991 376.537,28.248 376.609,28.542C376.681,28.837 376.717,29.192 376.717,29.607L376.717,33.168Z" style="fill:rgb(19,89,109);fill-rule:nonzero;"/>
        <path d="M382.722,29.698C382.735,29.076 382.593,28.588 382.293,28.237C381.995,27.887 381.56,27.71 380.988,27.71C380.693,27.71 380.435,27.766 380.211,27.877C379.989,27.988 379.801,28.133 379.647,28.315C379.492,28.497 379.374,28.708 379.293,28.949C379.21,29.189 379.162,29.439 379.149,29.698L382.722,29.698ZM383.522,29.926C383.522,30.082 383.48,30.189 383.398,30.248C383.315,30.306 383.235,30.335 383.158,30.335L379.149,30.335C379.149,30.7 379.186,31.028 379.257,31.322C379.328,31.617 379.446,31.87 379.61,32.079C379.775,32.289 379.989,32.452 380.254,32.564C380.518,32.676 380.843,32.733 381.229,32.733C381.501,32.733 381.746,32.709 381.963,32.661C382.179,32.614 382.366,32.561 382.524,32.501C382.683,32.443 382.813,32.391 382.914,32.342C383.016,32.295 383.088,32.271 383.132,32.271C383.158,32.271 383.182,32.278 383.203,32.291C383.225,32.304 383.242,32.325 383.255,32.352C383.269,32.38 383.278,32.416 383.284,32.46C383.291,32.503 383.294,32.557 383.294,32.622C383.294,32.652 383.292,32.682 383.287,32.71C383.283,32.737 383.278,32.765 383.271,32.787C383.265,32.811 383.255,32.834 383.242,32.855C383.229,32.878 383.212,32.899 383.189,32.921C383.169,32.942 383.101,32.98 382.988,33.035C382.876,33.089 382.73,33.143 382.547,33.197C382.365,33.251 382.154,33.299 381.914,33.343C381.673,33.386 381.414,33.409 381.137,33.409C380.683,33.409 380.279,33.34 379.929,33.204C379.578,33.067 379.283,32.865 379.045,32.6C378.807,32.333 378.626,32.002 378.504,31.608C378.38,31.214 378.317,30.758 378.317,30.237C378.317,29.74 378.382,29.294 378.51,28.899C378.637,28.505 378.82,28.171 379.059,27.896C379.297,27.621 379.584,27.412 379.919,27.267C380.255,27.122 380.628,27.049 381.04,27.049C381.481,27.049 381.858,27.122 382.17,27.269C382.481,27.416 382.738,27.615 382.94,27.864C383.142,28.113 383.289,28.401 383.382,28.731C383.475,29.06 383.522,29.407 383.522,29.771L383.522,29.926Z" style="fill:rgb(19,89,109);fill-rule:nonzero;"/>
        <path d="M314.512,48.913C314.512,48.969 314.507,49.019 314.499,49.061C314.49,49.106 314.476,49.142 314.457,49.172C314.437,49.203 314.414,49.225 314.389,49.241C314.362,49.256 314.334,49.263 314.304,49.263L310.367,49.263C310.289,49.263 310.209,49.234 310.126,49.175C310.045,49.117 310.003,49.01 310.003,48.854L310.003,41.267C310.003,41.111 310.045,41.004 310.126,40.946C310.209,40.886 310.289,40.858 310.367,40.858L314.245,40.858C314.275,40.858 314.304,40.865 314.329,40.88C314.355,40.896 314.377,40.918 314.395,40.949C314.412,40.978 314.425,41.017 314.434,41.062C314.442,41.108 314.446,41.161 314.446,41.221C314.446,41.277 314.442,41.327 314.434,41.371C314.425,41.414 314.412,41.449 314.395,41.477C314.377,41.506 314.355,41.527 314.329,41.542C314.304,41.559 314.275,41.566 314.245,41.566L310.796,41.566L310.796,44.521L313.772,44.521C313.806,44.521 313.836,44.53 313.862,44.543C313.888,44.559 313.91,44.581 313.927,44.609C313.944,44.637 313.957,44.674 313.966,44.72C313.975,44.765 313.979,44.818 313.979,44.879C313.979,44.935 313.975,44.983 313.966,45.024C313.957,45.066 313.944,45.099 313.927,45.125C313.91,45.151 313.888,45.17 313.862,45.183C313.836,45.196 313.806,45.204 313.772,45.204L310.796,45.204L310.796,48.555L314.304,48.555C314.334,48.555 314.362,48.562 314.389,48.578C314.414,48.593 314.437,48.615 314.457,48.643C314.476,48.671 314.49,48.707 314.499,48.752C314.507,48.798 314.512,48.852 314.512,48.913Z" style="fill:rgb(19,89,109);fill-rule:nonzero;"/>
        <path d="M320.972,49.134C320.972,49.16 320.966,49.184 320.955,49.206C320.945,49.226 320.924,49.244 320.894,49.256C320.864,49.271 320.824,49.281 320.777,49.289C320.73,49.297 320.671,49.302 320.602,49.302C320.524,49.302 320.461,49.297 320.413,49.289C320.365,49.281 320.329,49.271 320.303,49.256C320.277,49.244 320.259,49.226 320.247,49.206C320.236,49.184 320.231,49.16 320.231,49.134L320.231,48.302C319.894,48.679 319.564,48.952 319.24,49.122C318.918,49.289 318.597,49.374 318.276,49.374C317.891,49.374 317.566,49.309 317.302,49.179C317.038,49.048 316.824,48.873 316.661,48.649C316.499,48.427 316.382,48.168 316.311,47.873C316.239,47.579 316.204,47.224 316.204,46.807L316.204,43.255C316.204,43.228 316.209,43.206 316.22,43.182C316.23,43.162 316.251,43.143 316.282,43.127C316.312,43.113 316.353,43.101 316.402,43.096C316.452,43.088 316.514,43.085 316.587,43.085C316.665,43.085 316.73,43.088 316.779,43.096C316.829,43.101 316.868,43.113 316.896,43.127C316.924,43.143 316.944,43.162 316.957,43.182C316.97,43.206 316.977,43.228 316.977,43.255L316.977,46.737C316.977,47.1 317.005,47.396 317.062,47.626C317.117,47.856 317.202,48.052 317.314,48.214C317.428,48.376 317.571,48.502 317.747,48.59C317.922,48.68 318.126,48.724 318.36,48.724C318.659,48.724 318.957,48.618 319.254,48.406C319.551,48.194 319.865,47.882 320.199,47.47L320.199,43.255C320.199,43.228 320.204,43.206 320.216,43.182C320.226,43.162 320.247,43.143 320.277,43.127C320.307,43.113 320.347,43.101 320.397,43.096C320.447,43.088 320.511,43.085 320.589,43.085C320.662,43.085 320.724,43.088 320.773,43.096C320.823,43.101 320.862,43.113 320.891,43.127C320.919,43.143 320.939,43.162 320.953,43.182C320.966,43.206 320.972,43.228 320.972,43.255L320.972,49.134Z" style="fill:rgb(19,89,109);fill-rule:nonzero;"/>
        <path d="M326.27,43.554C326.27,43.618 326.268,43.673 326.264,43.718C326.259,43.764 326.251,43.801 326.24,43.83C326.23,43.858 326.217,43.879 326.201,43.894C326.187,43.91 326.166,43.916 326.14,43.916C326.102,43.916 326.056,43.908 326.004,43.888C325.951,43.868 325.891,43.848 325.822,43.827C325.752,43.804 325.677,43.784 325.595,43.764C325.512,43.745 325.421,43.736 325.321,43.736C325.205,43.736 325.09,43.76 324.978,43.81C324.865,43.86 324.747,43.939 324.623,44.05C324.499,44.161 324.37,44.307 324.233,44.488C324.097,44.67 323.946,44.893 323.782,45.158L323.782,49.134C323.782,49.16 323.775,49.184 323.763,49.206C323.749,49.226 323.729,49.244 323.701,49.256C323.673,49.271 323.634,49.281 323.584,49.289C323.534,49.297 323.47,49.302 323.393,49.302C323.318,49.302 323.257,49.297 323.207,49.289C323.157,49.281 323.117,49.271 323.087,49.256C323.057,49.244 323.036,49.226 323.025,49.206C323.014,49.184 323.009,49.16 323.009,49.134L323.009,43.255C323.009,43.228 323.014,43.206 323.025,43.182C323.036,43.162 323.057,43.143 323.087,43.127C323.117,43.113 323.154,43.101 323.2,43.096C323.246,43.088 323.306,43.085 323.379,43.085C323.453,43.085 323.513,43.088 323.561,43.096C323.608,43.101 323.646,43.113 323.672,43.127C323.697,43.143 323.716,43.162 323.727,43.182C323.737,43.206 323.743,43.228 323.743,43.255L323.743,44.184C323.912,43.936 324.067,43.737 324.211,43.586C324.354,43.434 324.49,43.316 324.62,43.232C324.75,43.147 324.876,43.09 325,43.059C325.124,43.029 325.25,43.015 325.38,43.015C325.437,43.015 325.501,43.018 325.575,43.023C325.648,43.031 325.728,43.041 325.812,43.059C325.897,43.078 325.972,43.097 326.039,43.122C326.106,43.146 326.153,43.166 326.179,43.187C326.205,43.206 326.223,43.222 326.23,43.238C326.239,43.253 326.247,43.274 326.254,43.296C326.26,43.321 326.264,43.353 326.267,43.394C326.27,43.436 326.27,43.489 326.27,43.554Z" style="fill:rgb(19,89,109);fill-rule:nonzero;"/>
        <path d="M331.587,46.203C331.587,45.871 331.555,45.552 331.489,45.248C331.424,44.946 331.316,44.678 331.165,44.447C331.013,44.215 330.81,44.03 330.554,43.894C330.299,43.758 329.98,43.69 329.599,43.69C329.248,43.69 328.944,43.752 328.689,43.878C328.434,44.003 328.226,44.178 328.063,44.401C327.9,44.624 327.78,44.887 327.702,45.191C327.624,45.494 327.585,45.821 327.585,46.171C327.585,46.509 327.617,46.831 327.683,47.136C327.747,47.442 327.855,47.709 328.008,47.938C328.159,48.168 328.362,48.349 328.618,48.484C328.874,48.618 329.191,48.685 329.572,48.685C329.924,48.685 330.227,48.622 330.482,48.497C330.738,48.372 330.947,48.199 331.109,47.978C331.272,47.756 331.393,47.495 331.47,47.192C331.548,46.888 331.587,46.559 331.587,46.203ZM332.405,46.132C332.405,46.6 332.345,47.031 332.224,47.424C332.102,47.819 331.921,48.162 331.681,48.452C331.44,48.742 331.141,48.967 330.781,49.129C330.422,49.293 330.004,49.374 329.527,49.374C329.068,49.374 328.667,49.302 328.322,49.157C327.979,49.011 327.689,48.802 327.459,48.533C327.227,48.262 327.054,47.934 326.939,47.548C326.824,47.163 326.767,46.728 326.767,46.243C326.767,45.775 326.826,45.344 326.945,44.951C327.064,44.556 327.244,44.215 327.484,43.926C327.725,43.639 328.024,43.414 328.385,43.255C328.743,43.094 329.164,43.015 329.645,43.015C330.104,43.015 330.505,43.085 330.85,43.228C331.193,43.372 331.48,43.578 331.71,43.849C331.939,44.12 332.113,44.449 332.23,44.833C332.347,45.219 332.405,45.651 332.405,46.132Z" style="fill:rgb(19,89,109);fill-rule:nonzero;"/>
        <path d="M338.327,46.23C338.327,45.9 338.302,45.583 338.249,45.277C338.197,44.973 338.109,44.702 337.986,44.462C337.862,44.225 337.697,44.035 337.492,43.891C337.287,43.748 337.028,43.676 336.717,43.676C336.56,43.676 336.408,43.699 336.258,43.742C336.108,43.786 335.956,43.857 335.8,43.956C335.645,44.056 335.482,44.185 335.313,44.343C335.145,44.5 334.967,44.697 334.78,44.93L334.78,47.49C335.105,47.884 335.416,48.185 335.713,48.396C336.009,48.606 336.319,48.711 336.645,48.711C336.943,48.711 337.2,48.639 337.415,48.494C337.629,48.349 337.803,48.159 337.938,47.922C338.071,47.686 338.17,47.419 338.233,47.123C338.296,46.826 338.327,46.529 338.327,46.23ZM339.139,46.106C339.139,46.608 339.084,47.061 338.974,47.464C338.863,47.867 338.701,48.208 338.486,48.49C338.272,48.771 338.006,48.989 337.69,49.142C337.374,49.297 337.013,49.374 336.605,49.374C336.433,49.374 336.27,49.356 336.118,49.319C335.967,49.282 335.818,49.225 335.673,49.147C335.528,49.069 335.383,48.97 335.238,48.854C335.093,48.737 334.94,48.596 334.78,48.431L334.78,51.466C334.78,51.492 334.773,51.516 334.761,51.538C334.747,51.559 334.727,51.577 334.699,51.592C334.671,51.607 334.632,51.619 334.582,51.624C334.532,51.631 334.468,51.634 334.391,51.634C334.316,51.634 334.255,51.631 334.205,51.624C334.155,51.619 334.115,51.607 334.085,51.592C334.055,51.577 334.034,51.559 334.023,51.538C334.013,51.516 334.008,51.492 334.008,51.466L334.008,43.255C334.008,43.224 334.013,43.199 334.023,43.177C334.034,43.156 334.054,43.137 334.082,43.124C334.109,43.112 334.147,43.101 334.192,43.096C334.237,43.088 334.293,43.085 334.357,43.085C334.423,43.085 334.478,43.088 334.52,43.096C334.564,43.101 334.601,43.112 334.631,43.124C334.661,43.137 334.683,43.156 334.695,43.177C334.708,43.199 334.716,43.224 334.716,43.255L334.716,44.106C334.897,43.919 335.07,43.758 335.234,43.622C335.399,43.486 335.564,43.372 335.729,43.281C335.893,43.19 336.063,43.123 336.235,43.079C336.408,43.037 336.593,43.015 336.787,43.015C337.212,43.015 337.573,43.096 337.873,43.258C338.171,43.42 338.415,43.642 338.604,43.923C338.792,44.206 338.928,44.534 339.013,44.908C339.097,45.283 339.139,45.681 339.139,46.106Z" style="fill:rgb(19,89,109);fill-rule:nonzero;"/>
        <path d="M344.781,45.664C344.795,45.041 344.651,44.553 344.353,44.203C344.054,43.852 343.618,43.676 343.047,43.676C342.752,43.676 342.493,43.732 342.271,43.842C342.048,43.954 341.859,44.098 341.706,44.281C341.552,44.462 341.434,44.674 341.352,44.914C341.27,45.155 341.222,45.406 341.209,45.664L344.781,45.664ZM345.58,45.892C345.58,46.048 345.539,46.155 345.457,46.213C345.375,46.271 345.294,46.301 345.217,46.301L341.209,46.301C341.209,46.665 341.244,46.994 341.315,47.289C341.388,47.582 341.505,47.835 341.67,48.044C341.834,48.255 342.049,48.417 342.314,48.53C342.577,48.642 342.901,48.699 343.287,48.699C343.561,48.699 343.805,48.674 344.022,48.626C344.237,48.58 344.425,48.527 344.583,48.467C344.741,48.409 344.871,48.356 344.973,48.308C345.074,48.261 345.147,48.237 345.19,48.237C345.217,48.237 345.24,48.244 345.263,48.256C345.284,48.269 345.301,48.29 345.314,48.318C345.327,48.346 345.337,48.381 345.344,48.426C345.35,48.468 345.353,48.523 345.353,48.588C345.353,48.618 345.351,48.648 345.347,48.676C345.342,48.703 345.337,48.73 345.33,48.752C345.323,48.777 345.314,48.8 345.301,48.821C345.288,48.844 345.271,48.865 345.249,48.886C345.228,48.908 345.16,48.946 345.048,49C344.936,49.054 344.788,49.109 344.606,49.163C344.424,49.216 344.213,49.265 343.973,49.309C343.732,49.352 343.474,49.374 343.196,49.374C342.742,49.374 342.339,49.306 341.988,49.169C341.638,49.033 341.343,48.831 341.105,48.565C340.866,48.299 340.686,47.968 340.563,47.574C340.439,47.18 340.377,46.723 340.377,46.203C340.377,45.706 340.44,45.26 340.568,44.865C340.696,44.471 340.88,44.137 341.118,43.863C341.355,43.586 341.643,43.377 341.979,43.232C342.314,43.087 342.687,43.015 343.099,43.015C343.54,43.015 343.917,43.087 344.23,43.235C344.541,43.381 344.798,43.581 344.999,43.83C345.2,44.079 345.348,44.368 345.44,44.697C345.534,45.026 345.58,45.373 345.58,45.737L345.58,45.892Z" style="fill:rgb(19,89,109);fill-rule:nonzero;"/>
        <path d="M350.572,46.36L349.5,46.36C349.189,46.36 348.916,46.388 348.682,46.444C348.448,46.5 348.253,46.582 348.098,46.691C347.941,46.799 347.825,46.93 347.75,47.081C347.674,47.233 347.636,47.406 347.636,47.601C347.636,47.938 347.743,48.208 347.958,48.409C348.172,48.611 348.475,48.711 348.864,48.711C349.171,48.711 349.458,48.632 349.725,48.474C349.991,48.316 350.273,48.073 350.572,47.744L350.572,46.36ZM351.346,49.134C351.346,49.176 351.331,49.21 351.304,49.234C351.275,49.257 351.238,49.275 351.192,49.287C351.147,49.297 351.086,49.302 351.008,49.302C350.934,49.302 350.871,49.297 350.819,49.287C350.768,49.275 350.728,49.257 350.699,49.234C350.671,49.21 350.657,49.176 350.657,49.134L350.657,48.477C350.393,48.763 350.101,48.985 349.783,49.14C349.465,49.296 349.135,49.374 348.793,49.374C348.484,49.374 348.209,49.333 347.964,49.253C347.72,49.173 347.513,49.059 347.344,48.91C347.175,48.76 347.045,48.58 346.954,48.368C346.863,48.154 346.817,47.916 346.817,47.652C346.817,47.328 346.885,47.045 347.019,46.804C347.153,46.564 347.344,46.364 347.59,46.203C347.838,46.043 348.134,45.923 348.48,45.843C348.827,45.764 349.212,45.722 349.637,45.722L350.572,45.722L350.572,45.216C350.572,44.966 350.546,44.743 350.494,44.55C350.442,44.357 350.357,44.197 350.241,44.067C350.124,43.936 349.973,43.839 349.786,43.774C349.6,43.708 349.373,43.676 349.105,43.676C348.845,43.676 348.61,43.708 348.402,43.771C348.194,43.833 348.013,43.904 347.857,43.982C347.701,44.06 347.572,44.131 347.47,44.194C347.368,44.256 347.296,44.288 347.253,44.288C347.227,44.288 347.203,44.284 347.182,44.275C347.159,44.266 347.141,44.249 347.126,44.225C347.111,44.203 347.101,44.171 347.094,44.135C347.087,44.098 347.084,44.053 347.084,44.001C347.084,43.911 347.091,43.838 347.104,43.784C347.116,43.73 347.15,43.676 347.204,43.622C347.258,43.568 347.355,43.504 347.493,43.43C347.632,43.356 347.791,43.288 347.971,43.225C348.15,43.163 348.344,43.112 348.553,43.073C348.76,43.034 348.968,43.015 349.176,43.015C349.578,43.015 349.918,43.063 350.195,43.16C350.473,43.258 350.697,43.397 350.868,43.58C351.039,43.761 351.161,43.985 351.235,44.252C351.309,44.518 351.346,44.82 351.346,45.158L351.346,49.134Z" style="fill:rgb(19,89,109);fill-rule:nonzero;"/>
        <path d="M358.124,49.134C358.124,49.16 358.118,49.184 358.105,49.206C358.092,49.226 358.071,49.244 358.043,49.256C358.015,49.271 357.976,49.281 357.926,49.289C357.876,49.297 357.814,49.302 357.741,49.302C357.663,49.302 357.599,49.297 357.549,49.289C357.499,49.281 357.46,49.271 357.433,49.256C357.404,49.244 357.384,49.226 357.371,49.206C357.357,49.184 357.351,49.16 357.351,49.134L357.351,45.646C357.351,45.282 357.323,44.986 357.267,44.758C357.21,44.531 357.126,44.335 357.013,44.173C356.9,44.011 356.757,43.885 356.581,43.797C356.406,43.708 356.201,43.664 355.967,43.664C355.668,43.664 355.37,43.77 355.071,43.982C354.772,44.194 354.458,44.506 354.129,44.917L354.129,49.134C354.129,49.16 354.123,49.184 354.109,49.206C354.097,49.226 354.076,49.244 354.048,49.256C354.02,49.271 353.98,49.281 353.931,49.289C353.881,49.297 353.816,49.302 353.739,49.302C353.665,49.302 353.604,49.297 353.554,49.289C353.504,49.281 353.464,49.271 353.434,49.256C353.403,49.244 353.383,49.226 353.372,49.206C353.361,49.184 353.356,49.16 353.356,49.134L353.356,43.255C353.356,43.228 353.361,43.206 353.372,43.182C353.383,43.162 353.403,43.143 353.434,43.127C353.464,43.113 353.502,43.101 353.548,43.096C353.593,43.088 353.652,43.085 353.726,43.085C353.8,43.085 353.86,43.088 353.908,43.096C353.955,43.101 353.992,43.113 354.019,43.127C354.044,43.143 354.063,43.162 354.073,43.182C354.084,43.206 354.09,43.228 354.09,43.255L354.09,44.085C354.428,43.708 354.759,43.436 355.084,43.268C355.409,43.099 355.731,43.015 356.052,43.015C356.438,43.015 356.762,43.079 357.026,43.209C357.29,43.339 357.504,43.514 357.666,43.736C357.828,43.956 357.945,44.213 358.017,44.508C358.088,44.802 358.124,45.158 358.124,45.573L358.124,49.134Z" style="fill:rgb(19,89,109);fill-rule:nonzero;"/>
        <path d="M369.175,46.171C369.175,46.682 369.103,47.137 368.957,47.536C368.812,47.934 368.605,48.269 368.336,48.542C368.068,48.816 367.743,49.022 367.362,49.163C366.981,49.303 366.555,49.374 366.082,49.374C365.653,49.374 365.258,49.306 364.897,49.172C364.535,49.039 364.224,48.839 363.961,48.578C363.699,48.316 363.495,47.991 363.351,47.604C363.205,47.215 363.133,46.769 363.133,46.263L363.133,40.987C363.133,40.961 363.14,40.937 363.152,40.915C363.166,40.894 363.189,40.877 363.221,40.863C363.253,40.85 363.294,40.84 363.341,40.831C363.389,40.824 363.451,40.819 363.529,40.819C363.603,40.819 363.665,40.824 363.718,40.831C363.77,40.84 363.811,40.85 363.841,40.863C363.872,40.877 363.893,40.894 363.906,40.915C363.919,40.937 363.926,40.961 363.926,40.987L363.926,46.132C363.926,46.553 363.977,46.919 364.078,47.237C364.181,47.552 364.327,47.816 364.521,48.026C364.713,48.237 364.947,48.394 365.222,48.499C365.496,48.606 365.808,48.659 366.154,48.659C366.505,48.659 366.817,48.608 367.093,48.507C367.368,48.405 367.601,48.249 367.791,48.041C367.981,47.834 368.127,47.576 368.23,47.265C368.331,46.956 368.382,46.594 368.382,46.177L368.382,40.987C368.382,40.961 368.389,40.937 368.401,40.915C368.414,40.894 368.436,40.877 368.467,40.863C368.497,40.85 368.538,40.84 368.59,40.831C368.642,40.824 368.705,40.819 368.778,40.819C368.852,40.819 368.915,40.824 368.967,40.831C369.019,40.84 369.06,40.85 369.09,40.863C369.12,40.877 369.142,40.894 369.155,40.915C369.168,40.937 369.175,40.961 369.175,40.987L369.175,46.171Z" style="fill:rgb(19,89,109);fill-rule:nonzero;"/>
        <path d="M376.103,49.134C376.103,49.16 376.097,49.184 376.083,49.206C376.07,49.226 376.05,49.244 376.022,49.256C375.993,49.271 375.954,49.281 375.904,49.289C375.855,49.297 375.793,49.302 375.72,49.302C375.642,49.302 375.577,49.297 375.527,49.289C375.478,49.281 375.439,49.271 375.411,49.256C375.383,49.244 375.362,49.226 375.35,49.206C375.337,49.184 375.329,49.16 375.329,49.134L375.329,45.646C375.329,45.282 375.302,44.986 375.245,44.758C375.189,44.531 375.105,44.335 374.991,44.173C374.879,44.011 374.735,43.885 374.56,43.797C374.385,43.708 374.18,43.664 373.945,43.664C373.647,43.664 373.349,43.77 373.05,43.982C372.75,44.194 372.437,44.506 372.107,44.917L372.107,49.134C372.107,49.16 372.102,49.184 372.089,49.206C372.075,49.226 372.055,49.244 372.026,49.256C371.998,49.271 371.959,49.281 371.909,49.289C371.859,49.297 371.796,49.302 371.718,49.302C371.645,49.302 371.582,49.297 371.532,49.289C371.482,49.281 371.442,49.271 371.412,49.256C371.383,49.244 371.361,49.226 371.352,49.206C371.34,49.184 371.335,49.16 371.335,49.134L371.335,43.255C371.335,43.228 371.34,43.206 371.352,43.182C371.361,43.162 371.383,43.143 371.412,43.127C371.442,43.113 371.48,43.101 371.526,43.096C371.571,43.088 371.631,43.085 371.704,43.085C371.778,43.085 371.839,43.088 371.887,43.096C371.935,43.101 371.971,43.113 371.997,43.127C372.023,43.143 372.042,43.162 372.052,43.182C372.063,43.206 372.068,43.228 372.068,43.255L372.068,44.085C372.406,43.708 372.737,43.436 373.063,43.268C373.388,43.099 373.71,43.015 374.03,43.015C374.416,43.015 374.74,43.079 375.005,43.209C375.269,43.339 375.482,43.514 375.646,43.736C375.808,43.956 375.924,44.213 375.996,44.508C376.066,44.802 376.103,45.158 376.103,45.573L376.103,49.134Z" style="fill:rgb(19,89,109);fill-rule:nonzero;"/>
        <path d="M378.887,49.134C378.887,49.16 378.88,49.184 378.867,49.206C378.854,49.226 378.833,49.244 378.806,49.256C378.777,49.271 378.738,49.281 378.689,49.289C378.639,49.297 378.574,49.302 378.497,49.302C378.423,49.302 378.361,49.297 378.312,49.289C378.262,49.281 378.222,49.271 378.191,49.256C378.161,49.244 378.141,49.226 378.13,49.206C378.119,49.184 378.114,49.16 378.114,49.134L378.114,43.255C378.114,43.228 378.119,43.206 378.13,43.182C378.141,43.162 378.161,43.143 378.191,43.127C378.222,43.113 378.262,43.101 378.312,43.096C378.361,43.088 378.423,43.085 378.497,43.085C378.574,43.085 378.639,43.088 378.689,43.096C378.738,43.101 378.777,43.113 378.806,43.127C378.833,43.143 378.854,43.162 378.867,43.182C378.88,43.206 378.887,43.228 378.887,43.255L378.887,49.134ZM379.003,41.273C379.003,41.48 378.967,41.622 378.894,41.695C378.819,41.769 378.686,41.806 378.49,41.806C378.3,41.806 378.169,41.77 378.098,41.698C378.025,41.626 377.99,41.488 377.99,41.28C377.99,41.072 378.027,40.931 378.101,40.858C378.174,40.784 378.309,40.747 378.504,40.747C378.694,40.747 378.825,40.782 378.897,40.855C378.968,40.925 379.003,41.065 379.003,41.273Z" style="fill:rgb(19,89,109);fill-rule:nonzero;"/>
        <path d="M385.302,46.203C385.302,45.871 385.269,45.552 385.204,45.248C385.139,44.946 385.031,44.678 384.879,44.447C384.728,44.215 384.523,44.03 384.269,43.894C384.014,43.758 383.694,43.69 383.314,43.69C382.963,43.69 382.659,43.752 382.404,43.878C382.148,44.003 381.939,44.178 381.777,44.401C381.615,44.624 381.495,44.887 381.417,45.191C381.339,45.494 381.3,45.821 381.3,46.171C381.3,46.509 381.332,46.831 381.397,47.136C381.462,47.442 381.57,47.709 381.723,47.938C381.874,48.168 382.077,48.349 382.332,48.484C382.588,48.618 382.906,48.685 383.287,48.685C383.639,48.685 383.941,48.622 384.196,48.497C384.453,48.372 384.662,48.199 384.824,47.978C384.986,47.756 385.106,47.495 385.185,47.192C385.263,46.888 385.302,46.559 385.302,46.203ZM386.12,46.132C386.12,46.6 386.059,47.031 385.939,47.424C385.816,47.819 385.636,48.162 385.396,48.452C385.155,48.742 384.855,48.967 384.496,49.129C384.137,49.293 383.718,49.374 383.242,49.374C382.783,49.374 382.382,49.302 382.037,49.157C381.693,49.011 381.404,48.802 381.174,48.533C380.941,48.262 380.769,47.934 380.653,47.548C380.538,47.163 380.481,46.728 380.481,46.243C380.481,45.775 380.541,45.344 380.66,44.951C380.778,44.556 380.959,44.215 381.199,43.926C381.439,43.639 381.739,43.414 382.1,43.255C382.458,43.094 382.879,43.015 383.359,43.015C383.817,43.015 384.22,43.085 384.564,43.228C384.908,43.372 385.195,43.578 385.425,43.849C385.654,44.12 385.828,44.449 385.944,44.833C386.062,45.219 386.12,45.651 386.12,46.132Z" style="fill:rgb(19,89,109);fill-rule:nonzero;"/>
        <path d="M392.49,49.134C392.49,49.16 392.483,49.184 392.471,49.206C392.458,49.226 392.437,49.244 392.408,49.256C392.381,49.271 392.342,49.281 392.292,49.289C392.242,49.297 392.181,49.302 392.107,49.302C392.029,49.302 391.965,49.297 391.915,49.289C391.865,49.281 391.826,49.271 391.799,49.256C391.77,49.244 391.749,49.226 391.736,49.206C391.724,49.184 391.717,49.16 391.717,49.134L391.717,45.646C391.717,45.282 391.689,44.986 391.633,44.758C391.576,44.531 391.492,44.335 391.379,44.173C391.267,44.011 391.123,43.885 390.947,43.797C390.772,43.708 390.567,43.664 390.333,43.664C390.034,43.664 389.735,43.77 389.438,43.982C389.138,44.194 388.824,44.506 388.495,44.917L388.495,49.134C388.495,49.16 388.488,49.184 388.476,49.206C388.462,49.226 388.441,49.244 388.414,49.256C388.386,49.271 388.347,49.281 388.297,49.289C388.247,49.297 388.183,49.302 388.105,49.302C388.031,49.302 387.97,49.297 387.92,49.289C387.87,49.281 387.83,49.271 387.8,49.256C387.77,49.244 387.749,49.226 387.738,49.206C387.727,49.184 387.722,49.16 387.722,49.134L387.722,43.255C387.722,43.228 387.727,43.206 387.738,43.182C387.749,43.162 387.77,43.143 387.8,43.127C387.83,43.113 387.868,43.101 387.913,43.096C387.959,43.088 388.019,43.085 388.092,43.085C388.166,43.085 388.227,43.088 388.273,43.096C388.321,43.101 388.358,43.113 388.385,43.127C388.41,43.143 388.429,43.162 388.439,43.182C388.45,43.206 388.456,43.228 388.456,43.255L388.456,44.085C388.794,43.708 389.125,43.436 389.45,43.268C389.774,43.099 390.097,43.015 390.418,43.015C390.803,43.015 391.128,43.079 391.393,43.209C391.656,43.339 391.869,43.514 392.032,43.736C392.194,43.956 392.312,44.213 392.383,44.508C392.454,44.802 392.49,45.158 392.49,45.573L392.49,49.134Z" style="fill:rgb(19,89,109);fill-rule:nonzero;"/>
    </g>
</svg>
