<?xml version="1.0" encoding="UTF-8" standalone="no"?>
<!DOCTYPE svg PUBLIC "-//W3C//DTD SVG 1.1//EN" "http://www.w3.org/Graphics/SVG/1.1/DTD/svg11.dtd">
<svg width="100%" height="100%" viewBox="0 0 1703 567" version="1.1" xmlns="http://www.w3.org/2000/svg" xmlns:xlink="http://www.w3.org/1999/xlink" xml:space="preserve" xmlns:serif="http://www.serif.com/" style="fill-rule:evenodd;clip-rule:evenodd;stroke-linejoin:round;stroke-miterlimit:2;">
    <g>
        <path d="M705.06,344.34C705.06,366.05 691.41,381.18 664.93,381.18L632.7,381.18L632.7,424.43L615.1,424.43L615.1,307.34L664.93,307.34C691.41,307.34 705.06,322.47 705.06,344.34ZM687.14,344.34C687.14,330.69 679.41,322.8 664.61,322.8L632.7,322.8L632.7,365.72L664.61,365.72C679.41,365.72 687.14,357.99 687.14,344.34Z" style="fill:rgb(17,88,108);fill-rule:nonzero;"/>
        <path d="M719.2,309.97L735.97,309.97L735.97,327.57L719.2,327.57L719.2,309.97ZM719.36,339.57L735.81,339.57L735.81,424.43L719.36,424.43L719.36,339.57Z" style="fill:rgb(17,88,108);fill-rule:nonzero;"/>
        <path d="M750.28,382C750.28,354.86 767.55,337.6 792.38,337.6C817.05,337.6 834.32,354.87 834.32,382C834.32,409.13 817.05,426.4 792.38,426.4C767.55,426.4 750.28,409.14 750.28,382ZM817.22,382C817.22,362.59 807.35,351.74 792.39,351.74C777.26,351.74 767.39,362.59 767.39,382C767.39,401.41 777.26,412.26 792.39,412.26C807.35,412.26 817.22,401.41 817.22,382Z" style="fill:rgb(17,88,108);fill-rule:nonzero;"/>
        <path d="M920.98,367.53L920.98,424.43L904.53,424.43L904.53,369.83C904.53,357.66 898.12,352.07 886.6,352.07C876.57,352.07 865.22,359.47 865.22,376.57L865.22,424.43L848.77,424.43L848.77,339.57L864.56,339.57L864.56,352.23C870.15,343.84 879.2,337.59 891.2,337.59C909.64,337.6 920.98,348.12 920.98,367.53Z" style="fill:rgb(17,88,108);fill-rule:nonzero;"/>
        <path d="M1016.2,387.43L952.23,387.43C953.71,404.7 962.92,412.59 976.57,412.59C987.59,412.59 994.66,407 997.62,398.45L1014.23,398.45C1009.95,414.9 996.63,426.41 976.24,426.41C952.23,426.41 935.62,409.31 935.62,382.01C935.62,355.37 951.74,337.61 975.91,337.61C1001.57,337.61 1016.2,357.18 1016.2,382.67L1016.2,387.43ZM952.39,374.44L999.26,374.44C997.78,361.28 989.72,351.42 975.91,351.42C963.57,351.41 954.53,358.81 952.39,374.44Z" style="fill:rgb(17,88,108);fill-rule:nonzero;"/>
        <path d="M1107.47,387.43L1043.5,387.43C1044.98,404.7 1054.19,412.59 1067.84,412.59C1078.86,412.59 1085.93,407 1088.89,398.45L1105.5,398.45C1101.22,414.9 1087.9,426.41 1067.51,426.41C1043.5,426.41 1026.89,409.31 1026.89,382.01C1026.89,355.37 1043.01,337.61 1067.18,337.61C1092.84,337.61 1107.47,357.18 1107.47,382.67L1107.47,387.43ZM1043.66,374.44L1090.53,374.44C1089.05,361.28 1080.99,351.42 1067.18,351.42C1054.84,351.41 1045.8,358.81 1043.66,374.44Z" style="fill:rgb(17,88,108);fill-rule:nonzero;"/>
        <path d="M1169.13,338.42L1169.13,354.04L1165.02,354.04C1148.74,354.04 1138.54,362.1 1138.54,378.38L1138.54,424.43L1122.09,424.43L1122.09,339.57L1137.88,339.57L1137.88,354.7C1142.48,345.49 1150.87,338.25 1164.36,338.25C1165.85,338.25 1167.32,338.25 1169.13,338.42Z" style="fill:rgb(17,88,108);fill-rule:nonzero;"/>
        <path d="M1234.09,323.12L1234.09,356.18L1290.17,356.18L1290.17,371.64L1234.09,371.64L1234.09,424.43L1216.49,424.43L1216.49,307.34L1296.25,307.34L1296.25,323.13L1234.09,323.13L1234.09,323.12Z" style="fill:rgb(17,88,108);fill-rule:nonzero;"/>
        <path d="M1380.62,339.57L1380.62,424.43L1364.83,424.43L1364.83,411.77C1359.4,420.16 1350.19,426.41 1338.19,426.41C1319.94,426.41 1308.42,415.88 1308.42,396.48L1308.42,339.58L1324.87,339.58L1324.87,394.18C1324.87,406.35 1331.28,411.94 1342.8,411.94C1353,411.94 1364.18,404.54 1364.18,387.44L1364.18,339.58L1380.62,339.58L1380.62,339.57Z" style="fill:rgb(17,88,108);fill-rule:nonzero;"/>
        <path d="M1471.39,367.53L1471.39,424.43L1454.94,424.43L1454.94,369.83C1454.94,357.66 1448.53,352.07 1437.01,352.07C1426.98,352.07 1415.63,359.47 1415.63,376.57L1415.63,424.43L1399.18,424.43L1399.18,339.57L1414.97,339.57L1414.97,352.23C1420.56,343.84 1429.61,337.59 1441.61,337.59C1460.04,337.6 1471.39,348.12 1471.39,367.53Z" style="fill:rgb(17,88,108);fill-rule:nonzero;"/>
        <path d="M1568.75,307.34L1568.75,424.43L1552.96,424.43L1552.96,411.93C1546.88,420.97 1537.34,426.4 1524.84,426.4C1501.16,426.4 1486.03,409.13 1486.03,382C1486.03,354.87 1501.16,337.6 1524.84,337.6C1536.85,337.6 1546.22,342.53 1552.3,351.09L1552.3,307.34L1568.75,307.34ZM1552.79,382C1552.79,362.59 1543.09,351.74 1527.96,351.74C1512.83,351.74 1503.13,363.25 1503.13,382.66C1503.13,402.07 1512.83,412.26 1527.96,412.26C1543.09,412.26 1552.79,401.41 1552.79,382Z" style="fill:rgb(17,88,108);fill-rule:nonzero;"/>
    </g>
    <path d="M718.62,258.13L718.62,190.56L689.64,258.13L673.55,258.13L645.05,190.56L645.05,258.13L615.1,258.13L615.1,141.09L655.19,141.09L682.73,207.18L711.54,141.09L748.57,141.09L748.57,258.13L718.62,258.13Z" style="fill:rgb(17,88,108);fill-opacity:0.69;fill-rule:nonzero;"/>
    <g>
        <path d="M771.6,258.12L771.6,141.08L797.2,141.08C799.46,141.08 801.69,143.33 801.69,145.76L801.69,258.12L771.6,258.12Z" style="fill:rgb(17,88,108);fill-opacity:0.69;fill-rule:nonzero;"/>
        <path d="M884.78,190.73L922.82,190.73C925.83,190.73 927.53,193.18 927.53,196.07L927.53,256.54C916.82,258.93 900.1,260.39 887.67,260.39C844.02,260.39 821.01,239.61 821.01,199.46C821.01,163.65 844.02,138.84 882.39,138.84C899.28,138.84 914.08,143.35 923.63,149.79L911.83,169.93C903.6,166.24 892.49,163.66 884.63,163.66C862.57,163.66 852.27,178.29 852.27,199.47C852.27,222.1 864.2,236.07 886.23,236.07C890.27,236.07 895.28,235.91 899.28,235.29L899.28,214.66L884.79,214.66L884.79,190.73L884.78,190.73Z" style="fill:rgb(17,88,108);fill-opacity:0.69;fill-rule:nonzero;"/>
        <path d="M994.31,163.63L979.59,163.63L979.59,192.98L994.31,192.98C1003.11,192.98 1010.02,188.29 1010.02,177.17C1010.02,165.89 1003.1,163.63 994.31,163.63M1016.48,258.12L1002.6,225.9C999.76,219.34 997.77,216.08 991.76,216.08L979.59,216.08L979.59,258.11L950.17,258.11L950.17,145.76C950.17,143.33 952.85,141.08 954.75,141.08L996.29,141.08C1018.85,141.08 1038.19,145.76 1038.19,174.91C1038.19,187.96 1030.96,201.32 1017.43,204.01C1024.17,206.3 1030.96,214.96 1034.65,224.34L1048.03,258.12L1016.48,258.12Z" style="fill:rgb(17,88,108);fill-opacity:0.69;fill-rule:nonzero;"/>
        <path d="M1113.06,163.63C1097.27,163.63 1086.04,174.91 1086.04,199.44C1086.04,224.34 1097.27,235.58 1113.06,235.58C1126.6,235.58 1137.68,224.34 1137.68,199.44C1137.68,174.91 1126.6,163.63 1113.06,163.63M1113.06,260.38C1074.74,260.38 1054.46,233.32 1054.46,199.44C1054.46,165.88 1074.73,138.82 1113.06,138.82C1148.96,138.82 1169.25,165.87 1169.25,199.44C1169.25,233.32 1148.96,260.38 1113.06,260.38" style="fill:rgb(17,88,108);fill-opacity:0.69;fill-rule:nonzero;"/>
        <path d="M1226.88,260.38C1207.1,260.38 1188.72,253.29 1180.52,247.66L1193.86,224C1201.3,228.5 1215.78,235.43 1229.13,235.43C1236.68,235.43 1246.23,233.97 1246.23,225.58C1246.23,217.71 1235.57,215.29 1221.57,211.29C1204.68,206.44 1185.02,199.72 1185.02,177C1185.02,152.51 1206.77,138.83 1235.08,138.83C1253.77,138.83 1268.25,145.45 1275.64,152.52L1259.4,171.02C1251.36,166.22 1243.15,162.48 1233.94,162.48C1222.85,162.48 1216.57,166.69 1216.57,172.81C1216.57,178.88 1224.62,181.98 1234.75,185.03C1252.65,190.55 1277.09,196.21 1277.09,219.65C1277.1,243.8 1257.8,260.38 1226.88,260.38" style="fill:rgb(17,88,108);fill-opacity:0.69;fill-rule:nonzero;"/>
    </g>
    <path d="M517.38,142.71C483.16,108.49 427.67,108.49 393.44,142.71L352.21,183.94L414.18,245.91C452.73,283.45 448.22,330.99 447.22,336.9L517.42,266.7C551.66,232.47 551.61,176.93 517.38,142.71" style="fill:rgb(17,88,108);fill-opacity:0.4;fill-rule:nonzero;"/>
    <path d="M396.8,263.9L283.07,150.17C248.85,115.95 193.36,115.95 159.14,150.17C124.92,184.39 124.92,239.88 159.14,274.1L334.84,449.81L396.8,387.84C431.03,353.61 431.03,298.12 396.8,263.9" style="fill:rgb(17,88,108);fill-opacity:0.69;fill-rule:nonzero;"/>
</svg>
