<?xml version="1.0" encoding="utf-8"?>
<!-- Generator: Adobe Illustrator 19.0.0, SVG Export Plug-In . SVG Version: 6.00 Build 0)  -->
<!DOCTYPE svg PUBLIC "-//W3C//DTD SVG 1.1//EN" "http://www.w3.org/Graphics/SVG/1.1/DTD/svg11.dtd">
<svg version="1.1" id="Ebene_1" xmlns="http://www.w3.org/2000/svg" xmlns:xlink="http://www.w3.org/1999/xlink" x="0px" y="0px"
	 width="275px" height="100px" viewBox="0 0 275 100" style="enable-background:new 0 0 275 100;" xml:space="preserve">
<style type="text/css">
	.st0{fill:#11586C;}
	.st1{opacity:0.7;fill:#11586C;}
</style>
<g>
	<polygon class="st0" points="128.1,43.8 135.5,43.8 135.9,43.9 136.1,44.1 136.3,44.5 136.4,44.9 136.4,56.5 134.6,56.8 132.7,57 
		130.7,57.2 128.7,57.2 127.2,57.2 125.8,57 124.3,56.8 123.1,56.5 122,56.1 120.9,55.6 120,54.9 119,54.3 118.3,53.5 117.6,52.6 
		117.1,51.6 116.7,50.6 116.3,49.5 116,48.3 115.8,46.9 115.8,45.5 115.8,44.2 116,43 116.3,41.9 116.6,40.8 117.1,39.8 117.6,38.8 
		118.3,37.9 119,37.1 119.8,36.4 120.7,35.8 121.6,35.2 122.7,34.7 123.9,34.3 125,34.1 126.3,33.9 127.6,33.9 128.9,33.9 130,34.1 
		131.1,34.2 132.2,34.4 133.1,34.7 134.1,35.1 134.9,35.6 135.7,35.9 133.4,39.8 132.1,39.3 130.7,38.9 129.3,38.8 128.1,38.7 
		127.4,38.7 126.6,38.8 125.9,38.9 125.4,39.1 124.8,39.4 124.2,39.7 123.8,40.1 123.4,40.5 123,41 122.7,41.6 122.5,42.1 
		122.3,42.7 122,44 121.9,45.5 122,47 122.1,47.8 122.3,48.4 122.5,49.1 122.8,49.7 123.1,50.2 123.6,50.7 124,51.1 124.4,51.5 
		125,51.8 125.6,52.1 126.2,52.3 126.9,52.4 127.6,52.5 128.4,52.6 129.7,52.5 131,52.4 131,48.4 128.1,48.4 	"/>
	<polygon class="st0" points="78.9,43.8 86.3,43.8 86.7,43.9 86.9,44.1 87.1,44.5 87.1,44.9 87.1,56.5 85.4,56.8 83.4,57 81.4,57.2 
		79.5,57.2 78,57.2 76.5,57 75.1,56.8 73.9,56.5 72.8,56.1 71.6,55.6 70.7,54.9 69.8,54.3 69.1,53.5 68.4,52.6 67.9,51.6 67.4,50.6 
		67,49.5 66.8,48.3 66.6,46.9 66.6,45.5 66.6,44.2 66.8,43 67,41.9 67.4,40.8 67.9,39.8 68.4,38.8 69,37.9 69.7,37.1 70.5,36.4 
		71.4,35.8 72.4,35.2 73.4,34.7 74.6,34.3 75.8,34.1 77.1,33.9 78.4,33.9 79.7,33.9 80.8,34.1 81.9,34.2 83,34.4 83.9,34.7 
		84.9,35.1 85.7,35.6 86.4,35.9 84.1,39.8 82.9,39.3 81.5,38.9 80.1,38.8 78.9,38.7 78.1,38.7 77.4,38.8 76.7,38.9 76.1,39.1 
		75.5,39.4 75,39.7 74.6,40.1 74.2,40.5 73.8,41 73.4,41.6 73.2,42.1 73,42.7 72.7,44 72.6,45.5 72.8,47 72.9,47.8 73,48.4 
		73.2,49.1 73.6,49.7 73.9,50.2 74.3,50.7 74.8,51.1 75.2,51.5 75.8,51.8 76.4,52.1 77,52.3 77.7,52.4 78.4,52.5 79.2,52.6 
		80.4,52.5 81.7,52.4 81.7,48.4 78.9,48.4 	"/>
	<polygon class="st1" points="182.2,56.8 182.2,43.8 176.7,56.8 173.5,56.8 168.1,43.8 168.1,56.8 162.2,56.8 162.2,34.2 170,34.2 
		175.3,47 180.9,34.2 188.1,34.2 188.1,56.8 	"/>
	<path class="st0" d="M102.1,38.9L102.1,38.9l-2.9,8.8h5.7L102.1,38.9z M98.5,34.2h7.5l8.7,22.6H108l-1.7-4.8h-8.5L96,56.8h-6.1
		L98.5,34.2z"/>
	<polygon class="st0" points="36.5,35.3 36.5,38.6 26.6,38.6 26.6,43.2 36,43.2 36,47.5 26.6,47.5 26.6,52.6 36.9,52.6 36.9,56.8 
		20.5,56.8 20.5,34.2 35.6,34.2 36,34.3 36.3,34.5 36.5,34.9 	"/>
	<polygon class="st0" points="157.2,35.3 157.2,38.6 147.3,38.6 147.3,43.2 156.7,43.2 156.7,47.5 147.3,47.5 147.3,52.6 
		157.6,52.6 157.6,56.8 141.2,56.8 141.2,34.2 156.4,34.2 156.7,34.3 157,34.5 157.2,34.9 	"/>
	<polygon class="st0" points="209.3,35.3 209.3,38.6 199.4,38.6 199.4,43.2 208.9,43.2 208.9,47.5 199.4,47.5 199.4,52.6 
		209.7,52.6 209.7,56.8 193.4,56.8 193.4,34.2 208.5,34.2 208.9,34.3 209.2,34.5 209.3,34.9 	"/>
	<polygon class="st0" points="62.4,35.3 62.4,56.8 54.9,56.8 47,41.4 46.9,41.4 47.1,56.8 41.5,56.8 41.5,34.2 49.2,34.2 56.9,49.6 
		57,49.6 56.9,34.2 61.4,34.2 61.8,34.3 62.1,34.6 62.3,34.9 	"/>
	<polygon class="st0" points="235.2,35.3 235.2,56.8 227.8,56.8 219.8,41.4 219.7,41.4 219.9,56.8 214.4,56.8 214.4,34.2 
		222.1,34.2 229.8,49.6 229.8,49.6 229.7,34.2 234.3,34.2 234.7,34.3 234.9,34.6 235.1,34.9 	"/>
	<polygon class="st0" points="256.2,35.3 256.2,38.8 250.6,38.8 250.6,56.8 244.6,56.8 244.6,38.8 238.9,38.8 238.9,34.2 
		255.3,34.2 255.6,34.3 255.9,34.6 256.1,34.9 	"/>
	<polygon class="st0" points="20.5,61.7 24.7,61.7 24.7,62.6 21.7,62.6 21.7,64.8 24.4,64.8 24.4,65.7 21.7,65.7 21.7,68.2 
		24.7,68.2 24.7,69.1 20.5,69.1 	"/>
	<rect x="27.3" y="61.7" class="st0" width="1" height="7.4"/>
	<polygon class="st0" points="31.5,61.7 32.9,61.7 36.1,67.6 36.1,61.7 37.3,61.7 37.3,69.1 35.8,69.1 32.5,63 32.5,69.1 31.5,69.1 
			"/>
	<polygon class="st0" points="44,61.7 47.9,61.7 47.9,62.6 45,62.6 45,64.8 47.7,64.8 47.7,65.7 45,65.7 45,69.1 44,69.1 	"/>
	<path class="st0" d="M53.7,60.1h0.9v1h-0.9V60.1z M52,60.1h0.9v1H52V60.1z M53.3,68.3L53.3,68.3l0.6-0.1l0.6-0.2l0.4-0.3l0.4-0.3
		l0.2-0.5l0.2-0.5l0.1-0.6l0.1-0.6l-0.1-0.5l-0.1-0.6l-0.2-0.5l-0.3-0.5L54.8,63l-0.5-0.3l-0.5-0.1l-0.6-0.1l-0.6,0.1l-0.5,0.1
		L51.8,63l-0.3,0.4l-0.3,0.5L51,64.3l-0.1,0.6l-0.1,0.5l0.1,0.6l0.1,0.6l0.2,0.5l0.2,0.5l0.4,0.3l0.4,0.3l0.6,0.2L53.3,68.3z
		 M53.3,61.6L53.3,61.6l0.8,0.1l0.8,0.2l0.6,0.4l0.6,0.5l0.4,0.6l0.3,0.6l0.2,0.8l0.1,0.8l-0.1,0.8L56.6,67l-0.3,0.7L56,68.2
		l-0.6,0.4l-0.6,0.4l-0.8,0.2l-0.8,0.1l-0.8-0.1l-0.8-0.2l-0.6-0.4l-0.6-0.4l-0.4-0.6L50,67l-0.2-0.8l-0.1-0.8l0.1-0.8l0.2-0.8
		l0.3-0.6l0.4-0.6l0.6-0.5l0.6-0.4l0.8-0.2L53.3,61.6z"/>
	<path class="st0" d="M60.3,64.9h0.8l0.7-0.1l0.6-0.2l0.2-0.2l0.1-0.2l0.1-0.3v-0.2l-0.1-0.5l-0.3-0.4l-0.5-0.2l-0.6-0.1h-1V64.9z
		 M59.3,61.7h1.8l1,0.1l0.5,0.1l0.5,0.2l0.4,0.3l0.3,0.3l0.1,0.5l0.1,0.7v0.3l-0.1,0.3l-0.2,0.3l-0.2,0.2l-0.5,0.4l-0.6,0.2v0.1
		l0.4,0.2l0.4,0.5l1.3,3h-1.1l-1.1-2.6l-0.3-0.4l-0.3-0.2l-0.3-0.1H61h-0.7v3.3h-1V61.7z"/>
	<path class="st0" d="M67.8,68.2h1.1l0.7-0.1l0.6-0.1l0.5-0.2l0.4-0.3l0.3-0.5l0.3-0.5l0.1-0.6l0.1-0.7l-0.1-0.6l-0.1-0.6l-0.3-0.5
		L71,63.4l-0.5-0.3L70,62.8l-0.5-0.1L69,62.6h-1.2V68.2z M66.7,61.7h2.2l0.8,0.1l0.8,0.2l0.7,0.3l0.7,0.5l0.5,0.5l0.3,0.7l0.3,0.7
		l0.1,0.8l-0.1,0.8L72.6,67l-0.4,0.7l-0.5,0.6l-0.5,0.4l-0.8,0.3L69.7,69l-0.8,0.1h-2.2V61.7z"/>
	<polygon class="st0" points="75.3,61.7 79.4,61.7 79.4,62.6 76.4,62.6 76.4,64.8 79.2,64.8 79.2,65.7 76.4,65.7 76.4,68.2 
		79.4,68.2 79.4,69.1 75.3,69.1 	"/>
	<path class="st0" d="M83.1,64.9h0.8l0.7-0.1l0.6-0.2l0.2-0.2l0.1-0.2l0.1-0.3v-0.2l-0.1-0.5l-0.3-0.4l-0.5-0.2L84,62.6h-0.9V64.9z
		 M81.9,61.7h1.9l1,0.1l0.5,0.1l0.5,0.2l0.3,0.3l0.3,0.3l0.2,0.5l0.1,0.7v0.3l-0.1,0.3l-0.2,0.3l-0.2,0.2l-0.5,0.4l-0.6,0.2v0.1
		l0.4,0.2l0.3,0.5l1.4,3H86l-1.1-2.6l-0.2-0.4l-0.3-0.2L84,65.8h-0.4h-0.6v3.3h-1.1V61.7z"/>
	<polygon class="st0" points="89.5,61.7 93.5,61.7 93.5,62.6 90.5,62.6 90.5,64.8 93.3,64.8 93.3,65.7 90.5,65.7 90.5,69.1 
		89.5,69.1 	"/>
	<path class="st0" d="M98.7,68.3L98.7,68.3l0.6-0.1l0.5-0.2l0.5-0.3l0.3-0.3l0.3-0.5l0.2-0.5l0.1-0.6v-0.6v-0.5l-0.1-0.6l-0.2-0.5
		l-0.3-0.5l-0.4-0.4l-0.4-0.3l-0.5-0.1l-0.6-0.1l-0.7,0.1l-0.5,0.1L97.2,63l-0.4,0.4l-0.3,0.5l-0.2,0.5l-0.1,0.6v0.5v0.6l0.1,0.6
		l0.2,0.5l0.3,0.5l0.3,0.3l0.5,0.3l0.5,0.2L98.7,68.3z M98.7,61.6L98.7,61.6l0.8,0.1l0.7,0.2l0.7,0.4l0.5,0.5l0.4,0.6l0.4,0.6
		l0.1,0.8l0.1,0.8l-0.1,0.8L102,67l-0.3,0.7l-0.5,0.6l-0.5,0.4l-0.7,0.4l-0.7,0.2l-0.8,0.1l-0.8-0.1l-0.7-0.2l-0.7-0.4l-0.5-0.4
		l-0.5-0.6L95.3,67l-0.1-0.8l-0.1-0.8l0.1-0.8l0.1-0.8l0.4-0.6l0.4-0.6l0.5-0.5l0.7-0.4l0.7-0.2L98.7,61.6z"/>
	<polygon class="st0" points="104.6,61.7 106,61.7 109.2,67.6 109.3,67.6 109.3,61.7 110.4,61.7 110.4,69.1 108.9,69.1 105.6,63 
		105.6,69.1 104.6,69.1 	"/>
	<path class="st0" d="M114.4,68.2h1l0.7-0.1l0.6-0.1l0.5-0.2l0.5-0.3l0.3-0.5l0.2-0.5l0.2-0.6v-0.7v-0.6l-0.2-0.6l-0.3-0.5l-0.3-0.4
		l-0.4-0.3l-0.5-0.3l-0.5-0.1l-0.6-0.1h-1.2V68.2z M113.3,61.7h2.2l0.8,0.1l0.8,0.2l0.7,0.3l0.6,0.5l0.5,0.5l0.4,0.7l0.2,0.7
		l0.1,0.8l-0.1,0.8l-0.2,0.8l-0.3,0.7l-0.5,0.6l-0.6,0.4l-0.7,0.3l-0.8,0.2l-0.9,0.1h-2.2V61.7z"/>
	<polygon class="st0" points="125.2,62.8 125.2,62.8 124.4,62.6 123.8,62.5 123.3,62.5 122.9,62.7 122.7,62.8 122.5,63 122.5,63.3 
		122.5,63.5 122.5,63.8 122.6,64 122.9,64.3 123.5,64.6 124.1,64.9 124.6,65.2 125.2,65.7 125.4,65.9 125.5,66.2 125.6,66.6 
		125.7,67.1 125.6,67.5 125.5,68 125.2,68.4 124.8,68.8 124.4,68.9 124,69.1 123.5,69.2 122.9,69.2 122.2,69.1 121.4,68.9 
		121.5,67.9 122.3,68.2 122.6,68.3 123.1,68.3 123.6,68.2 124.1,68 124.2,67.8 124.3,67.6 124.4,67.3 124.5,67.1 124.5,66.8 
		124.3,66.6 124.2,66.3 124.1,66.2 123.5,65.8 122.9,65.6 122.4,65.3 121.9,64.9 121.6,64.6 121.5,64.3 121.4,64.1 121.3,63.6 
		121.4,63.1 121.5,62.7 121.8,62.5 122.1,62.1 122.4,61.9 122.8,61.7 123.2,61.6 123.7,61.6 124.5,61.7 125.3,61.9 	"/>
	<path class="st0" d="M132.9,68.2h1.1l0.7-0.1l0.6-0.1l0.5-0.2l0.4-0.3l0.4-0.5l0.2-0.5l0.1-0.6l0.1-0.7l-0.1-0.6l-0.1-0.6l-0.3-0.5
		l-0.3-0.4l-0.5-0.3l-0.4-0.3l-0.6-0.1l-0.6-0.1h-1.2V68.2z M131.9,61.7h2.2l0.8,0.1l0.7,0.2l0.8,0.3l0.6,0.5l0.5,0.5l0.4,0.7
		l0.2,0.7l0.1,0.8l-0.1,0.8l-0.2,0.8l-0.4,0.7l-0.4,0.6l-0.6,0.4l-0.7,0.3l-0.8,0.2l-0.8,0.1h-2.2V61.7z"/>
	<polygon class="st0" points="140.4,61.7 144.6,61.7 144.6,62.6 141.4,62.6 141.4,64.8 144.3,64.8 144.3,65.7 141.4,65.7 
		141.4,68.2 144.6,68.2 144.6,69.1 140.4,69.1 	"/>
	<path class="st0" d="M148.1,64.9h0.9l0.7-0.1l0.5-0.2l0.2-0.2l0.2-0.2V64l0.1-0.2l-0.1-0.5l-0.3-0.4l-0.5-0.2l-0.7-0.1h-1V64.9z
		 M147.1,61.7h1.8l1,0.1l0.6,0.1l0.4,0.2l0.4,0.3l0.3,0.3l0.2,0.5l0.1,0.7l-0.1,0.3l-0.1,0.3l-0.1,0.3l-0.2,0.2l-0.5,0.4l-0.7,0.2
		v0.1l0.5,0.2l0.3,0.5l1.4,3h-1.2l-1.1-2.6l-0.3-0.4l-0.3-0.2l-0.3-0.1h-0.4h-0.7v3.3h-1V61.7z"/>
	<polygon class="st0" points="158.3,61.7 160.1,61.7 162.4,67.8 164.7,61.7 166.5,61.7 166.5,69.1 165.4,69.1 165.4,62.7 
		165.3,62.7 163,69.1 161.9,69.1 159.5,62.7 159.4,62.7 159.4,69.1 158.3,69.1 	"/>
	<rect x="169.5" y="61.7" class="st0" width="1" height="7.4"/>
	<polygon class="st0" points="178.8,63 178.8,63 178.5,62.8 178,62.6 177.4,62.5 176.9,62.5 176.2,62.6 175.6,62.7 175.2,63 
		174.8,63.4 174.4,63.8 174.2,64.2 174,64.8 173.9,65.4 174,66 174.2,66.6 174.5,67.1 174.8,67.5 175.2,67.8 175.6,68.1 176.2,68.3 
		176.8,68.3 177.5,68.3 177.9,68.2 177.9,65.9 176.4,65.9 176.4,65.1 179,65.1 179,68.8 178.2,69.1 177.5,69.2 176.8,69.2 
		175.9,69.1 175.2,68.9 174.5,68.7 173.9,68.2 173.5,67.6 173.2,67 172.9,66.2 172.9,65.4 172.9,64.6 173.2,63.9 173.5,63.2 
		173.9,62.6 174.5,62.2 175.2,61.9 175.9,61.7 176.8,61.6 177.4,61.6 178,61.7 178.9,62 	"/>
	<path class="st0" d="M182.8,64.9h0.8l0.7-0.1l0.6-0.2l0.2-0.2l0.1-0.2l0.1-0.3v-0.2l-0.1-0.5l-0.3-0.4l-0.5-0.2l-0.6-0.1h-1V64.9z
		 M181.8,61.7h1.8l1,0.1l0.5,0.1l0.5,0.2l0.4,0.3l0.3,0.3l0.1,0.5l0.1,0.7v0.3l-0.1,0.3l-0.2,0.3l-0.2,0.2l-0.5,0.4l-0.6,0.2v0.1
		l0.4,0.2l0.4,0.5l1.3,3h-1.1l-1.1-2.6l-0.3-0.4l-0.3-0.2l-0.3-0.1h-0.4h-0.7v3.3h-1V61.7z"/>
	<path class="st0" d="M192.3,68.3L192.3,68.3l0.6-0.1l0.6-0.2l0.4-0.3l0.4-0.3l0.2-0.5l0.2-0.5l0.1-0.6l0.1-0.6l-0.1-0.5l-0.1-0.6
		l-0.2-0.5l-0.3-0.5l-0.3-0.4l-0.5-0.3l-0.5-0.1l-0.6-0.1l-0.6,0.1l-0.5,0.1l-0.5,0.3l-0.3,0.4l-0.3,0.5l-0.2,0.5l-0.1,0.6l-0.1,0.5
		l0.1,0.6l0.1,0.6l0.2,0.5l0.2,0.5l0.4,0.3l0.4,0.3l0.6,0.2L192.3,68.3z M192.3,61.6L192.3,61.6l0.8,0.1l0.8,0.2l0.6,0.4l0.6,0.5
		l0.4,0.6l0.3,0.6l0.2,0.8l0.1,0.8l-0.1,0.8l-0.2,0.8l-0.3,0.7l-0.4,0.6l-0.6,0.4l-0.6,0.4l-0.8,0.2l-0.8,0.1l-0.8-0.1l-0.7-0.2
		l-0.6-0.4l-0.6-0.4l-0.4-0.6l-0.3-0.7l-0.2-0.8l-0.1-0.8l0.1-0.8l0.2-0.8l0.3-0.6l0.4-0.6l0.6-0.5l0.6-0.4l0.7-0.2L192.3,61.6z"/>
	<polygon class="st0" points="201.5,62.8 201.5,62.8 200.8,62.6 200.1,62.5 199.6,62.5 199.2,62.7 199.1,62.8 198.9,63 198.9,63.3 
		198.8,63.5 198.9,63.8 199,64 199.2,64.3 199.8,64.6 200.4,64.9 200.9,65.2 201.5,65.7 201.7,65.9 201.8,66.2 201.9,66.6 202,67.1 
		201.9,67.5 201.8,68 201.5,68.4 201.1,68.8 200.8,68.9 200.3,69.1 199.8,69.2 199.2,69.2 198.5,69.1 197.7,68.9 197.8,67.9 
		198.6,68.2 199,68.3 199.4,68.3 199.9,68.2 200.4,68 200.6,67.8 200.7,67.6 200.8,67.3 200.8,67.1 200.8,66.8 200.8,66.6 
		200.6,66.3 200.4,66.2 199.8,65.8 199.2,65.6 198.7,65.3 198.2,64.9 197.9,64.6 197.8,64.3 197.7,64.1 197.6,63.6 197.7,63.1 
		197.8,62.7 198.1,62.5 198.4,62.1 198.7,61.9 199.1,61.7 199.5,61.6 200,61.6 200.8,61.7 201.6,61.9 	"/>
	<rect x="203.7" y="65.8" class="st0" width="2.6" height="0.8"/>
	<polygon class="st0" points="214.2,63 214.2,63 213.7,62.8 213.3,62.6 212.7,62.5 212.1,62.5 211.5,62.6 211,62.7 210.5,63 
		210,63.4 209.7,63.8 209.4,64.2 209.3,64.8 209.3,65.4 209.3,66 209.4,66.6 209.7,67.1 210.1,67.5 210.5,67.8 211,68.1 211.5,68.3 
		212.1,68.3 212.8,68.3 213.2,68.2 213.2,65.9 211.7,65.9 211.7,65.1 214.3,65.1 214.3,68.8 213.4,69.1 212.8,69.2 212,69.2 
		211.2,69.1 210.5,68.9 209.8,68.7 209.3,68.2 208.8,67.6 208.4,67 208.2,66.2 208.1,65.4 208.2,64.6 208.4,63.9 208.8,63.2 
		209.3,62.6 209.8,62.2 210.5,61.9 211.2,61.7 212.1,61.6 212.7,61.6 213.3,61.7 214.3,62 	"/>
	<path class="st0" d="M218,64.9h0.9l0.7-0.1l0.5-0.2l0.2-0.2l0.2-0.2l0.1-0.3v-0.2l-0.1-0.5l-0.3-0.4l-0.5-0.2l-0.7-0.1h-1V64.9z
		 M217,61.7h1.8l1.1,0.1l0.5,0.1l0.4,0.2l0.4,0.3l0.3,0.3l0.2,0.5l0.1,0.7l-0.1,0.3l-0.1,0.3l-0.1,0.3l-0.2,0.2l-0.5,0.4l-0.6,0.2
		v0.1l0.4,0.2l0.3,0.5l1.4,3h-1.2l-1.1-2.6l-0.2-0.4l-0.3-0.2l-0.4-0.1h-0.4H218v3.3h-1V61.7z"/>
	<polygon class="st0" points="230,66 230,66 229.9,66.8 229.8,67.4 229.6,68 229.3,68.4 228.8,68.8 228.3,69 227.8,69.1 227.1,69.2 
		226.4,69.1 225.9,69 225.4,68.8 225,68.4 224.7,68 224.5,67.4 224.3,66.8 224.3,66 224.3,61.7 225.3,61.7 225.3,65.9 225.4,66.9 
		225.5,67.2 225.7,67.6 226,67.9 226.3,68.1 226.6,68.3 227.1,68.3 227.6,68.3 228,68.1 228.3,67.9 228.5,67.6 228.7,67.2 
		228.8,66.9 228.9,65.9 228.9,61.7 230,61.7 	"/>
	<path class="st0" d="M233.7,65.2h1h0.6l0.5-0.3l0.2-0.1l0.2-0.3l0.1-0.3V64v-0.4l-0.2-0.3l-0.1-0.2l-0.3-0.2l-0.5-0.2l-0.6-0.1
		h-0.9V65.2z M232.7,61.7h2l0.6,0.1l0.5,0.1l0.5,0.1l0.4,0.2l0.4,0.4l0.3,0.4l0.1,0.5l0.1,0.6l-0.1,0.6l-0.1,0.5l-0.3,0.4l-0.4,0.3
		l-0.4,0.2l-0.4,0.2l-0.5,0.1h-0.6h-1v3h-1V61.7z"/>
	<path class="st0" d="M240.5,65.2h1.1h0.5l0.5-0.3l0.2-0.1l0.2-0.3l0.1-0.3V64v-0.4l-0.2-0.3l-0.1-0.2l-0.3-0.2l-0.5-0.2l-0.6-0.1
		h-0.9V65.2z M239.5,61.7h2l0.6,0.1l0.5,0.1L243,62l0.4,0.2l0.4,0.4l0.3,0.4l0.1,0.5l0.1,0.6l-0.1,0.6L244,65l-0.3,0.4l-0.3,0.3
		l-0.5,0.2l-0.4,0.2l-0.5,0.1h-0.6h-1v3h-1V61.7z"/>
	<polygon class="st0" points="246.4,61.7 250.5,61.7 250.5,62.6 247.5,62.6 247.5,64.8 250.2,64.8 250.2,65.7 247.5,65.7 
		247.5,68.2 250.5,68.2 250.5,69.1 246.4,69.1 	"/>
</g>
</svg>
