<?xml version="1.0" encoding="utf-8"?>
<!-- Generator: Adobe Illustrator 19.0.0, SVG Export Plug-In . SVG Version: 6.00 Build 0)  -->
<!DOCTYPE svg PUBLIC "-//W3C//DTD SVG 1.1//EN" "http://www.w3.org/Graphics/SVG/1.1/DTD/svg11.dtd">
<svg version="1.1" id="Ebene_1" xmlns="http://www.w3.org/2000/svg" xmlns:xlink="http://www.w3.org/1999/xlink" x="0px" y="0px"
	 width="275px" height="100px" viewBox="-22 271 275 100" style="enable-background:new -22 271 275 100;" xml:space="preserve">
<style type="text/css">
	.st0{fill:#12596D;}
</style>
<g id="XMLID_359_">
	<path id="XMLID_382_" class="st0" d="M26.2,312.1H15.1v6.7h10.8v4H15.1v9.3h11.1v4H10.9v-28h15.3V312.1z"/>
	<path id="XMLID_379_" class="st0" d="M61.1,336.6h-5.3l-2.2-2.2c-2.3,1.5-4.9,2.2-7.7,2.2c-3.7,0-6.9-1.3-9.8-3.8
		c-3.1-2.8-4.7-6.3-4.7-10.6c0-4.2,1.5-7.7,4.4-10.5c2.9-2.7,6.2-4.1,10.1-4.1c3.5,0,6.7,1.2,9.5,3.6c3.4,2.9,5,6.6,5,11.2
		c0,3.6-1.3,6.8-4,9.6L61.1,336.6z M49.6,325l4,4c1.8-1.9,2.7-4.1,2.7-6.9c0-3-1-5.5-3-7.5s-4.4-3-7.4-3s-5.4,1-7.3,3
		c-1.9,2-2.9,4.6-2.9,7.6s1,5.5,3,7.4c2.1,2,4.4,3,7.1,3c1.8,0,3.4-0.4,4.9-1.2l-6.5-6.4C44.2,325,49.6,325,49.6,325z"/>
	<path id="XMLID_377_" class="st0" d="M71,308.1v16.8c0,2.4,0.4,4.1,1.2,5.3c1.2,1.6,2.8,2.4,4.9,2.4s3.8-0.8,4.9-2.4
		c0.8-1.1,1.2-2.8,1.2-5.3v-16.8h4.2v18c0,2.9-0.9,5.4-2.7,7.3c-2,2.1-4.6,3.2-7.5,3.2c-3,0-5.5-1.1-7.5-3.2
		c-1.8-1.9-2.7-4.3-2.7-7.3v-18H71z"/>
	<path id="XMLID_375_" class="st0" d="M99.3,308.1V336h-4.2v-27.9H99.3z"/>
	<path id="XMLID_373_" class="st0" d="M103.8,325.3h8v3.5h-8V325.3z"/>
	<path id="XMLID_371_" class="st0" d="M124.3,312.1V336h-4.2v-23.9h-6.4v-4h16.9v4H124.3z"/>
	<path id="XMLID_368_" class="st0" d="M150.3,329.3h-11.9l-3.1,6.8h-4.5l13.7-29.6l13.2,29.6h-4.6L150.3,329.3z M148.6,325.3
		l-4.1-9.5l-4.3,9.5H148.6z"/>
	<path id="XMLID_364_" class="st0" d="M162.3,336v-27.9h4.2c1.9,0,3.3,0.1,4.4,0.4c1.1,0.3,2.1,0.8,2.8,1.5c0.8,0.7,1.4,1.6,1.9,2.7
		c0.5,1.1,0.7,2.2,0.7,3.3c0,2-0.8,3.7-2.3,5.1c1.5,0.5,2.6,1.4,3.5,2.7c0.9,1.3,1.3,2.7,1.3,4.4c0,2.2-0.8,4-2.3,5.5
		c-0.9,0.9-2,1.6-3.1,1.9c-1.3,0.3-2.8,0.5-4.7,0.5h-6.4V336z M166.5,320.1h1.3c1.6,0,2.7-0.3,3.4-1c0.7-0.7,1.1-1.7,1.1-3.1
		c0-1.3-0.4-2.3-1.1-3c-0.7-0.7-1.8-1-3.2-1h-1.5V320.1z M166.5,332.1h2.6c1.9,0,3.3-0.4,4.2-1.1c0.9-0.8,1.4-1.8,1.4-3.1
		c0-1.2-0.4-2.2-1.3-3c-0.9-0.8-2.4-1.2-4.7-1.2h-2.1L166.5,332.1L166.5,332.1z"/>
	<path id="XMLID_362_" class="st0" d="M189.4,308.1V332h8.2v4h-12.3v-27.9H189.4z"/>
	<path id="XMLID_360_" class="st0" d="M217.9,312.1h-11.1v6.7h10.8v4h-10.8v9.3h11.1v4h-15.3v-28h15.3V312.1z"/>
</g>
</svg>
