<?xml version="1.0" encoding="utf-8"?>
<!-- Generator: Adobe Illustrator 19.0.0, SVG Export Plug-In . SVG Version: 6.00 Build 0)  -->
<!DOCTYPE svg PUBLIC "-//W3C//DTD SVG 1.1//EN" "http://www.w3.org/Graphics/SVG/1.1/DTD/svg11.dtd">
<svg version="1.1" id="Ebene_1" xmlns="http://www.w3.org/2000/svg" xmlns:xlink="http://www.w3.org/1999/xlink" x="0px" y="0px"
	 width="357.7px" height="100px" viewBox="0 0 357.7 100" style="enable-background:new 0 0 357.7 100;" xml:space="preserve">
<style type="text/css">
	.st0{fill:#11586C;}
</style>
<g>
	<polygon class="st0" points="26.7,43.9 26.7,59 37.1,59 37.1,56.6 29.4,56.6 29.4,52.5 36.4,52.5 36.4,50 29.4,50 29.4,46.3 
		36.8,46.3 36.8,43.9 	"/>
	<path class="st0" d="M41.1,43.9h5.3c2.9,0,5.7,0.9,5.7,4.4c0,2.2-1.3,3.8-3.5,4.1l4,6.7h-3.3l-3.5-6.4h-2V59h-2.7V43.9z M45.9,50.3
		c1.5,0,3.3-0.1,3.3-2.1c0-1.8-1.7-2-3.1-2h-2.3v4.1H45.9z"/>
	<polygon class="st0" points="55.9,43.9 59.4,43.9 66.8,55.1 66.8,55.2 66.8,55.2 66.8,55.1 66.8,43.9 69.5,43.9 69.5,59 66.1,59 
		58.6,47.4 58.6,47.4 58.6,59 55.9,59 	"/>
	<path class="st0" d="M81.6,47.1C81,46.3,80,45.9,79,45.9c-1.2,0-2.5,0.6-2.5,1.9c0,3,7.2,1.3,7.2,6.7c0,3.3-2.6,4.8-5.5,4.8
		c-1.9,0-3.7-0.6-5-2.1l2-2c0.7,1,1.8,1.6,3,1.6c1.2,0,2.7-0.7,2.7-2.1c0-3.3-7.2-1.4-7.2-6.8c0-3.1,2.8-4.6,5.6-4.6
		c1.6,0,3.2,0.4,4.3,1.6L81.6,47.1z"/>
	<polygon class="st0" points="90.9,46.3 86.2,46.3 86.2,43.9 98.2,43.9 98.2,46.3 93.6,46.3 93.6,59 90.9,59 	"/>
	<path class="st0" d="M122.4,57.9c-1.8,1-3.9,1.5-6.3,1.5c-4.7,0-8-3.2-8-7.9c0-4.9,3.3-8,8-8c2.3,0,4.4,0.5,6,1.9l-2,2
		c-1-0.9-2.4-1.5-4-1.5c-3.1,0-5.2,2.4-5.2,5.4c0,3.2,2.1,5.6,5.2,5.6c1.4,0,2.6-0.3,3.6-0.8v-3.6h-3.1v-2.4h5.8V57.9z"/>
	<path class="st0" d="M134.1,43.5c4.7-0.1,8.1,3.1,8.1,7.9c0,4.7-3.3,7.9-8.1,8c-4.7,0-8-3.2-8-7.9
		C126.1,46.6,129.5,43.5,134.1,43.5 M134.1,57c3.1,0,5.2-2.4,5.2-5.6c0-3-2.1-5.4-5.2-5.4c-3.1,0-5.2,2.4-5.2,5.4
		C128.9,54.6,131,57,134.1,57 M131.9,39.7c0.9,0,1.7,0.7,1.7,1.5c0,0.9-0.7,1.5-1.7,1.5c-0.9,0-1.6-0.7-1.6-1.5
		C130.3,40.5,131,39.7,131.9,39.7 M136.3,39.7c0.9,0,1.7,0.7,1.7,1.5c0,0.9-0.7,1.5-1.7,1.5c-0.9,0-1.6-0.7-1.6-1.5
		C134.7,40.5,135.4,39.7,136.3,39.7"/>
	<polygon class="st0" points="146.1,43.9 148.8,43.9 148.8,49.9 155.8,49.9 155.8,43.9 158.5,43.9 158.5,59 155.8,59 155.8,52.3 
		148.8,52.3 148.8,59 146.1,59 	"/>
	<polygon class="st0" points="163.2,43.9 166.8,43.9 174.1,55.1 174.2,55.2 174.1,55.2 174.2,55.1 174.2,43.9 176.9,43.9 176.9,59 
		173.4,59 166,47.4 165.9,47.4 165.9,59 163.2,59 	"/>
	<polygon class="st0" points="181.5,43.9 191.6,43.9 191.6,46.3 184.2,46.3 184.2,50 191.2,50 191.2,52.5 184.2,52.5 184.2,56.6 
		192,56.6 192,59 181.5,59 	"/>
	<path class="st0" d="M195.9,43.9h5.3c2.9,0,5.7,0.9,5.7,4.4c0,2.2-1.3,3.8-3.5,4.1l4,6.7h-3.3l-3.5-6.4h-2V59h-2.7V43.9z
		 M200.7,50.3c1.5,0,3.3-0.1,3.3-2.1c0-1.8-1.7-2-3.1-2h-2.3v4.1H200.7z"/>
	<path class="st0" d="M219.1,56.2c0.8,1.3,2,1.9,3.5,1.9c1.9,0,3.4-1.2,3.4-3c0-4.2-7.8-1.8-7.8-7.5c0-2.7,2.3-4.2,4.9-4.2
		c1.6,0,3.1,0.6,4.1,1.9l-1.2,0.9c-0.7-1-1.6-1.5-3-1.5c-1.8,0-3.4,0.9-3.4,2.9c0,4.6,7.8,1.8,7.8,7.5c0,2.7-2.2,4.3-4.7,4.3
		c-2,0-3.7-0.6-4.9-2.3L219.1,56.2z"/>
	<polygon class="st0" points="235.3,45.1 230.1,45.1 230.1,43.9 241.9,43.9 241.9,45.1 236.7,45.1 236.7,59 235.3,59 	"/>
	<rect x="245.5" y="43.9" class="st0" width="1.4" height="15.2"/>
	<polygon class="st0" points="252.3,43.9 261.4,43.9 261.4,45.1 253.7,45.1 253.7,50.5 260.9,50.5 260.9,51.8 253.7,51.8 253.7,59 
		252.3,59 	"/>
	<polygon class="st0" points="268.9,45.1 263.7,45.1 263.7,43.9 275.5,43.9 275.5,45.1 270.3,45.1 270.3,59 268.9,59 	"/>
	<path class="st0" d="M289.9,53.2c0,3.2-1.4,6.2-5.5,6.2s-5.5-3-5.5-6.2v-9.4h1.4v9c0,2.2,0.6,5.3,4.1,5.3c3.5,0,4.1-3.1,4.1-5.3v-9
		h1.4V53.2z"/>
	<polygon class="st0" points="295,43.9 296.9,43.9 306.1,57.1 306.1,57.1 306.1,43.9 307.6,43.9 307.6,59 305.7,59 296.5,45.7 
		296.5,45.7 296.5,59 295,59 	"/>
	<path class="st0" d="M325.5,58c-1.8,1-3.7,1.4-5.7,1.4c-4.6,0-7.8-3.3-7.8-8c0-4.6,3.2-8,7.8-8c2.2,0,4.1,0.7,5.5,2.1l-1,1.1
		c-0.9-1.1-2.8-1.9-4.4-1.9c-4,0-6.4,2.9-6.4,6.7s2.5,6.7,6.4,6.7c1.6,0,3.1-0.2,4.2-0.9v-5.1h-3.6v-1.3h5.1V58z"/>
</g>
</svg>
