<?xml version="1.0" encoding="utf-8"?>
<!-- Generator: Adobe Illustrator 19.0.0, SVG Export Plug-In . SVG Version: 6.00 Build 0)  -->
<!DOCTYPE svg PUBLIC "-//W3C//DTD SVG 1.1//EN" "http://www.w3.org/Graphics/SVG/1.1/DTD/svg11.dtd">
<svg version="1.1" id="Ebene_1" xmlns="http://www.w3.org/2000/svg" xmlns:xlink="http://www.w3.org/1999/xlink" x="0px" y="0px"
	 width="289.7px" height="100px" viewBox="0 0 289.7 100" style="enable-background:new 0 0 289.7 100;" xml:space="preserve">
<style type="text/css">
	.st0{fill:#11586C;}
</style>
<g>
	<polygon class="st0" points="79.6,20.9 77.8,29.4 83.2,29.4 85.3,20.9 93.3,20.9 88.1,44.3 80,44.3 81.9,35.3 76.6,35.3 74.4,44.3 
		66.1,44.3 69.9,27 62.7,27 58.9,44.3 50.3,44.3 54.1,27 35.3,27 34.7,29.8 46.3,29.8 45.1,35.3 33.4,35.3 32.7,38.2 44.8,38.2 
		43.5,44.3 22.7,44.3 27.9,20.9 	"/>
	<polygon class="st0" points="22.9,63.7 22.9,55.9 27.1,55.9 27.1,56.9 24.2,56.9 24.2,59.2 26.9,59.2 26.9,60.2 24.2,60.2 
		24.2,62.7 27.1,62.7 27.1,63.7 	"/>
	<path class="st0" d="M30.5,56.3c0-0.4-0.4-0.8-0.8-0.8c-0.4,0-0.8,0.3-0.8,0.8c0,0.4,0.4,0.8,0.8,0.8
		C30.2,57.1,30.5,56.7,30.5,56.3 M30.3,57.9h-1.2v5.8h1.2V57.9z"/>
	<path class="st0" d="M36,60.7c0,1-0.5,2.1-1.4,2.1c-0.8,0-1.2-0.7-1.2-1.8c0-1.6,0.7-2.2,1.7-2.2c0.3,0,0.6,0,0.9,0.1V60.7z
		 M37.2,63.8v-8.5H36v2.7c-0.3,0-0.6,0-0.9,0c-1.9,0-3,1.3-3,3.3c0,1.7,0.7,2.7,2.1,2.7c0.9,0,1.6-0.5,1.9-1.2h0
		C36.1,63,36,63.5,36,63.8H37.2z"/>
	<path class="st0" d="M42.9,60c0,0.8-0.5,1.2-1.3,1.2c-0.8,0-1.3-0.4-1.3-1.2c0-0.7,0.5-1.2,1.3-1.2C42.5,58.8,42.9,59.2,42.9,60
		 M44.5,64.5c0-1.1-0.7-1.7-2-1.7h-1c-0.7,0-1-0.1-1-0.4c0-0.2,0.1-0.3,0.3-0.4c0.2,0,0.4,0.1,0.7,0.1c1.6,0,2.5-0.9,2.5-2.1
		c0-0.4-0.2-0.8-0.4-1h0.9v-1h-2c-0.3-0.1-0.6-0.1-1-0.1c-1.7,0-2.6,1-2.6,2.3c0,0.7,0.3,1.3,0.9,1.6c-0.4,0.2-0.7,0.6-0.7,1
		c0,0.4,0.2,0.7,0.6,0.9c-0.5,0.3-0.9,0.8-0.9,1.5c0,1.1,0.9,1.7,2.5,1.7C43.3,66.8,44.5,65.8,44.5,64.5 M43.3,64.7
		c0,0.6-0.6,1.1-1.7,1.1c-0.8,0-1.4-0.4-1.4-1c0-0.4,0.2-0.7,0.6-1c0.1,0,0.2,0,0.3,0h1.1C43,63.9,43.3,64.2,43.3,64.7"/>
	<path class="st0" d="M49.5,60h-2.4c0.1-0.8,0.6-1.3,1.3-1.3C49.1,58.7,49.6,59.2,49.5,60 M50.8,60.3c0-1.4-0.7-2.5-2.4-2.5
		c-1.7,0-2.6,1.3-2.6,3.1c0,2.1,1,3,2.8,3c0.7,0,1.4-0.1,2-0.4l-0.1-1c-0.5,0.2-1.1,0.4-1.7,0.4c-1.1,0-1.7-0.6-1.7-2h3.7
		C50.8,60.7,50.8,60.5,50.8,60.3"/>
	<path class="st0" d="M56.2,63.7V60c0-0.7-0.2-1.1-0.9-1.1c-0.9,0-1.5,0.9-1.5,2.1v2.8h-1.2v-5.8h1.2c0,0.3,0,0.8-0.1,1.1l0,0
		c0.3-0.7,1-1.3,2-1.3c1.3,0,1.7,0.8,1.7,1.9v4.1H56.2z"/>
	<path class="st0" d="M61.5,56.1c0-0.4-0.3-0.7-0.7-0.7c-0.4,0-0.7,0.3-0.7,0.7c0,0.4,0.3,0.7,0.7,0.7
		C61.2,56.9,61.5,56.5,61.5,56.1 M63.8,56.1c0-0.4-0.3-0.7-0.7-0.7c-0.4,0-0.7,0.3-0.7,0.7c0,0.4,0.3,0.7,0.7,0.7
		C63.5,56.9,63.8,56.5,63.8,56.1 M64.7,60.7c0-2.1-1.1-2.9-2.7-2.9c-1.8,0-2.9,1.3-2.9,3.1c0,2.1,1,3,2.7,3
		C63.5,63.9,64.7,62.5,64.7,60.7 M63.4,60.8c0,1.4-0.7,2-1.5,2c-1,0-1.5-0.7-1.5-2c0-1.3,0.7-1.9,1.5-1.9
		C62.9,58.9,63.4,59.6,63.4,60.8"/>
	<path class="st0" d="M67.4,63.9c-0.4,0-0.9,0-1.2-0.1l0-1.1c0.4,0.1,0.8,0.2,1.3,0.2c0.7,0,1.2-0.3,1.2-0.8c0-1.2-2.6-0.5-2.6-2.5
		c0-1,0.8-1.8,2.4-1.8c0.3,0,0.7,0,1.1,0.1l0,1c-0.4-0.1-0.8-0.2-1.1-0.2c-0.7,0-1,0.3-1,0.7c0,1.1,2.6,0.6,2.6,2.5
		C69.9,63.1,69,63.9,67.4,63.9"/>
	<path class="st0" d="M72.7,63.9c-0.4,0-0.9,0-1.2-0.1l0-1.1c0.4,0.1,0.8,0.2,1.3,0.2c0.7,0,1.2-0.3,1.2-0.8c0-1.2-2.6-0.5-2.6-2.5
		c0-1,0.8-1.8,2.4-1.8c0.3,0,0.7,0,1.1,0.1l0,1c-0.4-0.1-0.8-0.2-1.1-0.2c-0.7,0-1,0.3-1,0.7c0,1.1,2.6,0.6,2.6,2.5
		C75.2,63.1,74.3,63.9,72.7,63.9"/>
	<path class="st0" d="M77.7,57.1c-0.4,0-0.8-0.4-0.8-0.8c0-0.4,0.4-0.8,0.8-0.8c0.4,0,0.8,0.3,0.8,0.8
		C78.5,56.7,78.1,57.1,77.7,57.1 M77,57.9h1.2v5.8H77V57.9z"/>
	<path class="st0" d="M81.4,63.9c-0.4,0-0.9,0-1.2-0.1l0-1.1c0.4,0.1,0.8,0.2,1.3,0.2c0.7,0,1.2-0.3,1.2-0.8c0-1.2-2.6-0.5-2.6-2.5
		c0-1,0.8-1.8,2.4-1.8c0.3,0,0.7,0,1.1,0.1l0,1c-0.4-0.1-0.8-0.2-1.1-0.2c-0.7,0-1,0.3-1,0.7c0,1.1,2.6,0.6,2.6,2.5
		C84,63.1,83,63.9,81.4,63.9"/>
	<path class="st0" d="M87.9,63.9c-1.5,0-2.6-0.7-2.6-2.8c0-1.9,0.9-3.2,2.9-3.2c0.4,0,0.9,0.1,1.3,0.2l-0.1,1.1
		c-0.4-0.1-0.7-0.2-1.2-0.2c-1.1,0-1.6,0.8-1.6,2c0,1.1,0.4,1.9,1.5,1.9c0.4,0,0.9-0.1,1.3-0.3l0.1,1.1
		C89.1,63.7,88.5,63.9,87.9,63.9"/>
	<path class="st0" d="M94.8,63.7V60c0-0.7-0.2-1.1-0.9-1.1c-0.9,0-1.5,0.9-1.5,2.1v2.8h-1.2v-8.5h1.2v2.6c0,0.4,0,0.8-0.1,1.2l0,0
		c0.3-0.7,1-1.2,2-1.2c1.3,0,1.7,0.8,1.7,1.9v4.1H94.8z"/>
	<path class="st0" d="M101.5,60h-2.4c0.1-0.8,0.6-1.3,1.3-1.3C101.1,58.7,101.6,59.2,101.5,60 M102.8,60.3c0-1.4-0.7-2.5-2.4-2.5
		c-1.7,0-2.6,1.3-2.6,3.1c0,2.1,1,3,2.8,3c0.7,0,1.4-0.1,2-0.4l-0.1-1c-0.5,0.2-1.1,0.4-1.7,0.4c-1.1,0-1.7-0.6-1.7-2h3.7
		C102.8,60.7,102.8,60.5,102.8,60.3"/>
	<polygon class="st0" points="109.8,56.9 109.8,63.7 108.5,63.7 108.5,56.9 106.4,56.9 106.4,55.9 112,55.9 112,56.9 	"/>
	<path class="st0" d="M115.8,60h-2.4c0.1-0.8,0.6-1.3,1.3-1.3C115.3,58.7,115.8,59.2,115.8,60 M117,60.3c0-1.4-0.7-2.5-2.4-2.5
		c-1.7,0-2.6,1.3-2.6,3.1c0,2.1,1,3,2.8,3c0.7,0,1.4-0.1,2-0.4l-0.1-1c-0.5,0.2-1.1,0.4-1.7,0.4c-1.1,0-1.7-0.6-1.7-2h3.7
		C117,60.7,117,60.5,117,60.3"/>
	<path class="st0" d="M120.9,63.9c-1.5,0-2.6-0.7-2.6-2.8c0-1.9,0.9-3.2,2.9-3.2c0.4,0,0.9,0.1,1.3,0.2l-0.1,1.1
		c-0.4-0.1-0.7-0.2-1.2-0.2c-1.1,0-1.6,0.8-1.6,2c0,1.1,0.4,1.9,1.5,1.9c0.4,0,0.9-0.1,1.3-0.3l0.1,1.1
		C122.2,63.7,121.6,63.9,120.9,63.9"/>
	<path class="st0" d="M127.8,63.7V60c0-0.7-0.2-1.1-0.9-1.1c-0.9,0-1.5,0.9-1.5,2.1v2.8h-1.2v-8.5h1.2v2.6c0,0.4,0,0.8-0.1,1.2l0,0
		c0.3-0.7,1-1.2,2-1.2c1.3,0,1.7,0.8,1.7,1.9v4.1H127.8z"/>
	<path class="st0" d="M134.9,63.7V60c0-0.7-0.2-1.1-0.9-1.1c-0.9,0-1.5,0.9-1.5,2.1v2.8h-1.2v-5.8h1.2c0,0.3,0,0.8-0.1,1.1l0,0
		c0.3-0.7,1-1.3,2-1.3c1.3,0,1.7,0.8,1.7,1.9v4.1H134.9z"/>
	<path class="st0" d="M139.8,56.3c0-0.4-0.4-0.8-0.8-0.8c-0.4,0-0.8,0.3-0.8,0.8c0,0.4,0.4,0.8,0.8,0.8
		C139.4,57.1,139.8,56.7,139.8,56.3 M139.6,57.9h-1.2v5.8h1.2V57.9z"/>
	<path class="st0" d="M142.8,63.9c-0.4,0-0.9,0-1.2-0.1l0-1.1c0.4,0.1,0.8,0.2,1.3,0.2c0.7,0,1.2-0.3,1.2-0.8c0-1.2-2.6-0.5-2.6-2.5
		c0-1,0.8-1.8,2.4-1.8c0.3,0,0.7,0,1.1,0.1l0,1c-0.4-0.1-0.8-0.2-1.1-0.2c-0.7,0-1,0.3-1,0.7c0,1.1,2.6,0.6,2.6,2.5
		C145.3,63.1,144.3,63.9,142.8,63.9"/>
	<path class="st0" d="M149.2,63.9c-1.5,0-2.6-0.7-2.6-2.8c0-1.9,0.9-3.2,2.9-3.2c0.4,0,0.9,0.1,1.3,0.2l-0.1,1.1
		c-0.4-0.1-0.7-0.2-1.2-0.2c-1.1,0-1.6,0.8-1.6,2c0,1.1,0.4,1.9,1.5,1.9c0.4,0,0.9-0.1,1.3-0.3l0.1,1.1
		C150.5,63.7,149.9,63.9,149.2,63.9"/>
	<path class="st0" d="M156.1,63.7V60c0-0.7-0.2-1.1-0.9-1.1c-0.9,0-1.5,0.9-1.5,2.1v2.8h-1.2v-8.5h1.2v2.6c0,0.4,0,0.8-0.1,1.2l0,0
		c0.3-0.7,1-1.2,2-1.2c1.3,0,1.7,0.8,1.7,1.9v4.1H156.1z"/>
	<path class="st0" d="M162.9,60h-2.5c0.1-0.8,0.6-1.3,1.3-1.3C162.5,58.7,162.9,59.2,162.9,60 M164.1,60.3c0-1.4-0.7-2.5-2.4-2.5
		c-1.7,0-2.6,1.3-2.6,3.1c0,2.1,1,3,2.8,3c0.7,0,1.4-0.1,2-0.4l-0.1-1c-0.5,0.2-1.1,0.4-1.7,0.4c-1.1,0-1.7-0.6-1.7-2h3.7
		C164.1,60.7,164.1,60.5,164.1,60.3"/>
	<polygon class="st0" points="173.9,63.7 173.9,60.2 170.1,60.2 170.1,63.7 168.9,63.7 168.9,55.9 170.1,55.9 170.1,59.1 
		173.9,59.1 173.9,55.9 175.1,55.9 175.1,63.7 	"/>
	<path class="st0" d="M181.1,60.8c0,1.4-0.7,2-1.5,2c-1,0-1.5-0.7-1.5-2c0-1.3,0.7-1.9,1.5-1.9C180.6,58.9,181.1,59.6,181.1,60.8
		 M182.4,60.7c0-2.1-1.1-2.9-2.7-2.9c-1.8,0-2.9,1.3-2.9,3.1c0,2.1,1,3,2.7,3C181.2,63.9,182.4,62.5,182.4,60.7"/>
	<path class="st0" d="M186.2,63.9c-1.5,0-2.6-0.7-2.6-2.8c0-1.9,0.9-3.2,2.9-3.2c0.4,0,0.9,0.1,1.3,0.2l-0.1,1.1
		c-0.3-0.1-0.7-0.2-1.2-0.2c-1.1,0-1.6,0.8-1.6,2c0,1.1,0.4,1.9,1.5,1.9c0.4,0,0.9-0.1,1.3-0.3l0.1,1.1
		C187.5,63.7,186.9,63.9,186.2,63.9"/>
	<path class="st0" d="M193.1,63.7V60c0-0.7-0.2-1.1-0.9-1.1c-0.9,0-1.5,0.9-1.5,2.1v2.8h-1.2v-8.5h1.2v2.6c0,0.4,0,0.8-0.1,1.2l0,0
		c0.3-0.7,1-1.2,2-1.2c1.3,0,1.7,0.8,1.7,1.9v4.1H193.1z"/>
	<path class="st0" d="M197.5,63.9c-0.4,0-0.9,0-1.2-0.1l0-1.1c0.4,0.1,0.8,0.2,1.3,0.2c0.7,0,1.2-0.3,1.2-0.8c0-1.2-2.6-0.5-2.6-2.5
		c0-1,0.8-1.8,2.4-1.8c0.3,0,0.7,0,1.1,0.1l0,1c-0.4-0.1-0.8-0.2-1.1-0.2c-0.7,0-1,0.3-1,0.7c0,1.1,2.6,0.6,2.6,2.5
		C200.1,63.1,199.1,63.9,197.5,63.9"/>
	<path class="st0" d="M204,63.9c-1.5,0-2.6-0.7-2.6-2.8c0-1.9,0.9-3.2,2.9-3.2c0.4,0,0.9,0.1,1.3,0.2l-0.1,1.1
		c-0.4-0.1-0.7-0.2-1.2-0.2c-1.1,0-1.6,0.8-1.6,2c0,1.1,0.4,1.9,1.5,1.9c0.4,0,0.9-0.1,1.3-0.3l0.1,1.1
		C205.3,63.7,204.6,63.9,204,63.9"/>
	<path class="st0" d="M210.9,63.7V60c0-0.7-0.2-1.1-0.9-1.1c-0.9,0-1.5,0.9-1.5,2.1v2.8h-1.2v-8.5h1.2v2.6c0,0.4,0,0.8-0.1,1.2l0,0
		c0.3-0.7,1-1.2,2-1.2c1.3,0,1.7,0.8,1.7,1.9v4.1H210.9z"/>
	<path class="st0" d="M218,63.8c0-0.3,0-0.8,0.1-1.1l0,0c-0.3,0.7-1,1.3-2,1.3c-1.3,0-1.7-0.8-1.7-1.9V58h1.2v3.7
		c0,0.7,0.2,1.1,0.9,1.1c0.9,0,1.5-0.9,1.5-2.1V58h1.2v5.8H218z"/>
	<rect x="221.4" y="55.2" class="st0" width="1.2" height="8.5"/>
	<path class="st0" d="M228.2,60h-2.5c0.1-0.8,0.6-1.3,1.3-1.3C227.7,58.7,228.2,59.2,228.2,60 M229.4,60.3c0-1.4-0.7-2.5-2.4-2.5
		c-1.7,0-2.6,1.3-2.6,3.1c0,2.1,1,3,2.8,3c0.7,0,1.4-0.1,2-0.4l-0.1-1c-0.5,0.2-1.1,0.4-1.7,0.4c-1.1,0-1.7-0.6-1.7-2h3.7
		C229.4,60.7,229.4,60.5,229.4,60.3"/>
	<path class="st0" d="M233.8,63.7v-1l3.1-4.9c0.2-0.3,0.4-0.6,0.6-0.9c-0.3,0-0.8,0-1.6,0h-2v-1.1h5.1v1l-3.3,5.1
		c-0.1,0.2-0.3,0.4-0.4,0.6c0.2,0,0.8,0,1.8,0h1.9v1.2H233.8z"/>
	<path class="st0" d="M244.8,56.1c0-0.4-0.3-0.7-0.7-0.7c-0.4,0-0.7,0.3-0.7,0.7c0,0.4,0.3,0.7,0.7,0.7
		C244.5,56.9,244.8,56.5,244.8,56.1 M242.6,56.1c0-0.4-0.3-0.7-0.7-0.7c-0.4,0-0.7,0.3-0.7,0.7c0,0.4,0.3,0.7,0.7,0.7
		C242.3,56.9,242.6,56.5,242.6,56.1 M245.5,63.8V58h-1.2v2.8c0,1.2-0.6,2.1-1.5,2.1c-0.7,0-0.9-0.4-0.9-1.1V58h-1.2V62
		c0,1,0.4,1.9,1.7,1.9c1,0,1.7-0.5,2-1.3l0,0c-0.1,0.3-0.1,0.8-0.1,1.1H245.5z"/>
	<path class="st0" d="M250.7,59c-1.2-0.2-1.7,0.6-1.7,2.3v2.4h-1.2v-5.8h1.2c0,0.3,0,0.8-0.1,1.3h0c0.3-0.8,0.8-1.5,1.9-1.4
		L250.7,59z"/>
	<path class="st0" d="M252.9,57.1c-0.4,0-0.8-0.4-0.8-0.8c0-0.4,0.4-0.8,0.8-0.8c0.4,0,0.8,0.3,0.8,0.8
		C253.6,56.7,253.3,57.1,252.9,57.1 M252.2,57.9h1.2v5.8h-1.2V57.9z"/>
	<path class="st0" d="M257.8,63.9c-1.5,0-2.6-0.7-2.6-2.8c0-1.9,0.9-3.2,2.9-3.2c0.4,0,0.9,0.1,1.3,0.2l-0.1,1.1
		c-0.4-0.1-0.7-0.2-1.2-0.2c-1.1,0-1.6,0.8-1.6,2c0,1.1,0.4,1.9,1.5,1.9c0.4,0,0.9-0.1,1.3-0.3l0.1,1.1
		C259,63.7,258.4,63.9,257.8,63.9"/>
	<path class="st0" d="M264.7,63.7V60c0-0.7-0.2-1.1-0.9-1.1c-0.9,0-1.5,0.9-1.5,2.1v2.8h-1.2v-8.5h1.2v2.6c0,0.4,0,0.8-0.1,1.2l0,0
		c0.3-0.7,1-1.2,2-1.2c1.3,0,1.7,0.8,1.7,1.9v4.1H264.7z"/>
	<path class="st0" d="M24.3,79.5c-0.6,0-1.1-0.1-1.6-0.2l0.1-1.2c0.4,0.2,1.1,0.3,1.6,0.3c0.9,0,1.6-0.4,1.6-1.2
		c0-1.7-3.4-1-3.4-3.5c0-1.4,1.1-2.3,2.9-2.3c0.5,0,0.9,0.1,1.4,0.1l-0.1,1.1c-0.5-0.1-1-0.2-1.4-0.2c-1,0-1.5,0.5-1.5,1.1
		c0,1.6,3.4,1,3.4,3.5C27.3,78.5,26.2,79.5,24.3,79.5"/>
	<path class="st0" d="M35.3,79.4h-1.4l-1-3c-0.1-0.4-0.2-0.8-0.3-1.2h0c-0.1,0.5-0.2,1-0.4,1.5l-0.9,2.8H30l-1.8-5.8h1.4l0.8,2.7
		c0.2,0.5,0.3,1.1,0.4,1.6h0c0.1-0.6,0.3-1.1,0.4-1.6l0.9-2.7h1.3l0.9,2.7c0.2,0.7,0.3,1.1,0.5,1.6h0c0.1-0.5,0.2-1,0.4-1.6l0.8-2.7
		h1.3L35.3,79.4z"/>
	<path class="st0" d="M39.3,72.7c-0.4,0-0.8-0.4-0.8-0.8c0-0.4,0.4-0.8,0.8-0.8c0.4,0,0.8,0.3,0.8,0.8
		C40.1,72.4,39.7,72.7,39.3,72.7 M38.6,73.6h1.2v5.8h-1.2V73.6z"/>
	<path class="st0" d="M43,79.5c-0.4,0-0.9,0-1.2-0.1l0-1.1c0.4,0.1,0.8,0.2,1.3,0.2c0.7,0,1.2-0.3,1.2-0.8c0-1.2-2.6-0.5-2.6-2.5
		c0-1,0.8-1.8,2.4-1.8c0.3,0,0.7,0,1.1,0.1l0,1c-0.4-0.1-0.8-0.2-1.1-0.2c-0.7,0-1,0.3-1,0.7c0,1.1,2.6,0.6,2.6,2.5
		C45.6,78.8,44.6,79.5,43,79.5"/>
	<path class="st0" d="M48.3,79.5c-0.4,0-0.9,0-1.2-0.1l0-1.1c0.4,0.1,0.8,0.2,1.3,0.2c0.7,0,1.2-0.3,1.2-0.8c0-1.2-2.6-0.5-2.6-2.5
		c0-1,0.8-1.8,2.4-1.8c0.3,0,0.7,0,1.1,0.1l0,1c-0.4-0.1-0.8-0.2-1.1-0.2c-0.7,0-1,0.3-1,0.7c0,1.1,2.6,0.6,2.6,2.5
		C50.9,78.8,49.9,79.5,48.3,79.5"/>
	<polygon class="st0" points="56.9,72.6 56.9,74.9 59.5,74.9 59.5,76 56.9,76 56.9,79.4 55.6,79.4 55.6,71.5 59.7,71.5 59.7,72.6 	
		"/>
	<path class="st0" d="M64.4,75.7H62c0.1-0.8,0.6-1.3,1.3-1.3C64,74.4,64.5,74.9,64.4,75.7 M65.7,76c0-1.4-0.7-2.5-2.4-2.5
		c-1.7,0-2.6,1.3-2.6,3.1c0,2.1,1,3,2.8,3c0.7,0,1.4-0.1,2-0.4l-0.1-1c-0.5,0.2-1.1,0.4-1.7,0.4c-1.1,0-1.7-0.6-1.7-2h3.7
		C65.7,76.4,65.7,76.2,65.7,76"/>
	<path class="st0" d="M70.9,76.4c0,1-0.5,2.1-1.4,2.1c-0.8,0-1.2-0.7-1.2-1.8c0-1.6,0.7-2.2,1.7-2.2c0.3,0,0.6,0,0.9,0.1V76.4z
		 M72.2,79.4v-8.5h-1.2v2.7c-0.3,0-0.6,0-0.9,0c-1.9,0-3,1.3-3,3.3c0,1.7,0.7,2.7,2.1,2.7c0.9,0,1.6-0.5,1.9-1.2h0
		C71,78.7,71,79.1,71,79.4H72.2z"/>
	<path class="st0" d="M77.7,75.7h-2.4c0.1-0.8,0.6-1.3,1.3-1.3C77.2,74.4,77.7,74.9,77.7,75.7 M78.9,76c0-1.4-0.7-2.5-2.4-2.5
		c-1.7,0-2.6,1.3-2.6,3.1c0,2.1,1,3,2.8,3c0.7,0,1.4-0.1,2-0.4l-0.1-1c-0.5,0.2-1.1,0.4-1.7,0.4c-1.1,0-1.7-0.6-1.7-2h3.7
		C78.9,76.4,78.9,76.2,78.9,76"/>
	<path class="st0" d="M83.7,74.7c-1.2-0.2-1.7,0.6-1.7,2.3v2.4h-1.2v-5.8h1.2c0,0.3,0,0.8-0.1,1.3h0c0.3-0.8,0.8-1.5,1.9-1.4
		L83.7,74.7z"/>
	<path class="st0" d="M88,76.9c0,0.8-0.6,1.6-1.4,1.6c-0.5,0-0.8-0.3-0.8-0.7c0-0.5,0.4-1.1,2.2-1.1V76.9z M89.3,79.4
		c0-0.5,0-1.1,0-1.6v-2.4c0-1.2-0.5-2-2.3-2c-0.8,0-1.5,0.2-2.1,0.4l0.1,1.1c0.5-0.3,1.2-0.5,1.7-0.5c0.9,0,1.2,0.4,1.2,1.1V76
		c-2.1,0-3.4,0.8-3.4,2.1c0,0.9,0.6,1.5,1.6,1.5c0.9,0,1.7-0.5,1.9-1.2l0,0c0,0.3-0.1,0.7-0.1,1.1H89.3z"/>
	<rect x="91.5" y="70.9" class="st0" width="1.2" height="8.5"/>
	<rect x="97.9" y="71.5" class="st0" width="1.3" height="7.9"/>
	<path class="st0" d="M105,79.4v-3.7c0-0.7-0.2-1.1-0.9-1.1c-0.9,0-1.5,0.9-1.5,2.1v2.8h-1.2v-5.8h1.2c0,0.3,0,0.8-0.1,1.1l0,0
		c0.3-0.7,1-1.3,2-1.3c1.3,0,1.7,0.8,1.7,1.9v4.1H105z"/>
	<path class="st0" d="M109.4,79.5c-0.4,0-0.9,0-1.2-0.1l0-1.1c0.4,0.1,0.8,0.2,1.3,0.2c0.7,0,1.2-0.3,1.2-0.8c0-1.2-2.6-0.5-2.6-2.5
		c0-1,0.8-1.8,2.4-1.8c0.3,0,0.7,0,1.1,0.1l0,1c-0.4-0.1-0.8-0.2-1.1-0.2c-0.7,0-1,0.3-1,0.7c0,1.1,2.6,0.6,2.6,2.5
		C111.9,78.8,110.9,79.5,109.4,79.5"/>
	<path class="st0" d="M115.6,79.5c-1.2,0-1.6-0.5-1.6-1.8v-3.2h-1.1v-1h1.1v-1.9l1.2-0.3v2.2h1.5v1h-1.5v2.8c0,0.9,0.2,1.1,0.8,1.1
		c0.3,0,0.5,0,0.8-0.1v1C116.4,79.5,115.9,79.5,115.6,79.5"/>
	<path class="st0" d="M119.1,72.7c-0.4,0-0.8-0.4-0.8-0.8c0-0.4,0.4-0.8,0.8-0.8c0.4,0,0.8,0.3,0.8,0.8
		C119.9,72.4,119.5,72.7,119.1,72.7 M118.5,73.6h1.2v5.8h-1.2V73.6z"/>
	<path class="st0" d="M123.7,79.5c-1.2,0-1.6-0.5-1.6-1.8v-3.2H121v-1h1.1v-1.9l1.2-0.3v2.2h1.5v1h-1.5v2.8c0,0.9,0.2,1.1,0.8,1.1
		c0.3,0,0.5,0,0.8-0.1v1C124.6,79.5,124.1,79.5,123.7,79.5"/>
	<path class="st0" d="M130.3,79.4c0-0.3,0-0.8,0.1-1.1l0,0c-0.3,0.7-1,1.3-2,1.3c-1.3,0-1.7-0.8-1.7-1.9v-4.1h1.2v3.7
		c0,0.7,0.2,1.1,0.9,1.1c0.9,0,1.5-0.9,1.5-2.1v-2.8h1.2v5.8H130.3z"/>
	<path class="st0" d="M135.5,79.5c-1.2,0-1.6-0.5-1.6-1.8v-3.2h-1.1v-1h1.1v-1.9l1.2-0.3v2.2h1.5v1h-1.5v2.8c0,0.9,0.2,1.1,0.8,1.1
		c0.3,0,0.5,0,0.8-0.1v1C136.4,79.5,135.9,79.5,135.5,79.5"/>
	<path class="st0" d="M141.7,75.7h-2.4c0.1-0.8,0.6-1.3,1.3-1.3C141.3,74.4,141.7,74.9,141.7,75.7 M143,76c0-1.4-0.7-2.5-2.4-2.5
		c-1.7,0-2.6,1.3-2.6,3.1c0,2.1,1,3,2.8,3c0.7,0,1.4-0.1,2-0.4l-0.1-1c-0.5,0.2-1.1,0.4-1.7,0.4c-1.1,0-1.7-0.6-1.7-2h3.7
		C143,76.4,143,76.2,143,76"/>
	<path class="st0" d="M151.5,76.5c0,1.4-0.7,2-1.5,2c-1,0-1.5-0.7-1.5-2c0-1.3,0.7-1.9,1.5-1.9C151,74.5,151.5,75.2,151.5,76.5
		 M152.7,76.4c0-2.1-1.1-2.9-2.7-2.9c-1.8,0-2.9,1.3-2.9,3.1c0,2.1,1,3,2.7,3C151.6,79.5,152.7,78.2,152.7,76.4"/>
	<path class="st0" d="M157.9,71.9c-0.3-0.1-0.5-0.1-0.8-0.1c-0.7,0-1.1,0.4-1.1,1.3v0.5h1.5v1H156v4.8h-1.2v-4.8h-1.1v-1h1.1v-0.4
		c0-1.6,0.8-2.4,2.3-2.4c0.3,0,0.6,0,0.9,0.1L157.9,71.9z"/>
	<polygon class="st0" points="164.2,72.6 164.2,79.4 162.9,79.4 162.9,72.6 160.8,72.6 160.8,71.5 166.4,71.5 166.4,72.6 	"/>
	<path class="st0" d="M171.4,76.6h-3.7c0,1.4,0.6,2,1.7,2c0.6,0,1.2-0.1,1.7-0.4l0.1,1c-0.6,0.2-1.3,0.4-2,0.4c-1.8,0-2.8-0.9-2.8-3
		c0-1.7,1-3.1,2.6-3.1c1.7,0,2.4,1.1,2.4,2.5C171.4,76.2,171.4,76.4,171.4,76.6 M169,74.4c-0.7,0-1.2,0.5-1.3,1.3h2.4
		C170.2,74.9,169.7,74.4,169,74.4"/>
	<path class="st0" d="M175.3,79.5c-1.5,0-2.6-0.7-2.6-2.8c0-1.9,0.9-3.2,2.9-3.2c0.4,0,0.9,0.1,1.3,0.2l-0.1,1.1
		c-0.4-0.1-0.8-0.2-1.2-0.2c-1.1,0-1.6,0.8-1.6,2c0,1.1,0.4,1.9,1.5,1.9c0.4,0,0.9-0.1,1.3-0.3l0.1,1.1
		C176.6,79.4,176,79.5,175.3,79.5"/>
	<path class="st0" d="M182.2,79.4v-3.7c0-0.7-0.2-1.1-0.9-1.1c-0.9,0-1.5,0.9-1.5,2.1v2.8h-1.2v-8.5h1.2v2.6c0,0.4,0,0.8-0.1,1.2
		l0,0c0.3-0.7,1-1.2,2-1.2c1.3,0,1.7,0.8,1.7,1.9v4.1H182.2z"/>
	<path class="st0" d="M189.3,79.4v-3.7c0-0.7-0.2-1.1-0.9-1.1c-0.9,0-1.5,0.9-1.5,2.1v2.8h-1.2v-5.8h1.2c0,0.3,0,0.8-0.1,1.1l0,0
		c0.3-0.7,1-1.3,2-1.3c1.3,0,1.7,0.8,1.7,1.9v4.1H189.3z"/>
	<path class="st0" d="M196.5,76.5c0,1.4-0.7,2-1.5,2c-1,0-1.5-0.7-1.5-2c0-1.3,0.7-1.9,1.5-1.9C196.1,74.5,196.5,75.2,196.5,76.5
		 M197.8,76.4c0-2.1-1.1-2.9-2.7-2.9c-1.8,0-2.9,1.3-2.9,3.1c0,2.1,1,3,2.7,3C196.7,79.5,197.8,78.2,197.8,76.4"/>
	<rect x="199.6" y="70.9" class="st0" width="1.2" height="8.5"/>
	<path class="st0" d="M206.8,76.5c0,1.4-0.7,2-1.5,2c-1,0-1.5-0.7-1.5-2c0-1.3,0.7-1.9,1.5-1.9C206.3,74.5,206.8,75.2,206.8,76.5
		 M208.1,76.4c0-2.1-1.1-2.9-2.7-2.9c-1.8,0-2.9,1.3-2.9,3.1c0,2.1,1,3,2.7,3C206.9,79.5,208.1,78.2,208.1,76.4"/>
	<path class="st0" d="M213.3,75.7c0,0.8-0.5,1.2-1.3,1.2c-0.8,0-1.3-0.4-1.3-1.2c0-0.7,0.5-1.2,1.3-1.2
		C212.8,74.4,213.3,74.9,213.3,75.7 M214.9,80.2c0-1.1-0.7-1.7-2-1.7h-1c-0.7,0-1-0.1-1-0.4c0-0.2,0.1-0.3,0.3-0.4
		c0.2,0,0.4,0.1,0.7,0.1c1.6,0,2.5-0.9,2.5-2.1c0-0.4-0.2-0.8-0.4-1h0.9v-1h-2c-0.3-0.1-0.6-0.1-1-0.1c-1.7,0-2.6,1-2.6,2.3
		c0,0.7,0.3,1.3,0.9,1.6c-0.4,0.2-0.7,0.6-0.7,1c0,0.4,0.2,0.7,0.6,0.9c-0.5,0.3-0.9,0.8-0.9,1.5c0,1.1,0.9,1.7,2.5,1.7
		C213.7,82.4,214.9,81.4,214.9,80.2 M213.7,80.4c0,0.6-0.6,1.1-1.7,1.1c-0.8,0-1.4-0.4-1.4-1c0-0.4,0.2-0.7,0.6-1c0.1,0,0.2,0,0.3,0
		h1.1C213.3,79.5,213.7,79.9,213.7,80.4"/>
	<path class="st0" d="M219.1,80c-0.7,1.8-1.3,2.4-2.6,2.4c-0.2,0-0.6,0-0.8-0.1l0.1-1.1c0.3,0.1,0.5,0.1,0.8,0.1
		c0.6,0,0.9-0.3,1.3-1.3l0.2-0.6l-2.2-5.8h1.4l0.9,2.7c0.2,0.5,0.3,1,0.5,1.5h0c0.1-0.5,0.4-1.2,0.6-1.8l0.8-2.4h1.3L219.1,80z"/>
	<path class="st0" d="M225.4,79.4v-1l3.1-4.9c0.2-0.3,0.4-0.6,0.6-0.9c-0.3,0-0.8,0-1.6,0h-2v-1.1h5.1v1l-3.3,5.1
		c-0.1,0.2-0.3,0.4-0.4,0.6c0.2,0,0.8,0,1.8,0h1.9v1.2H225.4z"/>
	<path class="st0" d="M236,79.4c0-0.3,0-0.8,0.1-1.1l0,0c-0.3,0.7-1,1.3-2,1.3c-1.3,0-1.7-0.8-1.7-1.9v-4.1h1.2v3.7
		c0,0.7,0.2,1.1,0.9,1.1c0.9,0,1.5-0.9,1.5-2.1v-2.8h1.2v5.8H236z"/>
	<path class="st0" d="M242.3,74.7c-1.2-0.2-1.7,0.6-1.7,2.3v2.4h-1.2v-5.8h1.2c0,0.3,0,0.8-0.1,1.3h0c0.3-0.8,0.8-1.5,1.9-1.4
		L242.3,74.7z"/>
	<path class="st0" d="M245.3,72c0-0.4-0.4-0.8-0.8-0.8c-0.4,0-0.8,0.4-0.8,0.8c0,0.4,0.4,0.8,0.8,0.8
		C244.9,72.7,245.3,72.4,245.3,72 M245.1,73.6h-1.2v5.8h1.2V73.6z"/>
	<path class="st0" d="M249.4,79.5c-1.5,0-2.6-0.7-2.6-2.8c0-1.9,0.9-3.2,2.9-3.2c0.4,0,0.9,0.1,1.3,0.2l-0.1,1.1
		c-0.4-0.1-0.7-0.2-1.2-0.2c-1.1,0-1.6,0.8-1.6,2c0,1.1,0.4,1.9,1.5,1.9c0.4,0,0.9-0.1,1.3-0.3l0.1,1.1
		C250.7,79.4,250.1,79.5,249.4,79.5"/>
	<path class="st0" d="M256.4,79.4v-3.7c0-0.7-0.2-1.1-0.9-1.1c-0.9,0-1.5,0.9-1.5,2.1v2.8h-1.2v-8.5h1.2v2.6c0,0.4,0,0.8-0.1,1.2
		l0,0c0.3-0.7,1-1.2,2-1.2c1.3,0,1.7,0.8,1.7,1.9v4.1H256.4z"/>
</g>
</svg>
