<svg id="Ebene_1" data-name="Ebene 1" xmlns="http://www.w3.org/2000/svg" viewBox="0 0 449.28 177.21"><defs></defs><polygon class="cls-1" points="0 35.82 19.08 177.21 418.88 107.17 449.28 0 0 35.82">

</polygon><path d="M391,292.34c0,.27-.08.33-.24.16.11-.27.19-.32.24-.16m1.95-1c0,.27-.08.32-.24.16.1-.27.18-.33.24-.16m-7.54-2a.4.4,0,0,1,0,.65.41.41,0,0,1,0-.65m-.85-4.54a.29.29,0,0,1-.28-.24c.32-.16.51-.1.56.16-.05.06-.14.08-.28.08m-11.22-3.36c-.06-.08-.11-.06-.16.05v.08c.16,0,.21-.05.16-.13m-21.66-.12c.27.06.3.25.08.57-.21-.22-.24-.4-.08-.57m-4.37-.32c0,.27-.08.32-.24.16.1-.27.18-.32.24-.16m26.52.49-.65.08v-.08l.16-.65a1.41,1.41,0,0,1,.49.65m-20.81-.78c-.08,0-.09.07,0,.13h.08v-.08c0-.06,0-.07,0-.05m-4.42-.36c0,.27-.08.32-.24.16.11-.27.19-.32.24-.16m4.46.41v.08H353c-.43-.06-.59-.21-.49-.45A.52.52,0,0,1,353,280a.21.21,0,0,1,.24.24.89.89,0,0,1-.16.49m1.7-.57c0-.11-.11-.19-.32-.24a.83.83,0,0,1,.08.36.28.28,0,0,0,.16.28,1.17,1.17,0,0,0,.08-.4M381.89,278a.4.4,0,0,0,0,.65.41.41,0,0,0,0-.65m1.38.24c-.06-.26-.25-.32-.57-.16.05.16.14.24.28.24a.39.39,0,0,0,.29-.08m.08-1.37c-.27-.27-.49-.27-.65,0,.16.26.38.26.65,0m-2,.81h.32l-.73-.37a1.39,1.39,0,0,1-.72-.69c-.11.43-.06.72.16.85a1.79,1.79,0,0,0,1,.21m-4.21-.89a1.89,1.89,0,0,1-.08.56l-.65-1c0-.06-.07-.07-.21,0a.23.23,0,0,1-.28-.12q.33-.33.57,0l.08.16c.38,0,.57.13.57.41m3.72-.09-.08.25V277h.65c-.33-.71-.62-1-.89-1a.65.65,0,0,0-.4.24q.72.07.72.48M354.64,275a.93.93,0,0,1,.08,1,1.46,1.46,0,0,1-.12-.33,2,2,0,0,1,0-.65m22.95.49a.45.45,0,0,1-.16.32,1.73,1.73,0,0,0-.4-.12.5.5,0,0,1-.37-.2,1.41,1.41,0,0,1-.12-.73l.61.28c.29.14.44.29.44.45m-.56-1.13c-.27,0-.3-.06-.09-.17a.23.23,0,0,1,.21.08c0,.06,0,.09-.12.09m-1.83-.09c0,.06-.09.09-.2.09s-.19-.17.08-.17c.11,0,.15,0,.12.08m5.63,1h.24l-.72-.82a1.63,1.63,0,0,0-1.22-.64,1.41,1.41,0,0,0,.57.93,1.69,1.69,0,0,0,1.13.53m-26.49-1.46-.4.32c0,.05,0,.08-.05.08h0c.17.17.19.45.09.85a4.06,4.06,0,0,0-.17,1,.84.84,0,0,0,.25.64,10.72,10.72,0,0,0,.32-1.05,4.93,4.93,0,0,0,.16-1.22.91.91,0,0,0-.16-.64m-1.78-.81c-.17.16-.27.16-.33,0a.22.22,0,0,1,.16-.08.22.22,0,0,1,.17.08m1.59-5.92c0,.27-.08.33-.24.17.11-.28.19-.33.24-.17m-4.21-2.91c0,.26-.08.32-.24.16.1-.27.19-.33.24-.16M341.55,261c0,.05,0,.08-.12.08-.27,0-.29-.06-.08-.17s.18,0,.2.09m26.24-3.08V258c.11.27.23.42.36.44s.21-.15.21-.52Zm0-.33a.31.31,0,0,0-.24-.32.75.75,0,0,0-.05.4c0,.11.13.19.29.25Zm5-5.51a.51.51,0,0,1-.24.08l-.16.25c-.11-.11-.08-.23.08-.37l.32-.28c.11.16.11.27,0,.32m.41-1.21c0,.27-.08.32-.24.16.1-.27.18-.32.24-.16m1-.89c0,.05,0,.08-.12.08-.27,0-.3-.06-.08-.16s.17,0,.2.08m-16.65.16a.72.72,0,0,1-.24.08l-.17.24c-.1-.1-.07-.23.09-.36l.32-.28c.11.16.11.27,0,.32m-17.77-1c.06.16.06.27,0,.32-.16-.16-.16-.27,0-.32m34.38.24c-.05.16-.14.11-.24-.16.16-.16.24-.11.24.16m-33-.57a.33.33,0,0,1-.24.33c-.17-.27-.11-.46.16-.57.05,0,.08.08.08.24m31.95-.64c.21.26.21.45,0,.56l-.16.08-.25.33a1.34,1.34,0,0,1,.17-.53,1.39,1.39,0,0,1,.24-.44m3.89-.33q.08.24,0,.33-.25-.25,0-.33m-35.92-.65a.5.5,0,0,1,0,.65c-.27-.16-.27-.38,0-.65m37.86,0a.54.54,0,0,1-.24.08c0,.17-.22.54-.82,1.14-.16-.22-.18-.39-.07-.53a3.32,3.32,0,0,1,.61-.53,1.76,1.76,0,0,0,.52-.48c.11.16.11.27,0,.32m-1.22-.48c-.05.21-.24.37-.56.48l-.25.33a1.53,1.53,0,0,1,.17-.53c.11-.24.24-.37.4-.37a.3.3,0,0,1,.24.09m.9-.82a.58.58,0,0,1-.25.09l-.16.24c-.11-.11-.08-.23.08-.36l.33-.29c.11.16.11.27,0,.32M342.81,245c0,.27-.08.33-.24.17.11-.27.19-.33.24-.17m38.1-.4q.24.33-.24.33Zm-40.69-1.54c.16.22.11.38-.16.49-.06,0-.09,0-.09-.13a.69.69,0,0,1,0-.24c0-.08.09-.12.2-.12m41.26-.81c-.21-.11-.19-.16.08-.16.11,0,.15,0,.13.08a.23.23,0,0,1-.21.08m-42.88-.49c0,.27-.08.33-.24.17.1-.27.18-.33.24-.17m34.38-.4c-.17-.27-.11-.46.16-.57.05,0,.08.08.08.25a.31.31,0,0,1-.24.32M344,240c-.11,0-.17,0-.17.08Zm1.25.77a5,5,0,0,1-.93,1.5,3.54,3.54,0,0,1-.65.73v-.16l.08-1.06v-.32c-.43-.11-.65-.22-.65-.32s.22-.3.65-.57c0,.38.14.57.41.57l.24-.08a1.45,1.45,0,0,1,.12-.65,2.57,2.57,0,0,1,.37-.53c.16-.19.29-.34.4-.45.27.22.26.66,0,1.34m-1.09-1.34a.46.46,0,0,1,.32.17,2.37,2.37,0,0,1-.48.4l0,0s-.06,0-.12,0c0-.43.11-.65.33-.65m4.78-.72c0-.11-.08-.2-.24-.25a2.94,2.94,0,0,1-.05.33.27.27,0,0,0,.21.32,1.47,1.47,0,0,0,.08-.4m-10.61-1.06q-.25.25-.33,0a.24.24,0,0,1,.16-.08.27.27,0,0,1,.17.08m24.77.17c.08-.06.07-.17,0-.33l-.16.33v.07a.4.4,0,0,0,.2-.07m-1.9-.21a2,2,0,0,1,.24-.44c.21.27.21.45,0,.56l-.16.09-.25.32a1.53,1.53,0,0,1,.17-.53m-7.13-.2c-.06.16-.14.11-.25-.16.17-.17.25-.11.25.16m-8.05,0c-.05.16-.13.11-.24-.16.16-.17.24-.11.24.16m1.79-.16-.33-.08h-.08l-.24.32c-.11-.22.16-.54.81-1,.16.48.1.73-.16.73m-1.79-.65c0,.27-.08.32-.24.16.11-.27.19-.32.24-.16m2.59-1c0,.26-.08.32-.24.16.11-.27.19-.32.24-.16m1.3-.08a.31.31,0,0,1-.24.32c-.17-.27-.11-.46.16-.57.05,0,.08.08.08.25m-8.1-.08c-.06.16-.14.1-.24-.17.16-.16.24-.1.24.17m11.91-.49c-.27,0-.3.05-.08.16s.17,0,.2-.08,0-.08-.12-.08m-9.48-.16c-.22-.11-.19-.17.08-.17q.16,0,.12.09s-.09.08-.2.08m8.61-1.1c0,.08,0,.12.08.12.27-.1.33-.26.16-.48a.19.19,0,0,0-.2.12,1,1,0,0,0,0,.24m1.68-.61c-.27,0-.49.27-.65.82a1.19,1.19,0,0,0,.65-.21,2.69,2.69,0,0,1,.57-.28h0a.9.9,0,0,0-.57-.33m-.38-.24-.16-.16c-.17-.11-.29-.09-.37,0a.54.54,0,0,0,0,.45Zm-3.51-.4c-.27.27-.49.27-.65,0,.16-.27.38-.27.65,0m14.36.4h.17c.11-.43,0-.65-.25-.65a1.25,1.25,0,0,0-.48.17c.11,0,.2.08.28.24s.18.24.28.24m-10.31-.24c.22-.32.19-.51-.08-.57-.16.16-.14.35.08.57m-12.15-.49a1.35,1.35,0,0,0-.57.73c-.22-.22-.31-.4-.29-.56s.18-.25.45-.25a1,1,0,0,1,.41.08m9.31-1c0,.27-.08.32-.24.16.11-.27.19-.32.24-.16m2.78-.41q.09.25,0,.33-.24-.24,0-.33m.63.33c.16,0,.24-.22.24-.65h-.65c.11.43.25.65.41.65m-3.41-2.51c.17.21.11.37-.16.48-.05,0-.08,0-.08-.12a.67.67,0,0,1,0-.24.19.19,0,0,1,.2-.12m1.3-.17c-.05.17-.13.11-.24-.16.16-.16.24-.11.24.16m.37-.72s0,.08-.13.08c-.27,0-.29-.06-.07-.17a.2.2,0,0,1,.2.09m-.37-.57c-.05.16-.13.11-.24-.16.16-.17.24-.11.24.16m13.31-1c.17-.28.38-.28.65,0-.27.26-.48.26-.65,0m-14-.41c0,.27-.08.32-.24.16.11-.27.19-.32.24-.16m10.32,23.58a2.61,2.61,0,0,1-.57.65,10,10,0,0,1-1,.6c-.44.25-.81.48-1.14.69a6.57,6.57,0,0,1-1.05.49,2.6,2.6,0,0,0-.89.48c-.22-.16-.24-.52-.08-1.09a6.4,6.4,0,0,0,.24-1,3.51,3.51,0,0,1,.16-.49.66.66,0,0,0,.08-.32c0-.11-.18-.25-.56-.41a2.93,2.93,0,0,0,.32-.81.73.73,0,0,0-.65-.73v.33c0,.1-.08.21-.24.32a3.29,3.29,0,0,1,.08-.61,2,2,0,0,1,.24-.61c.38.22.63.26.73.13a1.41,1.41,0,0,0,.21-.73.9.9,0,0,1,.44-.77c.11.21.25.31.41.28s.29-.17.4-.44a1.44,1.44,0,0,1-.69-.69,2.12,2.12,0,0,1-.28-1,1.39,1.39,0,0,1,.41-1.05q.48.41.72,0a3.16,3.16,0,0,0,.37-1.17c.08-.52.15-.88.2-1.1a3.45,3.45,0,0,1,1.05-1.09,5,5,0,0,0,1.14-1.1h-.08l.08-.07q-.57,0-.57-.33c0-.27.23-.63.69-1.09a8.77,8.77,0,0,0,.85-.93l.57-1.47a1.68,1.68,0,0,0,.12-.76,3.91,3.91,0,0,1,0-.61.74.74,0,0,1-.65-.41,1.46,1.46,0,0,1-.24-.73c0-.27.08-.4.24-.4a.71.71,0,0,1,.49.24c.32-.27.27-.54-.16-.81q.15-.15.24,0a.72.72,0,0,1,.08.24,6.76,6.76,0,0,0,.32-1,3,3,0,0,0-.57.33,1,1,0,0,1,0-1.06,7.28,7.28,0,0,1,1-1.21,3.27,3.27,0,0,0,.77-1.06.91.91,0,0,0,.65.33.67.67,0,0,0,.4-.24.71.71,0,0,0,.57.32,1.19,1.19,0,0,0,.48-.16.64.64,0,0,0,.41-.25,1.57,1.57,0,0,1,.4-.32,5.39,5.39,0,0,1,1.66-.32,7.28,7.28,0,0,0,1.58-.25,8.09,8.09,0,0,1,2.11-.44c.86-.08,1.46-.15,1.78-.2a3.79,3.79,0,0,1,1.18,0c.51,0,1,.08,1.33.08a2.73,2.73,0,0,0,1.71-.41,2.18,2.18,0,0,1,.4,1.3,8,8,0,0,1-1.09,3.68c-.73,1.38-1.15,2.2-1.26,2.48a17.5,17.5,0,0,1-1.7,2.67c-.27.43-.58,1-.93,1.54A7.81,7.81,0,0,1,374.6,238a8.13,8.13,0,0,0-1,1.37,7.43,7.43,0,0,1-.93,1.3,14.63,14.63,0,0,1-1.42,1,14.06,14.06,0,0,0-1.41,1,2.49,2.49,0,0,0-.49.64l-.24.49c-.11.11-.65.51-1.62,1.21-.33.27-.76.67-1.3,1.18a6.86,6.86,0,0,1-1.62,1.17c.16.22.19.38.08.49a1.37,1.37,0,0,1-.53.28,2.4,2.4,0,0,0-.6.29,2.64,2.64,0,0,0-.65.73m8-24.39c-.27,0-.3-.05-.08-.16s.17,0,.2.08,0,.08-.12.08M353,224.45c-.22-.11-.19-.17.08-.17.11,0,.15,0,.12.08s-.09.09-.2.09m-.49-.17c0,.27-.08.33-.24.17.11-.27.19-.33.24-.17m19.31-.08c-.16-.16-.16-.27,0-.32.05.16.05.27,0,.32m-17.65-.08c0,.06-.17.14-.44.24h-.08c-.11-.21-.12-.33,0-.36a4.37,4.37,0,0,0,.52-.28.68.68,0,0,1,0,.4m22.67-.4c.17-.27.38-.27.65,0-.27.27-.48.27-.65,0m-10.69-.09c.32-.16.51-.1.57.17a.44.44,0,0,1-.29.08c-.13,0-.23-.08-.28-.25m-9.76-2.18c0,.05,0,.08-.13.08-.27,0-.29-.06-.08-.16s.18,0,.21.08M405,296.39a.29.29,0,0,0-.08-.24c-.06-.06-.22-.07-.49,0l-.56,0-.89-.65-.49-.16-.49-.16a6.56,6.56,0,0,1-1.29-1,1.25,1.25,0,0,1-.29-.52,1,1,0,0,0-.36-.53,3.59,3.59,0,0,0-.81-.36,3.64,3.64,0,0,1-.81-.37c-.21-.16-.47-.34-.77-.53a1.59,1.59,0,0,1-.61-.6c-.21.21-.35.28-.4.2a2.31,2.31,0,0,1-.21-.4.88.88,0,0,0-.44-.45c-.05.16-.11.31-.16.45s-.11.25-.17.36l-.16-1.05c-.54.05-.81,0-.81-.08l.08-.33a1,1,0,0,0-.32-.65l-.65.65a.55.55,0,0,0-.73-.32l-.28.12q-.12,0-.12.12s.08.14.24.24c-.11.11-.24.09-.41-.08a.77.77,0,0,1-.24-.56.54.54,0,0,1,.16-.41,1.48,1.48,0,0,1-1.21-.57,2.33,2.33,0,0,1-.73-1,1.82,1.82,0,0,1,.16-.45,1.49,1.49,0,0,0,.16-.6.37.37,0,0,0-.08-.25.86.86,0,0,0-.73-.32,1.12,1.12,0,0,0-.81.24,4.92,4.92,0,0,0-.61-.77,3,3,0,0,0-.77-.53,2.25,2.25,0,0,0-.64-.2,1.75,1.75,0,0,1-.65-.2,6.72,6.72,0,0,1-.77-1,4.48,4.48,0,0,0-.85-1.05,2.49,2.49,0,0,0-.57-.17,1.08,1.08,0,0,1-.57-.24.51.51,0,0,1-.24-.32,2.94,2.94,0,0,0-.16-.41c-.22-.16-.51-.36-.89-.61a2.11,2.11,0,0,1-.81-.85,2.35,2.35,0,0,1,.56,0c.06,0,.08.11.08.24a.45.45,0,0,0,.25.37l.72.57a4.94,4.94,0,0,0,1.22.81,5.38,5.38,0,0,1,1,.61c.33.24.65.47,1,.69s.43.2.64.28a5.3,5.3,0,0,1,.65.28q0,.57.33.57l.64.24c.17-.32,0-.7-.4-1.13a7.41,7.41,0,0,1-.73-.81,1.39,1.39,0,0,1-.28-.45,1.25,1.25,0,0,0-.29-.44c-.32-.22-.52-.32-.6-.29l-.13,0-.24-.48a2.5,2.5,0,0,1-.81.24c-.16,0-.28-.18-.36-.53a2.3,2.3,0,0,0-.37-.85q-.16-.24-.81-.24H383c-.16,0-.24,0-.24-.08l0-.08a.61.61,0,0,1,.12-.16,1.32,1.32,0,0,0-.61-.29l-.68-.2-.73-.65a3.81,3.81,0,0,0-.65-.4,2.37,2.37,0,0,1-.57-.41l.08-.32a.6.6,0,0,0,.41.16c.21-.22.24-.38.08-.49a1,1,0,0,0-.57-.16v.32H379l-.36-.36-.36-.36a.33.33,0,0,0-.25-.09c.11-.05.36,0,.77.17l.85.32a.79.79,0,0,0-.08-.4.5.5,0,0,0-.28-.25c-.14-.05-.26-.11-.37-.16l.73-.32-.65-.57c0-.43-.19-.65-.56-.65,0-.38-.14-.56-.41-.56h-.16a.72.72,0,0,0-.41.07.45.45,0,0,1-.24.17c-.27,0-.32-.22-.16-.65s0-.65-.41-.65l-.24.08c-.43-.16-.65-.05-.65.32q.57,0,.57.33l-.08.33a4,4,0,0,1-.77-.62,2.71,2.71,0,0,0-.69-.52.88.88,0,0,0,.2-.65.32.32,0,0,0-.36-.32l-.49.24a1.33,1.33,0,0,0-.32-1,8.89,8.89,0,0,0-.85-.73,2.64,2.64,0,0,1-.77-.89.91.91,0,0,1,1,.08,5,5,0,0,1,1.13.89l.74.73c.26.16.55.32.84.48l.86.49.4.57c.27.37.54.54.81.48a1.7,1.7,0,0,0-.57-1.21l-.24.32c-.11-.21,0-.32.24-.32a.85.85,0,0,0-.6-.61,4.41,4.41,0,0,1-.77-.36l-.57-.57a2.25,2.25,0,0,0-.08-.65l-.49-.08a6.67,6.67,0,0,0-1.94-1.54,5.87,5.87,0,0,1-1.46-1l-3.24-2.68c-.49-.37-1-.72-1.54-1.05a.86.86,0,0,1-.16-.28.56.56,0,0,0-.25-.29l-.56.25c-.06-.59-.81-1.49-2.27-2.68q.16-.17.24,0a.54.54,0,0,1,.08.25,13,13,0,0,1,1.62-1.06l.89-.4a2.63,2.63,0,0,0,.89-.57,6.17,6.17,0,0,0,.29-.65,1.48,1.48,0,0,1,.32-.52,1.82,1.82,0,0,1,.69-.37,1.16,1.16,0,0,0,.2.16,1.63,1.63,0,0,0,.37.17,1.42,1.42,0,0,1,.4-.41h.41a.31.31,0,0,1,.32.16,3.24,3.24,0,0,1-.49.37c-.26.19-.4.31-.4.36.43.27.95.11,1.54-.48a1,1,0,0,0,.33-.65c0-.06,0-.08-.09-.08s-.24.11-.4.32c-.05-.05,0-.15.08-.28a1.05,1.05,0,0,1,.32-.29c.11.11.17.19.17.25s.36-.26.76-.94.69-1.12.86-1.33l1.09-.85a4.8,4.8,0,0,0,1.18-1.34l.64-.57v-1.13c.22-.65.54-1,1-1.14s.53,0,.64.13a1,1,0,0,1,.2.56.47.47,0,0,0,.37.45,2,2,0,0,1,.65-1.14,10.16,10.16,0,0,1,1.26-1.05,4.3,4.3,0,0,0,.93-.81,1.24,1.24,0,0,0,.4-.89l-.08-.81a1.12,1.12,0,0,1,.08-.48,1,1,0,0,0,.73.32,1.38,1.38,0,0,0,1-.49.87.87,0,0,1,.49-1.13,1,1,0,0,0,.49-.57l.4-1,.57-.49a1.84,1.84,0,0,1,.08-1.21c.22.16.39.17.53,0a3.06,3.06,0,0,0,.44-.69,6.29,6.29,0,0,0,.32-.73l-.72-.41c.05-.11.31-.27.77-.48a4,4,0,0,0,.85-.49,3.09,3.09,0,0,0-.57-.4c-.27-.17-.41-.27-.41-.33a2.15,2.15,0,0,0,1-.61,2.13,2.13,0,0,1,1-.6c-.22-.27-.25-.47-.08-.61s.38-.07.64.2a5.58,5.58,0,0,0,.33-1.78,2.3,2.3,0,0,0-.57-1.7c.16-.11.26-.11.29,0a.18.18,0,0,0,.2.16c.32,0,.48-.27.48-.65l-.08-.73a4.66,4.66,0,0,0-.48-1.7l-.49-1a13.13,13.13,0,0,0-2.51-3.32l-1.22-1.46a29.83,29.83,0,0,0-2.59-2.68l-1.46-1.37a5.42,5.42,0,0,0-1.49-1q-.85-.41-1.26-.57l-.61-.37a3.3,3.3,0,0,0-.69-.36h-1c-.27.11-.46,0-.57-.32a11.82,11.82,0,0,0-1.78-.17,8,8,0,0,1-1.21-.08.53.53,0,0,0-.57.25c-.16-.33-.38-.44-.65-.33l-1.7.33a16.6,16.6,0,0,1-1.7.32h-.49c-.21.38-.43.38-.65,0l-1.13.08a3.25,3.25,0,0,1-1.54-.49,7.33,7.33,0,0,1-1-.77,1.77,1.77,0,0,0-1.1-.52,1.1,1.1,0,0,0-1,.48,4.28,4.28,0,0,0-.53,1.3l-.28,1.13a2.26,2.26,0,0,1-.65.81,3.69,3.69,0,0,1-1,.57,9.11,9.11,0,0,0-1,.41l-.69.44a1.51,1.51,0,0,1-.77.28.71.71,0,0,1-.49-.24c-.38.65-1.56,1.38-3.56,2.19a3.85,3.85,0,0,1-.9.28,3.1,3.1,0,0,0-1,.37c-.28.16-.56.35-.86.56a9,9,0,0,1-.85.57,39,39,0,0,1-3.48,2.27,7.76,7.76,0,0,1-.94.49,4.66,4.66,0,0,0-1.17.77c-.32.29-.32.63,0,1l.24-.32c.11.16-.25.43-1.09.81a8.23,8.23,0,0,0-1.42.72,6.65,6.65,0,0,0-1.38,1.58,16.37,16.37,0,0,1-1,1.42,4,4,0,0,1-.32.29,1.84,1.84,0,0,0-.4.44,1,1,0,0,0-.09.45.58.58,0,0,1-.16.44,2,2,0,0,1-.48.49,1.17,1.17,0,0,0-.41.57l-.08.56a.63.63,0,0,1,.08.57.24.24,0,0,1-.2.08.32.32,0,0,0-.21.08,2.37,2.37,0,0,1-.44.53c-.24.24-.37.42-.37.53s.1.24.29.24h.36c0,.05-.21.19-.65.4l.57.41-.57.12c-.1,0-.17.12-.2.28a1.78,1.78,0,0,1-.2.57,3.82,3.82,0,0,0-.12.69q0,.36-.12.69a4.86,4.86,0,0,0-.25,1.46,8.63,8.63,0,0,0,.25,1.78c.05.27.12.73.2,1.38a9.2,9.2,0,0,0,.36,1.7,5.44,5.44,0,0,0,.57,1.13l.49.49a1.18,1.18,0,0,0,.08.73A4.28,4.28,0,0,1,337,250a4.86,4.86,0,0,1,1.29.08.64.64,0,0,1,.28.36.64.64,0,0,0,.37.37.8.8,0,0,1,.32.16.77.77,0,0,0,.41.16h.08c.16,0,.31-.3.44-.73a3.74,3.74,0,0,0,.21-1.13v-.16c-.06-.49-.22-.73-.49-.73l-.57.08h-.08c0-.06,0-.12-.12-.21a1.18,1.18,0,0,0-.28-.2c.16-.11.24-.09.24,0s0,.21.08.21a.58.58,0,0,0,.49-.37,2.64,2.64,0,0,1,.16-.44,2,2,0,0,0,.08-.57,1,1,0,0,1,.16-.57,1.19,1.19,0,0,1,.45-.49,2.19,2.19,0,0,0,.52-.4,1.35,1.35,0,0,1-.32-1,2.55,2.55,0,0,1,.16-.81.36.36,0,0,0,.49.08,1.48,1.48,0,0,0,.45-.61c.13-.3.23-.5.28-.61l1-1.86q.07-.24.33-.93a1.73,1.73,0,0,1,.48-.85.75.75,0,0,1,.28.08.69.69,0,0,0,.45,0c.11-.06.11-.12,0-.2s-.16-.15-.16-.21a.34.34,0,0,0,.2-.12,1,1,0,0,0,.2-.28c.17.21.17.32,0,.32h-.24a.58.58,0,0,0,.41.57,2,2,0,0,0,.48.16c.16-.48.33-.92.49-1.3a2.36,2.36,0,0,1,.52-.89,2.28,2.28,0,0,1,.45-.32c.11-.11.47-.43,1.09-1s.86-1,.69-1.46a1.26,1.26,0,0,0-.73.65c-.05-.06,0-.18.08-.37a1.06,1.06,0,0,0,.17-.53l-.08-.73c0-.16.16-.37.48-.64a2.19,2.19,0,0,1,.57-.41,1.59,1.59,0,0,0,.48-.32,1,1,0,0,0,.17-.28,2.57,2.57,0,0,1,.16-.37,2,2,0,0,1,1.05-.49.79.79,0,0,1,.57.25c.05-.11.16-.3.32-.57a1.78,1.78,0,0,1,.73-.65c.17.16.2.3.12.41s.1.27.53.48c.06-.75.27-1.13.65-1.13a.6.6,0,0,1,.52.32,1.32,1.32,0,0,1,.21.73,2.57,2.57,0,0,1-.17.73,1.59,1.59,0,0,0-1.13-.32c-.43,0-.65.19-.65.57v.08c-.27,0-.35.1-.24.32l.33-.32q2.34,0,2.34,1.05a1.46,1.46,0,0,1-.24.73,1.78,1.78,0,0,1-.65.73.74.74,0,0,1,0,.81l-.57,1.46c-.05.11-.26.7-.64,1.78a1.66,1.66,0,0,0-.21.77,4.21,4.21,0,0,1-.12.85c-.11.22-.28.55-.53,1a4.11,4.11,0,0,0-.44,1.42,2.77,2.77,0,0,0-.08.61,1.14,1.14,0,0,1-.12.52.91.91,0,0,1-.45.41,1.55,1.55,0,0,1,.41.65s-.06.11-.16.16a.86.86,0,0,0-.33.33,2,2,0,0,1-.32.48c-.11.11-.17.19-.17.24a1.49,1.49,0,0,0,.25.57,5.66,5.66,0,0,0-.49.4.6.6,0,0,0-.16.41,2.67,2.67,0,0,1-.08.57.82.82,0,0,1-.24.89c-.38.32-.41.57-.08.73a2.58,2.58,0,0,1-.37.61,3.68,3.68,0,0,0-.44.68,3.22,3.22,0,0,0-.21.69c-.08.35-.15.61-.2.77a1.11,1.11,0,0,1-.69.53l-.69.2a8.28,8.28,0,0,1-1.86.65,23.3,23.3,0,0,0-3.48,1.14,7,7,0,0,0-.78.16,1.38,1.38,0,0,0-.84.4.42.42,0,0,0-.05.57,1.88,1.88,0,0,0,.61.44l.57.29a4.28,4.28,0,0,1,.73.77,2.88,2.88,0,0,0,.81.77,1.77,1.77,0,0,0,.65.08c.26,0,.4.05.4.16a.52.52,0,0,1-.16.4.82.82,0,0,0-1,.33l-.57-.65a1.62,1.62,0,0,0-.77.41,1.58,1.58,0,0,1-.77.4c-.27.27-.51.24-.73-.08l-1.13.57a1.82,1.82,0,0,1-1.06.24,1.52,1.52,0,0,1-.8-.24,1.09,1.09,0,0,1-.25.4.47.47,0,0,0-.16.33l.16.32c.16.32.35.49.57.49s.24-.08.4-.25c.22.44.41.65.57.65a1,1,0,0,0,.45-.16,1.15,1.15,0,0,1,.6-.16c.17.05.42.15.77.28a2.36,2.36,0,0,0,.69.2c.16.27.44.33.81.16a.74.74,0,0,1,1,.33c.17.43.38.43.65,0,.49.27.81.16,1-.33.11.11.09.2-.08.25s-.19.19-.08.4a.69.69,0,0,0,.73.41.88.88,0,0,1,.65.24,1.21,1.21,0,0,1,.24.73l-.08.41a2.17,2.17,0,0,1-.28.81,7.23,7.23,0,0,0-.37.81c-.05.37-.11,1-.16,1.78a7.84,7.84,0,0,1-.4,2.11,16.69,16.69,0,0,0-1,4c-.11,1.08-.17,1.81-.17,2.18s.06,1,.17,2.11a12.71,12.71,0,0,1,.08,1.46,9.16,9.16,0,0,0,.08,1.38,2.71,2.71,0,0,0,.56,1.21,3.8,3.8,0,0,0,1.3,1.06,6.15,6.15,0,0,0,1.62.64,5,5,0,0,0,1.22.08q1.69,0,1.86-.48c-.32-.32-.16-.84.48-1.54.28-.43.48-.77.61-1a.72.72,0,0,0,0-.77c.33-.11.54-.14.65-.08a4.54,4.54,0,0,1,1.3-3.08l.64-.33c.33-.27.33-.48,0-.65a.75.75,0,0,0,.33-.64V275c-.22-.54-.11-.84.32-.89a.8.8,0,0,0-.28-.69,1.15,1.15,0,0,1-.37-.36,1.35,1.35,0,0,1,.05-1c.13-.33.23-.57.28-.73a9.71,9.71,0,0,1,.37-1.42,6.12,6.12,0,0,0,.28-1.66,1.17,1.17,0,0,0,.44.16q.12,0,.21-.24a2.06,2.06,0,0,1,.16-.41,7.83,7.83,0,0,0,1.62,1.5c.64.46,1,.74,1.21.85a9.75,9.75,0,0,1,1.78,1.22l2.52,2c-.11-.11.75.6,2.59,2.11l1.7,1.3c.49.37.92.7,1.3,1-.11-.11.67.51,2.35,1.86.54.43,1.54,1.16,3,2.19l2.27,1.62c.22.16.79.64,1.71,1.42a15.27,15.27,0,0,0,2.75,1.9,4,4,0,0,0,.61.16,2,2,0,0,1,.61.25l.56.89a2.25,2.25,0,0,1,.73.08A3.36,3.36,0,0,1,384,289a4.22,4.22,0,0,1,.9.81.78.78,0,0,0,.72.57.93.93,0,0,0,.41-.08,5.31,5.31,0,0,1,1,.88,3.18,3.18,0,0,0,1.34.9,11.19,11.19,0,0,1,2.76,1.46,14,14,0,0,0,3.32,1.62,8,8,0,0,1,1,.48,3,3,0,0,0,1.34.41.87.87,0,0,0,.65-.25,6.61,6.61,0,0,1,.6.41,2.45,2.45,0,0,1,.61.57,5.19,5.19,0,0,0,2.43.48,17.25,17.25,0,0,0,2.92-.16c.65-.16,1-.4,1-.73M291.77,278.24a.45.45,0,0,0,.08.33,1.43,1.43,0,0,1-.65-1.14,1.34,1.34,0,0,1,.49-.89,1.09,1.09,0,0,1,.24.65,1.91,1.91,0,0,1-.08.57,1.34,1.34,0,0,0-.08.48M289.18,276l.08-1.71a1.91,1.91,0,0,1,.52,1,7.46,7.46,0,0,1,.16,1.25,4.71,4.71,0,0,0,.21,1.18,1.85,1.85,0,0,1-1-1.7M321,268.6a.46.46,0,0,1,0-.4l.81-.08a1.4,1.4,0,0,0-.13.36c0,.13-.17.2-.44.2a.15.15,0,0,1-.24-.08m-27.95-2.87c-.17,0-.17.12,0,.28a1.07,1.07,0,0,1,.24.65,1.49,1.49,0,0,1-.24.73,8.73,8.73,0,0,0-.33,2.59c0,.21-.16.43-.49.65a4.64,4.64,0,0,1-.08-1,16.35,16.35,0,0,1,.33-2.75,16.07,16.07,0,0,0,.32-1.7.48.48,0,0,0,.28.32.79.79,0,0,0,.29.08.6.6,0,0,1-.32.13m1.37,1a5.76,5.76,0,0,1-.24,1.78l-.16.33a.79.79,0,0,0-.08.4.29.29,0,0,0,.08.24.66.66,0,0,1,0,.45.47.47,0,0,1-.33.16l-.32,0c.05-.11.21-.89.48-2.35a13.11,13.11,0,0,1,.57-2.67ZM290.31,265a36.31,36.31,0,0,0-.89,7.13,2.43,2.43,0,0,1-.16-1.22,22,22,0,0,1,.36-3.64c.24-1.41.47-2.17.69-2.27m2.84-1.54v-.25l.65.17q-.09.24-.21.69a1.14,1.14,0,0,1-.52.68A.84.84,0,0,1,293,264a2.16,2.16,0,0,0,.13-.61m3.89-7.7c-.65,1.83-1.19,3.62-1.62,5.35h-.17a13.92,13.92,0,0,0,.17-1.5,3.21,3.21,0,0,1,.64-1.82,3.86,3.86,0,0,0,.25-1.71.69.69,0,0,1,.11-.44.26.26,0,0,1,.33,0,.72.72,0,0,0,.29.12m-1.71.36c-.11,0-.19-.06-.24-.28s.19-.46.57-.57c-.11.22-.14.36-.08.41a.32.32,0,0,0,0,.16.32.32,0,0,1,0,.24l-.25,0m.82-7.49.8-1.13c-.05.16-.12.39-.2.68a.56.56,0,0,1-.6.45m1.41-4.38a1.78,1.78,0,0,1,.53-.56,1.89,1.89,0,0,1-.08.56.35.35,0,1,1-.45,0m-2.14,1.14c-.28,1.08-.65,2.35-1.14,3.81a8.32,8.32,0,0,0-.53,1.7c-.13.65-.26,1.19-.36,1.62a2.7,2.7,0,0,0-.57,1.54,2.06,2.06,0,0,0,.25,1,.65.65,0,0,0-.37,0c-.08,0-.15.15-.2.37a13.94,13.94,0,0,1-.57,2.1,18.26,18.26,0,0,0-.65,2.84c0,.11-.12.25-.2.44a3.63,3.63,0,0,0-.2.61q-.17-1.05,2.19-9.36c1.56-5.53,2.56-8.44,3-8.71a2.1,2.1,0,0,1-.2,1.18l-.44.93m5.26-2.23q.07,0,0,.12c-.22.87-.4,1.64-.57,2.31s-.3,1.26-.4,1.74-.41.65-1,.65a.3.3,0,0,1-.25-.4,2.88,2.88,0,0,0,.08-.41l-.08-.4a2.45,2.45,0,0,1-.08.48,1.78,1.78,0,0,1-.28.61,1.12,1.12,0,0,1-.77.37.44.44,0,0,1,0-.41,1,1,0,0,0,.12-.41.26.26,0,0,0-.16-.24l-.24.08a8.29,8.29,0,0,0,1.62-3.32,1.21,1.21,0,0,1,.24.73,2.37,2.37,0,0,1-.08.61,2,2,0,0,0-.09.6c0,.06.2.19.57.41a7.83,7.83,0,0,1,.2-2,2.37,2.37,0,0,1,1.1-1.29.12.12,0,0,0,.08.12m-1.95-1.82a1.73,1.73,0,0,1-.56,1.86,2.41,2.41,0,0,1,.56-1.86m1.34,0a2.88,2.88,0,0,1-.44.77,8.64,8.64,0,0,1,.32-1.46,1.48,1.48,0,0,1,.12.69m3.28-3.93a1,1,0,0,1-.24.73,2.05,2.05,0,0,0-.89,1.45,3.29,3.29,0,0,1-1.14,2.11c0-.16,0-.46.05-.89a1.85,1.85,0,0,1,.44-1.13,2.87,2.87,0,0,0,.89-2.11,1.89,1.89,0,0,1,.29-1.25c.24-.41.42-.72.52-.94.17.33.17.57,0,.73a1.58,1.58,0,0,0-.32.41c.27.11.4.4.4.89m-4.94-1.78.81-2.28h.33l-1,2.84-2.1,5.67h-.16c.26-1,1-3.1,2.1-6.23m1.34-3.49a3.9,3.9,0,0,0,.36-.73,2.08,2.08,0,0,1-.56,1.54,1.09,1.09,0,0,1,.2-.81m22.32-5.59V227a1.77,1.77,0,0,0-1.05.2,2.7,2.7,0,0,1-.9.28.67.67,0,0,1,0-.73,2.74,2.74,0,0,0,.29-.56l.57.36a1,1,0,0,0,.56.2,1.42,1.42,0,0,0,.57-.24m10.21-3c-.38.14-.54.26-.49.37s.11.13.16.08a.22.22,0,0,1,.17-.08c.05,0,0,.17,0,.36s0,.26.28.2a.6.6,0,0,0,.36-.08l.29-.16a.92.92,0,0,0,.4-.16c.06-.05.06-.19,0-.41h.45a.72.72,0,0,0,.52-.24,3,3,0,0,0-.81-.08,4,4,0,0,0-1.29.2m-4.54-1.5h0Zm.89-1.7.16-.08c-.27.27-.48.41-.65.41a.44.44,0,0,1-.32-.09c.11-.26.26-.37.45-.32a1.46,1.46,0,0,0,.36.08m9.48,7.58c-.16-.14-.24-.26-.24-.37.16-.05.42-.12.77-.2a4.5,4.5,0,0,0,1-.36,2.79,2.79,0,0,1-1.09-.08,4.06,4.06,0,0,0-1-.17h-.32c-.43,0-.65-.08-.65-.24a.66.66,0,0,0-.12-.45.67.67,0,0,0-.36-.16,4,4,0,0,0-.41,0l-1.62.08a.34.34,0,0,1,.12-.2.39.39,0,0,0,.12-.28,1,1,0,0,1-.65.16h-.4a.63.63,0,0,0-.65.4h-.24c-.16-.16-.28-.23-.36-.2a1.06,1.06,0,0,0-.37.29,2.13,2.13,0,0,1-.73.08,3.71,3.71,0,0,0-1.54-.33,14.86,14.86,0,0,0-1.86.16,13.8,13.8,0,0,1-1.46.17,7.39,7.39,0,0,0-1.78.32.14.14,0,0,1-.16-.16c.16-.06.49-.15,1-.29a2.45,2.45,0,0,0,.93-.36,5.39,5.39,0,0,1,.85-.16,1.1,1.1,0,0,0,.85-.49.87.87,0,0,1,.4-.32,1.45,1.45,0,0,1,.65-.16.88.88,0,0,1,.65.24c.06-.38.23-.6.53-.65a2.63,2.63,0,0,0,.61-.16,1,1,0,0,0,.36-.25s0-.18-.12-.4,0-.49.16-.49a.48.48,0,0,0,.41,0,1.47,1.47,0,0,1,.4-.08c.11.06.27,0,.49-.16a1,1,0,0,1,.48-.24.47.47,0,0,1,.33.16.79.79,0,0,0,.65,0,1.88,1.88,0,0,0,.56-.53,3.4,3.4,0,0,0-.85,0c-.29,0-.5,0-.61,0a.39.39,0,0,1-.28-.32c0-.16-.09-.22-.2-.16a4.09,4.09,0,0,1-.89.08h-.89a3.11,3.11,0,0,0-1.38.32.36.36,0,0,0,.28.08c.14,0,.18.06.12.17a2.5,2.5,0,0,1-1.37.32,1.93,1.93,0,0,1-1.3-.32,1.34,1.34,0,0,0,.57-.17c-.65,0-2.38.27-5.18.65-1.3.22-2.28.35-2.92.41a43.11,43.11,0,0,1,4.94-1l2.35-.36a17.43,17.43,0,0,0,3.4-.85.38.38,0,0,1-.33.2c-.16,0-.24.1-.24.2a3.38,3.38,0,0,1,1,0,1.24,1.24,0,0,0,1.17-.48c0-.05.14-.08.41-.08a2.54,2.54,0,0,0,.72.08,9.84,9.84,0,0,0,1.06-.08,3,3,0,0,1,1.05,0,1.24,1.24,0,0,0,.61-.12,1.07,1.07,0,0,0,.36-.45,3.35,3.35,0,0,0-1.37-.57h-.17a2.73,2.73,0,0,1-1.41,0,6.45,6.45,0,0,0-1.26-.2,11.48,11.48,0,0,0-1.3.08,11.17,11.17,0,0,1-1.29.08l-.89-.08A4,4,0,0,0,326,220a.53.53,0,0,1-.45-.08.94.94,0,0,0-.44-.16H325c-.44.1-1.11.31-2,.61a8.25,8.25,0,0,1-2.43.44,15.64,15.64,0,0,0-3.08.57,50.85,50.85,0,0,0-5.91,1.46c-.06,0-.15.06-.28.2s-.26.17-.37.12a.77.77,0,0,0-.77-.08l-.69.24a3.63,3.63,0,0,0-.61.2,3.64,3.64,0,0,1-.61.21c-.16.1-.31,0-.44-.21s-.26-.36-.37-.36a1.56,1.56,0,0,1-1.21-.49,1.88,1.88,0,0,0-1.14-.56l0,0s0-.09,0-.2a1.16,1.16,0,0,0-.68-.52,3.49,3.49,0,0,1-.85-.45,1,1,0,0,0-.49,0,.46.46,0,0,0-.33.2,13,13,0,0,1-.81,1.87l-.36.72a5.76,5.76,0,0,0-.37,1,31.87,31.87,0,0,1-1.29,3.08,7.47,7.47,0,0,0-.49,1.45,5.82,5.82,0,0,1-.57,1.54,6.93,6.93,0,0,0-.56,1.38,7.69,7.69,0,0,1-.41,1.14c-.27.91-.46,1.51-.56,1.78-.33.81-.61,1.55-.85,2.23s-.48,1.25-.69,1.74-.38,1.27-.65,2l-.57,1.78c-.27,1-.46,1.6-.57,1.87a4.15,4.15,0,0,1-.24.81,7.88,7.88,0,0,0-.32,1c-.16.43-.33.92-.49,1.46s-.27.95-.32,1.22-.35.9-.73,1.74a5.15,5.15,0,0,0-.49,2.47l-.08.16a.85.85,0,0,0-.49.73,1.39,1.39,0,0,1-.32.81.12.12,0,0,0,0,.16.55.55,0,0,1,0,.24c.16.38.16.63,0,.73a4.51,4.51,0,0,0-.48,1.54,9.41,9.41,0,0,1-.45,1.58,3.2,3.2,0,0,0-.2,1.75.67.67,0,0,1-.25.48,2.32,2.32,0,0,0-1,1.78,8.08,8.08,0,0,1-.2,1.59,14,14,0,0,0-.28,1.66c-.06.53-.18,1.55-.37,3a18.45,18.45,0,0,0-.12,4v.77a7.57,7.57,0,0,0,.12,1.3,1.88,1.88,0,0,0,.77,1.18.33.33,0,0,1-.24.08.14.14,0,0,0-.16.16c.43,0,.64.05.64.16l-.16.49a.82.82,0,0,1,0,.28.36.36,0,0,0,0,.28,3.51,3.51,0,0,0,2.35,1.3,6.71,6.71,0,0,0,.93.12,1.15,1.15,0,0,1,.93.53c.06-.27.23-.32.53-.16s.5.08.61-.25c.1.22.2.42.28.61s.15.34.2.45a1.38,1.38,0,0,0,1.14.81,1.49,1.49,0,0,0,.57-.08l2.59-1,2.59-1c1.73-.43,3-.73,3.89-.89.38-.11,1.16-.3,2.35-.57a7.62,7.62,0,0,1,1.3-.36,7,7,0,0,0,1.29-.37c.27,0,.41-.05.41-.16s0-.35.12-.4a.84.84,0,0,1,.36-.08h.78a1.55,1.55,0,0,0,.84-.17,3.38,3.38,0,0,1,1.78-.4H315a.89.89,0,0,0,.45-.12.77.77,0,0,0,.28-.29.89.89,0,0,1,.89-.65H317c.06,0,.14-.1.25-.32a1.64,1.64,0,0,0-.89-.2,1.22,1.22,0,0,1-1.06-.61.92.92,0,0,0,.61-.24,2.28,2.28,0,0,1,.45-.32c.05.1.15.26.28.48a1.15,1.15,0,0,1,.2.65,2.25,2.25,0,0,0,.41,0,1.54,1.54,0,0,0,.49-.2.57.57,0,0,0-.41-.17.53.53,0,0,1-.33-.08c.11-.7.44-1.05,1-1.05h.16a15.11,15.11,0,0,0,1.78-.25c.11.11.12.21,0,.29s-.09.15,0,.2a6.85,6.85,0,0,0,1.06-.57,3.27,3.27,0,0,1,1.05-.48,17.38,17.38,0,0,0-1.87.08.29.29,0,0,1-.32-.33.28.28,0,0,1,0-.28.29.29,0,0,1,.24-.12,1.54,1.54,0,0,0,.61-.12,1.54,1.54,0,0,1,.61-.12,1.35,1.35,0,0,0,1.22-.25,1.26,1.26,0,0,0-.9-.4,1,1,0,0,0-.4.08c-.11,0-.33,0-.65,0a1.39,1.39,0,0,0-.89.45.48.48,0,0,1-.49,0,.65.65,0,0,1-.32-.45.54.54,0,0,1,.61-.24,3.1,3.1,0,0,0,.6.08.65.65,0,0,0,.65-.32l-.36,0a.23.23,0,0,1-.29-.12,5.71,5.71,0,0,1,1.06-.56,2.06,2.06,0,0,0,1-1c.11-.1.22-.08.33.09s.21.16.32,0a1.32,1.32,0,0,0-.08-1,.33.33,0,0,1,.24-.08.14.14,0,0,0,.16-.16.58.58,0,0,1-.32-.57l1.46.17a2.6,2.6,0,0,1-.81.48c.38,0,.82-.09,1.33-.12a4,4,0,0,0,1.34-.28,1.12,1.12,0,0,0-.65,0,1.1,1.1,0,0,1-.73-.08c.76-.33,1.42-.59,2-.78l1.41-.44a14.93,14.93,0,0,0,1.62-.49,19.89,19.89,0,0,0,2.27-.89,1.34,1.34,0,0,0-.64-.24,1.64,1.64,0,0,0-.57.08,1.4,1.4,0,0,1-.49.08c-2.1.32-3.62.51-4.53.57a.6.6,0,0,0-.45.24,1.44,1.44,0,0,0-.28.49,1,1,0,0,1-.16-.65v-.41a3.5,3.5,0,0,0,.89.08,1.42,1.42,0,0,0,1.05-.4,9.09,9.09,0,0,0-1.13-.24,1.32,1.32,0,0,0-.57.08,3.57,3.57,0,0,1-1.22.32,2.54,2.54,0,0,1-.73-.16,1.4,1.4,0,0,0-.81.12,2.94,2.94,0,0,1-.81.2l-3.88.49a16.77,16.77,0,0,0-1.71.4,22,22,0,0,1-3.48.57,28.73,28.73,0,0,0-4.38.49,56.86,56.86,0,0,0-6.07,1.13l-1.87.57c-.21.05-.52.15-.93.28a3.13,3.13,0,0,1-1,.2,1.24,1.24,0,0,1-.49-.07,1,1,0,0,1,0-.77c.11-.25.19-.42.25-.53l.24-2.76a5.39,5.39,0,0,1,.24-1.05,49.6,49.6,0,0,0,.89-3.32,1.34,1.34,0,0,1,.17-.57,1,1,0,0,1,.48-.48l2.19-1.06q1.62-.4,4.86-1.54c.49-.16.73-.43.73-.81.05-.05.12,0,.2.12s.18.18.29.13a7.74,7.74,0,0,1,1.7-.53l1.37-.29,3.33-.8a12.54,12.54,0,0,0,1.49-.41,4.58,4.58,0,0,1,1.83-.24,1.11,1.11,0,0,0,.65-.24,1.77,1.77,0,0,1,1.13-.66,1.93,1.93,0,0,1,.81.25h.08a.21.21,0,0,0-.12-.16c-.08-.06-.07-.14,0-.25a12.79,12.79,0,0,0,1.62-.73,3.68,3.68,0,0,1,1.95-.48.6.6,0,0,0-.08-.24.49.49,0,0,1,0-.41c.1-.38,0-.46-.41-.24a1,1,0,0,1-.44,0,.61.61,0,0,1-.29-.12c-.06-.27-.17-.35-.36-.25a1,1,0,0,1-.45.17,3,3,0,0,0-1,.48c0-.54-.25-.81-.73-.81h-.16a2.31,2.31,0,0,1-1.3.73.35.35,0,0,0-.37-.32h-.36a.57.57,0,0,1-.41-.17,1.58,1.58,0,0,1,.66-1,4.76,4.76,0,0,1,1.86-.4,1.43,1.43,0,0,0,.93-.21,2.06,2.06,0,0,1,.77-.28l.33.08v-.24c-.11-.11-.31-.11-.57,0a1.88,1.88,0,0,1-.65.16.67.67,0,0,1-.49-.32.45.45,0,0,1,.33-.08.31.31,0,0,0,.32-.25.61.61,0,0,0-.28-.12.37.37,0,0,1-.29-.2,14,14,0,0,1,2.35-.53c.92-.13,1.59-.23,2-.28a3.1,3.1,0,0,0-1.06,0,10.11,10.11,0,0,1-1.13.08h-.56a53.61,53.61,0,0,1,7.53-1.7,5.09,5.09,0,0,0-2.11-.41h-1.13a3.37,3.37,0,0,0,1.13-.28,3.49,3.49,0,0,1,1.05-.29c-.1-.32-.13-.52-.08-.6s.22-.12.49-.12.48,0,.81,0,.51,0,.57-.13a1.62,1.62,0,0,1,1.17-.4,1.87,1.87,0,0,0,1.09-.24,1.35,1.35,0,0,1,.37-.13.57.57,0,0,0,.33-.16.49.49,0,0,0,.11-.36v-.32a2.52,2.52,0,0,1-.52-.09.44.44,0,0,0-.53.33,1.45,1.45,0,0,0-.89-.24,4.27,4.27,0,0,0-.85.08,5.18,5.18,0,0,1-.85.08,16.51,16.51,0,0,0-3.4.48,27.19,27.19,0,0,1-5.11.49l2.51-.32a2.5,2.5,0,0,0-.73-.17l-1,.08a4.27,4.27,0,0,1-.89-.16c0-.05,0-.07-.08,0a.83.83,0,0,0-.16.12,1,1,0,0,1-.73.24h-.65a1.31,1.31,0,0,0-.73.17h-.16a2.9,2.9,0,0,0-1.87.4,29.42,29.42,0,0,0-4.29.65c-1.4.32-2.27.51-2.59.57a19.17,19.17,0,0,0-3.16.89q-.41.16-1.5.48a9.94,9.94,0,0,1-1.9.41l.89-2.43c.27-.59.62-1.54,1-2.83a22.5,22.5,0,0,1,1-2.68c.11-.32.25-.74.41-1.25a5.48,5.48,0,0,1,.64-1.38,2.54,2.54,0,0,1,1.3-.93c1.08-.55,2.3-1.08,3.65-1.62a20.32,20.32,0,0,1,3.48-1c1.19-.38,2.22-.67,3.08-.89.7-.11,1.7-.32,3-.65a27.29,27.29,0,0,1,3.73-.81,13.83,13.83,0,0,0,1.49-.32,12.26,12.26,0,0,1,1.58-.32,21.07,21.07,0,0,1,2.84-.41c.43,0,.68-.11.73-.32h1.78a18.64,18.64,0,0,0,4.05-.33c.11-.11.08-.23-.08-.36M242.35,288h-.09l.09.09q.08-.09,0-.09m.16-.28c.05.08,0,.2-.16.37l-.09-.09a.23.23,0,0,1,0-.28q.12-.12.21,0m2.47-3c-.08.08-.1.22,0,.44a.34.34,0,0,0,.2-.24c0-.11.07-.17.12-.17-.11-.1-.2-.12-.28,0m-.94-2.31c.11-.11.11-.08,0,.08a.42.42,0,0,1-.56-.16c.22-.22.36-.29.45-.21a.39.39,0,0,1,.11.29M245.1,281l-.41-.41c.28.06.41,0,.41-.24a2,2,0,0,1,.12.28.18.18,0,0,1,0,.21c.06.05,0,.1-.08.16m1.21-2.59c.11.21,0,.45-.24.73-.1-.06-.15-.1-.12-.13s.07,0,.12,0c-.32-.32-.24-.54.24-.64m1.1-1c.08,0,.09.06,0,.17,0,.32-.16.26-.33-.17Zm-.53-1.29c.06.27-.08.4-.4.4Zm-2.51-.81c-.16,0-.24.05-.24.16Zm0,0-.2.12a.29.29,0,0,1,.08-.24.12.12,0,0,1,.16,0s0,.06,0,.12Zm3.2-1.18c-.11.6-.24.87-.41.81a1.07,1.07,0,0,0,.17-.73,2,2,0,0,1,.32-1.13,2.47,2.47,0,0,1-.08,1.05m.57-1.13c-.22.11-.38,0-.49-.33s0-.24.08-.08a1.37,1.37,0,0,1,.16-.56c.06-.06.11.06.17.36a4.79,4.79,0,0,1,.08.61m2.07-1.74,0,0h.08c0-.06,0-.07,0,0m0,0h0Zm-.52-.65c-.08,0-.1,0,0,.08h.17c0-.05,0-.08-.12-.08m-.69,0h0Zm.08-.12s0,.06-.08.12h-.08c.1-.11.16-.15.16-.12m.73-.09c.11.14.11.24,0,.29h-.17c-.1-.27-.13-.42-.07-.45s.13,0,.24.16m-4.86-.72c0-.08.11-.13.32-.13l-.16-.32h.08c0,.11.16.14.49.08l-.49.73v-.08c-.16-.11-.24-.2-.24-.28m5.75-.81s0,.12-.08.28-.19.05-.25,0l-.08-.08c.22-.16.36-.23.41-.2m-5.43-.37.41-.16c.1.22.12.34,0,.37s-.23-.05-.45-.21m6.24-.32h-.08c0,.05,0,.21,0,.48a1.92,1.92,0,0,0,0,.73l.08.16a3.31,3.31,0,0,0,.16-.4,1.64,1.64,0,0,0,.08-.57c0-.27-.08-.4-.24-.4m17.91-.33c-.06,0-.08,0-.08.08h.16a.07.07,0,0,0-.08-.08m-23.66.17v0Zm23.74-.09h-.16c-.06,0-.05-.1,0-.16s.13,0,.13.16m-23.74,0v0Zm.16-.4h0Zm.28-.2a.35.35,0,0,1-.2.2h-.08c.22-.22.31-.28.28-.2M269.28,266l.05.08-.08-.24a.45.45,0,0,0,0,.16m-20.13-.41h.57a1.43,1.43,0,0,1-.41,1.06v-.49a.79.79,0,0,0-.16-.57m4-.12v0h.08v-.08c-.05,0-.08,0-.08,0m.24-1.09c-.16.27-.18.3-.08.08Zm-5.95-1.95a.35.35,0,0,1,0,.17c-.11-.11-.16-.19-.16-.25a.14.14,0,0,1,.12.08M281.4,262c-.06.05-.08.16-.08.32,0-.16,0-.27.08-.32m-10.21.48-.25.25h-.07c0-.06,0-.08.07-.08a2,2,0,0,1,.25-.65.3.3,0,0,1,0,.48m10.17-.56s0,0,0,.08l-.17.08c.06-.11.1-.16.13-.16m-31.24-.33.08-.16Zm3.69.29a2,2,0,0,1-.2.68l-.08.09c-.06-.11-.07-.18,0-.2l0-.05a4,4,0,0,1,.08-1c.16.06.23.2.2.45m-.69-.45a.85.85,0,0,1,0,.73c-.05,0-.08,0-.08,0v0c-.32-.27-.3-.49.08-.65m2.63,1.26c.3-.89.34-1.37.13-1.42s-.41.45-.57,1.18a3.23,3.23,0,0,0-.08,1.57v.25Zm-5.55-1.38q.09,0,0,.12l-.08.16c0-.16,0-.25.08-.28m-.81-.28q.09-.09,0-.09Zm-.73-.41c0,.11,0,.14.09.08v-.08q-.09-.16-.09,0m.73.32q.09.09,0,.09Zm-.81-.52c.06-.08.11,0,.17.2v.08q-.17.16-.21,0a.38.38,0,0,1,0-.28m19.61-.28v.16h.08Zm-14.06.72a3.43,3.43,0,0,1-.28.49c-.21-.22-.24-.32-.08-.32-.16-.33,0-.62.4-.89a.53.53,0,0,1,.17.4,1.08,1.08,0,0,0-.21.32m2.15-1.05a.41.41,0,0,0-.16.49v.16c.32-.22.38-.43.16-.65m-1.86.12s0,0-.08,0l-.17-.24c.06-.11.11-.14.17-.08a.33.33,0,0,1,.08.24Zm-7.38-.48c-.16,0-.13.09.08.2h.09c.27-.11.35-.18.24-.2a.93.93,0,0,0-.41,0m6.57-.33q-.09,0,0,.12l.08-.08c0-.05,0-.07-.08,0m0-.2c.13,0,.15.08,0,.24l-.08.08c-.11-.21-.1-.32,0-.32m-3.93,1.22c.11.16.08.16-.08,0h.08l-.17-.17a1.29,1.29,0,0,1,.09.57c-.16,0-.23,0-.2,0a.12.12,0,0,1,.11,0,1.16,1.16,0,0,1-.16-.73,2.07,2.07,0,0,1,.21-1,.6.6,0,0,1,.52-.41.84.84,0,0,0-.16.57v.57a.74.74,0,0,1-.24.65m-1.3-2v0Zm6.2.73c-.08.27-.18.4-.28.4a1.61,1.61,0,0,0,.12-.65c0-.37.12-.54.28-.48a2.64,2.64,0,0,1-.12.73m-5.07-.81h0Zm31.93-.16a2,2,0,0,1-.25,1.62l-.07.08v0s0,0-.09,0a2.12,2.12,0,0,1,.09-.93,1.9,1.9,0,0,1,.32-.85m-31.68,0h0Zm18.31.32a.49.49,0,0,1,.16-.73,1.3,1.3,0,0,1-.16.73m-14.42.57a2.12,2.12,0,0,1,.32-1.3c.16.11.16.31,0,.61a3.83,3.83,0,0,0-.32.69M250,257.54c.06.14-.08.26-.4.37l-.33.08a1.74,1.74,0,0,1,.21-.41l.12-.16c.05,0,.08.06.08.16.16-.16.27-.17.32,0m30.87-.32a.61.61,0,0,1,.08.53h-.16c-.27-.11-.35-.27-.24-.49s.21-.23.32,0m-13.77,0v.16c0,.05-.08.16-.24.32v-.24l-.41-1.38c.16.17.27.19.32.08a2.85,2.85,0,0,1,.2.53,1.7,1.7,0,0,1,.13.53M265,256c.27.27.24.54-.08.81v-.64c0-.11,0-.17.08-.17m-10.74.33c.14-.27.26-.35.37-.25a3.57,3.57,0,0,1-.08.45,1.83,1.83,0,0,1-.33.69l-.08.08-.08-.24a1.71,1.71,0,0,1,.2-.73m1.1-.49a3.81,3.81,0,0,1-.49,1.87l-.08.08c-.11-.17-.09-.53,0-1.1s.31-.85.53-.85m-4.38.49a.82.82,0,0,1-.08.4c-.16,0-.24-.13-.24-.4v-.49c0-.11,0-.16-.08-.16a.73.73,0,0,1,.4.65m-1.78-.61v0c0-.05,0-.08,0-.08h0c.06,0,.08,0,.08,0m.08,0c.06.05,0,.08-.08.08l-.08-.08c.06-.06.11-.06.16,0m8.27,0c0-.11-.06-.16-.17-.16l-.24.81-.08.08a.19.19,0,0,0,.12,0l0,0a.93.93,0,0,0,.33-.65m-7.22-.08c0,.05-.08.08-.24.08,0,.05,0,.08-.16.08,0-.21.07-.34.2-.36s.2,0,.2.2m6.12-.25a2.38,2.38,0,0,1-.2.25v-.57c.22.11.28.22.2.32m9.32-.4s0,0,0,.08h.16s-.09-.08-.12-.08m-13.81-.57H252l-.17-.08c0,.06,0,.08.05.08Zm.32.17a.33.33,0,0,1-.24-.08c-.22-.11-.27-.17-.17-.17l.17.08s.13.06.24.17m-2.68.2a.56.56,0,0,1,.09-.53,5.47,5.47,0,0,1,.32.81c-.1.11-.16.14-.16.08s-.19-.12-.25-.36m32.25-.85c.54.27.41.81-.4,1.62a3.92,3.92,0,0,1,.4-1.62m-25.12-.24.17.08a3.45,3.45,0,0,1-.41.73c.06,0,.08,0,.08-.09v.41l-.08-.16a1.25,1.25,0,0,1,0-.61c.06-.25.14-.36.24-.36m10.54-.17h0Zm-.08-.08v0Zm0,0h0Zm-.16,0h0Zm-13.29-.16q.65-.24.24.24Zm28.52-.16v0Zm0-.09v.09c0,.05,0,.06,0,0s0-.07,0-.13m-16.69.33c.05-.16.05-.22,0-.16a.15.15,0,0,0-.16-.17c.05,0,.08.05.08.13a.24.24,0,0,0,.08.2M250,252.8a1,1,0,0,1,.41.08l-.17.41-.08.16Zm-.89.17c.22-.44.32-.33.32.32,0-.16-.1-.27-.32-.32m34.19-.41c-.11,0-.16,0-.16.08ZM254.5,253c-.38-.16-.41-.34-.08-.56a1,1,0,0,1,.08.4c.11,0,.11.06,0,.16m28.72-.44a.15.15,0,0,1-.12,0c0-.11,0-.16.12-.16s.09,0,0,.08Zm-23.13.12-.08.16s-.06-.12-.16-.2a.75.75,0,0,1-.25-.36c.22,0,.38.13.49.4m-5.07.37a3.83,3.83,0,0,1,.37-.85.5.5,0,0,1,.24.56,2.62,2.62,0,0,1-.32.73,3.42,3.42,0,0,0-.32.65c-.17-.05-.2-.14-.09-.24a1.64,1.64,0,0,1,.12-.85m-5.79-.85h0v0Zm0,0h0v0Zm1.14,0-.09.16a.42.42,0,0,0,.09.32l-.17-.24v-.16a.33.33,0,0,0-.08-.25c.22,0,.3.06.25.17m1.29-.17v0Zm0,.08c-.11-.16-.11-.18,0-.08Zm14.51,3.73a1.22,1.22,0,0,1-.49-.16l-.08.08v-.16a2.87,2.87,0,0,1-.65-2.19,5.45,5.45,0,0,1,.16-1.38c.11-.37.27-.56.49-.56s.67.89,1,2.67a1.17,1.17,0,0,1-.57-1l.09-.41a1.69,1.69,0,0,0-.17,1,10.82,10.82,0,0,0,.17,2.1m-10.7-4.49a2.07,2.07,0,0,0,.08-.37c.33.22.3.49-.08.81v-.08c-.05-.05-.05-.18,0-.36m28.36-.09a6.24,6.24,0,0,1-.32.94,2.51,2.51,0,0,1-.05-.85c0-.41.13-.64.29-.69.1.1.16.1.16,0s0,.2-.08.6M254,250.9q0,.12.12.12l-.16-.32a1,1,0,0,0,0,.2m0,0a.15.15,0,0,1,0-.2l.16.32a.21.21,0,0,1-.16-.12m-3.48-.28h0Zm9.4.89a.75.75,0,0,1,.08-1.14l.08.81a.37.37,0,0,1-.08.25v0s0,0-.08,0m-8.47-1.38a.13.13,0,0,1,0,.16c-.22,0-.34-.13-.37-.24a.37.37,0,0,1,.13-.33.38.38,0,0,1,.24.41s0,0,0,0m16.33-.49h0Zm-.08,0h0Zm-11.19-.56-.08.24h-.08c0-.16,0-.26,0-.28a.12.12,0,0,1,.16,0m27.63,1.21H284c.05-.16.12-.39.2-.69a2.51,2.51,0,0,1,.29-.69c.1.11.1.37,0,.77s-.25.61-.41.61m-33.14-1.7a1.67,1.67,0,0,0,.41-.16c0,.27-.11.4-.33.4.11-.16.09-.24-.08-.24m-.73.49a5.42,5.42,0,0,0,.17-.81q.65,0-.09.72a.17.17,0,0,1,.13,0s0,0-.21,0m8.11-.61a.26.26,0,0,0,.24.2,1.3,1.3,0,0,0-.16-.57.31.31,0,0,0-.08.37m7.94.28a1.87,1.87,0,0,1-.33,1.06c-.11-.11-.11-.17,0-.17a5.34,5.34,0,0,1-.08-1,4.09,4.09,0,0,0-.08-.89,1.24,1.24,0,0,1,.49,1m-8.59-1.13v0Zm-2.19-.41c.32.06.41.27.24.65l-.08-.16a.66.66,0,0,1-.16-.49M278.89,246c-.27.16-.41.13-.41-.09a.61.61,0,0,1,.41.09M259,245.51v0Zm.09-.08h0Zm0-.08v0Zm-.09.16v0Zm-2.71.73c-.08.32-.23.49-.44.49h-.09a.32.32,0,0,1,.05-.21l0,0a2.65,2.65,0,0,0,.07-.73v-.32c.22-.22.36-.22.41,0a1.64,1.64,0,0,1,0,.81M265,244.7l.16.16c-.1,0-.17,0-.2-.08a.14.14,0,0,0-.12-.08.1.1,0,0,1,.16,0m3.73.28s0,0,.08,0a1.43,1.43,0,0,0-.08-.56.36.36,0,0,0,.08.49c-.06,0-.08,0-.08,0m17.09-.6c.16.32.05.57-.32.73a3.61,3.61,0,0,1,0-.41c0-.22.12-.32.28-.32m-.65,0-.24.57a.39.39,0,0,1,0-.29l0-.12a.56.56,0,0,1,.16-.21c.06,0,.06,0,0,.13Zm-28.8-.17a1.18,1.18,0,0,1,.2.17,1.23,1.23,0,0,1,.09.57l-.09.07-.08-.07a.79.79,0,0,1-.16-.66c0-.1,0-.13,0-.08m2.88,0c.05.11,0,.19-.25.25,0,0-.08.08-.24.08.06-.06.07-.16,0-.33a2,2,0,0,1,0-.32,1,1,0,0,1,.49.32m26.65-1.94-.4.08c.11-.11.2-.15.28-.12Zm-17.9-.08a.14.14,0,0,0,.16.16c0-.16,0-.24-.08-.24s-.08,0-.08.08m0-1c0-.11-.07-.16-.12-.16s0,.13.16.4a.9.9,0,0,0,0-.24m17.78,0q.41-.57.33.24c-.11.11-.21.13-.29.08s-.09-.14,0-.24a.24.24,0,0,1-.16.08c-.05,0,0,0,.16-.16m-17.62-.33c-.13,0-.2.08-.2.25v0s0,0,.08,0c.22-.22.25-.33.12-.33m18.27-.65h0ZM267.91,240a1.87,1.87,0,0,0,.12.61l.16-.65-.08-.41c-.16,0-.23.15-.2.45m-2-.32a.92.92,0,0,0,.08-.37c.33.06.41.16.25.33a1.77,1.77,0,0,1-.41.32,1,1,0,0,1,.08-.28m21.07-.29v.16c.11,0,.19,0,.24.17a.82.82,0,0,1-.08.61,1.16,1.16,0,0,1-.41.52l-.07-.24a3.09,3.09,0,0,1,.16-1.66,10.88,10.88,0,0,0,.32-1.5l.32.16a.64.64,0,0,0-.28.32c-.08.17,0,.22.28.17-.11.05-.21.22-.32.52a2.3,2.3,0,0,0-.16.77m-5.39-2.67q.12-.41.45-.33l-.17,1.06h-.08c-.11,0-.16-.1-.16-.12s0,0,.08,0a.61.61,0,0,1-.12-.65m-1.05-.33h-.21c.06-.1.19-.16.41-.16-.06.11-.12.16-.2.16m.44-.6c-.05-.08,0-.07.08,0l.25.32h0s0,0,0-.08a2.6,2.6,0,0,1-.24-.28m-.16-.69.08-.16h-.12s0,0,0,.08h0s0,0,0,.08m0-.16h.12l-.08.16-.08-.08s0-.08,0-.08m3-.49s0-.08.08-.08v.24c-.22,0-.27,0-.16-.16s0-.24.08-.08Zm-2.84-.32c0-.06,0-.06-.08,0v0s0,0,.08,0Zm-.08,0h0c.16-.16.26-.22.29-.16a.23.23,0,0,1,0,.2c-.06.08-.11.09-.17,0s-.08,0-.08,0Zm4.29-.09a.36.36,0,0,1-.24-.07h-.08v-.09A.71.71,0,0,1,285,233c.06,0,.12,0,.21.25a1.61,1.61,0,0,1,.12.56c0,.17-.06.24-.17.24m-3.35-2.51c.13-.05.17,0,.11.17a.8.8,0,0,1-.56.16,1.51,1.51,0,0,1,.45-.33m1.49.41c0,.49,0,.73-.16.73-.27.05-.35,0-.24-.08a.79.79,0,0,1-.16-.73l.07-.49c.33,0,.49.19.49.57m-18-1.46h0c0-.05,0-.08,0-.08h-.05c0,.06,0,.08.05.08m0-.24s0,.08,0,.24c-.06,0-.09,0-.09,0v0c0-.11,0-.16.05-.16m18.14-.08c.08-.17.15-.25.21-.25s.2.34.12.69-.1.56,0,.61l-.16-.08c-.17-.05-.25-.19-.25-.41a1.25,1.25,0,0,1,.12-.56m-15.83-.33c.1.11.16.19.16.25a.59.59,0,0,1,0-.21c0-.08,0-.09-.2,0m12.55,1.54c.16,0,.25-.05.25-.16a2.84,2.84,0,0,0,.12-.77,2.25,2.25,0,0,1,.12-.77q-.41-.16-.45.69c0,.57,0,.9,0,1m2.35-1c.11.19.14.31.08.36s0,0,0,0a1.14,1.14,0,0,1-.28,0,3.17,3.17,0,0,0-.08-.4,4.6,4.6,0,0,1-.08-1q0-.73.24-.81l.32.08a1.3,1.3,0,0,0-.24.81l.49-.33a2.49,2.49,0,0,1-.09.53c-.05.24-.16.37-.32.37l-.16-.09a1,1,0,0,0,.16.37m-14.9-2.23.24.49.24.24Zm22.52-.81a1.73,1.73,0,0,1-.41.73l-.24-.32.08-.17.16-.4a.54.54,0,0,1,.41.16m-24,1a5.55,5.55,0,0,1,.29-1.49c.32.1.49.45.49,1a2.92,2.92,0,0,1-.25,1.13,1.87,1.87,0,0,1-.57.81c0-.1,0-.16-.08-.16a.29.29,0,0,1-.08.24c0,.11-.11.14-.32.08a3,3,0,0,0,.52-1.66m18.32-4.94c0-.13,0-.2,0-.2h.08c-.06-.06-.07-.11,0-.16s.06,0,.12.08v.08a.48.48,0,0,1,.08.32c-.16.06-.23,0-.2-.12m-1.34-.69c-.43,1.41-.59,2.14-.49,2.19s.47-.46.77-1.7.47-2.11.53-2.59a6.44,6.44,0,0,0-.81,2.1m8.87-.89a9.52,9.52,0,0,1-.69,1.62q-.24,0,0-.24a7.19,7.19,0,0,1,.33-1.46l.24-.65.49-1a5.48,5.48,0,0,1-.37,1.78m-8-1.41s0,.06,0,.11c0-.16,0-.25,0-.28s.1,0,.2,0c-.43-.43-.51-.4-.24.08Zm.36-.77h0Zm.29-1a1.16,1.16,0,0,0,.2-.16c0-.43-.08-.4-.24.08l0,0a.16.16,0,0,0,0,.12Zm1.74-1.13-.16.32c-.06-.11,0-.21.16-.32m-1.54.32v.08c.32-.1.4-.32.24-.65q-.32.33-.24.57m.93-2.43a.45.45,0,0,0,0-.32l-.32.56h.16a.34.34,0,0,0,.2-.24m8.39.36a11.89,11.89,0,0,1-.89,2.32,2.13,2.13,0,0,0-.33-1.3,18.25,18.25,0,0,1,.81-2.11,14.88,14.88,0,0,1,.81-1.54,2.84,2.84,0,0,1-.08.57,1.21,1.21,0,0,1-.32.65,1.26,1.26,0,0,0,.48-.33q-.08.33-.48,1.74m.48-3.44a1.52,1.52,0,0,1,.09.81c-.22,0-.27,0-.17-.16a.46.46,0,0,1,.08-.65m1.14-2.26c.05-.06,0,.08-.16.4v-.08c-.16-.11-.18-.39,0-.85s.31-.69.52-.69a3.89,3.89,0,0,1-.32,1.22m-.08-2.4a1.75,1.75,0,0,1,.16-.2l-.24.49a.49.49,0,0,1,.08-.29m.32-.52v0Zm-.65-.89c0,.32-.11.4-.32.24,0-.06,0-.08-.08-.08l.08-.08c.05-.06.16-.08.32-.08m-6.88,1a.07.07,0,0,0,.08-.08,3.73,3.73,0,0,0,.24-1.3q-.16-.41-.24.33a8.91,8.91,0,0,0-.08,1.05m7.13-1.54c-.16.21-.33.19-.49-.08,0-.06.05-.1.16-.12s.22,0,.33.2m1.78-.16v0Zm-8.35-.08v0Zm7.94-1.3a1.14,1.14,0,0,1-.16.48h.08Zm-.24,1a1.62,1.62,0,0,0,.41-.57H297c.06-.16.07-.27,0-.32s-.06.08-.12.4Zm-7.7-1.21h0ZM295.5,215q2.26-8.43,2-8.35t-.24.45c-.06.29-.16.44-.33.44h-.16c.06,0,.08-.32.08-.81s0-.81-.08-.81-.42-.31-1.42-.61l-1.74-.52a3.19,3.19,0,0,1-.81-.49,2.27,2.27,0,0,0-.65-.4c-.38-.06-.9-.13-1.58-.21a13.93,13.93,0,0,0-1.5-.12c-.11.11-.16.19-.16.25-.05.32.16.56.65.72a5.61,5.61,0,0,0,.81.25,2.42,2.42,0,0,0-.48,1.54,7.88,7.88,0,0,1-.17,1.37,1.45,1.45,0,0,0,.57-.4c.16.16.19.43.08.81a8.05,8.05,0,0,1-.48,1.22c-.55,1.07-.73,1.75-.57,2,.27,0,.44-.27.52-.81s.21-.86.37-1v1.21a1.43,1.43,0,0,1,.65,0,8.83,8.83,0,0,1-1.22.77,3.86,3.86,0,0,1-1.38.61c.06-.16.19-.58.41-1.25a6.81,6.81,0,0,1,.4-1.1c-.43-.06-.94.84-1.53,2.68a14.69,14.69,0,0,0-.89,3.88,3.16,3.16,0,0,0-.62.53,3.18,3.18,0,0,1-.76.61.66.66,0,0,0,.4.08.53.53,0,0,1,.49.32,1.2,1.2,0,0,0-.73.73,6.92,6.92,0,0,0-.53,1.54c-.13.59-.23,1-.28,1.14a6.43,6.43,0,0,0-.2.85,6.43,6.43,0,0,1-.21.85v-.16a2.17,2.17,0,0,0-.56,1h0a2.63,2.63,0,0,0-.08.81c0,.21,0,.57,0,1.05a2.48,2.48,0,0,1-.12,1.06,1.37,1.37,0,0,0-.49-.21c-.17,0-.24-.09-.24-.2l.16-.49a1,1,0,0,0-.45.41,1.23,1.23,0,0,0-.2.65,1.14,1.14,0,0,0,.16.48c.22-.37.43-.4.65-.08q-.17.16-1.14.93c-.64.52-1,.91-1,1.18l.73-.16a.36.36,0,0,1,.41.4,1.8,1.8,0,0,1-.25.81l-.16-.24a9.21,9.21,0,0,1-.44.93,8.68,8.68,0,0,0-.53,1.18c-.49.48-.76.7-.81.64v.08a5.16,5.16,0,0,0-.16,1.71v.24l-.17-.73a2.26,2.26,0,0,0-.12.81,2.65,2.65,0,0,1-.12.89c.27.27-.08,1.51-1.05,3.73-.05.16-.3.77-.73,1.82a4,4,0,0,0-.49,2.07l.29,0a1.34,1.34,0,0,0,.44-.21,2.17,2.17,0,0,0,.33.57c.16.22.27.35.32.41s-.15.29-.45.57a1.27,1.27,0,0,1-.68.4l-.25.32,1.3.16a.28.28,0,0,0,0,.37.73.73,0,0,1,.12.36v.08c-.11.17-.31.11-.61-.16s-.44-.48-.44-.65a4.72,4.72,0,0,0-.25,1.46.66.66,0,0,0,.17.49q-.17,0-.33-.45a1.8,1.8,0,0,0-.24-.52q-.57.24-.24.48l.32.25c.22.05.15.06-.2,0l-.61,0a2.26,2.26,0,0,1-.2,1.41,5.29,5.29,0,0,0-.37,1.42,1.22,1.22,0,0,0,.16.65,1.15,1.15,0,0,0-.52.16,2,2,0,0,0-.37.25s.08.08.25.08a.57.57,0,0,0-.49.4,1.63,1.63,0,0,1-.24.57c.27,0,.4-.11.4-.33.11.17,0,.38-.32.65s-.49.49-.49.65a1,1,0,0,0,.21.81c.19.22.28.35.28.41a6.22,6.22,0,0,1-.57.85,5.66,5.66,0,0,0-.57.85q-2.91,6.31-2.51,7.37a.4.4,0,0,1,.49,0c-.27,0-.41.22-.41.65a7.65,7.65,0,0,0,.12,1.21,1.85,1.85,0,0,1,0,.9c-.1.21-.21.09-.32-.37a4.85,4.85,0,0,1-.16-.93,1.9,1.9,0,0,1-.4.81,1.29,1.29,0,0,0,0-1.05,2.57,2.57,0,0,0-.53-1,3,3,0,0,1,.16,1.38c0,.54-.11.78-.32.73h-.08a2.92,2.92,0,0,1,.24,1.14c0,.26-.11.4-.32.4.05.05,0,.05-.17,0s-.15-.09-.12-.12.07,0,.12,0a6,6,0,0,1-.44-1.74c-.19-1.06-.37-1.61-.53-1.66.05-.17.2-.06.45.32a8.85,8.85,0,0,1,.69,1.38,5.68,5.68,0,0,1,.08-1.62,16.39,16.39,0,0,1,.32-1.79c-.11.06-.2-.14-.28-.6a3.52,3.52,0,0,0-.37-1.1,1,1,0,0,0-.73-.48,5.76,5.76,0,0,1,.37,1.29,9,9,0,0,1,.12,1.46,1.77,1.77,0,0,1-.08.65l-.08.16c0-.05,0-.08,0-.08h0c-.33-.22-.49-.7-.49-1.46a7.56,7.56,0,0,1,.08-1.25,6.41,6.41,0,0,0,.08-.77v-.16a4.74,4.74,0,0,1,.08-.49c.06-.27.16-.41.33-.41s.27.11.32.33l-.16-1q0-.65-.12-2.43c-.08-1.18-.26-1.89-.53-2.1a2,2,0,0,0-.08.65,4.39,4.39,0,0,0,.16,1.05c-.05-.16-.15-.54-.28-1.13s-.31-.89-.53-.89h-.08a3.28,3.28,0,0,1,.08,1,5.15,5.15,0,0,0,.08,1.05l-.08.16c0,.11,0,.15,0,.12s0-.09,0-.2l.17.16-.33.81c0-.21-.11-1.18-.32-2.91l.24.24-.24-.32a12.24,12.24,0,0,1-.25-2.52,7.8,7.8,0,0,1,.17-1.54v.9c.16,0,.18-.06.08-.17a1.09,1.09,0,0,0-.08-.89l.08-.32.16.24v.08c.21-.32.19-.48-.08-.48a1,1,0,0,1,.48-.49,2.65,2.65,0,0,0,.17.73l.08-.16h.08c0-.06,0-.08-.08-.08a3.49,3.49,0,0,0,.08-.89,11.55,11.55,0,0,0-.29-2.56c-.19-.83-.44-1.2-.77-1.09a.58.58,0,1,1-.4,0,2.87,2.87,0,0,1,.16-.57c-.11,0-.21.08-.32.24a4.91,4.91,0,0,1,.24-2,1.53,1.53,0,0,1,.24.81c.06.43.22.67.49.73h.08v-.08c.11-.22.11-.38,0-.49a15.07,15.07,0,0,0-.24-1.62,6.55,6.55,0,0,1-.16-1.21,2.83,2.83,0,0,1,.16-1.22,5.7,5.7,0,0,0,.24-1.29,1.36,1.36,0,0,0-.16-.74c-.11.11-.2.11-.29,0s-.2,0-.36.25c-.32-.6-.27-.76.16-.49a1.27,1.27,0,0,0-.57-.73,1.41,1.41,0,0,0,0,.65,3.72,3.72,0,0,1,.09.81c0,.38-.09.57-.25.57a15.26,15.26,0,0,0,0-2.15c0-.94,0-1.63,0-2.06l.57.56a4.75,4.75,0,0,1,.36-1.38,4.76,4.76,0,0,0,.37-1.7,16,16,0,0,0-.08-1.62c-.11-1.08-.16-1.86-.16-2.35,0-.75.08-1.16.24-1.21a.63.63,0,0,1,.65.4,22.37,22.37,0,0,1,.16-2.43,13.33,13.33,0,0,0,.24-2.59c0-.16,0-1,0-2.43a3.88,3.88,0,0,0-.85-3,9.52,9.52,0,0,0-.4,1.54,3.14,3.14,0,0,1,0-1.13c.05-.65-.08-1-.41-1,.27.22.07.2-.6,0s-1.13-.39-1.34-.44a13.6,13.6,0,0,0-3.65-1,2.11,2.11,0,0,1-.81-.21,2.23,2.23,0,0,0-.73-.2,4.87,4.87,0,0,0-.57.16c.22-.11.07.11-.44.65s-.74.7-.69.49a8.39,8.39,0,0,0-.24,2.59c0,1.4,0,2.32-.08,2.75l-.33,2.44q-.24,1.29-1.86,7.29c-1.08,4-1.7,6-1.87,5.91a10.25,10.25,0,0,0-.48,3.4c0-.16.14-.2.24-.12a.25.25,0,0,1,.08.33c-.05.13-.21.2-.48.2.27-.27.21-.41-.17-.41a.77.77,0,0,1,.05.81,9.8,9.8,0,0,1-.57,1.1,2.13,2.13,0,0,0-.37,1,.74.74,0,0,0,.41.65c-.33.05-.66.55-1,1.5a28,28,0,0,0-.93,3.24c-.26,1.21-.45,2-.56,2.31a51.92,51.92,0,0,0-1.3,5.91,42,42,0,0,1-1.05,4.7c-.33,1.13-.65,2.11-1,2.92-.48,1.4-.86,2.64-1.13,3.73q-.17.56-1.42,4.61c-.84,2.71-1.12,4.19-.85,4.46q-.57,0-1.17,3t-.69,3.24l-1.14,4.54c-.1.32-.36,1.06-.76,2.22a4.65,4.65,0,0,0-.45,2.23c.16.76.73.57,1.7-.57a31.17,31.17,0,0,0,2.51-3.32,19,19,0,0,0,2.11-4.78c.27-.81.59-1.7,1-2.67.16.22.08.94-.24,2.19q-.17.81-.24,1.5c-.06.45,0,.71.16.76a8.45,8.45,0,0,1,.32-2.3,18.6,18.6,0,0,1,.73-2.15c.11-.22.28-.53.53-.93a2.12,2.12,0,0,0,.36-1,.75.75,0,0,0-.16-.56c.05.1.24-.26.57-1.1a12.4,12.4,0,0,0,.56-1.66,5.42,5.42,0,0,0,.29-1,5.49,5.49,0,0,1,.28-1,2.82,2.82,0,0,0,.2-.65.64.64,0,0,1,.13-.33l.24.49c.32,0,.67-.65,1.05-1.94a8.1,8.1,0,0,0,.49-2.35l.24-.25V268c.05.06.1.07.12.05l0-.05c.11,0,.15,0,.13-.08a.56.56,0,0,0-.21-.16c.06,0,.08,0,.08,0v0h.08c.33-.11.36-.24.08-.4a8.75,8.75,0,0,0,.41-2.27c0-1,.13-1.65.4-1.87a16.72,16.72,0,0,0-.32,2.31c-.16,1.49-.27,2.37-.32,2.64.37-.11.62-.63.73-1.54l.08.16c.16-.16.23-.27.2-.33a.32.32,0,0,1,0-.16h-.24a6.36,6.36,0,0,1,.08-.85,5.05,5.05,0,0,1,.28-1.13c.14-.35.34-.53.61-.53-.05.11-.11.2-.16.29a.58.58,0,0,0-.09.36l.17-.33c.16.22.13.33-.08.33h-.09v0s0,0-.08,0a4.6,4.6,0,0,0-.08,1v.08a3.67,3.67,0,0,0,0,.89c0,.33,0,.57,0,.73a.72.72,0,0,0,.41-.64,1.07,1.07,0,0,0-.12-.49,1,1,0,0,1-.13-.41.31.31,0,0,1,.09-.24c.64,0,1.32-1.35,2-4.05a14.37,14.37,0,0,1,.57-1.86,23.16,23.16,0,0,0,.93-3.16,14.94,14.94,0,0,0,.45-3.25,3.05,3.05,0,0,0-.17-1,.43.43,0,0,0,.33-.48c.49.43.73.35.73-.24,0-.76-.16-1.25-.49-1.46.16.16,0,.46-.4.89a.63.63,0,0,1-.17-.57.49.49,0,0,1,.29-.32.75.75,0,0,1,.28-.08L258,249c0-.32-.05-.48-.16-.48-.27-.06-.54.58-.81,1.9a17,17,0,0,1-.65,2.56,1.21,1.21,0,0,1-.08-.49h-.08a3.5,3.5,0,0,1,.32-.57c-.32.11-.46.06-.4-.16s0-.32-.08-.32a.14.14,0,0,1-.16.16,4.46,4.46,0,0,1,.4-1.7l.24.4v.08l.09-.16a3.13,3.13,0,0,0,.24-.73,4.06,4.06,0,0,0,.08-.73v-.08h-.16l.65-1.62.08.16c-.11,0,0,.08.32.25l.08-.17c0,.06,0,.06,0,0a.29.29,0,0,0,0-.16h-.4a.53.53,0,0,1,.12-.73,5.06,5.06,0,0,1,1-.65,1.85,1.85,0,0,0,.73-.48c.16.16.19.46.08.89s-.08.65.08.65a2.17,2.17,0,0,1,.08.89L259.6,250a14.32,14.32,0,0,0-.08,2.35l.16,2.43a28.46,28.46,0,0,0,.25,3.72,43.88,43.88,0,0,0,2.1,10c.16.43.41,1.24.73,2.43q1,4.14,2.19,5.35a5.16,5.16,0,0,0-.24,1.46,3.52,3.52,0,0,0,2.19,3.44,12.57,12.57,0,0,0,5.34,1,21.79,21.79,0,0,0,4.34-.4q2-.41,2-.81l-.08-.08q-.72-.16,3.08-16.53l.57-2.43c.32-1.51.77-3.28,1.33-5.31s1-3.53,1.26-4.5q2.1-7.45,2.92-11.1,1.13-4.93,3.32-12c.16-.65.36-1.33.61-2.06s.47-1.53.68-2.39q.74-2.43,1.71-4.94,1.13-3.09,1.54-4.62M224,281c-.05.05-.1,0-.16-.08s.11-.08.16.08m-13.36-9.44a2,2,0,0,1,.24-.28c.11.16.09.27,0,.32a1.13,1.13,0,0,1-.28.08v.16c-.06,0,0-.15.08-.28m-1,.69-.9.73c-.1-.06.07-.42.53-1.1s.79-1,1-1.09a.83.83,0,0,1-.12.81,6.61,6.61,0,0,1-.36.57c.43-.17.64,0,.64.4v.16q-.72.33-.72-.24v-.32c-.06-.06-.1-.07-.13,0s0,.06,0,.12m-1.95-1.3c-.27.16-.46.11-.57-.16a2,2,0,0,0,.33,0c.16,0,.24,0,.24.2m2.43-1.3.41-.4c0,.05,0,.16-.13.32a1.05,1.05,0,0,1-.36.33l-.16.16c-.06-.05,0-.19.24-.41M207.1,269l-.08.08a1.05,1.05,0,0,0,.16-.41c.06-.21.11-.32.17-.32a.69.69,0,0,1-.25.65m2.84-1.22-.33-.08a.43.43,0,0,1-.16.32.47.47,0,0,0-.16.33c0,.11.11.19.32.24s.54.11.65-.16.27-.41.49-.41a.42.42,0,0,0-.45-.28l-.36,0m-3.93.81a1.58,1.58,0,0,0-.37.41,2.8,2.8,0,0,0-.32.4,2.94,2.94,0,0,1-.33.41c-.7.37-.67,0,.09-1.14-.22-.21-.27-.36-.17-.44a2.28,2.28,0,0,1,.57-.25,2.08,2.08,0,0,0,.65-.28c.21.16.3.31.24.45a1.2,1.2,0,0,1-.36.44m.52-26.25c-.1.16-.19.14-.24-.08.11-.11.19-.08.24.08m-.56-2.43-.16.08a2.28,2.28,0,0,0,.2-.61,1.38,1.38,0,0,1,.12-.44c.32.21.27.54-.16,1m2-3.4c0,.16,0,.27-.08.32a.6.6,0,0,1-.24-.2c-.06-.08-.22-.12-.49-.12a.42.42,0,0,0-.16.24,2.63,2.63,0,0,0,.16-.61,1.22,1.22,0,0,1,.17-.52c.1-.06.24,0,.4.24a1.07,1.07,0,0,1,.24.65m8.27-1.87c-.11,0-.17,0-.17.09V236c-.21,0-.32-.13-.32-.4s-.05-.44-.16-.49h-.16a.45.45,0,0,1-.17.24c-.16-.16.17-.43,1-.81.1.11.1.16,0,.16m-6-.89a.75.75,0,0,1-.28.08.53.53,0,0,1-.08.33.26.26,0,0,1,.08-.33,1.17,1.17,0,0,1,.32-.24c.11.05.1.11,0,.16m28.24-4.29.16-.33a.72.72,0,0,1,.41.21,2.73,2.73,0,0,0,.4.28,1.77,1.77,0,0,1-.61.08q-.36,0-.36-.24m-26.74,0v-.53c-.05.06-.14.15-.24.28a.71.71,0,0,0-.16.45c.16.11.26.15.32.12s.08-.13.08-.32m10.13-.93c.16.43,0,.73-.49.89v.08a.62.62,0,0,1-.16.48c-.11-.43.11-.91.65-1.45m18.07-.57c.21.21.1.62-.33,1.21l-.4-.08a1.37,1.37,0,0,0,.28-.56.88.88,0,0,1,.45-.57M214.23,227c.11.54-.08.83-.57.89a1.56,1.56,0,0,1,.09-.65q.08-.17.48-.24m24.39-.33a.42.42,0,0,1,.32.09l-.48.56a.58.58,0,0,1,0-.4c0-.16.09-.25.2-.25m-14.59-.4c-.05.11-.1.08-.16-.08s.11,0,.16.08m1.58,0a.88.88,0,0,1,0-.2s.13,0,.24.16c-.11.11-.18.12-.21,0m-10.33.08a.91.91,0,0,1-.32.28l-.33.33c0-.11.05-.26.29-.45a1.59,1.59,0,0,0,.44-.44c.06,0,0,.14-.08.28m10.54-.85a1.88,1.88,0,0,1-.33.49c-.27-.11-.32-.22-.16-.33a.84.84,0,0,1,.49-.16M238,225.5a.21.21,0,0,1-.24-.24.5.5,0,0,1,.57.16.53.53,0,0,1-.33.08m-18.15-.81c.06.05,0,.11-.08.16s-.08-.11.08-.16m.65-.24c-.06.16-.11.18-.16.08s.1-.14.16-.08m5.67-.33c0,.22-.13.27-.24.16,0-.27.13-.32.24-.16m-4.57-.77q.12,0,.12-.36l-.09.08c-.1.21-.12.31,0,.28m-.49.89a1.1,1.1,0,0,0-.53-.36,1,1,0,0,1,.48-.45,1.87,1.87,0,0,0,.57-.36l.09-.08a6.53,6.53,0,0,1-.41,1.78,1.9,1.9,0,0,0-.2-.53m24.67-4.17c-.11.16-.19.14-.24-.08.1-.11.18-.08.24.08m-24.06.12c.1,0,.21,0,.32-.2a.88.88,0,0,0-.65.08,2.19,2.19,0,0,0,.33.12m5.63-1.25a.23.23,0,0,1-.21.08.29.29,0,0,1,.08-.33c.11.11.15.19.13.25m2-2.6c-.05-.11-.05-.18,0-.24Zm.28-.4a.4.4,0,0,1-.2.08l.25-.24c.05.05,0,.1,0,.16m8.47-5.11a.27.27,0,0,1-.32.09c.05-.27.16-.3.32-.09m15.48,7.54a3,3,0,0,0-.65-1.7,3.12,3.12,0,0,0-1-.89c-.44-.28-.76-.49-1-.65a16.76,16.76,0,0,1-3.56-2.76,13.63,13.63,0,0,0-3.24-2.59l-1.14-.53a4.38,4.38,0,0,0-1.78-.44,1.81,1.81,0,0,0-1.13.32.57.57,0,0,0-.12.33.89.89,0,0,1-.29.48,1.26,1.26,0,0,1-.44.17h-.29a2.33,2.33,0,0,0-.52.08,2.09,2.09,0,0,0-.65.24,1.12,1.12,0,0,0-.45.56.67.67,0,0,0-.44-.24,1,1,0,0,0-.49.17l-.44.24a.49.49,0,0,0,.44.12l.37,0c.21,0,.34,0,.4.16a8.92,8.92,0,0,1-2,.81c-1,.33-1.36.25-1-.24a.86.86,0,0,0-.52,0,.58.58,0,0,0-.21.32.93.93,0,0,1-.24.41,2.33,2.33,0,0,1-.48.32,1.88,1.88,0,0,0-.49.33l-.65.88h-.49l-.73.74a4.67,4.67,0,0,1-.16.81c-.21-.38-.4-.57-.56-.57a.77.77,0,0,0-.41.16.77.77,0,0,1-.4.16,1.18,1.18,0,0,1-.49-.16c.21-.54,0-.67-.57-.4a4.29,4.29,0,0,0-1.29.81.54.54,0,0,0-.49.4.5.5,0,0,0-.16.65.86.86,0,0,1-.37.32,2.39,2.39,0,0,0-.44.33c0,.16,0,.32.24.48l-.65.57a3.94,3.94,0,0,1-.36.45l-.37.36h-.56a3.17,3.17,0,0,0-.41.53l-.4.6c-.27,0-.41.11-.41.33a.4.4,0,0,0-.08-.2c0-.08-.16-.07-.32,0l.4.24V221a6,6,0,0,1-.16.73.86.86,0,0,0-.85,0,3.05,3.05,0,0,0-.93.73l-.65.69c-.11-.11-.12-.18,0-.2a.58.58,0,0,1,.2,0,.65.65,0,0,0-.69-.09,2.39,2.39,0,0,0-.77.65,7.11,7.11,0,0,1-.49.57,1.74,1.74,0,0,1,.08-.33,1.36,1.36,0,0,0,.09-.48,1,1,0,0,0,.69-.2,3.26,3.26,0,0,0,.4-.57,2.68,2.68,0,0,1,.45-.61.77.77,0,0,0-.57,0,1.71,1.71,0,0,0-.33.33,4.84,4.84,0,0,1-.4.44l-.65.33a3.53,3.53,0,0,0-.81.64,2.71,2.71,0,0,0-.57.73c-.1.38-.06.5.13.37a2.61,2.61,0,0,0,.36-.29c.11.11,0,.31-.2.61s-.39.47-.45.53,0-.15.08-.28a.64.64,0,0,0,.17-.37c0-.11-.09-.16-.25-.16a.84.84,0,0,0-.65.2,1.64,1.64,0,0,0-.24.65,1.13,1.13,0,0,1-.24.61.45.45,0,0,0-.61,0,4.6,4.6,0,0,0-.65.73,1.31,1.31,0,0,1-.77.56c.22.22.33.39.33.53s-.11.28-.33.45-.29.05-.4-.17a1.56,1.56,0,0,0-.57.49c.54.16.81.3.81.4l-.24.65a4.07,4.07,0,0,0-.65.61,1.72,1.72,0,0,1-.73.53l-.32-.25c-.11-.16-.23-.23-.37-.2s-.2.15-.2.37l-.81,1-1,1v.57a4.46,4.46,0,0,1-.81,1.13c-.11.11-.33.35-.65.73a1.66,1.66,0,0,0-.49,1.05,1.35,1.35,0,0,0,.16.49,2.73,2.73,0,0,1-.93.49,2.63,2.63,0,0,0-1,.57,4.87,4.87,0,0,0-.36.64,2.43,2.43,0,0,1-.37.57,2.66,2.66,0,0,1-.24.53,1.56,1.56,0,0,1-.25.36,2.42,2.42,0,0,0,0,.77,2.21,2.21,0,0,1,0,.77c-.44,0-.66.13-.66.41l.09.32a.56.56,0,0,1-.16.56l-.17,1.38-.2.82a4,4,0,0,0-.12,1v.25a1.73,1.73,0,0,0,.16.65.83.83,0,0,1,.16.24,5.17,5.17,0,0,0,1.46,2.51,20.24,20.24,0,0,0,3,2.19,26.2,26.2,0,0,1,2.35,1.54c.32.27.85.69,1.58,1.26s1.5,1.1,2.31,1.62a9.67,9.67,0,0,0,2.83,1.17,6,6,0,0,0,1.62.32,1.1,1.1,0,0,1,.81.17l.25-.17a6.78,6.78,0,0,0,1.21.17h.33l.64-.08c.28-.22.52-.25.73-.09l.41.25a5,5,0,0,0,1.3-.29,5.18,5.18,0,0,1,1.29-.28,8.25,8.25,0,0,1,1.42.12,8.77,8.77,0,0,0,1.5.12.51.51,0,0,0,.24-.12.56.56,0,0,1,.32-.12.74.74,0,0,0,.57.32h.81c.71.06,1.11.6,1.22,1.62V261a5.64,5.64,0,0,1-.08.93,5.78,5.78,0,0,1-.17.69l-.24,1.05a5.52,5.52,0,0,1-.57,1.46l-1,2.19-1.46,2.1c-.11.22-.25.5-.44.85a3.46,3.46,0,0,1-.53.77,1,1,0,0,0-.41-.08.33.33,0,0,0-.4-.16l.33.24a.33.33,0,0,0-.09.25,2.12,2.12,0,0,1-.48.4,3.89,3.89,0,0,0-.65.41l-1.86,1.62a2,2,0,0,0-.41.32,2.81,2.81,0,0,1-.4.33v.56a1.17,1.17,0,0,1-.41.37,2.83,2.83,0,0,0-.49.36c-.27.16-.86.49-1.78,1l-.49.49a1.42,1.42,0,0,1-.81.4l-.89.33a5.71,5.71,0,0,0-1.09.77,3.18,3.18,0,0,1-1.18.69,13.06,13.06,0,0,1-1.61.57c-.22.1-.49.21-.81.32a11.1,11.1,0,0,0-1.06.4c-.16.06-.39.15-.69.29a2,2,0,0,1-.6.2h-.08c-.33-.11-.49-.27-.49-.49a1.62,1.62,0,0,1,.28-.72,3.64,3.64,0,0,0,.37-.82,20.53,20.53,0,0,1,.89-2.51A21.92,21.92,0,0,1,212,274a12.7,12.7,0,0,1,1.46-1.94,15.73,15.73,0,0,0,1.38-1.79c.16-.21.35-.44.56-.69a4.57,4.57,0,0,0,.57-.76l.16-.65q0-.57-.48-.57a1.48,1.48,0,0,0-1.22.65,1.74,1.74,0,0,1,.08-.33,1.34,1.34,0,0,0,.08-.48l-.16-.33a1.72,1.72,0,0,0-.24.33l-.16.32c-.27-.21-.45-.3-.53-.24a.67.67,0,0,0-.2.4c-.06.22-.11.41-.16.57a3.49,3.49,0,0,1-1.7,1.3,1.57,1.57,0,0,1,.08-.61,1.33,1.33,0,0,0,.08-.45c0-.16-.11-.19-.33-.08a2.18,2.18,0,0,0-.4.24c-.06-.1,0-.24.12-.4s.07-.32-.2-.49c0,.11-.12.29-.37.53a1.77,1.77,0,0,1-.6.45,5.54,5.54,0,0,1-.81-.89,5,5,0,0,1,.76-.81c.46-.44.69-.79.69-1.06a.65.65,0,0,0-.24-.4l-.93,1.13q-.62.74-.93,1v-.8a1.67,1.67,0,0,1,.32-1.06,2,2,0,0,1,.61-.52,1.24,1.24,0,0,0,.53-.53,3,3,0,0,0-.45-.2c-.08,0-.15,0-.2.12a.92.92,0,0,1-.33.32,2.78,2.78,0,0,1-.81.57,1,1,0,0,1-.12.32.39.39,0,0,1-.36.25c-.11-.06-.14-.2-.08-.41a.31.31,0,0,0-.25-.41,1.66,1.66,0,0,1-.16.53.32.32,0,0,1-.28.12.65.65,0,0,0-.45.25,1,1,0,0,0-.36.36,1.27,1.27,0,0,1-.37.37,1.23,1.23,0,0,1-.44.24,2.8,2.8,0,0,0-.45.16,3,3,0,0,0-.4,1.21,10.59,10.59,0,0,1-.86,1.1,3.4,3.4,0,0,0-.68,1.09,3.94,3.94,0,0,1-.37,1c-.19.37-.36.56-.53.56s-.24-.19-.4-.56a1.68,1.68,0,0,0-.32.72c-.06.28-.11.49-.16.66a.49.49,0,0,1-.37.2c-.19,0-.28.06-.28.12v.57a9.91,9.91,0,0,0-.9,3.88,3.46,3.46,0,0,0,1.34,2.8,24.09,24.09,0,0,0,3.77,2.39,7.53,7.53,0,0,1,1.09.57c.35.21.69.4,1,.56a1.87,1.87,0,0,0,.68.33,5.75,5.75,0,0,1,.61.16.75.75,0,0,1,.37.24.71.71,0,0,0,.28.24.58.58,0,0,0,.2,0,.22.22,0,0,1,.21,0,6.55,6.55,0,0,1,.81.65,4.34,4.34,0,0,0,.81.65,3.58,3.58,0,0,0,.73.12l.81.12a13.43,13.43,0,0,0,2.75.25,10.3,10.3,0,0,0,1.46-.08c.32-.06.82-.11,1.5-.17a8.16,8.16,0,0,0,1.58-.24l2.91-1.38a12.56,12.56,0,0,0,2.92-1.17c.92-.52,2-1.17,3.16-2a40.39,40.39,0,0,0,4.62-3.81c.21-.22.63-.63,1.26-1.22a26.26,26.26,0,0,0,1.82-1.94,15.71,15.71,0,0,0,1.62-2.35,17.18,17.18,0,0,0,2.59-5.27,6.75,6.75,0,0,0,.32-2,8.61,8.61,0,0,0-.24-1.86c-.05-.27-.15-.63-.28-1.09a4,4,0,0,1-.21-1.1,1.39,1.39,0,0,1,.17-.64,1,1,0,0,1-.65-.65,2.78,2.78,0,0,0-.4-.81,1.86,1.86,0,0,1-.45-.2,1.32,1.32,0,0,1-.28-.21,2.33,2.33,0,0,0-.57-.89,3.14,3.14,0,0,0-.73-.65,8.94,8.94,0,0,1-.73-.56,2.26,2.26,0,0,1-.4-.29.82.82,0,0,0-.49-.2l-.49.24q-.07-.24-.6-.48c-.36-.17-.59-.27-.69-.33a1.31,1.31,0,0,1-.41-.2,2.36,2.36,0,0,0-.32-.2,3.41,3.41,0,0,1-.41-.17l-.32-.16-.41-.16a1.8,1.8,0,0,1-.48-.24l-.73-.73-1.87-1a14.23,14.23,0,0,0-3.07-1.46,4,4,0,0,0-.86-.08,2.51,2.51,0,0,1-.69-.08,14.71,14.71,0,0,0-2.59-.41,17.79,17.79,0,0,0-3.4-.4l-1,0a7.66,7.66,0,0,1-1.34,0,.46.46,0,0,0-.57-.08l-.08.08h-.81a.47.47,0,0,1-.32-.13.49.49,0,0,0-.25-.12,1.06,1.06,0,0,0-.52.17,1.29,1.29,0,0,1-.61.16,1.5,1.5,0,0,1-.77-.12,1.42,1.42,0,0,1-.12-.77,4.93,4.93,0,0,1,.28-1.58l.45-1.34a6.1,6.1,0,0,1,.52-1.22,10.57,10.57,0,0,0,.61-1.21,15.62,15.62,0,0,1,1.38-2.67,27.47,27.47,0,0,1,2.91-4l1.3-1.62c1.94-2.27,3.72-4.21,5.31-5.83a39.31,39.31,0,0,1,5.07-4.37c2.69-2.11,4.56-3.49,5.58-4.14a29,29,0,0,1,3.49-1.78,7,7,0,0,0,1.09-.61,9.2,9.2,0,0,1,1.38-.73,1.23,1.23,0,0,1,1.17,0,7.77,7.77,0,0,0-1.13,2,6.71,6.71,0,0,1-1,1.7,3.33,3.33,0,0,1-.61.45.85.85,0,0,0-.44.6q-.09.09,0,.33a.87.87,0,0,1,.13.32c0,.06,0,.08,0,.08h0c-.06,0-.19-.1-.41-.32a1.57,1.57,0,0,1-.69.81,2.28,2.28,0,0,0-.69.57,2.59,2.59,0,0,0-.44.6,2.46,2.46,0,0,1-.37.53l-1.37,1.62a16.21,16.21,0,0,1-1.46,1.7q-2.35,2.52-3.08,3.48-1.38,1.54-2.19,2.28a18.11,18.11,0,0,1-1.38,1.29,2,2,0,0,1-.48.16.62.62,0,0,0-.41.25.69.69,0,0,0,.08.93,6.31,6.31,0,0,0,1.38,1.21,11.6,11.6,0,0,1,1.22.94,6.55,6.55,0,0,0,1.61,1l.78.52a7.8,7.8,0,0,1,.85.69V243l.89.65a.24.24,0,0,1,0,.24c0,.11,0,.19,0,.24l.73.41a.74.74,0,0,0,.4.16,1,1,0,0,0,.49-.24,4.86,4.86,0,0,0,1.7-1.42c.54-.68.87-1.09,1-1.26q2.35-2.67,4.7-5.18a86.36,86.36,0,0,0,6.73-7.86,24.19,24.19,0,0,0,2.35-4c.21-.32.58-.89,1.09-1.7a10.08,10.08,0,0,0,1.09-2.19v-1.13a2.68,2.68,0,0,1,.25-.33Zm-95,59.87a.51.51,0,0,0,.08.33,1.43,1.43,0,0,1-.65-1.14,1.34,1.34,0,0,1,.49-.89,1.09,1.09,0,0,1,.24.65,1.64,1.64,0,0,1-.08.57,1.61,1.61,0,0,0-.08.48M156,276l.08-1.71a2,2,0,0,1,.53,1,8.67,8.67,0,0,1,.16,1.25,4.32,4.32,0,0,0,.2,1.18,1.85,1.85,0,0,1-1-1.7m31.84-7.38a.46.46,0,0,1,0-.4l.81-.08a1.09,1.09,0,0,0-.12.36c0,.13-.18.2-.45.2a.15.15,0,0,1-.24-.08m-27.95-2.87c-.17,0-.17.12,0,.28a1.07,1.07,0,0,1,.24.65,1.49,1.49,0,0,1-.24.73,8.73,8.73,0,0,0-.33,2.59c0,.21-.16.43-.48.65a4,4,0,0,1-.09-1,16.35,16.35,0,0,1,.33-2.75,12.14,12.14,0,0,0,.32-1.7.49.49,0,0,0,.29.32.75.75,0,0,0,.28.08.57.57,0,0,1-.32.13m1.37,1a5.76,5.76,0,0,1-.24,1.78l-.16.33a.92.92,0,0,0-.08.4.33.33,0,0,0,.08.24.66.66,0,0,1,0,.45.43.43,0,0,1-.33.16l-.32,0a22.48,22.48,0,0,0,.49-2.35,13.12,13.12,0,0,1,.56-2.67ZM157.11,265a37.09,37.09,0,0,0-.89,7.13,2.43,2.43,0,0,1-.16-1.22,22,22,0,0,1,.36-3.64c.25-1.41.48-2.17.69-2.27m2.84-1.54v-.25l.64.17c-.05.16-.11.39-.2.69a1.11,1.11,0,0,1-.52.68.84.84,0,0,1,0-.68,2.09,2.09,0,0,0,.12-.61m3.89-7.7c-.65,1.83-1.19,3.62-1.62,5.35h-.17a13.92,13.92,0,0,0,.17-1.5,3.21,3.21,0,0,1,.64-1.82,3.76,3.76,0,0,0,.24-1.71.62.62,0,0,1,.13-.44c.08-.08.19-.08.32,0a.72.72,0,0,0,.29.12m-1.7.36c-.11,0-.19-.06-.25-.28s.19-.46.57-.57c-.11.22-.14.36-.08.41a.32.32,0,0,0,0,.16.28.28,0,0,1,0,.24l-.24,0m.8-7.49.82-1.13c-.06.16-.12.39-.21.68a.56.56,0,0,1-.61.45m1.42-4.38a1.93,1.93,0,0,1,.53-.56,1.89,1.89,0,0,1-.08.56,1.43,1.43,0,0,1-.41.57,1.78,1.78,0,0,1,0-.57m-2.14,1.14q-.41,1.62-1.14,3.81a8.34,8.34,0,0,0-.52,1.7c-.14.65-.26,1.19-.37,1.62a2.7,2.7,0,0,0-.57,1.54,2.06,2.06,0,0,0,.25,1,.65.65,0,0,0-.37,0c-.08,0-.15.15-.2.37a13.94,13.94,0,0,1-.57,2.1,19.49,19.49,0,0,0-.65,2.84c-.05.11-.12.25-.2.44a3.63,3.63,0,0,0-.2.61q-.17-1.05,2.19-9.36c1.56-5.53,2.56-8.44,3-8.71a2,2,0,0,1-.2,1.18l-.44.93m5.26-2.23q.09,0,0,.12l-.56,2.31c-.17.68-.3,1.26-.41,1.74s-.41.65-1,.65a.3.3,0,0,1-.25-.4,2.2,2.2,0,0,0,.09-.41l-.09-.4a1.86,1.86,0,0,1-.08.48,1.61,1.61,0,0,1-.28.61,1.12,1.12,0,0,1-.77.37.47.47,0,0,1,0-.41,1,1,0,0,0,.12-.41.26.26,0,0,0-.16-.24l-.24.08a8.29,8.29,0,0,0,1.62-3.32,1.21,1.21,0,0,1,.24.73,2.37,2.37,0,0,1-.08.61,2,2,0,0,0-.08.6c0,.06.19.19.56.41a7.33,7.33,0,0,1,.21-2A2.34,2.34,0,0,1,167.4,243a.14.14,0,0,0,.08.12m-1.94-1.82a1.73,1.73,0,0,1-.57,1.86,2.37,2.37,0,0,1,.57-1.86m1.34,0a3,3,0,0,1-.45.77,8.64,8.64,0,0,1,.32-1.46,1.68,1.68,0,0,1,.13.69m3.28-3.93a1,1,0,0,1-.25.73,2.09,2.09,0,0,0-.89,1.45,3.33,3.33,0,0,1-1.13,2.11c0-.16,0-.46,0-.89a1.85,1.85,0,0,1,.44-1.13,2.88,2.88,0,0,0,.9-2.11,1.88,1.88,0,0,1,.28-1.25c.24-.41.42-.72.52-.94.17.33.17.57,0,.73a1.85,1.85,0,0,0-.32.41c.27.11.41.4.41.89m-4.95-1.78.81-2.28h.33l-1,2.84-2.11,5.67h-.17q.42-1.53,2.11-6.23m1.34-3.49a5,5,0,0,0,.37-.73,2.14,2.14,0,0,1-.57,1.54,1.09,1.09,0,0,1,.2-.81m22.32-5.59V227a1.77,1.77,0,0,0-1.05.2,2.73,2.73,0,0,1-.89.28.64.64,0,0,1,0-.73,2.64,2.64,0,0,0,.28-.56l.57.36a1,1,0,0,0,.57.2,1.45,1.45,0,0,0,.56-.24m10.21-3c-.38.14-.54.26-.49.37s.11.13.17.08a.19.19,0,0,1,.16-.08c.05,0,0,.17,0,.36s0,.26.28.2a.66.66,0,0,0,.37-.08l.28-.16a1.13,1.13,0,0,0,.41-.16c.05-.05.05-.19,0-.41h.44a.76.76,0,0,0,.53-.24,3.09,3.09,0,0,0-.81-.08,4,4,0,0,0-1.3.2m-4.54-1.5h0Zm.89-1.7.17-.08a1.13,1.13,0,0,1-.65.41.47.47,0,0,1-.33-.09c.11-.26.26-.37.45-.32a1.46,1.46,0,0,0,.36.08m9.48,7.58c-.16-.14-.24-.26-.24-.37.16-.05.42-.12.77-.2a4.77,4.77,0,0,0,1-.36,2.84,2.84,0,0,1-1.1-.08,4.06,4.06,0,0,0-1-.17H204c-.43,0-.64-.08-.64-.24a.65.65,0,0,0-.13-.45.67.67,0,0,0-.36-.16,3.73,3.73,0,0,0-.41,0l-1.62.08a.34.34,0,0,1,.12-.2.41.41,0,0,0,.13-.28,1,1,0,0,1-.65.16h-.41a.63.63,0,0,0-.65.4h-.24c-.16-.16-.28-.23-.36-.2a1.15,1.15,0,0,0-.37.29,2.13,2.13,0,0,1-.73.08,3.67,3.67,0,0,0-1.54-.33,15.17,15.17,0,0,0-1.86.16,13.46,13.46,0,0,1-1.46.17,7.48,7.48,0,0,0-1.78.32.14.14,0,0,1-.16-.16c.16-.06.5-.15,1-.29a2.45,2.45,0,0,0,.93-.36,5.39,5.39,0,0,1,.85-.16,1.1,1.1,0,0,0,.85-.49.91.91,0,0,1,.41-.32,1.39,1.39,0,0,1,.65-.16.86.86,0,0,1,.64.24c.06-.38.23-.6.53-.65a2.63,2.63,0,0,0,.61-.16,1,1,0,0,0,.37-.25s0-.18-.13-.4,0-.49.17-.49a.46.46,0,0,0,.4,0,1.47,1.47,0,0,1,.4-.08c.11.06.28,0,.49-.16a1,1,0,0,1,.49-.24.45.45,0,0,1,.32.16.79.79,0,0,0,.65,0,2,2,0,0,0,.57-.53,3.48,3.48,0,0,0-.86,0c-.29,0-.49,0-.6,0a.37.37,0,0,1-.28-.32c0-.16-.1-.22-.21-.16a4,4,0,0,1-.89.08h-.89a3.14,3.14,0,0,0-1.38.32.39.39,0,0,0,.29.08c.13,0,.17.06.12.17a2.56,2.56,0,0,1-1.38.32,1.93,1.93,0,0,1-1.3-.32,1.34,1.34,0,0,0,.57-.17c-.65,0-2.37.27-5.19.65-1.29.22-2.26.35-2.91.41a43.11,43.11,0,0,1,4.94-1l2.35-.36a17.25,17.25,0,0,0,3.4-.85.38.38,0,0,1-.32.2c-.16,0-.24.1-.24.2a3.3,3.3,0,0,1,1,0,1.24,1.24,0,0,0,1.17-.48c0-.05.14-.08.41-.08a2.58,2.58,0,0,0,.73.08,9.68,9.68,0,0,0,1-.08,3,3,0,0,1,1.05,0,1.19,1.19,0,0,0,.61-.12,1.08,1.08,0,0,0,.37-.45,3.42,3.42,0,0,0-1.38-.57h-.16a2.77,2.77,0,0,1-1.42,0,6.45,6.45,0,0,0-1.26-.2,11.17,11.17,0,0,0-1.29.08,11.48,11.48,0,0,1-1.3.08l-.89-.08a4,4,0,0,0-2.27.65.51.51,0,0,1-.44-.08,1,1,0,0,0-.45-.16h-.08c-.43.1-1.11.31-2,.61a8.14,8.14,0,0,1-2.43.44,15.76,15.76,0,0,0-3.08.57,50.85,50.85,0,0,0-5.91,1.46c-.06,0-.15.06-.29.2s-.25.17-.36.12a.77.77,0,0,0-.77-.08l-.69.24a4,4,0,0,0-.61.2,3.53,3.53,0,0,1-.6.21c-.16.1-.31,0-.45-.21s-.25-.36-.36-.36a1.58,1.58,0,0,1-1.22-.49,1.89,1.89,0,0,0-1.13-.56l0,0s0-.09,0-.2a1.22,1.22,0,0,0-.69-.52,3.69,3.69,0,0,1-.85-.45,1,1,0,0,0-.49,0,.42.42,0,0,0-.32.2,15.82,15.82,0,0,1-.81,1.87l-.37.72a5.79,5.79,0,0,0-.36,1c-.22.65-.65,1.67-1.3,3.08a8.23,8.23,0,0,0-.49,1.45,5.84,5.84,0,0,1-.56,1.54,6.37,6.37,0,0,0-.57,1.38,9.48,9.48,0,0,1-.4,1.14c-.27.91-.46,1.51-.57,1.78-.33.81-.61,1.55-.85,2.23s-.47,1.25-.69,1.74-.38,1.27-.65,2l-.57,1.78c-.27,1-.45,1.6-.56,1.87a5,5,0,0,1-.25.81c-.1.27-.21.59-.32,1s-.33.92-.49,1.46-.27.95-.32,1.22-.35.9-.73,1.74a5.15,5.15,0,0,0-.49,2.47l-.08.16a.82.82,0,0,0-.48.73,1.46,1.46,0,0,1-.33.81.13.13,0,0,0,0,.16.55.55,0,0,1,0,.24c.16.38.16.63,0,.73a4.74,4.74,0,0,0-.48,1.54,9.41,9.41,0,0,1-.45,1.58,3.2,3.2,0,0,0-.2,1.75.69.69,0,0,1-.24.48,2.33,2.33,0,0,0-1,1.78,8.08,8.08,0,0,1-.2,1.59,16.44,16.44,0,0,0-.28,1.66c-.06.53-.18,1.55-.37,3a18.45,18.45,0,0,0-.12,4v.77a7.57,7.57,0,0,0,.12,1.3,1.88,1.88,0,0,0,.77,1.18.33.33,0,0,1-.24.08.14.14,0,0,0-.16.16c.43,0,.65.05.65.16l-.17.49a.82.82,0,0,1,0,.28.36.36,0,0,0,0,.28,3.54,3.54,0,0,0,2.35,1.3,6.71,6.71,0,0,0,.93.12,1.19,1.19,0,0,1,.94.53c.05-.27.23-.32.52-.16s.5.08.61-.25c.11.22.2.42.29.61s.14.34.2.45a1.36,1.36,0,0,0,1.13.81,1.49,1.49,0,0,0,.57-.08l2.59-1,2.59-1c1.73-.43,3-.73,3.89-.89.38-.11,1.16-.3,2.35-.57a7.88,7.88,0,0,1,1.3-.36,7.28,7.28,0,0,0,1.3-.37c.26,0,.4-.05.4-.16s0-.35.12-.4a.92.92,0,0,1,.37-.08h.76a1.63,1.63,0,0,0,.86-.17,3.33,3.33,0,0,1,1.78-.4h1.13a.89.89,0,0,0,.45-.12.77.77,0,0,0,.28-.29.9.9,0,0,1,.9-.65h.32s.13-.1.24-.32a1.61,1.61,0,0,0-.89-.2,1.19,1.19,0,0,1-1.05-.61.92.92,0,0,0,.6-.24,2.28,2.28,0,0,1,.45-.32c0,.1.15.26.28.48a1.17,1.17,0,0,1,.21.65,2.23,2.23,0,0,0,.4,0,1.37,1.37,0,0,0,.49-.2.57.57,0,0,0-.41-.17.48.48,0,0,1-.32-.08c.11-.7.43-1.05,1-1.05h.16a15.11,15.11,0,0,0,1.78-.25c.11.11.12.21,0,.29s-.1.15,0,.2a6,6,0,0,0,1.06-.57,3.27,3.27,0,0,1,1-.48,17,17,0,0,0-1.86.08.29.29,0,0,1-.33-.33.28.28,0,0,1,0-.28.29.29,0,0,1,.25-.12,1.5,1.5,0,0,0,.6-.12,1.54,1.54,0,0,1,.61-.12,1.35,1.35,0,0,0,1.22-.25,1.24,1.24,0,0,0-.9-.4,1,1,0,0,0-.4.08l-.65,0a1.39,1.39,0,0,0-.89.45.48.48,0,0,1-.49,0,.67.67,0,0,1-.32-.45.55.55,0,0,1,.61-.24,3.1,3.1,0,0,0,.61.08.64.64,0,0,0,.64-.32l-.36,0a.22.22,0,0,1-.28-.12,5.25,5.25,0,0,1,1.05-.56,2.06,2.06,0,0,0,1-1c.11-.1.22-.08.33.09s.21.16.32,0a1.27,1.27,0,0,0-.08-1,.35.35,0,0,1,.24-.08c.11,0,.17-.05.17-.16a.58.58,0,0,1-.33-.57l1.46.17a2.6,2.6,0,0,1-.81.48c.38,0,.82-.09,1.34-.12a4,4,0,0,0,1.33-.28,1.12,1.12,0,0,0-.65,0,1.06,1.06,0,0,1-.72-.08q1.13-.5,2-.78L195,266a16.45,16.45,0,0,0,1.62-.49,20.65,20.65,0,0,0,2.27-.89,1.41,1.41,0,0,0-.65-.24,1.67,1.67,0,0,0-.57.08,1.34,1.34,0,0,1-.48.08c-2.11.32-3.62.51-4.54.57a.6.6,0,0,0-.45.24,1.63,1.63,0,0,0-.28.49,1,1,0,0,1-.16-.65v-.41a3.55,3.55,0,0,0,.89.08,1.42,1.42,0,0,0,1.05-.4,8.71,8.71,0,0,0-1.13-.24,1.32,1.32,0,0,0-.57.08,3.59,3.59,0,0,1-1.21.32,2.53,2.53,0,0,1-.74-.16,1.36,1.36,0,0,0-.8.12,3,3,0,0,1-.82.2l-3.88.49a16.13,16.13,0,0,0-1.7.4,22.24,22.24,0,0,1-3.49.57,28.51,28.51,0,0,0-4.37.49,56.46,56.46,0,0,0-6.08,1.13l-1.86.57c-.22.05-.53.15-.93.28a3.24,3.24,0,0,1-1,.2,1.15,1.15,0,0,1-.48-.07.94.94,0,0,1,0-.77c.1-.25.19-.42.24-.53l.24-2.76a6.21,6.21,0,0,1,.25-1.05q.15-.48.24-.81a8.06,8.06,0,0,0,.64-2.51,1.34,1.34,0,0,1,.17-.57,1.11,1.11,0,0,1,.48-.48l2.19-1.06q1.62-.4,4.86-1.54c.49-.16.73-.43.73-.81.06-.05.12,0,.2.12s.18.18.29.13a7.74,7.74,0,0,1,1.7-.53l1.38-.29,3.32-.8a13.1,13.1,0,0,0,1.5-.41,4.51,4.51,0,0,1,1.82-.24,1.09,1.09,0,0,0,.65-.24,1.77,1.77,0,0,1,1.13-.66,1.93,1.93,0,0,1,.81.25h.08a.21.21,0,0,0-.12-.16c-.08-.06-.06-.14,0-.25a12.18,12.18,0,0,0,1.62-.73,3.7,3.7,0,0,1,1.95-.48.6.6,0,0,0-.08-.24.49.49,0,0,1,0-.41c.1-.38,0-.46-.41-.24a1,1,0,0,1-.44,0,.66.66,0,0,1-.29-.12c0-.27-.17-.35-.36-.25a1,1,0,0,1-.45.17,3,3,0,0,0-1,.48c0-.54-.24-.81-.73-.81H187a2.28,2.28,0,0,1-1.3.73.35.35,0,0,0-.36-.32H185a.54.54,0,0,1-.4-.17,1.57,1.57,0,0,1,.65-1,4.76,4.76,0,0,1,1.86-.4A1.43,1.43,0,0,0,188,249a2.06,2.06,0,0,1,.77-.28l.32.08v-.24c-.1-.11-.29-.11-.56,0a1.83,1.83,0,0,1-.65.16.69.69,0,0,1-.49-.32.47.47,0,0,1,.33-.08.31.31,0,0,0,.32-.25.61.61,0,0,0-.28-.12.37.37,0,0,1-.29-.2,14.25,14.25,0,0,1,2.35-.53l2-.28a3,3,0,0,0-1.05,0,10.44,10.44,0,0,1-1.14.08h-.57a54.11,54.11,0,0,1,7.54-1.7,5.06,5.06,0,0,0-2.11-.41h-1.13a3.31,3.31,0,0,0,1.13-.28,3.46,3.46,0,0,1,1.06-.29q-.16-.48-.09-.6c.06-.08.22-.12.49-.12s.49,0,.81,0,.52,0,.57-.13a1.63,1.63,0,0,1,1.18-.4,1.89,1.89,0,0,0,1.09-.24,1.4,1.4,0,0,1,.36-.13.49.49,0,0,0,.32-.16.45.45,0,0,0,.13-.36v-.32a2.49,2.49,0,0,1-.53-.09.44.44,0,0,0-.53.33,1.45,1.45,0,0,0-.89-.24,4.27,4.27,0,0,0-.85.08,5.08,5.08,0,0,1-.85.08,16.51,16.51,0,0,0-3.4.48,27.17,27.17,0,0,1-5.1.49l2.51-.32a2.65,2.65,0,0,0-.73-.17l-1.06.08a4.27,4.27,0,0,1-.89-.16c0-.05,0-.07-.08,0a.83.83,0,0,0-.16.12,1,1,0,0,1-.73.24h-.65a1.31,1.31,0,0,0-.73.17h-.16a2.84,2.84,0,0,0-1.86.4,29.35,29.35,0,0,0-4.3.65c-1.4.32-2.26.51-2.59.57a19.17,19.17,0,0,0-3.16.89q-.41.16-1.5.48a9.94,9.94,0,0,1-1.9.41l.89-2.43c.27-.59.62-1.54,1-2.83a24.4,24.4,0,0,1,1-2.68c.11-.32.25-.74.41-1.25a5.17,5.17,0,0,1,.65-1.38,2.47,2.47,0,0,1,1.29-.93c1.08-.55,2.3-1.08,3.65-1.62a20.61,20.61,0,0,1,3.48-1c1.19-.38,2.22-.67,3.08-.89.7-.11,1.7-.32,3-.65a27.29,27.29,0,0,1,3.73-.81,13.92,13.92,0,0,0,1.5-.32,12.26,12.26,0,0,1,1.58-.32,20.94,20.94,0,0,1,2.83-.41c.44,0,.68-.11.73-.32H201a18.47,18.47,0,0,0,4-.33c.11-.11.09-.23-.08-.36m-66.11,46c-.05-.06-.08-.06-.08,0l.08.08s0,0,0-.08m.16-.12c0,.13-.05.2-.16.2l-.08-.08a.3.3,0,0,1,.24-.41Zm.25-1.18v-.24c-.06-.06-.08,0-.08,0a.24.24,0,0,0,.08.2m1.54-11.5a.4.4,0,0,1,0,.64.39.39,0,0,1,0-.64m5.1-5.84-.08-.32-.57.32v.33l.37,0c.19,0,.28-.12.28-.29m1.54-6.28-.08,0c0,.11,0,.16.08.16s.05-.09,0-.12m-.49,0h0c-.05,0-.08,0-.08,0v0h0s0,0,0-.08m-.08-.16c.22.11.24.16.08.16,0,.06,0,.08-.08.08l-.08.08c-.05-.16,0-.26.08-.32m.57.08V249l-.12-.12s0,0,0,0c-.11-.27-.14-.4-.08-.4a.5.5,0,0,1-.17-.73q.33.08.33,1.05m0-1.94a1.91,1.91,0,0,1,0,.65,1.49,1.49,0,0,1-.24-.73.45.45,0,0,1,.08-.33.72.72,0,0,1,.2.41m2.15-1.22a.27.27,0,0,0-.16-.08l.16.24a.1.1,0,0,0,0-.16m.24-.57a1.94,1.94,0,0,1-.24.73.36.36,0,0,1-.12-.16l0-.08c-.06-.16.05-.43.32-.81a.33.33,0,0,0,.08-.24c.06,0,.06.24,0,.56m-2.51-1.17c.11.08.11.17,0,.28s-.1,0-.12,0l0-.12c0-.16,0-.2.16-.12m6.72-8.79c.22.05.25.14.09.24s-.25-.08-.09-.24m1.38-3.57a2.23,2.23,0,0,0-.65-1.62,1.41,1.41,0,0,0-.36-.24,1,1,0,0,1-.37-.24.54.54,0,0,1,0-.37,2.78,2.78,0,0,0,0-.36c-.05-.16-.25-.33-.6-.49a5.1,5.1,0,0,1-.77-.4,17.21,17.21,0,0,0-1.62-1.14c-.33-.27-.71-.55-1.14-.85a13,13,0,0,1-1.37-1.09,3,3,0,0,0-1.63-.89c-.43,0-.83.35-1.21,1a43.37,43.37,0,0,0-3.16,7.94,17.23,17.23,0,0,0-.57,1.7c-.81,2.38-1.27,3.78-1.38,4.22-1,2.8-1.67,4.94-2.1,6.4l-1.38,5a96.53,96.53,0,0,0-2.43,11.66c-.22,1.41-.59,3.52-1.13,6.33a15.64,15.64,0,0,0-.41,2.27c-.16.8-.24,1.24-.24,1.29l-.16.73a.43.43,0,0,1,.48.32c0,.06,0,.11-.12.17a.21.21,0,0,0-.12.16c.05.05.07.24,0,.57s0,.51,0,.56c-.06.22-.11.45-.17.69a3.37,3.37,0,0,0-.07.69,26,26,0,0,0,.48,4.86c.38,2.16,1.32,3.59,2.84,4.29l.08.08h.08l.16.09a1.87,1.87,0,0,0,.73.24c.11,0,.16-.08.16-.24l-.08-.49a12.89,12.89,0,0,1-.16-1.46,11.06,11.06,0,0,1,.24-2.1c.06-.33.11-.87.16-1.62a7.25,7.25,0,0,1,.49-2.15,2,2,0,0,1,1.54-1.26c0-.16-.22-.25-.49-.28s-.43-.1-.48-.2,0-.35.12-.41a.86.86,0,0,0,.28-.16,6.66,6.66,0,0,1,.61-.93,4.58,4.58,0,0,0,.69-1.42,9.53,9.53,0,0,0,.32-2.39v-1.5a3.63,3.63,0,0,1,.41-2c.32.32.55.39.69.2a4.56,4.56,0,0,0,.44-.93,1.49,1.49,0,0,0-.08-.57l.41-.24a3,3,0,0,1,.2-.49,2.51,2.51,0,0,0,.2-.65v-.52a2,2,0,0,1,.08-.61,1.53,1.53,0,0,1,.25-.45.63.63,0,0,0,.16-.36,1,1,0,0,0,0-.53,1.52,1.52,0,0,1-.08-.45c0-.26.19-.4.56-.4a.5.5,0,0,1-.12-.65c.14-.21.23-.37.29-.48.48.43.73.08.73-1.06A8.93,8.93,0,0,1,145,257a3.29,3.29,0,0,0,.2-1.49s-.08,0-.08,0,0,0,.08,0c-.27,0-.2-.39.2-1.18a8.91,8.91,0,0,0,.69-1.5l-.08-.64.25,0c.11,0,.11-.13,0-.29,0,.06-.08.16-.25.33v-.09c-.21-.1-.27-.24-.16-.4a.43.43,0,0,1,.16-.32c0-.11,0-.35.08-.73a2.19,2.19,0,0,1,.49-1.06.72.72,0,0,1,.12.53c0,.19,0,.34,0,.45a.91.91,0,0,0,.16.64l.49-.64q.33-.26,0-.57a1.45,1.45,0,0,1,.44-.41.75.75,0,0,0,.37-.48c0-.17.15-.53.28-1.1s.31-.85.53-.85.24.16.4.49a46.16,46.16,0,0,0,2.11-6.32,3,3,0,0,1,.41-1.22.52.52,0,0,1,.28-.24.86.86,0,0,0,.28-.16.65.65,0,0,1,.33-.2.55.55,0,0,0,.24-.13c0-.05-.22-.16-.65-.32a1.75,1.75,0,0,0,.89-.89,9.34,9.34,0,0,0,.41-.89,25.73,25.73,0,0,0,1.05-2.92,11.16,11.16,0,0,1,.41-1.3,4.89,4.89,0,0,0,.32-1.62M86.27,277h-.08V277a2,2,0,0,0-.25.82c0,.12,0,.17.09.17l.16-.08a.63.63,0,0,0,.41-.66.29.29,0,0,0-.33-.33m27.84-4.7c0-.11-.08-.16-.24-.16,0,.16.08.22.24.16m-20.59-8.15a1,1,0,0,0,.17.33c.27-.17.3-.36.08-.58-.22,0-.3.09-.25.25m-1.28-1.4c.09,0,.13.08.13.25s-.22.08-.33-.09c0-.11.12-.16.2-.16m.3-.62c.16-.08.24-.07.24,0l-.08.08a.24.24,0,0,1-.16.09q-.26-.09,0-.21m22.73-.12c.38.27.33.66-.17,1.15l-.24.33a4.84,4.84,0,0,1,.12-.74,1.61,1.61,0,0,1,.29-.74m-23.44-.13,0,0v.09c.06,0,.07,0,0-.05m.13-.2c.16.16.11.25-.17.25h0s0,0,0-.09-.07-.09,0-.12.1,0,.21,0m1-.17h-.09v.08Zm-.09,0c-.11-.11,0-.16.17-.16l.08.16H93v0s0,0-.09,0Zm-3.21.13c-.38.9-.69,1.38-.9,1.44l-.17.25a6.51,6.51,0,0,0,.37-1.2,7.5,7.5,0,0,1,.58-1.61c.24-.49.53-.74.86-.74-.11.33-.36.95-.74,1.86m6.92-2c.05-.11,0-.14-.25-.08a2.83,2.83,0,0,0-1.15.49l-.08.08h.41l.58-.16a.43.43,0,0,0,.2-.08,1.93,1.93,0,0,0,.21-.17l.16-.08Zm22.16-1.15q-.17-.33-.33-.33.33-.25.33.33m-8.65-.91c0-.17,0-.19-.08-.08Zm9-.12s0,0,0,0l-.17.16q-.08-.24.09-.33a.13.13,0,0,0,.08.13m-8.82,0a.24.24,0,0,0-.08.16c0-.05,0-.08,0-.08h0l-.08-.08c0-.22.14-.25.24-.09q.09,0,0,.09m9-.66s0,0,0,.08l.08-.08Zm-8.73.08v0Zm8.73-.41c.17.11.19.22.08.33v0s0,0-.08,0a.57.57,0,0,1,0-.41M97,256v0Zm.29-.21L97,256c-.11-.06-.15-.1-.12-.13s.07,0,.12.05l-.08-.09.33-.16h-.08c.16,0,.24-.08.24-.25.11.11.07.23-.12.37m-4.53-1c-.14-.05-.24,0-.29.17h.41c.06-.06,0-.11-.12-.17m.62-1.23-.17.16Zm.08.33a1.24,1.24,0,0,1-.08.49.79.79,0,0,1-.5.58l-.12,0a.39.39,0,0,1-.29,0c0-.11.15-.33.29-.66a1.47,1.47,0,0,1,.62-.74s.08.11.08.33m26.94-1.49-.09-.16Zm.29-.29-.29.29c-.11-.11-.14-.16-.09-.16s.2-.17.25-.17.11,0,.16-.08a.58.58,0,0,0,.09-.25c0,.11,0,.24-.12.37m-21.79-1.27v.08l.08-.08c-.06-.06-.08-.06-.08,0m.08,0-.08.08-.09.08c-.11,0-.12-.12,0-.21s.15-.06.21,0m22.12-.21c-.14,0-.21,0-.21.13l.08.08a.37.37,0,0,0,.25-.08c0-.06,0-.1-.12-.13m-22-.37v0Zm22.61.12a1,1,0,0,1-.53.38l-.08,0a.37.37,0,0,1-.17,0c0-.06,0-.08,0-.08h0q-.25-.59.66-.75l-.08.09c.27,0,.37.15.28.28m-25-.65,0,.12-.16-.08c0-.11,0-.17.12-.17a.29.29,0,0,1,.21.09c-.06-.06-.1,0-.13,0m17.75-.75v0l-.08.09c.06,0,.08,0,.08,0m.09-.2c.27.11.3.25.08.41l-.25-.16c.06-.12.08-.14.08-.09Zm-27.1-.09v-.08l-.09.08q.09.09.09,0m34.68,0v0Zm-25.62-.08c.11-.27.19-.27.25,0s-.14.22-.25,0m25.86,0c0,.22-.14.25-.24.08v-.08c.1-.27.19-.27.24,0m-34.8.17q0,.08-.21-.09a.17.17,0,0,1,0-.12s0,0,0,0l.08-.16s.08,0,.08.12a.44.44,0,0,1,0,.21m25.17.82a12.54,12.54,0,0,1-.17,2.06c0,.22-.11.61-.17,1.15a2.77,2.77,0,0,1-.49,1.41,1.78,1.78,0,0,1-.45.57,2,2,0,0,0-.46.58,1.78,1.78,0,0,0-.24.7,3.11,3.11,0,0,1-.25.78c0-.16,0-.25,0-.25a.92.92,0,0,1,.08-.49c0,.06,0,0,.13-.25a2.94,2.94,0,0,0,.28-.57.63.63,0,0,0,0-.42,2.38,2.38,0,0,1,0-.41,1.66,1.66,0,0,1,.25-.45.64.64,0,0,0,.17-.37,1.92,1.92,0,0,0-.13-1,3.07,3.07,0,0,1-.2-.91v-.33a10.25,10.25,0,0,1,1.31-3.29,2.43,2.43,0,0,1,.34,1.48m9.8-1.56v0Zm.61-.7a2.67,2.67,0,0,1-.61.7V248a1,1,0,0,1,.2-.53,3.29,3.29,0,0,1,.37-.45c.06,0,.14-.11.25-.33.06.16,0,.4-.21.7M100,249.28c-.33.61-.63.94-.91,1v-.08a3,3,0,0,1,.54-1.94,8.71,8.71,0,0,1,1.36-1.93s0,.34-.21,1a9.07,9.07,0,0,1-.78,1.93m25.45-6.75c.22.33.22.57,0,.74-.33-.05-.33-.3,0-.74m-2.14-.66a.63.63,0,0,1,0,.74c-.33-.27-.33-.52,0-.74m2.88,0c0-.05,0-.08-.08-.08s.08,0,.08,0Zm.45-.87a1.56,1.56,0,0,0-.45.87l-.08-.08a2.55,2.55,0,0,1,.29-.95A2.91,2.91,0,0,1,127,240a1,1,0,0,1-.3,1m.63-1.48c0-.08,0-.09-.09,0l-.08.08c.11.06.17,0,.17,0m2.71-.2q0-.42-.33-.33a.3.3,0,0,0,.33.33m-2.39.28a.32.32,0,0,1-.49,0l.08-.08c.27-.28.47-.41.58-.41s.08.05.08.16a.52.52,0,0,1-.25.37m2.39.05v.16l.17.17.16-.09a2,2,0,0,0,.46-.41.79.79,0,0,0,.2-.49c0-.28-.16-.41-.49-.41a1.1,1.1,0,0,1-.25.49,1.05,1.05,0,0,0-.25.58m.33-1.07a.12.12,0,0,0,.17,0Zm-1.15,0-.08-.09Zm.08-.17-.08.17c-.06,0-.08,0-.08-.05v0c-.06,0-.09,0-.09-.08s.2-.11.25,0m.25-2.18-.08,0,.08.16s0-.1,0-.12m.29-.17-.29.29c-.11-.11-.14-.16-.08-.16s-.05-.18,0-.21a.58.58,0,0,1,.2,0V236l.09-.08.16-.25c0,.11,0,.24-.12.37m2.76-1.77c-.17-.16-.25-.11-.25.16v.05s0,0,.08-.05.1.07.12.05a.32.32,0,0,0,0-.21m-.79-1.32c-.19.11-.26.2-.2.25s-.09,0-.09.08a.76.76,0,0,1-.16.33,2.87,2.87,0,0,0-.57,1.07V235l.24-.08a9.07,9.07,0,0,0,1-.62c.36-.25.54-.42.54-.54s0-.27-.13-.49a2.94,2.94,0,0,0-.37-.5c0,.06-.09.14-.29.25m1.53-1v.09c-.11,0-.06.08.16.24l1-.49-.41-.49a.92.92,0,0,0-.45.2.56.56,0,0,0-.29.45m.33-2.18a.29.29,0,0,1-.33,0l-.17.25c-.1-.05-.07-.15.13-.29s.29-.23.29-.29c.16.11.19.21.08.29m3.17-.66a.57.57,0,0,0-.21.13.27.27,0,0,0,.16.08.25.25,0,0,0,.17-.08c0-.11,0-.16-.12-.13m-1.94-1.44.08-.16h0c.06-.17.05-.25,0-.25s-.09.14,0,.41m.54-.58a2,2,0,0,1-.54.58,3.74,3.74,0,0,1,0-.54,1.15,1.15,0,0,1,.25-.45l.29-.33a1.23,1.23,0,0,1,0,.74m1.11-1h0Zm0-.09v0Zm0,0-.25.09h.17Zm.17-.24c0,.05-.06.13-.17.24v0s0,0-.08,0h-.09c0,.05-.08.05-.08,0a.5.5,0,0,1-.41-.25c-.11-.17-.05-.27.17-.33a.58.58,0,0,1,.45,0c.14.06.21.14.21.25m1-1.57c-.11.11-.22.06-.33-.16.22-.17.33-.11.33.16m.83-1.56c.05,0,.08,0,.08-.08Zm.16.08a.24.24,0,0,1-.16-.08c0-.06,0-.08.08-.08s.19-.09.25.08a.27.27,0,0,1-.17.08m2.72-.58s0,0,0,.08Zm-.33.33c.22,0,.33-.08.33-.25l-.25-.08c-.16-.05-.19,0-.08.25Zm1.4-.45c0-.14,0-.21-.16-.21s-.24.09-.21.25a.71.71,0,0,0,.12.33c.11,0,.17,0,.17,0v0a.46.46,0,0,0,.08-.29m-.87-.08c.14-.14.07-.21-.2-.21v.41Zm2.85-6.14h0Zm.08-.12c.17,0,.22,0,.17,0l-.25.08h-.08c-.06-.06,0-.1.16-.12m.25-.54c.16-.16.16-.25,0-.25a.14.14,0,0,1,0,.13s0,.06,0,.12m.37-.29a3,3,0,0,0-.37.29.14.14,0,0,1,0-.16l0-.09.33-.16s.08,0,.08-.09a.72.72,0,0,1,.08-.24q.17.24-.12.45m.94-1.36c0-.11-.1-.13-.16-.08s0,.33.08.66a.77.77,0,0,0,.08-.58m.87-.74a5,5,0,0,0-.95,1.32,1,1,0,0,1-.08-.66,1.53,1.53,0,0,1,.46-.78,2.2,2.2,0,0,1,.78-.54.87.87,0,0,1,.16-.33q.16-.24.33-.24a.33.33,0,0,1,.25.08,7.89,7.89,0,0,1-.95,1.15m3.75-3.7-.91.66h.08c-.32.32-.49.54-.49.65.17.66.62.55,1.36-.33l1.19-1.4a1.7,1.7,0,0,0-1.23.42m2.3-2.81h0Zm0-.08v0Zm-.12-.29c0-.3,0-.48,0-.53a1.75,1.75,0,0,0-.49-1.73,7,7,0,0,0-1.07-1,1.56,1.56,0,0,0-1.16-.41,1.24,1.24,0,0,0-.78.49c-.3.33-.53.5-.7.5s-.14-.06-.24-.17c-.06.28-.35.58-.87.91a6.36,6.36,0,0,0-1,.74l-2.22,2.06a59.16,59.16,0,0,0-4.86,5.44,132.75,132.75,0,0,0-9.23,12q-1.48,2.14-3.46,4.53a17.64,17.64,0,0,1-1.15,1.48,23.76,23.76,0,0,0-2.23,3.79l-1.48,2.64L120.38,239a24.68,24.68,0,0,0-2.56,4.2l-.74,1.64c-.27.66-.59,1.34-1,2a4.78,4.78,0,0,1-1.27,1.61,1.15,1.15,0,0,1-.13-.91,9.16,9.16,0,0,1,.37-1.07c.17-.38.31-.71.41-1l.41-2.14.5-2.47a54.07,54.07,0,0,1,1.65-7.17c.06-.22.23-.71.53-1.48a5.74,5.74,0,0,0,.46-2.14,1.26,1.26,0,0,0-.21-.82,1.85,1.85,0,0,0-.62-.46l-.82-.45a11.69,11.69,0,0,0-2.22-1.4c-.33-.22-.64-.44-.91-.66a9.59,9.59,0,0,0-.82-.58,2,2,0,0,0-.83-.2,1.78,1.78,0,0,1-.82-.21,1.89,1.89,0,0,1-.62-.53,1.58,1.58,0,0,0-.78-.54,16.58,16.58,0,0,1-1.73-.57,3.49,3.49,0,0,0-1.4-.34,3.62,3.62,0,0,0-2.23,1.32c-1.75,1.65-3.21,3.07-4.36,4.25a27.44,27.44,0,0,0-3.13,3.82l-1.16,1.65a12.55,12.55,0,0,1-1.48,2.23L93.73,238a5.17,5.17,0,0,0-1,1.77,4,4,0,0,1-.78,1.36c-.36.41-.65.73-.87,1a7.2,7.2,0,0,0-1,1.81c-.49.93-.82,1.54-1,1.81A7,7,0,0,0,88,247.31v.45c0,.24-.08.37-.24.37a.69.69,0,0,1-.25-.08c-.11-.06-.19-.06-.25,0a.83.83,0,0,1-.16.12.88.88,0,0,0-.17.12.68.68,0,0,0,0,.41,2.43,2.43,0,0,1,0,.42l-.12.49a.39.39,0,0,1-.25.25c-.14,0-.26.11-.37.16q-.24.33-1,1.53c-.49.79-.79,1.19-.9,1.19-.33-.05-.5-.66-.5-1.81V250a18.37,18.37,0,0,1,.13-2c.08-.79.15-1.44.2-1.93l.08-.17c.22-.22.17-.41-.16-.57v-1.07c.16-.66.25-1,.25-1.07,0-.55.11-1.25.16-2.1a20.63,20.63,0,0,1,.25-2.19,5.46,5.46,0,0,1,.37-.94,2.63,2.63,0,0,0,.29-.87q0-.5-.66-.9a17.32,17.32,0,0,0-3.38-2.06c-.27-.11-.6-.22-1-.34a8.93,8.93,0,0,1-1-.32,6.32,6.32,0,0,1-1.07-.62,8.89,8.89,0,0,0-1-.62,4.51,4.51,0,0,0-1-.37,4.16,4.16,0,0,1-1-.37,4.12,4.12,0,0,0-1.82-.66h-.16c-.83.17-1.24.52-1.24,1.07a5.12,5.12,0,0,0,.34,1.32,5.43,5.43,0,0,1,.07,1.07c0,.71,0,1.32-.07,1.81s-.12.91-.17,1.24a21.06,21.06,0,0,1-.58,3,21.19,21.19,0,0,0-.41,2.23,27.56,27.56,0,0,0-.33,4.36v2.81a25.55,25.55,0,0,1-.17,3.54c-.43,3.4-.74,7.41-.9,12,0,.83,0,2.06.16,3.71l.09,1.89c0,.61.08,1.54.08,2.8s0,2.2.08,2.8c0,.22,0,.84.08,1.86a5.82,5.82,0,0,0,.58,2.43,2.58,2.58,0,0,0,1.07,1,4.67,4.67,0,0,0,1.57.46c.6.08,1,.15,1.23.2a3.47,3.47,0,0,1,1,.38,4.23,4.23,0,0,0,.86.37.68.68,0,0,0,.33-.09c.11-.05.19-.05.25,0a1.75,1.75,0,0,1,.7.17,5.86,5.86,0,0,1,.53.25,2.58,2.58,0,0,0,.75.16l1.07-.08a6.62,6.62,0,0,1,2.55.74h.09a.83.83,0,0,0,.24-.16.9.9,0,0,1,.25-.17,1.53,1.53,0,0,1,.41.08,2.84,2.84,0,0,1,.41.17,5.19,5.19,0,0,0,.91.25c.27,0,.46-.17.57-.5a.73.73,0,0,0,0-.66,2.44,2.44,0,0,1-.12-.66.48.48,0,0,1,.17-.33.27.27,0,0,0,.08-.33c0-.11-.07-.18-.21-.2s-.2-.07-.2-.12a.73.73,0,0,1,0-.54,5.21,5.21,0,0,0,.2-.54q.17-.57,0-.57c-.1,0-.22-.11-.32-.33a1.39,1.39,0,0,1,.08-1.4c.27-.5.44-.8.49-.91a3.27,3.27,0,0,0,.33-1.4,7.45,7.45,0,0,1,1-2.06,7.09,7.09,0,0,0,.74-1.89c.06-.22.17-.61.33-1.16,0-.22.11-.51.17-.86a4.12,4.12,0,0,1,.24-.95c.06-.11.14-.24.25-.41a3.31,3.31,0,0,0,.33-.74,1.87,1.87,0,0,0,.08-.62,2.2,2.2,0,0,1,.58-1.52,7.43,7.43,0,0,0,.57-.75,6.3,6.3,0,0,0,.33-.82,1.85,1.85,0,0,1,.42-.74,1.64,1.64,0,0,0-.17.74c0,.17.06.25.17.25s.16-.08.32-.25c.12.17,0,.33-.28.5a1.73,1.73,0,0,1-.7.24,1.17,1.17,0,0,0,.45.54,1.12,1.12,0,0,1,.45.62,8.46,8.46,0,0,0,1.16-1.53,8.08,8.08,0,0,0,.82-1.77c0-.16.14-.53.25-1.11s.27-.87.49-.87a.48.48,0,0,1,.33.17,4,4,0,0,0,.21-1.19,2.93,2.93,0,0,1,.2-1.12,1.21,1.21,0,0,1,.25-.32,1.16,1.16,0,0,0,.16-.75c-.38.06-.69.39-.94,1a8.29,8.29,0,0,1-.54,1.15,2.16,2.16,0,0,1-.86.87,2.65,2.65,0,0,0-.79.62c-.16-.22.2-1,1.07-2.31l.83-1.48a18.43,18.43,0,0,0,1.07-1.9l.16-1.07a2.58,2.58,0,0,1,.46-.49,2.54,2.54,0,0,0,.45-.5,1.3,1.3,0,0,0,.29-.53,2.39,2.39,0,0,1,.29-.62,1.49,1.49,0,0,1,.82-.49,1.78,1.78,0,0,0,.82-.42,3.84,3.84,0,0,1-.24,1.32,3.18,3.18,0,0,1-.37.5.89.89,0,0,0-.29.49.73.73,0,0,0,.12.37.79.79,0,0,1,.13.37v.17a1.17,1.17,0,0,1-.79.49,3.06,3.06,0,0,0-.86.33,2,2,0,0,0-.58,1,3.78,3.78,0,0,0-.25,1.19,1.35,1.35,0,0,0,.83-.49c.33-.33.55-.5.66-.5s.35.22.57.66A30,30,0,0,0,99,254.64c.05-.17.18-.47.37-.91a3,3,0,0,1,.54-.91,2.71,2.71,0,0,1,.16.83,6.47,6.47,0,0,1-.16,1.4,5.17,5.17,0,0,0-.17.91L99,260.4c-.16,1.15-.27,2.16-.33,3s-.11,1.55-.16,2.1l-.25,2.55c-.11,1.54-.16,2.8-.16,3.79s0,2.23.16,3.87a5,5,0,0,0,1.24,3,2.93,2.93,0,0,0,1.73.66c.71,0,1.2.11,1.48.16l1.56.5a1.09,1.09,0,0,0,.58,0,3.27,3.27,0,0,1,.66-.09h.16a4.48,4.48,0,0,1,.83.5,1.9,1.9,0,0,0,1.07.41l.33-.08q1.89-.42,3.54-3.87l.9-1.82a17.54,17.54,0,0,0,2.15-5.1,18.51,18.51,0,0,0,.74-4.29,1.3,1.3,0,0,0,.16-.57l-.24-.33.08-.5.82-.82.5-.41a1.59,1.59,0,0,0,.29-.45,1.34,1.34,0,0,1,.28-.46l.5-.74a2.61,2.61,0,0,0,.41-1,2.17,2.17,0,0,0,0-.82c0-.39,0-.63,0-.74a.59.59,0,0,1,.37-.25c.19,0,.29-.11.29-.16v.16c.11,0,.11,0,0-.16.38-.06.82-.55,1.32-1.49a5.37,5.37,0,0,0,.74-2.39,1.16,1.16,0,0,0-.25-.82c.22-.16.33-.08.33.25a1.92,1.92,0,0,0,1.28-1.4,7.74,7.74,0,0,0,.37-2.31c.27.17.43.21.49.12s.06-.23,0-.45a2.17,2.17,0,0,1-.08-.58v-.16a.26.26,0,0,1,.2.33,4,4,0,0,0,0,.41c.28,0,.59-.37,1-1.11s.56-1.17.62-1.28a3.69,3.69,0,0,0,.41-1.65l-.08-1.48c-.22,0-.43.15-.62.46s-.31.5-.37.61c-.06-.11,0-.34.21-.7a1.62,1.62,0,0,1,.45-.62.59.59,0,0,1,.53.13.83.83,0,0,0,.46.2,3.13,3.13,0,0,0-.33,1.4,1.17,1.17,0,0,0,1-.57,12.14,12.14,0,0,0,.86-1.81c.06-.11.17-.36.33-.74a5.75,5.75,0,0,1,.58-1.07,1.53,1.53,0,0,1,.82-.66c-.22-.22-.28-.4-.2-.54a1.81,1.81,0,0,1,.41-.45,1.76,1.76,0,0,0,.37-.41,1.49,1.49,0,0,0,.08-.66c0-.39.08-.58.25-.58a1.28,1.28,0,0,1,.49.17.82.82,0,0,1,.13-.46c.08-.14.15-.26.2-.37l-.25-.41a1.57,1.57,0,0,1,.21-.41.58.58,0,0,0,.13-.33c0-.11-.12-.25-.34-.41.22-.17.34-.09.34.24.21-.11.32-.22.32-.33a1,1,0,0,0-.12-.41l-.2-.41-.17-.33a.67.67,0,0,1-.08-.33.83.83,0,0,1,.08-.41,11.91,11.91,0,0,1,2.22-3.62c.06.1,0,.23-.08.37a.57.57,0,0,0-.16.37.29.29,0,0,0,.08.24c.16.28.4.25.7-.08s.48-.49.53-.49a.41.41,0,0,1,.46.12.57.57,0,0,0,.37.21.45.45,0,0,0,.24-.17c.22-.22.28-.43.17-.62a.54.54,0,0,0-.5-.29.75.75,0,0,0-.41.25c-.05-.05,0-.16.13-.33s.23-.24.28-.24.17.08.17.24a1.49,1.49,0,0,0,.66-.49,1.46,1.46,0,0,1,.12.33c0,.11.13.13.29.08l-.41-.41a6.19,6.19,0,0,0,.74-1l.57-.86a1.38,1.38,0,0,1,.34-.38.57.57,0,0,0,.24-.45c.06-.27,0-.44-.12-.49s-.29,0-.46.25c-.1-.11.28-.61,1.16-1.49a4.1,4.1,0,0,1,.37-.33.64.64,0,0,1,.29-.16c.11,0,.25.22.41.66.6-.61.91-1,.91-1.16a1.11,1.11,0,0,0,0-.28.34.34,0,0,1,0-.29,3.11,3.11,0,0,1,.61-.62,1.53,1.53,0,0,0,.54-.62.55.55,0,0,1-.45-.29.87.87,0,0,1-.21-.45.27.27,0,0,1,.41-.21c.22.09.31.16.25.21a9.79,9.79,0,0,1,1-.33,2.15,2.15,0,0,0,1.11-.57l-.2-.25a1,1,0,0,0-.29-.25l.9-.58c-.27-.27-.13-.71.42-1.31a13.37,13.37,0,0,0,1-1.16,2.43,2.43,0,0,0,.41-.82c0-.06,0-.08-.08-.08q-.32,0-.9.57-.17-.24.45-.78c.41-.36.65-.56.7-.62s0,.17,0,.33a1.05,1.05,0,0,0-.13.41v0s0,0,.09,0c.22,0,.45-.24.7-.7a4,4,0,0,0,.37-.79,6.71,6.71,0,0,0,.45-.86,2.54,2.54,0,0,1,.87-1,4.56,4.56,0,0,0,.41-.25,2,2,0,0,0,.45-.41,1.55,1.55,0,0,0,.29-.74c0-.5-.08-.74-.25-.74s-.16.08-.32.24c-.33-.32.65-1.45,3-3.37a8.61,8.61,0,0,0,1.48-1.49c0,.06-.07-.06,0-.37" transform="translate(-25.72 -161.24)"></path><path d="M187.71,197.06V182.38h9.74v2.89h-6.8v3.11h4.7v2.68h-4.7v6Z" transform="translate(-25.72 -161.24)"></path><path d="M208.65,197.06v-3.82h-4.91v3.82h-2.93V186.61l4.23-4.23h2.31l4.24,4.23v10.45Zm0-9.23-2.45-2.45-2.46,2.45v2.52h4.91Z" transform="translate(-25.72 -161.24)"></path><path d="M224.58,197.06V188.5l-1.93,4H221.6l-1.93-4v8.56h-2.94V182.38h2.94l2.45,5.16,2.46-5.16h2.93v14.68Z" transform="translate(-25.72 -161.24)"></path><path d="M232.23,197.06v-2.89h2.52v-8.9h-2.52v-2.89h8v2.89h-2.51v8.9h2.51v2.89Z" transform="translate(-25.72 -161.24)"></path><path d="M244.92,197.06V182.38h2.94v11.79H254v2.89Z" transform="translate(-25.72 -161.24)"></path><path d="M257.38,197.06v-2.89h2.52v-8.9h-2.52v-2.89h8v2.89h-2.51v8.9h2.51v2.89Z" transform="translate(-25.72 -161.24)"></path><path d="M270.07,197.06V182.38H280v2.89h-7v3.11h4.91v2.68H273v3.11h7v2.89Z" transform="translate(-25.72 -161.24)"></path><polygon points="205.91 141.57 205.51 142.06 206.35 150.03 206.83 150.42 210.84 150 211.23 149.52 210.4 141.54 209.91 141.15 205.91 141.57"></polygon><polygon points="240.91 137.91 240.52 138.39 241.36 146.36 241.84 146.75 245.85 146.34 246.24 145.85 245.41 137.88 244.92 137.49 240.91 137.91"></polygon><polygon points="139.68 151.08 139.94 153.58 144.83 153.07 144.56 150.57 141.87 148.38 139.68 151.08"></polygon><polygon points="188.38 143.41 188.71 146.5 192.84 146.06 193.51 145.23 193.31 143.33 192.82 142.94 188.38 143.41"></polygon><path d="M133.88,302.67,137,332l197-20.62-3.08-29.37Zm21.87,10.05-2.92.3-.16-1.5-.49-.39-4,.42-.4.48.84,8,.48.4,4.45-.47-.26-2.48-2.09.22-.28-2.68,5-.52.84,8-8.62.91-2.33-1.89-1.08-10.39,1.88-2.33,6.51-.68,2.33,1.88Zm18.42,8-2.92.31-.4-3.8-4.88.51.4,3.8-2.93.31-1.08-10.4,3.77-4.65,2.3-.24,4.65,3.77Zm15.94-11.77-2.92.3-.14-1.29-.48-.39-4,.42-.39.48.22,2.11.48.39,5.26-.55,2.33,1.89.47,4.53-1.88,2.33-6.52.68-2.32-1.89-.27-2.5,2.92-.31.14,1.29.49.4,4-.42.4-.49-.23-2.11-.48-.39-5.26.55-2.33-1.88-.47-4.53L181,305.2l6.51-.68,2.32,1.88Zm15.55-3.38-3.9.41L203,317.67l-2.92.3-1.23-11.73-3.9.41-.3-2.88,10.72-1.12Zm16.63,2-1.88,2.33-1.57.16,4.06,3.29.24,2.29-2.92.31-.12-1.08-5.39-4.38.62,6-2.92.31-1.53-14.61,8.62-.9,2.33,1.88ZM240,311.66,238.12,314l-6.52.68-2.32-1.89-1.09-10.39,1.89-2.33,6.51-.68,2.33,1.88Zm17.73.27-2.92.31-.59-5.59-5.39-4.38,1.09,10.48-2.92.31-1.53-14.61,2.92-.31,5.4,4.37-.51-4.88,2.92-.31ZM275,308l-1.89,2.33-6.51.68-2.33-1.88-1.08-10.4,1.88-2.33,6.51-.68,2.33,1.89Zm17.73.28-2.93.3-.89-8.51-1.5,4.21-1,.11L284,300.57l.89,8.51-2.92.31-1.53-14.61,2.92-.3,3,4.87,1.9-5.39,2.93-.3ZM305.8,295l-2.51.26.93,8.85,2.5-.26.31,2.88-7.93.83-.31-2.88,2.51-.26-.93-8.85-2.5.26-.3-2.88,7.93-.83Zm16.25-1.7-7,.73.32,3.09,4.89-.51.28,2.67-4.89.51.33,3.09,7-.73.3,2.88-9.89,1-1.53-14.6,9.89-1Z" transform="translate(-25.72 -161.24)"></path>

</svg>
