<svg height="87" viewBox="0 0 296 87" width="296" xmlns="http://www.w3.org/2000/svg">
  <g fill="none" fill-rule="evenodd">
    <path
      d="m40.081794 87c4.2846205-13.3914373 3.2387682-28.4324159-4.1655482-41.6898403-7.3983627-13.261366-19.6905995-22.1141013-33.39781294-25.6023785-4.28263595 13.3914373-3.23678371 28.4343867 4.16554812 41.6957526 7.39836272 13.2554536 19.69258412 22.1081889 33.39781302 25.5964662"
      fill="#a9c210"/>
    <path
      d="m45.7759533 86.1013252c-.8553365-10.4707442 2.4548752-21.2528712 10.0933672-29.6759769 7.6365075-8.4211349 18.0870918-12.8179409 28.6607175-13.0682297.8553365 10.4707441-2.4548752 21.2528712-10.0933672 29.6720353-7.6345229 8.4250765-18.0890763 12.8179409-28.6607175 13.0721713"
      fill="#235954"/>
    <path
      d="m143.523871 13.7954468c-11.698859 0-21.079777 3.5493714-28.15466 10.6402311-6.791093 6.9568467-10.188625 15.9278287-10.188625 26.9168875 0 10.8491335 3.161372 19.3490996 9.490068 25.5038396 6.322742 6.1547401 14.872138 9.2350663 25.640248 9.2350663 8.247746 0 16.041032-1.3578661 23.381843-4.0716276v-32.7563031h-9.45633v26.601563c-4.131811 1.2553857-8.297359 1.8781516-12.498629 1.8781516-8.053261 0-14.443477-2.4142032-19.172635-7.2485219-4.725188-4.8343188-7.088774-11.5960585-7.088774-20.2891608 0-8.9749235 2.695004-16.0303092 8.086998-21.1779816 4.973255-4.6608903 11.309889-6.9883792 19.013871-6.9883792 6.4438 0 12.746697 1.2494733 18.910676 3.7523615l1.470543-8.970982c-6.443799-2.0141352-12.921335-3.0251444-19.434594-3.0251444zm53.479367.6267075c.420723 0-6.65416.141896-21.220679.4158341v70.417873c1.609461 0 4.375909.0670064 8.299343.2069317 3.92145.141896 7.142358.2108732 9.664707.2108732 11.974711 0 21.464778-3.0665307 28.466233-9.1936799 7.352718-6.4069997 11.032054-15.4981991 11.032054-27.267686 0-23.1940877-12.079891-34.7901461-36.241658-34.7901461zm18.170443 56.4115528c-4.899828 4.467754-11.692906 6.7026164-20.37725 6.7026164-3.572171 0-6.687898-.2108733-9.349165-.6286782v-54.4506287c5.251091-.2108732 8.78754-.3153244 10.609347-.3153244 17.997788 0 26.997674 9.2153584 26.997674 27.6460754 0 9.2133877-2.625546 16.2293578-7.880606 21.0459395zm54.773286-56.0981991h-10.714528l-25.840687 70.4139313h9.873083l5.88416-16.4796466h30.147137l5.884159 16.4796466h10.819709zm-18.277607 46.2147468 9.138803-24.9638464c1.329642-3.6045532 2.415185-7.1401291 3.25663-10.6106694h.210361c.83946 3.4705403 1.891266 6.9686715 3.151448 10.5042474l9.243985 25.0702684zm-202.1985005-12.2523275c7.9302193-4.6155624 14.0108479-12.3291879 16.2414702-21.9229358 2.2306222-9.5957186.1726549-19.17567108-4.9196731-26.7749915-7.9302193 4.61556235-14.0088634 12.3291879-16.2394856 21.9229358-2.2306223 9.5957186-.1706704 19.1756711 4.9176885 26.7749915"
      fill="#a9c210"/>
  </g>
</svg>
