<?xml version="1.0" encoding="utf-8"?>
<!-- Generator: Adobe Illustrator 19.0.0, SVG Export Plug-In . SVG Version: 6.00 Build 0)  -->
<!DOCTYPE svg PUBLIC "-//W3C//DTD SVG 1.1//EN" "http://www.w3.org/Graphics/SVG/1.1/DTD/svg11.dtd">
<svg version="1.1" id="Ebene_1" xmlns="http://www.w3.org/2000/svg" xmlns:xlink="http://www.w3.org/1999/xlink" x="0px" y="0px"
	 width="379px" height="100px" viewBox="0 0 379 100" style="enable-background:new 0 0 379 100;" xml:space="preserve">
<style type="text/css">
	.st0{fill:#11586C;}
</style>
<path class="st0" d="M35.6,52.3h17.8V70C48,70.8,42.5,71.6,37,71.6c-12.1,0-21.4-4.6-21.4-17c0-12.8,8.3-18.3,20.7-18.3
	c8.4,0,17.3,2.6,17.7,11.5h-10c-0.1-3.7-3.4-5-7.6-5c-7.8,0-10.7,4.9-10.7,10.9c0,7.4,4.1,11.3,11.9,11.3c2.3,0,5-0.4,7-0.8v-5.7
	h-8.9V52.3"/>
<path class="st0" d="M72,43.7h6.1c7.2,0,11.9,2.2,11.9,10.1c0,9.2-5.6,10.4-13.5,10.4H72V43.7 M62.2,70.7h18
	c6.9,0,11.5-1.6,14.4-4.1c3.2-2.7,5.4-7.2,5.4-13.1c0-6.1-2.7-10.9-6.9-13.7c-3.4-2.2-7.7-2.8-12.1-2.8H62.2V70.7z"/>
<rect x="107.5" y="37.1" class="st0" width="9.8" height="33.6"/>
<path class="st0" d="M157.6,49.3c-0.9,1-2.2,1.5-3.6,1.5c-1.3,0-2.5-0.5-3.4-1.4c-1.3-1.3-1.3-2.6-1.3-5.4c0-2.8,0-4.1,1.3-5.4
	c0.9-0.9,2.1-1.4,3.4-1.4c2.5,0,4.3,1.6,4.7,4h-1.4c-0.4-1.7-1.6-2.7-3.2-2.7c-0.9,0-1.7,0.4-2.3,1c-0.8,0.9-0.9,1.8-0.9,4.5
	c0,2.8,0.1,3.7,0.9,4.6c0.6,0.6,1.4,0.9,2.3,0.9c1,0,1.9-0.4,2.5-1.1c0.5-0.7,0.7-1.4,0.7-2.4v-1H154v-1.3h4.7v2.1
	C158.7,47.4,158.4,48.5,157.6,49.3"/>
<path class="st0" d="M170.1,49.5c-0.9,0.9-2.1,1.4-3.4,1.4c-1.3,0-2.5-0.5-3.4-1.4c-1.3-1.3-1.3-2.6-1.3-5.4c0-2.8,0-4.1,1.3-5.4
	c0.9-0.9,2.1-1.4,3.4-1.4c1.3,0,2.5,0.5,3.4,1.4c1.3,1.3,1.3,2.6,1.3,5.4C171.4,46.9,171.4,48.2,170.1,49.5 M169,39.5
	c-0.6-0.6-1.4-1-2.3-1s-1.7,0.4-2.3,1c-0.8,0.9-0.9,1.8-0.9,4.5c0,2.8,0.1,3.7,0.9,4.5c0.6,0.6,1.4,1,2.3,1s1.7-0.4,2.3-1
	c0.8-0.9,0.9-1.8,0.9-4.5C170,41.3,169.9,40.4,169,39.5"/>
<polygon class="st0" points="178.8,38.7 178.8,50.8 177.4,50.8 177.4,38.7 173.6,38.7 173.6,37.4 182.7,37.4 182.7,38.7 "/>
<polygon class="st0" points="189.7,38.7 189.7,50.8 188.2,50.8 188.2,38.7 184.4,38.7 184.4,37.4 193.5,37.4 193.5,38.7 "/>
<polygon class="st0" points="196.6,50.8 196.6,37.4 198,37.4 198,49.5 204.8,49.5 204.8,50.8 "/>
<rect x="207.9" y="37.4" class="st0" width="1.4" height="13.3"/>
<polygon class="st0" points="213.7,50.8 213.7,37.4 222,37.4 222,38.7 215.1,38.7 215.1,43.4 221,43.4 221,44.7 215.1,44.7 
	215.1,49.5 222,49.5 222,50.8 "/>
<path class="st0" d="M230.7,50.8h-5.2V37.4h5c2.3,0,3.9,1.3,3.9,3.6c0,1.4-0.8,2.5-2,2.9c1.3,0.5,2.2,1.6,2.2,3.2
	C234.7,49.5,233,50.8,230.7,50.8 M230.4,38.7h-3.5v4.6h3.5c1.5,0,2.6-0.7,2.6-2.3C233,39.4,231.9,38.7,230.4,38.7 M230.6,44.6h-3.6
	v4.9h3.6c1.6,0,2.7-1,2.7-2.5C233.2,45.5,232.2,44.6,230.6,44.6"/>
<path class="st0" d="M251.7,49.5c-0.8,0.8-2,1.2-3.4,1.2h-4.6V37.4h4.6c1.4,0,2.6,0.4,3.4,1.2c1.4,1.4,1.3,3.4,1.3,5.3
	C253,45.8,253.1,48.1,251.7,49.5 M250.7,39.7c-0.7-0.7-1.6-1-2.6-1h-2.9v10.8h2.9c1,0,1.9-0.3,2.6-1c0.9-1,0.9-2.9,0.9-4.6
	C251.6,42.3,251.7,40.6,250.7,39.7"/>
<path class="st0" d="M261.4,50.9c-2.7,0-4.6-1.9-4.6-4.5v-8.9h1.4v8.8c0,2,1.3,3.4,3.2,3.4c1.9,0,3.2-1.3,3.2-3.4v-8.8h1.4v8.9
	C266.1,49,264.1,50.9,261.4,50.9"/>
<polygon class="st0" points="274.2,38.7 274.2,50.8 272.8,50.8 272.8,38.7 268.9,38.7 268.9,37.4 278.1,37.4 278.1,38.7 "/>
<polygon class="st0" points="285,38.7 285,50.8 283.6,50.8 283.6,38.7 279.8,38.7 279.8,37.4 288.9,37.4 288.9,38.7 "/>
<polygon class="st0" points="302.3,50.8 301,50.8 298,40.1 295.1,50.8 293.7,50.8 290.3,37.4 291.8,37.4 294.4,48.2 297.4,37.4 
	298.6,37.4 301.6,48.2 304.2,37.4 305.7,37.4 "/>
<polygon class="st0" points="308.5,50.8 308.5,37.4 316.8,37.4 316.8,38.7 309.9,38.7 309.9,43.4 315.8,43.4 315.8,44.7 309.9,44.7 
	309.9,49.5 316.8,49.5 316.8,50.8 "/>
<rect x="320.3" y="37.4" class="st0" width="1.4" height="13.3"/>
<polygon class="st0" points="326.1,50.8 326.1,37.4 327.6,37.4 327.6,49.5 334.4,49.5 334.4,50.8 "/>
<polygon class="st0" points="337.4,50.8 337.4,37.4 345.7,37.4 345.7,38.7 338.8,38.7 338.8,43.4 344.7,43.4 344.7,44.7 338.8,44.7 
	338.8,49.5 345.7,49.5 345.7,50.8 "/>
<path class="st0" d="M356.9,50.8l-3-5.9h-3.2v5.9h-1.4V37.4h5.1c2.3,0,3.9,1.4,3.9,3.7c0,1.9-1.2,3.2-2.9,3.6l3.2,6H356.9z
	 M354.2,38.7h-3.6v4.9h3.6c1.6,0,2.7-0.8,2.7-2.4C356.9,39.5,355.8,38.7,354.2,38.7"/>
<rect x="149.8" y="57.3" class="st0" width="1.4" height="13.3"/>
<polygon class="st0" points="164.2,70.6 157.1,60 157.1,70.6 155.7,70.6 155.7,57.3 157,57.3 164.1,68 164.1,57.3 165.5,57.3 
	165.5,70.6 "/>
<path class="st0" d="M173.4,70.8c-2,0-3.3-0.5-4.6-1.8l1-1c1.1,1.1,2.1,1.5,3.6,1.5c1.9,0,3.1-0.9,3.1-2.5c0-0.7-0.2-1.3-0.6-1.7
	c-0.4-0.4-0.8-0.5-1.7-0.6l-1.6-0.2c-1-0.2-1.9-0.5-2.5-1c-0.7-0.6-1-1.4-1-2.5c0-2.3,1.6-3.8,4.3-3.8c1.7,0,2.8,0.4,4,1.5l-0.9,0.9
	c-0.8-0.7-1.7-1.1-3.1-1.1c-1.8,0-2.8,1-2.8,2.5c0,0.7,0.2,1.2,0.6,1.5c0.4,0.4,1.1,0.6,1.8,0.7l1.5,0.2c1.3,0.2,1.9,0.4,2.4,0.9
	c0.7,0.6,1.1,1.5,1.1,2.6C178,69.3,176.1,70.8,173.4,70.8"/>
<polygon class="st0" points="185.4,58.6 185.4,70.7 184,70.7 184,58.6 180.2,58.6 180.2,57.3 189.3,57.3 189.3,58.6 "/>
<rect x="192.3" y="57.3" class="st0" width="1.4" height="13.3"/>
<polygon class="st0" points="202.1,58.6 202.1,70.7 200.7,70.7 200.7,58.6 196.8,58.6 196.8,57.3 205.9,57.3 205.9,58.6 "/>
<path class="st0" d="M213.5,70.8c-2.7,0-4.6-1.9-4.6-4.5v-8.9h1.4v8.8c0,2,1.3,3.4,3.2,3.4c1.9,0,3.2-1.3,3.2-3.4v-8.8h1.4v8.9
	C218.1,68.9,216.2,70.8,213.5,70.8"/>
<polygon class="st0" points="226.3,58.6 226.3,70.7 224.8,70.7 224.8,58.6 221,58.6 221,57.3 230.1,57.3 230.1,58.6 "/>
<polygon class="st0" points="233.2,70.6 233.2,57.3 241.4,57.3 241.4,58.6 234.6,58.6 234.6,63.3 240.4,63.3 240.4,64.6 234.6,64.6 
	234.6,69.4 241.4,69.4 241.4,70.6 "/>
</svg>
