<?xml version="1.0" encoding="utf-8"?>
<!-- Generator: Adobe Illustrator 19.0.0, SVG Export Plug-In . SVG Version: 6.00 Build 0)  -->
<!DOCTYPE svg PUBLIC "-//W3C//DTD SVG 1.1//EN" "http://www.w3.org/Graphics/SVG/1.1/DTD/svg11.dtd">
<svg version="1.1" id="Ebene_1" xmlns="http://www.w3.org/2000/svg" xmlns:xlink="http://www.w3.org/1999/xlink" x="0px" y="0px"
	 width="479.7px" height="100px" viewBox="0 0 479.7 100" style="enable-background:new 0 0 479.7 100;" xml:space="preserve">
<style type="text/css">
	.st0{fill:#11586C;}
</style>
<path class="st0" d="M73.3,45.6h5.1v8.3c-0.8,0.4-2.2,0.8-4.3,0.8c-5.1,0-7.7-3.4-7.7-8.1c0-4.7,2.7-8.1,7.7-8.1
	c1.8,0,3.2,0.4,3.8,0.7l-0.2,2.6c-0.9-0.6-2.2-1-3.6-1c-3.1,0-4.7,2.5-4.7,5.8c0,3.6,1.6,5.8,4.6,5.8c0.7,0,1.3-0.1,1.7-0.3v-4.3
	h-2.4V45.6z"/>
<polygon class="st0" points="89.4,38.6 97.7,38.6 97.7,41 92.3,41 92.3,45.1 97.4,45.1 97.4,47.5 92.3,47.5 92.3,52.1 97.9,52.1 
	97.9,54.4 89.4,54.4 "/>
<path class="st0" d="M108.4,54.4h4.8c2.8,0,4.9-1.6,4.9-4.4c0-2.6-1.8-3.5-3-3.8v0c1-0.4,2.6-1.1,2.6-3.6c0-2.7-1.5-3.9-4.7-3.9
	h-4.6V54.4z M111.2,47.4h1.5c1.8,0,2.5,1,2.5,2.4c0,1.5-0.9,2.4-2.4,2.4h-1.6V47.4z M111.2,40.8h1.4c1.4,0,2.3,0.8,2.3,2.1
	c0,1.3-0.8,2.4-2.2,2.4h-1.5V40.8z"/>
<polygon class="st0" points="128.7,38.6 137,38.6 137,41 131.6,41 131.6,45.1 136.7,45.1 136.7,47.5 131.6,47.5 131.6,52.1 
	137.2,52.1 137.2,54.4 128.7,54.4 "/>
<path class="st0" d="M147.6,54.4h2.9v-6.8h0.7c1.1,0,1.8,0.4,2.2,1.7l1.6,5.1h3.1l-2.1-6c-0.5-1.5-1.1-1.7-1.7-1.8v-0.1
	c1.8-0.3,3-1.6,3-3.7c0-2.9-1.9-4.2-4.7-4.2h-4.9V54.4z M150.5,45.5v-4.7h1.2c1.6,0,2.6,0.4,2.6,2.3c0,1.6-1,2.4-2.6,2.4H150.5z"/>
<polygon class="st0" points="169.4,41 165.8,41 165.8,38.6 175.8,38.6 175.8,41 172.3,41 172.3,54.4 169.4,54.4 "/>
<path class="st0" d="M195.5,54.4h2.9v-6.8h0.7c1.1,0,1.8,0.4,2.2,1.7l1.6,5.1h3.1l-2-6c-0.5-1.5-1.2-1.7-1.7-1.8v-0.1
	c1.8-0.3,3-1.6,3-3.7c0-2.9-1.9-4.2-4.7-4.2h-4.9V54.4z M198.4,45.5v-4.7h1.2c1.6,0,2.6,0.4,2.6,2.3c0,1.6-1,2.4-2.6,2.4H198.4z"/>
<path class="st0" d="M218.5,38.6v10.2c0,2.6,0.8,3.5,2.5,3.5c1.7,0,2.5-0.9,2.5-3.5V38.6h2.9v10.2c0,4.2-2.4,5.8-5.4,5.8
	c-3,0-5.4-1.6-5.4-5.8V38.6H218.5z M224,34.7v2.5h-2.2v-2.5H224z M220.2,34.7v2.5h-2.2v-2.5H220.2z"/>
<polygon class="st0" points="237.4,38.6 245.4,38.6 245.4,41 240.3,41 240.3,45.2 245.2,45.2 245.2,47.6 240.3,47.6 240.3,54.4 
	237.4,54.4 "/>
<path class="st0" d="M265.6,51.4c0.6,0.4,1.8,1,3.3,1c1.3,0,2.4-0.7,2.4-2.3c0-1.1-0.7-1.6-2.1-2.4l-1.5-0.8
	c-1.5-0.9-2.6-2.1-2.6-4.1c0-2.8,2.3-4.3,5-4.3c1.7,0,2.8,0.4,3.3,0.6l-0.1,2.4c-0.7-0.3-1.6-0.7-3-0.7c-1.5,0-2.2,0.8-2.2,1.9
	c0,1.2,0.8,1.6,1.7,2.1l1.7,0.9c1.8,1,2.7,2,2.7,4.3c0,3.2-2.3,4.7-5.3,4.7c-1.6,0-2.8-0.2-3.6-0.7L265.6,51.4z"/>
<polygon class="st0" points="286.6,41 283,41 283,38.6 293,38.6 293,41 289.5,41 289.5,54.4 286.6,54.4 "/>
<rect x="302.9" y="38.6" class="st0" width="2.9" height="15.8"/>
<polygon class="st0" points="317.7,38.6 325.7,38.6 325.7,41 320.6,41 320.6,45.2 325.5,45.2 325.5,47.6 320.6,47.6 320.6,54.4 
	317.7,54.4 "/>
<polygon class="st0" points="337.9,41 334.3,41 334.3,38.6 344.3,38.6 344.3,41 340.8,41 340.8,54.4 337.9,54.4 "/>
<path class="st0" d="M356.9,38.6v10.2c0,2.6,0.8,3.5,2.5,3.5c1.7,0,2.5-0.9,2.5-3.5V38.6h2.9v10.2c0,4.2-2.4,5.8-5.4,5.8
	c-3,0-5.4-1.6-5.4-5.8V38.6H356.9z"/>
<polygon class="st0" points="376.1,38.6 379.5,38.6 384.7,51 384.8,51 384.8,38.6 387.4,38.6 387.4,54.4 383.9,54.4 378.7,42.1 
	378.7,42.1 378.7,54.4 376.1,54.4 "/>
<path class="st0" d="M404.3,45.6h5.1v8.3c-0.8,0.4-2.2,0.8-4.3,0.8c-5.1,0-7.7-3.4-7.7-8.1c0-4.7,2.7-8.1,7.7-8.1
	c1.8,0,3.2,0.4,3.8,0.7l-0.2,2.6c-0.9-0.6-2.2-1-3.6-1c-3.1,0-4.7,2.5-4.7,5.8c0,3.6,1.6,5.8,4.6,5.8c0.7,0,1.3-0.1,1.7-0.3v-4.3
	h-2.4V45.6z"/>
<rect x="19.8" y="45.6" class="st0" width="35.9" height="1.8"/>
<rect x="421.9" y="45.5" class="st0" width="35.9" height="1.8"/>
<polygon class="st0" points="68.8,63.6 70.2,70.5 71.7,63.6 73,63.6 74.5,70.5 75.9,63.6 76.9,63.6 75.1,71.7 73.9,71.7 72.3,64.5 
	70.8,71.7 69.6,71.7 67.8,63.6 "/>
<rect x="82.2" y="63.6" class="st0" width="1" height="8.1"/>
<path class="st0" d="M92.6,64.7c-0.2-0.1-0.7-0.4-1.3-0.4c-0.7,0-1.3,0.4-1.3,1.2c0,0.7,0.5,1,1,1.4c0.3,0.2,0.6,0.4,0.9,0.6
	c0.9,0.7,1.1,1.4,1.1,2c0,0.6-0.1,1.1-0.5,1.5c-0.4,0.6-1,0.8-1.7,0.8c-0.3,0-1,0-1.8-0.4l0.1-1c0.2,0.1,0.8,0.5,1.6,0.5
	c1.2,0,1.3-1,1.3-1.4c0-0.4-0.1-0.8-0.8-1.3c-0.3-0.2-0.7-0.4-1-0.7c-0.1-0.1-0.4-0.3-0.7-0.6c-0.2-0.2-0.5-0.7-0.5-1.5
	c0-1.3,0.9-2.1,2.2-2.1c0.7,0,1.2,0.2,1.5,0.3L92.6,64.7z"/>
<path class="st0" d="M102.2,63.7c-0.2-0.1-0.8-0.3-1.5-0.3c-1.3,0-2.2,0.7-2.2,2.1c0,0.8,0.3,1.2,0.5,1.5c0.2,0.3,0.6,0.5,0.7,0.6
	c0.3,0.2,0.7,0.4,1,0.7c0.7,0.5,0.8,0.9,0.8,1.3c0,0.4-0.1,1.4-1.3,1.4c-0.8,0-1.3-0.4-1.6-0.5l-0.1,1.1c0.8,0.3,1.5,0.4,1.8,0.4
	c0.7,0,1.3-0.2,1.7-0.8c0.4-0.4,0.5-0.9,0.5-1.5c0-0.5-0.1-1.2-1.1-2c-0.3-0.2-0.6-0.4-0.9-0.6c-0.5-0.3-1-0.7-1-1.4
	c0-0.8,0.5-1.2,1.3-1.2c0.6,0,1.1,0.3,1.3,0.4L102.2,63.7z"/>
<polygon class="st0" points="111.9,63.6 111.9,64.4 109.2,64.4 109.2,67 111.8,67 111.8,67.9 109.2,67.9 109.2,70.8 112.1,70.8 
	112.1,71.7 108.2,71.7 108.2,63.6 "/>
<polygon class="st0" points="119.2,63.6 122.4,70.4 122.3,63.6 123.3,63.6 123.3,71.7 121.9,71.7 118.8,64.9 118.8,71.7 117.9,71.7 
	117.9,63.6 "/>
<path class="st0" d="M132.7,63.7c-0.2-0.1-0.8-0.3-1.5-0.3c-1.3,0-2.2,0.7-2.2,2.1c0,0.8,0.3,1.2,0.5,1.5c0.2,0.3,0.6,0.5,0.7,0.6
	c0.3,0.2,0.7,0.4,1,0.7c0.7,0.5,0.8,0.9,0.8,1.3c0,0.4-0.1,1.4-1.3,1.4c-0.8,0-1.3-0.4-1.6-0.5l-0.1,1.1c0.8,0.3,1.5,0.4,1.8,0.4
	c0.7,0,1.3-0.2,1.7-0.8c0.4-0.4,0.5-0.9,0.5-1.5c0-0.5-0.1-1.2-1.1-2c-0.3-0.2-0.6-0.4-0.9-0.6c-0.5-0.3-1-0.7-1-1.4
	c0-0.8,0.5-1.2,1.3-1.2c0.6,0,1.1,0.3,1.3,0.4L132.7,63.7z"/>
<path class="st0" d="M143.5,64.8c-0.2-0.1-0.7-0.4-1.5-0.4c-0.2,0-0.8,0-1.3,0.4c-0.6,0.4-1.2,1.2-1.2,2.8c0,0.2,0,0.7,0.1,1.3
	c0.3,1.2,1.2,2,2.4,2c0.3,0,0.8,0,1.4-0.4v1c-0.3,0.1-0.8,0.3-1.5,0.3c-0.7,0-1.2-0.2-1.5-0.3c-0.4-0.2-1.2-0.6-1.7-1.7
	c-0.2-0.4-0.4-1.1-0.4-2.2c0-0.2,0-0.9,0.2-1.6c0.4-1.5,1.7-2.5,3.3-2.5c0.3,0,0.9,0,1.6,0.3V64.8z"/>
<polygon class="st0" points="154.1,63.6 153,63.6 153,67 150.2,67 150.2,63.6 149.2,63.6 149.2,71.7 150.2,71.7 150.2,67.9 
	153,67.9 153,71.7 154.1,71.7 "/>
<path class="st0" d="M163.7,68.7l-0.9-2.8c0-0.1-0.1-0.2-0.1-0.3c-0.1-0.3-0.2-0.7-0.3-1c-0.1,0.3-0.2,0.7-0.4,1.4l-0.9,2.8H163.7z
	 M163.1,63.6l2.6,8.1h-1.1l-0.7-2.1h-3l-0.7,2.1h-1l2.7-8.1H163.1z"/>
<polygon class="st0" points="174.6,63.6 174.6,64.4 171.9,64.4 171.9,67 174.5,67 174.5,68 171.9,68 171.9,71.7 170.9,71.7 
	170.9,63.6 "/>
<polygon class="st0" points="184.2,63.6 184.2,64.4 182.3,64.4 182.3,71.7 181.3,71.7 181.3,64.4 179.4,64.4 179.4,63.6 "/>
<rect x="188.2" y="70.4" class="st0" width="1.1" height="1.3"/>
<path class="st0" d="M195.9,70.8h0.7c0.5,0,0.9,0,1.3-0.4c0.1-0.1,0.2-0.2,0.3-0.5c0.1-0.2,0.1-0.5,0.1-0.6c0-0.2,0-1.1-0.8-1.4
	c-0.2-0.1-0.4-0.1-0.7-0.1h-0.9V70.8z M195.9,67.1h0.6c0.4,0,0.5,0,0.7-0.1c0.6-0.2,0.9-0.7,0.9-1.3c0-0.1,0-0.7-0.4-1
	c-0.4-0.4-1-0.3-1.2-0.3h-0.7V67.1z M196.7,63.6c0.3,0,0.6,0,0.9,0.1c1,0.2,1.5,1,1.5,2c0,0.1,0,0.4-0.1,0.8c-0.3,0.8-0.9,1-1.2,1.1
	c0.4,0.2,0.7,0.3,1,0.6c0.2,0.3,0.5,0.6,0.5,1.4c0,1.5-1,2-1.5,2.1c-0.3,0.1-0.6,0.1-1.3,0.1h-1.7v-8.1H196.7z"/>
<polygon class="st0" points="208.7,63.6 208.7,64.4 206,64.4 206,67 208.6,67 208.6,67.9 206,67.9 206,70.8 208.8,70.8 208.8,71.7 
	205,71.7 205,63.6 "/>
<polygon class="st0" points="214.8,63.6 216.2,70.5 217.7,63.6 219,63.6 220.4,70.5 221.9,63.6 222.9,63.6 221,71.7 219.8,71.7 
	218.3,64.5 216.7,71.7 215.5,71.7 213.7,63.6 "/>
<polygon class="st0" points="228.2,63.6 228.2,71.7 232,71.7 232,70.8 229.2,70.8 229.2,67.9 231.8,67.9 231.8,67 229.2,67 
	229.2,64.4 231.9,64.4 231.9,63.6 "/>
<path class="st0" d="M243.1,67.2v4.1c-0.2,0.1-0.3,0.2-0.5,0.2c-0.3,0.1-0.9,0.2-1.6,0.2c-0.4,0-1.5,0-2.4-0.8
	c-1-0.8-1.3-2.2-1.3-3.4c0-0.5,0.1-2.5,1.7-3.5c0.9-0.6,1.7-0.6,2.1-0.6c0.3,0,1,0,1.9,0.4v1c-0.3-0.2-0.9-0.5-1.8-0.5
	c-0.2,0-0.6,0-1,0.2c-0.8,0.3-1.8,1-1.8,3c0,0.3,0,1.9,1,2.8c0.3,0.3,0.8,0.6,1.7,0.6c0.1,0,0.6,0,1.1-0.2v-2.6h-1.4v-0.9H243.1z"/>
<polygon class="st0" points="249.3,63.6 249.3,71.7 253.2,71.7 253.2,70.8 250.3,70.8 250.3,67.9 252.9,67.9 252.9,67 250.3,67 
	250.3,64.4 253,64.4 253,63.6 "/>
<polygon class="st0" points="260.3,63.6 263.4,70.4 263.4,63.6 264.3,63.6 264.3,71.7 263,71.7 259.9,64.9 259.9,71.7 259,71.7 
	259,63.6 "/>
</svg>
