<?xml version="1.0" encoding="utf-8"?>
<!-- Generator: Adobe Illustrator 19.0.0, SVG Export Plug-In . SVG Version: 6.00 Build 0)  -->
<!DOCTYPE svg PUBLIC "-//W3C//DTD SVG 1.1//EN" "http://www.w3.org/Graphics/SVG/1.1/DTD/svg11.dtd">
<svg version="1.1" id="Ebene_1" xmlns="http://www.w3.org/2000/svg" xmlns:xlink="http://www.w3.org/1999/xlink" x="0px" y="0px"
	 width="212.3px" height="100px" viewBox="-22 271 212.3 100" style="enable-background:new -22 271 212.3 100;"
	 xml:space="preserve">
<style type="text/css">
	.st0{fill:#12596D;}
</style>
<g>
	<g>
		<path class="st0" d="M82.7,348.9c0.1-0.5,0.2-0.9,0.3-1.2c1.2-3.6,4.4-7.1,9.3-7.2c2.8,0,5.5-0.1,8.3-0.1c21.7,0,43.4,0,65.2,0
			c0.3,0,0.6,0,0.9,0c0,0.5,0,0.9,0,1.5c-0.3,0-0.6,0-0.8,0c-23.6,0-47.3,0-70.9,0c-1.5,0-3.1,0.1-4.6,0.5c-3.1,0.8-5,3-6,5.9
			c-0.4,1.2-0.7,2.5-1,3.9c-0.4,0-0.8,0-1.3,0c-0.3-1.2-0.5-2.3-0.9-3.5c-1.1-3.9-4.1-6.4-8.2-6.7c-0.9-0.1-1.8-0.1-2.7-0.1
			c-23.7,0-47.4,0-71.2,0c-0.3,0-0.6,0-0.9,0c0-0.5,0-1,0-1.5c0.3,0,0.5,0,0.7,0c23.9,0,47.9,0,71.8,0c1.9,0,3.8,0,5.6,0.7
			c3.3,1.4,5.3,3.8,6.1,7.3C82.6,348.5,82.6,348.6,82.7,348.9z"/>
		<path class="st0" d="M140.2,296.8c0-0.4,0-0.8,0-1.2c0.2,0,0.4,0,0.6,0c3.5,0,7-0.1,10.5-0.1c3.2,0,6.4,0.5,9.2,2.1
			c3.8,2.2,6.1,5.5,6.7,9.8c0.8,6.1-1.4,10.8-6.5,14.2c-1.8,1.2-3.8,1.8-5.9,1.9c-4.8,0.1-9.7,0-14.5,0c0,0-0.1,0-0.2-0.1
			c0-0.3,0-0.7,0-1.1c1.3,0,2.6,0,4,0c0-8.5,0-17,0-25.6C142.8,296.8,141.5,296.8,140.2,296.8z M162.5,310c0.1,0,0.1,0,0.2,0
			c-0.3-1.8-0.4-3.7-0.9-5.5c-0.9-3.7-3.2-6.3-7-7.4c-1.9-0.5-3.8-0.4-5.8-0.4c-0.5,0-0.5,0.3-0.5,0.6c0,1.7,0,3.4,0,5.2
			c0,6.4,0,12.8,0,19.2c0,0.5,0,0.8,0.7,0.8c1.3,0,2.7,0,4,0c3.8-0.1,6.3-2.1,7.9-5.4C162.1,314.8,162.6,312.5,162.5,310z"/>
		<path class="st0" d="M99.6,314.8c0.3,0,0.7,0,1,0c0,2.9,0,5.8,0,8.7c-7.6,0-15.2,0-22.8,0c0-0.3,0-0.7,0-1.1c1.3,0,2.7,0,4.1,0
			c0-0.3,0-0.6,0-0.8c0-8,0-15.9,0-23.9c0-0.8,0-0.8-0.8-0.8c-1.1,0-2.1,0-3.2,0c0,0-0.1,0-0.2-0.1c0-0.3,0-0.7,0-1.1
			c7.3,0,14.6,0,22,0c0,2.4,0,4.8,0,7.3c-0.3,0-0.7,0-0.9,0c-0.4-1.1-0.8-2.2-1.3-3.2c-0.7-1.7-2.1-2.6-3.9-2.8
			c-2.4-0.2-4.9-0.2-7.4-0.2c0,0.3,0,0.5,0,0.7c0,3.5,0,6.9,0,10.4c0,0.6,0.1,0.8,0.7,0.7c1.1-0.1,2.2-0.1,3.3-0.2
			c1.6-0.2,2.5-1.2,2.9-2.7c0.2-0.6,0.3-1.1,0.4-1.7c0.1-0.4,0.4-0.4,0.7-0.3c0.2,0,0.4,0.3,0.4,0.4c0,3.6,0,7.1,0,10.7
			c0,0.1,0,0.1,0,0.2c-0.8,0.2-0.8,0.2-1-0.6c-0.3-1-0.6-2-1-2.9c-0.5-1-1.5-1.6-2.6-1.6c-1.1-0.1-2.3,0-3.5,0c0,4.2,0,8.4,0,12.6
			c0,0,0.1,0.1,0.1,0.1c2.4,0,4.8,0.1,7.2,0c2.7-0.1,4.8-2.1,5.4-4.9C99.2,316.6,99.4,315.7,99.6,314.8z"/>
		<path class="st0" d="M23.1,299.1c0,7.7,0,15.4,0,23.2c1.4,0,2.7,0,4.1,0c0,0.4,0,0.8,0,1.2c-3.1,0-6.3,0-9.5,0c0-0.4,0-0.7,0-1.1
			c1.3,0,2.7,0,4.1,0c0-0.3,0-0.5,0-0.7c0-8,0-16.1,0-24.1c0-0.6-0.1-0.8-0.7-0.7c-1.1,0-2.2,0-3.4,0c0-0.4,0-0.7,0-1.2
			c0.2,0,0.4,0,0.7,0c2.4,0,4.8,0,7.1,0c0.5,0,0.8,0.1,1.1,0.6c4,6.2,7.9,12.5,11.9,18.7c0.1,0.2,0.3,0.4,0.5,0.7
			c0-6.3,0-12.5,0-18.8c-1.3,0-2.6,0-3.9,0c0-0.2-0.1-0.3-0.1-0.5c-0.1-0.5,0.1-0.8,0.7-0.8c2.6,0,5.2,0,7.8,0c1.1,0,1.1,0,0.9,1.2
			c-1.3,0-2.6,0-4,0c0,0.3,0,0.6,0,0.9c0,8.4,0,16.8,0,25.2c0,0.3,0.2,0.8-0.3,0.9c-0.5,0.1-1,0.1-1.4-0.5c-1.9-3.1-3.9-6.2-5.9-9.3
			c-3-4.8-6.1-9.6-9.1-14.4c-0.1-0.2-0.2-0.3-0.4-0.5C23.2,299.1,23.1,299.1,23.1,299.1z"/>
		<path class="st0" d="M67.6,303c-0.3,0-0.6,0-1,0c-0.3-1.7-1.1-3.3-2.1-4.6c-2-2.7-6.6-3.1-9.1-0.9c-2.1,1.9-2,5,0.3,6.6
			c1.3,0.9,2.8,1.5,4.2,2.1c1.7,0.7,3.4,1.2,5.1,1.9c0.7,0.3,1.4,0.7,2.1,1.1c3.3,2.1,3.9,5.8,2.8,8.7c-1.3,3.6-4,5.8-7.9,6.4
			c-2.5,0.4-5,0.1-7.3-1.2c-0.2-0.1-0.4-0.2-0.6-0.3c-1.4-0.7-1.9-0.6-2.6,0.8c-0.3,0-0.5,0-0.8,0c0-2.9,0-5.8,0-8.7
			c1.1-0.2,1-0.2,1.3,0.7c0.5,1.4,1,2.9,1.7,4.2c1,1.9,2.8,2.9,4.9,3.2c2,0.3,4,0.2,5.7-1.1c2.7-1.9,3.2-5.8,0.9-8.1
			c-0.5-0.5-1.1-0.9-1.7-1.2c-1.3-0.6-2.7-1.1-4-1.7c-1.5-0.6-3.1-1.2-4.6-2c-4.5-2.3-4.5-7.7-2.2-10.8c1.7-2.3,4.1-3.2,7-3.2
			c1.5,0,3,0.4,4.3,1.1c0.5,0.2,1,0.4,1.5,0.6c0.5,0.2,0.8,0,0.9-0.4c0.2-0.7,0.6-0.6,1.1-0.5C67.6,298.1,67.6,300.6,67.6,303z"/>
		<path class="st0" d="M115.2,322.3c0,0.5,0,0.8,0,1.2c-2.9,0-5.7,0-8.6,0c0-0.4,0-0.7,0-1.2c0.9,0,1.8,0,2.7,0
			c0.5,0,0.7-0.2,0.8-0.6c3.2-8.6,6.4-17.3,9.6-25.9c0.3-0.7,0.7-1,1.5-0.7c0.2,0.1,0.3,0.3,0.4,0.5c1.5,4.1,3,8.1,4.5,12.2
			c1.7,4.6,3.4,9.2,5.1,13.9c0.2,0.5,0.4,0.7,0.9,0.6c0.9,0,1.7,0,2.6,0c0,0.4,0,0.8,0,1.2c-4,0-7.9,0-11.9,0c0-0.4,0-0.7,0-1.2
			c1.3,0,2.5,0,3.8,0c-0.3-0.8-0.5-1.5-0.8-2.1c-0.7-1.9-1.4-3.9-2.1-5.8c-0.1-0.4-0.3-0.6-0.8-0.6c-2.7,0-5.4,0-8.1,0
			c-0.2,0-0.6,0.2-0.7,0.3c-1,2.6-1.9,5.3-2.8,7.9c0,0,0,0.1,0,0.2C112.7,322.3,113.9,322.3,115.2,322.3z M123.2,312.6
			c-1.4-3.7-2.7-7.4-4.1-11.1c-0.1,0-0.1,0-0.2,0c-1.4,3.7-2.7,7.3-4.1,11.1C117.7,312.6,120.4,312.6,123.2,312.6z"/>
		<path class="st0" d="M-1.7,323.5c0-0.4,0-0.7,0-1.1c1.4,0,2.7,0,4.1,0c0-8.5,0-17,0-25.5c-1.4,0-2.7,0-4,0c0-0.1-0.1-0.2-0.1-0.3
			c-0.1-0.9-0.1-0.9,0.8-0.9c3.7,0,7.4,0,11,0c0.2,0,0.5,0,0.7,0c0,0.4,0,0.7,0,1.2c-1.3,0-2.6,0-4,0c0,8.5,0,17,0,25.5
			c1.3,0,2.7,0,4,0c0,0.4,0,0.8,0,1.2C6.7,323.5,2.5,323.5-1.7,323.5z"/>
	</g>
</g>
</svg>
