<?xml version="1.0" encoding="utf-8"?>
<!-- Generator: Adobe Illustrator 19.0.0, SVG Export Plug-In . SVG Version: 6.00 Build 0)  -->
<!DOCTYPE svg PUBLIC "-//W3C//DTD SVG 1.1//EN" "http://www.w3.org/Graphics/SVG/1.1/DTD/svg11.dtd">
<svg version="1.1" id="Ebene_1" xmlns="http://www.w3.org/2000/svg" xmlns:xlink="http://www.w3.org/1999/xlink" x="0px" y="0px"
	 width="259.7px" height="100px" viewBox="0 0 259.7 100" style="enable-background:new 0 0 259.7 100;" xml:space="preserve">
<style type="text/css">
	.st0{fill:#11586C;}
</style>
<polygon class="st0" points="77.3,29.2 78.6,29.2 78.6,41.1 91.6,29.2 93.3,29.2 83.8,37.8 93.9,49.9 92.3,49.9 82.9,38.7 
	78.6,42.6 78.6,49.9 77.3,49.9 "/>
<rect x="95.2" y="29.2" class="st0" width="1.1" height="20.7"/>
<path class="st0" d="M100.1,49.9h1.1V35h-1.1V49.9z M100.1,32.2h1.1v-3h-1.1V32.2z"/>
<path class="st0" d="M104.7,35h1.1v3h0.1c0.5-1.9,2.4-3.4,4.7-3.4c2.8,0,4.2,1.6,4.5,3.2h0.1c0.9-2.1,2.3-3.2,4.7-3.2
	c2.7,0,4.7,1.6,4.7,5.1v10.2h-1.1V39.7c0-3.8-2.7-4.1-3.6-4.1c-2.7,0-4.7,1.9-4.7,5.5v8.8h-1.1V39.7c0-3.7-2.6-4.1-3.5-4.1
	c-2.1,0-4.7,1.7-4.7,5.5v8.8h-1.1V35z"/>
<path class="st0" d="M138.8,47.2c0,0.8,0,1.8,1,1.8c0.2,0,0.5,0,0.8-0.1v0.9c-0.3,0.1-0.6,0.1-0.9,0.1c-1.7,0-2-1-2-2.2V47h-0.1
	c-0.7,1.8-2.7,3.3-5.5,3.3c-2.8,0-5-1.1-5-4.2c0-3.5,3-4.2,5.5-4.4c4.9-0.3,5.1-0.7,5.1-3.1c0-0.7-0.8-2.9-4.2-2.9
	c-2.7,0-4.4,1.4-4.6,4h-1.1c0.1-3.3,2.2-4.9,5.7-4.9c2.6,0,5.2,0.8,5.2,3.9V47.2z M137.7,41.5c-0.8,1-3.3,0.8-5.4,1.2
	c-2.6,0.3-4.1,1.2-4.1,3.5c0,1.8,1.3,3.3,3.9,3.3c5,0,5.6-4.3,5.6-5.1V41.5z"/>
<path class="st0" d="M142.8,45c0.1,2.8,2.3,4.4,4.9,4.4c1.9,0,4.7-0.6,4.7-3.2c0-5.1-10.2-1.6-10.2-7.7c0-2.9,2.9-3.8,5.4-3.8
	c3.1,0,5.5,1.4,5.5,4.8h-1.1c0-2.7-1.9-3.8-4.4-3.8c-2,0-4.3,0.8-4.3,2.9c0,2.4,2.6,2.7,5,3.3c3,0.6,5.3,1.3,5.3,4.4
	c0,3.2-3.2,4.1-5.8,4.1c-3.4,0-6-1.8-6-5.3H142.8z"/>
<path class="st0" d="M161.8,36h-3.3v10.4c0,2.4,1.1,2.7,3.2,2.6v1c-2.2,0.1-4.5-0.2-4.3-3.5V36h-2.8v-1h2.8v-4.6h1.1V35h3.3V36z"/>
<path class="st0" d="M164.1,29.2h1.1v3h-1.1V29.2z M164.1,35h1.1v14.9h-1.1V35z"/>
<path class="st0" d="M167,36v-1h2.7v-3.1c0-2.1,1.5-3,3.3-3c0.4,0,0.8,0.1,1.3,0.1v1c-0.5-0.1-0.9-0.1-1.3-0.1
	c-1.2,0-2.2,0.4-2.2,2.1v3h3.1v1h-3.1v14h-1.1V36H167z"/>
<path class="st0" d="M181.2,36h-3.3v10.4c0,2.4,1.1,2.7,3.2,2.6v1c-2.2,0.1-4.5-0.2-4.3-3.5V36H174v-1h2.8v-4.6h1.1V35h3.3V36z"/>
<path class="st0" d="M195,49.9h-1.1v-3.2h-0.1c-0.8,2.2-3,3.5-5.3,3.5c-5.3,0-5.3-4.2-5.3-6V35h1.1v9.4c0,1.5,0.2,4.9,4.2,4.9
	c3.4,0,5.4-2.6,5.4-6.2V35h1.1V49.9z"/>
<path class="st0" d="M198.3,35h1.1v3.2h0.1c0.8-2.2,3-3.5,5.3-3.5c5.3,0,5.3,4.2,5.3,6v9.2H209v-9.4c0-1.5-0.2-4.9-4.2-4.9
	c-3.4,0-5.4,2.6-5.4,6.2v8.1h-1.1V35z"/>
<path class="st0" d="M225.7,35v14.1c0,1.2,0,6.7-6.4,6.5c-3.2,0-5.7-1.2-5.8-4.6h1.1c0.2,2.6,2.3,3.7,4.8,3.7c5.2,0,5.3-4.3,5.3-5.3
	V46h-0.1c-1,2.2-2.8,3.4-5.4,3.4c-4.4,0-6.4-3.2-6.4-7.4c0-3.9,2.3-7.3,6.4-7.3c2.4,0,4.6,1.2,5.4,3.5h0.1V35H225.7z M213.8,42
	c0,3.5,1.8,6.4,5.3,6.4c3.6,0,5.4-3,5.4-6.4c0-3.4-1.8-6.4-5.4-6.4C215.5,35.6,213.8,38.8,213.8,42"/>
<path class="st0" d="M140.1,61c-0.1-3.5-2.8-5.3-6.6-5.3c-2.4,0-5.7,1-5.7,4.4c0,3.3,3.5,3.9,7.1,4.6c3.5,0.7,7.1,1.7,7.1,5.7
	c0,4.3-4.1,5.8-7.3,5.8c-4.8,0-8.8-2-8.7-7.3h1.3c-0.2,4.5,3.3,6.2,7.5,6.2c2.5,0,6-1.1,6-4.7c0-3.5-3.5-4.2-7.1-4.8
	c-3.5-0.7-7.1-1.6-7.1-5.5c0-4,3.7-5.5,7-5.5c4.3,0,7.7,1.9,7.9,6.4H140.1z"/>
<path class="st0" d="M155.9,65.5c-0.2-2.6-2.4-4-5.1-4c-3.7,0-5.7,3.3-5.7,6.7c0,4,1.9,7,5.7,7c2.8,0,4.8-1.9,5.2-4.6h1.1
	c-0.5,3.6-3.1,5.6-6.3,5.6c-4.8,0-6.9-3.8-6.9-8c0-4.2,2.4-7.7,6.9-7.7c3.2,0,5.8,1.6,6.2,5H155.9z"/>
<path class="st0" d="M160.8,55.1v9h0.1c0.8-2.2,3-3.5,5.3-3.5c5.3,0,5.3,4.2,5.3,6v9.2h-1.1v-9.4c0-1.5-0.2-4.9-4.2-4.9
	c-3.4,0-5.4,2.6-5.4,6.2v8.1h-1.1V55.1H160.8z"/>
<polygon class="st0" points="178.5,74.5 178.5,74.5 182.6,60.9 184.1,60.9 188.2,74.5 188.2,74.5 192.4,60.9 193.6,60.9 188.9,75.8 
	187.5,75.8 183.4,62.3 183.3,62.3 179.2,75.8 177.8,75.8 173.1,60.9 174.3,60.9 "/>
<path class="st0" d="M195.6,68.5c-0.1,3.5,1.8,6.7,5.5,6.7c2.8,0,4.8-1.7,5.3-4.4h1.1c-0.6,3.5-2.9,5.4-6.4,5.4
	c-4.3,0-6.7-3.4-6.6-7.6c-0.1-4.1,2.1-8.1,6.6-8.1c4.6,0,6.8,3.7,6.6,8H195.6z M206.6,67.5c-0.1-3.1-2.1-6-5.5-6
	c-3.3,0-5.3,3.1-5.5,6H206.6z"/>
<path class="st0" d="M210.5,55.1h1.1v3h-1.1V55.1z M210.5,60.9h1.1v14.9h-1.1V60.9z"/>
<polygon class="st0" points="225.6,74.9 225.6,75.8 213.8,75.8 213.8,74.8 223.8,61.9 214.6,61.9 214.6,60.9 225.2,60.9 225.2,61.9 
	215.1,74.9 "/>
<path class="st0" d="M23.2,43H40c0,0,5.7,19.1,35.9,32.9C41.3,75.9,23.2,43,23.2,43"/>
<path class="st0" d="M45.8,43h16.8c0,0,5.7,19.1,35.9,32.9C63.9,75.9,45.8,43,45.8,43"/>
</svg>
