<?xml version="1.0" encoding="utf-8"?>
<!-- Generator: Adobe Illustrator 19.0.0, SVG Export Plug-In . SVG Version: 6.00 Build 0)  -->
<!DOCTYPE svg PUBLIC "-//W3C//DTD SVG 1.1//EN" "http://www.w3.org/Graphics/SVG/1.1/DTD/svg11.dtd">
<svg version="1.1" id="Ebene_1" xmlns="http://www.w3.org/2000/svg" xmlns:xlink="http://www.w3.org/1999/xlink" x="0px" y="0px"
	 width="331.3px" height="100px" viewBox="-22 271 331.3 100" style="enable-background:new -22 271 331.3 100;"
	 xml:space="preserve">
<style type="text/css">
	.st0{opacity:0.8;fill:#12596D;}
	.st1{fill:#FFFFFF;}
	.st2{opacity:0.7;fill:#12596D;}
	.st3{fill:#12596D;}
</style>
<path class="st0" d="M52.6,332.8c0,2.7-2.2,5-5,5H31.3c-2.7,0-5-2.2-5-5v-16.3c0-2.7,2.2-5,5-5h16.3c2.7,0,5,2.2,5,5V332.8z"/>
<path class="st1" d="M49.3,319.3l-4.4-4.4c-0.5-0.5-1.4-0.5-2,0c-0.5,0.5-0.5,1.4,0,2l2.1,2h-9.5c-0.8,0-1.4,0.6-1.4,1.4
	c0,0.8,0.6,1.4,1.4,1.4h9.5l-2.2,2.1c-0.5,0.5-0.5,1.4,0,2c0.3,0.3,0.6,0.4,1,0.4c0.4,0,0.7-0.1,1-0.4l4.4-4.4
	C49.8,320.7,49.8,319.8,49.3,319.3"/>
<path class="st2" d="M22,332.8c0,2.7-2.2,5-5,5H0.7c-2.7,0-5-2.2-5-5v-16.3c0-2.7,2.2-5,5-5H17c2.7,0,5,2.2,5,5V332.8z"/>
<path class="st1" d="M9.4,322.6H3.2c-0.8,0-1.4,0.6-1.4,1.4c0,0.8,0.6,1.4,1.4,1.4l2.9-0.1l-6.7,6.7c-0.5,0.5-0.5,1.4,0,2
	c0.5,0.5,1.4,0.5,2,0l6.7-6.8l-0.1,3c0,0.8,0.6,1.4,1.4,1.4c0.4,0,0.7-0.2,1-0.4c0.2-0.3,0.4-0.6,0.4-1V324
	C10.8,323.3,10.2,322.6,9.4,322.6"/>
<path class="st3" d="M83.2,332.8c0,2.7-2.2,5-5,5H61.9c-2.7,0-5-2.2-5-5v-16.3c0-2.7,2.2-5,5-5h16.3c2.7,0,5,2.2,5,5V332.8z"/>
<path class="st1" d="M79.9,327.9l-4.4-4.4c-0.5-0.5-1.4-0.5-2,0c-0.5,0.5-0.5,1.4,0,2l2.1,2H64.5l2.1-2c0.5-0.5,0.5-1.4,0-2
	c-0.3-0.3-0.6-0.4-1-0.4c-0.4,0-0.7,0.1-1,0.4l-4.4,4.4c-0.5,0.5-0.5,1.4,0,2l4.4,4.4c0.5,0.5,1.4,0.5,2,0c0.5-0.5,0.5-1.4,0-2
	l-2.2-2.1h11.2l-2.2,2.1c-0.5,0.5-0.5,1.4,0,2c0.3,0.3,0.6,0.4,1,0.4c0.4,0,0.7-0.1,1-0.4l4.4-4.4C80.4,329.3,80.4,328.4,79.9,327.9
	"/>
<g>
	<polygon class="st3" points="90.1,313.1 91.8,313.1 91.8,316.8 94.8,313.1 96.9,313.1 93.4,317.1 97.1,321.6 94.8,321.6 
		91.8,317.7 91.8,317.7 91.8,321.6 90.1,321.6 	"/>
	<polygon class="st3" points="100.2,314.4 97.7,314.4 97.7,313.1 104.3,313.1 104.3,314.4 101.9,314.4 101.9,321.6 100.2,321.6 	"/>
	<rect x="105.7" y="313.1" class="st3" width="1.7" height="8.5"/>
	<rect x="112" y="318" class="st3" width="6.1" height="0.7"/>
	<path class="st3" d="M121.9,320.5c0.5,0.3,1.1,0.5,1.9,0.5c1,0,1.9-0.5,1.9-1.7c0-1.7-3.9-1.9-3.9-4.1c0-1.4,1.2-2.2,2.7-2.2
		c0.4,0,1.1,0.1,1.7,0.3L126,314c-0.4-0.2-1-0.3-1.5-0.3c-0.9,0-1.8,0.4-1.8,1.5c0,1.7,3.9,1.7,3.9,4.2c0,1.7-1.5,2.4-2.8,2.4
		c-0.8,0-1.5-0.2-1.9-0.4L121.9,320.5z"/>
	<path class="st3" d="M130.5,316h-1.4v4c0,0.6,0.2,1,0.8,1c0.3,0,0.5-0.1,0.7-0.1l0,0.6c-0.2,0.1-0.6,0.2-0.9,0.2
		c-1.4,0-1.4-0.9-1.4-2.1V316h-1.2v-0.7h1.2v-1.5l0.8-0.3v1.8h1.4V316z"/>
	<path class="st3" d="M135.6,320.6L135.6,320.6c-0.4,0.7-1.2,1.1-2,1.1c-1.8,0-2-1.2-2-1.8c0-2.1,2.2-2.2,3.8-2.2h0.1v-0.3
		c0-1.1-0.4-1.6-1.4-1.6c-0.6,0-1.3,0.1-1.8,0.5v-0.7c0.5-0.2,1.3-0.4,1.8-0.4c1.5,0,2.2,0.7,2.2,2.3v2.7c0,0.5,0,0.9,0.1,1.3h-0.8
		V320.6z M135.6,318.5h-0.2c-1.3,0-2.9,0.1-2.9,1.5c0,0.8,0.6,1.1,1.3,1.1c1.8,0,1.8-1.6,1.8-2.2V318.5z"/>
	<path class="st3" d="M138.2,316.8c0-0.7,0-0.9,0-1.4h0.8v1.2h0c0.3-0.7,0.8-1.3,1.6-1.3c0.2,0,0.4,0,0.5,0.1v0.8
		c-0.2,0-0.4-0.1-0.6-0.1c-1.2,0-1.5,1.4-1.5,2.5v3.1h-0.8V316.8z"/>
	<path class="st3" d="M145.4,316H144v4c0,0.6,0.2,1,0.8,1c0.3,0,0.5-0.1,0.7-0.1l0,0.6c-0.2,0.1-0.6,0.2-0.9,0.2
		c-1.4,0-1.4-0.9-1.4-2.1V316H142v-0.7h1.2v-1.5l0.8-0.3v1.8h1.4V316z"/>
	<rect x="146.5" y="317.9" class="st3" width="3.1" height="0.8"/>
	<path class="st3" d="M156.2,320.1c0,0.5,0,1,0,1.5h-0.7v-1.1h0c-0.3,0.6-0.7,1.3-2,1.3c-1.5,0-2.1-1-2.1-2.4v-4h0.8v3.8
		c0,1.2,0.4,1.9,1.5,1.9c1.4,0,1.8-1.2,1.8-2.3v-3.4h0.8V320.1z"/>
	<path class="st3" d="M158.1,315.4h0.8l0,1.1h0c0.2-0.3,0.7-1.3,2-1.3c1.8,0,2.6,1.4,2.6,3.2c0,1.8-0.9,3.2-2.6,3.2
		c-1,0-1.6-0.4-1.9-1.2h0v3.6h-0.8V315.4z M160.7,315.9c-1.4,0-1.8,1.5-1.8,2.6c0,1.1,0.5,2.6,1.8,2.6c1.5,0,1.8-1.4,1.8-2.6
		C162.5,317.3,162.2,315.9,160.7,315.9"/>
	<path class="st3" d="M173.3,320.1c0,0.5,0,1,0,1.5h-0.7v-1.1h0c-0.3,0.6-0.7,1.3-2,1.3c-1.5,0-2.1-1-2.1-2.4v-4h0.8v3.8
		c0,1.2,0.4,1.9,1.5,1.9c1.4,0,1.8-1.2,1.8-2.3v-3.4h0.8V320.1z"/>
	<path class="st3" d="M175.2,316.8c0-0.5,0-1,0-1.5h0.7v1.1h0c0.3-0.6,0.7-1.3,2-1.3c1.5,0,2.1,1,2.1,2.4v4h-0.8v-3.8
		c0-1.2-0.4-1.9-1.5-1.9c-1.4,0-1.8,1.2-1.8,2.3v3.4h-0.8V316.8z"/>
	<path class="st3" d="M187,321.6h-0.8v-1h0c-0.4,0.8-1,1.1-1.9,1.1c-1.7,0-2.6-1.4-2.6-3.2c0-1.9,0.7-3.2,2.6-3.2
		c1.2,0,1.8,0.9,1.9,1.2h0v-4h0.8V321.6z M184.4,321.1c1.4,0,1.8-1.5,1.8-2.6c0-1.1-0.5-2.6-1.8-2.6c-1.5,0-1.8,1.4-1.8,2.6
		C182.5,319.7,182.9,321.1,184.4,321.1"/>
	<path class="st3" d="M198.9,318.6c0,2.5-1.8,3.1-3.1,3.1s-3.1-0.6-3.1-3.1v-5.5h0.8v5.5c0,1.4,0.8,2.4,2.2,2.4s2.2-1,2.2-2.4v-5.5
		h0.8V318.6z"/>
	<path class="st3" d="M200.9,316.8c0-0.5,0-1,0-1.5h0.7v1.1h0c0.3-0.6,0.7-1.3,2-1.3c1.5,0,2.1,1,2.1,2.4v4H205v-3.8
		c0-1.2-0.4-1.9-1.5-1.9c-1.4,0-1.8,1.2-1.8,2.3v3.4h-0.8V316.8z"/>
	<path class="st3" d="M210.3,316h-1.4v4c0,0.6,0.2,1,0.8,1c0.3,0,0.5-0.1,0.7-0.1l0,0.6c-0.2,0.1-0.6,0.2-0.9,0.2
		c-1.4,0-1.4-0.9-1.4-2.1V316h-1.2v-0.7h1.2v-1.5l0.8-0.3v1.8h1.4V316z"/>
	<path class="st3" d="M215.8,321.4c-0.5,0.2-1.2,0.3-1.8,0.3c-2.1,0-2.8-1.4-2.8-3.3c0-1.9,1-3.2,2.6-3.2c1.8,0,2.5,1.4,2.5,3.1v0.4
		H212c0,1.3,0.7,2.4,2,2.4c0.6,0,1.4-0.2,1.7-0.5V321.4z M215.5,318.1c0-1.1-0.4-2.2-1.6-2.2c-1.1,0-1.8,1.1-1.8,2.2H215.5z"/>
	<path class="st3" d="M217.8,316.8c0-0.7,0-0.9,0-1.4h0.8v1.2h0c0.3-0.7,0.8-1.3,1.6-1.3c0.2,0,0.4,0,0.5,0.1v0.8
		c-0.2,0-0.4-0.1-0.6-0.1c-1.2,0-1.5,1.4-1.5,2.5v3.1h-0.8V316.8z"/>
	<path class="st3" d="M222,316.8c0-0.5,0-1,0-1.5h0.7v1.1h0c0.3-0.6,0.7-1.3,2-1.3c1.5,0,2.1,1,2.1,2.4v4h-0.8v-3.8
		c0-1.2-0.4-1.9-1.5-1.9c-1.4,0-1.8,1.2-1.8,2.3v3.4H222V316.8z"/>
	<path class="st3" d="M233,321.4c-0.5,0.2-1.2,0.3-1.8,0.3c-2.1,0-2.8-1.4-2.8-3.3c0-1.9,1-3.2,2.6-3.2c1.8,0,2.5,1.4,2.5,3.1v0.4
		h-4.2c0,1.3,0.7,2.4,2,2.4c0.6,0,1.4-0.2,1.7-0.5V321.4z M232.6,318.1c0-1.1-0.4-2.2-1.6-2.2c-1.1,0-1.8,1.1-1.8,2.2H232.6z"/>
	<path class="st3" d="M235,312.5h0.8v4h0c0.3-0.7,1-1.2,1.9-1.2c1.7,0,2.1,1.1,2.1,2.6v3.7h-0.8v-3.7c0-1.1-0.2-2-1.5-2
		c-1.4,0-1.8,1.3-1.8,2.4v3.3H235V312.5z"/>
	<path class="st3" d="M249.3,321.6v-4.1c0-0.9-0.3-1.6-1.3-1.6c-0.8,0-1.7,0.7-1.7,2.3v3.4h-0.8v-4.1c0-0.9-0.3-1.6-1.3-1.6
		c-0.8,0-1.7,0.7-1.7,2.3v3.4h-0.8v-4.7c0-0.5,0-1,0-1.5h0.7v1l0,0c0.2-0.4,0.6-1.2,1.9-1.2c0.5,0,1.4,0.2,1.6,1.3h0
		c0.3-0.7,1-1.3,2-1.3c1.3,0,2,0.9,2,2.1v4.3H249.3z"/>
	<path class="st3" d="M256.2,321.4c-0.5,0.2-1.2,0.3-1.8,0.3c-2.1,0-2.8-1.4-2.8-3.3c0-1.9,1-3.2,2.6-3.2c1.8,0,2.5,1.4,2.5,3.1v0.4
		h-4.2c0,1.3,0.7,2.4,2,2.4c0.6,0,1.4-0.2,1.7-0.5V321.4z M255.8,318.1c0-1.1-0.4-2.2-1.6-2.2c-1.1,0-1.8,1.1-1.8,2.2H255.8z"/>
	<path class="st3" d="M258.2,316.8c0-0.7,0-0.9,0-1.4h0.8v1.2h0c0.3-0.7,0.8-1.3,1.6-1.3c0.2,0,0.4,0,0.5,0.1v0.8
		c-0.2,0-0.4-0.1-0.6-0.1c-1.2,0-1.5,1.4-1.5,2.5v3.1h-0.8V316.8z"/>
	<path class="st3" d="M265.3,316h-1.4v4c0,0.6,0.2,1,0.8,1c0.3,0,0.5-0.1,0.7-0.1l0,0.6c-0.2,0.1-0.6,0.2-0.9,0.2
		c-1.4,0-1.4-0.9-1.4-2.1V316H262v-0.7h1.2v-1.5l0.8-0.3v1.8h1.4V316z"/>
	<path class="st3" d="M271.5,320.1c0,0.5,0,1,0,1.5h-0.7v-1.1h0c-0.3,0.6-0.7,1.3-2,1.3c-1.5,0-2.1-1-2.1-2.4v-4h0.8v3.8
		c0,1.2,0.4,1.9,1.5,1.9c1.4,0,1.8-1.2,1.8-2.3v-3.4h0.8V320.1z"/>
	<path class="st3" d="M281,321.6v-4.1c0-0.9-0.3-1.6-1.3-1.6c-0.8,0-1.7,0.7-1.7,2.3v3.4h-0.8v-4.1c0-0.9-0.3-1.6-1.3-1.6
		c-0.8,0-1.7,0.7-1.7,2.3v3.4h-0.8v-4.7c0-0.5,0-1,0-1.5h0.7v1l0,0c0.2-0.4,0.6-1.2,1.9-1.2c0.5,0,1.4,0.2,1.6,1.3h0
		c0.3-0.7,1-1.3,2-1.3c1.3,0,2,0.9,2,2.1v4.3H281z"/>
	<polygon class="st3" points="284,320.6 285,320.6 284,323.2 283.3,323.2 	"/>
	<polygon class="st3" points="90,327.7 94,327.7 94,328.4 90.8,328.4 90.8,331.5 93.9,331.5 93.9,332.2 90.8,332.2 90.8,336.2 
		90,336.2 	"/>
	<path class="st3" d="M101.2,334.1c0.5-0.8,0.7-1.7,0.7-2.6h0.7c0,1.1-0.3,2.2-1,3.1l1.4,1.6h-1.1l-0.9-0.9
		c-0.7,0.8-1.6,1.1-2.6,1.1c-1.4,0-2.8-0.7-2.8-2.4c0-1.3,0.9-2,2-2.5c-0.5-0.6-1.1-1.2-1.1-2.1c0-1.2,1.2-1.8,2.3-1.8
		c1,0,2,0.6,2,1.8c0,1.3-1,1.8-2,2.3L101.2,334.1z M98.3,332c-0.8,0.3-1.6,1-1.6,2c0,1.2,0.9,1.8,2,1.8c0.8,0,1.6-0.4,2.1-1
		L98.3,332z M98.5,331.2c0.7-0.4,1.6-0.7,1.6-1.7c0-0.8-0.5-1.2-1.2-1.2c-0.7,0-1.4,0.4-1.4,1.2C97.6,330.1,98.1,330.7,98.5,331.2"
		/>
	<polygon class="st3" points="105.3,327.7 109.5,327.7 109.5,328.4 106.1,328.4 106.1,331.5 109.3,331.5 109.3,332.2 106.1,332.2 
		106.1,335.5 109.6,335.5 109.6,336.2 105.3,336.2 	"/>
	<rect x="110.9" y="332.5" class="st3" width="3.1" height="0.8"/>
	<path class="st3" d="M115.9,327.7h2.1c1.6,0,2.6,0.8,2.6,2.4c0,1.6-1.2,2.4-2.7,2.4h-1.2v3.7h-0.8V327.7z M116.7,331.8h0.6
		c1.3,0,2.5-0.1,2.5-1.7c0-1.1-0.6-1.7-1.7-1.7h-1.4V331.8z"/>
	<path class="st3" d="M122,331.4c0-0.7,0-0.9,0-1.4h0.8v1.2h0c0.3-0.7,0.8-1.3,1.6-1.3c0.2,0,0.4,0,0.5,0.1v0.8
		c-0.2,0-0.4-0.1-0.6-0.1c-1.2,0-1.5,1.4-1.5,2.5v3.1H122V331.4z"/>
	<path class="st3" d="M128.5,329.8c2,0,2.9,1.6,2.9,3.2c0,1.7-0.9,3.2-2.9,3.2c-2,0-2.9-1.6-2.9-3.2
		C125.6,331.4,126.5,329.8,128.5,329.8 M128.5,335.7c1.3,0,2.1-1.2,2.1-2.6c0-1.4-0.7-2.6-2.1-2.6c-1.3,0-2.1,1.2-2.1,2.6
		C126.4,334.5,127.2,335.7,128.5,335.7"/>
	<path class="st3" d="M131.6,338.1c0.1,0,0.3,0.1,0.5,0.1c0.8,0,0.8-0.5,0.8-1.2v-7h0.8v7.1c0,1-0.3,1.8-1.4,1.8
		c-0.3,0-0.5,0-0.7-0.1V338.1z M133.7,328.3h-0.8v-1h0.8V328.3z"/>
	<path class="st3" d="M139.9,336c-0.5,0.2-1.2,0.3-1.8,0.3c-2.1,0-2.8-1.4-2.8-3.2c0-1.9,1-3.3,2.6-3.3c1.8,0,2.5,1.4,2.5,3.1v0.4
		h-4.2c0,1.3,0.7,2.4,2,2.4c0.6,0,1.4-0.2,1.7-0.5V336z M139.5,332.6c0-1.1-0.4-2.2-1.6-2.2c-1.1,0-1.8,1.1-1.8,2.2H139.5z"/>
	<polygon class="st3" points="141.9,327.1 142.6,327.1 142.6,332.5 145.4,330 146.4,330 143.4,332.7 146.8,336.2 145.7,336.2 
		142.6,333 142.6,336.2 141.9,336.2 	"/>
	<path class="st3" d="M150.9,330.6h-1.4v4c0,0.6,0.2,1,0.8,1c0.3,0,0.5-0.1,0.7-0.1l0,0.6c-0.2,0.1-0.6,0.2-0.9,0.2
		c-1.4,0-1.4-0.9-1.4-2.1v-3.6h-1.2V330h1.2v-1.5l0.8-0.3v1.8h1.4V330.6z"/>
	<path class="st3" d="M153.1,330.6h-1.3V330h1.3v-0.5c0-1.3,0-2.6,1.6-2.6c0.2,0,0.6,0,0.7,0.1l0,0.7c-0.2-0.1-0.4-0.1-0.6-0.1
		c-1,0-0.9,1.1-0.9,1.9v0.5h1.4v0.7h-1.4v5.5h-0.8V330.6z"/>
	<path class="st3" d="M159,329.8c2,0,2.9,1.6,2.9,3.2s-0.9,3.2-2.9,3.2c-2,0-2.9-1.6-2.9-3.2S157,329.8,159,329.8 M159,335.7
		c1.3,0,2.1-1.2,2.1-2.6c0-1.4-0.7-2.6-2.1-2.6c-1.3,0-2.1,1.2-2.1,2.6C156.9,334.5,157.6,335.7,159,335.7 M157.5,327.9h0.9v1h-0.9
		V327.9z M159.6,327.9h0.9v1h-0.9V327.9z"/>
	<path class="st3" d="M163.4,331.4c0-0.7,0-0.9,0-1.4h0.8v1.2h0c0.3-0.7,0.8-1.3,1.6-1.3c0.2,0,0.4,0,0.5,0.1v0.8
		c-0.2,0-0.4-0.1-0.6-0.1c-1.2,0-1.5,1.4-1.5,2.5v3.1h-0.8V331.4z"/>
	<path class="st3" d="M172.4,336.2h-0.8v-1h0c-0.4,0.8-1,1.1-1.9,1.1c-1.7,0-2.6-1.4-2.6-3.2c0-1.9,0.7-3.2,2.6-3.2
		c1.2,0,1.8,0.9,1.9,1.2h0v-4h0.8V336.2z M169.8,335.7c1.4,0,1.8-1.5,1.8-2.6c0-1.1-0.5-2.6-1.8-2.6c-1.5,0-1.8,1.4-1.8,2.6
		C168,334.3,168.3,335.7,169.8,335.7"/>
	<path class="st3" d="M178.6,336c-0.5,0.2-1.2,0.3-1.8,0.3c-2.1,0-2.8-1.4-2.8-3.2c0-1.9,1-3.3,2.6-3.3c1.8,0,2.5,1.4,2.5,3.1v0.4
		h-4.2c0,1.3,0.7,2.4,2,2.4c0.6,0,1.4-0.2,1.7-0.5V336z M178.2,332.6c0-1.1-0.4-2.2-1.6-2.2c-1.1,0-1.8,1.1-1.8,2.2H178.2z"/>
	<path class="st3" d="M180.6,331.4c0-0.7,0-0.9,0-1.4h0.8v1.2h0c0.3-0.7,0.8-1.3,1.6-1.3c0.2,0,0.4,0,0.5,0.1v0.8
		c-0.2,0-0.4-0.1-0.6-0.1c-1.2,0-1.5,1.4-1.5,2.5v3.1h-0.8V331.4z"/>
	<path class="st3" d="M189.5,334.7c0,0.5,0,1,0,1.5h-0.7v-1.1h0c-0.3,0.6-0.7,1.3-2,1.3c-1.5,0-2.1-1-2.1-2.4v-4h0.8v3.8
		c0,1.2,0.4,1.9,1.5,1.9c1.4,0,1.8-1.2,1.8-2.3V330h0.8V334.7z"/>
	<path class="st3" d="M191.5,331.4c0-0.5,0-1,0-1.5h0.7v1.1h0c0.3-0.6,0.7-1.3,2-1.3c1.5,0,2.1,1,2.1,2.4v4h-0.8v-3.8
		c0-1.2-0.4-1.9-1.5-1.9c-1.4,0-1.8,1.2-1.8,2.3v3.4h-0.8V331.4z"/>
	<path class="st3" d="M203.2,335.7c0,1.7-0.8,3.1-2.9,3.1c-0.8,0-1.6-0.2-1.9-0.3l0.1-0.8c0.5,0.2,1.2,0.4,1.8,0.4
		c2,0,2.1-1.4,2.1-3.2h0c-0.4,0.9-1.1,1.2-1.9,1.2c-2,0-2.6-1.7-2.6-3.1c0-1.9,0.7-3.2,2.6-3.2c0.8,0,1.4,0.1,1.9,0.9h0V330h0.8
		V335.7z M200.5,335.5c1.4,0,1.9-1.3,1.9-2.4c0-1.5-0.4-2.6-1.8-2.6c-1.5,0-1.8,1.4-1.8,2.6C198.7,334.3,199.2,335.5,200.5,335.5"/>
	<polygon class="st3" points="205.4,335.2 206.5,335.2 205.5,337.8 204.7,337.8 	"/>
	<polygon class="st3" points="219.2,336.2 218.2,336.2 216,328.6 216,328.6 213.8,336.2 212.8,336.2 210.4,327.7 211.2,327.7 
		213.3,335.2 213.3,335.2 215.5,327.7 216.5,327.7 218.7,335.2 218.7,335.2 220.8,327.7 221.6,327.7 	"/>
	<polygon class="st3" points="225.1,328.4 222.6,328.4 222.6,327.7 228.4,327.7 228.4,328.4 225.9,328.4 225.9,336.2 225.1,336.2 	
		"/>
	<polygon class="st3" points="231.9,328.4 229.4,328.4 229.4,327.7 235.2,327.7 235.2,328.4 232.7,328.4 232.7,336.2 231.9,336.2 	
		"/>
	<rect x="235.4" y="332.5" class="st3" width="3.1" height="0.8"/>
	<path class="st3" d="M239.6,335.1c0.5,0.3,1.1,0.5,1.9,0.5c1,0,1.9-0.5,1.9-1.7c0-1.7-3.9-1.9-3.9-4.1c0-1.4,1.2-2.2,2.7-2.2
		c0.4,0,1.1,0.1,1.7,0.3l-0.1,0.8c-0.4-0.2-1-0.3-1.5-0.3c-0.9,0-1.8,0.4-1.8,1.5c0,1.7,3.9,1.7,3.9,4.2c0,1.7-1.5,2.4-2.8,2.4
		c-0.8,0-1.5-0.2-1.9-0.4L239.6,335.1z"/>
	<path class="st3" d="M250.6,334.7c0,0.5,0,1,0,1.5h-0.7v-1.1h0c-0.3,0.6-0.7,1.3-2,1.3c-1.5,0-2.1-1-2.1-2.4v-4h0.8v3.8
		c0,1.2,0.4,1.9,1.5,1.9c1.4,0,1.8-1.2,1.8-2.3V330h0.8V334.7z"/>
	<path class="st3" d="M252.5,330h0.8l0,1.1h0c0.2-0.3,0.7-1.3,2-1.3c1.8,0,2.6,1.4,2.6,3.2c0,1.8-0.9,3.2-2.6,3.2
		c-1,0-1.6-0.4-1.9-1.2h0v3.6h-0.8V330z M255.1,330.5c-1.4,0-1.8,1.5-1.8,2.6c0,1.1,0.5,2.6,1.8,2.6c1.5,0,1.8-1.4,1.8-2.6
		C257,331.9,256.6,330.5,255.1,330.5"/>
	<path class="st3" d="M259.4,330h0.8l0,1.1h0c0.2-0.3,0.7-1.3,2-1.3c1.8,0,2.6,1.4,2.6,3.2c0,1.8-0.9,3.2-2.6,3.2
		c-1,0-1.6-0.4-1.9-1.2h0v3.6h-0.8V330z M262,330.5c-1.4,0-1.8,1.5-1.8,2.6c0,1.1,0.5,2.6,1.8,2.6c1.5,0,1.8-1.4,1.8-2.6
		C263.9,331.9,263.5,330.5,262,330.5"/>
	<path class="st3" d="M268.8,329.8c2,0,2.9,1.6,2.9,3.2c0,1.7-0.9,3.2-2.9,3.2s-2.9-1.6-2.9-3.2
		C265.9,331.4,266.8,329.8,268.8,329.8 M268.8,335.7c1.3,0,2.1-1.2,2.1-2.6c0-1.4-0.7-2.6-2.1-2.6c-1.3,0-2.1,1.2-2.1,2.6
		C266.8,334.5,267.5,335.7,268.8,335.7"/>
	<path class="st3" d="M273.3,331.4c0-0.7,0-0.9,0-1.4h0.8v1.2h0c0.3-0.7,0.8-1.3,1.6-1.3c0.2,0,0.4,0,0.5,0.1v0.8
		c-0.2,0-0.4-0.1-0.6-0.1c-1.2,0-1.5,1.4-1.5,2.5v3.1h-0.8V331.4z"/>
	<path class="st3" d="M280.4,330.6H279v4c0,0.6,0.2,1,0.8,1c0.3,0,0.5-0.1,0.7-0.1l0,0.6c-0.2,0.1-0.6,0.2-0.9,0.2
		c-1.4,0-1.4-0.9-1.4-2.1v-3.6H277V330h1.2v-1.5l0.8-0.3v1.8h1.4V330.6z"/>
</g>
</svg>
