<?xml version="1.0" encoding="utf-8"?>
<!-- Generator: Adobe Illustrator 19.0.0, SVG Export Plug-In . SVG Version: 6.00 Build 0)  -->
<!DOCTYPE svg PUBLIC "-//W3C//DTD SVG 1.1//EN" "http://www.w3.org/Graphics/SVG/1.1/DTD/svg11.dtd">
<svg version="1.1" id="Ebene_1" xmlns="http://www.w3.org/2000/svg" xmlns:xlink="http://www.w3.org/1999/xlink" x="0px" y="0px"
	 width="368.5px" height="93.3px" viewBox="0 0 368.5 93.3" style="enable-background:new 0 0 368.5 93.3;" xml:space="preserve">
<style type="text/css">
	.st0{fill:#12596D;}
</style>
<g id="XMLID_146_">
	<path id="XMLID_316_" class="st0" d="M65.4,31.3c0.3,0.3,0.5,0.7,0.8,0.8c3.9,1.7,4.5,6.5,1.2,9.1c-1.2,1-2.5,1.8-3.7,2.8
		c-0.2,0.2-0.5,0.6-0.5,0.9c0.5,2.3,1.1,4.6,1.7,7c0.8-0.5,0.8-1,0.6-1.7c-0.3-1.2-0.7-2.4-0.9-3.6c-0.4-2,0.9-3.5,2.7-3.3
		c1.3,0.1,2.2,1.2,2.3,2.8c0.1,1.7-0.7,3-1.7,4.2c-0.6,0.7-1,1.4-0.6,2.4c0.2,0.5,0.3,0.8,0.9,0.9c0.4,0.1,0.9,0.7,0.9,1.2
		c0,0.4-0.5,1-0.8,1.1c-0.5,0-1.2-0.3-1.4-0.7c-0.4-0.7-0.5-1.5-0.8-2.3c-0.7,0.4-0.9,0.9-0.6,1.6c0.7,2.6,1.4,5.1,2,7.7
		c0.4,1.7-0.6,3-2.2,2.9c-1.4-0.1-2.3-1.6-1.7-2.9c0.3-0.6,0.2-0.9-0.1-1.4c-0.5-0.7-1-1.5-1.5-2.4c-1.3,1.9-2.5,3.6-3.7,5.3
		c-0.5,0.8-1.2,1.3-2.2,1.3c-1.1-0.1-1.9-0.9-2-2c-0.1-1.1,0.5-1.8,1.7-2.1c0.3-0.1,0.7-0.4,0.8-0.7c0.8-2.2,1.5-4.4,2.3-6.6
		c0.4-1.1,0.8-2.2,2.4-2.1c-0.7-1.5-1.3-2.8-2-4.3c-0.7,0.5-1.3,1-1.9,1.4c-0.4,0.3-0.7,0.7-1.1,0.7c-1.2,0.1-1.3,0.9-1.3,1.9
		c-0.1,1.9-0.4,3.8-0.5,5.7c-0.4,4.6-4.4,8.2-9.1,8.2c-4.6,0-8.5-3.7-8.9-8.2c-0.2-2.2-0.4-4.3-0.6-6.5c0-0.2-0.1-0.6-0.3-0.7
		c-1.3-0.8-2.6-1.5-3.9-2.2c-0.6,1.2-1.2,2.6-1.9,4c1.7,0,2.1,1.2,2.5,2.5c0.7,2.1,1.4,4.1,2.2,6.2c0.1,0.3,0.5,0.7,0.8,0.8
		c0.9,0.2,1.4,0.7,1.6,1.5c0.2,0.9-0.2,1.7-1,2.2c-0.8,0.5-1.6,0.5-2.3,0c-0.4-0.3-0.7-0.7-1-1.1c-1.2-1.7-2.3-3.3-3.6-5.1
		c-0.6,1-1.2,1.9-1.8,2.9c-0.1,0.2,0,0.5,0.1,0.6c0.5,0.9,0.4,1.8-0.3,2.6c-0.7,0.7-1.6,0.8-2.5,0.3c-0.9-0.5-1.3-1.3-1-2.5
		c0.5-2.2,1.1-4.3,1.7-6.5c0.1-0.4,0.2-0.9,0.4-1.3c0.3-0.7,0.1-1.3-0.6-1.7c-0.2,0.8-0.4,1.6-0.8,2.3c-0.2,0.4-0.9,0.8-1.4,0.7
		c-0.4,0-0.9-0.7-0.9-1.1c0-0.4,0.5-0.9,0.9-1.1c0.8-0.4,1.3-1.8,0.8-2.6c-0.8-1.2-1.5-2.4-2.2-3.6c0-0.6,0-1.2,0-1.9
		c0.4-0.6,0.6-1.3,1.1-1.7c0.7-0.7,2-0.7,2.9-0.2c0.9,0.5,1.3,1.7,1.1,2.9c-0.3,1.3-0.6,2.6-0.9,3.8c-0.2,0.7,0,1.2,0.7,1.6
		c0.6-2.2,1.1-4.4,1.7-6.6c0.2-0.7,0-1-0.5-1.4c-1.2-0.9-2.4-1.8-3.6-2.7c-3.3-2.6-2.7-7.4,1.2-9.1c0.3-0.1,0.5-0.5,0.8-0.8
		c0.3,0,0.5,0,0.8,0c0.3,0.1,0.6,0.4,0.9,0.4c0.8,0.1,1.6,0,2.4,0c0,0.8,0,1.4,0,2c-0.4,0.2-0.7,0.3-1,0.4c0,0.1,0,0.2,0,0.3
		c1-0.1,2-0.1,3-0.2c0.1,0.7-0.3,1-1,1.1c-0.6,0-1.3,0.2-1.9,0.1c-0.4-0.1-1-0.5-1.1-0.8c-0.1-0.4,0.2-0.9,0.4-1.4
		c0.1-0.2,0.4-0.3,0.7-0.5c-1.1-0.1-2.2,0.7-2.2,1.6c0,0.4,0,1.2,0.2,1.2c0.9,0.3,1.9,0.4,2.9,0.6c-0.1,0.1-0.2,0.1-0.3,0.2
		c0.9,0.6,1.9,1.3,2.8,1.9c0.4-0.8,1.1-1.6,0.6-2.8c-0.3-1,0.6-2.1,1.7-2.2c0.6,0,1.2,0.2,1.9,0.3c0-0.4,0-1,0-1.6c6,0,12,0,18,0
		c0,0.6,0,1.1,0,1.7c0.4-0.2,0.6-0.3,0.8-0.4c1.4-0.5,3.1,0.7,2.7,2.1c-0.4,1.3,0.3,2.1,0.6,2.8c0.9-0.6,1.8-1.2,3.3-2.1
		c1.8,0,2.2,0,2.3-0.5c0.1-0.6,0.1-1.3-0.2-1.7c-0.4-0.6-0.8-1.4-1.9-0.9c0.8,0.4,1.4,0.9,1.1,1.8c-0.3,0.9-1,1-1.8,0.9
		c-0.4,0-0.8-0.1-1.2-0.1c-0.7,0-1.1-0.3-1-1.1c1,0.1,2,0.1,3,0.2c0-0.1,0-0.3,0-0.4c-0.3-0.1-0.6-0.3-0.9-0.4c0-0.7,0-1.4,0-2
		c0.9,0,1.7,0,2.4,0c0.3,0,0.5-0.3,0.8-0.4C64.8,31.3,65.1,31.3,65.4,31.3z M53.1,58.2c0.1-0.6,0.2-0.9,0.3-1.3
		c0.2-2.4,0.4-4.8,0.6-7.1c0-0.4-0.1-0.9-0.3-1.4c-0.4-0.8-0.4-1.7,0.2-2.3c0.9-0.9,0.5-2,0.7-3.1c-5.7,0-11.2,0-17,0
		C42.7,48.1,47.8,53.1,53.1,58.2z M31.9,43.1c0.6-3.4-1.6-6.1-4.7-6.3c-0.9,0-1.5-0.4-1.6-1.4c-0.1-0.8-0.2-1.5-0.3-2.4
		c-1.5,0.7-2.4,1.7-2.7,3.3c-0.3,1.6,0.3,2.9,1.6,3.9c3.4,2.6,6.9,5.2,10.3,7.8c0.2,0.1,0.4,0.3,0.6,0.3c0.3,0,0.8-0.2,1-0.4
		c0.2-0.2,0.2-0.7,0.1-0.9c-0.2-0.3-0.7-0.6-0.8-0.6c-0.8,0.4-1.3-0.2-1.8-0.6c-1.1-0.8-2.2-1.7-3.3-2.4c-0.7-0.5-0.8-1-0.3-1.7
		C30.7,42.2,31.2,42.7,31.9,43.1z M60.9,41.8c0.5,0.8,0.3,1.3-0.4,1.7c-1.2,0.8-2.3,1.8-3.6,2.6c-0.4,0.2-0.9,0.2-1.3,0.4
		c-0.4,0.1-0.8,0.3-1,0.5c-0.1,0.2-0.1,0.7,0.1,0.9c0.3,0.2,0.7,0.4,1.1,0.4c0.2,0,0.5-0.2,0.7-0.4c3.3-2.5,6.6-5,9.9-7.5
		c0.6-0.4,1.1-1,1.5-1.7c1.2-2.2-0.1-5-2.3-5.5c0,0.5,0,0.9-0.1,1.3c-0.2,2-0.4,2.2-2.4,2.3c-2.5,0.1-4.7,3.6-3.9,6.2
		C59.8,42.6,60.3,42.2,60.9,41.8z M54.5,36.7c-0.1,0-0.2,0-0.3,0c-0.1,1.1-0.2,2.3-0.4,3.5c-5.6,0-11.2,0-16.7,0
		c-0.1-1.2-0.2-2.3-0.4-3.5c-0.1,0-0.1,0-0.2,0c-1.1,2.5-2.3,4.9-3.4,7.4c0.5,0.4,0.9,0.7,1.3,1c0.2,0.1,0.5,0.2,0.6,0.1
		c0.1-0.1,0.2-0.4,0.2-0.6c-0.1-0.9-0.1-1.9-0.2-2.8c7,0,13.9,0,20.9,0c-0.1,1-0.2,2-0.2,3c0,0.6,0.3,0.8,0.8,0.4
		c0.5-0.3,0.9-0.7,1.4-1.1C56.7,41.6,55.6,39.2,54.5,36.7z M65.6,61.8C65.3,62,65,62,65,62.2c-0.1,0.4-0.2,0.8-0.1,1.1
		c0.1,0.2,0.7,0.4,0.9,0.3c0.3-0.1,0.5-0.6,0.6-0.9c0.1-0.2-0.1-0.5-0.1-0.7c-0.8-3.2-1.7-6.4-2.5-9.6c-0.6-2.3-1.2-4.7-1.8-7.2
		c-0.7,0.5-1.2,0.9-1.8,1.3c1.2,2.7,2.4,5.3,3.5,7.9c-1.8,0.3-2.1,1.1-1.2,2.6C63.5,58.6,64.5,60.2,65.6,61.8z M27.3,54.4
		c1.2-2.7,2.4-5.3,3.6-7.9c-0.6-0.4-1.2-0.8-1.8-1.2c-1.5,5.8-3,11.4-4.4,17c0,0.2-0.1,0.4,0,0.5c0.2,0.3,0.4,0.7,0.6,0.8
		c0.3,0.1,0.8-0.1,0.9-0.4c0.1-0.2,0-0.7-0.1-1c-0.1-0.2-0.4-0.3-0.6-0.5c1-1.6,2-3.2,3-4.8C29.4,55.5,29,54.7,27.3,54.4z M38,38
		c-0.2,1.3-0.1,1.4,1,1.4c4.3,0,8.6,0,12.9,0c0.3,0,0.7,0,1-0.1c0-0.5,0.1-0.9,0.1-1.3C48,38,43,38,38,38z M57.1,62.2
		c-0.3-0.1-0.6-0.2-0.8-0.2c-0.3,0.1-0.7,0.4-0.9,0.7c-0.1,0.2,0.1,0.8,0.3,0.9c0.3,0.1,0.7,0,1.1,0c0.2,0,0.3-0.3,0.4-0.4
		c1.2-1.8,2.5-3.5,3.7-5.3c0.2-0.2,0.2-0.6,0.1-0.9c-0.6-1.6-0.3-2.3,1.3-3.2c-0.4-0.4-0.8-1.1-1-1.1c-0.5,0.1-0.9,0.6-1.2,1
		c-0.2,0.2-0.2,0.5-0.3,0.8C58.9,57,58,59.5,57.1,62.2z M28.5,53.7c1.7,0.8,1.9,1.5,1.4,3c-0.1,0.3-0.1,0.8,0.1,1
		c1.2,1.8,2.5,3.6,3.7,5.3c0.2,0.2,0.3,0.5,0.6,0.6c0.3,0.1,0.7,0.1,0.9-0.1c0.2-0.2,0.4-0.6,0.3-0.9c-0.1-0.3-0.5-0.6-0.8-0.7
		c-0.2-0.1-0.6,0.1-0.9,0.2c-1-2.9-1.9-5.7-3-8.4c-0.2-0.5-0.7-0.9-1.2-1.2C29.5,52.5,29,53.2,28.5,53.7z M38.2,58.3
		c0,0.9,0.4,1.1,1.1,1.1c4,0,8,0,12.1,0c0.2,0,0.5-0.1,0.8-0.1c-0.4-0.8-1-1-1.8-1c-1.8,0-3.5,0-5.3,0
		C42.7,58.3,40.5,58.3,38.2,58.3z M39.3,60.6c-0.1,0.1-0.1,0.2-0.2,0.4c0.5,0.2,0.9,0.7,1.4,0.7c3.3,0.1,6.6,0,9.8,0
		c0.7,0,1.1-0.4,1.3-1.1C47.5,60.6,43.4,60.6,39.3,60.6z M49.8,57.1c-0.5-0.9-1-1.1-1.8-1.1c-3.1,0-6.2,0-9.3,0c-0.3,0-0.7,0-1.1,0
		c0.1,0.5,0.1,0.7,0.2,1.1C41.8,57.1,45.7,57.1,49.8,57.1z M37.4,53.7c-0.2,0.9,0.2,1.1,0.8,1.1c2.9,0,5.7,0,8.6,0
		c0.2,0,0.4-0.1,0.9-0.2c-0.7-0.4-1.1-0.9-1.5-0.9C43.3,53.7,40.3,53.7,37.4,53.7z M24.4,49.6c0.3-1.3,0.6-2.3,0.8-3.4
		c0.2-0.9-0.5-1.8-1.2-1.8c-0.7,0-1.3,0.8-1.2,1.7C22.8,47.4,23.4,48.5,24.4,49.6z M66.6,49.6c1-1.1,1.6-2.1,1.7-3.4
		c0.1-1-0.5-1.8-1.2-1.8c-0.8,0-1.4,0.8-1.2,1.8C66,47.3,66.3,48.4,66.6,49.6z M57.8,41.4c0.7-1.2,0.5-2.1-0.2-3
		c-0.3-0.4-0.4-0.9-0.7-1.3c-0.2-0.5-0.5-0.8-0.1-1.4c0.1-0.2-0.1-0.8-0.4-1c-0.2-0.2-0.7-0.2-0.9,0c-0.2,0.2-0.5,0.8-0.4,1
		C56.1,37.6,56.9,39.4,57.8,41.4z M33.2,41.3c0.9-1.9,1.7-3.7,2.5-5.6c0.1-0.2,0.1-0.5,0-0.6c-0.3-0.3-0.7-0.7-1-0.7
		c-0.3,0.1-0.8,0.8-0.7,0.9c0.6,1.1-0.2,1.8-0.6,2.6C33,39.1,32.3,40,33.2,41.3z M45,52.5c0-0.1,0.1-0.3,0.1-0.4
		c-0.5-0.2-1.1-0.6-1.6-0.6c-1.3-0.1-2.5,0-3.8,0c-0.8,0-1.7,0-2.5,0c-0.2,0.8,0,1.1,0.7,1.1c1.3,0,2.5,0,3.8,0
		C42.8,52.5,43.9,52.5,45,52.5z M49.3,62.9c-2.6,0-5.1,0-7.6,0C43.6,64.4,47.1,64.5,49.3,62.9z M37.1,50.1c1.9,0,3.7,0,5.5,0
		c0-0.1,0.1-0.3,0.1-0.4c-0.6-0.2-1.1-0.5-1.7-0.5c-1.1-0.1-2.2,0-3.3,0C37,49.2,36.8,49.4,37.1,50.1z M37.7,35c0.9,0,1.7,0,2.4,0
		c0.1-2.1,0.1-2.2-0.8-2.1c0,0.4,0,0.8-0.1,1.2c-0.7,0.3-0.7-0.1-0.8-0.6c-0.1-0.3-0.4-0.5-0.5-0.8c-0.1,0.1-0.2,0.1-0.3,0.2
		C37.7,33.5,37.7,34.2,37.7,35z M42.3,34.3c-0.2-0.4-0.4-0.7-0.5-0.9c-0.1-0.2-0.3-0.4-0.4-0.7C41.2,33,41,33.2,41,33.5
		c0,0.5,0,0.9,0.1,1.5c0.8,0,1.5,0,2.3,0c0-0.4,0.1-0.7,0-1c-0.1-0.4,0.4-1.2-0.5-1.2C42.8,32.8,42.6,33.5,42.3,34.3z M46.7,35
		c0-0.5,0.1-0.9,0-1.4c-0.1-0.3-0.3-0.6-0.4-0.9c-0.1,0.3-0.2,0.5-0.4,0.8c-0.1,0.2-0.3,0.4-0.5,0.6c-0.1-0.2-0.3-0.4-0.3-0.6
		c0-0.5,0-1-0.8-0.7c0,0.7,0,1.4,0,2.2C45.2,35,45.9,35,46.7,35z M48.8,34.2c-0.1-0.1-0.3-0.1-0.4-0.2c0-0.2,0-0.4,0-0.6
		c-0.1-0.2-0.2-0.4-0.4-0.7c-0.1,0.2-0.4,0.4-0.4,0.6c-0.1,0.5,0,1.1,0,1.6c0.8,0,1.5,0,2.3,0c0-0.5,0.1-1.1,0.1-1.6
		c0-0.2-0.2-0.5-0.3-0.7c-0.2,0.2-0.4,0.4-0.5,0.6C49,33.6,48.9,33.9,48.8,34.2z M52,34.2c-0.1-0.1-0.2-0.2-0.4-0.2
		c0-0.2,0-0.4,0-0.5c-0.1-0.3-0.3-0.5-0.4-0.8c-0.2,0.2-0.4,0.5-0.5,0.7c-0.1,0.5,0,0.9,0,1.5c0.8,0,1.6,0,2.4,0
		c0-0.5,0.1-1,0.1-1.4c0-0.3-0.2-0.5-0.3-0.8c-0.2,0.2-0.3,0.5-0.5,0.7C52.3,33.7,52.2,34,52,34.2z M37.8,35.8
		c0.1,0.5,0.1,0.8,0.2,1.2c0.7,0,1.3,0.1,1.8,0c0.2,0,0.5-0.4,0.5-0.6c0-0.2-0.3-0.5-0.5-0.6C39.2,35.8,38.5,35.8,37.8,35.8z
		 M50.7,37c0.9,0,1.6,0,2.4,0c0-0.4,0-0.7,0-1.1c-0.8,0-1.6,0-2.4,0C50.7,36.3,50.7,36.6,50.7,37z M46.6,35.8c-0.5,0-0.9,0-1.4,0
		c-1-0.1-1.1,0.4-0.8,1.2C46.6,37.3,46.7,37.2,46.6,35.8z M43.5,37c0-0.4,0-0.8-0.1-1.1c-0.8,0-1.5,0-2.3,0c0,0.4,0,0.7,0.1,1.1
		C42,37,42.7,37,43.5,37z M47.6,37c2.2,0.3,2.3,0.2,2.1-1C47.5,35.6,47.3,35.9,47.6,37z M40.4,47.9c-0.6-1.2-1.5-1.1-2.4-0.9
		c-0.2,0-0.3,0.5-0.5,0.9C38.6,47.9,39.5,47.9,40.4,47.9z M36.8,43.9c-0.2,1.9-0.1,2.1,1.3,1.7c-0.1-0.2-0.2-0.3-0.4-0.5
		C37.5,44.7,37.1,44.3,36.8,43.9z"/>
	<path id="XMLID_314_" class="st0" d="M90.5,35.7c-0.7,0-1.4,0.1-2,0c-0.3,0-0.6-0.3-0.7-0.5c-0.6-1.3-2.6-1.9-3.7-1
		c-0.3,0.3-0.6,0.8-0.6,1.2c0,0.3,0.4,0.8,0.8,1c1.2,0.4,2.5,0.7,3.7,1.1c2.3,0.7,3.3,2.1,3,4.2c-0.2,1.3-0.8,2.2-1.9,2.8
		c-2.3,1.1-4.6,1.1-6.9-0.2c-1.3-0.8-1.9-2-1.8-3.6c0.9,0,1.7,0,2.5,0c0.8,2.1,2.2,2.9,4.2,2.1c0.5-0.2,1.1-0.8,1.2-1.3
		c0.1-0.4-0.5-1.1-0.9-1.4c-0.8-0.4-1.7-0.6-2.6-0.8c-0.7-0.2-1.4-0.4-2-0.7c-2.3-1.2-2.6-4.3-0.5-5.9c1.8-1.4,5.2-1.4,7.1,0
		C90.1,33.3,90.6,34.3,90.5,35.7z"/>
	<path id="XMLID_312_" class="st0" d="M143.4,44.7c-3.5,0-7,0-10.5,0c-0.2-1.2-0.1-2.3,0.7-3.3c1.8-2,3.4-4.1,5.1-6.1
		c0.3-0.3,0.5-0.6,0.9-1.1c-2.2,0-4.2,0-6.2,0c0-0.8,0-1.5,0-2.3c3.3,0,6.5,0,9.8,0c0.2,1.1,0.3,2.1-0.6,3.1c-1.8,2-3.4,4.1-5.1,6.1
		c-0.3,0.3-0.5,0.7-1,1.3c1.4,0,2.5,0,3.6,0c0.5,0,1.1,0,1.6,0C143.7,42.4,143.8,42.5,143.4,44.7z"/>
	<path id="XMLID_309_" class="st0" d="M116.4,36.3c0-0.8,0-1.5,0-2.2c0-0.7,0-1.4,0-2.2c0.9,0,1.6,0,2.5,0c0,4.3,0,8.5,0,12.8
		c-0.8,0-1.5,0-2.2,0c0-0.3-0.1-0.5-0.1-0.8c-0.1,0-0.2,0-0.2,0c-2.5,2.1-5.6,1.1-6.5-2.1c-0.3-1.1-0.3-2.3-0.1-3.4
		C110.4,35.3,113.8,34.1,116.4,36.3z M112.1,40c0,1.9,1,3.2,2.4,3.1c1.4-0.1,2.2-1.4,2.1-3.3c-0.1-1.8-0.9-2.8-2.3-2.8
		C112.9,37.2,112.1,38.3,112.1,40z"/>
	<path id="XMLID_307_" class="st0" d="M181.2,44.7c-0.9,0-1.6,0-2.4,0c0-4.3,0-8.5,0-12.7c0.1-0.1,0.1-0.1,0.1-0.1
		c2.3-0.3,2.3-0.3,2.3,1.9c0,0.8,0,1.6,0,2.8c1.1-1.2,2.2-1.6,3.5-1.5c1.5,0.2,2.5,1,2.6,2.6c0.1,2.3,0,4.6,0,6.9
		c-0.8,0-1.5,0-2.4,0c0-1.4,0-2.9,0-4.3c0-0.5,0-1,0-1.6c-0.1-1.1-0.7-1.6-1.6-1.7c-1,0-1.7,0.5-1.8,1.6c-0.1,1.1-0.1,2.3-0.1,3.4
		C181.2,43,181.2,43.8,181.2,44.7z"/>
	<path id="XMLID_304_" class="st0" d="M101.9,38.3c-0.8,0-1.6,0-2.3,0c0-1.4,0.6-2.3,1.9-2.7c1.5-0.5,3.1-0.5,4.6,0
		c1.2,0.4,1.7,1.1,1.7,2.4c0,2.2,0,4.5,0,6.8c-0.7-0.2-1.7,0.6-2.3-0.3c-1.4,0.2-2.6,0.5-3.8,0.5c-1.5,0-2.4-1-2.5-2.4
		c-0.1-1.6,0.5-2.5,2-2.9c0.8-0.2,1.7-0.3,2.5-0.4c0.7-0.1,1.5-0.1,1.6-1c0-0.4-0.4-1-0.7-1.2c-0.8-0.3-1.6-0.3-2.2,0.4
		C102.1,37.7,102.1,38,101.9,38.3z M105.3,40.4c-0.9,0.2-1.7,0.3-2.5,0.5c-0.7,0.2-1.1,0.6-1.1,1.4c0.1,0.8,0.6,1,1.3,1.1
		C104.7,43.5,105.5,42.4,105.3,40.4z"/>
	<path id="XMLID_302_" class="st0" d="M145.2,35.5c0.8,0,1.5,0,2.4,0c0,0.8,0,1.5,0,2.2c0,1.3,0,2.6,0.1,3.8
		c0.1,0.9,0.5,1.4,1.4,1.5c0.9,0.1,1.7-0.2,1.9-1.2c0.2-0.6,0.2-1.3,0.2-1.9c0-1.4,0-2.8,0-4.3c0.8,0,1.6,0,2.4,0c0,3,0,6.1,0,9.2
		c-0.7,0-1.4,0-2.2,0c-0.1-0.2-0.1-0.6-0.2-1c-0.9,1-2,1.5-3.2,1.4c-1.8-0.1-2.7-0.9-2.9-2.6C145.1,40.1,145.2,37.8,145.2,35.5z"/>
	<path id="XMLID_300_" class="st0" d="M177,38.7c-0.6,0-1.3,0-1.9,0c-0.2,0-0.5-0.3-0.6-0.5c-0.4-0.8-1-1.1-1.8-1.1
		c-0.9,0-1.6,0.5-1.8,1.3c-0.2,1-0.2,2.2-0.1,3.2c0.1,0.9,0.8,1.4,1.7,1.5c0.9,0,1.6-0.4,2-1.3c0.1-0.2,0.1-0.3,0.2-0.5
		c0.7,0,1.5,0,2.2,0c0,2.2-1.7,3.7-4.2,3.8c-2.7,0-4.6-1.7-4.8-4.6c-0.2-2.9,1.6-5,4.2-5.2C174.9,35,176.7,36.3,177,38.7z"/>
	<path id="XMLID_298_" class="st0" d="M195.4,58.7c0.2-0.2,0.4-0.7,0.6-0.7c1.6-0.1,3.2,0,4.8,0c0,2.2,0,4.3,0,6.4
		c-0.7,0.3-0.8-0.1-0.8-0.6c0-0.4-0.1-0.9-0.2-1.6c-1,1.6-2.2,2.4-3.8,2.5c-3.6,0.3-6.3-2-6.5-5.7c-0.1-1.4,0.1-3,0.7-4.3
		c1.4-3.3,5.8-4.4,8.7-2.3c1,0.8,1.6,1.8,1.8,3.1c-0.1,0.1-0.2,0.2-0.2,0.3c-0.3-0.2-0.8-0.4-1-0.8c-1.4-3.1-5.6-3.7-7.7-1
		c-1.6,2.1-1.6,5.8-0.1,7.9c1.2,1.7,3.6,2.3,5.6,1.5c1.6-0.6,2.8-2.7,2.5-4.5c-0.6,0-1.3,0-2,0c-0.7,0-1.4,0-2,0
		C195.6,58.8,195.5,58.7,195.4,58.7z"/>
	<path id="XMLID_245_" class="st0" d="M95.9,32.6c0,1,0,1.9,0,2.8c0.6,0,1.1,0.1,1.7,0.1c0,0.5,0,1,0,1.6c-0.5,0-1.1,0.1-1.8,0.1
		c0,1.7-0.1,3.3,0.1,5c0,0.4,1,0.7,1.5,1.1c0.1-0.1,0.1-0.2,0.2-0.2c0,0.6,0,1.1,0,2c-1.1-0.1-2.2-0.1-3.2-0.4
		c-1-0.2-1.2-1.2-1.2-2.1c0-1.8,0-3.5,0-5.3c-0.5-0.1-0.9-0.1-1.4-0.2c0-0.5,0-1,0-1.5c0.4,0,0.8-0.1,1.4-0.2c0-0.6,0-1.2,0-1.8
		c-0.1-0.7,0.2-1,0.9-1C94.7,32.6,95.2,32.6,95.9,32.6z"/>
	<path id="XMLID_243_" class="st0" d="M100.4,64.5c-0.4,0-0.6,0-1,0c0-2,0-3.9,0-5.8c0-1.9-0.5-2.7-1.8-2.8
		c-1.6-0.1-2.8,0.9-2.9,2.7c-0.1,1.6,0,3.1-0.1,4.7c0,0.4,0,0.8,0,1.3c-0.4,0-0.7,0-1.1,0c0-2.9,0-5.9,0-8.8c0-0.2,0.4-0.4,0.8-0.8
		c0.1,0.8,0.1,1.2,0.1,1.6c2.7-2.2,4.2-2.2,5.8,0.1c0.8-1.3,2-1.8,3.5-1.6c1.3,0.2,2.1,0.8,2.3,2.2c0.1,0.4,0.1,0.8,0.1,1.1
		c0,2,0,4.1,0,6.2c-0.4,0-0.7,0-1.1,0c0-2.2,0-4.3,0-6.5c0-1.7-1.1-2.5-2.7-2.2c-1,0.2-1.7,0.9-1.8,1.9c-0.2,1.2-0.2,2.3-0.2,3.5
		C100.4,62.3,100.4,63.3,100.4,64.5z"/>
	<path id="XMLID_241_" class="st0" d="M124.4,35.4c0.7,0,1.3,0.1,1.9,0.1c0,0.5,0,1,0,1.5c-0.6,0-1.1,0.1-1.8,0.1
		c0,1.7-0.1,3.4,0.1,5c0,0.4,1,0.7,1.5,1c0.1-0.1,0.2-0.1,0.3-0.2c0,0.4,0.1,0.8,0,1.2c-0.1,0.3-0.4,0.7-0.6,0.7
		c-0.8,0-1.6,0-2.4-0.2c-1-0.2-1.3-1.1-1.3-2.1c0-1.8,0-3.6,0-5.4c-0.5-0.1-0.9-0.1-1.4-0.2c0-0.5,0-0.9,0-1.5
		c0.4,0,0.8-0.1,1.4-0.2c0-0.9,0-1.7,0-2.7c0.9,0,1.6,0,2.5,0C124.4,33.6,124.4,34.4,124.4,35.4z"/>
	<path id="XMLID_239_" class="st0" d="M114.2,56.9c-0.4,1.4-0.8,2.8-1.2,4.2c-0.2,0.8-0.5,1.6-0.7,2.4c-0.2,0.9-0.6,1.2-1.5,0.9
		c-0.9-2.8-1.8-5.7-2.8-8.6c0-0.2,0-0.3-0.1-0.5c0.8-0.3,1,0,1.2,0.7c0.6,2.3,1.4,4.6,2.1,7.3c0.4-1.4,0.8-2.6,1.1-3.7
		c0.4-1.2,0.7-2.5,1.1-3.7c0.1-0.3,0.5-0.7,0.8-0.7c0.3,0,0.7,0.4,0.8,0.7c0.6,1.9,1.1,3.9,1.7,5.9c0.1,0.4,0.2,0.8,0.6,1.2
		c0.3-1.1,0.7-2.2,1-3.4c0.4-1.2,0.7-2.5,1.1-3.7c0.2-0.8,0.2-0.8,1.3-0.6c-0.7,2.1-1.3,4.3-2,6.4c-0.2,0.7-0.5,1.4-0.7,2.1
		c-0.1,0.5-0.4,0.9-0.9,0.7c-0.3-0.1-0.6-0.5-0.7-0.8c-0.6-1.9-1.1-3.8-1.7-5.8c-0.1-0.3-0.2-0.7-0.3-1
		C114.4,56.9,114.3,56.9,114.2,56.9z"/>
	<path id="XMLID_236_" class="st0" d="M249.1,56.3c0-1.4,0-3,0-4.6c0.4,0,0.7,0,1.1,0c0,0.8,0,1.6,0,2.3c0,3.2,0,6.4,0,9.7
		c0,0.6-0.1,1-0.9,0.8c0-0.4-0.1-0.9-0.1-1.5c-1,1.3-2.2,2-3.7,1.8c-0.3,0-0.7-0.1-1-0.2c-2.1-0.7-3.2-3.3-2.6-6.2
		c0.5-2.4,2.2-3.8,4.5-3.4C247.2,55.2,248.1,55.8,249.1,56.3z M249.1,59.8c-0.1-0.6-0.2-1.2-0.3-1.8c-0.4-1.4-1.6-2.2-3-2.2
		c-1.3,0-2.3,0.7-2.8,2.2c-0.5,1.4-0.5,2.9,0.2,4.2c0.6,1.3,1.7,1.8,3.1,1.6C248.1,63.5,249,62.1,249.1,59.8z"/>
	<path id="XMLID_234_" class="st0" d="M81.1,51.7c0.3,0,0.7,0,1.1,0c0,2.6,0,5.2,0,7.7c0,0.6,0,1.3,0.2,1.8c0.4,1.8,1.7,2.6,3.9,2.5
		c1.9-0.1,3.2-1,3.3-2.8c0.2-1.9,0.1-3.8,0.2-5.7c0-1,0-1.9,0-2.9c0-0.2,0.3-0.5,0.5-0.7c0.2,0.2,0.6,0.4,0.6,0.6
		c0,2.9,0.1,5.7-0.1,8.6c-0.1,1.9-1.3,3.3-3.1,3.6c-1.2,0.2-2.5,0.2-3.6,0c-1.8-0.4-2.8-1.8-2.9-3.6C81,57.8,81.1,54.7,81.1,51.7z"
		/>
	<path id="XMLID_231_" class="st0" d="M180.7,51.7c0.8-0.3,1.1-0.2,1.1,0.6c0,3.8,0,7.6,0,11.4c0,0.6-0.2,0.9-0.9,0.6
		c0-0.4-0.1-0.9-0.1-1.5c-1,1.2-2.1,1.9-3.6,1.8c-0.4,0-0.7-0.1-1.1-0.2c-2.1-0.7-3.2-3.3-2.6-6.1c0.6-2.5,2.2-3.8,4.5-3.5
		c1.1,0.1,2,0.7,2.7,1.9C180.7,55,180.7,53.3,180.7,51.7z M180.9,59.8c-0.2-0.7-0.3-1.5-0.6-2.2c-0.5-1.2-1.5-1.8-2.8-1.8
		c-1.3,0-2.2,0.7-2.7,1.9c-0.6,1.5-0.6,3,0.1,4.5c0.6,1.2,1.7,1.8,3,1.6C179.8,63.5,180.8,62.1,180.9,59.8z"/>
	<path id="XMLID_229_" class="st0" d="M310.4,64.4c-0.4,0-0.7,0-1,0c0-4.2,0-8.4,0-12.8c0.3,0,0.6,0,1.1,0c0,1.6,0,3.1,0,5
		c1.1-1.5,2.3-1.9,3.8-1.7c1.3,0.2,2.3,0.9,2.3,2.2c0.1,2.4,0,4.8,0,7.3c-0.3,0-0.5,0-0.9,0c0-2.1,0-4.1,0-6.2
		c0-1.4-0.6-2.2-1.7-2.4c-1.2-0.3-2.5,0.2-3.1,1.3c-0.3,0.6-0.5,1.3-0.5,2c-0.1,1.4,0,2.8,0,4.3C310.4,63.7,310.4,64.1,310.4,64.4z"
		/>
	<path id="XMLID_226_" class="st0" d="M130.3,60.1c-2.6,0-4.9,0-7.2,0c-0.2,1.7,0.7,3.2,2,3.6c1.5,0.5,2.8-0.1,3.7-1.6
		c0.2-0.3,0.6-0.5,1-0.6c-0.1,1.8-1.1,2.9-2.7,3.2c-1.9,0.4-3.7-0.3-4.5-1.9c-1-2-1-4,0.1-6c0.8-1.4,2-2,3.6-1.9
		c1.5,0.1,2.6,0.8,3.2,2.2C129.9,58,130,59,130.3,60.1z M123.1,59.1c2,0,4,0,5.9,0c-0.2-2.1-1.3-3.3-3-3.3
		C124.5,55.8,123.3,57.2,123.1,59.1z"/>
	<path id="XMLID_224_" class="st0" d="M162,35.3c0,0.8,0,1.5,0,2.2c-0.2,0-0.4,0.1-0.5,0.1c-1.9,0.1-2.8,1-2.8,2.9
		c0,1.4,0,2.8,0,4.3c-0.8,0-1.6,0-2.4,0c0-3.1,0-6.1,0-9.2c0.7,0,1.4,0,2.2,0c0.1,0.4,0.1,0.8,0.2,1.3
		C159.5,35.7,160.5,34.9,162,35.3z"/>
	<path id="XMLID_221_" class="st0" d="M211.3,60.1c-2.6,0-4.8,0-7.1,0c-0.2,1.7,0.7,3.2,2.1,3.6c1.5,0.5,2.8-0.1,3.6-1.7
		c0.2-0.3,0.6-0.5,1-0.6c-0.2,1.9-1.2,3-2.9,3.2c-2,0.3-3.7-0.4-4.4-2c-0.9-1.9-0.9-3.9,0.1-5.8c0.8-1.5,2.1-2.1,3.7-2
		c1.6,0.1,2.7,0.9,3.2,2.4C211,58.2,211,59.1,211.3,60.1z M210,59.1c0-2-1.3-3.4-3.1-3.3c-1.6,0.1-2.9,1.7-2.7,3.3
		C206.1,59.1,208.1,59.1,210,59.1z"/>
	<path id="XMLID_218_" class="st0" d="M270.5,60.1c-2.5,0-4.8,0-7.1,0c-0.3,1.6,0.6,3.2,2,3.6c1.5,0.5,2.9-0.1,3.6-1.6
		c0.3-0.6,0.6-0.8,1.2-0.6c-0.2,1.6-1.1,2.7-2.7,3.1c-1.9,0.5-3.7-0.2-4.5-1.7c-1.1-2-1.1-4.1,0-6.1c0.8-1.4,2.1-2,3.7-1.8
		c1.5,0.1,2.6,0.9,3.1,2.3C270.2,58.1,270.3,59.1,270.5,60.1z M269.2,59.1c0-2-1.3-3.4-3.1-3.3c-1.6,0.1-2.9,1.7-2.7,3.3
		C265.4,59.1,267.3,59.1,269.2,59.1z"/>
	<path id="XMLID_216_" class="st0" d="M260,64.4c-0.4,0-0.6,0-1,0c0-1.2,0-2.3,0-3.4c0-1,0-1.9,0-2.9c-0.1-1.3-0.7-2-1.7-2.3
		c-1.2-0.3-2.5,0.2-3,1.3c-0.3,0.7-0.5,1.4-0.5,2.2c-0.1,1.7,0,3.4,0,5.1c-0.8,0.3-1,0.1-1-0.7c0-3.7,0-7.5,0-11.2
		c0-0.6,0.1-1,1-0.7c0,1.5,0,3.1,0,4.6c1.1-1,2.2-1.6,3.6-1.4c1.7,0.2,2.6,1,2.7,2.7C260.1,59.9,260,62.1,260,64.4z"/>
	<path id="XMLID_214_" class="st0" d="M239.3,64.4c-0.2,0-0.5,0-1,0c0-2.1,0-4.1,0-6.1c0-1-0.3-1.9-1.3-2.4c-1-0.4-2.4-0.2-3,0.7
		c-0.5,0.7-0.8,1.7-0.9,2.5c-0.1,1.7,0,3.4,0,5.2c-0.4,0-0.7,0-1,0.1c0-3.1,0-6.2,0-9.3c0.3,0,0.6,0,1,0c0,0.4,0.1,0.8,0.1,1.3
		c1-1.4,2.2-1.8,3.7-1.6c1.4,0.2,2.3,0.9,2.3,2.3C239.4,59.6,239.3,62,239.3,64.4z"/>
	<path id="XMLID_212_" class="st0" d="M161.2,64.4c-0.3,0-0.6,0-0.9,0c0-0.5-0.1-0.9-0.1-1.6c-1,1.3-2.1,2-3.6,1.8
		c-1.5-0.1-2.6-0.9-2.7-2.5c-0.1-2.3,0-4.6,0-7c0.3,0,0.6,0,1,0c0,1.9,0,3.7,0,5.5c0,2.1,0.6,3,2.2,3.1c1.6,0.1,2.8-1,3-2.8
		c0.1-1.5,0.1-3,0.1-4.5c0-0.4,0-0.8,0-1.3c0.4,0,0.7,0,1,0C161.2,58.3,161.2,61.4,161.2,64.4z"/>
	<path id="XMLID_210_" class="st0" d="M212.6,61.6c0.6-0.2,1-0.2,1.2,0.5c0.5,2.1,3.4,2.1,4.6,1.1c0.9-0.8,0.8-2.1-0.5-2.6
		c-0.9-0.4-2-0.5-2.9-0.8c-1.6-0.5-2.2-1.4-2-2.8c0.1-0.4,0.2-0.8,0.4-1c1.1-1.2,2.6-1.3,4.1-1c1.3,0.3,2.1,1.2,2.2,2.7
		c-0.6,0.2-0.9,0.2-1.2-0.6c-0.5-1.5-3.1-1.9-4.2-0.7c-0.6,0.8-0.4,1.8,0.6,2.2c1,0.4,2.1,0.6,3.1,0.9c1.4,0.4,2.1,1.4,1.9,2.8
		c-0.1,0.4-0.2,0.9-0.5,1.2c-1.2,1.3-2.8,1.4-4.4,1C213.4,64.2,212.8,63.1,212.6,61.6z"/>
	<path id="XMLID_181_" class="st0" d="M281.2,61.6c0.6-0.3,0.9-0.1,1.1,0.5c0.5,2.1,3.4,2.1,4.6,1.1c0.9-0.8,0.8-2-0.4-2.5
		c-0.8-0.3-1.7-0.5-2.5-0.7c-1.9-0.5-2.7-1.3-2.6-2.6c0.1-1.4,1.3-2.3,3.1-2.4c2.2-0.1,3.5,0.9,3.6,2.9c-0.1,0-0.3,0.1-0.4,0.1
		c-0.2,0-0.3,0-0.5,0c-0.6-1.8-2-2.5-3.6-1.8c-0.5,0.2-1,0.8-1.1,1.3c0,0.5,0.5,1.1,0.9,1.4c0.7,0.4,1.6,0.4,2.3,0.7
		c0.6,0.2,1.2,0.3,1.7,0.7c1.1,0.7,1.3,2.1,0.6,3.2c-0.7,1.2-2.7,1.8-4.4,1.4C282.2,64.3,281.4,63.3,281.2,61.6z"/>
	<path id="XMLID_179_" class="st0" d="M297.1,57.8c-0.3,0-0.5,0-0.8,0c0-0.1-0.1-0.1-0.1-0.2c-0.2-1.8-2.7-2.3-4.1-1.3
		c-0.9,0.6-0.8,1.9,0.2,2.4c0.8,0.4,1.6,0.5,2.4,0.7c0.6,0.2,1.2,0.3,1.7,0.6c1.1,0.7,1.4,2.1,0.7,3.2c-0.7,1.2-2.7,1.9-4.5,1.4
		c-1.5-0.4-2.3-1.3-2.5-3c0.6-0.2,0.9-0.2,1.1,0.5c0.5,2,3.4,2.1,4.6,1.1c0.9-0.8,0.8-2-0.3-2.4c-0.8-0.4-1.8-0.5-2.6-0.8
		c-1.9-0.5-2.6-1.3-2.5-2.6c0.1-1.4,1.3-2.3,3.1-2.4C295.8,54.8,297.1,55.8,297.1,57.8z"/>
	<path id="XMLID_177_" class="st0" d="M166,44.7c-0.8,0-1.6,0-2.4,0c0-3.1,0-6.1,0-9.2c0.8,0,1.5,0,2.4,0
		C166,38.5,166,41.6,166,44.7z"/>
	<path id="XMLID_175_" class="st0" d="M229.4,55.3c0,3.1,0,6.1,0,9.2c-0.3,0-0.6,0-0.9,0c0-0.5-0.1-0.9-0.1-1.5
		c-1,1.3-2.2,2-3.7,1.8c-1.4-0.2-2.5-1-2.5-2.4c-0.1-2.3,0-4.7,0-7.1c0.3,0,0.6,0,1,0c0,1.9,0,3.8,0,5.6c0,2,0.6,2.8,2.1,3
		c1.5,0.2,2.8-0.8,3-2.6c0.2-1.7,0.2-3.5,0.2-5.3C228.4,55.3,228.7,55,229.4,55.3z"/>
	<path id="XMLID_173_" class="st0" d="M163.8,64.4c0-3.1,0-6.1,0-9.2c0.3,0,0.6,0,0.9,0c0,0.4,0.1,0.7,0.2,1.3
		c0.3-0.3,0.5-0.4,0.7-0.6c1.2-1.1,2.5-1.1,3.9-0.7c1.3,0.4,1.6,1.6,1.7,2.8c0,1.9,0,3.8,0,5.7c0,0.7-0.3,0.9-1.1,0.7
		c0-1,0-2.1,0-3.2c0-0.9,0-1.9,0-2.8c0-1.4-0.6-2.2-1.7-2.5c-1.2-0.3-2.6,0.3-3.1,1.4c-0.3,0.7-0.4,1.5-0.5,2.2
		c-0.1,1.4,0,2.8,0,4.1C164.8,64.3,164.7,64.7,163.8,64.4z"/>
	<path id="XMLID_171_" class="st0" d="M341.7,55.2c-0.3,0.6-0.4,1-0.7,1.4c-1.8,2.3-3.6,4.5-5.6,7c0.9,0,1.5,0,2.2,0
		c1.2,0,2.3,0,3.5,0c0.3,0,0.5,0.3,0.8,0.5c-0.1,0.1-0.1,0.2-0.2,0.3c-2.5,0-5,0-7.8,0c0.2-0.5,0.4-1,0.6-1.4c1.5-2,3.1-3.9,4.6-5.8
		c0.3-0.3,0.5-0.6,0.9-1.2c-1.5,0-2.8,0-4.1,0c-0.3,0-0.7,0.1-1,0c-0.2,0-0.4-0.3-0.5-0.4c0.2-0.1,0.3-0.4,0.5-0.4
		C337.1,55.2,339.3,55.2,341.7,55.2z"/>
	<path id="XMLID_169_" class="st0" d="M325.8,64.4c0-0.5-0.1-0.9-0.1-1.5c-1,1.3-2,1.9-3.5,1.8c-1.6-0.1-2.6-0.8-2.8-2.4
		c-0.2-2.3,0-4.7,0-7.1c0.6-0.2,0.9-0.1,0.9,0.7c0,1.7,0,3.3,0,5c0,1.9,0.6,2.7,2,2.9c1.6,0.2,2.7-0.6,3.1-2.3
		c0.2-1,0.2-2.1,0.2-3.2c0-1,0-2,0-3.1c0.3,0,0.6,0,0.9-0.1c0.1,0.2,0.1,0.3,0.1,0.4c0,2.7,0,5.5,0,8.2
		C326.7,64.4,326.5,64.6,325.8,64.4z"/>
	<path id="XMLID_167_" class="st0" d="M307.1,58c-0.5,0.2-0.9,0.2-1.2-0.5c-0.9-2-3.3-2.3-4.7-0.6c-1.3,1.5-1.3,4.4,0,6
		c0.7,0.8,1.7,1.2,2.8,1c1.4-0.3,2-1.2,2.3-2.5c0.3,0,0.6,0,0.9,0c-0.1,1.7-1.1,2.9-2.6,3.4c-1.8,0.5-3.7-0.3-4.6-1.9
		c-1.1-2-1.1-4,0.1-5.9c0.9-1.6,2.8-2.2,4.7-1.8C306.1,55.4,306.9,56.4,307.1,58z"/>
	<path id="XMLID_165_" class="st0" d="M276.7,56.4c-0.7-0.3-1.1-0.6-1.6-0.8c0.5-0.2,1-0.4,1.6-0.7c0-0.7,0-1.6,0-2.4
		c0.8-0.3,1.1-0.2,1.1,0.6c0,0.6,0,1.3,0,2c0.6,0,1,0,1.4,0c0.2,0,0.4,0.3,0.5,0.4c-0.2,0.1-0.3,0.4-0.5,0.4
		c-1.4,0.3-1.4,0.3-1.4,1.8c0,1.5,0,3,0,4.5c0,0.9,0.3,1.5,1.3,1.4c0.2,0,0.4,0.3,0.6,0.4c-0.2,0.1-0.4,0.4-0.6,0.4
		c-1.7,0.2-2.4-0.4-2.4-2.1C276.7,60.4,276.7,58.3,276.7,56.4z"/>
	<path id="XMLID_163_" class="st0" d="M329.9,56.3c-0.6-0.3-1.1-0.5-1.6-0.7c0.5-0.2,0.9-0.5,1.5-0.7c0-0.6,0-1.5,0-2.4
		c0.7-0.3,1.1-0.3,1.1,0.6c0,0.6,0,1.3,0,2.1c0.5,0,0.9,0,1.3,0c0.2,0,0.4,0.2,0.6,0.4c-0.2,0.2-0.4,0.5-0.5,0.4
		c-1.4-0.2-1.5,0.6-1.4,1.6c0.1,1.6,0,3.1,0,4.7c0,0.9,0.3,1.4,1.3,1.4c0.2,0,0.4,0.3,0.7,0.4c-0.2,0.2-0.4,0.4-0.7,0.4
		c-1.7,0.2-2.3-0.4-2.3-2.2C329.9,60.3,329.9,58.3,329.9,56.3z"/>
	<path id="XMLID_161_" class="st0" d="M136.5,56.4c-0.5-0.6-1.7,0.2-1.6-1.1c0.5,0,1-0.1,1.6-0.1c0-0.9,0-1.8,0-2.7
		c0.4,0,0.6,0,1-0.1c0,0.9,0,1.8,0,2.8c0.6,0,1,0,1.4,0c0.2,0,0.3,0.3,0.4,0.4c-0.1,0.1-0.3,0.4-0.4,0.4c-1.6-0.3-1.5,0.8-1.4,1.8
		c0,1.5,0,3,0,4.5c0,0.8,0.2,1.4,1.2,1.4c0.2,0,0.4,0.3,0.7,0.4c-0.2,0.2-0.4,0.4-0.6,0.4c-1.6,0.2-2.2-0.4-2.2-2.1
		C136.5,60.4,136.5,58.3,136.5,56.4z"/>
	<path id="XMLID_159_" class="st0" d="M133.1,64.4c-0.7,0.2-1,0-1-0.7c0-3.8,0-7.5,0-11.3c0-0.7,0.3-0.9,1-0.7
		C133.1,55.9,133.1,60.1,133.1,64.4z"/>
	<path id="XMLID_157_" class="st0" d="M273.3,55.2c0,3.2,0,6.2,0,9.3c-0.3,0-0.6,0.1-0.9,0.1c0-3.1,0-6.1,0-9.3
		C272.7,55.2,272.9,55.2,273.3,55.2z"/>
	<path id="XMLID_155_" class="st0" d="M163.6,31.9c0.8,0,1.6,0,2.4,0c0,0.7,0,1.3,0,2c-0.8,0-1.6,0-2.4,0
		C163.6,33.2,163.6,32.6,163.6,31.9z"/>
	<path id="XMLID_153_" class="st0" d="M146.5,31.9c0.8,0,1.5,0,2.3,0c0,0.7,0,1.3,0,2c-0.7,0-1.5,0-2.3,0
		C146.5,33.2,146.5,32.6,146.5,31.9z"/>
	<path id="XMLID_151_" class="st0" d="M150.2,33.9c-0.3-2.1-0.1-2.3,2.2-1.9c0,0.6,0,1.2,0,1.9C151.7,33.9,151,33.9,150.2,33.9z"/>
	<path id="XMLID_149_" class="st0" d="M143.6,60c-0.5,0-1.1,0-1.6,0c-0.2,0-0.4-0.3-0.6-0.4c0.2-0.2,0.3-0.5,0.5-0.5
		c1.2,0,2.3,0,3.5,0c0.2,0,0.3,0.3,0.5,0.5c-0.2,0.1-0.3,0.4-0.5,0.4C144.8,60,144.2,60,143.6,60z"/>
	<path id="XMLID_147_" class="st0" d="M272.4,53.3c-0.2-1.7-0.2-1.7,0.9-1.6c0,0.5,0,0.9,0,1.5C273.1,53.2,272.8,53.3,272.4,53.3z"
		/>
</g>
</svg>
