<?xml version="1.0" encoding="UTF-8" standalone="no"?>
<svg
   xmlns:dc="http://purl.org/dc/elements/1.1/"
   xmlns:cc="http://creativecommons.org/ns#"
   xmlns:rdf="http://www.w3.org/1999/02/22-rdf-syntax-ns#"
   xmlns:svg="http://www.w3.org/2000/svg"
   xmlns="http://www.w3.org/2000/svg"
   viewBox="0 0 1600 451.32001"
   height="451.32001"
   width="1600"
   xml:space="preserve"
   id="svg2"
   version="1.1"><metadata
     id="metadata8"><rdf:RDF><cc:Work
         rdf:about=""><dc:format>image/svg+xml</dc:format><dc:type
           rdf:resource="http://purl.org/dc/dcmitype/StillImage" /></cc:Work></rdf:RDF></metadata><defs
     id="defs6" /><g
     transform="matrix(1.3333333,0,0,-1.3333333,0,451.32)"
     id="g10"><g
       transform="scale(0.1)"
       id="g12"><path
         id="path14"
         style="fill:#050606;fill-opacity:1;fill-rule:nonzero;stroke:none"
         d="m 7915.92,2706.31 v -301.16 h 335.53 v -176.96 h -335.53 v -673.33 c 0,-47.49 12.24,-85.02 36.77,-112.6 24.49,-27.57 62.06,-41.36 112.61,-41.36 45.97,0 84.23,5.74 114.9,17.22 30.64,11.49 57.46,24.14 80.43,37.93 v -153.99 c -30.67,-24.51 -63.21,-44.04 -97.66,-58.59 -34.46,-14.55 -80.82,-21.84 -139.03,-21.84 -98.08,0 -172.01,29.53 -221.78,88.48 -49.8,58.96 -74.67,137.49 -74.67,235.56 v 682.52 h -220.62 v 55.16 c 75.03,33.67 137.89,89.24 188.44,166.61 47.54,72.74 89.66,161.4 126.37,266.01 4.18,11.92 15.37,20.1 28.01,20.1 h 36.46 c 16.44,0 29.77,-13.32 29.77,-29.76" /><path
         id="path16"
         style="fill:#050606;fill-opacity:1;fill-rule:nonzero;stroke:none"
         d="M 9327.06,2851.2 V 1256.12 H 9138.61 V 2851.2 c 0,32.88 26.65,59.53 59.53,59.53 h 69.39 c 32.88,0 59.53,-26.65 59.53,-59.53" /><path
         id="path18"
         style="fill:#050606;fill-opacity:1;fill-rule:nonzero;stroke:none"
         d="M 8826.17,2345.6 V 1256.11 h -188.44 v 972.07 h -181.54 v 176.96 h 310.45 c 32.88,0 59.53,-26.66 59.53,-59.54" /><path
         id="path20"
         style="fill:#5ec7a3;fill-opacity:1;fill-rule:nonzero;stroke:none"
         d="m 8820.43,2909.57 c -29.87,31.38 -67.04,47.11 -111.46,47.11 -44.45,0 -81.58,-15.73 -111.45,-47.11 -29.87,-31.41 -44.81,-67.79 -44.81,-109.17 0,-39.84 14.94,-75.83 44.81,-108 29.87,-32.17 67,-48.26 111.45,-48.26 44.42,0 81.59,16.09 111.46,48.26 29.88,32.17 44.81,68.16 44.81,108 0,41.38 -14.93,77.76 -44.81,109.17" /><path
         id="path22"
         style="fill:#050606;fill-opacity:1;fill-rule:nonzero;stroke:none"
         d="m 10132.7,2239.68 c -82.8,0 -153.26,-20.32 -211.45,-60.88 -58.24,-40.63 -103.06,-93.08 -134.45,-157.43 -31.4,-64.34 -47.09,-134.07 -47.09,-209.12 0,-73.55 15.28,-141.33 45.95,-203.37 30.64,-62.07 73.91,-111.46 129.85,-148.25 55.89,-36.76 120.69,-55.16 194.19,-55.16 70.4,0 133.3,18.4 188.4,55.16 55.2,36.79 98.9,87.7 131,152.83 32.2,65.1 47.5,138.24 46,219.46 l -1.4,129 c -0.7,66.38 -28.7,130.07 -78.3,174.11 -24.4,21.6 -49.5,40.06 -75.4,55.39 -54.4,32.19 -116.9,48.26 -187.3,48.26 z m 530.8,611.52 V 1256.12 h -188.4 v 195.33 c -39.9,-61.31 -93.9,-114.9 -162,-160.87 -68.2,-45.95 -146,-68.95 -233.3,-68.95 -98.05,0 -187.67,24.92 -268.86,74.69 -81.22,49.77 -145.92,119.12 -194.19,207.99 -48.25,88.83 -72.39,191.48 -72.39,307.94 0,127.14 24.14,236.7 72.39,328.62 48.27,91.93 114.51,162.77 198.79,212.57 84.24,49.76 178.45,74.69 282.66,74.69 65.9,0 132.9,-15.72 201.1,-47.12 68.1,-31.42 126.7,-74.69 175.8,-129.82 v 600.01 c 0,32.88 26.6,59.53 59.5,59.53 h 69.4 c 32.9,0 59.5,-26.65 59.5,-59.53" /><path
         id="path24"
         style="fill:#050606;fill-opacity:1;fill-rule:nonzero;stroke:none"
         d="m 11469.1,2244.27 c -82.7,0 -153.2,-20.68 -211.4,-62.04 -58.2,-41.37 -103,-94.62 -134.4,-159.72 -31.4,-65.13 -47.1,-135.23 -47.1,-210.27 0,-73.55 15.3,-141.33 45.9,-203.39 30.7,-62.03 73.9,-111.45 129.9,-148.21 55.9,-36.76 120.6,-55.16 194.2,-55.16 70.4,0 133.3,18.4 188.4,55.16 55.2,36.76 98.8,87.67 131,152.83 32.2,65.09 47.5,138.23 46,219.45 l -1.4,129.62 c -0.7,65.7 -28.3,128.61 -76.9,172.79 -24.8,22.54 -50.4,42.01 -76.9,58.4 -54.4,33.68 -116.8,50.54 -187.3,50.54 z m -34.4,183.86 c 65.8,0 132.9,-15.74 201.1,-47.12 68.1,-31.41 126.7,-74.69 175.8,-129.84 v 94.43 c 0,32.88 26.6,59.54 59.5,59.54 h 69.4 c 32.8,0 59.5,-26.66 59.5,-59.54 V 1256.11 h -188.4 v 195.32 c -39.9,-61.28 -93.9,-114.9 -162.1,-160.85 -68.2,-45.97 -145.9,-68.95 -233.2,-68.95 -98.1,0 -187.7,24.92 -268.9,74.69 -81.2,49.76 -145.9,119.1 -194.2,207.98 -48.2,88.83 -72.4,191.49 -72.4,307.94 0,127.15 24.2,236.7 72.4,328.62 48.3,91.92 114.5,162.77 198.8,212.58 84.3,49.76 178.5,74.69 282.7,74.69" /><path
         id="path26"
         style="fill:#050606;fill-opacity:1;fill-rule:nonzero;stroke:none"
         d="m 6017.01,1264.24 v 1572.6 c 0,54.32 -35.76,86.74 -69.22,98.95 -33.49,12.23 -81.71,10.46 -116.71,-31.09 l -576,-683.8 -575.95,683.79 c -34.98,41.54 -83.2,43.31 -116.69,31.1 -33.47,-12.23 -69.22,-44.65 -69.22,-98.97 V 1264.24 h 186.17 v 1351.1 l 495.25,-587.97 c 20.04,-23.78 49.36,-37.42 80.46,-37.42 31.09,0 60.41,13.64 80.43,37.4 l 495.3,588.01 V 1264.24 h 186.18" /><path
         id="path28"
         style="fill:#050606;fill-opacity:1;fill-rule:nonzero;stroke:none"
         d="m 6822.63,2244.27 c -82.74,0 -153.24,-20.68 -211.43,-62.04 -58.24,-41.37 -103.06,-94.62 -134.43,-159.72 -31.43,-65.13 -47.11,-135.23 -47.11,-210.27 0,-73.55 15.28,-141.33 45.96,-203.39 30.62,-62.03 73.89,-111.45 129.84,-148.21 55.9,-36.76 120.64,-55.16 194.18,-55.16 70.46,0 133.29,18.4 188.44,55.16 55.15,36.76 98.82,87.67 130.99,152.83 32.18,65.09 47.47,138.23 45.96,219.45 l -1.35,129.62 c -0.66,63.52 -25.66,125.28 -72.22,168.49 -26.26,24.37 -53.45,45.27 -81.55,62.7 -54.39,33.68 -116.83,50.54 -187.28,50.54 z m -34.48,183.86 c 65.85,0 132.89,-15.74 201.09,-47.12 68.13,-31.41 126.74,-74.69 175.79,-129.84 v 94.43 c 0,32.88 26.66,59.54 59.53,59.54 h 69.39 c 32.88,0 59.53,-26.66 59.53,-59.54 V 1256.11 h -188.45 v 195.32 c -39.85,-61.28 -93.86,-114.9 -162.01,-160.85 -68.19,-45.97 -145.93,-68.95 -233.25,-68.95 -98.06,0 -187.7,24.92 -268.88,74.69 -81.21,49.76 -145.93,119.1 -194.18,207.98 -48.26,88.83 -72.4,191.49 -72.4,307.94 0,127.15 24.14,236.7 72.4,328.62 48.25,91.92 114.5,162.77 198.78,212.58 84.24,49.76 178.47,74.69 282.66,74.69" /><path
         id="path30"
         style="fill:#050606;fill-opacity:1;fill-rule:nonzero;stroke:none"
         d="m 7915.92,2706.31 v -301.16 h 335.53 v -176.96 h -335.53 v -673.33 c 0,-47.49 12.24,-85.02 36.77,-112.6 24.49,-27.57 62.06,-41.36 112.61,-41.36 45.97,0 84.23,5.74 114.9,17.22 30.64,11.49 57.46,24.14 80.43,37.93 v -153.99 c -30.67,-24.51 -63.21,-44.04 -97.66,-58.59 -34.46,-14.55 -80.82,-21.84 -139.03,-21.84 -98.08,0 -172.01,29.53 -221.78,88.48 -49.8,58.96 -74.67,137.49 -74.67,235.56 v 682.52 h -220.62 v 55.16 c 75.03,33.67 137.89,89.24 188.44,166.61 47.54,72.74 89.66,161.4 126.37,266.01 4.18,11.92 15.37,20.1 28.01,20.1 h 36.46 c 16.44,0 29.77,-13.32 29.77,-29.76" /><path
         id="path32"
         style="fill:#050606;fill-opacity:1;fill-rule:nonzero;stroke:none"
         d="M 9327.06,2851.2 V 1256.12 H 9138.61 V 2851.2 c 0,32.88 26.65,59.53 59.53,59.53 h 69.39 c 32.88,0 59.53,-26.65 59.53,-59.53" /><path
         id="path34"
         style="fill:#050606;fill-opacity:1;fill-rule:nonzero;stroke:none"
         d="M 8826.17,2345.6 V 1256.11 h -188.44 v 972.07 h -181.54 v 176.96 h 310.45 c 32.88,0 59.53,-26.66 59.53,-59.54" /><path
         id="path36"
         style="fill:#58c6aa;fill-opacity:1;fill-rule:nonzero;stroke:none"
         d="m 8820.43,2909.57 c -29.87,31.38 -67.04,47.11 -111.46,47.11 -44.45,0 -81.58,-15.73 -111.45,-47.11 -29.87,-31.41 -44.81,-67.79 -44.81,-109.17 0,-39.84 14.94,-75.83 44.81,-108 29.87,-32.17 67,-48.26 111.45,-48.26 44.42,0 81.59,16.09 111.46,48.26 29.88,32.17 44.81,68.16 44.81,108 0,41.38 -14.93,77.76 -44.81,109.17" /><path
         id="path38"
         style="fill:#050606;fill-opacity:1;fill-rule:nonzero;stroke:none"
         d="m 10132.7,2239.68 c -82.8,0 -153.26,-20.32 -211.45,-60.88 -58.24,-40.63 -103.06,-93.08 -134.45,-157.43 -31.4,-64.34 -47.09,-134.07 -47.09,-209.12 0,-73.55 15.28,-141.33 45.95,-203.37 30.64,-62.07 73.91,-111.46 129.85,-148.25 55.89,-36.76 120.69,-55.16 194.19,-55.16 70.4,0 133.3,18.4 188.4,55.16 55.2,36.79 98.9,87.7 131,152.83 32.2,65.1 47.5,138.24 46,219.46 l -1.4,129 c -0.7,66.38 -28.7,130.07 -78.3,174.11 -24.4,21.6 -49.5,40.06 -75.4,55.39 -54.4,32.19 -116.9,48.26 -187.3,48.26 z m 530.8,611.52 V 1256.12 h -188.4 v 195.33 c -39.9,-61.31 -93.9,-114.9 -162,-160.87 -68.2,-45.95 -146,-68.95 -233.3,-68.95 -98.05,0 -187.67,24.92 -268.86,74.69 -81.22,49.77 -145.92,119.12 -194.19,207.99 -48.25,88.83 -72.39,191.48 -72.39,307.94 0,127.14 24.14,236.7 72.39,328.62 48.27,91.93 114.51,162.77 198.79,212.57 84.24,49.76 178.45,74.69 282.66,74.69 65.9,0 132.9,-15.72 201.1,-47.12 68.1,-31.42 126.7,-74.69 175.8,-129.82 v 600.01 c 0,32.88 26.6,59.53 59.5,59.53 h 69.4 c 32.9,0 59.5,-26.65 59.5,-59.53" /><path
         id="path40"
         style="fill:#050606;fill-opacity:1;fill-rule:nonzero;stroke:none"
         d="m 11469.1,2244.27 c -82.7,0 -153.2,-20.68 -211.4,-62.04 -58.2,-41.37 -103,-94.62 -134.4,-159.72 -31.4,-65.13 -47.1,-135.23 -47.1,-210.27 0,-73.55 15.3,-141.33 45.9,-203.39 30.7,-62.03 73.9,-111.45 129.9,-148.21 55.9,-36.76 120.6,-55.16 194.2,-55.16 70.4,0 133.3,18.4 188.4,55.16 55.1,36.76 98.8,87.67 131,152.83 32.2,65.09 47.5,138.23 46,219.45 l -1.4,129.62 c -0.7,65.7 -28.3,128.61 -76.9,172.79 -24.8,22.54 -50.4,42.01 -76.9,58.4 -54.4,33.68 -116.8,50.54 -187.3,50.54 z m -34.4,183.86 c 65.8,0 132.9,-15.74 201.1,-47.12 68.1,-31.41 126.7,-74.69 175.8,-129.84 v 94.43 c 0,32.88 26.6,59.54 59.5,59.54 h 69.4 c 32.8,0 59.5,-26.66 59.5,-59.54 V 1256.11 h -188.4 v 195.32 c -39.9,-61.28 -93.9,-114.9 -162.1,-160.85 -68.2,-45.97 -145.9,-68.95 -233.2,-68.95 -98.1,0 -187.7,24.92 -268.9,74.69 -81.2,49.76 -145.9,119.1 -194.2,207.98 -48.2,88.83 -72.4,191.49 -72.4,307.94 0,127.15 24.2,236.7 72.4,328.62 48.3,91.92 114.5,162.77 198.8,212.58 84.3,49.76 178.5,74.69 282.7,74.69" /><path
         id="path42"
         style="fill:#050606;fill-opacity:1;fill-rule:nonzero;stroke:none"
         d="M 4487.95,10.2109 V 725.102 H 4999.6 V 655.641 H 4566.58 V 400.332 H 4850.5 V 331.898 H 4566.58 V 10.2109 h -78.63" /><path
         id="path44"
         style="fill:#050606;fill-opacity:1;fill-rule:nonzero;stroke:none"
         d="m 5207.92,67.3906 c 25.86,0 50.21,5.1094 73.02,15.3399 22.81,10.2109 42.54,24.3205 59.23,42.3785 16.67,18.02 29.78,39.129 39.32,63.321 9.54,24.14 14.3,50.191 14.3,78.129 0,27.89 -4.76,53.941 -14.3,78.101 -9.54,24.172 -22.65,45.11 -39.32,62.82 -16.69,17.7 -36.42,31.661 -59.23,41.872 -22.81,10.207 -47.16,15.308 -73.02,15.308 -25.87,0 -50.21,-5.101 -73,-15.308 -22.84,-10.211 -42.56,-24.172 -59.26,-41.872 -16.69,-17.71 -29.96,-38.648 -39.82,-62.82 -9.86,-24.16 -14.8,-50.211 -14.8,-78.101 0,-27.938 4.75,-53.989 14.3,-78.129 9.51,-24.192 22.62,-45.301 39.31,-63.321 16.67,-18.058 36.59,-32.1676 59.74,-42.3785 23.15,-10.2305 47.66,-15.3399 73.53,-15.3399 z M 4946.49,266.559 c 0,36.761 6.79,71.48 20.42,104.152 13.61,32.68 32.17,60.93 55.66,84.777 23.48,23.821 51.21,42.543 83.24,56.141 31.98,13.621 66.01,20.441 102.11,20.441 36.07,0 69.97,-6.82 101.63,-20.441 31.66,-13.598 59.22,-32.32 82.7,-56.141 23.5,-23.847 42.03,-52.097 55.67,-84.777 13.61,-32.672 20.41,-67.391 20.41,-104.152 0,-37.457 -6.8,-72.52 -20.41,-105.188 -13.64,-32.699 -32.17,-60.961 -55.67,-84.7812 C 5368.77,52.75 5341.21,34.0313 5309.55,20.4219 5277.89,6.80859 5243.99,0 5207.92,0 c -36.1,0 -70.13,6.80859 -102.11,20.4219 -32.03,13.6094 -59.76,32.3281 -83.24,56.1679 -23.49,23.8202 -42.05,52.0822 -55.66,84.7812 -13.63,32.668 -20.42,67.731 -20.42,105.188" /><path
         id="path46"
         style="fill:#050606;fill-opacity:1;fill-rule:nonzero;stroke:none"
         d="m 5812.49,67.3906 c 25.87,0 50.22,5.1094 73.03,15.3399 22.81,10.2109 42.53,24.3205 59.23,42.3785 16.67,18.02 29.77,39.129 39.31,63.321 9.54,24.14 14.3,50.191 14.3,78.129 0,27.89 -4.76,53.941 -14.3,78.101 -9.54,24.172 -22.64,45.11 -39.31,62.82 -16.7,17.7 -36.42,31.661 -59.23,41.872 -22.81,10.207 -47.16,15.308 -73.03,15.308 -25.87,0 -50.21,-5.101 -73,-15.308 -22.83,-10.211 -42.56,-24.172 -59.26,-41.872 -16.69,-17.71 -29.95,-38.648 -39.82,-62.82 -9.86,-24.16 -14.8,-50.211 -14.8,-78.101 0,-27.938 4.76,-53.989 14.3,-78.129 9.51,-24.192 22.62,-45.301 39.31,-63.321 16.67,-18.058 36.59,-32.1676 59.74,-42.3785 23.15,-10.2305 47.66,-15.3399 73.53,-15.3399 z M 5551.06,266.559 c 0,36.761 6.79,71.48 20.42,104.152 13.61,32.68 32.17,60.93 55.66,84.777 23.48,23.821 51.21,42.543 83.24,56.141 31.98,13.621 66.01,20.441 102.11,20.441 36.07,0 69.97,-6.82 101.63,-20.441 31.66,-13.598 59.23,-32.32 82.7,-56.141 23.5,-23.847 42.04,-52.097 55.67,-84.777 13.61,-32.672 20.42,-67.391 20.42,-104.152 0,-37.457 -6.81,-72.52 -20.42,-105.188 -13.63,-32.699 -32.17,-60.961 -55.67,-84.7812 C 5973.35,52.75 5945.78,34.0313 5914.12,20.4219 5882.46,6.80859 5848.56,0 5812.49,0 c -36.1,0 -70.13,6.80859 -102.11,20.4219 -32.03,13.6094 -59.76,32.3281 -83.24,56.1679 -23.49,23.8202 -42.05,52.0822 -55.66,84.7812 -13.63,32.668 -20.42,67.731 -20.42,105.188" /><path
         id="path48"
         style="fill:#050606;fill-opacity:1;fill-rule:nonzero;stroke:none"
         d="m 6230.18,267.57 c 0,-27.941 4.94,-54.129 14.8,-78.64 9.86,-24.508 23.32,-45.621 40.35,-63.321 16.99,-17.711 37.09,-31.6598 60.25,-41.8707 23.13,-10.207 48,-15.3086 74.57,-15.3086 31.98,0 61.77,6.2812 89.34,18.8711 27.57,12.6094 50.2,30.1482 67.92,52.6092 v 253.27 c -17.72,21.789 -40.51,38.968 -68.43,51.57 -27.93,12.602 -57.54,18.898 -88.83,18.898 -53.12,0 -98.05,-18.738 -134.82,-56.168 -36.76,-37.46 -55.15,-84.089 -55.15,-139.91 z M 6578.43,10.2109 V 64.3281 C 6556.63,43.9219 6531.61,28.4219 6503.35,17.8594 6475.1,7.30859 6444.97,2.05078 6412.99,2.05078 c -36.1,0 -69.81,6.80078 -101.12,20.41012 -31.31,13.6211 -58.56,32.168 -81.69,55.668 -23.16,23.4801 -41.37,51.5701 -54.63,84.2501 -13.29,32.672 -19.92,67.41 -19.92,104.18 0,36.761 6.63,71.3 19.92,103.652 13.26,32.32 31.47,60.238 54.63,83.738 23.13,23.492 50.56,42.031 82.22,55.66 31.66,13.621 65.5,20.422 101.6,20.422 29.27,0 58.04,-4.941 86.29,-14.812 28.26,-9.879 53.97,-24.348 77.12,-43.41 v 253.293 l 75.56,17.359 V 10.2109 h -74.54" /><path
         id="path50"
         style="fill:#050606;fill-opacity:1;fill-rule:nonzero;stroke:none"
         d="m 6734.69,654.629 v 70.473 h 595.39 V 654.629 H 7071.71 V 10.2109 h -78.65 V 654.629 h -258.37" /><path
         id="path52"
         style="fill:#050606;fill-opacity:1;fill-rule:nonzero;stroke:none"
         d="m 7519.01,463.648 c -44.25,0 -82.56,-14.988 -114.89,-44.929 -32.35,-29.981 -51.92,-68.418 -58.73,-115.399 h 342.11 c -6.81,44.93 -26.03,82.871 -57.69,113.86 -31.66,30.968 -68.61,46.468 -110.8,46.468 z M 7723.25,64.3281 c -28.59,-21.0976 -58.37,-36.9375 -89.34,-47.4765 -31,-10.55082 -64.87,-15.83988 -101.63,-15.83988 -36.76,0 -71.32,6.82812 -103.66,20.43748 -32.34,13.6211 -60.26,32.3321 -83.73,56.1524 -23.5,23.8394 -42.06,51.9184 -55.67,84.2694 -13.63,32.328 -20.41,67.231 -20.41,104.688 0,36.761 6.62,71.113 19.91,103.14 13.26,31.981 31.13,59.903 53.61,83.742 22.46,23.821 49.18,42.539 80.16,56.168 30.97,13.621 63.83,20.422 98.56,20.422 34.04,0 65.86,-6.801 95.47,-20.422 29.64,-13.629 55.16,-32.347 76.61,-56.168 21.44,-23.839 38.45,-51.761 51.07,-83.742 12.58,-32.027 18.88,-66.379 18.88,-103.14 v -23.5 h -419.73 c 5.45,-50.411 26.21,-92.27 62.28,-125.61 36.11,-33.3592 79.33,-50.0584 129.71,-50.0584 26.55,0 52.42,4.0977 77.62,12.2578 25.17,8.1914 46.29,19.75 63.32,34.7226 l 46.97,-50.0429" /><path
         id="path54"
         style="fill:#050606;fill-opacity:1;fill-rule:nonzero;stroke:none"
         d="m 8107.24,69.4414 c 27.22,0 53.43,5.4492 78.63,16.3399 25.17,10.8789 48.65,26.8787 70.48,47.9887 l 46.97,-51.0395 C 8276.07,56.8398 8245.42,36.7695 8211.4,22.4609 8177.34,8.16016 8141.95,1.01172 8105.19,1.01172 c -36.1,0 -70.13,6.82812 -102.13,20.43748 -32.02,13.6211 -59.58,32.3321 -82.73,56.1524 -23.15,23.8394 -41.53,52.0974 -55.13,84.7774 -13.65,32.672 -20.42,67.41 -20.42,104.18 0,36.761 6.77,71.3 20.42,103.652 13.6,32.32 31.98,60.398 55.13,84.238 23.15,23.821 50.71,42.723 82.73,56.68 32,13.961 66.03,20.941 102.13,20.941 36.76,0 72.65,-7.14 107.74,-21.449 35.07,-14.301 65.88,-34.051 92.41,-59.223 l -47.99,-55.168 c -20.42,21.11 -43.91,37.461 -70.47,49.032 -26.56,11.578 -53.45,17.379 -80.68,17.379 -25.87,0 -50.38,-5.129 -73.53,-15.34 -23.16,-10.211 -43.06,-24.16 -59.73,-41.871 -16.7,-17.7 -29.81,-38.461 -39.33,-62.289 -9.54,-23.84 -14.29,-49.36 -14.29,-76.582 0,-27.938 4.94,-53.989 14.8,-78.129 9.86,-24.192 23.14,-44.95 39.83,-62.309 16.68,-17.359 36.6,-31.1405 59.75,-41.371 23.14,-10.2109 47.65,-15.3086 73.54,-15.3086" /><path
         id="path56"
         style="fill:#050606;fill-opacity:1;fill-rule:nonzero;stroke:none"
         d="M 8392.14,10.2109 V 725.102 l 75.57,17.359 V 461.609 c 19.76,23.121 43.23,40.672 70.48,52.602 27.22,11.891 57.52,17.859 90.89,17.859 57.85,0 105.19,-18.39 141.96,-55.148 36.76,-36.774 55.13,-84.434 55.13,-142.973 V 10.2109 h -74.54 V 318.641 c 0,44.918 -12.95,80.668 -38.81,107.23 -25.89,26.539 -60.61,39.828 -104.16,39.828 -30.65,0 -58.05,-6.828 -82.22,-20.437 -24.16,-13.621 -43.75,-33.024 -58.73,-58.203 V 10.2109 h -75.57" /><path
         id="path58"
         style="fill:#58c6aa;fill-opacity:1;fill-rule:nonzero;stroke:none"
         d="m 2991.74,3384.94 c -527.68,0 -1184.07,-717.67 -1536.7,-1103.22 -44.9,-49.09 -84.07,-91.94 -116.37,-125.95 -36.87,-38.8 -75.68,-80.91 -116.09,-124.79 C 971.695,1758.55 659.449,1419.5 388.137,1419.5 c -88.797,0 -153.645,87.79 -192.75,260.93 -36.649,162.17 -36.633,348.13 -36.633,418.15 v 5.04 c 0,70.02 -0.016,255.98 36.633,418.16 39.105,173.13 103.953,260.92 192.75,260.92 143.687,0 405.32,-178.72 711.783,-482.88 l 107.92,116.89 c -261.988,259.83 -586.332,524.74 -819.703,524.74 -118.934,0 -275.774,-66.74 -347.6136,-384.68 C -0.0195313,2377.32 0,2178.47 0,2103.6 v -5 c 0,-74.86 -0.0195313,-273.72 40.5234,-453.17 71.8396,-317.95 228.6796,-384.68 347.6136,-384.68 340.926,0 679.333,367.43 951.223,662.7 39.83,43.21 78.06,84.74 114.38,122.98 32.89,34.59 72.77,78.18 118.45,128.14 312.19,341.35 961.81,1051.61 1419.55,1051.61 110.68,0 267.44,-38.22 350.63,-368.73 58.68,-233.1 58.67,-531.03 58.67,-748.54 v -15.62 c 0,-217.52 0.01,-515.44 -58.67,-748.54 -83.19,-330.51 -239.95,-368.73 -350.63,-368.73 -265.16,0 -747.41,343.17 -1302.37,923.18 L 1581.4,1782.25 c 386.14,-402.52 999.33,-964.988 1410.34,-964.988 253.18,0 422.96,164.437 504.59,488.748 63.49,252.17 63.46,561.45 63.46,787.28 v 15.62 c 0,225.83 0.03,535.11 -63.46,787.29 -81.63,324.3 -251.41,488.74 -504.59,488.74" /></g></g></svg>