<?xml version="1.0" encoding="utf-8"?>
<!-- Generator: Adobe Illustrator 19.0.0, SVG Export Plug-In . SVG Version: 6.00 Build 0)  -->
<!DOCTYPE svg PUBLIC "-//W3C//DTD SVG 1.1//EN" "http://www.w3.org/Graphics/SVG/1.1/DTD/svg11.dtd">
<svg version="1.1" id="Ebene_1" xmlns="http://www.w3.org/2000/svg" xmlns:xlink="http://www.w3.org/1999/xlink" x="0px" y="0px"
	 width="113.3px" height="100px" viewBox="0 0 113.3 100" style="enable-background:new 0 0 113.3 100;" xml:space="preserve">
<style type="text/css">
	.st0{fill:#11586C;}
	.st1{opacity:0.6;fill:#11586C;}
	.st2{opacity:0.75;fill:#11586C;}
</style>
<g>
	<path class="st0" d="M83,16.2c-1.9,0-3.5-1.6-3.5-3.5c0-1.9,1.6-3.5,3.5-3.5c1.9,0,3.5,1.6,3.5,3.5C86.5,14.6,84.9,16.2,83,16.2
		 M83,9.6c-1.7,0-3.1,1.4-3.1,3.1c0,1.7,1.4,3.1,3.1,3.1c1.7,0,3.1-1.4,3.1-3.1C86,11,84.7,9.6,83,9.6"/>
	<path class="st0" d="M81.4,10.5h2c1.1,0,1.3,0.8,1.3,1.1c0,0.4-0.2,0.8-0.6,1c0.3,0.1,0.5,0.3,0.5,1c0,0.6,0,0.7,0.2,0.8v0.1h-0.9
		c-0.1-0.2-0.1-0.4-0.1-0.8c0-0.6,0-0.8-0.7-0.8h-0.9v1.6h-0.8V10.5z M83.2,12.3c0.4,0,0.7-0.2,0.7-0.6c0-0.2-0.1-0.5-0.6-0.5h-1.1
		v1.1H83.2z"/>
	<path class="st0" d="M44.3,80.2L44.3,80.2c0.6-0.2,2-0.8,2-2.8c0-1.2-0.5-2-1.1-2.5c-0.9-0.7-1.8-0.7-3.1-0.7h-3.2v10.1h1.7v-3.8
		h1.9l2.1,3.8h2L44.3,80.2L44.3,80.2z M43.8,78.9c-0.4,0.2-0.9,0.2-1.1,0.3c-0.4,0-0.6,0-1.3,0h-0.8v-3.5h1c1.1,0,1.7,0,2.1,0.2
		c0.8,0.4,0.9,1.2,0.9,1.5h0l0,0c0,0,0,0,0,0C44.6,78.3,44.2,78.7,43.8,78.9z"/>
	<rect x="35.1" y="74.3" class="st0" width="1.7" height="10.1"/>
	<polygon class="st0" points="46.9,75.8 49.7,75.8 49.7,84.4 51.5,84.4 51.5,75.8 54.3,75.8 54.3,74.3 46.9,74.3 	"/>
	<polygon class="st0" points="20.6,75.8 25.5,75.8 25.5,74.3 18.9,74.3 18.9,84.4 20.6,84.4 20.6,80 24.9,80 24.9,78.6 20.6,78.6 	
		"/>
	<path class="st0" d="M28.4,74.3L25,84.4h1.8l0.6-2h4.1l0.6,2h1.8l-3.5-10.1H28.4z M31,80.9h-3.2l1.6-5.3l1.5,5.1L31,80.9z"/>
	<path class="st0" d="M59,21c-4.1,0-7.5,3.3-7.5,7.5c0,4.1,3.3,7.4,7.5,7.4c4.1,0,7.4-3.3,7.4-7.4C66.5,24.3,63.1,21,59,21z"/>
	<path class="st0" d="M67.2,74.3l-3.4,10.1h1.8l0.6-2l4.1,0l0.6,2h1.8l-3.5-10.1H67.2z M66.7,80.9l1.6-5.3l1.6,5.3H66.7z"/>
	<polygon class="st0" points="90.7,75.8 90.7,74.3 83.6,74.3 83.6,84.4 90.7,84.4 90.7,82.9 85.3,82.9 85.3,79.9 90.2,79.9 
		90.2,78.5 85.3,78.5 85.3,75.8 	"/>
	<path class="st0" d="M60.9,80.2L60.9,80.2c0.6-0.2,2-0.8,2-2.8c0-1.2-0.5-2-1.1-2.5c-0.9-0.7-1.8-0.7-3.1-0.7h-3.2v10.1h1.7v-3.8
		h1.9l2.1,3.8h2L60.9,80.2L60.9,80.2z M60.4,78.9c-0.4,0.2-0.9,0.2-1.1,0.3c-0.4,0-0.6,0-1.3,0h-0.8l0-3.4v-0.1h1
		c1.1,0,1.7,0,2.1,0.2c0.8,0.4,0.9,1.2,0.9,1.5h0l0,0v0C61.2,78.3,60.8,78.7,60.4,78.9z"/>
	<path class="st0" d="M80.3,75.1c-1.1-0.8-2.1-0.8-3-0.8h-3.6v10.1h3.2c1.2,0,2.3,0,3.3-0.6c1.5-0.8,2.1-2.6,2.1-4.4
		C82.2,78.3,81.9,76.3,80.3,75.1z M80.4,79.5c0,2.2-0.8,2.9-1.6,3.2c-0.5,0.2-1,0.2-2.5,0.2h-0.9v-7.1h1.1c1.3,0,1.6,0,2.2,0.3
		C80.2,76.8,80.4,78.5,80.4,79.5L80.4,79.5z"/>
	<path class="st0" d="M86,38.1C86,20.9,72,6.9,54.8,6.9c-17.2,0-31.2,13.9-31.2,31.1c0,17.2,14,31.1,31.2,31.1
		C72,69.2,86,55.3,86,38.1z M47,65.3C35.1,61.9,26.4,51,26.4,38.1c0-7.5,3-14.4,7.8-19.5c-0.6,1.6-1.5,4.4-1.5,7.8
		c0,3.8,1.1,8.2,5,12.3l0.7,0.8c5.5,5.8,10.5,11,10.5,18C48.9,59.8,48.3,62.4,47,65.3z M76.4,56.5C76.4,56.5,76.4,56.5,76.4,56.5
		l0-0.3c0-5.8-2.2-9.4-5.7-11.9l-0.2-0.1c-5.7-3.8-12.6-4.9-15.9-5.7c-1.9-0.5-4.4-1-6.8-2c-5.5-2.2-9.5-7.1-9.5-12.9
		c0-3.6,1.4-6.9,3.7-9.3c2.2-2.3,5.2-3.3,6.1-3.5c1.8-0.6,4-0.9,6.2-1c0,0,0.6,0,0.8,0c11.9,0,22.4,7.9,26.2,18.4
		c1.2,3.1,1.8,6.4,1.8,10C83.1,45,80.6,51.5,76.4,56.5L76.4,56.5L76.4,56.5z"/>
	<polygon points="76.4,56.5 76.4,56.5 76.4,56.5 	"/>
	<polygon class="st1" points="76.4,56.5 76.4,56.5 76.4,56.5 	"/>
	<path class="st2" d="M81.3,28.1C77.5,17.5,67,9.7,55.1,9.7c-0.2,0-0.8,0-0.8,0c-2.2,0.1-4.4,0.5-6.2,1C47.3,11,44.2,12,42,14.3
		c-2.3,2.4-3.7,5.7-3.7,9.3c0,5.9,4,10.7,9.5,12.9c2.3,0.9,4.9,1.5,6.8,2c3.3,0.8,10.1,1.9,15.9,5.7l0.2,0.1c3.6,2.4,5.7,6,5.7,11.9
		v0.3c4.2-4.9,6.7-11.5,6.7-18.4C83.1,34.5,82.5,31.2,81.3,28.1z M59,35.9c-4.1,0-7.5-3.3-7.5-7.4c0-4.1,3.3-7.5,7.5-7.5
		c4.1,0,7.4,3.3,7.4,7.5C66.5,32.5,63.1,35.9,59,35.9z"/>
	<path class="st1" d="M37.7,38.7c-3.9-4.1-5-8.5-5-12.3c0-3.3,0.9-6.2,1.5-7.8c-4.8,5.1-7.8,12-7.8,19.5c0,12.9,8.7,23.8,20.6,27.2
		c1.3-2.9,1.9-5.5,1.9-7.8c0-7-5-12.2-10.5-18L37.7,38.7z"/>
	<polygon class="st0" points="22.3,91.3 20.9,86 18.9,86 18.9,93.1 20.2,93.1 20.1,87.3 21.6,93.1 22.8,93.1 24.4,87.3 24.3,93.1 
		25.6,93.1 25.6,86 23.6,86 	"/>
	<path class="st0" d="M28.8,86l-2.4,7.1h1.4l0.4-1.4h2.7l0.4,1.4h1.4L30.3,86H28.8z M28.6,90.5l1-3.3l1,3.3H28.6z"/>
	<polygon class="st0" points="39.1,86 37.6,86 36.4,88 35.1,86 33.5,86 35.6,89.2 33.2,93.1 34.7,93.1 36.4,90.5 38,93.1 39.5,93.1 
		37.1,89.2 	"/>
	<polygon class="st0" points="46.5,88.7 43.5,88.7 43.5,86 42.2,86 42.2,93.1 43.5,93.1 43.5,89.9 46.5,89.9 46.5,93.1 47.9,93.1 
		47.9,86 46.5,86 	"/>
	<path class="st0" d="M51.1,86l-2.4,7.1h1.4l0.4-1.4h2.7l0.4,1.4H55L52.6,86H51.1z M50.9,90.5l1-3.3l1,3.3H50.9z"/>
	<polygon class="st0" points="57.7,91.6 56.1,86 54.7,86 56.8,93.1 58.6,93.1 60.6,86 59.3,86 	"/>
	<polygon class="st0" points="62.7,90 66.1,90 66.1,88.8 62.7,88.8 62.7,87.2 66.4,87.2 66.4,86 61.4,86 61.4,93.1 66.7,93.1 
		66.7,91.9 62.7,91.9 	"/>
	<polygon class="st0" points="69.1,86 67.8,86 67.8,93.1 71.9,93.1 71.9,91.9 69.1,91.9 	"/>
	<path class="st0" d="M74.9,86l-2.4,7.1h1.4l0.4-1.4H77l0.4,1.4h1.4L76.4,86H74.9z M74.7,90.5l1-3.3l1,3.3H74.7z"/>
	<path class="st0" d="M81.7,86l-2.4,7.1h1.4l0.4-1.4h2.7l0.4,1.4h1.4L83.2,86H81.7z M81.5,90.5l1-3.3l1,3.3H81.5z"/>
	<path class="st0" d="M90.3,90.2c0.4-0.1,1.4-0.6,1.4-2c0-0.8-0.3-1.4-0.8-1.8C90.3,86,89.7,86,88.7,86h-2.3v7.1h1.3v-2.6H89
		l1.4,2.6h1.5L90.3,90.2z M89.1,89.3c-0.3,0-0.4,0-0.9,0h-0.5v-2.2h0.6c0.8,0,1.1,0,1.4,0.2c0.6,0.3,0.6,0.8,0.6,1
		C90.4,89.3,89.4,89.3,89.1,89.3"/>
</g>
</svg>
