<?xml version="1.0" encoding="utf-8"?>
<!-- Generator: Adobe Illustrator 19.0.0, SVG Export Plug-In . SVG Version: 6.00 Build 0)  -->
<!DOCTYPE svg PUBLIC "-//W3C//DTD SVG 1.1//EN" "http://www.w3.org/Graphics/SVG/1.1/DTD/svg11.dtd">
<svg version="1.1" id="Ebene_1" xmlns="http://www.w3.org/2000/svg" xmlns:xlink="http://www.w3.org/1999/xlink" x="0px" y="0px"
	 width="259.7px" height="100px" viewBox="0 0 259.7 100" style="enable-background:new 0 0 259.7 100;" xml:space="preserve">
<style type="text/css">
	.st0{fill:#11586C;}
</style>
<rect x="56.8" y="27.2" class="st0" width="1.6" height="47.3"/>
<path class="st0" d="M32.5,42.9c0.8-1.1,2.5-4.5,7.7-4.5c3.6,0,5.5,1.4,6.3,2.2c2.2,2.2,2.3,5.3,2.3,7v15h-9.3V49.4
	c0-0.3,0-3.3-3.2-3.3c-3.3,0-3.4,3-3.4,3.8v12.7h-9.3V39h8.8V42.9"/>
<path class="st0" d="M99.7,38.5c-1.7,0-3.2,1.4-3.2,3.2c0,1.7,1.4,3.2,3.2,3.2c1.6,0,2.3-1.2,2.3-1.1c0.9,2.8-3.9,17-10.4,17
	c-2.1,0-2.8-1.7-2.8-3.9c0-2.6,0.8-5.3,1.7-8.9c1-3.6,1.9-7,2.4-8.8h-6.3c-0.9,3.1-7,21.2-12.3,21.2c-0.7,0-1.4-0.7-1.4-2
	c0-0.7,0.6-3.2,0.9-4.1l2.1-7.1c0.5-1.5,1.1-3.4,1.1-4.8c0-2.5-1.7-3.9-3.7-3.9c-5.7,0-8.1,5.1-9.2,7.2l1,0.6
	c0.6-0.9,3.1-5.2,4.8-5.2c0.3,0,0.5,0.3,0.5,1.2c0,0.6-0.4,2-0.7,3.2l-2.2,7.2c-0.4,1.3-1.2,3.8-1.2,5.6c0,3.3,2.5,5,4.7,5
	c8.1,0,11.6-9.8,12.8-12.6l0.1,0.1c-0.2,0.6-0.9,3.5-0.9,5c0,4.3,1.9,7.5,6.2,7.5C101.4,63.3,108.1,38.5,99.7,38.5"/>
<polygon class="st0" points="126.4,48.2 126.4,39 131.9,39 131.9,40.1 127.7,40.1 127.7,43 131.6,43 131.6,44.1 127.7,44.1 
	127.7,48.2 "/>
<path class="st0" d="M136.8,44.3c0-1.1-0.1-1.8-1.4-1.8c-0.6,0-1.2,0.4-1.2,1h-1.3c0.1-1.4,1.2-1.9,2.4-1.9c1.3,0,2.6,0.4,2.6,2.2
	v3.1c0,0.3,0,0.8,0.1,1.4h-0.8c-0.1,0-0.3,0.1-0.3-0.1c0-0.3,0-0.6-0.1-0.9h0c-0.4,0.8-1.1,1.1-2,1.1c-1.1,0-2.2-0.6-2.2-1.8
	c0-1.8,1.6-2.3,3.1-2.3H136.8 M135.5,45.1c-0.7,0-1.7,0.3-1.7,1.2c0,0.8,0.5,1.2,1.3,1.2c1.4,0,1.7-1.2,1.7-2.4H135.5z"/>
<path class="st0" d="M143.8,43.9c-0.1-0.8-0.4-1.4-1.3-1.4c-1.2,0-1.6,1-1.6,2.5c0,1.5,0.4,2.5,1.6,2.5c0.8,0,1.3-0.5,1.4-1.4h1.2
	c-0.1,1.4-1.2,2.3-2.6,2.3c-2.1,0-2.9-1.5-2.9-3.3c0-1.9,0.9-3.4,3-3.4c1.4,0,2.4,0.9,2.4,2.2H143.8"/>
<path class="st0" d="M146.7,48.2V39h1.2v3.7h0c0.5-0.7,1.2-1,2.1-1c1.7,0,2.2,1.1,2.2,2.3v4.3H151v-3.8c0-1.1-0.3-1.9-1.4-1.9
	c-0.5,0-1.2,0.4-1.5,0.9c-0.3,0.7-0.2,1.1-0.2,1.5v3.3H146.7"/>
<path class="st0" d="M154.5,48.2V39h1.2v3.7h0c0.5-0.7,1.2-1,2.1-1c1.7,0,2.2,1.1,2.2,2.3v4.3h-1.2v-3.8c0-1.1-0.3-1.9-1.4-1.9
	c-0.5,0-1.2,0.4-1.5,0.9c-0.3,0.7-0.2,1.1-0.2,1.5v3.3H154.5"/>
<path class="st0" d="M167.8,45c0,2-1.1,3.4-3.2,3.4s-3.2-1.4-3.2-3.4c0-2,1.1-3.4,3.2-3.4S167.8,43,167.8,45 M164.6,47.5
	c1.4,0,1.9-1.1,1.9-2.5c0-1.4-0.5-2.5-1.9-2.5s-1.9,1.1-1.9,2.5C162.7,46.4,163.2,47.5,164.6,47.5"/>
<path class="st0" d="M173.2,43.9c-0.1-0.8-0.4-1.4-1.3-1.4c-1.2,0-1.6,1-1.6,2.5c0,1.5,0.5,2.5,1.6,2.5c0.8,0,1.3-0.5,1.4-1.4h1.2
	c-0.1,1.4-1.2,2.3-2.6,2.3c-2.1,0-2.9-1.5-2.9-3.3c0-1.9,0.9-3.4,3-3.4c1.4,0,2.4,0.9,2.4,2.2H173.2"/>
<path class="st0" d="M176.2,48.2V39h1.2v3.7h0c0.5-0.7,1.1-1,2.1-1c1.7,0,2.2,1.1,2.2,2.3v4.3h-1.2v-3.8c0-1.1-0.3-1.9-1.4-1.9
	c-0.5,0-1.2,0.4-1.5,0.9c-0.3,0.7-0.2,1.1-0.2,1.5v3.3H176.2"/>
<path class="st0" d="M185.8,41.6c1.2,0,2.6,0.5,2.5,2H187c0.1-0.8-0.6-1.1-1.3-1.1c-0.6,0-1.2,0.3-1.2,1c0,0.7,1.1,0.8,1.6,0.9
	c1.1,0.4,2.3,0.5,2.3,1.9c0,1.6-1.5,2.1-2.8,2.1c-1.3,0-2.5-0.6-2.4-2.1h1.3c0,0.8,0.6,1.2,1.3,1.2c0.7,0,1.4-0.3,1.4-1.1
	c0-1.4-3.9-0.4-3.9-2.9C183.3,42.2,184.7,41.6,185.8,41.6"/>
<path class="st0" d="M193.9,43.9c-0.1-0.8-0.4-1.4-1.3-1.4c-1.2,0-1.6,1-1.6,2.5c0,1.5,0.4,2.5,1.6,2.5c0.8,0,1.3-0.5,1.4-1.4h1.2
	c-0.1,1.4-1.2,2.3-2.6,2.3c-2.1,0-2.9-1.5-2.9-3.3c0-1.9,0.9-3.4,3-3.4c1.4,0,2.4,0.9,2.4,2.2H193.9"/>
<path class="st0" d="M196.8,48.2V39h1.2v3.7h0c0.5-0.7,1.2-1,2.1-1c1.7,0,2.2,1.1,2.2,2.3v4.3h-1.2v-3.8c0-1.1-0.3-1.9-1.4-1.9
	c-0.5,0-1.2,0.4-1.5,0.9c-0.3,0.7-0.2,1.1-0.2,1.5v3.3H196.8"/>
<path class="st0" d="M208.6,41.8h1.2v6.4h-1.2v-0.9h0c-0.5,0.8-1.3,1.1-2.2,1.1c-1.3,0-2.1-1-2.1-2.3v-4.3h1.2v3.8
	c0,1.1,0.3,1.9,1.4,1.9c0.5,0,1.2-0.3,1.4-0.9c0.2-0.6,0.2-1.4,0.2-1.5V41.8"/>
<rect x="211.8" y="39" class="st0" width="1.2" height="9.2"/>
<path class="st0" d="M216,45.3c-0.1,1.1,0.4,2.3,1.6,2.3c0.9,0,1.4-0.4,1.6-1.3h1.3c-0.2,1.5-1.3,2.2-2.8,2.2
	c-2.1,0-2.9-1.5-2.9-3.3c0-1.9,0.9-3.4,3-3.4c1.9,0,2.8,1.3,2.8,3v0.6H216 M219.3,44.4c0-1.1-0.5-1.9-1.6-1.9c-1,0-1.6,0.9-1.6,1.9
	H219.3z"/>
<polygon class="st0" points="133.8,53.4 133.8,62.6 132.2,62.6 127.6,54.8 127.6,54.8 127.6,62.6 126.4,62.6 126.4,53.4 128.2,53.4 
	132.7,61 132.7,61 132.7,53.4 "/>
<path class="st0" d="M142,59.4c0,2-1.1,3.4-3.2,3.4c-2.1,0-3.2-1.4-3.2-3.4c0-2,1.1-3.4,3.2-3.4C140.9,56,142,57.4,142,59.4
	 M138.8,61.9c1.4,0,1.9-1.1,1.9-2.5c0-1.4-0.5-2.5-1.9-2.5s-1.9,1.1-1.9,2.5C136.9,60.8,137.4,61.9,138.8,61.9"/>
<path class="st0" d="M144.8,62.6h-1.2v-6.4h1.2v1.2h0c0.2-0.9,1-1.3,1.9-1.3c0.2,0,0.3,0,0.4,0v1.1c-0.2-0.1-0.4-0.1-0.5-0.1
	c-1.5,0-1.8,0.9-1.8,2.2V62.6"/>
<path class="st0" d="M152.5,53.4h1.2v8.1c0,0.4,0,0.8,0.1,1.1h-1.2l0-1v-0.1h0c-0.4,0.9-1.3,1.2-2.2,1.2c-1.9,0-2.7-1.7-2.7-3.4
	c0-1.7,0.9-3.4,2.9-3.4c0.8,0,1.6,0.3,2,1.1h0V53.4 M150.7,62c1.5,0,1.8-1.4,1.8-2.6c0-1.2-0.4-2.5-1.8-2.5c-1.5,0-1.8,1.3-1.8,2.5
	C148.8,60.6,149.3,62,150.7,62"/>
<polygon class="st0" points="165.2,56.2 162.9,62.6 161.5,62.6 160,57.4 160,57.4 158.4,62.6 156.9,62.6 154.8,56.2 156.1,56.2 
	157.7,61.4 157.7,61.4 159.3,56.2 160.9,56.2 162.3,61.3 162.3,61.3 163.9,56.2 "/>
<path class="st0" d="M167.2,59.7c-0.1,1.1,0.4,2.3,1.6,2.3c0.9,0,1.4-0.4,1.6-1.3h1.3c-0.2,1.5-1.3,2.2-2.8,2.2
	c-2.1,0-2.9-1.5-2.9-3.3c0-1.9,0.9-3.4,3-3.4c1.9,0,2.8,1.3,2.8,3v0.6H167.2 M170.4,58.8c0-1.1-0.5-1.9-1.6-1.9
	c-1,0-1.6,0.9-1.6,1.9H170.4z"/>
<path class="st0" d="M175.5,56c1.2,0,2.6,0.5,2.5,2h-1.3c0.1-0.8-0.6-1.1-1.3-1.1c-0.7,0-1.2,0.3-1.2,1c0,0.7,1.1,0.8,1.6,0.9
	c1.1,0.4,2.3,0.5,2.3,1.9c0,1.6-1.5,2.1-2.8,2.1c-1.3,0-2.5-0.6-2.5-2.1h1.3c0,0.8,0.6,1.2,1.3,1.2c0.7,0,1.4-0.3,1.4-1.1
	c0-1.4-3.9-0.4-3.9-2.9C173,56.6,174.4,56,175.5,56"/>
<path class="st0" d="M180.2,56.2v-1.4l1.2-0.4v1.7l1.5,0v0.9l-1.5,0v4.1c0,0.5,0.4,0.7,0.8,0.7c0.2,0,0.5,0,0.6-0.1v0.9
	c-0.3,0-0.5,0.1-0.8,0.1c-0.3,0-0.5,0-0.8-0.1c-0.2,0-0.5-0.1-0.7-0.4c-0.2-0.3-0.3-0.3-0.3-1.2v-4.1l-1.1,0v-0.9L180.2,56.2"/>
<path class="st0" d="M186.6,56c1.2,0,2.6,0.5,2.5,2h-1.3c0.1-0.8-0.6-1.1-1.3-1.1c-0.7,0-1.2,0.3-1.2,1c0,0.7,1.1,0.8,1.6,0.9
	c1.1,0.4,2.3,0.5,2.3,1.9c0,1.6-1.5,2.1-2.8,2.1c-1.3,0-2.5-0.6-2.5-2.1h1.3c0,0.8,0.6,1.2,1.3,1.2c0.7,0,1.4-0.3,1.4-1.1
	c0-1.4-3.9-0.4-3.9-2.9C184.1,56.6,185.4,56,186.6,56"/>
<path class="st0" d="M194.6,58.3c-0.1-0.8-0.5-1.4-1.3-1.4c-1.2,0-1.6,1-1.6,2.5c0,1.5,0.4,2.5,1.6,2.5c0.8,0,1.3-0.5,1.4-1.4h1.2
	c-0.1,1.4-1.2,2.3-2.6,2.3c-2.1,0-2.9-1.5-2.9-3.3c0-1.9,0.9-3.4,3-3.4c1.4,0,2.4,0.9,2.4,2.2H194.6"/>
<path class="st0" d="M197.5,62.6v-9.2h1.2v3.7h0c0.5-0.7,1.2-1,2.1-1c1.7,0,2.2,1.1,2.2,2.3v4.3h-1.2v-3.8c0-1.1-0.3-1.9-1.4-1.9
	c-0.5,0-1.2,0.4-1.5,0.9c-0.3,0.7-0.2,1.1-0.2,1.5v3.3H197.5"/>
<polygon class="st0" points="214.3,56.2 212.1,62.6 210.7,62.6 209.2,57.4 209.2,57.4 207.5,62.6 206.1,62.6 204,56.2 205.3,56.2 
	206.8,61.4 206.9,61.4 208.5,56.2 210,56.2 211.5,61.3 211.5,61.3 213.1,56.2 "/>
<path class="st0" d="M216.3,59.7c-0.1,1.1,0.4,2.3,1.6,2.3c0.9,0,1.4-0.4,1.6-1.3h1.3c-0.2,1.5-1.3,2.2-2.8,2.2
	c-2.1,0-2.9-1.5-2.9-3.3c0-1.9,0.9-3.4,3-3.4c1.9,0,2.8,1.3,2.8,3v0.6H216.3 M219.6,58.8c0-1.1-0.5-1.9-1.6-1.9
	c-1,0-1.6,0.9-1.6,1.9H219.6z"/>
<path class="st0" d="M222.3,53.4h1.4v1.3h-1.4V53.4z M222.4,56.2h1.2v6.4h-1.2V56.2z"/>
<polygon class="st0" points="230.1,62.6 225.4,62.6 225.4,61.8 228.6,57.1 225.5,57.1 225.5,56.2 229.9,56.2 229.9,57.1 226.7,61.8 
	230.1,61.8 "/>
<path class="st0" d="M136.8,44.3c0-1.1-0.1-1.8-1.4-1.8c-0.6,0-1.2,0.4-1.2,1h-1.3c0.1-1.4,1.2-1.9,2.4-1.9c1.3,0,2.6,0.4,2.6,2.2
	v3.1c0,0.3,0,0.8,0.1,1.4h-0.8c-0.1,0-0.3,0.1-0.3-0.1c0-0.3,0-0.6-0.1-0.9h0c-0.4,0.8-1.1,1.1-2,1.1c-1.1,0-2.2-0.6-2.2-1.8
	c0-1.8,1.6-2.3,3.1-2.3H136.8 M135.5,45.1c-0.7,0-1.7,0.3-1.7,1.2c0,0.8,0.5,1.2,1.3,1.2c1.4,0,1.7-1.2,1.7-2.4H135.5z"/>
<path class="st0" d="M143.8,43.9c-0.1-0.8-0.4-1.4-1.3-1.4c-1.2,0-1.6,1-1.6,2.5c0,1.5,0.4,2.5,1.6,2.5c0.8,0,1.3-0.5,1.4-1.4h1.2
	c-0.1,1.4-1.2,2.3-2.6,2.3c-2.1,0-2.9-1.5-2.9-3.3c0-1.9,0.9-3.4,3-3.4c1.4,0,2.4,0.9,2.4,2.2H143.8"/>
<path class="st0" d="M146.7,48.2V39h1.2v3.7h0c0.5-0.7,1.2-1,2.1-1c1.7,0,2.2,1.1,2.2,2.3v4.3H151v-3.8c0-1.1-0.3-1.9-1.4-1.9
	c-0.5,0-1.2,0.4-1.5,0.9c-0.3,0.7-0.2,1.1-0.2,1.5v3.3H146.7"/>
<path class="st0" d="M154.5,48.2V39h1.2v3.7h0c0.5-0.7,1.2-1,2.1-1c1.7,0,2.2,1.1,2.2,2.3v4.3h-1.2v-3.8c0-1.1-0.3-1.9-1.4-1.9
	c-0.5,0-1.2,0.4-1.5,0.9c-0.3,0.7-0.2,1.1-0.2,1.5v3.3H154.5"/>
<path class="st0" d="M167.8,45c0,2-1.1,3.4-3.2,3.4s-3.2-1.4-3.2-3.4c0-2,1.1-3.4,3.2-3.4S167.8,43,167.8,45 M164.6,47.5
	c1.4,0,1.9-1.1,1.9-2.5c0-1.4-0.5-2.5-1.9-2.5s-1.9,1.1-1.9,2.5C162.7,46.4,163.2,47.5,164.6,47.5"/>
<path class="st0" d="M173.2,43.9c-0.1-0.8-0.4-1.4-1.3-1.4c-1.2,0-1.6,1-1.6,2.5c0,1.5,0.5,2.5,1.6,2.5c0.8,0,1.3-0.5,1.4-1.4h1.2
	c-0.1,1.4-1.2,2.3-2.6,2.3c-2.1,0-2.9-1.5-2.9-3.3c0-1.9,0.9-3.4,3-3.4c1.4,0,2.4,0.9,2.4,2.2H173.2"/>
<path class="st0" d="M176.2,48.2V39h1.2v3.7h0c0.5-0.7,1.1-1,2.1-1c1.7,0,2.2,1.1,2.2,2.3v4.3h-1.2v-3.8c0-1.1-0.3-1.9-1.4-1.9
	c-0.5,0-1.2,0.4-1.5,0.9c-0.3,0.7-0.2,1.1-0.2,1.5v3.3H176.2"/>
<path class="st0" d="M185.8,41.6c1.2,0,2.6,0.5,2.5,2H187c0.1-0.8-0.6-1.1-1.3-1.1c-0.6,0-1.2,0.3-1.2,1c0,0.7,1.1,0.8,1.6,0.9
	c1.1,0.4,2.3,0.5,2.3,1.9c0,1.6-1.5,2.1-2.8,2.1c-1.3,0-2.5-0.6-2.4-2.1h1.3c0,0.8,0.6,1.2,1.3,1.2c0.7,0,1.4-0.3,1.4-1.1
	c0-1.4-3.9-0.4-3.9-2.9C183.3,42.2,184.7,41.6,185.8,41.6"/>
<path class="st0" d="M193.9,43.9c-0.1-0.8-0.4-1.4-1.3-1.4c-1.2,0-1.6,1-1.6,2.5c0,1.5,0.4,2.5,1.6,2.5c0.8,0,1.3-0.5,1.4-1.4h1.2
	c-0.1,1.4-1.2,2.3-2.6,2.3c-2.1,0-2.9-1.5-2.9-3.3c0-1.9,0.9-3.4,3-3.4c1.4,0,2.4,0.9,2.4,2.2H193.9"/>
<path class="st0" d="M196.8,48.2V39h1.2v3.7h0c0.5-0.7,1.2-1,2.1-1c1.7,0,2.2,1.1,2.2,2.3v4.3h-1.2v-3.8c0-1.1-0.3-1.9-1.4-1.9
	c-0.5,0-1.2,0.4-1.5,0.9c-0.3,0.7-0.2,1.1-0.2,1.5v3.3H196.8"/>
<path class="st0" d="M208.6,41.8h1.2v6.4h-1.2v-0.9h0c-0.5,0.8-1.3,1.1-2.2,1.1c-1.3,0-2.1-1-2.1-2.3v-4.3h1.2v3.8
	c0,1.1,0.3,1.9,1.4,1.9c0.5,0,1.2-0.3,1.4-0.9c0.2-0.6,0.2-1.4,0.2-1.5V41.8"/>
<rect x="211.8" y="39" class="st0" width="1.2" height="9.2"/>
<path class="st0" d="M216,45.3c-0.1,1.1,0.4,2.3,1.6,2.3c0.9,0,1.4-0.4,1.6-1.3h1.3c-0.2,1.5-1.3,2.2-2.8,2.2
	c-2.1,0-2.9-1.5-2.9-3.3c0-1.9,0.9-3.4,3-3.4c1.9,0,2.8,1.3,2.8,3v0.6H216 M219.3,44.4c0-1.1-0.5-1.9-1.6-1.9c-1,0-1.6,0.9-1.6,1.9
	H219.3z"/>
<polygon class="st0" points="133.8,53.4 133.8,62.6 132.2,62.6 127.6,54.8 127.6,54.8 127.6,62.6 126.4,62.6 126.4,53.4 128.2,53.4 
	132.7,61 132.7,61 132.7,53.4 "/>
<path class="st0" d="M142,59.4c0,2-1.1,3.4-3.2,3.4c-2.1,0-3.2-1.4-3.2-3.4c0-2,1.1-3.4,3.2-3.4C140.9,56,142,57.4,142,59.4
	 M138.8,61.9c1.4,0,1.9-1.1,1.9-2.5c0-1.4-0.5-2.5-1.9-2.5s-1.9,1.1-1.9,2.5C136.9,60.8,137.4,61.9,138.8,61.9"/>
<path class="st0" d="M144.8,62.6h-1.2v-6.4h1.2v1.2h0c0.2-0.9,1-1.3,1.9-1.3c0.2,0,0.3,0,0.4,0v1.1c-0.2-0.1-0.4-0.1-0.5-0.1
	c-1.5,0-1.8,0.9-1.8,2.2V62.6"/>
<path class="st0" d="M152.5,53.4h1.2v8.1c0,0.4,0,0.8,0.1,1.1h-1.2l0-1v-0.1h0c-0.4,0.9-1.3,1.2-2.2,1.2c-1.9,0-2.7-1.7-2.7-3.4
	c0-1.7,0.9-3.4,2.9-3.4c0.8,0,1.6,0.3,2,1.1h0V53.4 M150.7,62c1.5,0,1.8-1.4,1.8-2.6c0-1.2-0.4-2.5-1.8-2.5c-1.5,0-1.8,1.3-1.8,2.5
	C148.8,60.6,149.3,62,150.7,62"/>
<polygon class="st0" points="165.2,56.2 162.9,62.6 161.5,62.6 160,57.4 160,57.4 158.4,62.6 156.9,62.6 154.8,56.2 156.1,56.2 
	157.7,61.4 157.7,61.4 159.3,56.2 160.9,56.2 162.3,61.3 162.3,61.3 163.9,56.2 "/>
<path class="st0" d="M167.2,59.7c-0.1,1.1,0.4,2.3,1.6,2.3c0.9,0,1.4-0.4,1.6-1.3h1.3c-0.2,1.5-1.3,2.2-2.8,2.2
	c-2.1,0-2.9-1.5-2.9-3.3c0-1.9,0.9-3.4,3-3.4c1.9,0,2.8,1.3,2.8,3v0.6H167.2 M170.4,58.8c0-1.1-0.5-1.9-1.6-1.9
	c-1,0-1.6,0.9-1.6,1.9H170.4z"/>
<path class="st0" d="M175.5,56c1.2,0,2.6,0.5,2.5,2h-1.3c0.1-0.8-0.6-1.1-1.3-1.1c-0.7,0-1.2,0.3-1.2,1c0,0.7,1.1,0.8,1.6,0.9
	c1.1,0.4,2.3,0.5,2.3,1.9c0,1.6-1.5,2.1-2.8,2.1c-1.3,0-2.5-0.6-2.5-2.1h1.3c0,0.8,0.6,1.2,1.3,1.2c0.7,0,1.4-0.3,1.4-1.1
	c0-1.4-3.9-0.4-3.9-2.9C173,56.6,174.4,56,175.5,56"/>
<path class="st0" d="M180.2,56.2v-1.4l1.2-0.4v1.7l1.5,0v0.9l-1.5,0v4.1c0,0.5,0.4,0.7,0.8,0.7c0.2,0,0.5,0,0.6-0.1v0.9
	c-0.3,0-0.5,0.1-0.8,0.1c-0.3,0-0.5,0-0.8-0.1c-0.2,0-0.5-0.1-0.7-0.4c-0.2-0.3-0.3-0.3-0.3-1.2v-4.1l-1.1,0v-0.9L180.2,56.2"/>
<path class="st0" d="M186.6,56c1.2,0,2.6,0.5,2.5,2h-1.3c0.1-0.8-0.6-1.1-1.3-1.1c-0.7,0-1.2,0.3-1.2,1c0,0.7,1.1,0.8,1.6,0.9
	c1.1,0.4,2.3,0.5,2.3,1.9c0,1.6-1.5,2.1-2.8,2.1c-1.3,0-2.5-0.6-2.5-2.1h1.3c0,0.8,0.6,1.2,1.3,1.2c0.7,0,1.4-0.3,1.4-1.1
	c0-1.4-3.9-0.4-3.9-2.9C184.1,56.6,185.4,56,186.6,56"/>
<path class="st0" d="M194.6,58.3c-0.1-0.8-0.5-1.4-1.3-1.4c-1.2,0-1.6,1-1.6,2.5c0,1.5,0.4,2.5,1.6,2.5c0.8,0,1.3-0.5,1.4-1.4h1.2
	c-0.1,1.4-1.2,2.3-2.6,2.3c-2.1,0-2.9-1.5-2.9-3.3c0-1.9,0.9-3.4,3-3.4c1.4,0,2.4,0.9,2.4,2.2H194.6"/>
<path class="st0" d="M197.5,62.6v-9.2h1.2v3.7h0c0.5-0.7,1.2-1,2.1-1c1.7,0,2.2,1.1,2.2,2.3v4.3h-1.2v-3.8c0-1.1-0.3-1.9-1.4-1.9
	c-0.5,0-1.2,0.4-1.5,0.9c-0.3,0.7-0.2,1.1-0.2,1.5v3.3H197.5"/>
<polygon class="st0" points="214.3,56.2 212.1,62.6 210.7,62.6 209.2,57.4 209.2,57.4 207.5,62.6 206.1,62.6 204,56.2 205.3,56.2 
	206.8,61.4 206.9,61.4 208.5,56.2 210,56.2 211.5,61.3 211.5,61.3 213.1,56.2 "/>
<path class="st0" d="M216.3,59.7c-0.1,1.1,0.4,2.3,1.6,2.3c0.9,0,1.4-0.4,1.6-1.3h1.3c-0.2,1.5-1.3,2.2-2.8,2.2
	c-2.1,0-2.9-1.5-2.9-3.3c0-1.9,0.9-3.4,3-3.4c1.9,0,2.8,1.3,2.8,3v0.6H216.3 M219.6,58.8c0-1.1-0.5-1.9-1.6-1.9
	c-1,0-1.6,0.9-1.6,1.9H219.6z"/>
<path class="st0" d="M222.3,53.4h1.4v1.3h-1.4V53.4z M222.4,56.2h1.2v6.4h-1.2V56.2z"/>
<polygon class="st0" points="230.1,62.6 225.4,62.6 225.4,61.8 228.6,57.1 225.5,57.1 225.5,56.2 229.9,56.2 229.9,57.1 226.7,61.8 
	230.1,61.8 "/>
</svg>
