<svg viewBox="0 0 169 153" xmlns="http://www.w3.org/2000/svg" fill-rule="evenodd" clip-rule="evenodd" stroke-linejoin="round" stroke-miterlimit="1.41421"><path d="M52.554 6.684c.117-2 .912-4.192 2.435-4.698 1.521-.505 10.481-.64 19.952-.568 9.472.073 28.989 1.497 28.989 1.497S158.298.454 161.055.534c2.757.079 5.068 2.391 5.456 5.227.388 2.837 1.979 19.027 1.979 19.027l-.43 2.554-61.492-.799.01-1.886s.409-11.172.362-12.031c-.049-.859-2.411-1.014-3.897-.941-1.488.073-16.746.972-23.635.88-6.891-.091-9.796-1.44-11.239-1.584-1.444-.145-3.169-1.3-4.177.205-1.007 1.506-2.129 2.961-2.988 3.003-.86.043-6.121.301-7.615-.757-1.495-1.059-.953-4.747-.835-6.748zm2.378 66.041s.081-9.018.182-14.658c.182-10.182-2.152-12.087-2.697-12.444 0 0-.02.006-.112.053-.545.304-2.88 2.208-2.697 12.391.101 5.64.181 14.658.181 14.658s-.399.29-.392.716c.048 2.638.169 13.908.22 16.745.088 4.951-.831 12.63.42 14.454.535.778 1.579 1.107 2.266 1.148.039.003.077 0 .116 0 .686-.041 1.731-.37 2.265-1.148 1.252-1.824.332-9.503.421-14.454.051-2.837.172-14.107.219-16.745.008-.426-.392-.716-.392-.716zm-2.074-3.208c0 .185-.223.334-.497.334-.275 0-.498-.149-.498-.334V50.854c0-.184.223-.333.498-.333.274 0 .497.149.497.333v18.663zM4.414 87.681c-.027 1.077.575 1.727 1.021 1.842.448.114 5.235-.13 6.582-.028 1.349.101 2.214 1.406 2.798 2.777.585 1.372 2.326 1.647 2.886 1.519.56-.126 1.874-.684 2.285-1.349.41-.665 1.439-1.278 2.223-1.168.784.108 14.025 1.488 15.365 1.828 1.342.341 1.226.464 3.001 1.397 5.086 3.527 3.453 10.141.743 12.752-1.741 2.063-17.306 3.712-19.005 4.095-1.698.381-2.684-.562-3.558-1.631-.872-1.065-2.565-.804-3.302-.614-.736.19-2.503 3.33-3.077 3.817-.577.488-5.97.2-6.869.212-.899.014-2.676-.922-3.142-.316-.006.239-1.965-.153-2.297-.388-.331-.235.649-1.148.649-1.148s-.39-.175-.487-.773c-.017-.107-.069-.615-.073-1.382-.011-1.828 0-7.706-.004-11.495.015-.784.038-1.45.069-1.925.092-1.378.427-3.718-.015-4.072-.441-.354.024-.959.089-1.259.063-.301.086-1.141 1.044-3.43.958-2.29 2.889-.818 3.074.739zm-1.678 23.334c.237 0 .431-.193.431-.431v-9.362c.003-.734.004-1.472 0-2.193v-6.995c0-.237-.194-.431-.431-.431h-.174c-.237 0-.43.194-.43.431v1.402c0 .01-.002.018-.003.027-.01.373-.007 4.402.003 8.305v8.816c0 .238.193.431.43.431h.174zm8.879-18.998c.003.479-.016 18.215-.024 18.574-.011.361.889.347.889.347s1.661-3.257 3.077-3.697c1.418-.439 3.114-.821 4.045.185.93 1.008 1.74 2.375 3.718 1.928 1.982-.446 14.226-1.99 14.909-2.24.679-.249 3.586-1.665 3.508-5.2-.08-3.534-2.612-5.657-5.012-6.403-2.401-.747-13.944-2.39-14.449-2.44-.505-.054-1.487.214-2.051.986-1.045 1.582-4.218 2.214-5.149 1.209-.93-1.008-3.471-4.989-3.461-3.249zm-7.413-.437c-.237 0-.43.194-.43.432v18.596c0 .237.193.43.43.43h5.206c.237 0 .43-.193.43-.43V92.012c0-.238-.193-.432-.43-.432H4.202zm-1.963-4.649c-.629.427-1.313 3.013-1.313 3.013.295-.543 3.098-.221 3.098-.221s-.078-1.317-.565-2.09c-.486-.773-.589-1.13-1.22-.702zm165.329-54.544c-1.245-1.306-3.253-1.374-3.253-1.374l-6.871.132-11.166-.178-18.339.32v.005c-.001-.002-.002-.005-.002-.005l-31.969-.136s-14.241-.563-24.512.416c-13.818 1.316-20.567 11.01-20.567 11.01s6.336 1.35 12.116 2.228c4.354.662 8.866 1.408 12.392 1.605 2.666.149 5.827.56 9.562.737 2.415.115 8.407.186 11.322.364 5.686.347 21.968.423 22.165.417.883-.027 3.25-.162 3.404-.171.008.003-.003.007-.003.01v.005l1.465-.04s.956-6.038 1.258-6.815c.221-.567.563-2.066 1.187-2.688.769-.767 2.175-.794 2.175-.794 0-.001 0-.001.001-.002.75.131 10.164 1.76 12.867 1.928 5.091.316 15.194-.253 15.194-.253s3.369-.126 4.284.231c.429.167 1.975 1.498 2.161 1.488.577-.029 1.965.019 4.131-1.418.596-.395 1.381-1.393 1.786-2.577.42-1.235.513-3.08-.788-4.445zm.922 50.205c0-11.874-1.833-22.225-2.669-27.606-.215-1.381-1.54-2.499-2.939-2.499H67.494c-1.399 0-2.724 1.118-2.939 2.499-.836 5.381-2.67 15.732-2.67 27.606 0 11.874 1.834 22.225 2.67 27.606.215 1.381 1.54 2.499 2.939 2.499h95.388c1.399 0 2.724-1.118 2.939-2.499.836-5.381 2.669-15.732 2.669-27.606zm-5.204 7.777c.001.001.001.002.001.003.318 2.006-.879 4.019-2.856 4.523-1.973.505-4.053-.982-4.432-3.35-.954-5.93-.954-11.975 0-17.905.379-2.369 2.459-3.855 4.432-3.351 1.977.504 3.174 2.517 2.856 4.523 0 .001 0 .002-.001.003-.828 5.152-.828 10.403 0 15.554zM37.767 71.353V11.329c0-1.132-.977-2.049-2.182-2.049h-4.093v-.851s.007-1.48.949-1.778c.942-.296 1.26-.412 1.771-.594.512-.182 1.795-.892 1.795-2.738 0-1.845-1.096-3.081-3.208-3.081H5.043c-2.112 0-3.209 1.236-3.209 3.081 0 1.846 1.284 2.556 1.796 2.738.511.182.829.298 1.771.594.942.298.949 1.778.949 1.778v.851H2.257c-1.205 0-2.182.917-2.182 2.049v60.024c0 1.132.977 2.048 2.182 2.048H6.35v.608s-.007 1.48-.949 1.778c-.942.298-1.26.411-1.771.594-.512.183-1.796.893-1.796 2.738 0 1.847 1.097 3.081 3.209 3.081h27.756c2.112 0 3.208-1.234 3.208-3.081 0-1.845-1.283-2.555-1.795-2.738-.512-.183-.829-.296-1.771-.594s-.95-1.778-.95-1.778v-.608h4.094c1.205 0 2.182-.916 2.182-2.048zM5.109 12.363l-1.938.036-.001-.036c0-.503.434-.909.97-.909.534 0 .969.406.969.909zm0 2.53l-1.938.036-.001-.036c0-.502.434-.91.97-.91.534 0 .969.408.969.91zm0 2.529l-1.938.035-.001-.035c0-.503.434-.909.97-.909.534 0 .969.406.969.909zm0 2.531l-1.938.034-.001-.034c0-.503.434-.912.97-.912.534 0 .969.409.969.912zm0 2.528l-1.938.037-.001-.037c0-.503.434-.91.97-.91.534 0 .969.407.969.91zm0 2.529l-1.938.036-.001-.036c0-.502.434-.909.97-.909.534 0 .969.407.969.909zm0 2.53l-1.938.037-.001-.037c0-.502.434-.91.97-.91.534 0 .969.408.969.91zm0 2.529l-1.938.036-.001-.036c0-.502.434-.909.97-.909.534 0 .969.407.969.909zm0 2.531l-1.938.035-.001-.035c0-.503.434-.911.97-.911.534 0 .969.408.969.911zm0 2.529l-1.938.036-.001-.036c0-.503.434-.911.97-.911.534 0 .969.408.969.911zm0 2.53l-1.938.035-.001-.035c0-.504.434-.91.97-.91.534 0 .969.406.969.91zm0 2.528l-1.938.037-.001-.037c0-.501.434-.91.97-.91.534 0 .969.409.969.91zm0 2.529l-1.938.037-.001-.037c0-.502.434-.909.97-.909.534 0 .969.407.969.909zm0 2.531l-1.938.036-.001-.036c0-.502.434-.911.97-.911.534 0 .969.409.969.911zm0 2.529l-1.938.035-.001-.035c0-.503.434-.909.97-.909.534 0 .969.406.969.909zm0 2.53l-1.938.035-.001-.035c0-.502.434-.911.97-.911.534 0 .969.409.969.911zm0 2.529l-1.938.036-.001-.036c0-.503.434-.911.97-.911.534 0 .969.408.969.911zm0 2.529l-1.938.036-.001-.036c0-.502.434-.909.97-.909.534 0 .969.407.969.909zm0 2.531l-1.938.035-.001-.035c0-.503.434-.911.97-.911.534 0 .969.408.969.911zm0 2.528l-1.938.036-.001-.036c0-.503.434-.909.97-.909.534 0 .969.406.969.909zm0 2.53l-1.938.035-.001-.035c0-.502.434-.91.97-.91.534 0 .969.408.969.91zm0 2.529l-1.938.037-.001-.037c0-.503.434-.91.97-.91.534 0 .969.407.969.91zm0 2.53l-1.938.035-.001-.035c0-.503.434-.91.97-.91.534 0 .969.407.969.91zm0 2.529l-1.938.037-.001-.037c0-.502.434-.91.97-.91.534 0 .969.408.969.91zm2.817 3.651v-.791h21.99v.791c0 1.503.869 2.601 1.844 2.921.974.321 1.527.527 1.916.709.39.184.707.52.707 1.503 0 .985-.634 1.365-1.82 1.365H5.279c-1.186 0-1.82-.38-1.82-1.365 0-.983.317-1.319.707-1.503.389-.182.942-.388 1.917-.709.974-.32 1.843-1.418 1.843-2.921zm23.351-59.299l-1.938.036v-.036c0-.502.433-.91.969-.91.535 0 .969.408.969.91zm-1.938-2.494v-.036c0-.503.433-.909.969-.909.535 0 .969.406.969.909l-1.938.036zm1.938 5.023l-1.938.035v-.035c0-.503.433-.909.969-.909.535 0 .969.406.969.909zm0 2.531l-1.938.034v-.034c0-.503.433-.912.969-.912.535 0 .969.409.969.912zm0 2.528l-1.938.037v-.037c0-.503.433-.91.969-.91.535 0 .969.407.969.91zm0 2.529l-1.938.036v-.036c0-.502.433-.909.969-.909.535 0 .969.407.969.909zm0 2.53l-1.938.037v-.037c0-.502.433-.91.969-.91.535 0 .969.408.969.91zm0 2.529l-1.938.036v-.036c0-.502.433-.909.969-.909.535 0 .969.407.969.909zm0 2.531l-1.938.035V32.6c0-.503.433-.911.969-.911.535 0 .969.408.969.911zm0 2.529l-1.938.036v-.036c0-.503.433-.911.969-.911.535 0 .969.408.969.911zm0 2.53l-1.938.035v-.035c0-.504.433-.91.969-.91.535 0 .969.406.969.91zm0 2.528l-1.938.037v-.037c0-.501.433-.91.969-.91.535 0 .969.409.969.91zm0 2.529l-1.938.037v-.037c0-.502.433-.909.969-.909.535 0 .969.407.969.909zm0 2.531l-1.938.036v-.036c0-.502.433-.911.969-.911.535 0 .969.409.969.911zm0 2.529l-1.938.035v-.035c0-.503.433-.909.969-.909.535 0 .969.406.969.909zm0 2.53l-1.938.035v-.035c0-.502.433-.911.969-.911.535 0 .969.409.969.911zm0 2.529l-1.938.036v-.036c0-.503.433-.911.969-.911.535 0 .969.408.969.911zm0 2.529l-1.938.036v-.036c0-.502.433-.909.969-.909.535 0 .969.407.969.909zm0 2.531l-1.938.035v-.035c0-.503.433-.911.969-.911.535 0 .969.408.969.911zm0 2.528l-1.938.036v-.036c0-.503.433-.909.969-.909.535 0 .969.406.969.909zm0 2.53l-1.938.035v-.035c0-.502.433-.91.969-.91.535 0 .969.408.969.91zm0 2.529l-1.938.037v-.037c0-.503.433-.91.969-.91.535 0 .969.407.969.91zm0 2.53l-1.938.035v-.035c0-.503.433-.91.969-.91.535 0 .969.407.969.91zm0 2.529l-1.938.037v-.037c0-.502.433-.91.969-.91.535 0 .969.408.969.91zm-3.271-55.648l-1.938.036v-.036c0-.502.433-.91.969-.91.535 0 .969.408.969.91zm-1.938-2.494v-.036c0-.503.433-.909.969-.909.535 0 .969.406.969.909l-1.938.036zm1.938 5.023l-1.938.035v-.035c0-.503.433-.909.969-.909.535 0 .969.406.969.909zm0 2.531l-1.938.034v-.034c0-.503.433-.912.969-.912.535 0 .969.409.969.912zm0 2.528l-1.938.037v-.037c0-.503.433-.91.969-.91.535 0 .969.407.969.91zm0 2.529l-1.938.036v-.036c0-.502.433-.909.969-.909.535 0 .969.407.969.909zm0 2.53l-1.938.037v-.037c0-.502.433-.91.969-.91.535 0 .969.408.969.91zm0 2.529l-1.938.036v-.036c0-.502.433-.909.969-.909.535 0 .969.407.969.909zm0 2.531l-1.938.035V32.6c0-.503.433-.911.969-.911.535 0 .969.408.969.911zm0 2.529l-1.938.036v-.036c0-.503.433-.911.969-.911.535 0 .969.408.969.911zm0 2.53l-1.938.035v-.035c0-.504.433-.91.969-.91.535 0 .969.406.969.91zm0 2.528l-1.938.037v-.037c0-.501.433-.91.969-.91.535 0 .969.409.969.91zm0 2.529l-1.938.037v-.037c0-.502.433-.909.969-.909.535 0 .969.407.969.909zm0 2.531l-1.938.036v-.036c0-.502.433-.911.969-.911.535 0 .969.409.969.911zm0 2.529l-1.938.035v-.035c0-.503.433-.909.969-.909.535 0 .969.406.969.909zm0 2.53l-1.938.035v-.035c0-.502.433-.911.969-.911.535 0 .969.409.969.911zm0 2.529l-1.938.036v-.036c0-.503.433-.911.969-.911.535 0 .969.408.969.911zm0 2.529l-1.938.036v-.036c0-.502.433-.909.969-.909.535 0 .969.407.969.909zm0 2.531l-1.938.035v-.035c0-.503.433-.911.969-.911.535 0 .969.408.969.911zm0 2.528l-1.938.036v-.036c0-.503.433-.909.969-.909.535 0 .969.406.969.909zm0 2.53l-1.938.035v-.035c0-.502.433-.91.969-.91.535 0 .969.408.969.91zm0 2.529l-1.938.037v-.037c0-.503.433-.91.969-.91.535 0 .969.407.969.91zm0 2.53l-1.938.035v-.035c0-.503.433-.91.969-.91.535 0 .969.407.969.91zm0 2.529l-1.938.037v-.037c0-.502.433-.91.969-.91.535 0 .969.408.969.91zm-3.271-55.648l-1.938.036v-.036c0-.502.433-.91.969-.91.535 0 .969.408.969.91zm-1.938-2.494v-.036c0-.503.433-.909.969-.909.535 0 .969.406.969.909l-1.938.036zm1.938 5.023l-1.938.035v-.035c0-.503.433-.909.969-.909.535 0 .969.406.969.909zm0 2.531l-1.938.034v-.034c0-.503.433-.912.969-.912.535 0 .969.409.969.912zm0 2.528l-1.938.037v-.037c0-.503.433-.91.969-.91.535 0 .969.407.969.91zm0 2.529l-1.938.036v-.036c0-.502.433-.909.969-.909.535 0 .969.407.969.909zm0 2.53l-1.938.037v-.037c0-.502.433-.91.969-.91.535 0 .969.408.969.91zm0 2.529l-1.938.036v-.036c0-.502.433-.909.969-.909.535 0 .969.407.969.909zm0 2.531l-1.938.035V32.6c0-.503.433-.911.969-.911.535 0 .969.408.969.911zm0 2.529l-1.938.036v-.036c0-.503.433-.911.969-.911.535 0 .969.408.969.911zm0 2.53l-1.938.035v-.035c0-.504.433-.91.969-.91.535 0 .969.406.969.91zm0 2.528l-1.938.037v-.037c0-.501.433-.91.969-.91.535 0 .969.409.969.91zm0 2.529l-1.938.037v-.037c0-.502.433-.909.969-.909.535 0 .969.407.969.909zm0 2.531l-1.938.036v-.036c0-.502.433-.911.969-.911.535 0 .969.409.969.911zm0 2.529l-1.938.035v-.035c0-.503.433-.909.969-.909.535 0 .969.406.969.909zm0 2.53l-1.938.035v-.035c0-.502.433-.911.969-.911.535 0 .969.409.969.911zm0 2.529l-1.938.036v-.036c0-.503.433-.911.969-.911.535 0 .969.408.969.911zm0 2.529l-1.938.036v-.036c0-.502.433-.909.969-.909.535 0 .969.407.969.909zm0 2.531l-1.938.035v-.035c0-.503.433-.911.969-.911.535 0 .969.408.969.911zm0 2.528l-1.938.036v-.036c0-.503.433-.909.969-.909.535 0 .969.406.969.909zm0 2.53l-1.938.035v-.035c0-.502.433-.91.969-.91.535 0 .969.408.969.91zm0 2.529l-1.938.037v-.037c0-.503.433-.91.969-.91.535 0 .969.407.969.91zm0 2.53l-1.938.035v-.035c0-.503.433-.91.969-.91.535 0 .969.407.969.91zm0 2.529l-1.938.037v-.037c0-.502.433-.91.969-.91.535 0 .969.408.969.91zm-3.271-55.648l-1.938.036v-.036c0-.502.434-.91.969-.91.535 0 .969.408.969.91zm-1.938-2.494v-.036c0-.503.434-.909.969-.909.535 0 .969.406.969.909l-1.938.036zm1.938 5.023l-1.938.035v-.035c0-.503.434-.909.969-.909.535 0 .969.406.969.909zm0 2.531l-1.938.034v-.034c0-.503.434-.912.969-.912.535 0 .969.409.969.912zm0 2.528l-1.938.037v-.037c0-.503.434-.91.969-.91.535 0 .969.407.969.91zm0 2.529l-1.938.036v-.036c0-.502.434-.909.969-.909.535 0 .969.407.969.909zm0 2.53l-1.938.037v-.037c0-.502.434-.91.969-.91.535 0 .969.408.969.91zm0 2.529l-1.938.036v-.036c0-.502.434-.909.969-.909.535 0 .969.407.969.909zm0 2.531l-1.938.035V32.6c0-.503.434-.911.969-.911.535 0 .969.408.969.911zm0 2.529l-1.938.036v-.036c0-.503.434-.911.969-.911.535 0 .969.408.969.911zm0 2.53l-1.938.035v-.035c0-.504.434-.91.969-.91.535 0 .969.406.969.91zm0 2.528l-1.938.037v-.037c0-.501.434-.91.969-.91.535 0 .969.409.969.91zm0 2.529l-1.938.037v-.037c0-.502.434-.909.969-.909.535 0 .969.407.969.909zm0 2.531l-1.938.036v-.036c0-.502.434-.911.969-.911.535 0 .969.409.969.911zm0 2.529l-1.938.035v-.035c0-.503.434-.909.969-.909.535 0 .969.406.969.909zm0 2.53l-1.938.035v-.035c0-.502.434-.911.969-.911.535 0 .969.409.969.911zm0 2.529l-1.938.036v-.036c0-.503.434-.911.969-.911.535 0 .969.408.969.911zm0 2.529l-1.938.036v-.036c0-.502.434-.909.969-.909.535 0 .969.407.969.909zm0 2.531l-1.938.035v-.035c0-.503.434-.911.969-.911.535 0 .969.408.969.911zm0 2.528l-1.938.036v-.036c0-.503.434-.909.969-.909.535 0 .969.406.969.909zm0 2.53l-1.938.035v-.035c0-.502.434-.91.969-.91.535 0 .969.408.969.91zm0 2.529l-1.938.037v-.037c0-.503.434-.91.969-.91.535 0 .969.407.969.91zm0 2.53l-1.938.035v-.035c0-.503.434-.91.969-.91.535 0 .969.407.969.91zm0 2.529l-1.938.037v-.037c0-.502.434-.91.969-.91.535 0 .969.408.969.91zm-3.271-55.648l-1.938.036-.001-.036c0-.502.435-.91.97-.91.535 0 .969.408.969.91zm-1.938-2.494l-.001-.036c0-.503.435-.909.97-.909.535 0 .969.406.969.909l-1.938.036zm1.938 5.023l-1.938.035-.001-.035c0-.503.435-.909.97-.909.535 0 .969.406.969.909zm0 2.531l-1.938.034-.001-.034c0-.503.435-.912.97-.912.535 0 .969.409.969.912zm0 2.528l-1.938.037-.001-.037c0-.503.435-.91.97-.91.535 0 .969.407.969.91zm0 2.529l-1.938.036-.001-.036c0-.502.435-.909.97-.909.535 0 .969.407.969.909zm0 2.53l-1.938.037-.001-.037c0-.502.435-.91.97-.91.535 0 .969.408.969.91zm0 2.529l-1.938.036-.001-.036c0-.502.435-.909.97-.909.535 0 .969.407.969.909zm0 2.531l-1.938.035-.001-.035c0-.503.435-.911.97-.911.535 0 .969.408.969.911zm0 2.529l-1.938.036-.001-.036c0-.503.435-.911.97-.911.535 0 .969.408.969.911zm0 2.53l-1.938.035-.001-.035c0-.504.435-.91.97-.91.535 0 .969.406.969.91zm0 2.528l-1.938.037-.001-.037c0-.501.435-.91.97-.91.535 0 .969.409.969.91zm0 2.529l-1.938.037-.001-.037c0-.502.435-.909.97-.909.535 0 .969.407.969.909zm0 2.531l-1.938.036-.001-.036c0-.502.435-.911.97-.911.535 0 .969.409.969.911zm0 2.529l-1.938.035-.001-.035c0-.503.435-.909.97-.909.535 0 .969.406.969.909zm0 2.53l-1.938.035-.001-.035c0-.502.435-.911.97-.911.535 0 .969.409.969.911zm0 2.529l-1.938.036-.001-.036c0-.503.435-.911.97-.911.535 0 .969.408.969.911zm0 2.529l-1.938.036-.001-.036c0-.502.435-.909.97-.909.535 0 .969.407.969.909zm0 2.531l-1.938.035-.001-.035c0-.503.435-.911.97-.911.535 0 .969.408.969.911zm0 2.528l-1.938.036-.001-.036c0-.503.435-.909.97-.909.535 0 .969.406.969.909zm0 2.53l-1.938.035-.001-.035c0-.502.435-.91.97-.91.535 0 .969.408.969.91zm0 2.529l-1.938.037-.001-.037c0-.503.435-.91.97-.91.535 0 .969.407.969.91zm0 2.53l-1.938.035-.001-.035c0-.503.435-.91.97-.91.535 0 .969.407.969.91zm0 2.529l-1.938.037-.001-.037c0-.502.435-.91.97-.91.535 0 .969.408.969.91zm-3.271-55.648l-1.938.036-.001-.036c0-.502.434-.91.969-.91.536 0 .97.408.97.91zm-1.938-2.494l-.001-.036c0-.503.434-.909.969-.909.536 0 .97.406.97.909l-1.938.036zm1.938 5.023l-1.938.035-.001-.035c0-.503.434-.909.969-.909.536 0 .97.406.97.909zm0 2.531l-1.938.034-.001-.034c0-.503.434-.912.969-.912.536 0 .97.409.97.912zm0 2.528l-1.938.037-.001-.037c0-.503.434-.91.969-.91.536 0 .97.407.97.91zm0 2.529l-1.938.036-.001-.036c0-.502.434-.909.969-.909.536 0 .97.407.97.909zm0 2.53l-1.938.037-.001-.037c0-.502.434-.91.969-.91.536 0 .97.408.97.91zm0 2.529l-1.938.036-.001-.036c0-.502.434-.909.969-.909.536 0 .97.407.97.909zm0 2.531l-1.938.035-.001-.035c0-.503.434-.911.969-.911.536 0 .97.408.97.911zm0 2.529l-1.938.036-.001-.036c0-.503.434-.911.969-.911.536 0 .97.408.97.911zm0 2.53l-1.938.035-.001-.035c0-.504.434-.91.969-.91.536 0 .97.406.97.91zm0 2.528l-1.938.037-.001-.037c0-.501.434-.91.969-.91.536 0 .97.409.97.91zm0 2.529l-1.938.037-.001-.037c0-.502.434-.909.969-.909.536 0 .97.407.97.909zm0 2.531l-1.938.036-.001-.036c0-.502.434-.911.969-.911.536 0 .97.409.97.911zm0 2.529l-1.938.035-.001-.035c0-.503.434-.909.969-.909.536 0 .97.406.97.909zm0 2.53l-1.938.035-.001-.035c0-.502.434-.911.969-.911.536 0 .97.409.97.911zm0 2.529l-1.938.036-.001-.036c0-.503.434-.911.969-.911.536 0 .97.408.97.911zm0 2.529l-1.938.036-.001-.036c0-.502.434-.909.969-.909.536 0 .97.407.97.909zm0 2.531l-1.938.035-.001-.035c0-.503.434-.911.969-.911.536 0 .97.408.97.911zm0 2.528l-1.938.036-.001-.036c0-.503.434-.909.969-.909.536 0 .97.406.97.909zm0 2.53l-1.938.035-.001-.035c0-.502.434-.91.969-.91.536 0 .97.408.97.91zm0 2.529l-1.938.037-.001-.037c0-.503.434-.91.969-.91.536 0 .97.407.97.91zm0 2.53l-1.938.035-.001-.035c0-.503.434-.91.969-.91.536 0 .97.407.97.91zm0 2.529l-1.938.037-.001-.037c0-.502.434-.91.969-.91.536 0 .97.408.97.91zm-3.271-55.648l-1.938.036-.001-.036c0-.502.435-.91.969-.91.536 0 .97.408.97.91zm-1.938-2.494l-.001-.036c0-.503.435-.909.969-.909.536 0 .97.406.97.909l-1.938.036zm1.938 5.023l-1.938.035-.001-.035c0-.503.435-.909.969-.909.536 0 .97.406.97.909zm0 2.531l-1.938.034-.001-.034c0-.503.435-.912.969-.912.536 0 .97.409.97.912zm0 2.528l-1.938.037-.001-.037c0-.503.435-.91.969-.91.536 0 .97.407.97.91zm0 2.529l-1.938.036-.001-.036c0-.502.435-.909.969-.909.536 0 .97.407.97.909zm0 2.53l-1.938.037-.001-.037c0-.502.435-.91.969-.91.536 0 .97.408.97.91zm0 2.529l-1.938.036-.001-.036c0-.502.435-.909.969-.909.536 0 .97.407.97.909zm0 2.531l-1.938.035-.001-.035c0-.503.435-.911.969-.911.536 0 .97.408.97.911zm0 2.529l-1.938.036-.001-.036c0-.503.435-.911.969-.911.536 0 .97.408.97.911zm0 2.53l-1.938.035-.001-.035c0-.504.435-.91.969-.91.536 0 .97.406.97.91zm0 2.528l-1.938.037-.001-.037c0-.501.435-.91.969-.91.536 0 .97.409.97.91zm0 2.529l-1.938.037-.001-.037c0-.502.435-.909.969-.909.536 0 .97.407.97.909zm0 2.531l-1.938.036-.001-.036c0-.502.435-.911.969-.911.536 0 .97.409.97.911zm0 2.529l-1.938.035-.001-.035c0-.503.435-.909.969-.909.536 0 .97.406.97.909zm0 2.53l-1.938.035-.001-.035c0-.502.435-.911.969-.911.536 0 .97.409.97.911zm0 2.529l-1.938.036-.001-.036c0-.503.435-.911.969-.911.536 0 .97.408.97.911zm0 2.529l-1.938.036-.001-.036c0-.502.435-.909.969-.909.536 0 .97.407.97.909zm0 2.531l-1.938.035-.001-.035c0-.503.435-.911.969-.911.536 0 .97.408.97.911zm0 2.528l-1.938.036-.001-.036c0-.503.435-.909.969-.909.536 0 .97.406.97.909zm0 2.53l-1.938.035-.001-.035c0-.502.435-.91.969-.91.536 0 .97.408.97.91zm0 2.529l-1.938.037-.001-.037c0-.503.435-.91.969-.91.536 0 .97.407.97.91zm0 2.53l-1.938.035-.001-.035c0-.503.435-.91.969-.91.536 0 .97.407.97.91zm0 2.529l-1.938.037-.001-.037c0-.502.435-.91.969-.91.536 0 .97.408.97.91zM8.379 14.893l-1.937.036-.001-.036c0-.502.434-.91.969-.91.536 0 .969.408.969.91zm-1.937-2.494l-.001-.036c0-.503.434-.909.969-.909.536 0 .969.406.969.909l-1.937.036zm1.937 5.023l-1.937.035-.001-.035c0-.503.434-.909.969-.909.536 0 .969.406.969.909zm0 2.531l-1.937.034-.001-.034c0-.503.434-.912.969-.912.536 0 .969.409.969.912zm0 2.528l-1.937.037-.001-.037c0-.503.434-.91.969-.91.536 0 .969.407.969.91zm0 2.529l-1.937.036-.001-.036c0-.502.434-.909.969-.909.536 0 .969.407.969.909zm0 2.53l-1.937.037-.001-.037c0-.502.434-.91.969-.91.536 0 .969.408.969.91zm0 2.529l-1.937.036-.001-.036c0-.502.434-.909.969-.909.536 0 .969.407.969.909zm0 2.531l-1.937.035-.001-.035c0-.503.434-.911.969-.911.536 0 .969.408.969.911zm0 2.529l-1.937.036-.001-.036c0-.503.434-.911.969-.911.536 0 .969.408.969.911zm0 2.53l-1.937.035-.001-.035c0-.504.434-.91.969-.91.536 0 .969.406.969.91zm0 2.528l-1.937.037-.001-.037c0-.501.434-.91.969-.91.536 0 .969.409.969.91zm0 2.529l-1.937.037-.001-.037c0-.502.434-.909.969-.909.536 0 .969.407.969.909zm0 2.531l-1.937.036-.001-.036c0-.502.434-.911.969-.911.536 0 .969.409.969.911zm0 2.529l-1.937.035-.001-.035c0-.503.434-.909.969-.909.536 0 .969.406.969.909zm0 2.53l-1.937.035-.001-.035c0-.502.434-.911.969-.911.536 0 .969.409.969.911zm0 2.529l-1.937.036-.001-.036c0-.503.434-.911.969-.911.536 0 .969.408.969.911zm0 2.529l-1.937.036-.001-.036c0-.502.434-.909.969-.909.536 0 .969.407.969.909zm0 2.531l-1.937.035-.001-.035c0-.503.434-.911.969-.911.536 0 .969.408.969.911zm0 2.528l-1.937.036-.001-.036c0-.503.434-.909.969-.909.536 0 .969.406.969.909zm0 2.53l-1.937.035-.001-.035c0-.502.434-.91.969-.91.536 0 .969.408.969.91zm0 2.529l-1.937.037-.001-.037c0-.503.434-.91.969-.91.536 0 .969.407.969.91zm0 2.53l-1.937.035-.001-.035c0-.503.434-.91.969-.91.536 0 .969.407.969.91zm0 2.529l-1.937.037-.001-.037c0-.502.434-.91.969-.91.536 0 .969.408.969.91zM29.916 8.246V9.28H7.926V8.246c0-1.502-.869-2.6-1.843-2.921-.975-.321-1.528-.527-1.917-.709-.39-.182-.707-.519-.707-1.503 0-.983.634-1.364 1.82-1.364h27.284c1.186 0 1.82.381 1.82 1.364 0 .984-.317 1.321-.707 1.503-.389.182-.942.388-1.916.709-.975.321-1.844 1.419-1.844 2.921zm4.632 4.117l-1.938.036-.001-.036c0-.503.434-.909.969-.909.536 0 .97.406.97.909zm0 2.53l-1.938.036-.001-.036c0-.502.434-.91.969-.91.536 0 .97.408.97.91zm0 2.529l-1.938.035-.001-.035c0-.503.434-.909.969-.909.536 0 .97.406.97.909zm0 2.531l-1.938.034-.001-.034c0-.503.434-.912.969-.912.536 0 .97.409.97.912zm0 2.528l-1.938.037-.001-.037c0-.503.434-.91.969-.91.536 0 .97.407.97.91zm0 2.529l-1.938.036-.001-.036c0-.502.434-.909.969-.909.536 0 .97.407.97.909zm0 2.53l-1.938.037-.001-.037c0-.502.434-.91.969-.91.536 0 .97.408.97.91zm0 2.529l-1.938.036-.001-.036c0-.502.434-.909.969-.909.536 0 .97.407.97.909zm0 2.531l-1.938.035-.001-.035c0-.503.434-.911.969-.911.536 0 .97.408.97.911zm0 2.529l-1.938.036-.001-.036c0-.503.434-.911.969-.911.536 0 .97.408.97.911zm0 2.53l-1.938.035-.001-.035c0-.504.434-.91.969-.91.536 0 .97.406.97.91zm0 2.528l-1.938.037-.001-.037c0-.501.434-.91.969-.91.536 0 .97.409.97.91zm0 2.529l-1.938.037-.001-.037c0-.502.434-.909.969-.909.536 0 .97.407.97.909zm0 2.531l-1.938.036-.001-.036c0-.502.434-.911.969-.911.536 0 .97.409.97.911zm0 2.529l-1.938.035-.001-.035c0-.503.434-.909.969-.909.536 0 .97.406.97.909zm0 2.53l-1.938.035-.001-.035c0-.502.434-.911.969-.911.536 0 .97.409.97.911zm0 2.529l-1.938.036-.001-.036c0-.503.434-.911.969-.911.536 0 .97.408.97.911zm0 2.529l-1.938.036-.001-.036c0-.502.434-.909.969-.909.536 0 .97.407.97.909zm0 2.531l-1.938.035-.001-.035c0-.503.434-.911.969-.911.536 0 .97.408.97.911zm0 2.528l-1.938.036-.001-.036c0-.503.434-.909.969-.909.536 0 .97.406.97.909zm0 2.53l-1.938.035-.001-.035c0-.502.434-.91.969-.91.536 0 .97.408.97.91zm0 2.529l-1.938.037-.001-.037c0-.503.434-.91.969-.91.536 0 .97.407.97.91zm0 2.53l-1.938.035-.001-.035c0-.503.434-.91.969-.91.536 0 .97.407.97.91zm0 2.529l-1.938.037-.001-.037c0-.502.434-.91.969-.91.536 0 .97.408.97.91zM3.754 135.187c0-.5-.022-.989-.068-1.469-.022-.476-.091-.92-.205-1.331-.113-.407-.296-.762-.545-1.057-.228-.295-.547-.5-.956-.614-.25-.068-.514-.125-.786-.172-.273-.044-.534-.078-.784-.101-.137 0-.24-.057-.307-.171-.069-.112-.103-.237-.103-.375 0-.137.034-.262.103-.375.067-.112.17-.17.307-.17.773 0 1.468.022 2.082.066.614.046 1.329.07 2.15.07l3.857-.07c.91-.044 2.253-.066 3.071-.066.911 0 1.81.112 2.697.341.887.204 1.673.547 2.355 1.023.706.478 1.262 1.103 1.673 1.877.432.774.648 1.706.648 2.799 0 .863-.136 1.614-.409 2.252-.251.637-.603 1.184-1.059 1.639-.455.454-1.001.83-1.638 1.126-.614.273-1.763.49-2.492.649-.159.046-.238.125-.238.238 0 .09.079.182.238.274 1.069.521 2.367 1.102 2.935 1.739.592.637 1.036 1.298 1.331 1.98.32.683.548 1.387.684 2.116.137.706.284 1.398.443 2.082.114.523.296.911.546 1.161.274.227.547.341.819.341.273 0 .535-.114.785-.341.251-.229.444-.569.581-1.025.045-.181.137-.295.273-.341.136-.069.261-.079.375-.034.137.023.25.09.341.205.115.09.16.194.137.306-.068.57-.228 1.059-.478 1.468-.25.41-.557.751-.922 1.023-.341.25-.739.433-1.194.546-.433.137-2.237.426-3.425-.093-.616-.27-1.148-.668-1.525-1.544-.161-.377-.273-.807-.408-1.262l-.343-1.366-.341-1.365-.307-1.194c-.409-1.456-.944-2.503-1.605-3.14-.635-.637-1.535-.957-2.694-.957-.388 0-.717.081-.991.24-.273.159-.409.477-.409.956v4.607c0 .774.08 1.399.238 1.877.16.455.398.82.718 1.093.318.25.704.432 1.159.546.479.113 1.024.192 1.639.238.137 0 .238.068.307.205.091.114.137.249.137.408 0 .139-.046.264-.137.376-.069.115-.182.171-.342.171-1.136 0-2.138-.046-3.003-.136-.864-.09-1.707-.137-2.525-.137-.866 0-2.196.047-3.038.137-.842.09-1.662.136-2.457.136-.137 0-.239-.056-.308-.171-.068-.112-.114-.237-.136-.376 0-.135.033-.259.102-.375.068-.135.181-.215.342-.238.637-.067 1.16-.158 1.568-.273.411-.114.728-.295.956-.545.228-.251.375-.58.445-.991.091-.41.136-.956.136-1.638v-12.798zm156.927-.614c0-.706-.045-1.309-.136-1.809-.068-.5-.216-.91-.444-1.228-.227-.32-.557-.559-.989-.717-.409-.184-.968-.295-1.672-.342-.137 0-.24-.058-.308-.17-.067-.136-.102-.272-.102-.41 0-.137.035-.262.102-.375.068-.112.171-.17.308-.17.727 0 1.558.032 2.491.102.932.068 1.808.102 2.628.102.478 0 1.4-.012 1.808-.034l1.23-.068 1.229-.07c.409-.021.852-.032 1.33-.032.137 0 .228.058.274.17.068.113.092.238.068.375 0 .138-.034.274-.103.41-.068.112-.159.17-.273.17-.705.047-1.274.148-1.706.308-.432.136-.762.363-.99.681-.228.296-.375.695-.443 1.196-.069.501-.103 1.136-.103 1.911v13.378c0 .752.045 1.342.136 1.775.092.408.251.728.478.956.25.227.592.398 1.024.512.432.091.99.171 1.673.238.136.023.239.103.307.238.092.116.137.24.137.375 0 .139-.045.264-.137.376-.068.115-.182.171-.342.171-.91 0-1.786-.046-2.627-.136-.819-.09-2.116-.137-2.936-.137-.864 0-1.764.047-2.696.137-.91.09-1.741.136-2.492.136-.137 0-.239-.056-.307-.171-.068-.112-.102-.237-.102-.376 0-.135.034-.259.102-.375.068-.135.17-.215.307-.238.706-.067 1.263-.147 1.672-.238.432-.114.763-.285.99-.512.25-.228.41-.548.478-.956.091-.433.136-1.023.136-1.775v-13.378zm-53.004-5.119c.182 0 .352.023.513.068.181.046.25.227.203.546-.045.251-.068.536-.068.853v.954c0 1.025.035 1.981.103 2.868 0 .091-.057.171-.171.24-.091.045-.205.079-.341.101-.137 0-.273-.022-.41-.068-.114-.046-.182-.136-.205-.273-.159-.887-.318-1.58-.477-2.081-.16-.501-.387-.876-.683-1.126-.274-.275-.659-.445-1.16-.513-.478-.068-1.115-.113-1.911-.136h-2.048c-.592 0-1.07.012-1.434.034-.341.023-.616.114-.82.273-.204.136-.341.364-.409.681-.068.32-.103.762-.103 1.333v5.973c0 .318.058.523.171.613.114.069.228.103.341.103 1.047 0 1.866-.045 2.458-.138.615-.091 1.07-.25 1.366-.476.318-.251.523-.57.614-.956.114-.387.205-.887.273-1.501.023-.137.091-.24.205-.308.114-.067.238-.102.375-.102.136 0 .262.035.376.102.113.068.171.171.171.308 0 .364-.012.693-.035.99l-.068.851-.068.888c-.023.297-.035.649-.035 1.059 0 .682.035 1.308.103 1.876.068.547.103 1.218.103 2.013 0 .115-.058.206-.171.274-.114.046-.24.067-.376.067-.137-.021-.261-.055-.375-.101-.114-.069-.182-.17-.205-.307-.068-.659-.159-1.194-.273-1.604-.091-.411-.296-.717-.614-.922-.296-.227-.751-.374-1.366-.443-.592-.092-1.411-.137-2.458-.137-.113 0-.227.045-.341.137-.113.069-.171.227-.171.478v4.471c0 .728.045 1.353.137 1.876.114.5.274.921.477 1.263.206.319.457.579.752.784.296.183.65.32 1.058.411.319.068.671.125 1.058.17.41.023.831.034 1.263.034.546 0 1.058-.021 1.536-.068.477-.045.842-.114 1.092-.204.455-.16.841-.33 1.16-.513.341-.181.626-.42.854-.716.227-.296.409-.661.547-1.092.158-.455.283-1.025.375-1.706.021-.137.101-.229.237-.275.14-.045.286-.067.445-.067.158 0 .294.035.409.103.136.067.193.158.171.272l-.307 2.696c-.091.82-.126 1.661-.103 2.526 0 .068-.044.171-.136.307-.091.114-.307.17-.648.17H95.764c-.864 0-1.717.024-2.559.069l-2.219.136c-.182 0-.318-.056-.409-.171-.091-.09-.148-.204-.17-.34-.025-.16.011-.295.101-.411.091-.135.24-.215.445-.238.546-.067 1.011-.158 1.398-.273.387-.136.705-.318.955-.545.251-.251.435-.558.546-.922.138-.364.205-.831.205-1.4v-13.138c0-.502-.022-.99-.067-1.468-.024-.478-.091-.922-.205-1.331-.114-.41-.296-.763-.546-1.059-.228-.296-.546-.502-.955-.612-.251-.069-.513-.127-.785-.173-.274-.045-.536-.077-.785-.101-.137 0-.24-.058-.307-.17-.068-.115-.104-.24-.104-.375 0-.138.036-.263.104-.377.067-.114.17-.171.307-.171.773 0 1.466.022 2.082.067.614.047 1.33.07 2.15.07h12.731zm-27.475 18.497c0 .752.034 1.342.103 1.775.068.408.217.728.444.956.249.227.591.398 1.024.512.431.091 1.012.171 1.74.238.136.023.238.103.307.238.092.116.137.24.137.375 0 .139-.045.264-.137.376-.069.115-.183.171-.342.171-.91 0-1.785-.046-2.627-.136-.819-.09-2.117-.137-2.936-.137-.866 0-1.764.047-2.698.137-.908.09-1.739.136-2.489.136-.138 0-.241-.056-.308-.171-.068-.112-.102-.237-.102-.376 0-.135.034-.259.102-.375.067-.135.17-.215.308-.238.705-.067 1.262-.147 1.671-.238.432-.114.763-.285.991-.512.25-.228.408-.548.477-.956.091-.433.136-1.023.136-1.775v-15.153c0-.842-.216-1.366-.648-1.569-.411-.229-1.114-.342-2.117-.342-.841 0-1.056.068-1.602.204-.547.114-1.002.341-1.365.684-.342.317-.625.761-.853 1.331-.206.567-.399 1.307-.58 2.218-.023.136-.103.226-.239.273-.115.045-.239.068-.376.068-.114-.023-.227-.068-.342-.136-.09-.069-.136-.15-.136-.239.091-.843.136-1.697.136-2.561.022-.888-.022-1.763-.136-2.627 0-.25.158-.421.478-.513.319-.089.671-.135 1.057-.135h17.78c.433 0 .785.046 1.059.135.296.071.444.228.444.479-.047.271-.092.616-.138 1.023-.021.388-.033.82-.033 1.296 0 .48.012.968.033 1.469l.138 1.434c0 .089-.057.18-.171.272-.113.067-.239.114-.376.138-.136 0-.272-.024-.408-.071-.115-.044-.184-.135-.205-.271-.138-.911-.319-1.65-.546-2.219-.228-.593-.535-1.047-.922-1.364-.364-.343-.819-.57-1.366-.684-.544-.136-.715-.204-1.465-.204-1.025 0-1.764.113-2.218.342-.456.203-.684.727-.684 1.569v15.153zm-25.937-13.993c0 .684.136 1.264.408 1.742.297.454.661.842 1.093 1.159.455.318.945.602 1.468.852.545.229 1.069.456 1.57.685.864.409 1.718.841 2.559 1.296.865.456 1.639.99 2.321 1.604.683.591 1.229 1.309 1.637 2.15.433.82.65 1.82.65 3.004 0 1.182-.25 2.183-.751 3.003-.477.797-1.114 1.456-1.911 1.979-.774.501-1.65.864-2.629 1.092-.977.227-2.119.377-3.13.358-.635-.01-1.636-.121-2.433-.323-.797-.183-1.525-.467-2.184-.853l-.342-.137c-.09-.046-.215-.069-.376-.069-.158 0-.329.069-.511.206-.182.135-.342.375-.478.715-.068.138-.159.229-.273.273-.113.047-.239.057-.375.035-.114 0-.217-.035-.308-.104-.067-.066-.102-.147-.102-.238.069-.501.126-1.034.17-1.603.069-.591.103-1.183.103-1.776 0-.591-.022-1.182-.067-1.773-.024-.591-.08-1.207-.171-1.843-.023-.138.022-.25.135-.342.115-.091.24-.136.376-.136.137-.023.262 0 .375.068.137.046.217.136.24.272.136.934.385 1.788.749 2.562.938 1.993 2.581 2.685 3.262 2.981.707.295 1.468.444 2.287.444.616 0 1.196-.079 1.741-.24.569-.181 1.07-.431 1.502-.751.433-.339.719-.558.969-1.037.251-.477.376-1.035.376-1.671 0-.819-.181-1.536-.545-2.15-.341-.615-.774-1.139-1.297-1.57-.523-.455-1.102-.842-1.742-1.161-.636-.341-1.238-.647-1.807-.922-.751-.341-1.503-.694-2.254-1.057-.751-.364-1.421-.798-2.012-1.298-.593-.522-1.071-1.136-1.434-1.842-.365-.729-.546-1.627-.546-2.697 0-1.092.216-2.002.648-2.73.456-.75 1.047-1.354 1.775-1.808.728-.455 1.559-.785 2.492-.99.931-.205 1.9-.308 2.901-.308.636 0 1.171.047 1.604.138.455.067.955.192 1.501.375.297.091.535.171.716.238.206.047.398.069.582.069.272 0 .466-.113.579-.341.046-.091.126-.149.24-.171.136-.045.261-.057.375-.034.113 0 .216.023.306.069.092.045.125.112.103.204-.114.408-.193.819-.24 1.229-.021.409-.033.84-.033 1.297 0 .59.033 1.126.103 1.604.067.478.125 1.047.17 1.706 0 .068-.045.137-.136.205-.092.045-.205.079-.342.103-.113 0-.228-.024-.341-.071-.115-.044-.182-.124-.205-.237-.228-1.001-.477-1.82-.75-2.457-.273-.661-.608-.976-1.018-1.341-.408-.363-.91-.613-1.5-.751-.57-.135-1.05-.241-1.87-.241-.568 0-1.833.038-2.682.649-.395.284-.721.75-.95 1.205-.228.434-.341.934-.341 1.502zm-14.573-6.827c-.501 0-.921-.17-1.263-.51-.319-.365-.477-.796-.477-1.298 0-.478.17-.875.511-1.194.364-.318.773-.477 1.229-.477.455 0 .853.171 1.195.511.363.32.545.706.545 1.16 0 .502-.159.933-.477 1.298-.319.34-.741.51-1.263.51zm-6.041 0c-.524 0-.945-.17-1.263-.51-.319-.365-.478-.796-.478-1.298 0-.478.171-.875.512-1.194.364-.318.773-.477 1.229-.477.455 0 .853.171 1.194.511.365.32.547.706.547 1.16 0 .502-.171.933-.512 1.298-.319.34-.729.51-1.229.51zm11.775 16.246c0 1.48-.171 2.811-.512 3.994-.318 1.16-.843 2.15-1.57 2.968-.705.798-1.638 1.412-2.798 1.845-1.162.431-3.05.648-4.711.648-1.593 0-3.459-.161-4.642-.478-1.16-.319-2.128-.819-2.901-1.502-.751-.704-1.308-1.604-1.672-2.696-.365-1.115-.546-2.457-.546-4.028v-9.555c0-.706-.047-1.309-.137-1.809-.068-.5-.216-.91-.443-1.228-.228-.32-.558-.559-.99-.717-.41-.184-.968-.295-1.673-.342-.137 0-.239-.058-.307-.17-.068-.136-.102-.272-.102-.41 0-.137.034-.262.102-.375.068-.112.17-.17.307-.17.729 0 1.559.045 2.492.136.932.068 2.287.101 3.106.101.478 0 .922-.01 1.33-.033l1.229-.068c.411-.046.82-.078 1.229-.104.409-.021.853-.032 1.331-.032.137 0 .228.058.273.17.069.113.092.238.069.375 0 .138-.035.274-.103.41-.068.112-.159.17-.272.17-.706.047-1.275.148-1.707.308-.432.136-.762.363-.99.681-.228.296-.375.695-.443 1.196-.069.501-.103 1.136-.103 1.911v9.317c0 .954.125 1.865.375 2.73.251.864.626 1.627 1.127 2.287.523.636 1.171 1.149 1.945 1.536s1.683.58 2.73.58c2.208 0 3.89-.604 5.052-1.81 1.16-1.228 1.741-3.163 1.741-5.8v-7.1c0-.545-.012-1.08-.035-1.604-.022-.545-.056-1.057-.102-1.536-.046-.501-.114-.887-.205-1.161-.114-.387-.239-.67-.375-.852-.114-.205-.262-.353-.444-.444-.182-.091-.41-.136-.683-.136l-1.023-.103c-.114 0-.205-.058-.273-.17-.046-.136-.069-.272-.069-.41 0-.137.023-.262.069-.375.045-.112.135-.17.273-.17.545 0 1.126.045 1.74.136.615.068 1.24.101 1.877.101.592 0 1.66-.033 2.253-.101.592-.091 1.252-.136 1.98-.136.135 0 .237.058.305.17.07.113.103.238.103.375 0 .138-.033.274-.103.41-.068.112-.17.17-.305.17l-.991.103c-.228 0-.42.045-.58.136-.158.091-.307.239-.443.444-.114.182-.251.465-.41.852-.113.274-.204.65-.274 1.127-.043.478-.078.989-.101 1.535-.024.524-.034 1.059-.034 1.606.023.546.034 1.022.034 1.431v5.666zm-37.473-4.129c0 .591.158.944.478 1.058.341.092.841.138 1.501.138.887 0 1.627-.081 2.219-.24.614-.181 1.103-.467 1.467-.853.365-.409.614-.923.752-1.535.157-.639.238-1.412.238-2.322 0-.866-.081-1.592-.238-2.184-.16-.614-.422-1.104-.786-1.469-.341-.386-.796-.657-1.365-.818-.569-.158-1.263-.238-2.082-.238-.887 0-1.479.114-1.775.34-.273.228-.409.694-.409 1.401v6.722zm144.585-9.794c.182 0 .352.023.512.068.183.046.249.227.204.546-.046.251-.068.536-.068.853v.954c0 1.025.034 1.981.103 2.868 0 .091-.056.171-.17.24-.091.045-.205.079-.343.101-.136 0-.272-.022-.409-.068-.113-.046-.181-.136-.204-.273-.16-.887-.319-1.58-.479-2.081-.158-.501-.386-.876-.681-1.126-.274-.275-.66-.445-1.162-.513-.476-.068-1.114-.113-1.91-.136h-2.048c-.592 0-1.068.012-1.433.034-.342.023-.615.114-.819.273-.205.136-.342.364-.41.681-.069.32-.103.762-.103 1.333v5.973c0 .318.058.523.171.613.113.069.227.103.342.103 1.046 0 1.865-.045 2.456-.138.615-.091 1.07-.25 1.366-.476.319-.251.523-.57.614-.956.114-.387.206-.887.273-1.501.023-.137.091-.24.204-.308.114-.067.24-.102.377-.102.136 0 .261.035.375.102.113.068.171.171.171.308 0 .364-.012.693-.034.99l-.068.851-.069.888c-.022.297-.035.649-.035 1.059 0 .682.035 1.308.104 1.876.068.547.102 1.218.102 2.013 0 .115-.058.206-.171.274-.114.046-.239.067-.375.067-.137-.021-.263-.055-.377-.101-.113-.069-.181-.17-.204-.307-.067-.659-.159-1.194-.273-1.604-.091-.411-.295-.717-.614-.922-.296-.227-.751-.374-1.366-.443-.591-.092-1.41-.137-2.456-.137-.115 0-.229.045-.342.137-.113.069-.171.227-.171.478v4.471c0 .728.046 1.353.136 1.876.114.5.274.921.479 1.263.206.319.454.579.75.784.297.183.649.32 1.058.411.319.068.671.125 1.058.17.41.023.831.034 1.263.034.546 0 1.059-.021 1.537-.068.477-.045.841-.114 1.091-.204.455-.16.842-.33 1.161-.513.341-.181.626-.42.853-.716.229-.296.41-.661.546-1.092.158-.455.284-1.025.375-1.706.023-.137.102-.229.239-.275.137-.045.285-.067.444-.067.159 0 .295.035.41.103.137.067.193.158.171.272l-.308 2.696c-.092.82-.125 1.661-.102 2.526 0 .068-.046.171-.137.307-.091.114-.308.17-.649.17h-12.867c-.864 0-1.717.024-2.559.069l-2.219.136c-.182 0-.319-.056-.409-.171-.091-.09-.148-.204-.172-.34-.022-.16.013-.295.104-.411.09-.135.238-.215.444-.238.545-.067 1.011-.158 1.399-.273.386-.136.705-.318.955-.545.25-.251.432-.558.546-.922.136-.364.204-.831.204-1.4v-13.138c0-.502-.021-.99-.068-1.468-.022-.478-.09-.922-.203-1.331-.115-.41-.297-.763-.547-1.059-.228-.296-.547-.502-.956-.612-.25-.069-.512-.127-.785-.173-.274-.045-.534-.077-.785-.101-.136 0-.239-.058-.308-.17-.067-.115-.102-.24-.102-.375 0-.138.035-.263.102-.377.069-.114.172-.171.308-.171.773 0 1.467.022 2.082.067.616.047 1.331.07 2.15.07h12.731zm-32.732 9.794c0 .591.16.944.478 1.058.342.092.842.138 1.502.138.888 0 1.627-.081 2.219-.24.614-.181 1.104-.467 1.468-.853.362-.409.614-.923.749-1.535.16-.639.239-1.412.239-2.322 0-.866-.079-1.592-.239-2.184-.157-.614-.42-1.104-.783-1.469-.342-.386-.797-.657-1.366-.818-.569-.158-1.263-.238-2.083-.238-.887 0-1.478.114-1.774.34-.273.228-.41.694-.41 1.401v6.722zm-4.198-4.061c0-.5-.022-.989-.069-1.469-.022-.476-.09-.92-.204-1.331-.113-.407-.296-.762-.546-1.057-.227-.295-.547-.5-.955-.614-.25-.068-.512-.125-.785-.172-.274-.044-.536-.078-.785-.101-.137 0-.239-.057-.308-.171-.068-.112-.103-.237-.103-.375 0-.137.035-.262.103-.375.069-.112.171-.17.308-.17.772 0 1.468.022 2.081.066.615.046 1.331.07 2.151.07l3.856-.07c.91-.044 2.254-.066 3.073-.066.911 0 1.809.112 2.696.341.888.204 1.672.547 2.355 1.023.705.478 1.263 1.103 1.673 1.877.431.774.648 1.706.648 2.799 0 .863-.137 1.614-.411 2.252-.25.637-.601 1.184-1.056 1.639-.457.454-1.002.83-1.638 1.126-.616.273-1.764.49-2.492.649-.16.046-.24.125-.24.238 0 .09.08.182.24.274 1.068.521 2.367 1.102 2.934 1.739.593.637 1.037 1.298 1.331 1.98.32.683.546 1.387.684 2.116.136.706.284 1.398.442 2.082.114.523.297.911.547 1.161.274.227.546.341.82.341.273 0 .534-.114.784-.341.251-.229.443-.569.58-1.025.045-.181.137-.295.274-.341.136-.069.262-.079.375-.034.137.023.25.09.341.205.114.09.16.194.136.306-.068.57-.227 1.059-.477 1.468-.251.41-.558.751-.922 1.023-.34.25-.739.433-1.193.546-.434.137-2.238.426-3.427-.093-.614-.27-1.148-.668-1.524-1.544-.162-.377-.273-.807-.409-1.262l-.341-1.366-.341-1.365-.308-1.194c-.409-1.456-.945-2.503-1.604-3.14-.637-.637-1.535-.957-2.696-.957-.386 0-.717.081-.99.24-.273.159-.41.477-.41.956v4.607c0 .774.081 1.399.24 1.877.159.455.398.82.716 1.093.318.25.706.432 1.16.546.479.113 1.024.192 1.639.238.136 0 .239.068.307.205.091.114.137.249.137.408 0 .139-.046.264-.137.376-.068.115-.182.171-.341.171-1.138 0-2.14-.046-3.003-.136-.866-.09-1.707-.137-2.527-.137-.864 0-2.195.047-3.037.137-.842.09-1.661.136-2.457.136-.138 0-.239-.056-.307-.171-.069-.112-.115-.237-.137-.376 0-.135.034-.259.102-.375.07-.135.182-.215.342-.238.637-.067 1.16-.158 1.569-.273.411-.114.728-.295.955-.545.228-.251.377-.58.445-.991.092-.41.136-.956.136-1.638v-12.798z" fill-rule="nonzero"/></svg>