<?xml version="1.0" encoding="utf-8"?>
<!-- Generator: Adobe Illustrator 19.0.0, SVG Export Plug-In . SVG Version: 6.00 Build 0)  -->
<!DOCTYPE svg PUBLIC "-//W3C//DTD SVG 1.1//EN" "http://www.w3.org/Graphics/SVG/1.1/DTD/svg11.dtd">
<svg version="1.1" id="Ebene_1" xmlns="http://www.w3.org/2000/svg" xmlns:xlink="http://www.w3.org/1999/xlink" x="0px" y="0px"
	 width="173.9px" height="100px" viewBox="-22 271 173.9 100" style="enable-background:new -22 271 173.9 100;"
	 xml:space="preserve">
<style type="text/css">
	.st0{fill:#12596D;}
	.st1{opacity:0.7;}
</style>
<g>
	<path class="st0" d="M4.1,340.1c1.8,5.6,3.9,10.2,7.9,10.2c2.8,0,3.8-1.7,3.8-3.5c0-6.7-15.4-6.7-15.4-16.4c0-4.1,2.9-9.9,12.8-9.9
		c4.6,0,8.3,0.8,12.5,2.6v9.1h-3.9c-1.1-2.6-3.3-8.3-6.8-8.3c-1.7,0-3,1.2-3,3.3c0,6.9,14.8,7,14.8,16.6c0,5.1-4.2,10.4-14,10.4
		c-4.7,0-8.1-1.7-12.2-3.3l-0.7-10.9H4.1z"/>
</g>
<g>
	<path class="st0" d="M50,331.4c0-3.2-0.3-6.9-3.9-6.9c-3.6,0-4.5,3.7-4.6,6.9H50z M41.6,335.4c1.1,7.9,7.6,10.2,11.3,10.2
		c3.3,0,5-0.9,7.7-3.8l2.3,1.8c-5.3,8.8-10.7,10.7-17.5,10.7c-7.9,0-15.5-6.2-15.5-15.8c0-10.7,8.7-17.9,18.1-17.9
		c9.5,0,12.9,5.7,13.5,12.1c0.1,0.8,0.1,1.9,0.1,2.7H41.6z"/>
</g>
<g>
	<path class="st0" d="M120.9,327.7h-8.6v19.7c0,2,0.6,3.4,8.3,4v2.9c-6.5-0.1-10.5-0.1-14.5-0.1c-4.1,0-8.1,0.1-13,0.1v-2.9
		c5.5-1.4,6.3-2,6.3-4v-19.7h-6.3v-3.2l6.5-3.1c0.8-6.5,3.7-18,19.6-18c5.1,0,10,2.6,10,6.5c0,3.7-2.9,6.2-7,6.2
		c-0.6,0-1.2-0.1-1.5-0.3c-0.7-1.5-4.3-7.5-6.1-7.5c-1.3,0-2.2,1.1-2.2,6.7v7.4h8.6V327.7z"/>
</g>
<g>
	<path class="st0" d="M89.5,354.5c-4-0.1-7.9-0.1-11.8-0.1c-4,0-7.9,0.1-11.8,0.1v-3c4.5-1.4,5.3-2,5.3-4v-11.8
		c0-2.3-1.1-2.8-5.2-5.9v-2.6l16-6.6l2.2,2.3c-0.2,5.1-0.4,10.9-0.4,18.8v5.9c0,2,0.9,2.6,5.7,4V354.5z"/>
</g>
<g class="st1">
	<polygon class="st0" points="71.2,302.5 90.1,310 71.2,317.5 	"/>
</g>
<g>
	<path class="st0" d="M52.2,290.3c0,0.2,0.1,0.3,0.1,0.4c0.1,0.2,0.4,0.3,0.7,0.3c0.2,0,0.4,0,0.5-0.1c0.2-0.1,0.2-0.2,0.2-0.4
		c0-0.1-0.1-0.2-0.2-0.3c-0.1,0-0.2-0.1-0.5-0.2l-0.4-0.1c-0.3-0.1-0.5-0.1-0.6-0.2c-0.2-0.1-0.4-0.3-0.4-0.6c0-0.3,0.1-0.5,0.3-0.7
		c0.2-0.2,0.5-0.3,0.9-0.3c0.5,0,0.8,0.1,1.1,0.4c0.1,0.2,0.2,0.4,0.2,0.6h-0.5c0-0.1-0.1-0.2-0.1-0.3c-0.1-0.1-0.3-0.2-0.7-0.2
		c-0.2,0-0.4,0-0.5,0.1s-0.2,0.2-0.2,0.3c0,0.1,0.1,0.2,0.2,0.3c0.1,0,0.2,0.1,0.4,0.1l0.4,0.1c0.4,0.1,0.7,0.2,0.8,0.3
		c0.2,0.1,0.3,0.4,0.3,0.6c0,0.3-0.1,0.5-0.3,0.7c-0.2,0.2-0.5,0.3-1,0.3c-0.5,0-0.8-0.1-1-0.3s-0.3-0.5-0.3-0.8H52.2z"/>
	<path class="st0" d="M57.3,288.4c0.3,0.3,0.4,0.7,0.4,1.2c0,0.5-0.1,0.9-0.4,1.3s-0.6,0.5-1.2,0.5c-0.4,0-0.8-0.1-1-0.4
		c-0.3-0.3-0.4-0.7-0.4-1.2c0-0.5,0.1-1,0.4-1.3c0.3-0.3,0.6-0.5,1.1-0.5C56.6,288,57,288.1,57.3,288.4z M56.9,290.5
		c0.1-0.3,0.2-0.6,0.2-0.9c0-0.3,0-0.5-0.1-0.7c-0.1-0.3-0.4-0.4-0.8-0.4c-0.3,0-0.6,0.1-0.7,0.4c-0.1,0.2-0.2,0.5-0.2,0.9
		c0,0.3,0.1,0.6,0.2,0.8c0.1,0.2,0.4,0.3,0.7,0.3C56.6,290.9,56.8,290.8,56.9,290.5z"/>
	<path class="st0" d="M60.4,288.3c0.2,0.2,0.4,0.5,0.4,0.9h-0.5c0-0.2-0.1-0.4-0.2-0.5c-0.1-0.1-0.3-0.2-0.5-0.2
		c-0.3,0-0.6,0.2-0.7,0.5c-0.1,0.2-0.1,0.5-0.1,0.8c0,0.3,0.1,0.6,0.2,0.8c0.1,0.2,0.3,0.3,0.6,0.3c0.2,0,0.4-0.1,0.5-0.2
		c0.1-0.1,0.2-0.3,0.3-0.6h0.5c-0.1,0.4-0.2,0.7-0.4,0.9c-0.2,0.2-0.5,0.3-0.9,0.3c-0.4,0-0.7-0.2-1-0.5c-0.2-0.3-0.4-0.7-0.4-1.1
		c0-0.6,0.1-1,0.4-1.3c0.3-0.3,0.6-0.5,1-0.5C59.9,288,60.2,288.1,60.4,288.3z"/>
	<path class="st0" d="M61.4,286.9h0.5v0.6h-0.5V286.9z M61.4,288.1h0.5v3.2h-0.5V288.1z"/>
	<path class="st0" d="M64.4,289.3c0.1,0,0.2-0.1,0.2-0.2c0,0,0-0.1,0-0.2c0-0.2-0.1-0.3-0.2-0.4c-0.1-0.1-0.3-0.1-0.6-0.1
		c-0.3,0-0.5,0.1-0.6,0.2c-0.1,0.1-0.1,0.2-0.1,0.4h-0.5c0-0.4,0.1-0.7,0.4-0.8c0.2-0.2,0.5-0.2,0.8-0.2c0.4,0,0.7,0.1,0.9,0.2
		c0.2,0.1,0.3,0.4,0.3,0.7v1.8c0,0.1,0,0.1,0,0.1c0,0,0.1,0,0.1,0c0,0,0.1,0,0.1,0c0,0,0.1,0,0.1,0v0.4c-0.1,0-0.1,0-0.2,0
		s-0.1,0-0.2,0c-0.2,0-0.3-0.1-0.4-0.2c0-0.1-0.1-0.2-0.1-0.3c-0.1,0.1-0.3,0.3-0.5,0.4c-0.2,0.1-0.4,0.2-0.7,0.2
		c-0.3,0-0.5-0.1-0.7-0.3c-0.2-0.2-0.3-0.4-0.3-0.7c0-0.3,0.1-0.5,0.3-0.7c0.2-0.2,0.4-0.3,0.7-0.3L64.4,289.3z M63.3,290.8
		c0.1,0.1,0.2,0.1,0.4,0.1c0.2,0,0.4,0,0.5-0.1c0.3-0.1,0.4-0.4,0.4-0.7v-0.4c-0.1,0-0.1,0.1-0.3,0.1c-0.1,0-0.2,0-0.3,0.1l-0.3,0
		c-0.2,0-0.3,0.1-0.4,0.1c-0.2,0.1-0.2,0.2-0.2,0.4C63.1,290.6,63.2,290.7,63.3,290.8z"/>
	<path class="st0" d="M66.1,286.9h0.5v4.4h-0.5V286.9z"/>
	<path class="st0" d="M23.5,295.5c0.2,0.1,0.4,0.2,0.5,0.4c0.1,0.2,0.2,0.3,0.2,0.6c0,0.1,0,0.4,0,0.7h-2.3c0,0.3,0.1,0.6,0.2,0.8
		c0.1,0.2,0.4,0.3,0.7,0.3c0.3,0,0.5-0.1,0.7-0.3c0.1-0.1,0.2-0.2,0.2-0.4h0.5c0,0.1-0.1,0.2-0.1,0.4s-0.2,0.3-0.3,0.4
		c-0.2,0.2-0.4,0.3-0.6,0.3c-0.1,0-0.3,0-0.4,0c-0.4,0-0.7-0.1-1-0.4s-0.4-0.7-0.4-1.2c0-0.5,0.1-0.9,0.4-1.2
		c0.3-0.3,0.6-0.5,1.1-0.5C23,295.3,23.2,295.4,23.5,295.5z M23.7,296.7c0-0.2-0.1-0.4-0.1-0.6c-0.1-0.3-0.4-0.4-0.7-0.4
		c-0.2,0-0.4,0.1-0.6,0.3c-0.2,0.2-0.3,0.4-0.3,0.7H23.7z"/>
	<path class="st0" d="M24.9,295.4h0.5v0.5c0.2-0.2,0.3-0.3,0.5-0.4c0.2-0.1,0.4-0.1,0.6-0.1c0.5,0,0.8,0.2,0.9,0.5
		c0.1,0.2,0.1,0.4,0.1,0.7v2h-0.5v-2c0-0.2,0-0.4-0.1-0.5c-0.1-0.2-0.3-0.3-0.5-0.3c-0.1,0-0.2,0-0.3,0c-0.1,0-0.3,0.1-0.4,0.3
		c-0.1,0.1-0.1,0.2-0.2,0.3c0,0.1,0,0.3,0,0.5v1.7h-0.5V295.4z"/>
	<path class="st0" d="M28.4,294.5h0.5v0.9h0.5v0.4h-0.5v2.1c0,0.1,0,0.2,0.1,0.2c0,0,0.1,0,0.2,0c0,0,0.1,0,0.1,0c0,0,0.1,0,0.1,0
		v0.4c-0.1,0-0.1,0-0.2,0c-0.1,0-0.1,0-0.2,0c-0.2,0-0.4-0.1-0.5-0.2c-0.1-0.1-0.1-0.3-0.1-0.5v-2.1h-0.4v-0.4h0.4V294.5z"/>
	<path class="st0" d="M31.9,295.5c0.2,0.1,0.4,0.2,0.5,0.4c0.1,0.2,0.2,0.3,0.2,0.6c0,0.1,0,0.4,0,0.7h-2.3c0,0.3,0.1,0.6,0.2,0.8
		c0.1,0.2,0.4,0.3,0.7,0.3c0.3,0,0.5-0.1,0.7-0.3c0.1-0.1,0.2-0.2,0.2-0.4h0.5c0,0.1-0.1,0.2-0.1,0.4s-0.2,0.3-0.3,0.4
		c-0.2,0.2-0.4,0.3-0.6,0.3c-0.1,0-0.3,0-0.4,0c-0.4,0-0.7-0.1-1-0.4s-0.4-0.7-0.4-1.2c0-0.5,0.1-0.9,0.4-1.2
		c0.3-0.3,0.6-0.5,1.1-0.5C31.5,295.3,31.7,295.4,31.9,295.5z M32.1,296.7c0-0.2-0.1-0.4-0.1-0.6c-0.1-0.3-0.4-0.4-0.7-0.4
		c-0.2,0-0.4,0.1-0.6,0.3c-0.2,0.2-0.3,0.4-0.3,0.7H32.1z"/>
	<path class="st0" d="M33.3,295.4h0.5v0.5c0-0.1,0.1-0.2,0.3-0.4s0.3-0.2,0.6-0.2c0,0,0,0,0.1,0c0,0,0.1,0,0.1,0v0.6
		c0,0-0.1,0-0.1,0c0,0-0.1,0-0.1,0c-0.3,0-0.5,0.1-0.6,0.3c-0.1,0.2-0.2,0.4-0.2,0.6v1.8h-0.5V295.4z"/>
	<path class="st0" d="M35.3,295.4h0.5v0.4c0.1-0.1,0.2-0.3,0.4-0.3c0.2-0.1,0.4-0.2,0.6-0.2c0.4,0,0.7,0.1,0.9,0.4s0.4,0.7,0.4,1.2
		c0,0.7-0.2,1.2-0.5,1.5c-0.2,0.2-0.5,0.3-0.8,0.3c-0.2,0-0.4-0.1-0.6-0.2c-0.1-0.1-0.2-0.2-0.3-0.3v1.6h-0.5V295.4z M37.3,297.9
		c0.2-0.2,0.2-0.5,0.2-0.9c0-0.3,0-0.5-0.1-0.7c-0.1-0.3-0.4-0.5-0.8-0.5c-0.4,0-0.6,0.2-0.8,0.6c-0.1,0.2-0.1,0.4-0.1,0.8
		c0,0.2,0,0.5,0.1,0.6c0.1,0.3,0.4,0.5,0.8,0.5C36.9,298.2,37.2,298.1,37.3,297.9z"/>
	<path class="st0" d="M38.8,295.4h0.5v0.5c0-0.1,0.1-0.2,0.3-0.4s0.3-0.2,0.6-0.2c0,0,0,0,0.1,0c0,0,0.1,0,0.1,0v0.6
		c0,0-0.1,0-0.1,0c0,0-0.1,0-0.1,0c-0.3,0-0.5,0.1-0.6,0.3c-0.1,0.2-0.2,0.4-0.2,0.6v1.8h-0.5V295.4z"/>
	<path class="st0" d="M42.7,295.5c0.2,0.1,0.4,0.2,0.5,0.4c0.1,0.2,0.2,0.3,0.2,0.6c0,0.1,0,0.4,0,0.7h-2.3c0,0.3,0.1,0.6,0.2,0.8
		c0.1,0.2,0.4,0.3,0.7,0.3c0.3,0,0.5-0.1,0.7-0.3c0.1-0.1,0.2-0.2,0.2-0.4h0.5c0,0.1-0.1,0.2-0.1,0.4s-0.2,0.3-0.3,0.4
		c-0.2,0.2-0.4,0.3-0.6,0.3c-0.1,0-0.3,0-0.4,0c-0.4,0-0.7-0.1-1-0.4s-0.4-0.7-0.4-1.2c0-0.5,0.1-0.9,0.4-1.2
		c0.3-0.3,0.6-0.5,1.1-0.5C42.3,295.3,42.5,295.4,42.7,295.5z M42.9,296.7c0-0.2-0.1-0.4-0.1-0.6c-0.1-0.3-0.4-0.4-0.7-0.4
		c-0.2,0-0.4,0.1-0.6,0.3c-0.2,0.2-0.3,0.4-0.3,0.7H42.9z"/>
	<path class="st0" d="M44.1,295.4h0.5v0.5c0.2-0.2,0.3-0.3,0.5-0.4c0.2-0.1,0.4-0.1,0.6-0.1c0.5,0,0.8,0.2,0.9,0.5
		c0.1,0.2,0.1,0.4,0.1,0.7v2h-0.5v-2c0-0.2,0-0.4-0.1-0.5c-0.1-0.2-0.3-0.3-0.5-0.3c-0.1,0-0.2,0-0.3,0c-0.1,0-0.3,0.1-0.4,0.3
		c-0.1,0.1-0.1,0.2-0.2,0.3c0,0.1,0,0.3,0,0.5v1.7h-0.5V295.4z"/>
	<path class="st0" d="M49.5,295.5c0.2,0.1,0.4,0.2,0.5,0.4c0.1,0.2,0.2,0.3,0.2,0.6c0,0.1,0,0.4,0,0.7h-2.3c0,0.3,0.1,0.6,0.2,0.8
		c0.1,0.2,0.4,0.3,0.7,0.3c0.3,0,0.5-0.1,0.7-0.3c0.1-0.1,0.2-0.2,0.2-0.4h0.5c0,0.1-0.1,0.2-0.1,0.4s-0.2,0.3-0.3,0.4
		c-0.2,0.2-0.4,0.3-0.6,0.3c-0.1,0-0.3,0-0.4,0c-0.4,0-0.7-0.1-1-0.4s-0.4-0.7-0.4-1.2c0-0.5,0.1-0.9,0.4-1.2
		c0.3-0.3,0.6-0.5,1.1-0.5C49.1,295.3,49.3,295.4,49.5,295.5z M49.7,296.7c0-0.2-0.1-0.4-0.1-0.6c-0.1-0.3-0.4-0.4-0.7-0.4
		c-0.2,0-0.4,0.1-0.6,0.3c-0.2,0.2-0.3,0.4-0.3,0.7H49.7z"/>
	<path class="st0" d="M51.4,295.4v2.1c0,0.2,0,0.3,0.1,0.4c0.1,0.2,0.3,0.3,0.5,0.3c0.4,0,0.6-0.2,0.7-0.5c0.1-0.2,0.1-0.4,0.1-0.7
		v-1.6h0.5v3.2h-0.5l0-0.5c-0.1,0.1-0.2,0.2-0.3,0.3c-0.2,0.2-0.4,0.2-0.7,0.2c-0.4,0-0.7-0.2-0.9-0.5c-0.1-0.2-0.1-0.4-0.1-0.7
		v-2.2H51.4z"/>
	<path class="st0" d="M54.3,295.4h0.5v0.5c0-0.1,0.1-0.2,0.3-0.4s0.3-0.2,0.6-0.2c0,0,0,0,0.1,0c0,0,0.1,0,0.1,0v0.6
		c0,0-0.1,0-0.1,0c0,0-0.1,0-0.1,0c-0.3,0-0.5,0.1-0.6,0.3c-0.1,0.2-0.2,0.4-0.2,0.6v1.8h-0.5V295.4z"/>
	<path class="st0" d="M56.6,297.6c0,0.2,0.1,0.3,0.1,0.4c0.1,0.2,0.4,0.3,0.7,0.3c0.2,0,0.4,0,0.5-0.1c0.2-0.1,0.2-0.2,0.2-0.4
		c0-0.1-0.1-0.2-0.2-0.3c-0.1,0-0.2-0.1-0.5-0.2l-0.4-0.1c-0.3-0.1-0.5-0.1-0.6-0.2c-0.2-0.1-0.4-0.3-0.4-0.6c0-0.3,0.1-0.5,0.3-0.7
		c0.2-0.2,0.5-0.3,0.9-0.3c0.5,0,0.8,0.1,1.1,0.4c0.1,0.2,0.2,0.4,0.2,0.6h-0.5c0-0.1-0.1-0.2-0.1-0.3c-0.1-0.1-0.3-0.2-0.7-0.2
		c-0.2,0-0.4,0-0.5,0.1s-0.2,0.2-0.2,0.3c0,0.1,0.1,0.2,0.2,0.3c0.1,0,0.2,0.1,0.4,0.1l0.4,0.1c0.4,0.1,0.7,0.2,0.8,0.3
		c0.2,0.1,0.3,0.4,0.3,0.6c0,0.3-0.1,0.5-0.3,0.7c-0.2,0.2-0.5,0.3-1,0.3c-0.5,0-0.8-0.1-1-0.3s-0.3-0.5-0.3-0.8H56.6z"/>
	<path class="st0" d="M59.4,294.2h0.5v1.6c0.1-0.2,0.2-0.3,0.3-0.3c0.2-0.1,0.4-0.2,0.6-0.2c0.5,0,0.8,0.2,0.9,0.5
		c0.1,0.2,0.1,0.4,0.1,0.7v2h-0.5v-2c0-0.2,0-0.4-0.1-0.5c-0.1-0.2-0.3-0.3-0.5-0.3c-0.2,0-0.4,0.1-0.6,0.2
		c-0.2,0.2-0.3,0.4-0.3,0.9v1.7h-0.5V294.2z"/>
	<path class="st0" d="M62.7,294.2h0.5v0.6h-0.5V294.2z M62.7,295.4h0.5v3.2h-0.5V295.4z"/>
	<path class="st0" d="M64,295.4h0.5v0.4c0.1-0.1,0.2-0.3,0.4-0.3c0.2-0.1,0.4-0.2,0.6-0.2c0.4,0,0.7,0.1,0.9,0.4s0.4,0.7,0.4,1.2
		c0,0.7-0.2,1.2-0.5,1.5c-0.2,0.2-0.5,0.3-0.8,0.3c-0.2,0-0.4-0.1-0.6-0.2c-0.1-0.1-0.2-0.2-0.3-0.3v1.6H64V295.4z M66.1,297.9
		c0.2-0.2,0.2-0.5,0.2-0.9c0-0.3,0-0.5-0.1-0.7c-0.1-0.3-0.4-0.5-0.8-0.5c-0.4,0-0.6,0.2-0.8,0.6c-0.1,0.2-0.1,0.4-0.1,0.8
		c0,0.2,0,0.5,0.1,0.6c0.1,0.3,0.4,0.5,0.8,0.5C65.7,298.2,65.9,298.1,66.1,297.9z"/>
	<path class="st0" d="M9.7,301.5h0.5v0.6H9.7V301.5z M9.7,302.7h0.5v3.2H9.7V302.7z"/>
	<path class="st0" d="M11,302.7h0.5v0.5c0.2-0.2,0.3-0.3,0.5-0.4c0.2-0.1,0.4-0.1,0.6-0.1c0.5,0,0.8,0.2,0.9,0.5
		c0.1,0.2,0.1,0.4,0.1,0.7v2h-0.5v-2c0-0.2,0-0.4-0.1-0.5c-0.1-0.2-0.3-0.3-0.5-0.3c-0.1,0-0.2,0-0.3,0c-0.1,0-0.3,0.1-0.4,0.3
		c-0.1,0.1-0.1,0.2-0.2,0.3c0,0.1,0,0.3,0,0.5v1.7H11V302.7z"/>
	<path class="st0" d="M14.4,301.5h0.5v0.6h-0.5V301.5z M14.4,302.7h0.5v3.2h-0.5V302.7z"/>
	<path class="st0" d="M15.9,301.8h0.5v0.9h0.5v0.4h-0.5v2.1c0,0.1,0,0.2,0.1,0.2c0,0,0.1,0,0.2,0c0,0,0.1,0,0.1,0c0,0,0.1,0,0.1,0
		v0.4c-0.1,0-0.1,0-0.2,0c-0.1,0-0.1,0-0.2,0c-0.2,0-0.4-0.1-0.5-0.2c-0.1-0.1-0.1-0.3-0.1-0.5v-2.1h-0.4v-0.4h0.4V301.8z"/>
	<path class="st0" d="M17.4,301.5H18v0.6h-0.5V301.5z M17.4,302.7H18v3.2h-0.5V302.7z"/>
	<path class="st0" d="M20.5,303.9c0.1,0,0.2-0.1,0.2-0.2c0,0,0-0.1,0-0.2c0-0.2-0.1-0.3-0.2-0.4c-0.1-0.1-0.3-0.1-0.6-0.1
		c-0.3,0-0.5,0.1-0.6,0.2c-0.1,0.1-0.1,0.2-0.1,0.4h-0.5c0-0.4,0.1-0.7,0.4-0.8c0.2-0.2,0.5-0.2,0.8-0.2c0.4,0,0.7,0.1,0.9,0.2
		c0.2,0.1,0.3,0.4,0.3,0.7v1.8c0,0.1,0,0.1,0,0.1c0,0,0.1,0,0.1,0c0,0,0.1,0,0.1,0c0,0,0.1,0,0.1,0v0.4c-0.1,0-0.1,0-0.2,0
		s-0.1,0-0.2,0c-0.2,0-0.3-0.1-0.4-0.2c0-0.1-0.1-0.2-0.1-0.3c-0.1,0.1-0.3,0.3-0.5,0.4c-0.2,0.1-0.4,0.2-0.7,0.2
		c-0.3,0-0.5-0.1-0.7-0.3c-0.2-0.2-0.3-0.4-0.3-0.7c0-0.3,0.1-0.5,0.3-0.7c0.2-0.2,0.4-0.3,0.7-0.3L20.5,303.9z M19.4,305.4
		c0.1,0.1,0.2,0.1,0.4,0.1c0.2,0,0.4,0,0.5-0.1c0.3-0.1,0.4-0.4,0.4-0.7v-0.4c-0.1,0-0.1,0.1-0.3,0.1c-0.1,0-0.2,0-0.3,0.1l-0.3,0
		c-0.2,0-0.3,0.1-0.4,0.1c-0.2,0.1-0.2,0.2-0.2,0.4C19.2,305.2,19.3,305.3,19.4,305.4z"/>
	<path class="st0" d="M22.3,301.8h0.5v0.9h0.5v0.4h-0.5v2.1c0,0.1,0,0.2,0.1,0.2c0,0,0.1,0,0.2,0c0,0,0.1,0,0.1,0c0,0,0.1,0,0.1,0
		v0.4c-0.1,0-0.1,0-0.2,0c-0.1,0-0.1,0-0.2,0c-0.2,0-0.4-0.1-0.5-0.2c-0.1-0.1-0.1-0.3-0.1-0.5v-2.1h-0.4v-0.4h0.4V301.8z"/>
	<path class="st0" d="M23.9,301.5h0.5v0.6h-0.5V301.5z M23.9,302.7h0.5v3.2h-0.5V302.7z"/>
	<path class="st0" d="M25.5,302.7l0.8,2.6l0.9-2.6h0.6l-1.2,3.2H26l-1.2-3.2H25.5z"/>
	<path class="st0" d="M30.2,302.8c0.2,0.1,0.4,0.2,0.5,0.4c0.1,0.2,0.2,0.3,0.2,0.6c0,0.1,0,0.4,0,0.7h-2.3c0,0.3,0.1,0.6,0.2,0.8
		c0.1,0.2,0.4,0.3,0.7,0.3c0.3,0,0.5-0.1,0.7-0.3c0.1-0.1,0.2-0.2,0.2-0.4h0.5c0,0.1-0.1,0.2-0.1,0.4s-0.2,0.3-0.3,0.4
		c-0.2,0.2-0.4,0.3-0.6,0.3c-0.1,0-0.3,0-0.4,0c-0.4,0-0.7-0.1-1-0.4s-0.4-0.7-0.4-1.2c0-0.5,0.1-0.9,0.4-1.2
		c0.3-0.3,0.6-0.5,1.1-0.5C29.8,302.6,30,302.7,30.2,302.8z M30.4,304c0-0.2-0.1-0.4-0.1-0.6c-0.1-0.3-0.4-0.4-0.7-0.4
		c-0.2,0-0.4,0.1-0.6,0.3c-0.2,0.2-0.3,0.4-0.3,0.7H30.4z"/>
	<path class="st0" d="M33.8,302.9c-0.1-0.1-0.1-0.3-0.1-0.4c0-0.3,0.1-0.5,0.3-0.7c0.2-0.2,0.4-0.3,0.8-0.3c0.3,0,0.5,0.1,0.7,0.3
		c0.2,0.2,0.3,0.4,0.3,0.6c0,0.3-0.1,0.5-0.3,0.7c-0.1,0.1-0.3,0.3-0.5,0.4l0.8,1c0.1-0.2,0.1-0.3,0.1-0.4s0-0.2,0.1-0.3h0.5
		c0,0.3-0.1,0.5-0.2,0.8c-0.1,0.3-0.2,0.4-0.2,0.3l0.8,0.9h-0.7l-0.4-0.5c-0.2,0.2-0.3,0.3-0.4,0.4c-0.2,0.1-0.5,0.2-0.8,0.2
		c-0.5,0-0.8-0.1-1-0.4s-0.3-0.5-0.3-0.8c0-0.3,0.1-0.6,0.3-0.8c0.1-0.1,0.4-0.3,0.7-0.5C34,303.2,33.9,303,33.8,302.9z M35.1,305.3
		c0.2-0.1,0.3-0.2,0.4-0.3l-1-1.2c-0.3,0.2-0.5,0.3-0.5,0.4c-0.1,0.1-0.2,0.3-0.2,0.5c0,0.2,0.1,0.4,0.3,0.5
		c0.2,0.1,0.3,0.2,0.5,0.2C34.7,305.5,34.9,305.4,35.1,305.3z M35,302.9c0.1-0.1,0.2-0.3,0.2-0.4c0-0.1,0-0.2-0.1-0.3
		s-0.2-0.1-0.3-0.1c-0.2,0-0.4,0.1-0.5,0.2c0,0.1-0.1,0.2-0.1,0.2c0,0.1,0,0.2,0.1,0.3c0.1,0.1,0.2,0.3,0.3,0.4
		C34.8,303.1,35,302.9,35,302.9z"/>
	<path class="st0" d="M39.3,301.7c0.1-0.2,0.4-0.3,0.7-0.3c0,0,0.1,0,0.1,0s0.1,0,0.1,0v0.5c-0.1,0-0.1,0-0.1,0s0,0-0.1,0
		c-0.2,0-0.3,0-0.3,0.1c0,0.1,0,0.3,0,0.6h0.5v0.4h-0.5v2.7h-0.5v-2.7h-0.4v-0.4h0.4v-0.5C39.2,302,39.2,301.8,39.3,301.7z"/>
	<path class="st0" d="M43.1,303c0.3,0.3,0.4,0.7,0.4,1.2c0,0.5-0.1,0.9-0.4,1.3S42.5,306,42,306c-0.4,0-0.8-0.1-1-0.4
		c-0.3-0.3-0.4-0.7-0.4-1.2c0-0.5,0.1-1,0.4-1.3c0.3-0.3,0.6-0.5,1.1-0.5C42.4,302.6,42.8,302.7,43.1,303z M42.7,305.1
		c0.1-0.3,0.2-0.6,0.2-0.9c0-0.3,0-0.5-0.1-0.7c-0.1-0.3-0.4-0.4-0.8-0.4c-0.3,0-0.6,0.1-0.7,0.4c-0.1,0.2-0.2,0.5-0.2,0.9
		c0,0.3,0.1,0.6,0.2,0.8c0.1,0.2,0.4,0.3,0.7,0.3C42.4,305.5,42.6,305.4,42.7,305.1z"/>
	<path class="st0" d="M44.7,302.7v2.1c0,0.2,0,0.3,0.1,0.4c0.1,0.2,0.3,0.3,0.5,0.3c0.4,0,0.6-0.2,0.7-0.5c0.1-0.2,0.1-0.4,0.1-0.7
		v-1.6h0.5v3.2h-0.5l0-0.5c-0.1,0.1-0.2,0.2-0.3,0.3c-0.2,0.2-0.4,0.2-0.7,0.2c-0.4,0-0.7-0.2-0.9-0.5c-0.1-0.2-0.1-0.4-0.1-0.7
		v-2.2H44.7z"/>
	<path class="st0" d="M47.5,302.7H48v0.5c0.2-0.2,0.3-0.3,0.5-0.4c0.2-0.1,0.4-0.1,0.6-0.1c0.5,0,0.8,0.2,0.9,0.5
		c0.1,0.2,0.1,0.4,0.1,0.7v2h-0.5v-2c0-0.2,0-0.4-0.1-0.5c-0.1-0.2-0.3-0.3-0.5-0.3c-0.1,0-0.2,0-0.3,0c-0.1,0-0.3,0.1-0.4,0.3
		c-0.1,0.1-0.1,0.2-0.2,0.3c0,0.1,0,0.3,0,0.5v1.7h-0.5V302.7z"/>
	<path class="st0" d="M52.6,302.8c0.1,0.1,0.2,0.2,0.3,0.3v-1.6h0.5v4.4H53v-0.4c-0.1,0.2-0.3,0.3-0.4,0.4S52.2,306,52,306
		c-0.4,0-0.7-0.1-0.9-0.4s-0.4-0.7-0.4-1.2c0-0.5,0.1-0.9,0.4-1.2c0.2-0.3,0.6-0.5,1-0.5C52.3,302.6,52.5,302.7,52.6,302.8z
		 M51.5,305.2c0.1,0.2,0.4,0.3,0.7,0.3c0.2,0,0.4-0.1,0.6-0.3c0.2-0.2,0.2-0.5,0.2-0.9c0-0.4-0.1-0.7-0.2-0.9
		c-0.2-0.2-0.4-0.3-0.6-0.3c-0.3,0-0.5,0.1-0.7,0.3c-0.2,0.2-0.2,0.5-0.2,0.9C51.2,304.6,51.3,304.9,51.5,305.2z"/>
	<path class="st0" d="M56,303.9c0.1,0,0.2-0.1,0.2-0.2c0,0,0-0.1,0-0.2c0-0.2-0.1-0.3-0.2-0.4c-0.1-0.1-0.3-0.1-0.6-0.1
		c-0.3,0-0.5,0.1-0.6,0.2c-0.1,0.1-0.1,0.2-0.1,0.4h-0.5c0-0.4,0.1-0.7,0.4-0.8c0.2-0.2,0.5-0.2,0.8-0.2c0.4,0,0.7,0.1,0.9,0.2
		c0.2,0.1,0.3,0.4,0.3,0.7v1.8c0,0.1,0,0.1,0,0.1c0,0,0.1,0,0.1,0c0,0,0.1,0,0.1,0c0,0,0.1,0,0.1,0v0.4c-0.1,0-0.1,0-0.2,0
		s-0.1,0-0.2,0c-0.2,0-0.3-0.1-0.4-0.2c0-0.1-0.1-0.2-0.1-0.3c-0.1,0.1-0.3,0.3-0.5,0.4c-0.2,0.1-0.4,0.2-0.7,0.2
		c-0.3,0-0.5-0.1-0.7-0.3c-0.2-0.2-0.3-0.4-0.3-0.7c0-0.3,0.1-0.5,0.3-0.7c0.2-0.2,0.4-0.3,0.7-0.3L56,303.9z M54.9,305.4
		c0.1,0.1,0.2,0.1,0.4,0.1c0.2,0,0.4,0,0.5-0.1c0.3-0.1,0.4-0.4,0.4-0.7v-0.4c-0.1,0-0.1,0.1-0.3,0.1c-0.1,0-0.2,0-0.3,0.1l-0.3,0
		c-0.2,0-0.3,0.1-0.4,0.1c-0.2,0.1-0.2,0.2-0.2,0.4C54.7,305.2,54.7,305.3,54.9,305.4z"/>
	<path class="st0" d="M57.8,301.8h0.5v0.9h0.5v0.4h-0.5v2.1c0,0.1,0,0.2,0.1,0.2c0,0,0.1,0,0.2,0c0,0,0.1,0,0.1,0c0,0,0.1,0,0.1,0
		v0.4c-0.1,0-0.1,0-0.2,0c-0.1,0-0.1,0-0.2,0c-0.2,0-0.4-0.1-0.5-0.2c-0.1-0.1-0.1-0.3-0.1-0.5v-2.1h-0.4v-0.4h0.4V301.8z"/>
	<path class="st0" d="M59.4,301.5h0.5v0.6h-0.5V301.5z M59.4,302.7h0.5v3.2h-0.5V302.7z"/>
	<path class="st0" d="M63,303c0.3,0.3,0.4,0.7,0.4,1.2c0,0.5-0.1,0.9-0.4,1.3s-0.6,0.5-1.2,0.5c-0.4,0-0.8-0.1-1-0.4
		c-0.3-0.3-0.4-0.7-0.4-1.2c0-0.5,0.1-1,0.4-1.3c0.3-0.3,0.6-0.5,1.1-0.5C62.4,302.6,62.7,302.7,63,303z M62.7,305.1
		c0.1-0.3,0.2-0.6,0.2-0.9c0-0.3,0-0.5-0.1-0.7c-0.1-0.3-0.4-0.4-0.8-0.4c-0.3,0-0.6,0.1-0.7,0.4c-0.1,0.2-0.2,0.5-0.2,0.9
		c0,0.3,0.1,0.6,0.2,0.8c0.1,0.2,0.4,0.3,0.7,0.3C62.3,305.5,62.5,305.4,62.7,305.1z"/>
	<path class="st0" d="M64.1,302.7h0.5v0.5c0.2-0.2,0.3-0.3,0.5-0.4c0.2-0.1,0.4-0.1,0.6-0.1c0.5,0,0.8,0.2,0.9,0.5
		c0.1,0.2,0.1,0.4,0.1,0.7v2h-0.5v-2c0-0.2,0-0.4-0.1-0.5c-0.1-0.2-0.3-0.3-0.5-0.3c-0.1,0-0.2,0-0.3,0c-0.1,0-0.3,0.1-0.4,0.3
		c-0.1,0.1-0.1,0.2-0.2,0.3c0,0.1,0,0.3,0,0.5v1.7h-0.5V302.7z"/>
</g>
</svg>
