<?xml version="1.0" encoding="utf-8"?>
<!-- Generator: Adobe Illustrator 19.0.0, SVG Export Plug-In . SVG Version: 6.00 Build 0)  -->
<!DOCTYPE svg PUBLIC "-//W3C//DTD SVG 1.1//EN" "http://www.w3.org/Graphics/SVG/1.1/DTD/svg11.dtd">
<svg version="1.1" id="Ebene_1" xmlns="http://www.w3.org/2000/svg" xmlns:xlink="http://www.w3.org/1999/xlink" x="0px" y="0px"
	 width="175.6px" height="100px" viewBox="-22 271 175.6 100" style="enable-background:new -22 271 175.6 100;"
	 xml:space="preserve">
<style type="text/css">
	.st0{opacity:0.4;fill:#12596D;}
	.st1{fill:#12596D;}
</style>
<path class="st0" d="M12.4,347.2c-3.2,0-6.4,0-9.7,0c-1.1,0-1.5-0.4-1.4-1.5c0-3.2,0-6.4,0-9.7c0-0.9-0.3-1.4-1-2
	c-7-5.5-9.8-12.8-7.7-21.4c2.1-8.6,7.9-13.8,16.5-15.3c11.1-2,21.9,5.8,23.6,17c1.2,8-1.5,14.6-7.8,19.6c-0.9,0.7-1.3,1.4-1.2,2.5
	c0.1,3.1,0,6.3,0,9.4c0,1-0.3,1.4-1.4,1.4C19.1,347.2,15.8,347.2,12.4,347.2z M12.4,342.4c1.6,0,3.3,0,4.9,0c1,0,1.4-0.4,1.4-1.4
	c-0.1-2.5,0-5,0-7.5c0-1,0.3-1.6,1.2-2.1C26,328,29,322,28,315.1c-1.1-7.4-8.1-14.5-18-12.9c-7,1.1-11.8,6.2-12.9,13.5
	c-0.9,5.8,2,12.4,8.1,15.7c0.8,0.4,1.1,1,1.1,1.9c0,2.6,0,5.2,0,7.8c0,0.9,0.4,1.4,1.3,1.4C9.2,342.3,10.8,342.4,12.4,342.4z"/>
<path class="st1" d="M53.6,319.1c0.9-1.2,1.7-2.2,2.4-3.2c0.6-0.8,1.2-1.2,2.3-1.2c3.2,0.1,3.2,0,3.2,3.2c0,3.6,0,7.2,0,10.8
	c0,1-0.3,1.3-1.3,1.3c-3.8-0.1-3.2,0.5-3.3-3.2c0-1.2,0-2.4,0-3.6c-0.1-0.1-0.3-0.1-0.4-0.2c-1,1.2-1.9,2.5-3,3.9
	c-1.1-1.4-2-2.7-3.2-4.2c-0.1,0.6-0.2,0.9-0.2,1.2c0,1.7,0,3.3,0,5c0,0.8-0.2,1.1-1.1,1.1c-3.6,0.2-3.6,0.2-3.6-3.4
	c0-3.5,0-7,0-10.5c0-0.9,0.2-1.2,1.2-1.4c2.5-0.3,4.3,0.4,5.5,2.6C52.5,318,53,318.4,53.6,319.1z"/>
<path class="st0" d="M96.2,347.2c-1.8,0-3.3,0.1-4.7,0c-0.6-0.1-1.2-0.5-1.6-1c-0.9-1-3.2-1.7-4.4-1c-0.3,0.1-0.5,0.7-0.5,1
	c0,0.8-0.4,1.1-1.2,1.1c-3.9,0-3.3,0.4-3.3-3.2c0-3.5,0-6.9,0-10.4c0-1.1,0.3-1.6,1.5-1.5c2.3,0.1,4.6,0,6.9,0.3
	c4.4,0.4,7,5.2,4.8,9.2c-0.6,1-0.5,1.7,0.2,2.5C94.6,345,95.3,346,96.2,347.2z M86.9,336.5c-0.6,0.1-1.7,0.2-1.8,0.5
	c-0.2,1-0.2,2.2,0,3.2c0.1,0.3,1.2,0.5,1.8,0.5c1.8,0,2.9-0.8,2.9-2C89.9,337.3,88.9,336.6,86.9,336.5z"/>
<path class="st1" d="M68.7,305.2c0,4.5-3.8,8.2-8.3,8.2c-4.5-0.1-8.1-3.8-8.1-8.2c0-4.5,3.7-8.2,8.2-8.2
	C65,296.9,68.7,300.7,68.7,305.2z M60.4,308.7c1.9,0.1,3.6-1.5,3.7-3.4c0.1-1.9-1.6-3.7-3.5-3.7c-1.9,0-3.6,1.6-3.6,3.5
	C56.9,307,58.5,308.6,60.4,308.7z"/>
<path class="st0" d="M124.1,339.5c0-2,0-4.1,0-6.1c0-0.7,0.1-1.3,1-1.3c2.6,0.1,5.2-0.1,7.8,0.3c3.4,0.4,5.3,3.4,5.1,7.1
	c-0.2,2.9-3,5.4-6.1,5.5c-0.5,0-1.1,0-1.6,0c-1-0.1-1.4,0.2-1.7,1.4c-0.4,1.8-2.2,0.6-3.3,0.8c-0.8,0.2-1.1-0.3-1.1-1.1
	C124.1,343.9,124.1,341.7,124.1,339.5z M130.6,336.6c-0.6,0.1-1.7,0.1-1.7,0.4c-0.2,1-0.3,2.1-0.1,3.2c0,0.3,1.1,0.5,1.7,0.5
	c1.9,0.1,3-0.7,3-2C133.6,337.3,132.6,336.6,130.6,336.6z"/>
<path class="st1" d="M63,322.4c0-2.1,0-4.3,0-6.4c0-0.9,0.3-1.3,1.2-1.2c2.5,0.1,5,0,7.5,0.3c3.1,0.3,5.4,3.3,5.3,6.5
	c-0.1,3.3-2.5,6-5.7,6.3c-0.9,0.1-1.8,0.1-2.6,0.1c-0.8,0-1.2,0.3-1.1,1.1c0.1,0.8-0.3,1.1-1.1,1.1c-4.1-0.1-3.4,0.6-3.4-3.3
	C62.9,325.2,62.9,323.8,63,322.4C63,322.4,63,322.4,63,322.4z M67.2,321.2c0.3,2,0.3,2,2.2,2c0.5,0,1.1,0,1.6-0.2
	c1.1-0.4,1.5-1.5,1.1-2.5c-0.5-1-2.3-1.6-3.9-1C67.7,319.6,67.5,320.6,67.2,321.2z"/>
<path class="st1" d="M91.2,312.7c0.3-1,0.5-1.7,0.8-2.4c1.3-3.9,2.7-7.8,4-11.7c0.3-0.9,0.7-1.3,1.7-1.2c1.2,0.1,2.3,0,3.5,0.1
	c0.4,0,0.8,0.3,1,0.7c0.3,0.5,0.4,1.2,0.7,1.8c1.4,4.1,2.9,8.3,4.4,12.7c-1.6,0-3.1,0-4.6,0c-0.2,0-0.5-0.4-0.6-0.7
	c-0.2-1.1-0.9-1.3-1.9-1.2c-0.7,0-1.3,0.1-2,0c-1.1-0.1-1.8,0.2-2,1.3c-0.1,0.3-0.6,0.7-0.9,0.7C94,312.7,92.7,312.7,91.2,312.7z
	 M99.4,304.1c-0.1,0-0.3,0-0.4,0c-0.3,0.9-0.6,1.7-0.9,2.8c0.8,0,1.4,0,2.3,0C100,305.8,99.7,305,99.4,304.1z"/>
<path class="st1" d="M91.7,330c-1.4,0-2.7,0.1-4,0c-0.4,0-0.8-0.6-1-1c-0.3-0.7-0.7-1-1.4-1c-0.8,0-1.6,0.1-2.4,0
	c-1.1-0.1-1.8,0.2-2,1.3c-0.1,0.3-0.5,0.7-0.7,0.7c-1.4,0.1-2.7,0-4.2,0c0.1-0.6,0.2-0.9,0.3-1.2c1.5-4.3,3-8.7,4.5-13
	c0.3-0.8,0.6-1.1,1.4-1c1.2,0.1,2.4,0,3.6,0.1c0.4,0,1,0.4,1.1,0.7c1.6,4.6,3.2,9.1,4.8,13.7C91.6,329.4,91.6,329.6,91.7,330z
	 M82.6,324.2c0.9,0,1.5,0,2.3,0c-0.4-1-0.7-1.9-1-2.8c-0.1,0-0.2,0-0.4,0.1C83.3,322.3,83,323.1,82.6,324.2z"/>
<path class="st0" d="M63,347.2c0.2-0.6,0.3-1,0.4-1.4c1.4-4.1,2.9-8.1,4.2-12.2c0.4-1.1,0.9-1.5,2.1-1.5c4.6,0.2,3.5-0.8,5.1,3.6
	c1.2,3.3,2.3,6.6,3.5,9.9c0.1,0.4,0.2,0.9,0.4,1.5c-1.5,0-2.8,0.1-4,0c-0.3,0-0.7-0.6-0.9-0.9c-0.3-0.7-0.8-1-1.5-1
	c-0.8,0-1.7,0.1-2.5,0c-1-0.1-1.6,0.2-1.9,1.2c-0.1,0.3-0.5,0.7-0.7,0.7C65.8,347.2,64.5,347.2,63,347.2z M69.6,341.5
	c1,0,1.6,0,2.5,0c-0.4-1.1-0.7-2-1-2.9c-0.1,0-0.3,0-0.4,0C70.3,339.5,70,340.4,69.6,341.5z"/>
<path class="st0" d="M109.8,337.6c0-1.5,0-2.9,0-4.4c0-0.7,0.3-1.1,1-1.1c3.8,0,3.2-0.3,3.3,3c0,1.8,0,3.6,0,5.4
	c0,0.5,0,0.9,0.2,1.4c0.3,1,1,1.6,2.1,1.5c1-0.1,1.7-0.8,1.7-2c0-2.5,0-5,0-7.5c0-1.7,0.1-1.7,1.7-1.7c3.2,0,2.8-0.3,2.9,2.9
	c0,2.1,0,4.2,0,6.3c0,3.7-2.8,6.5-6.5,6.4c-3.7,0-6.3-2.7-6.3-6.5C109.8,340,109.8,338.8,109.8,337.6z"/>
<path class="st1" d="M50.8,297.5c-0.3,1.3-0.4,2.4-0.8,3.5c-0.1,0.3-0.6,0.6-1,0.6c-1.3,0-2.7-0.2-4-0.2c-0.4,0-0.7,0.4-1.1,0.6
	c0.3,0.3,0.5,0.9,0.9,1c0.9,0.3,1.9,0.4,2.8,0.5c2.4,0.4,3.9,2,3.9,4.2c0,2.8-1.5,5-3.8,5.5c-2.1,0.4-5.4,0.3-8-0.4
	c0.2-1.2,0.4-2.4,0.7-3.6c0.1-0.3,0.8-0.6,1.2-0.6c1,0,2.1,0.2,3.1,0.3c0.7,0,1.8,0.3,1.9-0.8c0.1-1.1-1-0.9-1.8-1.1
	c-0.5-0.1-1.1-0.2-1.6-0.2c-3.3-0.3-4.1-2.1-4.1-3.8c-0.1-2.3,0.8-4.9,3.7-5.6c1.5-0.4,3.2-0.3,4.8-0.2
	C48.7,297,49.7,297.3,50.8,297.5z"/>
<path class="st0" d="M49.8,332.1c0.1,0.4,0.1,0.5,0.1,0.6c-0.5,3.4-0.5,3.4-3.8,3.2c-0.6,0-1.2-0.1-1.8,0c-0.4,0.1-0.7,0.4-1,0.6
	c0.3,0.4,0.5,0.9,0.9,1c0.9,0.3,1.8,0.4,2.7,0.6c2.6,0.5,4,2,4,4.4c0,2.8-1.6,5-4.1,5.2c-2.2,0.2-4.4-0.1-6.6-0.2
	c-0.2,0-0.7-0.4-0.7-0.5c0.2-1.1,0.4-2.2,0.7-3.3c0.1-0.2,0.7-0.4,1.1-0.4c1.1,0.1,2.2,0.2,3.2,0.3c0.3,0,0.7,0.1,1-0.1
	c0.3-0.2,0.7-0.6,0.8-0.9c0-0.2-0.4-0.8-0.7-0.8c-0.9-0.3-1.8-0.4-2.7-0.5c-2.4-0.4-3.6-1.3-4-3.2c-0.4-2.1,0.7-4.7,2.5-5.6
	c1.1-0.5,2.3-0.8,3.5-0.8C46.5,331.6,48.2,331.9,49.8,332.1z"/>
<path class="st1" d="M83.4,299.2c-1,1.1-1.9,2.2-2.8,3.3c-2.9-1.2-4.4-1.1-5.6,0.5c-1,1.3-0.9,3.2,0.2,4.4c1.3,1.5,2.9,1.5,5.3,0.2
	c0.5,0.5,0.9,1.1,1.4,1.7c0.5,0.5,0.9,1.1,1.3,1.6c-2,2.8-7.5,3.1-10.6,0.6c-3.8-3.1-4.1-8.6-0.8-12C75.2,296.2,80.6,296,83.4,299.2
	z"/>
<path class="st1" d="M104.5,316.6c-1,1.1-1.9,2.2-2.8,3.3c-2.6-1.3-4.2-1.2-5.5,0.4c-1,1.3-0.9,3.2,0.1,4.4c1.3,1.5,3,1.6,5.3,0.2
	c0.9,1.1,1.9,2.2,2.8,3.3c-2.6,3-7.9,3-11,0.1c-3.4-3.1-3.5-8.5-0.2-11.8C96.3,313.5,101.6,313.4,104.5,316.6z"/>
<path class="st1" d="M111.6,314.8c1.7,0,3.4,0,5.1,0c0.9,0,1.2,0.3,1.1,1.2c-0.1,1,0.3,2.4-0.2,3c-0.4,0.6-1.9,0.4-2.9,0.4
	c-0.8,0-0.9,0.5-0.9,1.1c0,2.7,0,5.4,0,8.2c0,1-0.3,1.4-1.3,1.3c-0.7-0.1-1.4-0.1-2.1,0c-1,0.1-1.3-0.4-1.3-1.3c0.1-2.7,0-5.4,0-8
	c0-0.9-0.2-1.2-1.2-1.3c-2.8,0-2.8-0.1-2.8-2.9c0-1.7,0-1.7,1.6-1.7C108.5,314.8,110,314.8,111.6,314.8z"/>
<path class="st0" d="M57.9,332.1c1.7,0,3.3,0,5,0c0.8,0,1.3,0.3,1.2,1.2c0,0,0,0.1,0,0.1c0.1,3.1,0.1,3.1-2.9,3.2
	c-0.9,0-1.1,0.4-1.1,1.2c0,2.6,0,5.3,0,7.9c0,1.1-0.4,1.5-1.5,1.5c-3.5-0.1-3.1,0.4-3.1-3.1c0-2.1,0-4.3,0-6.4
	c0-0.8-0.3-1.1-1.1-1.1c-3-0.1-2.9-0.2-3-3.1c0-1.1,0.4-1.5,1.5-1.5C54.6,332.2,56.3,332.1,57.9,332.1z"/>
<path class="st0" d="M99.8,341.8c0-1.3,0-2.7,0-4c0-0.8-0.3-1.2-1.1-1.1c0,0-0.1,0-0.1,0c-2.9-0.1-3.4-0.8-2.8-3.7
	c0.1-0.3,0.6-0.8,0.9-0.8c3.5-0.1,7,0,10.5,0c0,0,0.1,0,0.1,0c1.5,0.8,0.5,2.2,0.7,3.4c0.1,0.7-0.2,1.1-1,1.1c-0.2,0-0.4,0-0.6,0
	c-2.2,0-2.4-0.5-2.4,2.5c0,2.2,0,4.4,0,6.6c0,1-0.3,1.5-1.4,1.4c-3.4-0.1-2.9,0.3-3-2.9C99.8,343.5,99.8,342.6,99.8,341.8
	C99.8,341.8,99.8,341.8,99.8,341.8z"/>
<path class="st1" d="M108.5,305c0-2.1,0-4.3,0-6.4c0-0.8,0.2-1.2,1.1-1.2c4,0.1,3.4-0.7,3.4,3.3c0,2,0.1,3.9,0,5.9
	c0,1.2,0.4,1.6,1.5,1.5c0.8-0.1,1.6,0,2.4,0c0.7,0,1,0.3,1,1.1c-0.1,4.2,0.6,3.4-3.2,3.5c-1.7,0-3.3,0-5,0c-0.9,0-1.2-0.3-1.2-1.2
	C108.5,309.3,108.5,307.1,108.5,305z"/>
<path class="st1" d="M44.1,322.5c0,2.1,0,4.3,0,6.4c0,0.8-0.2,1.1-1.1,1.1c-3.6,0.2-3.6,0.2-3.6-3.4c0-3.5,0-7.1,0-10.6
	c0-0.9,0.2-1.2,1.2-1.2c3.5,0,3.5-0.1,3.5,3.4C44.1,319.5,44.1,321,44.1,322.5z"/>
<path class="st1" d="M89.9,305c0,2.1,0,4.3,0,6.4c0,0.9-0.3,1.3-1.3,1.2c-3.9-0.1-3.3,0.5-3.4-3.3c0-3.5,0-6.9,0-10.4
	c0-1.1,0.2-1.6,1.5-1.6c3.1,0.1,3.1,0,3.1,3.1C89.9,302,89.9,303.5,89.9,305C89.9,305,89.9,305,89.9,305z"/>
</svg>
