<?xml version="1.0" encoding="utf-8"?>
<!-- Generator: Adobe Illustrator 19.0.0, SVG Export Plug-In . SVG Version: 6.00 Build 0)  -->
<!DOCTYPE svg PUBLIC "-//W3C//DTD SVG 1.1//EN" "http://www.w3.org/Graphics/SVG/1.1/DTD/svg11.dtd">
<svg version="1.1" id="Ebene_1" xmlns="http://www.w3.org/2000/svg" xmlns:xlink="http://www.w3.org/1999/xlink" x="0px" y="0px"
	 width="297.3px" height="100px" viewBox="-22 271 297.3 100" style="enable-background:new -22 271 297.3 100;"
	 xml:space="preserve">
<style type="text/css">
	.st0{fill:#12596D;}
	.st1{fill:#FFFFFF;}
</style>
<g>
	<path class="st0" d="M254,346.8c-43.7,0-87.4,0-131.1,0c0-0.3,0-0.6,0-0.9c0-15.7,0-31.4,0-47.1c0-0.3,0-0.6,0-0.9
		c43.7,0,87.4,0,131.1,0c0,0.3-0.1,0.6-0.1,0.9c0,15.7,0,31.4,0,47.1C253.9,346.3,254,346.5,254,346.8z M155.4,318.5
		c-0.1,0.3-0.1,0.6-0.2,0.9c-0.7,3.6-1.4,7.3-2.2,10.9c-0.1,0.6,0,0.8,0.6,0.8c1.3,0,2.6,0,3.9,0c0.7,0,0.9-0.3,1-0.9
		c0.7-3.7,1.5-7.4,2.2-11.1c0-0.2,0.2-0.6,0.4-0.6c1.3,0,2.5,0,3.8,0c-0.1,0.4-0.1,0.7-0.1,0.9c-0.7,3.6-1.4,7.2-2.2,10.7
		c-0.2,0.9-0.1,1,0.8,1c1.2,0,2.5,0,3.7,0c0.7,0,0.9-0.2,1-0.9c0.3-1.7,0.6-3.3,1-5c0.1-0.2,0.3-0.7,0.4-0.7c1-0.1,2.1,0,3.2,0
		c-0.4,2-0.7,3.9-1.1,5.7c-0.1,0.6,0.1,0.8,0.7,0.8c1.3,0,2.7,0,4,0c0.5,0,0.8-0.2,0.9-0.7c1-5.2,2.1-10.4,3.1-15.6
		c0.1-0.6,0-0.9-0.7-0.9c-1.3,0-2.6,0-3.9,0c-0.6,0-0.9,0.2-1,0.8c-0.3,1.7-0.7,3.3-1,5c-0.1,0.2-0.3,0.7-0.4,0.7
		c-1,0.1-2.1,0-3.2,0c0.4-2,0.7-3.8,1.1-5.6c0.2-0.7-0.1-0.9-0.8-0.9c-10.3,0-20.5,0-30.8,0c-0.6,0-0.8,0.2-1,0.8
		c-0.8,4.2-1.7,8.4-2.5,12.5c-0.2,1.2-0.5,2.5-0.7,3.7c0.3,0.1,0.4,0.1,0.6,0.1c3.9,0,7.9,0,11.8,0c0.5,0,0.7-0.3,0.8-0.7
		c0.2-1,0.4-2,0.6-3c0.2-0.6-0.1-0.9-0.7-0.8c-1.9,0-3.9,0-5.8,0c-0.3,0-0.6,0-0.9,0c0.1-0.4,0.1-0.8,0.2-1.1c0.1-0.7,0.4-1,1.1-0.9
		c1.9,0,3.9,0,5.8,0c0.7,0,1-0.2,1-0.9c0.1-0.7,0.3-1.3,0.4-2c0.2-1.2,0.2-1.2-0.9-1.2c-1.9,0-3.7,0-5.6,0c-0.2,0-0.7-0.1-0.7-0.2
		c0-0.5,0.1-1.1,0.2-1.5c0.1-0.2,0.5-0.3,0.7-0.3c3.5,0,7,0,10.5,0C155,318.4,155.1,318.4,155.4,318.5z M237,330.9
		c1.5,0.5,1.9,0.3,2.1-1c0.2-1.1,0.5-2.2,0.6-3.3c0.3-1.4,0.6-2.9,0.7-4.3c0.1-1.8-1.2-3-3-3.2c-1.2-0.1-2.2,0.2-3.3,0.9
		c0-0.3,0-0.5,0.1-0.6c0.3-1.6,0.6-3.1,0.9-4.7c0-0.2,0-0.6,0-0.6c-0.5-0.1-0.9-0.2-1.4-0.1c-0.2,0-0.4,0.4-0.5,0.7
		c-0.9,4.2-1.7,8.3-2.6,12.5c-0.2,1.2-0.5,2.5-0.7,3.7c1.5,0.5,1.8,0.3,2.1-1.1c0.4-2,0.8-4.1,1.3-6.1c0.3-1.4,1.1-2.4,2.6-2.8
		c1.5-0.4,2.7,0.4,2.5,2c-0.1,1.3-0.4,2.6-0.7,3.9C237.5,328.1,237.3,329.5,237,330.9z M199.1,330.4c-0.1,0.4,0.2,0.7,0.8,0.6
		c0.4-0.1,1.1,0.2,1.2-0.5c0.7-3.6,1.4-7.2,2.1-10.8c0-0.2-0.2-0.5-0.4-0.6c-1.1-0.3-1.4,0-1.7,1.1c-0.4,2.1-0.8,4.2-1.3,6.3
		c-0.3,1.4-1.2,2.4-2.7,2.7c-1.5,0.3-2.5-0.5-2.4-2c0-0.4,0.1-0.8,0.1-1.2c0.4-2,0.8-4.1,1.2-6.1c0.1-0.3,0.3-0.8-0.3-0.9
		c-0.9-0.2-1.4,0-1.5,0.6c-0.2,0.8-0.4,1.7-0.5,2.5c-0.3,1.6-0.7,3.2-0.9,4.8c-0.4,2.5,1.2,4.2,3.6,4
		C197.4,331.1,198.2,330.7,199.1,330.4z M189.1,320.9c-0.4,0.4-0.5,0.6-0.7,0.8c-2.1,2.4-4.2,4.7-6.2,7.1c-0.3,0.4-0.5,1-0.7,1.5
		c-0.2,0.5,0.1,0.7,0.5,0.7c2.4,0,4.8,0,7.2,0c0.2,0,0.6-0.3,0.7-0.6c0.1-0.3,0.1-0.7,0.1-1.2c-1.9,0-3.8,0-5.8,0
		c0.3-0.3,0.4-0.4,0.5-0.6c2.2-2.4,4.3-4.9,6.5-7.3c0.5-0.6,0.7-1.3,0.7-2.1c-0.3,0-0.6-0.1-1-0.1c-2,0-3.9,0-5.9,0
		c-1.2,0-1.5,0.4-1.2,1.8C185.5,320.9,187.2,320.9,189.1,320.9z M227,328.1c-0.6,0.4-1.1,0.8-1.7,1c-1.6,0.7-3.3,0-3.5-1.7
		c-0.3-2,0.2-3.9,1.5-5.5c1.2-1.5,3.4-1.7,4.4-0.3c0.1,0.1,0.3,0.3,0.4,0.2c0.4-0.3,0.8-0.6,1.2-0.9c0.1-0.1-0.2-0.6-0.4-0.8
		c-1.7-1.7-4.9-1.5-6.8,0.4c-1.7,1.7-2.2,3.9-2.3,6.3c-0.1,2.1,0.9,3.6,2.8,4.2c1.8,0.6,4.3-0.1,5.4-1.6
		C227.6,329,227.3,328.6,227,328.1z M208.6,320.1c0.3-1-0.2-0.9-0.7-0.9c-0.5,0-1.1-0.1-1.2,0.7c-0.1,0.8-0.3,1.6-0.5,2.4
		c-0.5,2.6-1.1,5.3-1.6,7.9c0,0.2,0,0.6,0.1,0.7c0.5,0.5,1.7,0.1,1.8-0.6c0.3-1.7,0.6-3.4,1-5.1c0.2-0.9,0.4-1.8,0.8-2.6
		c0.9-1.8,2.4-2.2,4.1-1.2c0.1,0.1,0.4,0.1,0.5,0c0.4-0.4,0.8-0.8,1.1-1.2c-0.4-0.3-0.8-0.7-1.3-1c-0.2-0.1-0.5-0.1-0.8-0.2
		C210.9,318.9,209.8,319.3,208.6,320.1z M214.2,330.9c1.5,0.5,1.9,0.3,2.2-1.1c0.6-3.2,1.3-6.4,1.9-9.6c0.1-0.4,0.4-0.9-0.4-1
		c-0.9-0.2-1.4,0-1.5,0.7c-0.2,1.2-0.5,2.4-0.7,3.6C215.2,325.9,214.7,328.4,214.2,330.9z M218.1,316.4c0.3-0.1,0.8-0.2,0.9-0.4
		c0.2-0.6,0.3-1.2,0.4-1.8c0-0.1-0.1-0.2-0.2-0.2c-0.8-0.4-1.6,0-1.8,0.9c0,0.2-0.1,0.4-0.1,0.5
		C217.1,316.2,217.2,316.3,218.1,316.4z M201.8,316.4c0.3-0.2,0.8-0.3,0.9-0.6c0.2-0.4,0.2-1,0.3-1.5c0-0.1-0.1-0.3-0.2-0.4
		c-0.6-0.4-1.7,0-1.8,0.8c0,0.2-0.1,0.4-0.1,0.6C200.7,316.2,200.8,316.3,201.8,316.4z M197.1,316.3c1.1,0,1.6-0.5,1.5-1.9
		c-0.1-0.9-0.9-0.4-1.3-0.4c-0.2,0-0.5,0.3-0.6,0.5c-0.1,0.3-0.2,0.7-0.2,1C196.2,316.1,196.4,316.4,197.1,316.3z"/>
	<path class="st1" d="M122.9,298c0,0.3,0,0.6,0,0.9c0,15.7,0,31.4,0,47.1c0,0.3,0,0.6,0,0.9c-43.9,0-87.7,0-131.6,0
		c0-16.3,0-32.6,0-48.8C35.2,298,79.1,298,122.9,298z M3.5,330.6c0.1,0.2,0.3,0.3,0.4,0.4c3.4,3.4,10.9,3.6,14.5,1.3
		c3.3-2.1,4.4-6.7,2.5-10c-1-1.7-2.6-2.7-4.6-3c-1.6-0.3-3.2-0.5-4.8-0.8c-2.3-0.4-3.3-2.6-2-4.5c0.7-1,1.7-1.4,2.9-1.5
		c2.1-0.1,4,0.2,5.7,1.6c1-1,1.9-2,2.9-3c-0.1-0.1-0.3-0.3-0.5-0.5c-3.3-2.6-7.1-2.8-10.9-1.7c-3.6,1-5.3,4-5.1,7.9
		c0.2,3.1,2.2,5.1,5.8,5.9c0.2,0,0.4,0.1,0.5,0.1c1.3,0.2,2.7,0.4,4,0.6c1.2,0.2,2,0.9,2.2,2.1c0.4,2.1-0.8,3.6-3,3.9
		c-2.7,0.3-5.3,0-7.4-1.9C5.6,328.7,4.6,329.6,3.5,330.6z M29.6,332.2c0.3,0.2,0.4,0.3,0.6,0.4c3.5,2.9,8.9,1.1,9.8-3.4
		c0.6-3,0.5-6,0.1-9c-0.3-1.8-1.1-3.5-3-4.3c-2.5-1.1-4.9-1.1-7.1,0.8c-0.1,0.1-0.3,0.1-0.4,0.3c0-0.3-0.1-0.5-0.1-0.7
		c0.1-0.7-0.2-0.9-0.9-0.9c-0.8,0.1-1.6,0.1-2.5,0c-0.7,0-0.9,0.2-0.9,0.9c0,3.4,0,6.7,0,10.1c0,4.3,0,8.7,0,13c0,0.7,0.2,1.1,1,1
		c0.8-0.1,1.7-0.1,2.5,0c0.7,0,0.9-0.2,0.9-0.9c0-2.1,0-4.2,0-6.4C29.5,332.9,29.6,332.6,29.6,332.2z M58.3,316.8
		c0-0.1-0.1-0.3-0.1-0.5c0.1-0.7-0.2-1-0.9-0.9c-0.9,0.1-1.8,0-2.7,0c-0.6,0-0.7,0.2-0.7,0.7c0,5.6,0,11.2,0,16.8
		c0,0.6,0.2,0.7,0.8,0.7c0.9,0,1.8,0,2.7,0c0.7,0,1-0.2,0.9-1c0-3.2,0-6.5,0-9.7c0-0.4,0-0.9,0.1-1.3c0.3-1.6,1.7-2.6,3.3-2.5
		c1.6,0.1,2.7,1.2,2.8,2.9c0,0.3,0,0.7,0,1c0,3.2,0,6.4,0,9.6c0,0.5-0.1,0.9,0.6,0.9c1.1,0,2.2,0,3.3,0c0.2,0,0.5-0.4,0.5-0.6
		c0-4.1,0.1-8.2-0.1-12.3c-0.2-3.9-3.5-6.3-7.4-5.4C60.5,315.6,59.4,316.3,58.3,316.8z M87.3,325.6c-0.2-1.6-0.2-2.7-0.4-3.8
		c-0.6-3.3-3.1-5.5-6.5-5.6c-3.3-0.2-6.1,1.9-6.9,5.1c-0.6,2.5-0.6,4.9,0,7.4c0.7,3.1,3,4.9,6.2,5.2c3,0.2,5.7-1.3,6.7-4.1
		C86.9,328.3,87,326.7,87.3,325.6z M44.6,324.7c0,2.7,0,5.4,0,8.1c0,0.6,0.2,0.9,0.8,0.8c1,0,1.9,0,2.9,0c0.5,0,0.8-0.2,0.8-0.7
		c0-5.4,0-10.8,0-16.2c0-0.6-0.3-0.7-0.8-0.7c-0.9,0-1.9,0-2.8,0c-0.7,0-0.9,0.2-0.9,0.9C44.6,319.4,44.6,322.1,44.6,324.7z
		 M94.7,326c0-2.3,0-4.6,0-6.8c0-0.8,0.3-1,1-1c0.7,0,1.4,0,2.1,0c0.7,0,0.6-0.5,0.6-0.9c0-0.5,0-0.8-0.6-0.8c-0.8,0-1.6,0-2.4,0
		c-0.5,0-0.7-0.2-0.7-0.7c0-0.8,0-1.5,0-2.3c0-2.1,0.7-2.9,2.8-2.9c0.6,0,0.9-0.1,0.8-0.8c0-1.2,0-1.2-1.2-1.2c-0.2,0-0.5,0-0.7,0
		c-2.3,0.1-3.7,1.4-4.1,3.7c-0.1,1-0.1,2-0.1,2.9c0,1.2,0,1.3-1.3,1.2c-0.8,0-1,0.2-1,1c0,0.9,0.6,0.8,1.1,0.8c1.1,0,1.1,0,1.1,1.1
		c0,4.3,0,8.5,0,12.8c0,1.7-0.3,1.5,1.6,1.5c0.6,0,0.8-0.2,0.8-0.8C94.7,330.5,94.7,328.3,94.7,326z M103,326c0,2.3,0,4.6,0,6.8
		c0,0.2,0.1,0.7,0.2,0.7c0.6,0.1,1.3,0.1,1.9,0c0.1,0,0.3-0.7,0.3-1c0-4.4,0-8.7,0-13.1c0-1.2,0-1.2,1.2-1.2c0.6,0,1.2,0,1.7,0
		c0.7,0,0.7-0.4,0.7-0.9c0-0.5-0.1-0.9-0.7-0.8c-0.7,0-1.4,0-2.1,0c-0.6,0-0.8-0.2-0.8-0.8c0-0.8,0-1.5,0-2.3c0.1-2,0.8-2.7,2.8-2.7
		c0.6,0,0.9-0.2,0.9-0.9c0-1.2,0-1.2-1.1-1.2c-0.2,0-0.5,0-0.7,0c-2.5,0.1-4.1,1.7-4.2,4.3c0,0.7,0,1.4,0,2.1c0,1.5,0.1,1.5-1.4,1.5
		c-0.7,0-0.8,0.3-0.8,0.8c0,0.6,0.1,1,0.8,0.9c0.2,0,0.3,0,0.5,0c0.7-0.1,1,0.2,1,0.9C103,321.4,103,323.7,103,326z M46.8,312.1
		c0.6,0,1.1,0,1.7,0c0.4,0,0.6-0.1,0.6-0.6c0-0.8,0-1.6,0-2.4c0-0.4-0.2-0.6-0.6-0.6c-0.9,0-1.7,0-2.6,0c-1.5,0-1.3-0.2-1.3,1.3
		C44.5,312.1,44.5,312.1,46.8,312.1z"/>
	<path class="st1" d="M155.4,318.5c-0.2,0-0.4-0.1-0.5-0.1c-3.5,0-7,0-10.5,0c-0.2,0-0.6,0.1-0.7,0.3c-0.2,0.5-0.2,1-0.2,1.5
		c0,0,0.5,0.2,0.7,0.2c1.9,0,3.7,0,5.6,0c1.2,0,1.2,0,0.9,1.2c-0.1,0.7-0.3,1.3-0.4,2c-0.1,0.6-0.4,0.9-1,0.9c-1.9,0-3.9,0-5.8,0
		c-0.7,0-1.1,0.2-1.1,0.9c0,0.3-0.1,0.7-0.2,1.1c0.3,0,0.6,0,0.9,0c1.9,0,3.9,0,5.8,0c0.6,0,0.9,0.2,0.7,0.8c-0.2,1-0.4,2-0.6,3
		c-0.1,0.4-0.3,0.7-0.8,0.7c-3.9,0-7.9,0-11.8,0c-0.2,0-0.3-0.1-0.6-0.1c0.2-1.3,0.5-2.5,0.7-3.7c0.8-4.2,1.7-8.4,2.5-12.5
		c0.1-0.6,0.4-0.8,1-0.8c10.3,0,20.5,0,30.8,0c0.7,0,0.9,0.2,0.8,0.9c-0.4,1.8-0.7,3.6-1.1,5.6c1.1,0,2.2,0,3.2,0
		c0.2,0,0.4-0.4,0.4-0.7c0.4-1.7,0.7-3.3,1-5c0.1-0.6,0.4-0.9,1-0.8c1.3,0,2.6,0,3.9,0c0.7,0,0.8,0.2,0.7,0.9
		c-1.1,5.2-2.1,10.4-3.1,15.6c-0.1,0.5-0.4,0.8-0.9,0.7c-1.3,0-2.7,0-4,0c-0.6,0-0.8-0.2-0.7-0.8c0.4-1.9,0.7-3.7,1.1-5.7
		c-1.1,0-2.2,0-3.2,0c-0.2,0-0.4,0.4-0.4,0.7c-0.4,1.7-0.7,3.3-1,5c-0.1,0.6-0.4,0.9-1,0.9c-1.2,0-2.5,0-3.7,0c-0.9,0-0.9-0.1-0.8-1
		c0.7-3.6,1.4-7.2,2.2-10.7c0.1-0.3,0.1-0.5,0.1-0.9c-1.3,0-2.6,0-3.8,0c-0.1,0-0.3,0.4-0.4,0.6c-0.8,3.7-1.5,7.4-2.2,11.1
		c-0.1,0.6-0.4,0.9-1,0.9c-1.3,0-2.6,0-3.9,0c-0.6,0-0.8-0.2-0.6-0.8c0.8-3.6,1.5-7.3,2.2-10.9C155.3,319.1,155.3,318.8,155.4,318.5
		z"/>
	<path class="st1" d="M237,330.9c0.3-1.4,0.5-2.7,0.8-4.1c0.2-1.3,0.6-2.6,0.7-3.9c0.1-1.5-1-2.4-2.5-2c-1.4,0.4-2.2,1.4-2.6,2.8
		c-0.5,2-0.9,4.1-1.3,6.1c-0.3,1.4-0.6,1.5-2.1,1.1c0.2-1.2,0.5-2.5,0.7-3.7c0.8-4.2,1.7-8.4,2.6-12.5c0.1-0.3,0.3-0.7,0.5-0.7
		c0.4-0.1,0.9,0,1.4,0.1c0,0,0.1,0.4,0,0.6c-0.3,1.6-0.6,3.1-0.9,4.7c0,0.2,0,0.3-0.1,0.6c1.1-0.7,2.1-1,3.3-0.9
		c1.8,0.2,3.1,1.4,3,3.2c-0.1,1.4-0.4,2.9-0.7,4.3c-0.2,1.1-0.4,2.2-0.6,3.3C238.9,331.2,238.5,331.4,237,330.9z"/>
	<path class="st1" d="M199.1,330.4c-0.9,0.2-1.8,0.6-2.7,0.7c-2.5,0.2-4-1.5-3.6-4c0.2-1.6,0.6-3.2,0.9-4.8c0.2-0.8,0.3-1.7,0.5-2.5
		c0.1-0.6,0.6-0.8,1.5-0.6c0.7,0.1,0.4,0.6,0.3,0.9c-0.4,2-0.8,4.1-1.2,6.1c-0.1,0.4-0.1,0.8-0.1,1.2c-0.1,1.5,1,2.3,2.4,2
		c1.5-0.3,2.4-1.3,2.7-2.7c0.5-2.1,0.9-4.2,1.3-6.3c0.2-1.1,0.5-1.4,1.7-1.1c0.2,0,0.4,0.4,0.4,0.6c-0.7,3.6-1.4,7.2-2.1,10.8
		c-0.2,0.8-0.8,0.5-1.2,0.5C199.3,331.1,199,330.9,199.1,330.4z"/>
	<path class="st1" d="M189.1,320.9c-2,0-3.7,0-5.4,0c-0.3-1.4,0-1.8,1.2-1.8c2,0,3.9,0,5.9,0c0.3,0,0.6,0,1,0.1
		c0,0.8-0.1,1.5-0.7,2.1c-2.2,2.4-4.3,4.9-6.5,7.3c-0.1,0.1-0.2,0.3-0.5,0.6c2,0,3.8,0,5.8,0c-0.1,0.5,0,0.9-0.1,1.2
		c-0.1,0.3-0.4,0.6-0.7,0.6c-2.4,0-4.8,0-7.2,0c-0.5,0-0.7-0.2-0.5-0.7c0.2-0.5,0.4-1.1,0.7-1.5c2.1-2.4,4.2-4.7,6.2-7.1
		C188.6,321.6,188.8,321.4,189.1,320.9z"/>
	<path class="st1" d="M227,328.1c0.3,0.4,0.7,0.8,1,1.2c-1.1,1.5-3.5,2.2-5.4,1.6c-1.8-0.6-2.8-2.1-2.8-4.2c0.1-2.3,0.6-4.5,2.3-6.3
		c1.8-1.9,5.1-2,6.8-0.4c0.2,0.2,0.5,0.7,0.4,0.8c-0.3,0.4-0.7,0.7-1.2,0.9c0,0-0.3-0.1-0.4-0.2c-1-1.4-3.2-1.2-4.4,0.3
		c-1.3,1.6-1.8,3.5-1.5,5.5c0.2,1.6,1.9,2.4,3.5,1.7C225.9,328.9,226.4,328.5,227,328.1z"/>
	<path class="st1" d="M208.6,320.1c1.2-0.8,2.3-1.2,3.5-1c0.3,0,0.6,0,0.8,0.2c0.4,0.3,0.8,0.7,1.3,1c-0.4,0.4-0.7,0.8-1.1,1.2
		c-0.1,0.1-0.4,0.1-0.5,0c-1.7-1-3.2-0.6-4.1,1.2c-0.4,0.8-0.6,1.7-0.8,2.6c-0.4,1.7-0.7,3.4-1,5.1c-0.1,0.7-1.3,1.1-1.8,0.6
		c-0.1-0.1-0.2-0.5-0.1-0.7c0.5-2.6,1.1-5.3,1.6-7.9c0.2-0.8,0.4-1.6,0.5-2.4c0.1-0.8,0.7-0.7,1.2-0.7
		C208.4,319.2,208.9,319.2,208.6,320.1z"/>
	<path class="st1" d="M214.2,330.9c0.5-2.5,1-5,1.5-7.4c0.2-1.2,0.5-2.4,0.7-3.6c0.1-0.6,0.6-0.8,1.5-0.7c0.7,0.1,0.4,0.6,0.4,1
		c-0.6,3.2-1.3,6.4-1.9,9.6C216.1,331.2,215.7,331.4,214.2,330.9z"/>
	<path class="st1" d="M218.1,316.4c-1-0.1-1-0.2-0.8-1.1c0-0.2,0.1-0.4,0.1-0.5c0.2-0.8,1-1.2,1.8-0.9c0.1,0,0.2,0.1,0.2,0.2
		c-0.1,0.6-0.1,1.3-0.4,1.8C219,316.2,218.5,316.3,218.1,316.4z"/>
	<path class="st1" d="M201.8,316.4c-1-0.2-1.1-0.2-0.9-1.1c0-0.2,0.1-0.4,0.1-0.6c0.2-0.7,1.2-1.2,1.8-0.8c0.1,0.1,0.2,0.3,0.2,0.4
		c-0.1,0.5-0.1,1-0.3,1.5C202.6,316.1,202.1,316.2,201.8,316.4z"/>
	<path class="st1" d="M197.1,316.3c-0.7,0.1-0.8-0.2-0.7-0.9c0.1-0.3,0.1-0.7,0.2-1c0.1-0.2,0.4-0.5,0.6-0.5
		c0.5,0.1,1.3-0.5,1.3,0.4C198.6,315.8,198.2,316.3,197.1,316.3z"/>
	<path class="st0" d="M3.5,330.6c1-1,2-2,3.1-3c2.1,1.8,4.7,2.2,7.4,1.9c2.2-0.3,3.5-1.8,3-3.9c-0.3-1.2-1-1.9-2.2-2.1
		c-1.3-0.2-2.7-0.4-4-0.6c-0.2,0-0.4-0.1-0.5-0.1c-3.6-0.7-5.6-2.7-5.8-5.9c-0.3-3.9,1.5-6.9,5.1-7.9c3.8-1.1,7.6-0.9,10.9,1.7
		c0.2,0.2,0.4,0.3,0.5,0.5c-1,1-1.9,2-2.9,3c-1.6-1.4-3.6-1.7-5.7-1.6c-1.2,0.1-2.2,0.5-2.9,1.5c-1.3,1.9-0.3,4.1,2,4.5
		c1.6,0.3,3.2,0.5,4.8,0.8c1.9,0.4,3.5,1.3,4.6,3c2,3.4,0.8,8-2.5,10c-3.6,2.3-11.1,2-14.5-1.3C3.8,330.9,3.7,330.8,3.5,330.6z"/>
	<path class="st0" d="M29.6,332.2c0,0.4-0.1,0.7-0.1,1c0,2.1,0,4.2,0,6.4c0,0.7-0.2,0.9-0.9,0.9c-0.8-0.1-1.7-0.1-2.5,0
		c-0.8,0.1-1-0.3-1-1c0-4.3,0-8.7,0-13c0-3.4,0-6.7,0-10.1c0-0.7,0.2-1,0.9-0.9c0.8,0.1,1.6,0.1,2.5,0c0.7,0,1,0.2,0.9,0.9
		c0,0.2,0.1,0.4,0.1,0.7c0.2-0.1,0.3-0.2,0.4-0.3c2.2-1.9,4.6-1.9,7.1-0.8c1.8,0.8,2.7,2.4,3,4.3c0.5,3,0.5,6-0.1,9
		c-0.9,4.5-6.3,6.3-9.8,3.4C30,332.4,29.9,332.3,29.6,332.2z M36.1,324.5c-0.2-1.1-0.2-2.2-0.5-3.3c-0.3-1.4-1.3-2.1-2.7-2.1
		c-1.5,0-2.5,0.6-2.9,2c-0.6,2.2-0.6,4.5,0,6.7c0.4,1.4,1.4,2,2.9,2c1.4,0,2.4-0.7,2.7-2.1C35.8,326.8,35.9,325.6,36.1,324.5z"/>
	<path class="st0" d="M58.3,316.8c1.1-0.5,2.1-1.1,3.2-1.4c3.8-0.9,7.2,1.4,7.4,5.4c0.2,4.1,0.1,8.2,0.1,12.3c0,0.2-0.3,0.5-0.5,0.6
		c-1.1,0.1-2.2,0-3.3,0c-0.7,0-0.6-0.5-0.6-0.9c0-3.2,0-6.4,0-9.6c0-0.3,0-0.7,0-1c-0.1-1.6-1.2-2.8-2.8-2.9c-1.6-0.1-3,0.9-3.3,2.5
		c-0.1,0.4-0.1,0.9-0.1,1.3c0,3.2,0,6.5,0,9.7c0,0.7-0.2,1-0.9,1c-0.9-0.1-1.8,0-2.7,0c-0.5,0-0.8-0.2-0.8-0.7c0-5.6,0-11.2,0-16.8
		c0-0.5,0.2-0.8,0.7-0.7c0.9,0,1.8,0.1,2.7,0c0.7,0,1,0.2,0.9,0.9C58.2,316.5,58.3,316.6,58.3,316.8z"/>
	<path class="st0" d="M87.3,325.6c-0.2,1.1-0.3,2.7-0.9,4.2c-1,2.8-3.7,4.3-6.7,4.1c-3.1-0.2-5.5-2.1-6.2-5.2
		c-0.6-2.5-0.6-4.9,0-7.4c0.8-3.2,3.6-5.3,6.9-5.1c3.5,0.2,5.9,2.3,6.5,5.6C87.1,322.9,87.1,324,87.3,325.6z M84.9,325.1
		c-0.1-1.2-0.2-2.3-0.5-3.4c-0.5-2.1-2.1-3.4-4.3-3.4c-2.1,0-3.8,1.3-4.3,3.4c-0.2,0.8-0.3,1.6-0.3,2.4c0.1,1.6,0.1,3.1,0.4,4.6
		c0.5,2,2.2,3.1,4.4,3.1c2,0,3.6-1.3,4.1-3.2C84.7,327.4,84.8,326.2,84.9,325.1z"/>
	<path class="st0" d="M44.6,324.7c0-2.6,0-5.2,0-7.9c0-0.7,0.2-0.9,0.9-0.9c0.9,0,1.9,0,2.8,0c0.5,0,0.8,0.1,0.8,0.7
		c0,5.4,0,10.8,0,16.2c0,0.5-0.2,0.8-0.8,0.7c-1,0-1.9,0-2.9,0c-0.6,0-0.8-0.2-0.8-0.8C44.6,330.1,44.6,327.4,44.6,324.7z"/>
	<path class="st0" d="M94.7,326c0,2.3,0,4.6,0,6.8c0,0.6-0.2,0.8-0.8,0.8c-1.9,0-1.6,0.1-1.6-1.5c0-4.3,0-8.5,0-12.8
		c0-1.1,0-1.1-1.1-1.1c-0.5,0-1.1,0.2-1.1-0.8c0-0.8,0.2-1,1-1c1.2,0,1.2,0,1.3-1.2c0-1,0-2,0.1-2.9c0.3-2.3,1.7-3.5,4.1-3.7
		c0.2,0,0.5,0,0.7,0c1.2,0,1.2,0,1.2,1.2c0,0.7-0.3,0.8-0.8,0.8c-2.2,0-2.8,0.8-2.8,2.9c0,0.8,0,1.5,0,2.3c0,0.5,0.2,0.7,0.7,0.7
		c0.8,0,1.6,0,2.4,0c0.6,0,0.7,0.4,0.6,0.8c0,0.4,0.1,0.9-0.6,0.9c-0.7,0-1.4,0-2.1,0c-0.7-0.1-1,0.2-1,1
		C94.7,321.4,94.7,323.7,94.7,326z"/>
	<path class="st0" d="M103,326c0-2.3,0-4.6,0-6.8c0-0.7-0.3-1-1-0.9c-0.2,0-0.3,0-0.5,0c-0.7,0.1-0.8-0.3-0.8-0.9
		c0-0.6,0.1-0.9,0.8-0.8c1.6,0,1.4,0.1,1.4-1.5c0-0.7,0-1.4,0-2.1c0.1-2.5,1.7-4.2,4.2-4.3c0.2,0,0.5,0,0.7,0c1.1,0,1.1,0,1.1,1.2
		c0,0.7-0.2,0.9-0.9,0.9c-2,0-2.7,0.7-2.8,2.7c0,0.8,0,1.5,0,2.3c0,0.6,0.2,0.9,0.8,0.8c0.7,0,1.4,0,2.1,0c0.6,0,0.8,0.3,0.7,0.8
		c0,0.5,0,1-0.7,0.9c-0.6,0-1.2,0-1.7,0c-1.2,0-1.2,0-1.2,1.2c0,4.4,0,8.7,0,13.1c0,0.4-0.1,1-0.3,1c-0.6,0.1-1.3,0.1-1.9,0
		c-0.1,0-0.2-0.5-0.2-0.7C103,330.5,103,328.2,103,326z"/>
	<path class="st0" d="M46.8,312.1c-2.3,0-2.3,0-2.3-2.3c0-1.5-0.1-1.3,1.3-1.3c0.9,0,1.7,0,2.6,0c0.4,0,0.6,0.2,0.6,0.6
		c0,0.8,0,1.6,0,2.4c0,0.4-0.2,0.6-0.6,0.6C47.9,312.1,47.3,312.1,46.8,312.1z"/>
	<path class="st1" d="M36.1,324.5c-0.2,1.1-0.2,2.2-0.5,3.3c-0.3,1.4-1.3,2.1-2.7,2.1c-1.5,0-2.5-0.6-2.9-2c-0.6-2.2-0.6-4.5,0-6.7
		c0.4-1.4,1.4-2,2.9-2c1.4,0,2.4,0.7,2.7,2.1C35.8,322.3,35.9,323.4,36.1,324.5z"/>
	<path class="st1" d="M84.9,325.1c-0.2,1.1-0.2,2.3-0.5,3.4c-0.5,2-2.1,3.2-4.1,3.2c-2.2,0-3.9-1-4.4-3.1c-0.3-1.5-0.3-3.1-0.4-4.6
		c0-0.8,0.1-1.6,0.3-2.4c0.5-2.1,2.2-3.4,4.3-3.4c2.2,0,3.8,1.2,4.3,3.4C84.7,322.8,84.8,323.9,84.9,325.1z"/>
</g>
</svg>
