<?xml version="1.0" encoding="utf-8"?>
<!-- Generator: Adobe Illustrator 19.0.0, SVG Export Plug-In . SVG Version: 6.00 Build 0)  -->
<!DOCTYPE svg PUBLIC "-//W3C//DTD SVG 1.1//EN" "http://www.w3.org/Graphics/SVG/1.1/DTD/svg11.dtd">
<svg version="1.1" id="Ebene_1" xmlns="http://www.w3.org/2000/svg" xmlns:xlink="http://www.w3.org/1999/xlink" x="0px" y="0px"
	 width="231.9px" height="100px" viewBox="-22 271 231.9 100" style="enable-background:new -22 271 231.9 100;"
	 xml:space="preserve">
<style type="text/css">
	.st0{fill:#12596D;}
</style>
<g id="XMLID_146_">
	<path id="XMLID_316_" class="st0" d="M52.1,307.3c0.3,0.3,0.5,0.7,0.8,0.8c3.9,1.7,4.5,6.5,1.2,9.1c-1.2,1-2.5,1.8-3.7,2.8
		c-0.2,0.2-0.5,0.6-0.5,0.9c0.5,2.3,1.1,4.6,1.7,7c0.8-0.5,0.8-1,0.6-1.7c-0.3-1.2-0.7-2.4-0.9-3.6c-0.4-2,0.9-3.5,2.7-3.3
		c1.3,0.1,2.2,1.2,2.3,2.8c0.1,1.7-0.7,3-1.7,4.2c-0.6,0.7-1,1.4-0.6,2.4c0.2,0.5,0.3,0.8,0.9,0.9c0.4,0.1,0.9,0.7,0.9,1.2
		c0,0.4-0.5,1-0.8,1.1c-0.5,0-1.2-0.3-1.4-0.7c-0.4-0.7-0.5-1.5-0.8-2.3c-0.7,0.4-0.9,0.9-0.6,1.6c0.7,2.6,1.4,5.1,2,7.7
		c0.4,1.7-0.6,3-2.2,2.9c-1.4-0.1-2.3-1.6-1.7-2.9c0.3-0.6,0.2-0.9-0.1-1.4c-0.5-0.7-1-1.5-1.5-2.4c-1.3,1.9-2.5,3.6-3.7,5.3
		c-0.5,0.8-1.2,1.3-2.2,1.3c-1.1-0.1-1.9-0.9-2-2s0.5-1.8,1.7-2.1c0.3-0.1,0.7-0.4,0.8-0.7c0.8-2.2,1.5-4.4,2.3-6.6
		c0.4-1.1,0.8-2.2,2.4-2.1c-0.7-1.5-1.3-2.8-2-4.3c-0.7,0.5-1.3,1-1.9,1.4c-0.4,0.3-0.7,0.7-1.1,0.7c-1.2,0.1-1.3,0.9-1.3,1.9
		c-0.1,1.9-0.4,3.8-0.5,5.7c-0.4,4.6-4.4,8.2-9.1,8.2c-4.6,0-8.5-3.7-8.9-8.2c-0.2-2.2-0.4-4.3-0.6-6.5c0-0.2-0.1-0.6-0.3-0.7
		c-1.3-0.8-2.6-1.5-3.9-2.2c-0.6,1.2-1.2,2.6-1.9,4c1.7,0,2.1,1.2,2.5,2.5c0.7,2.1,1.4,4.1,2.2,6.2c0.1,0.3,0.5,0.7,0.8,0.8
		c0.9,0.2,1.4,0.7,1.6,1.5c0.2,0.9-0.2,1.7-1,2.2s-1.6,0.5-2.3,0c-0.4-0.3-0.7-0.7-1-1.1c-1.2-1.7-2.3-3.3-3.6-5.1
		c-0.6,1-1.2,1.9-1.8,2.9c-0.1,0.2,0,0.5,0.1,0.6c0.5,0.9,0.4,1.8-0.3,2.6c-0.7,0.7-1.6,0.8-2.5,0.3s-1.3-1.3-1-2.5
		c0.5-2.2,1.1-4.3,1.7-6.5c0.1-0.4,0.2-0.9,0.4-1.3c0.3-0.7,0.1-1.3-0.6-1.7c-0.2,0.8-0.4,1.6-0.8,2.3c-0.2,0.4-0.9,0.8-1.4,0.7
		c-0.4,0-0.9-0.7-0.9-1.1s0.5-0.9,0.9-1.1c0.8-0.4,1.3-1.8,0.8-2.6c-0.8-1.2-1.5-2.4-2.2-3.6c0-0.6,0-1.2,0-1.9
		c0.4-0.6,0.6-1.3,1.1-1.7c0.7-0.7,2-0.7,2.9-0.2s1.3,1.7,1.1,2.9c-0.3,1.3-0.6,2.6-0.9,3.8c-0.2,0.7,0,1.2,0.7,1.6
		c0.6-2.2,1.1-4.4,1.7-6.6c0.2-0.7,0-1-0.5-1.4c-1.2-0.9-2.4-1.8-3.6-2.7c-3.3-2.6-2.7-7.4,1.2-9.1c0.3-0.1,0.5-0.5,0.8-0.8
		c0.3,0,0.5,0,0.8,0c0.3,0.1,0.6,0.4,0.9,0.4c0.8,0.1,1.6,0,2.4,0c0,0.8,0,1.4,0,2c-0.4,0.2-0.7,0.3-1,0.4c0,0.1,0,0.2,0,0.3
		c1-0.1,2-0.1,3-0.2c0.1,0.7-0.3,1-1,1.1c-0.6,0-1.3,0.2-1.9,0.1c-0.4-0.1-1-0.5-1.1-0.8c-0.1-0.4,0.2-0.9,0.4-1.4
		c0.1-0.2,0.4-0.3,0.7-0.5c-1.1-0.1-2.2,0.7-2.2,1.6c0,0.4,0,1.2,0.2,1.2c0.9,0.3,1.9,0.4,2.9,0.6c-0.1,0.1-0.2,0.1-0.3,0.2
		c0.9,0.6,1.9,1.3,2.8,1.9c0.4-0.8,1.1-1.6,0.6-2.8c-0.3-1,0.6-2.1,1.7-2.2c0.6,0,1.2,0.2,1.9,0.3c0-0.4,0-1,0-1.6c6,0,12,0,18,0
		c0,0.6,0,1.1,0,1.7c0.4-0.2,0.6-0.3,0.8-0.4c1.4-0.5,3.1,0.7,2.7,2.1c-0.4,1.3,0.3,2.1,0.6,2.8c0.9-0.6,1.8-1.2,3.3-2.1
		c1.8,0,2.2,0,2.3-0.5c0.1-0.6,0.1-1.3-0.2-1.7c-0.4-0.6-0.8-1.4-1.9-0.9c0.8,0.4,1.4,0.9,1.1,1.8c-0.3,0.9-1,1-1.8,0.9
		c-0.4,0-0.8-0.1-1.2-0.1c-0.7,0-1.1-0.3-1-1.1c1,0.1,2,0.1,3,0.2c0-0.1,0-0.3,0-0.4c-0.3-0.1-0.6-0.3-0.9-0.4c0-0.7,0-1.4,0-2
		c0.9,0,1.7,0,2.4,0c0.3,0,0.5-0.3,0.8-0.4C51.5,307.3,51.8,307.3,52.1,307.3z M39.8,334.2c0.1-0.6,0.2-0.9,0.3-1.3
		c0.2-2.4,0.4-4.8,0.6-7.1c0-0.4-0.1-0.9-0.3-1.4c-0.4-0.8-0.4-1.7,0.2-2.3c0.9-0.9,0.5-2,0.7-3.1c-5.7,0-11.2,0-17,0
		C29.4,324.1,34.5,329.1,39.8,334.2z M18.6,319.1c0.6-3.4-1.6-6.1-4.7-6.3c-0.9,0-1.5-0.4-1.6-1.4c-0.1-0.8-0.2-1.5-0.3-2.4
		c-1.5,0.7-2.4,1.7-2.7,3.3c-0.3,1.6,0.3,2.9,1.6,3.9c3.4,2.6,6.9,5.2,10.3,7.8c0.2,0.1,0.4,0.3,0.6,0.3c0.3,0,0.8-0.2,1-0.4
		c0.2-0.2,0.2-0.7,0.1-0.9c-0.2-0.3-0.7-0.6-0.8-0.6c-0.8,0.4-1.3-0.2-1.8-0.6c-1.1-0.8-2.2-1.7-3.3-2.4c-0.7-0.5-0.8-1-0.3-1.7
		C17.4,318.2,17.9,318.7,18.6,319.1z M47.6,317.8c0.5,0.8,0.3,1.3-0.4,1.7c-1.2,0.8-2.3,1.8-3.6,2.6c-0.4,0.2-0.9,0.2-1.3,0.4
		c-0.4,0.1-0.8,0.3-1,0.5c-0.1,0.2-0.1,0.7,0.1,0.9c0.3,0.2,0.7,0.4,1.1,0.4c0.2,0,0.5-0.2,0.7-0.4c3.3-2.5,6.6-5,9.9-7.5
		c0.6-0.4,1.1-1,1.5-1.7c1.2-2.2-0.1-5-2.3-5.5c0,0.5,0,0.9-0.1,1.3c-0.2,2-0.4,2.2-2.4,2.3c-2.5,0.1-4.7,3.6-3.9,6.2
		C46.5,318.6,47,318.2,47.6,317.8z M41.2,312.7c-0.1,0-0.2,0-0.3,0c-0.1,1.1-0.2,2.3-0.4,3.5c-5.6,0-11.2,0-16.7,0
		c-0.1-1.2-0.2-2.3-0.4-3.5c-0.1,0-0.1,0-0.2,0c-1.1,2.5-2.3,4.9-3.4,7.4c0.5,0.4,0.9,0.7,1.3,1c0.2,0.1,0.5,0.2,0.6,0.1
		s0.2-0.4,0.2-0.6c-0.1-0.9-0.1-1.9-0.2-2.8c7,0,13.9,0,20.9,0c-0.1,1-0.2,2-0.2,3c0,0.6,0.3,0.8,0.8,0.4c0.5-0.3,0.9-0.7,1.4-1.1
		C43.4,317.6,42.3,315.2,41.2,312.7z M52.3,337.8c-0.3,0.2-0.6,0.2-0.6,0.4c-0.1,0.4-0.2,0.8-0.1,1.1c0.1,0.2,0.7,0.4,0.9,0.3
		c0.3-0.1,0.5-0.6,0.6-0.9c0.1-0.2-0.1-0.5-0.1-0.7c-0.8-3.2-1.7-6.4-2.5-9.6c-0.6-2.3-1.2-4.7-1.8-7.2c-0.7,0.5-1.2,0.9-1.8,1.3
		c1.2,2.7,2.4,5.3,3.5,7.9c-1.8,0.3-2.1,1.1-1.2,2.6C50.2,334.6,51.2,336.2,52.3,337.8z M14,330.4c1.2-2.7,2.4-5.3,3.6-7.9
		c-0.6-0.4-1.2-0.8-1.8-1.2c-1.5,5.8-3,11.4-4.4,17c0,0.2-0.1,0.4,0,0.5c0.2,0.3,0.4,0.7,0.6,0.8c0.3,0.1,0.8-0.1,0.9-0.4
		c0.1-0.2,0-0.7-0.1-1c-0.1-0.2-0.4-0.3-0.6-0.5c1-1.6,2-3.2,3-4.8C16.1,331.5,15.7,330.7,14,330.4z M24.7,314
		c-0.2,1.3-0.1,1.4,1,1.4c4.3,0,8.6,0,12.9,0c0.3,0,0.7,0,1-0.1c0-0.5,0.1-0.9,0.1-1.3C34.7,314,29.7,314,24.7,314z M43.8,338.2
		c-0.3-0.1-0.6-0.2-0.8-0.2c-0.3,0.1-0.7,0.4-0.9,0.7c-0.1,0.2,0.1,0.8,0.3,0.9c0.3,0.1,0.7,0,1.1,0c0.2,0,0.3-0.3,0.4-0.4
		c1.2-1.8,2.5-3.5,3.7-5.3c0.2-0.2,0.2-0.6,0.1-0.9c-0.6-1.6-0.3-2.3,1.3-3.2c-0.4-0.4-0.8-1.1-1-1.1c-0.5,0.1-0.9,0.6-1.2,1
		c-0.2,0.2-0.2,0.5-0.3,0.8C45.6,333,44.7,335.5,43.8,338.2z M15.2,329.7c1.7,0.8,1.9,1.5,1.4,3c-0.1,0.3-0.1,0.8,0.1,1
		c1.2,1.8,2.5,3.6,3.7,5.3c0.2,0.2,0.3,0.5,0.6,0.6s0.7,0.1,0.9-0.1c0.2-0.2,0.4-0.6,0.3-0.9c-0.1-0.3-0.5-0.6-0.8-0.7
		c-0.2-0.1-0.6,0.1-0.9,0.2c-1-2.9-1.9-5.7-3-8.4c-0.2-0.5-0.7-0.9-1.2-1.2C16.2,328.5,15.7,329.2,15.2,329.7z M24.9,334.3
		c0,0.9,0.4,1.1,1.1,1.1c4,0,8,0,12.1,0c0.2,0,0.5-0.1,0.8-0.1c-0.4-0.8-1-1-1.8-1c-1.8,0-3.5,0-5.3,0
		C29.4,334.3,27.2,334.3,24.9,334.3z M26,336.6c-0.1,0.1-0.1,0.2-0.2,0.4c0.5,0.2,0.9,0.7,1.4,0.7c3.3,0.1,6.6,0,9.8,0
		c0.7,0,1.1-0.4,1.3-1.1C34.2,336.6,30.1,336.6,26,336.6z M36.5,333.1c-0.5-0.9-1-1.1-1.8-1.1c-3.1,0-6.2,0-9.3,0
		c-0.3,0-0.7,0-1.1,0c0.1,0.5,0.1,0.7,0.2,1.1C28.5,333.1,32.4,333.1,36.5,333.1z M24.1,329.7c-0.2,0.9,0.2,1.1,0.8,1.1
		c2.9,0,5.7,0,8.6,0c0.2,0,0.4-0.1,0.9-0.2c-0.7-0.4-1.1-0.9-1.5-0.9C30,329.7,27,329.7,24.1,329.7z M11.1,325.6
		c0.3-1.3,0.6-2.3,0.8-3.4c0.2-0.9-0.5-1.8-1.2-1.8s-1.3,0.8-1.2,1.7C9.5,323.4,10.1,324.5,11.1,325.6z M53.3,325.6
		c1-1.1,1.6-2.1,1.7-3.4c0.1-1-0.5-1.8-1.2-1.8c-0.8,0-1.4,0.8-1.2,1.8C52.7,323.3,53,324.4,53.3,325.6z M44.5,317.4
		c0.7-1.2,0.5-2.1-0.2-3c-0.3-0.4-0.4-0.9-0.7-1.3c-0.2-0.5-0.5-0.8-0.1-1.4c0.1-0.2-0.1-0.8-0.4-1c-0.2-0.2-0.7-0.2-0.9,0
		s-0.5,0.8-0.4,1C42.8,313.6,43.6,315.4,44.5,317.4z M19.9,317.3c0.9-1.9,1.7-3.7,2.5-5.6c0.1-0.2,0.1-0.5,0-0.6
		c-0.3-0.3-0.7-0.7-1-0.7c-0.3,0.1-0.8,0.8-0.7,0.9c0.6,1.1-0.2,1.8-0.6,2.6C19.7,315.1,19,316,19.9,317.3z M31.7,328.5
		c0-0.1,0.1-0.3,0.1-0.4c-0.5-0.2-1.1-0.6-1.6-0.6c-1.3-0.1-2.5,0-3.8,0c-0.8,0-1.7,0-2.5,0c-0.2,0.8,0,1.1,0.7,1.1
		c1.3,0,2.5,0,3.8,0C29.5,328.5,30.6,328.5,31.7,328.5z M36,338.9c-2.6,0-5.1,0-7.6,0C30.3,340.4,33.8,340.5,36,338.9z M23.8,326.1
		c1.9,0,3.7,0,5.5,0c0-0.1,0.1-0.3,0.1-0.4c-0.6-0.2-1.1-0.5-1.7-0.5c-1.1-0.1-2.2,0-3.3,0C23.7,325.2,23.5,325.4,23.8,326.1z
		 M24.4,311c0.9,0,1.7,0,2.4,0c0.1-2.1,0.1-2.2-0.8-2.1c0,0.4,0,0.8-0.1,1.2c-0.7,0.3-0.7-0.1-0.8-0.6c-0.1-0.3-0.4-0.5-0.5-0.8
		c-0.1,0.1-0.2,0.1-0.3,0.2C24.4,309.5,24.4,310.2,24.4,311z M29,310.3c-0.2-0.4-0.4-0.7-0.5-0.9c-0.1-0.2-0.3-0.4-0.4-0.7
		c-0.2,0.3-0.4,0.5-0.4,0.8c0,0.5,0,0.9,0.1,1.5c0.8,0,1.5,0,2.3,0c0-0.4,0.1-0.7,0-1c-0.1-0.4,0.4-1.2-0.5-1.2
		C29.5,308.8,29.3,309.5,29,310.3z M33.4,311c0-0.5,0.1-0.9,0-1.4c-0.1-0.3-0.3-0.6-0.4-0.9c-0.1,0.3-0.2,0.5-0.4,0.8
		c-0.1,0.2-0.3,0.4-0.5,0.6c-0.1-0.2-0.3-0.4-0.3-0.6c0-0.5,0-1-0.8-0.7c0,0.7,0,1.4,0,2.2C31.9,311,32.6,311,33.4,311z M35.5,310.2
		c-0.1-0.1-0.3-0.1-0.4-0.2c0-0.2,0-0.4,0-0.6c-0.1-0.2-0.2-0.4-0.4-0.7c-0.1,0.2-0.4,0.4-0.4,0.6c-0.1,0.5,0,1.1,0,1.6
		c0.8,0,1.5,0,2.3,0c0-0.5,0.1-1.1,0.1-1.6c0-0.2-0.2-0.5-0.3-0.7c-0.2,0.2-0.4,0.4-0.5,0.6C35.7,309.6,35.6,309.9,35.5,310.2z
		 M38.7,310.2c-0.1-0.1-0.2-0.2-0.4-0.2c0-0.2,0-0.4,0-0.5c-0.1-0.3-0.3-0.5-0.4-0.8c-0.2,0.2-0.4,0.5-0.5,0.7c-0.1,0.5,0,0.9,0,1.5
		c0.8,0,1.6,0,2.4,0c0-0.5,0.1-1,0.1-1.4c0-0.3-0.2-0.5-0.3-0.8c-0.2,0.2-0.3,0.5-0.5,0.7C39,309.7,38.9,310,38.7,310.2z
		 M24.5,311.8c0.1,0.5,0.1,0.8,0.2,1.2c0.7,0,1.3,0.1,1.8,0c0.2,0,0.5-0.4,0.5-0.6c0-0.2-0.3-0.5-0.5-0.6
		C25.9,311.8,25.2,311.8,24.5,311.8z M37.4,313c0.9,0,1.6,0,2.4,0c0-0.4,0-0.7,0-1.1c-0.8,0-1.6,0-2.4,0
		C37.4,312.3,37.4,312.6,37.4,313z M33.3,311.8c-0.5,0-0.9,0-1.4,0c-1-0.1-1.1,0.4-0.8,1.2C33.3,313.3,33.4,313.2,33.3,311.8z
		 M30.2,313c0-0.4,0-0.8-0.1-1.1c-0.8,0-1.5,0-2.3,0c0,0.4,0,0.7,0.1,1.1C28.7,313,29.4,313,30.2,313z M34.3,313
		c2.2,0.3,2.3,0.2,2.1-1C34.2,311.6,34,311.9,34.3,313z M27.1,323.9c-0.6-1.2-1.5-1.1-2.4-0.9c-0.2,0-0.3,0.5-0.5,0.9
		C25.3,323.9,26.2,323.9,27.1,323.9z M23.5,319.9c-0.2,1.9-0.1,2.1,1.3,1.7c-0.1-0.2-0.2-0.3-0.4-0.5
		C24.2,320.7,23.8,320.3,23.5,319.9z"/>
	<path id="XMLID_314_" class="st0" d="M77.2,311.7c-0.7,0-1.4,0.1-2,0c-0.3,0-0.6-0.3-0.7-0.5c-0.6-1.3-2.6-1.9-3.7-1
		c-0.3,0.3-0.6,0.8-0.6,1.2c0,0.3,0.4,0.8,0.8,1c1.2,0.4,2.5,0.7,3.7,1.1c2.3,0.7,3.3,2.1,3,4.2c-0.2,1.3-0.8,2.2-1.9,2.8
		c-2.3,1.1-4.6,1.1-6.9-0.2c-1.3-0.8-1.9-2-1.8-3.6c0.9,0,1.7,0,2.5,0c0.8,2.1,2.2,2.9,4.2,2.1c0.5-0.2,1.1-0.8,1.2-1.3
		c0.1-0.4-0.5-1.1-0.9-1.4c-0.8-0.4-1.7-0.6-2.6-0.8c-0.7-0.2-1.4-0.4-2-0.7c-2.3-1.2-2.6-4.3-0.5-5.9c1.8-1.4,5.2-1.4,7.1,0
		C76.8,309.3,77.3,310.3,77.2,311.7z"/>
	<path id="XMLID_312_" class="st0" d="M130.1,320.7c-3.5,0-7,0-10.5,0c-0.2-1.2-0.1-2.3,0.7-3.3c1.8-2,3.4-4.1,5.1-6.1
		c0.3-0.3,0.5-0.6,0.9-1.1c-2.2,0-4.2,0-6.2,0c0-0.8,0-1.5,0-2.3c3.3,0,6.5,0,9.8,0c0.2,1.1,0.3,2.1-0.6,3.1c-1.8,2-3.4,4.1-5.1,6.1
		c-0.3,0.3-0.5,0.7-1,1.3c1.4,0,2.5,0,3.6,0c0.5,0,1.1,0,1.6,0C130.4,318.4,130.5,318.5,130.1,320.7z"/>
	<path id="XMLID_309_" class="st0" d="M103.1,312.3c0-0.8,0-1.5,0-2.2s0-1.4,0-2.2c0.9,0,1.6,0,2.5,0c0,4.3,0,8.5,0,12.8
		c-0.8,0-1.5,0-2.2,0c0-0.3-0.1-0.5-0.1-0.8c-0.1,0-0.2,0-0.2,0c-2.5,2.1-5.6,1.1-6.5-2.1c-0.3-1.1-0.3-2.3-0.1-3.4
		C97.1,311.3,100.5,310.1,103.1,312.3z M98.8,316c0,1.9,1,3.2,2.4,3.1s2.2-1.4,2.1-3.3c-0.1-1.8-0.9-2.8-2.3-2.8
		C99.6,313.2,98.8,314.3,98.8,316z"/>
	<path id="XMLID_307_" class="st0" d="M167.9,320.7c-0.9,0-1.6,0-2.4,0c0-4.3,0-8.5,0-12.7c0.1-0.1,0.1-0.1,0.1-0.1
		c2.3-0.3,2.3-0.3,2.3,1.9c0,0.8,0,1.6,0,2.8c1.1-1.2,2.2-1.6,3.5-1.5c1.5,0.2,2.5,1,2.6,2.6c0.1,2.3,0,4.6,0,6.9
		c-0.8,0-1.5,0-2.4,0c0-1.4,0-2.9,0-4.3c0-0.5,0-1,0-1.6c-0.1-1.1-0.7-1.6-1.6-1.7c-1,0-1.7,0.5-1.8,1.6s-0.1,2.3-0.1,3.4
		C167.9,319,167.9,319.8,167.9,320.7z"/>
	<path id="XMLID_304_" class="st0" d="M88.6,314.3c-0.8,0-1.6,0-2.3,0c0-1.4,0.6-2.3,1.9-2.7c1.5-0.5,3.1-0.5,4.6,0
		c1.2,0.4,1.7,1.1,1.7,2.4c0,2.2,0,4.5,0,6.8c-0.7-0.2-1.7,0.6-2.3-0.3c-1.4,0.2-2.6,0.5-3.8,0.5c-1.5,0-2.4-1-2.5-2.4
		c-0.1-1.6,0.5-2.5,2-2.9c0.8-0.2,1.7-0.3,2.5-0.4c0.7-0.1,1.5-0.1,1.6-1c0-0.4-0.4-1-0.7-1.2c-0.8-0.3-1.6-0.3-2.2,0.4
		C88.8,313.7,88.8,314,88.6,314.3z M92,316.4c-0.9,0.2-1.7,0.3-2.5,0.5c-0.7,0.2-1.1,0.6-1.1,1.4c0.1,0.8,0.6,1,1.3,1.1
		C91.4,319.5,92.2,318.4,92,316.4z"/>
	<path id="XMLID_302_" class="st0" d="M131.9,311.5c0.8,0,1.5,0,2.4,0c0,0.8,0,1.5,0,2.2c0,1.3,0,2.6,0.1,3.8
		c0.1,0.9,0.5,1.4,1.4,1.5c0.9,0.1,1.7-0.2,1.9-1.2c0.2-0.6,0.2-1.3,0.2-1.9c0-1.4,0-2.8,0-4.3c0.8,0,1.6,0,2.4,0c0,3,0,6.1,0,9.2
		c-0.7,0-1.4,0-2.2,0c-0.1-0.2-0.1-0.6-0.2-1c-0.9,1-2,1.5-3.2,1.4c-1.8-0.1-2.7-0.9-2.9-2.6C131.8,316.1,131.9,313.8,131.9,311.5z"
		/>
	<path id="XMLID_300_" class="st0" d="M163.7,314.7c-0.6,0-1.3,0-1.9,0c-0.2,0-0.5-0.3-0.6-0.5c-0.4-0.8-1-1.1-1.8-1.1
		c-0.9,0-1.6,0.5-1.8,1.3c-0.2,1-0.2,2.2-0.1,3.2c0.1,0.9,0.8,1.4,1.7,1.5c0.9,0,1.6-0.4,2-1.3c0.1-0.2,0.1-0.3,0.2-0.5
		c0.7,0,1.5,0,2.2,0c0,2.2-1.7,3.7-4.2,3.8c-2.7,0-4.6-1.7-4.8-4.6c-0.2-2.9,1.6-5,4.2-5.2C161.6,311,163.4,312.3,163.7,314.7z"/>
	<path id="XMLID_245_" class="st0" d="M82.6,308.6c0,1,0,1.9,0,2.8c0.6,0,1.1,0.1,1.7,0.1c0,0.5,0,1,0,1.6c-0.5,0-1.1,0.1-1.8,0.1
		c0,1.7-0.1,3.3,0.1,5c0,0.4,1,0.7,1.5,1.1c0.1-0.1,0.1-0.2,0.2-0.2c0,0.6,0,1.1,0,2c-1.1-0.1-2.2-0.1-3.2-0.4
		c-1-0.2-1.2-1.2-1.2-2.1c0-1.8,0-3.5,0-5.3c-0.5-0.1-0.9-0.1-1.4-0.2c0-0.5,0-1,0-1.5c0.4,0,0.8-0.1,1.4-0.2c0-0.6,0-1.2,0-1.8
		c-0.1-0.7,0.2-1,0.9-1C81.4,308.6,81.9,308.6,82.6,308.6z"/>
	<path id="XMLID_241_" class="st0" d="M111.1,311.4c0.7,0,1.3,0.1,1.9,0.1c0,0.5,0,1,0,1.5c-0.6,0-1.1,0.1-1.8,0.1
		c0,1.7-0.1,3.4,0.1,5c0,0.4,1,0.7,1.5,1c0.1-0.1,0.2-0.1,0.3-0.2c0,0.4,0.1,0.8,0,1.2c-0.1,0.3-0.4,0.7-0.6,0.7
		c-0.8,0-1.6,0-2.4-0.2c-1-0.2-1.3-1.1-1.3-2.1c0-1.8,0-3.6,0-5.4c-0.5-0.1-0.9-0.1-1.4-0.2c0-0.5,0-0.9,0-1.5
		c0.4,0,0.8-0.1,1.4-0.2c0-0.9,0-1.7,0-2.7c0.9,0,1.6,0,2.5,0C111.1,309.6,111.1,310.4,111.1,311.4z"/>
	<path id="XMLID_224_" class="st0" d="M148.7,311.3c0,0.8,0,1.5,0,2.2c-0.2,0-0.4,0.1-0.5,0.1c-1.9,0.1-2.8,1-2.8,2.9
		c0,1.4,0,2.8,0,4.3c-0.8,0-1.6,0-2.4,0c0-3.1,0-6.1,0-9.2c0.7,0,1.4,0,2.2,0c0.1,0.4,0.1,0.8,0.2,1.3
		C146.2,311.7,147.2,310.9,148.7,311.3z"/>
	<path id="XMLID_177_" class="st0" d="M152.7,320.7c-0.8,0-1.6,0-2.4,0c0-3.1,0-6.1,0-9.2c0.8,0,1.5,0,2.4,0
		C152.7,314.5,152.7,317.6,152.7,320.7z"/>
	<path id="XMLID_155_" class="st0" d="M150.3,307.9c0.8,0,1.6,0,2.4,0c0,0.7,0,1.3,0,2c-0.8,0-1.6,0-2.4,0
		C150.3,309.2,150.3,308.6,150.3,307.9z"/>
	<path id="XMLID_153_" class="st0" d="M133.2,307.9c0.8,0,1.5,0,2.3,0c0,0.7,0,1.3,0,2c-0.7,0-1.5,0-2.3,0
		C133.2,309.2,133.2,308.6,133.2,307.9z"/>
	<path id="XMLID_151_" class="st0" d="M136.9,309.9c-0.3-2.1-0.1-2.3,2.2-1.9c0,0.6,0,1.2,0,1.9
		C138.4,309.9,137.7,309.9,136.9,309.9z"/>
</g>
</svg>
