<?xml version="1.0" encoding="UTF-8" standalone="no"?>
<!DOCTYPE svg PUBLIC "-//W3C//DTD SVG 1.1//EN" "http://www.w3.org/Graphics/SVG/1.1/DTD/svg11.dtd">
<svg width="100%" height="100%" viewBox="0 0 459 163" version="1.1" xmlns="http://www.w3.org/2000/svg" xmlns:xlink="http://www.w3.org/1999/xlink" xml:space="preserve" xmlns:serif="http://www.serif.com/" style="fill-rule:evenodd;clip-rule:evenodd;stroke-miterlimit:2;">
    <g transform="matrix(4.16667,0,0,4.16667,0,0)">
        <g>
            <clipPath id="_clip1">
                <rect x="29.458" y="1.736" width="78.691" height="35.417"/>
            </clipPath>
            <g clip-path="url(#_clip1)">
                <path d="M29.714,1.864L108.021,1.864" style="fill:none;stroke:rgb(35,31,32);stroke-width:0.26px;"/>
                <path d="M103.769,37.026L58.174,37.026" style="fill:none;stroke:rgb(35,31,32);stroke-width:0.26px;"/>
                <path d="M54.262,37.026L29.586,37.026" style="fill:none;stroke:rgb(35,31,32);stroke-width:0.26px;"/>
            </g>
        </g>
        <g>
            <clipPath id="_clip2">
                <rect x="34.652" y="20.897" width="73.496" height="16.242"/>
            </clipPath>
            <g clip-path="url(#_clip2)">
                <clipPath id="_clip3">
                    <rect x="36.482" y="20.897" width="71.666" height="6.214"/>
                </clipPath>
                <g clip-path="url(#_clip3)">
                    <path d="M40.716,21.328L40.716,22.567C40.395,22.424 40.081,22.315 39.775,22.242C39.47,22.169 39.181,22.132 38.909,22.132C38.548,22.132 38.282,22.182 38.109,22.281C37.937,22.38 37.85,22.535 37.85,22.744C37.85,22.901 37.908,23.023 38.025,23.11C38.141,23.198 38.352,23.273 38.658,23.336L39.301,23.465C39.952,23.596 40.414,23.794 40.689,24.061C40.963,24.328 41.101,24.707 41.101,25.198C41.101,25.844 40.909,26.324 40.526,26.639C40.143,26.954 39.558,27.111 38.772,27.111C38.4,27.111 38.028,27.076 37.654,27.005C37.281,26.935 36.907,26.83 36.533,26.692L36.533,25.418C36.907,25.616 37.268,25.766 37.617,25.867C37.966,25.967 38.302,26.017 38.627,26.017C38.956,26.017 39.208,25.963 39.383,25.853C39.558,25.743 39.646,25.586 39.646,25.382C39.646,25.199 39.586,25.058 39.468,24.959C39.349,24.86 39.111,24.771 38.756,24.692L38.172,24.563C37.586,24.437 37.158,24.238 36.888,23.963C36.617,23.689 36.482,23.319 36.482,22.854C36.482,22.271 36.67,21.822 37.047,21.509C37.423,21.195 37.964,21.038 38.67,21.038C38.991,21.038 39.322,21.062 39.662,21.111C40.001,21.159 40.353,21.232 40.716,21.328Z" style="fill:rgb(35,31,32);fill-rule:nonzero;"/>
                    <path d="M44.12,21.36L44.12,22.607L45.567,22.607L45.567,23.61L44.12,23.61L44.12,25.472C44.12,25.676 44.16,25.814 44.241,25.886C44.322,25.958 44.483,25.994 44.724,25.994L45.445,25.994L45.445,26.998L44.241,26.998C43.687,26.998 43.295,26.882 43.063,26.651C42.832,26.419 42.716,26.027 42.716,25.472L42.716,23.61L42.018,23.61L42.018,22.607L42.716,22.607L42.716,21.36L44.12,21.36Z" style="fill:rgb(35,31,32);fill-rule:nonzero;"/>
                    <path d="M46.602,25.288L46.602,22.607L48.013,22.607L48.013,23.046C48.013,23.284 48.012,23.582 48.009,23.942C48.007,24.301 48.005,24.541 48.005,24.661C48.005,25.014 48.015,25.268 48.033,25.424C48.051,25.579 48.083,25.692 48.127,25.763C48.184,25.854 48.26,25.925 48.352,25.974C48.445,26.024 48.552,26.049 48.672,26.049C48.965,26.049 49.195,25.936 49.362,25.712C49.529,25.487 49.613,25.175 49.613,24.775L49.613,22.607L51.016,22.607L51.016,26.998L49.613,26.998L49.613,26.362C49.401,26.619 49.177,26.807 48.94,26.929C48.704,27.051 48.443,27.111 48.158,27.111C47.651,27.111 47.265,26.956 47,26.645C46.734,26.334 46.602,25.882 46.602,25.288Z" style="fill:rgb(35,31,32);fill-rule:nonzero;"/>
                    <path d="M55.581,23.25L55.581,20.897L56.992,20.897L56.992,26.998L55.581,26.998L55.581,26.362C55.387,26.621 55.174,26.811 54.942,26.931C54.709,27.051 54.44,27.111 54.134,27.111C53.593,27.111 53.149,26.896 52.801,26.466C52.453,26.036 52.28,25.483 52.28,24.806C52.28,24.129 52.453,23.576 52.801,23.146C53.149,22.716 53.593,22.501 54.134,22.501C54.437,22.501 54.706,22.561 54.94,22.683C55.174,22.805 55.387,22.993 55.581,23.25ZM54.655,26.092C54.956,26.092 55.185,25.982 55.343,25.763C55.502,25.543 55.581,25.224 55.581,24.806C55.581,24.388 55.502,24.069 55.343,23.849C55.185,23.63 54.956,23.52 54.655,23.52C54.357,23.52 54.129,23.63 53.971,23.849C53.813,24.069 53.734,24.388 53.734,24.806C53.734,25.224 53.813,25.543 53.971,25.763C54.129,25.982 54.357,26.092 54.655,26.092Z" style="fill:rgb(35,31,32);fill-rule:nonzero;"/>
                    <path d="M62.952,24.79L62.952,25.19L59.67,25.19C59.704,25.52 59.823,25.767 60.027,25.931C60.231,26.096 60.516,26.178 60.882,26.178C61.177,26.178 61.48,26.134 61.789,26.047C62.099,25.959 62.417,25.827 62.744,25.649L62.744,26.731C62.412,26.856 62.08,26.951 61.748,27.015C61.416,27.079 61.084,27.111 60.752,27.111C59.958,27.111 59.34,26.909 58.9,26.506C58.46,26.102 58.239,25.535 58.239,24.806C58.239,24.09 58.456,23.527 58.888,23.116C59.321,22.706 59.916,22.501 60.674,22.501C61.364,22.501 61.916,22.708 62.33,23.124C62.745,23.54 62.952,24.095 62.952,24.79ZM61.509,24.324C61.509,24.057 61.431,23.842 61.276,23.679C61.12,23.515 60.917,23.434 60.666,23.434C60.394,23.434 60.173,23.51 60.004,23.663C59.834,23.816 59.728,24.036 59.686,24.324L61.509,24.324Z" style="fill:rgb(35,31,32);fill-rule:nonzero;"/>
                    <path d="M68.645,24.324L68.645,26.998L67.234,26.998L67.234,24.951C67.234,24.572 67.225,24.311 67.208,24.167C67.191,24.023 67.162,23.917 67.12,23.849C67.065,23.758 66.991,23.687 66.896,23.636C66.802,23.585 66.695,23.559 66.575,23.559C66.282,23.559 66.052,23.672 65.885,23.898C65.718,24.124 65.634,24.437 65.634,24.837L65.634,26.998L64.23,26.998L64.23,22.607L65.634,22.607L65.634,23.25C65.846,22.993 66.071,22.805 66.308,22.683C66.546,22.561 66.809,22.501 67.096,22.501C67.604,22.501 67.988,22.656 68.251,22.967C68.514,23.278 68.645,23.73 68.645,24.324Z" style="fill:rgb(35,31,32);fill-rule:nonzero;"/>
                    <path d="M71.708,21.36L71.708,22.607L73.154,22.607L73.154,23.61L71.708,23.61L71.708,25.472C71.708,25.676 71.748,25.814 71.829,25.886C71.91,25.958 72.071,25.994 72.311,25.994L73.033,25.994L73.033,26.998L71.829,26.998C71.275,26.998 70.882,26.882 70.651,26.651C70.42,26.419 70.304,26.027 70.304,25.472L70.304,23.61L69.606,23.61L69.606,22.607L70.304,22.607L70.304,21.36L71.708,21.36Z" style="fill:rgb(35,31,32);fill-rule:nonzero;"/>
                    <path d="M78.62,24.79L78.62,25.19L75.338,25.19C75.372,25.52 75.491,25.767 75.695,25.931C75.899,26.096 76.184,26.178 76.55,26.178C76.845,26.178 77.148,26.134 77.458,26.047C77.767,25.959 78.086,25.827 78.412,25.649L78.412,26.731C78.08,26.856 77.748,26.951 77.416,27.015C77.084,27.079 76.752,27.111 76.421,27.111C75.626,27.111 75.008,26.909 74.568,26.506C74.128,26.102 73.907,25.535 73.907,24.806C73.907,24.09 74.124,23.527 74.556,23.116C74.989,22.706 75.584,22.501 76.342,22.501C77.032,22.501 77.584,22.708 77.999,23.124C78.413,23.54 78.62,24.095 78.62,24.79ZM77.177,24.324C77.177,24.057 77.099,23.842 76.944,23.679C76.788,23.515 76.585,23.434 76.334,23.434C76.062,23.434 75.842,23.51 75.672,23.663C75.502,23.816 75.396,24.036 75.354,24.324L77.177,24.324Z" style="fill:rgb(35,31,32);fill-rule:nonzero;"/>
                    <path d="M84.313,24.324L84.313,26.998L82.902,26.998L82.902,24.951C82.902,24.572 82.893,24.311 82.876,24.167C82.859,24.023 82.83,23.917 82.788,23.849C82.733,23.758 82.659,23.687 82.565,23.636C82.471,23.585 82.363,23.559 82.243,23.559C81.95,23.559 81.72,23.672 81.553,23.898C81.386,24.124 81.302,24.437 81.302,24.837L81.302,26.998L79.899,26.998L79.899,22.607L81.302,22.607L81.302,23.25C81.514,22.993 81.739,22.805 81.977,22.683C82.214,22.561 82.477,22.501 82.765,22.501C83.272,22.501 83.657,22.656 83.919,22.967C84.182,23.278 84.313,23.73 84.313,24.324Z" style="fill:rgb(35,31,32);fill-rule:nonzero;"/>
                    <path d="M85.451,22.607L86.815,22.607L87.552,25.633L88.293,22.607L89.465,22.607L90.202,25.602L90.943,22.607L92.308,22.607L91.151,26.998L89.618,26.998L88.877,23.979L88.14,26.998L86.607,26.998L85.451,22.607Z" style="fill:rgb(35,31,32);fill-rule:nonzero;"/>
                    <path d="M97.864,24.79L97.864,25.19L94.582,25.19C94.616,25.52 94.735,25.767 94.939,25.931C95.143,26.096 95.428,26.178 95.794,26.178C96.089,26.178 96.392,26.134 96.701,26.047C97.011,25.959 97.329,25.827 97.656,25.649L97.656,26.731C97.324,26.856 96.992,26.951 96.66,27.015C96.328,27.079 95.996,27.111 95.664,27.111C94.87,27.111 94.252,26.909 93.812,26.506C93.371,26.102 93.151,25.535 93.151,24.806C93.151,24.09 93.367,23.527 93.8,23.116C94.233,22.706 94.828,22.501 95.586,22.501C96.276,22.501 96.828,22.708 97.242,23.124C97.657,23.54 97.864,24.095 97.864,24.79ZM96.421,24.324C96.421,24.057 96.343,23.842 96.188,23.679C96.032,23.515 95.829,23.434 95.578,23.434C95.306,23.434 95.085,23.51 94.915,23.663C94.746,23.816 94.64,24.036 94.598,24.324L96.421,24.324Z" style="fill:rgb(35,31,32);fill-rule:nonzero;"/>
                    <path d="M102.404,23.802C102.281,23.745 102.159,23.702 102.038,23.675C101.916,23.647 101.794,23.634 101.671,23.634C101.31,23.634 101.033,23.749 100.838,23.981C100.643,24.212 100.546,24.543 100.546,24.975L100.546,26.998L99.142,26.998L99.142,22.607L100.546,22.607L100.546,23.328C100.726,23.04 100.933,22.831 101.167,22.699C101.401,22.567 101.682,22.501 102.008,22.501C102.055,22.501 102.106,22.503 102.161,22.507C102.216,22.511 102.296,22.519 102.4,22.532L102.404,23.802Z" style="fill:rgb(35,31,32);fill-rule:nonzero;"/>
                    <path d="M103.33,20.897L104.734,20.897L104.734,24.218L106.349,22.607L107.98,22.607L105.835,24.622L108.148,26.998L106.447,26.998L104.734,25.167L104.734,26.998L103.33,26.998L103.33,20.897Z" style="fill:rgb(35,31,32);fill-rule:nonzero;"/>
                </g>
            </g>
        </g>
        <g>
            <clipPath id="_clip4">
                <rect x="34.652" y="20.897" width="73.496" height="16.242"/>
            </clipPath>
            <g clip-path="url(#_clip4)">
                <clipPath id="_clip5">
                    <rect x="34.652" y="29.277" width="73.108" height="7.862"/>
                </clipPath>
                <g clip-path="url(#_clip5)">
                    <path d="M34.652,29.527L38.397,29.527L38.397,30.201L35.453,30.201L35.453,31.954L38.274,31.954L38.274,32.629L35.453,32.629L35.453,34.775L38.468,34.775L38.468,35.449L34.652,35.449L34.652,29.527Z" style="fill:rgb(35,31,32);fill-rule:nonzero;"/>
                    <path d="M42.156,31.689C42.074,31.641 41.984,31.606 41.888,31.584C41.791,31.561 41.685,31.55 41.568,31.55C41.156,31.55 40.839,31.684 40.618,31.953C40.398,32.221 40.287,32.606 40.287,33.109L40.287,35.449L39.553,35.449L39.553,31.006L40.287,31.006L40.287,31.697C40.441,31.427 40.64,31.227 40.886,31.096C41.132,30.965 41.431,30.899 41.783,30.899C41.833,30.899 41.888,30.903 41.949,30.909C42.01,30.916 42.078,30.926 42.152,30.939L42.156,31.689Z" style="fill:rgb(35,31,32);fill-rule:nonzero;"/>
                    <rect x="42.749" y="29.277" width="0.73" height="6.172" style="fill:rgb(35,31,32);fill-rule:nonzero;"/>
                    <path d="M46.841,33.216C46.251,33.216 45.843,33.283 45.615,33.418C45.388,33.553 45.274,33.783 45.274,34.108C45.274,34.368 45.36,34.573 45.53,34.725C45.701,34.877 45.933,34.953 46.226,34.953C46.631,34.953 46.955,34.81 47.2,34.523C47.445,34.236 47.567,33.854 47.567,33.378L47.567,33.216L46.841,33.216ZM48.297,32.914L48.297,35.449L47.567,35.449L47.567,34.775C47.4,35.044 47.193,35.243 46.944,35.372C46.696,35.5 46.391,35.564 46.032,35.564C45.577,35.564 45.215,35.436 44.947,35.181C44.679,34.926 44.544,34.584 44.544,34.156C44.544,33.656 44.712,33.279 45.046,33.025C45.381,32.772 45.88,32.645 46.544,32.645L47.567,32.645L47.567,32.573C47.567,32.237 47.457,31.978 47.236,31.794C47.015,31.61 46.705,31.518 46.306,31.518C46.052,31.518 45.804,31.549 45.564,31.609C45.323,31.67 45.092,31.761 44.87,31.883L44.87,31.209C45.137,31.106 45.396,31.028 45.647,30.977C45.898,30.925 46.143,30.899 46.381,30.899C47.024,30.899 47.503,31.066 47.821,31.399C48.138,31.732 48.297,32.237 48.297,32.914Z" style="fill:rgb(35,31,32);fill-rule:nonzero;"/>
                    <path d="M53.317,32.768L53.317,35.449L52.587,35.449L52.587,32.791C52.587,32.371 52.505,32.056 52.341,31.847C52.177,31.638 51.931,31.534 51.603,31.534C51.209,31.534 50.899,31.66 50.671,31.911C50.444,32.162 50.33,32.505 50.33,32.938L50.33,35.449L49.596,35.449L49.596,31.006L50.33,31.006L50.33,31.697C50.505,31.43 50.71,31.23 50.947,31.098C51.184,30.965 51.457,30.899 51.766,30.899C52.276,30.899 52.663,31.057 52.924,31.373C53.186,31.689 53.317,32.154 53.317,32.768Z" style="fill:rgb(35,31,32);fill-rule:nonzero;"/>
                    <path d="M57.524,33.176C57.524,32.647 57.415,32.237 57.197,31.947C56.979,31.656 56.673,31.51 56.279,31.51C55.887,31.51 55.582,31.656 55.364,31.947C55.146,32.237 55.037,32.647 55.037,33.176C55.037,33.702 55.146,34.111 55.364,34.402C55.582,34.693 55.887,34.838 56.279,34.838C56.673,34.838 56.979,34.693 57.197,34.402C57.415,34.111 57.524,33.702 57.524,33.176ZM58.254,34.898C58.254,35.654 58.086,36.217 57.75,36.585C57.414,36.954 56.9,37.139 56.207,37.139C55.951,37.139 55.709,37.12 55.481,37.081C55.254,37.043 55.033,36.984 54.819,36.905L54.819,36.195C55.033,36.311 55.245,36.397 55.454,36.453C55.662,36.508 55.875,36.536 56.092,36.536C56.571,36.536 56.929,36.411 57.167,36.161C57.405,35.911 57.524,35.534 57.524,35.029L57.524,34.668C57.373,34.929 57.18,35.125 56.945,35.255C56.71,35.384 56.428,35.449 56.1,35.449C55.555,35.449 55.116,35.241 54.783,34.826C54.45,34.411 54.283,33.861 54.283,33.176C54.283,32.489 54.45,31.937 54.783,31.522C55.116,31.107 55.555,30.899 56.1,30.899C56.428,30.899 56.71,30.964 56.945,31.094C57.18,31.223 57.373,31.419 57.524,31.681L57.524,31.006L58.254,31.006L58.254,34.898Z" style="fill:rgb(35,31,32);fill-rule:nonzero;"/>
                    <path d="M63.377,33.045L63.377,33.402L60.022,33.402C60.053,33.905 60.205,34.288 60.476,34.551C60.747,34.814 61.124,34.945 61.608,34.945C61.888,34.945 62.16,34.911 62.423,34.842C62.686,34.773 62.948,34.67 63.207,34.533L63.207,35.223C62.945,35.334 62.677,35.419 62.401,35.477C62.126,35.535 61.847,35.564 61.565,35.564C60.856,35.564 60.295,35.358 59.881,34.945C59.467,34.533 59.26,33.975 59.26,33.271C59.26,32.544 59.456,31.967 59.849,31.54C60.242,31.113 60.771,30.899 61.438,30.899C62.035,30.899 62.508,31.092 62.856,31.477C63.203,31.861 63.377,32.384 63.377,33.045ZM62.647,32.831C62.642,32.432 62.53,32.113 62.312,31.875C62.094,31.637 61.805,31.518 61.446,31.518C61.038,31.518 60.712,31.633 60.468,31.863C60.223,32.093 60.082,32.417 60.045,32.835L62.647,32.831Z" style="fill:rgb(35,31,32);fill-rule:nonzero;"/>
                    <path d="M68.088,32.768L68.088,35.449L67.358,35.449L67.358,32.791C67.358,32.371 67.276,32.056 67.112,31.847C66.948,31.638 66.702,31.534 66.375,31.534C65.981,31.534 65.67,31.66 65.442,31.911C65.215,32.162 65.101,32.505 65.101,32.938L65.101,35.449L64.367,35.449L64.367,31.006L65.101,31.006L65.101,31.697C65.276,31.43 65.481,31.23 65.718,31.098C65.955,30.965 66.228,30.899 66.537,30.899C67.048,30.899 67.434,31.057 67.695,31.373C67.957,31.689 68.088,32.154 68.088,32.768Z" style="fill:rgb(35,31,32);fill-rule:nonzero;"/>
                    <rect x="69.003" y="32.899" width="2.138" height="0.65" style="fill:rgb(35,31,32);fill-rule:nonzero;"/>
                    <path d="M72.159,29.527L73.238,29.527L75.864,34.481L75.864,29.527L76.641,29.527L76.641,35.449L75.562,35.449L72.936,30.495L72.936,35.449L72.159,35.449L72.159,29.527Z" style="fill:rgb(35,31,32);fill-rule:nonzero;"/>
                    <path d="M77.949,33.696L77.949,31.006L78.678,31.006L78.678,33.668C78.678,34.089 78.76,34.404 78.924,34.614C79.088,34.824 79.334,34.929 79.662,34.929C80.056,34.929 80.368,34.804 80.596,34.553C80.825,34.301 80.939,33.959 80.939,33.525L80.939,31.006L81.669,31.006L81.669,35.449L80.939,35.449L80.939,34.767C80.762,35.037 80.557,35.237 80.323,35.368C80.089,35.499 79.817,35.564 79.507,35.564C78.997,35.564 78.61,35.405 78.345,35.088C78.081,34.771 77.949,34.307 77.949,33.696ZM80.154,29.293L80.959,29.293L80.959,30.094L80.154,30.094L80.154,29.293ZM78.603,29.293L79.408,29.293L79.408,30.094L78.603,30.094L78.603,29.293Z" style="fill:rgb(35,31,32);fill-rule:nonzero;"/>
                    <path d="M85.575,31.689C85.493,31.641 85.404,31.606 85.307,31.584C85.211,31.561 85.104,31.55 84.988,31.55C84.575,31.55 84.259,31.684 84.038,31.953C83.817,32.221 83.707,32.606 83.707,33.109L83.707,35.449L82.973,35.449L82.973,31.006L83.707,31.006L83.707,31.697C83.86,31.427 84.06,31.227 84.305,31.096C84.551,30.965 84.85,30.899 85.202,30.899C85.252,30.899 85.308,30.903 85.369,30.909C85.429,30.916 85.497,30.926 85.571,30.939L85.575,31.689Z" style="fill:rgb(35,31,32);fill-rule:nonzero;"/>
                    <path d="M89.861,32.768L89.861,35.449L89.131,35.449L89.131,32.791C89.131,32.371 89.049,32.056 88.885,31.847C88.721,31.638 88.476,31.534 88.148,31.534C87.754,31.534 87.443,31.66 87.215,31.911C86.988,32.162 86.874,32.505 86.874,32.938L86.874,35.449L86.141,35.449L86.141,31.006L86.874,31.006L86.874,31.697C87.049,31.43 87.254,31.23 87.491,31.098C87.728,30.965 88.001,30.899 88.31,30.899C88.821,30.899 89.207,31.057 89.469,31.373C89.73,31.689 89.861,32.154 89.861,32.768Z" style="fill:rgb(35,31,32);fill-rule:nonzero;"/>
                    <path d="M94.334,33.232C94.334,32.695 94.224,32.274 94.003,31.968C93.782,31.663 93.479,31.51 93.092,31.51C92.706,31.51 92.403,31.663 92.182,31.968C91.961,32.274 91.851,32.695 91.851,33.232C91.851,33.769 91.961,34.19 92.182,34.495C92.403,34.801 92.706,34.953 93.092,34.953C93.479,34.953 93.782,34.801 94.003,34.495C94.224,34.19 94.334,33.769 94.334,33.232ZM91.851,31.681C92.004,31.416 92.198,31.22 92.432,31.092C92.666,30.964 92.946,30.899 93.271,30.899C93.81,30.899 94.249,31.114 94.586,31.542C94.923,31.97 95.092,32.534 95.092,33.232C95.092,33.93 94.923,34.493 94.586,34.922C94.249,35.35 93.81,35.564 93.271,35.564C92.946,35.564 92.666,35.5 92.432,35.372C92.198,35.243 92.004,35.047 91.851,34.783L91.851,35.449L91.117,35.449L91.117,29.277L91.851,29.277L91.851,31.681Z" style="fill:rgb(35,31,32);fill-rule:nonzero;"/>
                    <path d="M99.921,33.045L99.921,33.402L96.566,33.402C96.597,33.905 96.749,34.288 97.02,34.551C97.291,34.814 97.668,34.945 98.152,34.945C98.433,34.945 98.704,34.911 98.967,34.842C99.231,34.773 99.492,34.67 99.751,34.533L99.751,35.223C99.489,35.334 99.221,35.419 98.946,35.477C98.671,35.535 98.392,35.564 98.109,35.564C97.4,35.564 96.839,35.358 96.425,34.945C96.011,34.533 95.804,33.975 95.804,33.271C95.804,32.544 96,31.967 96.393,31.54C96.786,31.113 97.315,30.899 97.982,30.899C98.579,30.899 99.052,31.092 99.4,31.477C99.748,31.861 99.921,32.384 99.921,33.045ZM99.192,32.831C99.186,32.432 99.075,32.113 98.856,31.875C98.638,31.637 98.349,31.518 97.99,31.518C97.582,31.518 97.257,31.633 97.012,31.863C96.767,32.093 96.627,32.417 96.59,32.835L99.192,32.831Z" style="fill:rgb(35,31,32);fill-rule:nonzero;"/>
                    <path d="M103.514,31.689C103.432,31.641 103.342,31.606 103.246,31.584C103.149,31.561 103.043,31.55 102.927,31.55C102.514,31.55 102.197,31.684 101.977,31.953C101.756,32.221 101.645,32.606 101.645,33.109L101.645,35.449L100.912,35.449L100.912,31.006L101.645,31.006L101.645,31.697C101.799,31.427 101.998,31.227 102.244,31.096C102.49,30.965 102.789,30.899 103.141,30.899C103.191,30.899 103.247,30.903 103.307,30.909C103.368,30.916 103.436,30.926 103.51,30.939L103.514,31.689Z" style="fill:rgb(35,31,32);fill-rule:nonzero;"/>
                    <path d="M107.031,33.176C107.031,32.647 106.921,32.237 106.703,31.947C106.485,31.656 106.179,31.51 105.785,31.51C105.394,31.51 105.089,31.656 104.871,31.947C104.653,32.237 104.544,32.647 104.544,33.176C104.544,33.702 104.653,34.111 104.871,34.402C105.089,34.693 105.394,34.838 105.785,34.838C106.179,34.838 106.485,34.693 106.703,34.402C106.921,34.111 107.031,33.702 107.031,33.176ZM107.76,34.898C107.76,35.654 107.593,36.217 107.257,36.585C106.921,36.954 106.406,37.139 105.714,37.139C105.457,37.139 105.215,37.12 104.988,37.081C104.76,37.043 104.54,36.984 104.325,36.905L104.325,36.195C104.54,36.311 104.751,36.397 104.96,36.453C105.169,36.508 105.382,36.536 105.599,36.536C106.077,36.536 106.436,36.411 106.674,36.161C106.912,35.911 107.031,35.534 107.031,35.029L107.031,34.668C106.88,34.929 106.687,35.125 106.451,35.255C106.216,35.384 105.934,35.449 105.607,35.449C105.062,35.449 104.623,35.241 104.29,34.826C103.956,34.411 103.79,33.861 103.79,33.176C103.79,32.489 103.956,31.937 104.29,31.522C104.623,31.107 105.062,30.899 105.607,30.899C105.934,30.899 106.216,30.964 106.451,31.094C106.687,31.223 106.88,31.419 107.031,31.681L107.031,31.006L107.76,31.006L107.76,34.898Z" style="fill:rgb(35,31,32);fill-rule:nonzero;"/>
                </g>
            </g>
        </g>
        <g>
            <clipPath id="_clip6">
                <rect x="1.85" y="1.72" width="106.299" height="35.433"/>
            </clipPath>
            <g clip-path="url(#_clip6)">
                <clipPath id="_clip7">
                    <rect x="1.85" y="1.72" width="31.555" height="35.433"/>
                </clipPath>
                <g clip-path="url(#_clip7)">
                    <rect x="1.85" y="9.125" width="27.324" height="28.028" style="fill:rgb(73,109,128);"/>
                    <rect x="1.85" y="1.72" width="27.324" height="7.51" style="fill:rgb(203,211,216);"/>
                    <path d="M32.703,26.772C32.932,24.178 32.899,23.109 32.341,20.38C32.055,18.982 31.379,16.855 30.838,15.649C30.437,14.486 31.012,15.318 31.153,15.746C32.939,20.023 33.152,24.39 33.028,25.886C33.045,30.883 28.793,36.014 27.565,31.794C27.521,31.655 27.035,29.663 26.506,27.366C25.134,21.401 24.55,18.942 24.467,18.781C24.376,18.606 24.318,18.57 24.191,18.61C23.931,18.693 23.836,19.142 22.884,24.799C22.037,29.834 21.638,31.998 21.417,32.75C21.279,33.222 20.957,33.831 20.689,34.13C19.97,34.93 19.366,34.476 19.211,33.019C19.176,32.692 19.142,30.249 19.12,26.435L19.085,20.371L18.61,20.332C18.142,20.293 18.003,20.244 18.003,20.119C18.003,20.021 18.138,19.986 18.62,19.956C19.016,19.932 19.064,19.919 19.086,19.823C19.131,19.629 19.198,14.747 19.166,13.978C19.132,13.147 19.078,12.981 18.823,12.917C18.293,12.784 17.239,13.573 16.869,14.379C16.489,15.207 16.125,16.599 15.814,18.402C15.577,19.784 15.388,21.245 15.032,24.447C14.277,31.245 14.036,32.323 12.904,33.974C12.166,35.05 11.12,35.54 9.88,35.39C9.192,35.307 8.3,35.033 7.731,34.73C5.851,33.729 4.224,30.7 3.409,26.686C3.008,24.709 2.844,22.683 2.951,21.038C3.013,20.076 3.108,19.323 3.175,19.256C3.267,19.164 3.291,19.367 3.255,19.943C3.106,22.382 3.35,25.116 3.922,27.416C4.837,31.09 6.563,33.856 8.366,34.535C8.787,34.694 9.478,34.73 9.876,34.614C10.843,34.333 11.622,33.598 12.171,32.448C12.689,31.363 12.782,30.918 13.121,27.894C14.029,19.805 14.445,17.54 15.367,15.691C16.334,13.752 18.037,12.392 19.495,12.397C20.1,12.399 20.48,12.667 20.54,13.136C20.583,13.474 20.668,17.003 20.669,18.493C20.67,19.175 20.684,19.77 20.7,19.814C20.725,19.878 20.816,19.893 21.166,19.894C21.694,19.895 21.827,19.926 21.827,20.048C21.827,20.194 21.64,20.259 21.188,20.269C20.959,20.274 20.758,20.292 20.741,20.308C20.725,20.324 20.731,22.905 20.754,26.043C20.793,31.379 20.801,31.757 20.885,31.884C21.049,32.134 21.259,32.018 21.377,31.611C21.404,31.518 21.629,30.128 21.876,28.523C23.073,20.768 23.595,17.955 23.994,17.105C24.123,16.831 24.437,16.572 24.64,16.572C25.389,16.573 26.208,18.332 27.113,21.881C27.622,23.876 27.807,24.829 28.793,29.699C29.625,35.728 32.474,29.366 32.703,26.772Z" style="fill:rgb(35,31,32);fill-rule:nonzero;"/>
                    <path d="M32.703,26.772C32.932,24.178 32.899,23.109 32.341,20.38C32.055,18.982 31.379,16.855 30.838,15.649C30.437,14.486 31.012,15.318 31.153,15.746C32.939,20.023 33.152,24.39 33.028,25.886C33.045,30.883 28.793,36.014 27.565,31.794C27.521,31.655 27.035,29.663 26.506,27.366C25.134,21.401 24.55,18.942 24.467,18.781C24.376,18.606 24.318,18.57 24.191,18.61C23.931,18.693 23.836,19.142 22.884,24.799C22.037,29.834 21.638,31.998 21.417,32.75C21.279,33.222 20.957,33.831 20.689,34.13C19.97,34.93 19.366,34.476 19.211,33.019C19.176,32.692 19.142,30.249 19.12,26.435L19.085,20.371L18.61,20.332C18.142,20.293 18.003,20.244 18.003,20.119C18.003,20.021 18.138,19.986 18.62,19.956C19.016,19.932 19.064,19.919 19.086,19.823C19.131,19.629 19.198,14.747 19.166,13.978C19.132,13.147 19.078,12.981 18.823,12.917C18.293,12.784 17.239,13.573 16.869,14.379C16.489,15.207 16.125,16.599 15.814,18.402C15.577,19.784 15.388,21.245 15.032,24.447C14.277,31.245 14.036,32.323 12.904,33.974C12.166,35.05 11.12,35.54 9.88,35.39C9.192,35.307 8.3,35.033 7.731,34.73C5.851,33.729 4.224,30.7 3.409,26.686C3.008,24.709 2.844,22.683 2.951,21.038C3.013,20.076 3.108,19.323 3.175,19.256C3.267,19.164 3.291,19.367 3.255,19.943C3.106,22.382 3.35,25.116 3.922,27.416C4.837,31.09 6.563,33.856 8.366,34.535C8.787,34.694 9.478,34.73 9.876,34.614C10.843,34.333 11.622,33.598 12.171,32.448C12.689,31.363 12.782,30.918 13.121,27.894C14.029,19.805 14.445,17.54 15.367,15.691C16.334,13.752 18.037,12.392 19.495,12.397C20.1,12.399 20.48,12.667 20.54,13.136C20.583,13.474 20.668,17.003 20.669,18.493C20.67,19.175 20.684,19.77 20.7,19.814C20.725,19.878 20.816,19.893 21.166,19.894C21.694,19.895 21.827,19.926 21.827,20.048C21.827,20.194 21.64,20.259 21.188,20.269C20.959,20.274 20.758,20.292 20.741,20.308C20.725,20.324 20.731,22.905 20.754,26.043C20.793,31.379 20.801,31.757 20.885,31.884C21.049,32.134 21.259,32.018 21.377,31.611C21.404,31.518 21.629,30.128 21.876,28.523C23.073,20.768 23.595,17.955 23.994,17.105C24.123,16.831 24.437,16.572 24.64,16.572C25.389,16.573 26.208,18.332 27.113,21.881C27.622,23.876 27.807,24.829 28.793,29.699C29.625,35.728 32.474,29.366 32.703,26.772Z" style="fill:none;stroke:rgb(35,31,32);stroke-width:0.51px;"/>
                </g>
            </g>
        </g>
    </g>
</svg>
