<?xml version="1.0" encoding="UTF-8" standalone="no"?>
<!DOCTYPE svg PUBLIC "-//W3C//DTD SVG 1.1//EN" "http://www.w3.org/Graphics/SVG/1.1/DTD/svg11.dtd">
<svg width="100%" height="100%" viewBox="0 0 108 123" version="1.1" xmlns="http://www.w3.org/2000/svg" xmlns:xlink="http://www.w3.org/1999/xlink" xml:space="preserve" xmlns:serif="http://www.serif.com/" style="fill-rule:evenodd;clip-rule:evenodd;">
    <g id="Hintergrund">
        <g transform="matrix(1,0,0,1,0,117.006)">
            <g id="GlBitstreamVeraSans-Bold119" transform="matrix(0.68,0,0,0.68,0,-1.62359)">
                <path d="M0.352,4.531L2.051,4.531L2.969,8.301L3.892,4.531L5.352,4.531L6.27,8.262L7.192,4.531L8.892,4.531L7.451,10L5.542,10L4.619,6.24L3.701,10L1.792,10L0.352,4.531Z" style="fill:rgb(22,20,19);fill-rule:nonzero;"/>
            </g>
            <g id="GlBitstreamVeraSans-Bold1191" serif:id="GlBitstreamVeraSans-Bold119" transform="matrix(0.68,0,0,0.68,6.28203,-1.62359)">
                <path d="M0.352,4.531L2.051,4.531L2.969,8.301L3.892,4.531L5.352,4.531L6.27,8.262L7.192,4.531L8.892,4.531L7.451,10L5.542,10L4.619,6.24L3.701,10L1.792,10L0.352,4.531Z" style="fill:rgb(22,20,19);fill-rule:nonzero;"/>
            </g>
            <g id="GlBitstreamVeraSans-Bold1192" serif:id="GlBitstreamVeraSans-Bold119" transform="matrix(0.68,0,0,0.68,12.6321,-1.62359)">
                <path d="M0.352,4.531L2.051,4.531L2.969,8.301L3.892,4.531L5.352,4.531L6.27,8.262L7.192,4.531L8.892,4.531L7.451,10L5.542,10L4.619,6.24L3.701,10L1.792,10L0.352,4.531Z" style="fill:rgb(22,20,19);fill-rule:nonzero;"/>
            </g>
            <g id="GlBitstreamVeraSans-Bold46" transform="matrix(0.68,0,0,0.68,18.5471,-1.62359)">
                <rect x="1.02" y="8.11" width="1.758" height="1.89" style="fill:rgb(22,20,19);fill-rule:nonzero;"/>
            </g>
            <g id="GlBitstreamVeraSans-Bold1193" serif:id="GlBitstreamVeraSans-Bold119" transform="matrix(0.68,0,0,0.68,21.1983,-1.62359)">
                <path d="M0.352,4.531L2.051,4.531L2.969,8.301L3.892,4.531L5.352,4.531L6.27,8.262L7.192,4.531L8.892,4.531L7.451,10L5.542,10L4.619,6.24L3.701,10L1.792,10L0.352,4.531Z" style="fill:rgb(22,20,19);fill-rule:nonzero;"/>
            </g>
            <g id="GlBitstreamVeraSans-Bold101" transform="matrix(0.68,0,0,0.68,27.5484,-1.62359)">
                <path d="M6.299,7.251L6.299,7.749L2.212,7.749C2.212,7.749 2.275,8.364 2.656,8.672C2.656,8.672 3.037,8.98 3.721,8.98C3.721,8.98 4.273,8.98 4.851,8.816C4.851,8.816 5.43,8.652 6.04,8.32L6.04,9.668C6.04,9.668 5.42,9.902 4.8,10.022C4.8,10.022 4.18,10.142 3.56,10.142C3.56,10.142 2.075,10.142 1.252,9.387C1.252,9.387 0.43,8.633 0.43,7.27C0.43,7.27 0.43,5.933 1.238,5.166C1.238,5.166 2.046,4.399 3.462,4.399C3.462,4.399 4.751,4.399 5.525,5.176C5.525,5.176 6.299,5.952 6.299,7.251ZM4.502,6.67C4.502,6.67 4.502,6.172 4.211,5.867C4.211,5.867 3.921,5.562 3.452,5.562C3.452,5.562 2.944,5.562 2.627,5.847C2.627,5.847 2.31,6.133 2.231,6.67L4.502,6.67Z" style="fill:rgb(22,20,19);fill-rule:nonzero;"/>
            </g>
            <g id="GlBitstreamVeraSans-Bold114" transform="matrix(0.68,0,0,0.68,32.2283,-1.62359)">
                <path d="M4.902,6.02C4.902,6.02 4.673,5.913 4.446,5.862C4.446,5.862 4.219,5.81 3.989,5.81C3.989,5.81 3.315,5.81 2.952,6.243C2.952,6.243 2.588,6.675 2.588,7.48L2.588,10L0.84,10L0.84,4.531L2.588,4.531L2.588,5.43C2.588,5.43 2.925,4.893 3.362,4.646C3.362,4.646 3.799,4.399 4.409,4.399C4.409,4.399 4.497,4.399 4.6,4.407C4.6,4.407 4.702,4.414 4.898,4.438L4.902,6.02Z" style="fill:rgb(22,20,19);fill-rule:nonzero;"/>
            </g>
            <g id="GlBitstreamVeraSans-Bold107" transform="matrix(0.68,0,0,0.68,35.6498,-1.62359)">
                <path d="M0.84,2.402L2.588,2.402L2.588,6.538L4.6,4.531L6.631,4.531L3.96,7.041L6.841,10L4.722,10L2.588,7.72L2.588,10L0.84,10L0.84,2.402Z" style="fill:rgb(22,20,19);fill-rule:nonzero;"/>
            </g>
            <g id="GlBitstreamVeraSans-Bold115" transform="matrix(0.68,0,0,0.68,40.2401,-1.62359)">
                <path d="M5.112,4.702L5.112,6.03C5.112,6.03 4.551,5.796 4.028,5.679C4.028,5.679 3.506,5.562 3.042,5.562C3.042,5.562 2.544,5.562 2.302,5.686C2.302,5.686 2.061,5.81 2.061,6.069C2.061,6.069 2.061,6.279 2.244,6.392C2.244,6.392 2.427,6.504 2.9,6.558L3.208,6.602C3.208,6.602 4.551,6.773 5.015,7.163C5.015,7.163 5.479,7.554 5.479,8.389C5.479,8.389 5.479,9.263 4.834,9.702C4.834,9.702 4.19,10.142 2.91,10.142C2.91,10.142 2.368,10.142 1.79,10.056C1.79,10.056 1.211,9.971 0.601,9.8L0.601,8.472C0.601,8.472 1.123,8.726 1.672,8.853C1.672,8.853 2.222,8.98 2.788,8.98C2.788,8.98 3.301,8.98 3.56,8.838C3.56,8.838 3.818,8.696 3.818,8.418C3.818,8.418 3.818,8.184 3.64,8.069C3.64,8.069 3.462,7.954 2.93,7.891L2.622,7.852C2.622,7.852 1.455,7.705 0.986,7.31C0.986,7.31 0.518,6.914 0.518,6.108C0.518,6.108 0.518,5.239 1.113,4.819C1.113,4.819 1.709,4.399 2.94,4.399C2.94,4.399 3.423,4.399 3.955,4.473C3.955,4.473 4.487,4.546 5.112,4.702Z" style="fill:rgb(22,20,19);fill-rule:nonzero;"/>
            </g>
            <g id="GlBitstreamVeraSans-Bold1194" serif:id="GlBitstreamVeraSans-Bold119" transform="matrix(0.68,0,0,0.68,44.3555,-1.62359)">
                <path d="M0.352,4.531L2.051,4.531L2.969,8.301L3.892,4.531L5.352,4.531L6.27,8.262L7.192,4.531L8.892,4.531L7.451,10L5.542,10L4.619,6.24L3.701,10L1.792,10L0.352,4.531Z" style="fill:rgb(22,20,19);fill-rule:nonzero;"/>
            </g>
            <g id="GlBitstreamVeraSans-Bold1011" serif:id="GlBitstreamVeraSans-Bold101" transform="matrix(0.68,0,0,0.68,50.7056,-1.62359)">
                <path d="M6.299,7.251L6.299,7.749L2.212,7.749C2.212,7.749 2.275,8.364 2.656,8.672C2.656,8.672 3.037,8.98 3.721,8.98C3.721,8.98 4.273,8.98 4.851,8.816C4.851,8.816 5.43,8.652 6.04,8.32L6.04,9.668C6.04,9.668 5.42,9.902 4.8,10.022C4.8,10.022 4.18,10.142 3.56,10.142C3.56,10.142 2.075,10.142 1.252,9.387C1.252,9.387 0.43,8.633 0.43,7.27C0.43,7.27 0.43,5.933 1.238,5.166C1.238,5.166 2.046,4.399 3.462,4.399C3.462,4.399 4.751,4.399 5.525,5.176C5.525,5.176 6.299,5.952 6.299,7.251ZM4.502,6.67C4.502,6.67 4.502,6.172 4.211,5.867C4.211,5.867 3.921,5.562 3.452,5.562C3.452,5.562 2.944,5.562 2.627,5.847C2.627,5.847 2.31,6.133 2.231,6.67L4.502,6.67Z" style="fill:rgb(22,20,19);fill-rule:nonzero;"/>
            </g>
            <g id="GlBitstreamVeraSans-Bold108" transform="matrix(0.68,0,0,0.68,55.3855,-1.62359)">
                <rect x="0.84" y="2.402" width="1.748" height="7.598" style="fill:rgb(22,20,19);fill-rule:nonzero;"/>
            </g>
            <g id="GlBitstreamVeraSans-Bold116" transform="matrix(0.68,0,0,0.68,57.7843,-1.62359)">
                <path d="M2.749,2.978L2.749,4.531L4.551,4.531L4.551,5.781L2.749,5.781L2.749,8.101C2.749,8.101 2.749,8.481 2.9,8.616C2.9,8.616 3.052,8.75 3.501,8.75L4.399,8.75L4.399,10L2.9,10C2.9,10 1.865,10 1.433,9.568C1.433,9.568 1.001,9.136 1.001,8.101L1.001,5.781L0.132,5.781L0.132,4.531L1.001,4.531L1.001,2.978L2.749,2.978Z" style="fill:rgb(22,20,19);fill-rule:nonzero;"/>
            </g>
            <g id="GlBitstreamVeraSans-Bold461" serif:id="GlBitstreamVeraSans-Bold46" transform="matrix(0.68,0,0,0.68,61.1029,-1.62359)">
                <rect x="1.02" y="8.11" width="1.758" height="1.89" style="fill:rgb(22,20,19);fill-rule:nonzero;"/>
            </g>
            <g id="GlBitstreamVeraSans-Bold100" transform="matrix(0.68,0,0,0.68,63.7541,-1.62359)">
                <path d="M4.561,5.332L4.561,2.402L6.318,2.402L6.318,10L4.561,10L4.561,9.209C4.561,9.209 4.199,9.692 3.765,9.917C3.765,9.917 3.33,10.142 2.759,10.142C2.759,10.142 1.748,10.142 1.099,9.338C1.099,9.338 0.449,8.535 0.449,7.27C0.449,7.27 0.449,6.006 1.099,5.203C1.099,5.203 1.748,4.399 2.759,4.399C2.759,4.399 3.325,4.399 3.762,4.626C3.762,4.626 4.199,4.853 4.561,5.332ZM3.408,8.872C3.408,8.872 3.97,8.872 4.265,8.462C4.265,8.462 4.561,8.052 4.561,7.27C4.561,7.27 4.561,6.489 4.265,6.079C4.265,6.079 3.97,5.669 3.408,5.669C3.408,5.669 2.852,5.669 2.556,6.079C2.556,6.079 2.261,6.489 2.261,7.27C2.261,7.27 2.261,8.052 2.556,8.462C2.556,8.462 2.852,8.872 3.408,8.872Z" style="fill:rgb(22,20,19);fill-rule:nonzero;"/>
            </g>
            <g id="GlBitstreamVeraSans-Bold1012" serif:id="GlBitstreamVeraSans-Bold101" transform="matrix(0.68,0,0,0.68,68.6897,-1.62359)">
                <path d="M6.299,7.251L6.299,7.749L2.212,7.749C2.212,7.749 2.275,8.364 2.656,8.672C2.656,8.672 3.037,8.98 3.721,8.98C3.721,8.98 4.273,8.98 4.851,8.816C4.851,8.816 5.43,8.652 6.04,8.32L6.04,9.668C6.04,9.668 5.42,9.902 4.8,10.022C4.8,10.022 4.18,10.142 3.56,10.142C3.56,10.142 2.075,10.142 1.252,9.387C1.252,9.387 0.43,8.633 0.43,7.27C0.43,7.27 0.43,5.933 1.238,5.166C1.238,5.166 2.046,4.399 3.462,4.399C3.462,4.399 4.751,4.399 5.525,5.176C5.525,5.176 6.299,5.952 6.299,7.251ZM4.502,6.67C4.502,6.67 4.502,6.172 4.211,5.867C4.211,5.867 3.921,5.562 3.452,5.562C3.452,5.562 2.944,5.562 2.627,5.847C2.627,5.847 2.31,6.133 2.231,6.67L4.502,6.67Z" style="fill:rgb(22,20,19);fill-rule:nonzero;"/>
            </g>
            <rect x="0" y="0" width="88.103" height="8.568" style="fill:none;fill-rule:nonzero;"/>
        </g>
        <g transform="matrix(1,0,0,1,-0.708661,85.8583)">
            <g id="GlBitstreamVeraSans-Bold83" transform="matrix(1.14,0,0,1.14,0,-2.72867)">
                <path d="M5.991,2.939L5.991,4.482C5.991,4.482 5.391,4.214 4.819,4.077C4.819,4.077 4.248,3.94 3.74,3.94C3.74,3.94 3.066,3.94 2.744,4.126C2.744,4.126 2.422,4.312 2.422,4.702C2.422,4.702 2.422,4.995 2.639,5.159C2.639,5.159 2.856,5.322 3.428,5.439L4.229,5.601C4.229,5.601 5.444,5.845 5.957,6.343C5.957,6.343 6.47,6.841 6.47,7.759C6.47,7.759 6.47,8.965 5.754,9.553C5.754,9.553 5.039,10.142 3.569,10.142C3.569,10.142 2.876,10.142 2.178,10.01C2.178,10.01 1.48,9.878 0.781,9.619L0.781,8.032C0.781,8.032 1.48,8.403 2.131,8.591C2.131,8.591 2.783,8.779 3.389,8.779C3.389,8.779 4.004,8.779 4.331,8.574C4.331,8.574 4.658,8.369 4.658,7.988C4.658,7.988 4.658,7.646 4.436,7.461C4.436,7.461 4.214,7.275 3.55,7.129L2.822,6.968C2.822,6.968 1.729,6.733 1.223,6.221C1.223,6.221 0.718,5.708 0.718,4.839C0.718,4.839 0.718,3.75 1.421,3.164C1.421,3.164 2.124,2.578 3.442,2.578C3.442,2.578 4.043,2.578 4.678,2.668C4.678,2.668 5.313,2.759 5.991,2.939Z" style="fill:rgb(22,20,19);fill-rule:nonzero;"/>
            </g>
            <g id="GlBitstreamVeraSans-Bold1161" serif:id="GlBitstreamVeraSans-Bold116" transform="matrix(1.14,0,0,1.14,8.21045,-2.72867)">
                <path d="M2.749,2.978L2.749,4.531L4.551,4.531L4.551,5.781L2.749,5.781L2.749,8.101C2.749,8.101 2.749,8.481 2.9,8.616C2.9,8.616 3.052,8.75 3.501,8.75L4.399,8.75L4.399,10L2.9,10C2.9,10 1.865,10 1.433,9.568C1.433,9.568 1.001,9.136 1.001,8.101L1.001,5.781L0.132,5.781L0.132,4.531L1.001,4.531L1.001,2.978L2.749,2.978Z" style="fill:rgb(22,20,19);fill-rule:nonzero;"/>
            </g>
            <g id="GlBitstreamVeraSans-Bold117" transform="matrix(1.14,0,0,1.14,13.6942,-2.72867)">
                <path d="M0.781,7.871L0.781,4.531L2.539,4.531L2.539,5.078C2.539,5.078 2.539,5.523 2.534,6.194C2.534,6.194 2.529,6.865 2.529,7.09C2.529,7.09 2.529,7.749 2.563,8.04C2.563,8.04 2.598,8.33 2.681,8.462C2.681,8.462 2.788,8.633 2.961,8.726C2.961,8.726 3.135,8.818 3.359,8.818C3.359,8.818 3.906,8.818 4.219,8.398C4.219,8.398 4.531,7.978 4.531,7.231L4.531,4.531L6.279,4.531L6.279,10L4.531,10L4.531,9.209C4.531,9.209 4.136,9.688 3.694,9.915C3.694,9.915 3.252,10.142 2.72,10.142C2.72,10.142 1.773,10.142 1.277,9.561C1.277,9.561 0.781,8.98 0.781,7.871Z" style="fill:rgb(22,20,19);fill-rule:nonzero;"/>
            </g>
            <g id="GlBitstreamVeraSans-Bold1001" serif:id="GlBitstreamVeraSans-Bold100" transform="matrix(1.14,0,0,1.14,21.8442,-2.72867)">
                <path d="M4.561,5.332L4.561,2.402L6.318,2.402L6.318,10L4.561,10L4.561,9.209C4.561,9.209 4.199,9.692 3.765,9.917C3.765,9.917 3.33,10.142 2.759,10.142C2.759,10.142 1.748,10.142 1.099,9.338C1.099,9.338 0.449,8.535 0.449,7.27C0.449,7.27 0.449,6.006 1.099,5.203C1.099,5.203 1.748,4.399 2.759,4.399C2.759,4.399 3.325,4.399 3.762,4.626C3.762,4.626 4.199,4.853 4.561,5.332ZM3.408,8.872C3.408,8.872 3.97,8.872 4.265,8.462C4.265,8.462 4.561,8.052 4.561,7.27C4.561,7.27 4.561,6.489 4.265,6.079C4.265,6.079 3.97,5.669 3.408,5.669C3.408,5.669 2.852,5.669 2.556,6.079C2.556,6.079 2.261,6.489 2.261,7.27C2.261,7.27 2.261,8.052 2.556,8.462C2.556,8.462 2.852,8.872 3.408,8.872Z" style="fill:rgb(22,20,19);fill-rule:nonzero;"/>
            </g>
            <g id="GlBitstreamVeraSans-Bold1013" serif:id="GlBitstreamVeraSans-Bold101" transform="matrix(1.14,0,0,1.14,30.0387,-2.72867)">
                <path d="M6.299,7.251L6.299,7.749L2.212,7.749C2.212,7.749 2.275,8.364 2.656,8.672C2.656,8.672 3.037,8.98 3.721,8.98C3.721,8.98 4.273,8.98 4.851,8.816C4.851,8.816 5.43,8.652 6.04,8.32L6.04,9.668C6.04,9.668 5.42,9.902 4.8,10.022C4.8,10.022 4.18,10.142 3.56,10.142C3.56,10.142 2.075,10.142 1.252,9.387C1.252,9.387 0.43,8.633 0.43,7.27C0.43,7.27 0.43,5.933 1.238,5.166C1.238,5.166 2.046,4.399 3.462,4.399C3.462,4.399 4.751,4.399 5.525,5.176C5.525,5.176 6.299,5.952 6.299,7.251ZM4.502,6.67C4.502,6.67 4.502,6.172 4.211,5.867C4.211,5.867 3.921,5.562 3.452,5.562C3.452,5.562 2.944,5.562 2.627,5.847C2.627,5.847 2.31,6.133 2.231,6.67L4.502,6.67Z" style="fill:rgb(22,20,19);fill-rule:nonzero;"/>
            </g>
            <g id="GlBitstreamVeraSans-Bold110" transform="matrix(1.14,0,0,1.14,37.8047,-2.72867)">
                <path d="M6.338,6.67L6.338,10L4.58,10L4.58,7.451C4.58,7.451 4.58,6.743 4.548,6.475C4.548,6.475 4.517,6.206 4.438,6.079C4.438,6.079 4.336,5.908 4.16,5.813C4.16,5.813 3.984,5.718 3.76,5.718C3.76,5.718 3.213,5.718 2.9,6.14C2.9,6.14 2.588,6.563 2.588,7.31L2.588,10L0.84,10L0.84,4.531L2.588,4.531L2.588,5.332C2.588,5.332 2.983,4.853 3.428,4.626C3.428,4.626 3.872,4.399 4.409,4.399C4.409,4.399 5.356,4.399 5.847,4.98C5.847,4.98 6.338,5.562 6.338,6.67Z" style="fill:rgb(22,20,19);fill-rule:nonzero;"/>
            </g>
            <g id="GlBitstreamVeraSans-Bold1162" serif:id="GlBitstreamVeraSans-Bold116" transform="matrix(1.14,0,0,1.14,45.9547,-2.72867)">
                <path d="M2.749,2.978L2.749,4.531L4.551,4.531L4.551,5.781L2.749,5.781L2.749,8.101C2.749,8.101 2.749,8.481 2.9,8.616C2.9,8.616 3.052,8.75 3.501,8.75L4.399,8.75L4.399,10L2.9,10C2.9,10 1.865,10 1.433,9.568C1.433,9.568 1.001,9.136 1.001,8.101L1.001,5.781L0.132,5.781L0.132,4.531L1.001,4.531L1.001,2.978L2.749,2.978Z" style="fill:rgb(22,20,19);fill-rule:nonzero;"/>
            </g>
            <g id="GlBitstreamVeraSans-Bold1014" serif:id="GlBitstreamVeraSans-Bold101" transform="matrix(1.14,0,0,1.14,51.4384,-2.72867)">
                <path d="M6.299,7.251L6.299,7.749L2.212,7.749C2.212,7.749 2.275,8.364 2.656,8.672C2.656,8.672 3.037,8.98 3.721,8.98C3.721,8.98 4.273,8.98 4.851,8.816C4.851,8.816 5.43,8.652 6.04,8.32L6.04,9.668C6.04,9.668 5.42,9.902 4.8,10.022C4.8,10.022 4.18,10.142 3.56,10.142C3.56,10.142 2.075,10.142 1.252,9.387C1.252,9.387 0.43,8.633 0.43,7.27C0.43,7.27 0.43,5.933 1.238,5.166C1.238,5.166 2.046,4.399 3.462,4.399C3.462,4.399 4.751,4.399 5.525,5.176C5.525,5.176 6.299,5.952 6.299,7.251ZM4.502,6.67C4.502,6.67 4.502,6.172 4.211,5.867C4.211,5.867 3.921,5.562 3.452,5.562C3.452,5.562 2.944,5.562 2.627,5.847C2.627,5.847 2.31,6.133 2.231,6.67L4.502,6.67Z" style="fill:rgb(22,20,19);fill-rule:nonzero;"/>
            </g>
            <g id="GlBitstreamVeraSans-Bold1101" serif:id="GlBitstreamVeraSans-Bold110" transform="matrix(1.14,0,0,1.14,59.2043,-2.72867)">
                <path d="M6.338,6.67L6.338,10L4.58,10L4.58,7.451C4.58,7.451 4.58,6.743 4.548,6.475C4.548,6.475 4.517,6.206 4.438,6.079C4.438,6.079 4.336,5.908 4.16,5.813C4.16,5.813 3.984,5.718 3.76,5.718C3.76,5.718 3.213,5.718 2.9,6.14C2.9,6.14 2.588,6.563 2.588,7.31L2.588,10L0.84,10L0.84,4.531L2.588,4.531L2.588,5.332C2.588,5.332 2.983,4.853 3.428,4.626C3.428,4.626 3.872,4.399 4.409,4.399C4.409,4.399 5.356,4.399 5.847,4.98C5.847,4.98 6.338,5.562 6.338,6.67Z" style="fill:rgb(22,20,19);fill-rule:nonzero;"/>
            </g>
            <g id="GlBitstreamVeraSans-Bold1195" serif:id="GlBitstreamVeraSans-Bold119" transform="matrix(1.14,0,0,1.14,67.3544,-2.72867)">
                <path d="M0.352,4.531L2.051,4.531L2.969,8.301L3.892,4.531L5.352,4.531L6.27,8.262L7.192,4.531L8.892,4.531L7.451,10L5.542,10L4.619,6.24L3.701,10L1.792,10L0.352,4.531Z" style="fill:rgb(22,20,19);fill-rule:nonzero;"/>
            </g>
            <g id="GlBitstreamVeraSans-Bold1015" serif:id="GlBitstreamVeraSans-Bold101" transform="matrix(1.14,0,0,1.14,77.9202,-2.72867)">
                <path d="M6.299,7.251L6.299,7.749L2.212,7.749C2.212,7.749 2.275,8.364 2.656,8.672C2.656,8.672 3.037,8.98 3.721,8.98C3.721,8.98 4.273,8.98 4.851,8.816C4.851,8.816 5.43,8.652 6.04,8.32L6.04,9.668C6.04,9.668 5.42,9.902 4.8,10.022C4.8,10.022 4.18,10.142 3.56,10.142C3.56,10.142 2.075,10.142 1.252,9.387C1.252,9.387 0.43,8.633 0.43,7.27C0.43,7.27 0.43,5.933 1.238,5.166C1.238,5.166 2.046,4.399 3.462,4.399C3.462,4.399 4.751,4.399 5.525,5.176C5.525,5.176 6.299,5.952 6.299,7.251ZM4.502,6.67C4.502,6.67 4.502,6.172 4.211,5.867C4.211,5.867 3.921,5.562 3.452,5.562C3.452,5.562 2.944,5.562 2.627,5.847C2.627,5.847 2.31,6.133 2.231,6.67L4.502,6.67Z" style="fill:rgb(22,20,19);fill-rule:nonzero;"/>
            </g>
            <g id="GlBitstreamVeraSans-Bold1141" serif:id="GlBitstreamVeraSans-Bold114" transform="matrix(1.14,0,0,1.14,85.6861,-2.72867)">
                <path d="M4.902,6.02C4.902,6.02 4.673,5.913 4.446,5.862C4.446,5.862 4.219,5.81 3.989,5.81C3.989,5.81 3.315,5.81 2.952,6.243C2.952,6.243 2.588,6.675 2.588,7.48L2.588,10L0.84,10L0.84,4.531L2.588,4.531L2.588,5.43C2.588,5.43 2.925,4.893 3.362,4.646C3.362,4.646 3.799,4.399 4.409,4.399C4.409,4.399 4.497,4.399 4.6,4.407C4.6,4.407 4.702,4.414 4.898,4.438L4.902,6.02Z" style="fill:rgb(22,20,19);fill-rule:nonzero;"/>
            </g>
            <g id="GlBitstreamVeraSans-Bold1071" serif:id="GlBitstreamVeraSans-Bold107" transform="matrix(1.14,0,0,1.14,91.3424,-2.72867)">
                <path d="M0.84,2.402L2.588,2.402L2.588,6.538L4.6,4.531L6.631,4.531L3.96,7.041L6.841,10L4.722,10L2.588,7.72L2.588,10L0.84,10L0.84,2.402Z" style="fill:rgb(22,20,19);fill-rule:nonzero;"/>
            </g>
            <g id="GlBitstreamVeraSans-Roman69" transform="matrix(1.14,0,0,1.14,0,9.07133)">
                <path d="M0.981,2.71L5.591,2.71L5.591,3.54L1.968,3.54L1.968,5.698L5.44,5.698L5.44,6.528L1.968,6.528L1.968,9.17L5.679,9.17L5.679,10L0.981,10L0.981,2.71Z" style="fill:rgb(22,20,19);fill-rule:nonzero;"/>
            </g>
            <g id="GlBitstreamVeraSans-Roman114" transform="matrix(1.14,0,0,1.14,7.20293,9.07133)">
                <path d="M4.111,5.371C4.111,5.371 3.96,5.283 3.782,5.242C3.782,5.242 3.604,5.2 3.389,5.2C3.389,5.2 2.627,5.2 2.219,5.696C2.219,5.696 1.812,6.191 1.812,7.119L1.812,10L0.908,10L0.908,4.531L1.812,4.531L1.812,5.381C1.812,5.381 2.095,4.883 2.549,4.641C2.549,4.641 3.003,4.399 3.652,4.399C3.652,4.399 3.745,4.399 3.857,4.412C3.857,4.412 3.97,4.424 4.106,4.448L4.111,5.371Z" style="fill:rgb(22,20,19);fill-rule:nonzero;"/>
            </g>
            <g id="GlBitstreamVeraSans-Roman108" transform="matrix(1.14,0,0,1.14,11.924,9.07133)">
                <rect x="0.942" y="2.402" width="0.898" height="7.598" style="fill:rgb(22,20,19);fill-rule:nonzero;"/>
            </g>
            <g id="GlBitstreamVeraSans-Roman97" transform="matrix(1.14,0,0,1.14,15.1255,9.07133)">
                <path d="M3.428,7.251C3.428,7.251 2.339,7.251 1.919,7.5C1.919,7.5 1.499,7.749 1.499,8.35C1.499,8.35 1.499,8.828 1.814,9.109C1.814,9.109 2.129,9.39 2.671,9.39C2.671,9.39 3.418,9.39 3.87,8.86C3.87,8.86 4.321,8.33 4.321,7.451L4.321,7.251L3.428,7.251ZM5.22,6.88L5.22,10L4.321,10L4.321,9.17C4.321,9.17 4.014,9.668 3.555,9.905C3.555,9.905 3.096,10.142 2.432,10.142C2.432,10.142 1.592,10.142 1.096,9.67C1.096,9.67 0.601,9.199 0.601,8.408C0.601,8.408 0.601,7.485 1.218,7.017C1.218,7.017 1.836,6.548 3.062,6.548L4.321,6.548L4.321,6.46C4.321,6.46 4.321,5.84 3.914,5.5C3.914,5.5 3.506,5.161 2.769,5.161C2.769,5.161 2.3,5.161 1.855,5.273C1.855,5.273 1.411,5.386 1.001,5.61L1.001,4.78C1.001,4.78 1.494,4.59 1.958,4.495C1.958,4.495 2.422,4.399 2.861,4.399C2.861,4.399 4.048,4.399 4.634,5.015C4.634,5.015 5.22,5.63 5.22,6.88Z" style="fill:rgb(22,20,19);fill-rule:nonzero;"/>
            </g>
            <g id="GlBitstreamVeraSans-Roman110" transform="matrix(1.14,0,0,1.14,22.1456,9.07133)">
                <path d="M5.488,6.699L5.488,10L4.59,10L4.59,6.728C4.59,6.728 4.59,5.952 4.287,5.566C4.287,5.566 3.984,5.181 3.379,5.181C3.379,5.181 2.651,5.181 2.231,5.645C2.231,5.645 1.812,6.108 1.812,6.909L1.812,10L0.908,10L0.908,4.531L1.812,4.531L1.812,5.381C1.812,5.381 2.134,4.888 2.571,4.644C2.571,4.644 3.008,4.399 3.579,4.399C3.579,4.399 4.522,4.399 5.005,4.983C5.005,4.983 5.488,5.566 5.488,6.699Z" style="fill:rgb(22,20,19);fill-rule:nonzero;"/>
            </g>
            <g id="GlBitstreamVeraSans-Roman103" transform="matrix(1.14,0,0,1.14,29.405,9.07133)">
                <path d="M4.541,7.202C4.541,7.202 4.541,6.226 4.138,5.689C4.138,5.689 3.735,5.151 3.008,5.151C3.008,5.151 2.285,5.151 1.882,5.689C1.882,5.689 1.48,6.226 1.48,7.202C1.48,7.202 1.48,8.174 1.882,8.711C1.882,8.711 2.285,9.248 3.008,9.248C3.008,9.248 3.735,9.248 4.138,8.711C4.138,8.711 4.541,8.174 4.541,7.202ZM5.44,9.321C5.44,9.321 5.44,10.718 4.819,11.399C4.819,11.399 4.199,12.08 2.92,12.08C2.92,12.08 2.446,12.08 2.026,12.009C2.026,12.009 1.606,11.938 1.211,11.792L1.211,10.918C1.211,10.918 1.606,11.133 1.992,11.235C1.992,11.235 2.378,11.338 2.778,11.338C2.778,11.338 3.662,11.338 4.102,10.876C4.102,10.876 4.541,10.415 4.541,9.482L4.541,9.038C4.541,9.038 4.263,9.521 3.828,9.761C3.828,9.761 3.394,10 2.788,10C2.788,10 1.782,10 1.167,9.233C1.167,9.233 0.552,8.467 0.552,7.202C0.552,7.202 0.552,5.933 1.167,5.166C1.167,5.166 1.782,4.399 2.788,4.399C2.788,4.399 3.394,4.399 3.828,4.639C3.828,4.639 4.263,4.878 4.541,5.361L4.541,4.531L5.44,4.531L5.44,9.321Z" style="fill:rgb(22,20,19);fill-rule:nonzero;"/>
            </g>
            <g id="GlBitstreamVeraSans-Roman101" transform="matrix(1.14,0,0,1.14,36.6755,9.07133)">
                <path d="M5.62,7.041L5.62,7.48L1.489,7.48C1.489,7.48 1.548,8.408 2.048,8.894C2.048,8.894 2.549,9.38 3.442,9.38C3.442,9.38 3.96,9.38 4.446,9.253C4.446,9.253 4.932,9.126 5.41,8.872L5.41,9.722C5.41,9.722 4.927,9.927 4.419,10.034C4.419,10.034 3.911,10.142 3.389,10.142C3.389,10.142 2.08,10.142 1.316,9.38C1.316,9.38 0.552,8.618 0.552,7.319C0.552,7.319 0.552,5.977 1.277,5.188C1.277,5.188 2.002,4.399 3.233,4.399C3.233,4.399 4.336,4.399 4.978,5.11C4.978,5.11 5.62,5.82 5.62,7.041ZM4.722,6.777C4.722,6.777 4.712,6.04 4.309,5.601C4.309,5.601 3.906,5.161 3.242,5.161C3.242,5.161 2.49,5.161 2.039,5.586C2.039,5.586 1.587,6.011 1.519,6.782L4.722,6.777Z" style="fill:rgb(22,20,19);fill-rule:nonzero;"/>
            </g>
            <g id="GlBitstreamVeraSans-Roman1101" serif:id="GlBitstreamVeraSans-Roman110" transform="matrix(1.14,0,0,1.14,43.7234,9.07133)">
                <path d="M5.488,6.699L5.488,10L4.59,10L4.59,6.728C4.59,6.728 4.59,5.952 4.287,5.566C4.287,5.566 3.984,5.181 3.379,5.181C3.379,5.181 2.651,5.181 2.231,5.645C2.231,5.645 1.812,6.108 1.812,6.909L1.812,10L0.908,10L0.908,4.531L1.812,4.531L1.812,5.381C1.812,5.381 2.134,4.888 2.571,4.644C2.571,4.644 3.008,4.399 3.579,4.399C3.579,4.399 4.522,4.399 5.005,4.983C5.005,4.983 5.488,5.566 5.488,6.699Z" style="fill:rgb(22,20,19);fill-rule:nonzero;"/>
            </g>
            <g id="GlBitstreamVeraSans-Roman45" transform="matrix(1.14,0,0,1.14,50.9828,9.07133)">
                <rect x="0.488" y="6.86" width="2.632" height="0.801" style="fill:rgb(22,20,19);fill-rule:nonzero;"/>
            </g>
            <g id="GlBitstreamVeraSans-Roman78" transform="matrix(1.14,0,0,1.14,55.1305,9.07133)">
                <path d="M0.981,2.71L2.31,2.71L5.542,8.809L5.542,2.71L6.499,2.71L6.499,10L5.171,10L1.938,3.901L1.938,10L0.981,10L0.981,2.71Z" style="fill:rgb(22,20,19);fill-rule:nonzero;"/>
            </g>
            <g id="GlBitstreamVeraSans-Roman252" transform="matrix(1.14,0,0,1.14,63.6925,9.07133)">
                <path d="M0.85,7.842L0.85,4.531L1.748,4.531L1.748,7.808C1.748,7.808 1.748,8.584 2.051,8.972C2.051,8.972 2.354,9.36 2.959,9.36C2.959,9.36 3.687,9.36 4.109,8.897C4.109,8.897 4.531,8.433 4.531,7.632L4.531,4.531L5.43,4.531L5.43,10L4.531,10L4.531,9.16C4.531,9.16 4.204,9.658 3.772,9.9C3.772,9.9 3.34,10.142 2.769,10.142C2.769,10.142 1.826,10.142 1.338,9.556C1.338,9.556 0.85,8.97 0.85,7.842ZM3.559,2.422L4.55,2.422L4.55,3.408L3.559,3.408L3.559,2.422ZM1.65,2.422L2.641,2.422L2.641,3.408L1.65,3.408L1.65,2.422Z" style="fill:rgb(22,20,19);fill-rule:nonzero;"/>
            </g>
            <g id="GlBitstreamVeraSans-Roman1141" serif:id="GlBitstreamVeraSans-Roman114" transform="matrix(1.14,0,0,1.14,70.9519,9.07133)">
                <path d="M4.111,5.371C4.111,5.371 3.96,5.283 3.782,5.242C3.782,5.242 3.604,5.2 3.389,5.2C3.389,5.2 2.627,5.2 2.219,5.696C2.219,5.696 1.812,6.191 1.812,7.119L1.812,10L0.908,10L0.908,4.531L1.812,4.531L1.812,5.381C1.812,5.381 2.095,4.883 2.549,4.641C2.549,4.641 3.003,4.399 3.652,4.399C3.652,4.399 3.745,4.399 3.857,4.412C3.857,4.412 3.97,4.424 4.106,4.448L4.111,5.371Z" style="fill:rgb(22,20,19);fill-rule:nonzero;"/>
            </g>
            <g id="GlBitstreamVeraSans-Roman1102" serif:id="GlBitstreamVeraSans-Roman110" transform="matrix(1.14,0,0,1.14,75.4726,9.07133)">
                <path d="M5.488,6.699L5.488,10L4.59,10L4.59,6.728C4.59,6.728 4.59,5.952 4.287,5.566C4.287,5.566 3.984,5.181 3.379,5.181C3.379,5.181 2.651,5.181 2.231,5.645C2.231,5.645 1.812,6.108 1.812,6.909L1.812,10L0.908,10L0.908,4.531L1.812,4.531L1.812,5.381C1.812,5.381 2.134,4.888 2.571,4.644C2.571,4.644 3.008,4.399 3.579,4.399C3.579,4.399 4.522,4.399 5.005,4.983C5.005,4.983 5.488,5.566 5.488,6.699Z" style="fill:rgb(22,20,19);fill-rule:nonzero;"/>
            </g>
            <g id="GlBitstreamVeraSans-Roman98" transform="matrix(1.14,0,0,1.14,82.732,9.07133)">
                <path d="M4.868,7.27C4.868,7.27 4.868,6.279 4.46,5.715C4.46,5.715 4.053,5.151 3.34,5.151C3.34,5.151 2.627,5.151 2.219,5.715C2.219,5.715 1.812,6.279 1.812,7.27C1.812,7.27 1.812,8.262 2.219,8.826C2.219,8.826 2.627,9.39 3.34,9.39C3.34,9.39 4.053,9.39 4.46,8.826C4.46,8.826 4.868,8.262 4.868,7.27ZM1.812,5.361C1.812,5.361 2.095,4.873 2.527,4.636C2.527,4.636 2.959,4.399 3.56,4.399C3.56,4.399 4.556,4.399 5.178,5.19C5.178,5.19 5.801,5.981 5.801,7.27C5.801,7.27 5.801,8.56 5.178,9.351C5.178,9.351 4.556,10.142 3.56,10.142C3.56,10.142 2.959,10.142 2.527,9.905C2.527,9.905 2.095,9.668 1.812,9.18L1.812,10L0.908,10L0.908,2.402L1.812,2.402L1.812,5.361Z" style="fill:rgb(22,20,19);fill-rule:nonzero;"/>
            </g>
            <g id="GlBitstreamVeraSans-Roman1011" serif:id="GlBitstreamVeraSans-Roman101" transform="matrix(1.14,0,0,1.14,90.0025,9.07133)">
                <path d="M5.62,7.041L5.62,7.48L1.489,7.48C1.489,7.48 1.548,8.408 2.048,8.894C2.048,8.894 2.549,9.38 3.442,9.38C3.442,9.38 3.96,9.38 4.446,9.253C4.446,9.253 4.932,9.126 5.41,8.872L5.41,9.722C5.41,9.722 4.927,9.927 4.419,10.034C4.419,10.034 3.911,10.142 3.389,10.142C3.389,10.142 2.08,10.142 1.316,9.38C1.316,9.38 0.552,8.618 0.552,7.319C0.552,7.319 0.552,5.977 1.277,5.188C1.277,5.188 2.002,4.399 3.233,4.399C3.233,4.399 4.336,4.399 4.978,5.11C4.978,5.11 5.62,5.82 5.62,7.041ZM4.722,6.777C4.722,6.777 4.712,6.04 4.309,5.601C4.309,5.601 3.906,5.161 3.242,5.161C3.242,5.161 2.49,5.161 2.039,5.586C2.039,5.586 1.587,6.011 1.519,6.782L4.722,6.777Z" style="fill:rgb(22,20,19);fill-rule:nonzero;"/>
            </g>
            <g id="GlBitstreamVeraSans-Roman1142" serif:id="GlBitstreamVeraSans-Roman114" transform="matrix(1.14,0,0,1.14,97.0504,9.07133)">
                <path d="M4.111,5.371C4.111,5.371 3.96,5.283 3.782,5.242C3.782,5.242 3.604,5.2 3.389,5.2C3.389,5.2 2.627,5.2 2.219,5.696C2.219,5.696 1.812,6.191 1.812,7.119L1.812,10L0.908,10L0.908,4.531L1.812,4.531L1.812,5.381C1.812,5.381 2.095,4.883 2.549,4.641C2.549,4.641 3.003,4.399 3.652,4.399C3.652,4.399 3.745,4.399 3.857,4.412C3.857,4.412 3.97,4.424 4.106,4.448L4.111,5.371Z" style="fill:rgb(22,20,19);fill-rule:nonzero;"/>
            </g>
            <g id="GlBitstreamVeraSans-Roman1031" serif:id="GlBitstreamVeraSans-Roman103" transform="matrix(1.14,0,0,1.14,101.571,9.07133)">
                <path d="M4.541,7.202C4.541,7.202 4.541,6.226 4.138,5.689C4.138,5.689 3.735,5.151 3.008,5.151C3.008,5.151 2.285,5.151 1.882,5.689C1.882,5.689 1.48,6.226 1.48,7.202C1.48,7.202 1.48,8.174 1.882,8.711C1.882,8.711 2.285,9.248 3.008,9.248C3.008,9.248 3.735,9.248 4.138,8.711C4.138,8.711 4.541,8.174 4.541,7.202ZM5.44,9.321C5.44,9.321 5.44,10.718 4.819,11.399C4.819,11.399 4.199,12.08 2.92,12.08C2.92,12.08 2.446,12.08 2.026,12.009C2.026,12.009 1.606,11.938 1.211,11.792L1.211,10.918C1.211,10.918 1.606,11.133 1.992,11.235C1.992,11.235 2.378,11.338 2.778,11.338C2.778,11.338 3.662,11.338 4.102,10.876C4.102,10.876 4.541,10.415 4.541,9.482L4.541,9.038C4.541,9.038 4.263,9.521 3.828,9.761C3.828,9.761 3.394,10 2.788,10C2.788,10 1.782,10 1.167,9.233C1.167,9.233 0.552,8.467 0.552,7.202C0.552,7.202 0.552,5.933 1.167,5.166C1.167,5.166 1.782,4.399 2.788,4.399C2.788,4.399 3.394,4.399 3.828,4.639C3.828,4.639 4.263,4.878 4.541,5.361L4.541,4.531L5.44,4.531L5.44,9.321Z" style="fill:rgb(22,20,19);fill-rule:nonzero;"/>
            </g>
            <rect x="0" y="0" width="111.044" height="29.25" style="fill:none;fill-rule:nonzero;"/>
        </g>
        <g id="Kopie-von-Gruppe104--3-" serif:id="Kopie von Gruppe104 (3)">
            <clipPath id="_clip1">
                <rect x="0" y="0" width="65.102" height="74.191"/>
            </clipPath>
            <g clip-path="url(#_clip1)">
                <g transform="matrix(1,0,0,1,0,15.5038)">
                    <rect x="0" y="0" width="56.369" height="58.687" style="fill:rgb(88,132,154);"/>
                </g>
                <g transform="matrix(1,0,0,1,2.91e-05,0)">
                    <rect x="0" y="0" width="56.369" height="15.725" style="fill:rgb(213,218,221);"/>
                </g>
                <g transform="matrix(1,0,0,1,2.05018,22.345)">
                    <path d="M61.6,30.11C62.073,24.679 62.004,22.44 60.852,16.725C60.262,13.799 58.869,9.346 57.752,6.82C56.924,4.385 58.111,6.127 58.402,7.023C62.086,15.978 62.525,25.122 62.269,28.255C62.305,38.717 53.532,49.462 51.001,40.625C50.909,40.335 49.906,36.163 48.816,31.353C45.984,18.864 44.779,13.714 44.608,13.379C44.42,13.011 44.302,12.936 44.04,13.021C43.502,13.194 43.307,14.133 41.344,25.98C39.596,36.522 38.772,41.052 38.317,42.627C38.031,43.616 37.369,44.891 36.815,45.516C35.331,47.191 34.085,46.24 33.765,43.191C33.693,42.505 33.623,37.389 33.578,29.404L33.505,16.707L32.526,16.625C31.56,16.544 31.273,16.442 31.273,16.179C31.273,15.975 31.552,15.9 32.547,15.839C33.364,15.788 33.462,15.76 33.508,15.56C33.601,15.153 33.74,4.932 33.674,3.322C33.603,1.581 33.492,1.233 32.965,1.099C31.872,0.821 29.697,2.473 28.934,4.161C28.151,5.894 27.398,8.808 26.758,12.585C26.268,15.478 25.878,18.538 25.144,25.242C23.587,39.475 23.09,41.733 20.755,45.189C19.232,47.443 17.075,48.469 14.516,48.155L14.516,48.155C13.097,47.981 11.257,47.407 10.082,46.772C6.204,44.677 2.847,38.334 1.167,29.931C0.339,25.79 0,21.549 0.221,18.103C0.35,16.089 0.546,14.512 0.684,14.371C0.873,14.179 0.922,14.605 0.849,15.812C0.541,20.918 1.044,26.642 2.225,31.459C4.112,39.15 7.674,44.943 11.393,46.365C12.261,46.696 13.687,46.772 14.509,46.53C16.502,45.941 18.109,44.402 19.242,41.995C20.311,39.722 20.503,38.791 21.202,32.459C23.074,15.522 23.934,10.779 25.835,6.909C27.829,2.848 31.344,0 34.351,0.01C35.599,0.014 36.383,0.576 36.507,1.557C36.596,2.265 36.772,9.654 36.774,12.774C36.775,14.204 36.803,15.448 36.838,15.54C36.889,15.674 37.077,15.707 37.798,15.708C38.889,15.71 39.162,15.775 39.162,16.031C39.162,16.337 38.776,16.473 37.844,16.494C37.371,16.505 36.956,16.541 36.923,16.575C36.889,16.609 36.901,22.013 36.948,28.583C37.029,39.756 37.047,40.547 37.219,40.814C37.557,41.338 37.99,41.094 38.233,40.243C38.289,40.047 38.753,37.138 39.264,33.776C41.732,17.539 42.809,11.648 43.633,9.869C43.898,9.295 44.547,8.752 44.965,8.753C46.51,8.756 48.201,12.438 50.067,19.868C51.117,24.046 51.499,26.042 53.532,36.239C55.249,48.863 61.128,35.541 61.6,30.11Z" style="fill:rgb(22,20,19);stroke:rgb(22,20,19);stroke-width:1.05px;"/>
                </g>
            </g>
        </g>
    </g>
</svg>
