<?xml version="1.0" encoding="UTF-8" standalone="no"?>
<!DOCTYPE svg PUBLIC "-//W3C//DTD SVG 1.1//EN" "http://www.w3.org/Graphics/SVG/1.1/DTD/svg11.dtd">
<svg width="330" height="100" viewBox="0 0 34000 7400" version="1.1" xmlns="http://www.w3.org/2000/svg" xmlns:xlink="http://www.w3.org/1999/xlink" xml:space="preserve" xmlns:serif="http://www.serif.com/" style="fill-rule:evenodd;clip-rule:evenodd;stroke-linejoin:round;stroke-miterlimit:2;">
    <g transform="matrix(4.16667,0,0,4.16667,0,0)">
        <path d="M3652.63,516.659C3652.63,545.011 3629.61,568.024 3601.17,568.024C3572.78,568.024 3549.76,545.011 3549.76,516.659C3549.76,488.198 3572.78,465.185 3601.17,465.185C3629.61,465.185 3652.63,488.198 3652.63,516.659Z" style="fill:rgb(17,88,108);fill-rule:nonzero;"/>
        <path d="M1570.12,9.999C1570.12,9.999 1567.84,10.891 1563.59,12.73C1564.84,12.332 1566.08,12.017 1567.33,11.66C1569.01,10.672 1570.12,9.999 1570.12,9.999Z" style="fill:rgb(111,191,84);fill-rule:nonzero;"/>
        <path d="M2019.74,1447.52C1964.62,1447.52 1911.83,1438.33 1861.3,1419.96C1810.8,1401.58 1766.69,1374.02 1729.07,1337.28L1757.55,1298.48C1760.82,1294.08 1767.06,1293.16 1771.41,1296.56C1771.41,1296.56 1842.01,1351.06 1883.34,1367.61C1924.7,1384.17 1970.13,1392.38 2019.74,1392.38C2082.18,1392.38 2132.43,1379.28 2170.57,1353.12C2208.7,1326.96 2227.76,1290.43 2227.76,1243.6C2227.76,1221.57 2222.93,1202.95 2213.31,1187.79C2203.61,1172.61 2189.18,1159.79 2169.9,1149.2C2150.59,1138.65 2126.69,1129.23 2098.25,1120.99C2069.77,1112.71 2036.7,1103.97 1999.07,1094.79C1958.65,1085.62 1923.54,1076.41 1893.69,1067.23C1863.81,1058.08 1839.28,1047.03 1819.93,1034.16C1800.7,1021.27 1786.21,1005.66 1776.57,987.311C1766.92,968.963 1762.12,945.497 1762.12,917.05C1762.12,881.206 1768.99,850.014 1782.75,823.323C1796.53,796.674 1815.6,774.635 1839.95,757.234C1864.27,739.779 1892.3,726.673 1923.98,717.918C1955.68,709.218 1989.42,704.84 2025.27,704.84C2081.24,704.84 2130.82,714.254 2174.01,733.096C2217.18,751.937 2250.68,776.034 2274.58,805.429L2243.19,835.66C2239.24,839.516 2232.64,839.667 2228.53,836.017C2228.53,836.017 2181.15,794.382 2143.02,780.645C2104.89,766.84 2064.24,759.924 2021.09,759.924C1994.44,759.924 1969.46,762.71 1946.05,768.226C1922.59,773.743 1902.17,782.443 1884.71,794.382C1867.27,806.362 1853.51,821.704 1843.36,840.559C1833.26,859.4 1828.25,881.645 1828.25,907.403C1828.25,928.536 1831.69,945.497 1838.55,958.383C1845.48,971.255 1856.5,982.247 1871.62,991.441C1886.78,1000.65 1906.29,1008.68 1930.16,1015.52C1954.02,1022.4 1982.51,1030.02 2015.57,1038.29C2060.56,1049.32 2100.54,1059.86 2135.45,1070.01C2170.34,1080.09 2199.49,1092.48 2222.93,1107.15C2246.33,1121.88 2264.22,1139.33 2276.67,1159.57C2289.05,1179.75 2295.26,1205.5 2295.26,1236.7C2295.26,1300.99 2270.21,1352.23 2220.18,1390.35C2170.06,1428.46 2103.27,1447.52 2019.74,1447.52Z" style="fill:rgb(17,88,108);fill-rule:nonzero;"/>
        <path d="M3111.13,1433.76C3105.61,1433.76 3099.73,1429.49 3097.99,1424.25L2900.38,828.661C2898.68,823.447 2895.85,823.447 2894.11,828.661L2696.49,1424.25C2694.74,1429.49 2688.87,1433.76 2683.41,1433.76L2631.72,1433.76C2626.19,1433.76 2620.24,1429.49 2618.4,1424.33L2371.57,726.632C2369.73,721.472 2372.74,717.246 2378.21,717.246L2431.28,717.246C2436.76,717.246 2442.72,721.472 2444.56,726.673L2657.01,1336.12C2658.82,1341.32 2661.69,1341.29 2663.35,1336.06L2859.74,726.769C2861.44,721.514 2867.33,717.246 2872.8,717.246L2921.73,717.246C2927.2,717.246 2933.09,721.514 2934.75,726.769L3131.14,1336.06C3132.84,1341.29 3135.68,1341.32 3137.51,1336.12L3349.96,726.673C3351.8,721.472 3357.77,717.246 3363.24,717.246L3414.91,717.246C3420.39,717.246 3423.39,721.472 3421.56,726.632L3174.74,1424.33C3172.9,1429.49 3166.88,1433.76 3161.42,1433.76L3111.13,1433.76Z" style="fill:rgb(17,88,108);fill-rule:nonzero;"/>
        <path d="M3576.73,1433.76C3571.24,1433.76 3566.76,1429.25 3566.76,1423.75L3566.76,727.222C3566.76,721.747 3571.24,717.246 3576.73,717.246L3625.67,717.246C3631.13,717.246 3635.63,721.747 3635.63,727.222L3635.63,1423.75C3635.63,1429.25 3631.13,1433.76 3625.67,1433.76L3576.73,1433.76Z" style="fill:rgb(17,88,108);fill-rule:nonzero;"/>
        <path d="M4076.45,1447.52C4021.32,1447.52 3968.53,1438.33 3918.01,1419.96C3867.46,1401.58 3823.41,1374.02 3785.77,1337.28L3814.3,1298.48C3817.53,1294.08 3823.78,1293.16 3828.09,1296.56C3828.09,1296.56 3898.73,1351.06 3940.04,1367.61C3981.41,1384.17 4026.84,1392.38 4076.45,1392.38C4138.85,1392.38 4189.19,1379.28 4227.26,1353.12C4265.4,1326.96 4284.48,1290.43 4284.48,1243.6C4284.48,1221.57 4279.63,1202.95 4269.99,1187.79C4260.34,1172.61 4245.9,1159.79 4226.6,1149.2C4207.31,1138.65 4183.41,1129.23 4154.96,1120.99C4126.47,1112.71 4093.41,1103.97 4055.77,1094.79C4015.33,1085.62 3980.23,1076.41 3950.36,1067.23C3920.53,1058.08 3895.99,1047.03 3876.7,1034.16C3857.37,1021.27 3842.92,1005.66 3833.27,987.311C3823.67,968.963 3818.83,945.497 3818.83,917.05C3818.83,881.206 3825.68,850.014 3839.51,823.323C3853.24,796.674 3872.31,774.635 3896.66,757.234C3920.99,739.779 3949.02,726.673 3980.68,717.918C4012.4,709.218 4046.14,704.84 4081.94,704.84C4137.97,704.84 4187.57,714.254 4230.72,733.096C4273.88,751.937 4307.4,776.034 4331.3,805.429L4299.9,835.66C4295.96,839.516 4289.32,839.667 4285.24,836.017C4285.24,836.017 4237.86,794.382 4199.74,780.645C4161.6,766.84 4120.96,759.924 4077.81,759.924C4051.15,759.924 4026.14,762.71 4002.72,768.226C3979.28,773.743 3958.89,782.443 3941.43,794.382C3923.98,806.362 3910.17,821.704 3900.12,840.559C3889.98,859.4 3884.94,881.645 3884.94,907.403C3884.94,928.536 3888.41,945.497 3895.27,958.383C3902.13,971.255 3913.22,982.247 3928.34,991.441C3943.5,1000.65 3963.01,1008.68 3986.88,1015.52C4010.74,1022.4 4039.23,1030.02 4072.28,1038.29C4117.28,1049.32 4157.25,1059.86 4192.15,1070.01C4227,1080.09 4256.25,1092.48 4279.63,1107.15C4303.04,1121.88 4320.94,1139.33 4333.36,1159.57C4345.74,1179.75 4351.98,1205.5 4351.98,1236.7C4351.98,1300.99 4326.9,1352.23 4276.85,1390.35C4226.82,1428.46 4159.99,1447.52 4076.45,1447.52Z" style="fill:rgb(17,88,108);fill-rule:nonzero;"/>
        <path d="M4739.08,1447.52C4683.95,1447.52 4631.15,1438.33 4580.63,1419.96C4530.12,1401.58 4486.03,1374.02 4448.39,1337.28L4476.92,1298.48C4480.18,1294.08 4486.38,1293.16 4490.73,1296.56C4490.73,1296.56 4561.34,1351.06 4602.65,1367.61C4644.02,1384.17 4689.46,1392.38 4739.08,1392.38C4801.52,1392.38 4851.81,1379.28 4889.88,1353.12C4928.02,1326.96 4947.1,1290.43 4947.1,1243.6C4947.1,1221.57 4942.24,1202.95 4932.61,1187.79C4922.96,1172.61 4908.47,1159.79 4889.22,1149.2C4869.93,1138.65 4846.02,1129.23 4817.59,1120.99C4789.09,1112.71 4756.03,1103.97 4718.39,1094.79C4677.97,1085.62 4642.85,1076.41 4613.02,1067.23C4583.15,1058.08 4558.59,1047.03 4539.32,1034.16C4520.03,1021.27 4505.54,1005.66 4495.93,987.311C4486.25,968.963 4481.44,945.497 4481.44,917.05C4481.44,881.206 4488.3,850.014 4502.08,823.323C4515.85,796.674 4534.97,774.635 4559.28,757.234C4583.59,739.779 4611.62,726.673 4643.3,717.918C4675.02,709.218 4708.75,704.84 4744.59,704.84C4800.59,704.84 4850.19,714.254 4893.35,733.096C4936.5,751.937 4970.01,776.034 4993.88,805.429L4962.53,835.66C4958.57,839.516 4951.98,839.667 4947.85,836.017C4947.85,836.017 4900.43,794.382 4862.35,780.645C4824.22,766.84 4783.58,759.924 4740.43,759.924C4713.78,759.924 4688.78,762.71 4665.36,768.226C4641.96,773.743 4621.5,782.443 4604.05,794.382C4586.6,806.362 4572.82,821.704 4562.74,840.559C4552.6,859.4 4547.57,881.645 4547.57,907.403C4547.57,928.536 4551.02,945.497 4557.89,958.383C4564.8,971.255 4575.78,982.247 4590.95,991.441C4606.11,1000.65 4625.63,1008.68 4649.53,1015.52C4673.4,1022.4 4701.85,1030.02 4734.9,1038.29C4779.9,1049.32 4819.85,1059.86 4854.77,1070.01C4889.68,1080.09 4918.82,1092.48 4942.24,1107.15C4965.66,1121.88 4983.61,1139.33 4995.98,1159.57C5008.37,1179.75 5014.61,1205.5 5014.61,1236.7C5014.61,1300.99 4989.57,1352.23 4939.51,1390.35C4889.46,1428.46 4822.65,1447.52 4739.08,1447.52Z" style="fill:rgb(17,88,108);fill-rule:nonzero;"/>
        <path d="M5476.42,1433.76C5470.91,1433.76 5464.86,1429.53 5462.87,1424.42L5194.5,722.447C5192.56,717.342 5195.39,713.129 5200.91,713.129L5337.98,713.129C5343.47,713.129 5349.43,717.342 5351.23,722.543L5549.95,1296.2C5551.75,1301.34 5554.71,1301.38 5556.55,1296.2L5757.98,722.502C5759.76,717.342 5765.77,713.129 5771.26,713.129L5894.57,713.129C5900.03,713.129 5902.92,717.342 5900.93,722.447L5632.53,1424.42C5630.61,1429.53 5624.51,1433.76 5619.05,1433.76L5476.42,1433.76Z" style="fill:rgb(17,88,108);fill-rule:nonzero;"/>
        <path d="M6518.56,1019C6524.07,1019 6527.75,1014.59 6526.82,1009.16C6526.82,1009.16 6518.26,960.661 6505.82,934.958C6493.44,909.242 6477.6,887.436 6458.27,869.5C6439.02,851.592 6416.51,837.595 6390.8,827.454C6365.04,817.354 6337.96,812.29 6309.5,812.29C6281.02,812.29 6254.2,817.354 6228.9,827.454C6203.65,837.595 6181.4,851.592 6162.09,869.5C6142.82,887.436 6127.22,909.242 6115.27,934.958C6103.29,960.661 6095.99,988.697 6093.2,1019L6518.56,1019ZM6309.5,1447.52C6253.48,1447.52 6202.51,1437.65 6156.58,1417.9C6110.65,1398.17 6071.39,1371.29 6038.79,1337.28C6006.22,1303.32 5980.97,1263.84 5963.01,1218.79C5945.12,1173.78 5936.19,1126.05 5936.19,1075.48C5936.19,1024.97 5945.12,976.95 5963.01,931.5C5980.97,886.05 6006.22,846.076 6038.79,811.604C6071.39,777.146 6110.65,750.098 6156.58,730.31C6202.51,710.618 6253.94,700.696 6310.9,700.696C6366.88,700.696 6417.67,710.837 6463.1,731.037C6508.6,751.21 6547.36,778.093 6579.57,811.604C6611.64,845.17 6636.22,884.198 6653.22,928.756C6670.22,973.314 6678.7,1019.93 6678.7,1068.58C6678.7,1079.66 6678.26,1089.97 6677.36,1099.62C6676.42,1109.28 6675.48,1117.31 6674.58,1123.72L6107.33,1123.72C6101.82,1123.72 6098.14,1128.15 6099.03,1133.54C6099.03,1133.54 6107.69,1184.82 6120.12,1210.53C6132.48,1236.28 6148.55,1258.54 6168.29,1277.34C6188.02,1296.2 6210.5,1310.63 6235.81,1320.78C6261.07,1330.86 6287.44,1335.9 6315.03,1335.9C6335.21,1335.9 6355.16,1333.37 6374.96,1328.35C6394.69,1323.29 6412.83,1315.93 6429.32,1306.28C6445.88,1296.64 6460.55,1284.92 6473.43,1271.15C6486.3,1257.38 6496.36,1242.21 6503.75,1225.69L6623.67,1260.12C6628.95,1261.64 6630.75,1266.62 6627.7,1271.15C6627.7,1271.15 6567.32,1361.37 6509.98,1395.84C6452.56,1430.35 6385.77,1447.52 6309.5,1447.52Z" style="fill:rgb(17,88,108);fill-rule:nonzero;"/>
        <path d="M7136.09,1317.99C7159.01,1317.99 7181.04,1314.13 7202.21,1306.28C7223.3,1298.48 7242.82,1287.92 7260.74,1274.61C7278.65,1261.29 7294,1246.11 7306.92,1229.15C7319.74,1212.14 7328.93,1193.98 7334.46,1174.72L7334.46,995.929C7334.46,990.412 7332.26,982.028 7329.56,977.225C7329.56,977.225 7287.62,902.559 7249.04,873.617C7210.46,844.676 7169.1,830.226 7125.05,830.226C7091.99,830.226 7062.4,837.362 7036.18,851.592C7010.03,865.864 6987.75,884.664 6969.39,908.075C6951.01,931.5 6936.78,957.917 6926.68,987.311C6916.54,1016.71 6911.53,1047.03 6911.53,1078.25C6911.53,1111.34 6917.27,1142.32 6928.71,1171.28C6940.24,1200.16 6956.07,1225.47 6976.25,1247.06C6996.49,1268.64 7020.14,1285.86 7047.23,1298.71C7074.32,1311.58 7103.93,1317.99 7136.09,1317.99ZM7086.48,1440.63C7037.74,1440.63 6993.48,1430.79 6953.52,1411.02C6913.59,1391.27 6879.14,1364.39 6850.24,1330.42C6821.27,1296.42 6798.79,1257.38 6782.69,1213.31C6766.62,1169.15 6758.59,1122.81 6758.59,1074.13C6758.59,1022.66 6766.62,974.206 6782.69,928.756C6798.79,883.264 6821.5,843.784 6850.92,810.273C6880.31,776.707 6915.43,750.098 6956.29,730.31C6997.16,710.618 7042.37,700.696 7091.99,700.696C7150.76,700.696 7201.72,714.474 7244.92,742.07C7288.09,769.571 7323.87,805.429 7352.35,849.534L7352.35,723.078C7352.35,717.603 7356.85,713.129 7362.32,713.129L7476,713.129C7481.51,713.129 7485.99,717.603 7485.99,723.078L7485.99,1403.11C7485.99,1408.57 7485.55,1417.55 7485.01,1423.04C7485.01,1423.04 7476.34,1511.82 7457.06,1552.25C7437.76,1592.68 7410.9,1626.86 7376.5,1654.91C7342.05,1682.91 7301.35,1704.23 7254.55,1718.94C7207.67,1733.63 7157.17,1740.98 7103.04,1740.98C7023.09,1740.98 6956.96,1727.44 6904.66,1700.34C6852.28,1673.25 6807.71,1635.38 6770.98,1586.65L6849.12,1513.57C6853.13,1509.85 6859.45,1510.07 6863.21,1514.1C6863.21,1514.1 6919.56,1574.73 6963.19,1594.96C7006.77,1615.16 7053.41,1625.24 7103.04,1625.24C7134.21,1625.24 7163.86,1621.11 7191.85,1612.87C7219.84,1604.6 7244.43,1591.73 7265.56,1574.28C7286.67,1556.82 7303.47,1534.8 7315.84,1508.19C7328.27,1481.48 7334.46,1449.83 7334.46,1413.08L7334.46,1312.83C7334.46,1307.31 7331.68,1306.42 7328.31,1310.67C7328.31,1310.67 7273.36,1380.94 7228.36,1404.81C7183.37,1428.72 7136.09,1440.63 7086.48,1440.63Z" style="fill:rgb(17,88,108);fill-rule:nonzero;"/>
        <path d="M1616.92,3.028C1615.46,0.489 1612.51,-0.773 1609.74,-0.005C1595.42,3.906 1581.34,7.749 1567.33,11.66C1566.08,12.017 1564.84,12.332 1563.59,12.689C1481.11,35.565 1404.06,58.372 1334.07,80.576C1163.38,134.808 961.693,215.993 916.663,364.007C896.069,431.77 910.969,508.261 960.623,592.203C968.827,579.469 976.95,566.761 985.058,554.164C1001.22,528.31 1018.92,503.952 1035.54,479.759C1044.06,467.792 1053.07,456.293 1061.64,444.807C1070.25,433.279 1078.74,421.931 1087.89,411.254C1096.81,400.441 1105.59,389.764 1114.25,379.225C1123.22,368.988 1132.29,359.067 1141.09,349.241C1145.53,344.356 1149.83,339.47 1154.24,334.695C1158.8,330.084 1163.28,325.459 1167.79,320.931C1176.76,311.86 1185.22,302.762 1194.15,294.322C1229.36,260.317 1263.87,231.472 1295.58,207.594C1297.11,206.428 1298.59,205.399 1300.12,204.273C1330.12,182.07 1357.93,164.573 1381.49,151.289C1383.11,150.439 1384.63,149.574 1386.16,148.723C1364.22,166.632 1341.47,186.42 1318.32,208.184C1313.56,212.617 1308.73,217.118 1303.89,221.646C1299.23,226.312 1294.46,231.06 1289.66,235.822C1280.15,245.414 1270.19,255.034 1260.51,265.161C1241.35,285.663 1221.25,306.659 1202.14,329.549C1182.36,351.889 1163.38,375.987 1143.73,400.441C1133.81,412.558 1124.8,425.622 1115.15,438.357C1105.82,451.27 1095.7,463.964 1086.67,477.522C1068.27,504.35 1049.04,531.315 1031.36,559.776C1022.43,573.938 1013.14,588.032 1004.27,602.468C999.012,611.237 993.812,620.061 988.571,628.912C987.885,630.024 987.254,631.149 986.581,632.274C986.581,632.315 986.636,632.37 986.677,632.398C968.553,665.566 951.142,699.351 934.239,733.452C920.56,760.967 908.225,789.044 895.218,816.777C882.692,844.676 871.125,872.863 859.326,900.679C837.031,956.86 815.984,1012.52 797.736,1067.08C788.008,1094.18 779.749,1121.25 771.544,1147.68C763.422,1174.13 754.846,1199.9 748.082,1225.37C740.989,1250.78 734.129,1275.46 727.447,1299.37C720.889,1323.29 715.771,1346.66 710.214,1369.01C708.925,1374.58 707.566,1379.83 706.263,1385.25C696.974,1343.08 686.478,1297.53 675.269,1249.35C669.561,1225.21 664.32,1200.3 657.776,1175.08C650.723,1149.93 643.548,1124.31 636.29,1098.19C628.977,1072.06 621.527,1045.55 614.035,1018.72C610.262,1005.32 606.462,991.757 602.689,978.254C598.202,964.847 593.716,951.33 589.188,937.813C579.996,910.861 570.748,883.676 561.418,856.381C551.869,829.197 543.376,801.614 531.892,774.868C521.094,748.04 510.228,721.116 499.417,694.329C494.038,680.949 488.66,667.624 483.309,654.34C478.15,640.988 471.331,628.24 465.459,615.217C440.735,563.674 418.577,512.117 391.04,464.952C377.855,441.102 365.37,417.443 352.281,394.787C337.97,372.762 323.976,351.176 310.338,330.221C303.382,319.819 297.194,309.184 289.922,299.441C282.472,289.794 275.214,280.243 267.997,270.897C260.849,261.566 253.769,252.413 246.868,243.397C239.994,234.395 233.271,225.502 225.739,217.461C211.031,201.364 196.94,185.83 183.522,171.133C169.829,156.71 155.381,144.25 142.525,132.132C129.903,119.741 116.539,109.654 104.397,100.268C98.333,95.602 92.501,91.17 86.931,86.861C81.251,82.771 75.447,79.272 70.165,75.786C49.173,61.46 31.487,52.128 19.208,46.392C12.965,43.757 8.163,41.713 4.98,40.368C1.701,39.201 0,38.625 0,38.625C0,38.625 1.522,39.558 4.527,41.356C7.408,43.346 11.566,46.241 17.095,50.111C27.591,58.372 43.383,69.858 61.192,87.218C65.719,91.485 70.604,95.698 75.406,100.542C80.071,105.565 84.928,110.821 89.977,116.337C100.089,127.329 111.6,138.376 122.096,152.14C132.784,165.644 144.844,179.243 156.465,194.544C167.675,210.147 179.433,226.628 191.713,243.754C198.175,252.056 203.786,261.25 209.617,270.596C215.449,279.872 221.376,289.341 227.44,298.988C233.491,308.594 239.637,318.324 245.88,328.245C252.191,338.112 257.446,348.884 263.415,359.382C275.077,380.515 287.055,402.225 299.307,424.442C310.777,447.112 321.726,470.702 333.264,494.401C357.481,541.141 376.414,592.697 397.722,643.76C402.744,656.728 408.712,669.298 413.061,682.623C417.589,695.866 422.117,709.136 426.713,722.447C435.809,749.014 445.002,775.678 454.167,802.355C463.977,828.799 470.837,856.34 478.74,883.306C486.506,910.367 494.217,937.291 501.886,964.064C505.783,977.348 509.693,990.632 513.548,1003.82C516.814,1017.24 520.052,1030.58 523.276,1043.85C529.697,1070.36 536.022,1096.61 542.21,1122.37C548.494,1148.13 554.599,1173.48 560.568,1198.23C566.138,1223.14 570.391,1247.81 575.139,1271.69C584.386,1319.47 593.126,1364.62 601.687,1406.2C606.187,1426.93 609.371,1447.04 612.279,1466.2C615.339,1485.35 618.22,1503.48 620.95,1520.57C626.37,1554.67 631.09,1584.42 634.986,1608.91C643.109,1657.81 647.774,1685.78 647.774,1685.78L648.13,1687.93L648.171,1688.19C649.077,1693.47 650.861,1698.26 653.111,1702.85C653.193,1703.02 653.289,1703.24 653.426,1703.46C654.812,1706.25 656.335,1708.9 658.132,1711.37C658.709,1712.12 659.34,1712.89 659.971,1713.65C661.411,1715.46 662.88,1717.16 664.499,1718.68C665.843,1720.03 667.325,1721.24 668.807,1722.44C669.877,1723.25 670.92,1724.12 671.99,1724.83C674.24,1726.39 676.655,1727.7 679.179,1728.96C679.659,1729.18 680.153,1729.4 680.647,1729.69C683.707,1731.02 686.89,1732.1 690.197,1732.9L690.251,1732.9C691.912,1733.31 693.435,1733.9 695.095,1734.16C725.471,1738.68 753.721,1717.74 758.29,1687.42L758.523,1685.99C758.523,1685.99 762.955,1656.34 770.721,1604.6C772.655,1591.68 774.809,1577.32 777.142,1561.72C779.913,1546.19 782.932,1529.42 786.156,1511.45C789.353,1493.52 792.755,1474.44 796.336,1454.3C799.931,1434.19 804.733,1413.24 809.206,1391.27C813.83,1369.33 818.33,1346.4 823.667,1322.83C829.183,1299.33 834.877,1274.97 840.708,1249.98C846.182,1224.84 853.454,1199.49 860.218,1173.38C867.133,1147.31 874.034,1120.67 882.376,1093.91C897.866,1040.08 915.936,985.115 935.281,929.565C945.544,902.065 955.189,873.974 965.96,846.254C977.169,818.74 987.761,790.745 999.588,763.382C1012.39,733.768 1025.57,704.319 1039.27,675.295C1061.41,679.289 1098.43,684.421 1142.57,684.421C1241.08,684.421 1374.18,658.485 1448.95,535.048C1514.1,427.626 1529.3,319.147 1542.72,223.389C1555.23,134.328 1566,57.425 1615.71,10.727C1617.81,8.75 1618.3,5.553 1616.92,3.028Z" style="fill:rgb(17,88,108);fill-rule:nonzero;"/>
    </g>
</svg>
