<?xml version="1.0" encoding="utf-8"?>
<!-- Generator: Adobe Illustrator 19.0.0, SVG Export Plug-In . SVG Version: 6.00 Build 0)  -->
<!DOCTYPE svg PUBLIC "-//W3C//DTD SVG 1.1//EN" "http://www.w3.org/Graphics/SVG/1.1/DTD/svg11.dtd">
<svg version="1.1" id="Ebene_1" xmlns="http://www.w3.org/2000/svg" xmlns:xlink="http://www.w3.org/1999/xlink" x="0px" y="0px"
	 width="350.3px" height="100px" viewBox="0 0 350.3 100" style="enable-background:new 0 0 350.3 100;" xml:space="preserve">
<style type="text/css">
	.st0{fill:#11586C;}
</style>
<g>
	<path class="st0" d="M40.3,33.5c0.3,0,0.5,0.1,0.8,0c0.1,0.1,0.3,0.2,0.5,0.3c0,0,0,0,0.1,0c0.1,0.1,0.2,0.1,0.3,0.1
		c0.1,0.1,0.2,0.3,0.3,0.4c0.1,0.1,0.1,0.1,0.2,0.2c0.1,0,0.1,0.1,0.1,0.1c0,0,0.1,0.4-0.1,0.5c-0.2,0.3-0.3,0.5-0.5,0.8
		c-0.2,0.2-0.3,0.5-0.4,0.7l0,0.1c-0.2,0.1-0.1,0.3-0.3,0.4c0,0.2-0.1,0.4-0.1,0.7c-0.1,0.1-0.1,0.3-0.2,0.4
		c-0.1,0.3-0.1,0.8,0.1,1.1c0.1,0.2,0.1,0.5,0.3,0.7c0.1,0.2,0.3,0.3,0.4,0.5c0,0.2,0.4,0.5,0.4,0.5l0.3,0.1l0-0.1
		c0.1,0.1,0.3,0.1,0.3,0.3c0.2,0.1,0.6,0.2,0.7,0.4c0.1,0.1,0.1,0.3,0.2,0.5c0.2,0.1,0.2,0.3,0.3,0.5c0.1,0.3-0.7,0.8-0.9,1
		c-0.3,0.2-0.6,0.4-0.9,0.6l-0.1,0.2c-0.4,0.1-0.6,0.4-0.9,0.6c-0.1,0.2-0.4,0.2-0.6,0.3c-0.1,0-0.2-0.1-0.3-0.1
		c-0.3,0.1-0.3,0.4-0.5,0.6c0,0.1-0.1,0.2-0.2,0.2l-0.2,0.1c-0.2,0-0.4,0-0.5,0.1c-0.1,0.3-0.4,0.3-0.7,0.5c-0.1,0.1-0.2,0-0.3,0.1
		c-0.1,0-0.3,0.1-0.5,0.1c-0.1,0.1-0.3,0.1-0.5,0.1c-0.1,0.1-0.3,0.3-0.5,0.3c0,0.1-0.2,0.1-0.3,0.3c-0.2,0.1-0.4,0.1-0.6,0.3
		c-0.1,0-0.3,0.2-0.4,0.2c-0.2,0.1-0.3,0.2-0.5,0.2c-0.1,0.1-0.1,0.3-0.3,0.3c-0.3,0-0.4,0.3-0.7,0.3c-0.2,0.1-0.4,0.2-0.5,0.4
		c-0.1,0-0.2,0.2-0.3,0.2c-0.4,0.5-0.9,0.7-1.3,1.2c-0.1,0.1-0.2,0.2-0.3,0.3l-0.2,0.2c-0.2,0.1-0.3,0.3-0.5,0.3
		c0,0.1-0.2,0.1-0.2,0.3c-0.2,0.1-0.3,0.3-0.4,0.5l0,0L30,52.6l-0.2,0.2c-0.1,0.1-0.3,0.1-0.3,0.3c-0.1,0.1-0.3,0.3-0.4,0.3
		c-0.1,0.1-0.3,0.2-0.4,0.4c-0.4,0.1-0.6,0.3-0.9,0.6c-0.1,0.2-0.3,0.2-0.4,0.3c-0.1,0-0.3,0-0.3,0.1c-0.1,0-0.3,0-0.3,0.2
		c-0.3,0.1-0.5,0.3-0.8,0.3c-0.4,0.1-0.7-0.1-0.9-0.4c0-0.2-0.1-0.3-0.2-0.4c-0.1-0.3-0.1-0.7,0-1.1c-0.1-0.2,0.1-0.4,0-0.6
		c0-0.2,0-0.4,0-0.5c-0.1-0.1,0-0.3-0.1-0.4c-0.1-0.1,0-0.4,0-0.5c-0.1-0.2,0.1-0.5-0.1-0.7c-0.2-0.1-0.2-0.3-0.3-0.4
		c0-0.1-0.1-0.1-0.1-0.3c-0.1-0.2-0.2-0.4-0.2-0.6c-0.1-0.3,0-0.6-0.2-0.9l0-0.3c-0.1-0.5-0.3-1-0.4-1.5c-0.1-0.2-0.2-0.4-0.2-0.6
		c-0.2-0.2-0.3-0.5-0.3-0.9c-0.2-0.2-0.3-0.5-0.5-0.9c-0.1-0.1,0-0.3-0.1-0.5c0-0.3-0.1-0.6-0.3-0.8c0-0.1-0.1-0.1-0.1-0.2
		c-0.2-0.3-0.3-0.6-0.4-1c-0.2-0.3-0.4-0.7-0.5-1.1c-0.3-0.3-0.1-0.9-0.3-1.3c-0.1-0.4,0-0.7,0-1.1c0-0.4,0-0.9-0.1-1.3
		c-0.1-0.2,0-0.4-0.2-0.5c0-0.2-0.2-0.4-0.2-0.6c-0.1-0.1,0-0.2-0.1-0.4c-0.1-0.3,0-0.5,0.1-0.8c0.1-0.1-0.1-0.3,0.1-0.4l0.2-0.2
		c0.2-0.4,0.4-0.8,0.6-1.1c0-0.1,0.1-0.2,0.1-0.3c0.4-0.6,1.2,0,1.7-0.4c0.1,0,0.2,0,0.3-0.1c0.8-0.1,1.6,0.6,2.4,0.8
		c0.4,0.1,0.8,0.5,1.3,0.4c0.2-0.1,0.3,0,0.5-0.1c0.5,0,0.9,0,1.3,0c0.2,0,0.5-0.1,0.7-0.1l0,0c0.7,0,1.3,0.3,2,0.1
		c0.1,0,0.3,0,0.4,0c0.7,0,1.2-0.3,1.9-0.3c0.1,0,0.3,0,0.4,0c0.3,0.1,0.7,0.4,1,0.4c0.3-0.1,0.6-0.2,0.9-0.1c0.2,0,0.4,0,0.6-0.1
		c0.2,0,0.4,0.1,0.7,0.1l0,0.1c0.3,0,0.7-0.1,1-0.1c0.4,0,0.9-0.1,1.3-0.2C39.7,33.4,39.9,33.4,40.3,33.5"/>
	<path class="st0" d="M73.4,44.6c-0.3,0.1-0.5,0-0.8,0l-0.8,0.2l-0.1,0c-0.4,0.3-0.9,0.2-1.3,0.3c-0.1,0.1-0.3,0-0.4,0.1
		c-0.3,0.1-0.6,0.1-0.8,0.2c-0.5-0.1-1,0.1-1.6,0.2l-0.5,0.3c-0.3,0-0.6,0.1-0.8,0.1c-0.3-0.1-0.6,0-0.8,0.1c-0.6,0.2-1-0.4-1.5-0.4
		c-0.1-0.1-0.3-0.1-0.4-0.1h-0.1c-0.1,0-0.3,0-0.4,0c-0.1-0.1-0.2-0.2-0.4-0.2c-0.1,0-0.1-0.2-0.2-0.1c-0.2-0.1-0.4-0.1-0.6-0.1
		l-0.8,0.1l0,0l-0.2,0c-0.2,0-0.5,0.1-0.7,0.1c-0.4,0.1-0.7,0.3-1.1,0.3c-0.3,0.1-0.5,0.4-0.9,0.4c-0.3-0.1-0.6,0.1-0.8,0.1
		c-0.3,0.1-0.6,0.1-0.8,0.1c-0.2,0-0.3,0.1-0.4,0.1c-0.4,0.2-1,0.1-1.3,0.4c-0.2,0.1-0.4,0.2-0.6,0.4c-0.1,0.1-0.4,0-0.5,0.1
		c-0.2,0-0.3,0.1-0.5,0c-0.2,0-0.2,0.1-0.4,0.1c-0.1,0-0.1,0.1-0.3,0c-0.2-0.2-0.5,0-0.7,0.1c-0.1,0-0.1,0.2-0.2,0.2
		c-0.4,0.2-0.5,0.6-0.7,0.9c-0.2,0.1-0.1,0.4-0.2,0.6l0,0.6c-0.3,0.5,0.4,0.7,0.3,1.2l0.1,0.3l0.2,0.4c0.1,0.2,0,0.4,0.2,0.6
		c0.1,0.2,0.3,0.4,0.4,0.6l0.6,0.2l0.2,0.3c0.3,0.1,0.6,0.1,0.9,0.2l0.2,0.1c0.2,0.1,0.5,0.2,0.7,0.2c0.1,0.1,0.2,0.1,0.3,0.1
		c0.5,0.2,1,0.2,1.4,0.4l0,0.1c0.2,0.1,0.4,0.2,0.6,0.2c0.1,0.2,0.4,0.1,0.5,0.3c0.2,0,0.3,0.2,0.5,0.2c0.3,0,0.4,0.3,0.7,0.3
		c0.2,0.1,0.4,0.2,0.6,0.3c0.1,0.1,0.3,0.1,0.4,0.2c0.2,0.1,0.4,0.3,0.6,0.4c0.1,0.1,0.2,0.2,0.4,0.3c0.1,0.1,0.3,0.2,0.3,0.3l0,0
		l0.1,0.1c0.2,0.1,0.3,0.1,0.5,0.2c0.4,0.1,0.8,0.2,1.2,0.3l0,0.1c0.2,0,0.4,0,0.5,0.1c1,0.4,2,0.8,3.1,1c0.6,0.1,1.3,0.2,1.9,0.4
		c0.5,0.2,1,0.4,1.5,0.6c0.2,0,0.5,0.2,0.7,0.2c0.1,0.2,0.3,0.1,0.5,0.1l0,0.1c0.3,0.2,0.7,0.3,1.1,0.4l0.2,0
		c0.1,0.1,0.2,0.2,0.4,0.1l0.1,0c0.1,0.1,0.3,0.1,0.4,0.2l0.7,0.2c0.2,0.1,0.4,0.1,0.7,0.2V44.3C74.1,44.3,73.7,44.3,73.4,44.6"/>
	<path class="st0" d="M35.8,71.4c0.1-0.2,0.1-0.4,0.1-0.6c0.1-0.1,0.1-0.3,0.2-0.4c0.1-0.1,0.1-0.4,0.3-0.5l0.1-0.1
		c0-0.3,0.2-0.4,0.3-0.7l0-0.1c0.1-0.3,0.3-0.5,0.4-0.8l0,0c0.1-0.2,0.1-0.3,0.3-0.4c0.1-0.2,0.3-0.4,0.3-0.6
		c0.1-0.1,0.2-0.2,0.1-0.3c-0.1-0.4,0.2-0.6,0.2-0.9v-0.1c0.1-0.2,0.2-0.4,0.3-0.6l0.1-0.3c0.1-0.3,0.3-0.5,0.4-0.8l0.1-0.1
		c0.1-0.1,0.2-0.2,0.2-0.3c0.3-0.3,0.3-0.8,0.6-1c0.1-0.3,0.4-0.5,0.6-0.8l0.3-0.3c0.1-0.2,0.2-0.3,0.3-0.5c0.1-0.5,0.6-0.9,0.9-1.3
		c0.1,0,0.1-0.2,0.2-0.2c0.2-0.3,0.4-0.6,0.6-0.9c0.1-0.2,0.2-0.2,0.3-0.4l0.1-0.1l0.2-0.2c0.1,0,0.1-0.1,0.2-0.1l0.1,0l0,0h0
		c0,0,0.4-0.2,0.4-0.3c0.3-0.2,0.3-0.5,0.5-0.8c0.1-0.2,0.2-0.3,0.3-0.5c0.1-0.2,0.2-0.5,0.3-0.6c0-0.1,0-0.2-0.1-0.3
		c0.2-0.4,0.1-0.9,0-1.4c0-0.3-0.2-0.7-0.6-0.8c-0.2-0.1-0.2-0.3-0.4-0.5l0-0.1l-0.1,0l0,0l-0.1,0l0,0l0,0L43.8,52
		c-0.1-0.3-0.3-0.4-0.4-0.7c-0.1-0.4-0.4-0.7-0.7-0.9c-0.1-0.1-0.3-0.1-0.4-0.1c-0.2,0-0.5-0.2-0.8-0.2l-0.1,0l0,0
		C41,50,40.9,50,40.6,50c-0.1,0.1-0.3,0-0.5,0l-0.2,0.1l0,0c-0.2,0.1-0.3,0-0.5,0.1c-0.2,0.1-0.3,0-0.5,0.2
		c-0.6,0.1-1.1,0.3-1.6,0.5c-0.2,0-0.4,0.1-0.6,0.2l-0.1,0.1c-0.6,0.3-1.2,0.5-1.7,1c-0.2,0-0.3,0.1-0.5,0.2
		c-0.2,0.2-0.5,0.3-0.7,0.5c-0.1,0-0.1,0.2-0.2,0.2c-0.1,0.2-0.3,0.3-0.5,0.4c-0.1,0.2-0.4,0.1-0.5,0.3c-0.4,0.1-0.6,0.4-1,0.5
		c-0.8,0.6-1.8,1-2.6,1.7l-0.1,0.1c-0.3,0.3-0.6,0.7-0.9,1c-0.3,0.3-0.7,0.5-1,0.7c-0.2,0.1-0.4,0.2-0.6,0.2c-0.1,0-0.3,0.2-0.4,0.3
		c-0.3,0.1-0.2,0.2-0.5,0.4c-0.2,0.3-0.5,0.5-0.6,0.8c0,0.1,0.1,0.2,0,0.3c0,0.3,0.1,0.4,0.1,0.8l-0.1,0.3c0.1,0.1,0,0.3,0.1,0.4
		c0,0.3,0.3,0.5,0.3,0.9c0.1,0.2,0.1,0.5,0.3,0.7c0.5,0.7,0.6,1.5,1.2,2.1c0.1,0.2,0.1,0.4,0.1,0.6l0.1,0.6c0.3,0.6,0.6,1,0.8,1.6
		c0.1,0.2,0.1,0.4,0.2,0.6c0.1,0.5,0.2,1,0.4,1.5l0,0.3c0,0.2,0.1,0.4,0.1,0.6l0.1,0.2c-0.2,0.9,0.2,1.7,0.7,2.4
		c0.2,0.4,0,0.8,0.1,1.2c-0.1,0.4,0.1,0.7,0.2,1.1c0.2,0.2,0.6,0.1,0.9,0.3l0.1,0.1h0h0l0,0c0.2,0.1,0.5,0.2,0.6,0
		c0.2,0,0.4,0,0.6,0c0.3,0.3,0.7,0.1,1.1,0.2l0.5-0.2c0-0.2,0.3-0.2,0.4-0.3c0-0.2,0.2-0.2,0.3-0.3c0.1-0.1,0.1,0,0.2-0.1
		c0.1-0.1,0.1-0.1,0.2-0.2l0.1-0.2c0.1-0.1,0.2-0.2,0.2-0.3c0.1-0.2,0.1-0.4,0.3-0.5c0-0.2,0.1-0.3,0.2-0.5l0.1-0.2
		c0-0.1,0.2-0.3,0.1-0.4l0.1,0l0.1-0.3c0.1-0.3,0.2-0.6,0.3-0.9C35.9,71.7,35.8,71.5,35.8,71.4"/>
	<path class="st0" d="M36.7,75.9L37,76c0.5,0.1,1.1-0.3,1.6-0.4c0.2,0.1,0.4,0.2,0.6,0.1c0.3,0.1,0.6-0.1,0.9,0
		c0.3,0,0.6-0.1,0.9,0.1c0.3,0,0.6,0.3,0.9,0.3c1.2,0,2.2-0.7,3.3-0.2c1,0,1.9,0.8,3,0.8l0.2,0.1c0.6,0,1.2,0,1.7,0.3
		c1.1,0.1,2.1,0.7,3.1,0.9c0.4,0.1,0.8,0,1.2,0c0.7-0.2,1.3,0.3,2,0.2l0.2,0.1c0.8,0.1,1.7,0.1,2.6-0.2c0.4,0,0.8,0.3,1.3,0.3
		c0.5-0.3,1.2,0.2,1.7,0.1l0.7,0.3c0.2,0.1,0.5,0.1,0.7,0c0.5,0,0.9,0.5,1.4,0.4c0.3,0.1,1.2,0.3,1.5,0.3c0.2,0,0.5,0.1,0.7,0
		c0.3-0.2,0.5,0.1,0.8-0.1c0.4,0.1,0.7,0.3,1.1,0.3l1.2,0c0.9-0.3,1.6,0.7,2.4,0.2c0.7-0.1,1.5-0.3,1.9-0.3l0-8l-0.1-0.1l-0.2,0
		c-0.3-0.1-0.4-0.2-0.7-0.2c-0.1-0.1-0.3-0.1-0.4-0.1c-0.3-0.2-0.6-0.2-0.9-0.3l-0.1-0.1c-0.1,0-0.1-0.2-0.3-0.2l0,0
		c-0.1-0.1-0.3-0.2-0.5-0.3l0,0l0,0l-0.2-0.1c-0.1-0.1-0.3-0.2-0.4-0.3h0l0,0l-0.1,0l-0.1-0.1l0,0l0,0l-0.1,0l-0.3-0.2l-0.1,0
		c-0.1-0.1-0.3-0.2-0.4-0.2c-0.2-0.1-0.5-0.2-0.7-0.3L68.8,69l-0.1-0.1l-0.1-0.1l-0.2-0.1l-0.2-0.2l-0.1,0l0,0
		c-0.1,0-0.2-0.1-0.3-0.1c-0.7-0.5-1.5-1-2.1-1.7c-0.3-0.3-0.5-0.7-0.8-1c-0.2-0.3-0.5-0.4-0.7-0.7c-0.2-0.1-0.4-0.2-0.4-0.4l-0.1,0
		l0,0l0,0c-0.3-0.2-0.6-0.5-0.9-0.7l-0.1,0c-0.1-0.1-0.3-0.2-0.4-0.3l-0.1,0c-0.2-0.2-0.4-0.2-0.6-0.4h0l-0.1,0l-0.3,0l-0.2-0.2
		l-0.1,0l0,0c-0.6-0.2-1.1-0.3-1.7-0.6l-0.1,0l0,0l0,0l0-0.1l-0.1,0l0,0l0,0c-0.2-0.1-0.3-0.3-0.5-0.4l0,0l0,0l0,0L58,61.4
		c-0.1-0.1-0.2-0.2-0.3-0.2l0,0c-0.3-0.3-0.4-0.7-0.7-0.9l-0.1-0.1l-0.1-0.2c0-0.1-0.2-0.1-0.1-0.2l-0.2-0.2l0,0
		c-0.4-0.4-0.6-0.8-1-1c-0.2-0.1-0.3-0.3-0.5-0.3L54.5,58l0,0l-0.1-0.1l-0.1,0.1l0-0.1l-0.1,0.1l-0.1,0c-0.1-0.1-0.2-0.2-0.4-0.3
		l-0.1,0l0,0l0,0l-0.1,0l-0.1,0l0,0l-0.3-0.1l-0.1-0.1l-0.3-0.1c-0.1-0.1-0.2-0.1-0.3-0.2c-0.1-0.1-0.2-0.1-0.3-0.1
		c-0.2,0-0.5-0.1-0.7-0.2l-0.2-0.2l-0.5,0.1c-0.4,0.1-0.4,0.2-0.8,0.5l-0.2,0.1c-0.1,0.1-0.1,0.1-0.4,0.1l-0.1,0.1l-0.1,0.1L49,57.5
		c-0.2,0.1-0.3,0.3-0.5,0.4l-0.3,0.3c-0.2,0.4-0.6,0.6-0.9,0.9c-0.1,0.3-0.5,0.4-0.6,0.7l-0.2,0.1c0,0.1-0.1,0.1-0.2,0.2
		c-0.3,0.2-0.6,0.4-0.8,0.7c-0.3,0.4-0.6,0.8-0.9,1.2l-0.1,0.1c-0.6,0.9-1.1,1.8-1.7,2.6l-0.3,0.4l-0.1,0.2c0,0.2-0.2,0.3-0.3,0.4
		c0,0.2-0.2,0.4-0.3,0.5c-0.1,0.2-0.2,0.4-0.3,0.6c-0.2,0.6-0.6,1.1-0.9,1.7c-0.1,0.3-0.3,0.5-0.3,0.8c-0.1,0.3-0.1,0.6-0.3,0.9
		c-0.3,0.3-0.5,0.6-0.7,1c0,0.1-0.2,0.1-0.2,0.3c-0.3,0.3-0.5,0.6-0.8,1c0,0.2-0.1,0.2-0.1,0.4c-0.1,0.1-0.3,0.3-0.4,0.5L38,73.6
		c-0.3,0.7-0.8,1.3-1.1,2"/>
	<path class="st0" d="M74.4,30.9V17.6c-0.3,0-0.4-0.1-0.7-0.1c-0.4,0.1-0.6,0.1-0.9,0.3c-0.3,0-0.3,0.2-0.6,0.1
		c-0.1-0.1-0.4,0.1-0.5,0c-0.3,0-0.6,0-0.9,0.1c-0.1,0-0.2,0.1-0.3,0.1c-0.1,0-0.3,0.1-0.4,0.1c-0.3,0.1-0.2,0.5-0.5,0.5
		c-0.5,0.2-0.9,0.4-1.3,0.8c-0.4,0.1-0.6,0.5-0.9,0.7c-0.5,0.5-1.2,0.6-1.8,1.1c-0.3,0.1-0.5,0.3-0.7,0.5c-0.1,0-0.2,0.1-0.3,0.2
		c-0.1,0.1-0.3,0.2-0.3,0.3c-0.3,0.1-0.6,0.2-0.8,0.4c-0.3,0.3-0.7,0.4-1.1,0.6c-0.4,0.3-0.8,0.5-1.2,0.6c-0.2,0.1-0.4,0.2-0.6,0.2
		c-0.3,0.1-0.6,0.3-0.9,0.6c-0.3,0.3-0.6,0.7-0.9,1.1c-0.3,0.1-0.5,0.3-0.7,0.4c-0.1,0-0.2,0.1-0.4,0.2c-0.2,0.2-0.5,0.3-0.7,0.5
		c-0.1,0-0.2,0.2-0.4,0.1c-0.2,0.1-0.4,0.2-0.6,0.3c-0.3,0.2-0.7,0.3-1,0.3c-0.2,0-0.4,0.1-0.6,0.1c-0.2,0.2-0.5,0-0.7,0.2
		c-0.2,0.1-0.3,0.2-0.5,0.2c-0.3,0.2-0.5,0.3-0.8,0.5c-0.6,0.2-1.2,0.4-1.9,0.4c-0.3,0-0.3-0.1-0.6,0c-0.1-0.1-0.3,0-0.4,0l0,0
		c-0.3,0-0.3,0.2-0.6,0.3c-0.5,0.1-0.9,0.6-1.3,0.8c-0.3,0.3-0.7,0.2-1.1,0.5c-0.4,0.1-1,0.4-1,0.4c-0.2-0.1-0.4,0.2-0.6,0.2
		l-0.4,0.3l-0.2,0c-0.1,0.1-0.4,0.1-0.5,0.3c-0.2,0.2-0.4,0.1-0.4,0.4c-0.1,0.1-0.1,0.3-0.1,0.4c0.3,0.2,0.2,0.6,0.5,0.8
		c0,0.1,0.1,0.1,0.2,0.2c0.3,0,0.4,0.3,0.7,0.3c0.1,0.1,0.3,0.1,0.4,0.3c0.1,0.1,0.2,0.3,0.4,0.4c0.3,0,0.4,0.1,0.7,0.2l0.2,0.1
		c0.1,0,0.3,0.1,0.5,0.1c0.1,0.2,0.4,0.2,0.5,0.4c0.1,0,0.2,0.2,0.3,0.3c0.1,0,0.2,0.1,0.3,0.2c0.3,0.2,0.5,0.4,0.5,0.6
		c0,0.1,0.1,0.2,0.2,0.4c-0.1,0.1,0.2,0.2,0.2,0.3c0,0.2,0.2,0.3,0.2,0.5c0,0.1,0,0.3,0.1,0.5c0.2,0.2-0.1,0.4,0,0.5
		c0,0.1-0.1,0,0,0.1c0.2,0.3,0,0.6,0.1,0.8L49,40.1c-0.2,0.2-0.1,0.3-0.3,0.5c-0.1,0.2-0.5,0.4-0.5,0.6c0,0.2-0.1,0.4,0,0.6
		c0.3,0.1,0.1,0.4,0.3,0.5c0.3,0.1,1.3,0.6,1.7,0.6c0.1-0.1,0.2,0,0.3,0c0.1,0.2,0.3,0,0.4,0.1l0-0.1c0.2,0,0.5-0.1,0.7,0
		c0.3,0.1,0.6,0,0.8-0.1l0.2,0c0.3-0.1,0.6-0.3,0.8-0.4c0.1,0,0.2-0.1,0.3-0.2c0.2-0.1,0.4-0.2,0.7-0.2c0.2-0.1,0.3-0.2,0.5-0.2
		c0.1-0.1,0.3-0.1,0.5-0.1c0.7-0.4,1.2-1.1,2-1.1c0.6-0.3,1.2-0.4,1.9-0.8l0.1,0c0.3-0.1,0.7-0.3,1.1-0.4c0.7-0.2,1.2-0.7,1.9-0.9
		c0.3,0,0.5-0.2,0.7-0.4c0.3-0.3,0.9-0.3,1.2-0.5l0.1,0c0.5-0.2,1.1-0.5,1.4-0.9c0.2-0.1,0.5-0.3,0.7-0.4c0.2-0.3,0.6-0.5,1-0.7
		l0.3-0.4c0.1,0,0.2-0.2,0.4-0.3c0.3-0.1,0.5-0.3,0.8-0.5c0.2,0,0.4-0.3,0.6-0.4c0.1-0.1,0.3-0.1,0.4-0.2c0.1-0.2,0.3-0.1,0.5-0.3
		c0.3,0,0.4-0.3,0.6-0.4l0.7-0.4c0.4-0.4,1.1-0.3,1.4-0.8C73.8,31.5,73.9,31.2,74.4,30.9"/>
	<path class="st0" d="M155.6,63.4c-1.1,0-2.3,0.9-3.5,3.1H152v-2.8h-2.4v12.2h2.4v-6.4c0-2.1,1.3-3.8,3-3.8c0.5,0,1.3,0.4,2,1
		l1.3-2.1C157.4,63.8,156.5,63.4,155.6,63.4"/>
	<path class="st0" d="M102.8,68.6c0,4.6-2.7,7.5-8.3,7.5c-3.9,0-7.7-2.2-7.7-7.3V57.3h2.7v11c0,2.1,0.3,3,1.1,3.8
		c1.1,1.1,2.4,1.6,4,1.6c2,0,3.5-0.7,4.4-1.5c1-1,1.2-2.3,1.2-4.1V57.3h2.7V68.6z"/>
	<path class="st0" d="M108.1,65.2L108.1,65.2c1-1.2,2.3-1.9,3.7-1.9c2.3,0,4.2,1.6,4.2,4.9v7.5h-2.4v-7.6c0-1.8-0.9-3-2.4-3
		c-1.1,0-1.9,0.5-3.1,1.8v8.8h-2.4V63.6h2.4V65.2z"/>
	<path class="st0" d="M121.6,75.9h-2.4V63.6h2.4V75.9z M120.4,61.4c-0.8,0-1.4-0.7-1.4-1.4c0-0.8,0.7-1.4,1.4-1.4
		c0.8,0,1.4,0.7,1.4,1.4C121.8,60.7,121.1,61.4,120.4,61.4"/>
	<polygon class="st0" points="123.3,63.6 125.9,63.6 129.2,71.2 132.4,63.6 135,63.6 129.6,76.1 128.8,76.1 	"/>
	<path class="st0" d="M138,68.5c0.3-1.9,1.4-3,3.3-3c1.7,0,2.8,1.2,2.9,3H138z M146.4,72.3c-1.4,0.9-2.8,1.5-4.3,1.5
		c-2.3,0-3.7-1.3-4.1-3.7h8.6c0-4.5-2.1-6.7-5.3-6.7c-3.4,0-5.7,2.5-5.7,6.2c0,3.4,2.1,6.5,5.9,6.5c2.1,0,3.4-0.5,4.9-1.4V72.3z"/>
	<path class="st0" d="M166.4,66.8c-1.4-0.9-2.6-1.3-3.5-1.3c-1,0-1.6,0.5-1.6,1.1c0,0.5,0.8,1.2,3,2.5c2,1.3,2.8,2.2,2.8,3.4
		c0,2.2-1.7,3.6-4,3.6c-1.5,0-2.7-0.3-4.3-1.1v-2.6c1.6,1.1,3,1.6,4,1.6c1-0.1,1.8-0.5,1.8-1.4c0-1.7-5.7-2.6-5.7-5.9
		c0-2.1,1.6-3.3,4-3.3c1.1,0,2.3,0.3,3.6,1V66.8z"/>
	<path class="st0" d="M172.1,75.9h-2.4V63.6h2.4V75.9z M170.9,61.4c-0.8,0-1.4-0.7-1.4-1.4c0-0.8,0.7-1.4,1.4-1.4
		c0.8,0,1.4,0.7,1.4,1.4C172.3,60.7,171.7,61.4,170.9,61.4"/>
	<path class="st0" d="M178.7,63.6h3.9v2.2h-3.9v6.3c0,1.4,1,1.9,1.7,1.9c0.9,0,1.8-0.3,2.8-0.9v2.3c-0.8,0.5-2.2,0.8-2.9,0.8
		c-2.6,0-4-1.6-4-3.8v-6.5h-2.1v-0.3l4.6-4.4V63.6z"/>
	<polygon class="st0" points="186.9,82.1 184.2,82.1 188.3,73.3 183.6,63.6 186.4,63.6 189.7,70.5 192.8,63.6 195.5,63.6 	"/>
	<path class="st0" d="M209.2,65.6c2.4,0,4.2,1.7,4.2,4.1c0,2.6-1.6,4.3-4.2,4.3c-2.3,0-4-1.7-4-4.3
		C205.2,67.3,206.9,65.6,209.2,65.6 M209.2,63.4c-3.7,0-6.5,2.7-6.5,6.2c0,3.8,2.7,6.5,6.5,6.5c3.9,0,6.6-2.6,6.6-6.5
		C215.8,66,213,63.4,209.2,63.4"/>
	<path class="st0" d="M224.9,59.7c-0.4-0.2-0.7-0.2-1.1-0.2c-2,0-2.6,1.1-2.6,3v1.2h2.2v2.2h-2.2v10.1h-2.4V65.8H217v-2.2h1.7v-0.9
		c0-2.4,0.6-3.5,1.6-4.5c1-1,2.4-1.5,4.6-0.9V59.7z"/>
	<path class="st0" d="M242.1,61.4c-1.6-1.5-3.1-1.9-4.4-1.9c-1.7,0-2.9,0.9-2.9,2.2c0,3.6,8,3.5,8,9.4c0,2.9-2.2,5-5.2,5
		c-2,0-3.7-0.5-5.2-1.7V71c1.4,1.7,3.1,2.7,4.9,2.7c2.1,0,3-1.3,3-2.3c0-3.8-8-4.3-8-9.4c0-3,2.2-5,5.6-5c1.4,0,2.8,0.4,4.1,1.3
		V61.4z"/>
	<path class="st0" d="M248.2,63.6h3.9v2.2h-3.9v6.3c0,1.4,1,1.9,1.7,1.9c0.9,0,1.8-0.3,2.8-0.9v2.3c-0.8,0.5-2.2,0.8-2.9,0.8
		c-2.6,0-4-1.6-4-3.8v-6.5h-2.1v-0.3l4.6-4.4V63.6z"/>
	<path class="st0" d="M257.5,74.5c0,0.9-0.7,1.6-1.6,1.6c-0.9,0-1.6-0.7-1.6-1.6c0-0.9,0.7-1.6,1.6-1.6
		C256.8,72.8,257.5,73.6,257.5,74.5"/>
	<path class="st0" d="M277.2,74.6c-2.5,1.1-4.5,1.5-7.1,1.5c-5.7,0-9.9-4-9.9-9.4c0-5.5,4.3-9.6,10-9.6c2.2,0,3.7,0.4,6.6,1.6v2.7
		c-2.2-1.2-4.4-1.8-6.7-1.8c-4,0-7.2,3.1-7.2,7.1c0,4.1,3.1,7.1,7.5,7.1c1.4,0,2.8-0.3,4-0.7v-3.8H271v-2.4h6.2V74.6z"/>
	<path class="st0" d="M286.2,73.4c-0.7,0.6-1.4,1-2.1,1c-1,0-1.7-0.7-1.7-1.7c0-1.4,1.8-2.2,3.9-2.9V73.4z M290.4,73.7
		c-0.5,0.4-1,0.7-1.3,0.7c-0.3,0-0.5-0.2-0.5-0.6v-6.3c0-2.8-2-4-4.4-4c-1.8,0-3.1,0.5-4.1,1.7v2.6c1.2-1.4,2.5-2,3.9-2
		c1.5,0,2.2,0.6,2.2,2.2v0.7l-2.2,0.8c-2,0.7-4.2,1.4-4.2,3.9c0,1.6,1.2,3,3,3c1.1,0,2.2-0.4,3.3-1.3c0.2,0.9,0.8,1.3,1.9,1.3
		c0.8,0,1.2-0.2,2.3-1V73.7z"/>
	<rect x="292.3" y="57.3" class="st0" width="2.4" height="18.6"/>
	<rect x="298" y="57.3" class="st0" width="2.4" height="18.6"/>
	<path class="st0" d="M305.2,68.5c0.3-1.9,1.4-3,3.3-3c1.7,0,2.8,1.2,2.9,3H305.2z M313.6,72.3c-1.4,0.9-2.8,1.5-4.3,1.5
		c-2.3,0-3.7-1.3-4.1-3.7h8.6c0-4.5-2.1-6.7-5.3-6.7c-3.4,0-5.7,2.5-5.7,6.2c0,3.4,2.1,6.5,5.9,6.5c2.1,0,3.4-0.5,4.9-1.4V72.3z"/>
	<path class="st0" d="M318.8,65.2L318.8,65.2c1-1.2,2.3-1.9,3.7-1.9c2.3,0,4.2,1.6,4.2,4.9v7.5h-2.4v-7.6c0-1.8-0.9-3-2.4-3
		c-1.1,0-1.9,0.5-3.1,1.8v8.8h-2.4V63.6h2.4V65.2z"/>
</g>
</svg>
