<?xml version="1.0" encoding="utf-8"?>
<!-- Generator: Adobe Illustrator 19.0.0, SVG Export Plug-In . SVG Version: 6.00 Build 0)  -->
<!DOCTYPE svg PUBLIC "-//W3C//DTD SVG 1.1//EN" "http://www.w3.org/Graphics/SVG/1.1/DTD/svg11.dtd">
<svg version="1.1" id="Ebene_1" xmlns="http://www.w3.org/2000/svg" xmlns:xlink="http://www.w3.org/1999/xlink" x="0px" y="0px"
	 width="175.6px" height="100px" viewBox="-22 271 175.6 100" style="enable-background:new -22 271 175.6 100;"
	 xml:space="preserve">
<style type="text/css">
	.st0{fill:#12596D;}
	.st1{clip-path:url(#SVGID_2_);fill:#FFFFFF;}
	.st2{clip-path:url(#SVGID_4_);fill:#F0F0F7;}
	.st3{clip-path:url(#SVGID_6_);fill:url(#SVGID_7_);}
	.st4{clip-path:url(#SVGID_9_);fill:#FFFFFF;}
</style>
<rect x="1.2" y="282.4" class="st0" width="131.7" height="77.6"/>
<g>
	<g>
		<defs>
			<rect id="SVGID_1_" x="11.4" y="290" width="104.3" height="63.6"/>
		</defs>
		<clipPath id="SVGID_2_">
			<use xlink:href="#SVGID_1_"  style="overflow:visible;"/>
		</clipPath>
		<path class="st1" d="M22.2,329.5c3.9,3.9,9,6,14.4,6c5.4,0,10.6-2.1,14.4-6c8-8,8-20.9,0-28.9l-0.7,0.7c7.6,7.6,7.6,19.9,0,27.5
			c-3.7,3.7-8.6,5.7-13.8,5.7c-5.2,0-10.1-2-13.8-5.7c-7.6-7.6-7.6-20,0-27.5l-0.7-0.7C14.2,308.6,14.2,321.6,22.2,329.5"/>
		<path class="st1" d="M13.6,315.1c0,12.6,10.3,22.9,22.9,22.9c12.6,0,22.9-10.3,22.9-22.9h-0.9c0,12.1-9.9,22-22,22
			c-12.1,0-22-9.9-22-22s9.9-22,22-22v-0.9C23.9,292.2,13.6,302.5,13.6,315.1"/>
	</g>
	<g>
		<defs>
			<path id="SVGID_3_" d="M21.7,308.8c-3.5,8.2,0.3,17.6,8.5,21.1c8.2,3.5,17.6-0.3,21.1-8.5c3.5-8.2-0.3-17.6-8.5-21.1
				c-2.1-0.9-4.2-1.3-6.3-1.3C30.3,299,24.3,302.7,21.7,308.8"/>
		</defs>
		<clipPath id="SVGID_4_">
			<use xlink:href="#SVGID_3_"  style="overflow:visible;"/>
		</clipPath>
		<path class="st2" d="M51.3,321.4c-3.5,8.2-12.9,12-21.1,8.5c-8.2-3.5-12-12.9-8.5-21.1c3.5-8.2,12.9-12,21.1-8.5
			C51,303.8,54.8,313.2,51.3,321.4"/>
	</g>
	<g>
		<defs>
			<path id="SVGID_5_" d="M21.7,308.8c-3.5,8.2,0.3,17.6,8.5,21.1c8.2,3.5,17.6-0.3,21.1-8.5c3.5-8.2-0.3-17.6-8.5-21.1
				c-2.1-0.9-4.2-1.3-6.3-1.3C30.3,299,24.3,302.7,21.7,308.8"/>
		</defs>
		<clipPath id="SVGID_6_">
			<use xlink:href="#SVGID_5_"  style="overflow:visible;"/>
		</clipPath>
		
			<linearGradient id="SVGID_7_" gradientUnits="userSpaceOnUse" x1="-189.9473" y1="745.3508" x2="-189.0157" y2="745.3508" gradientTransform="matrix(32.0093 13.5861 22.1753 -52.2457 -10427.085 41831.7227)">
			<stop  offset="0" style="stop-color:#EAF0F2"/>
			<stop  offset="0.4253" style="stop-color:#6D99A5"/>
			<stop  offset="0.75" style="stop-color:#12596D"/>
			<stop  offset="0.8395" style="stop-color:#165C70"/>
			<stop  offset="0.932" style="stop-color:#236577"/>
			<stop  offset="1" style="stop-color:#316E80"/>
		</linearGradient>
		<polygon class="st3" points="23.8,285.8 67.2,304.2 49.2,346.6 5.8,328.2 		"/>
	</g>
	<g>
		<defs>
			<rect id="SVGID_8_" x="11.4" y="290" width="104.3" height="63.6"/>
		</defs>
		<clipPath id="SVGID_9_">
			<use xlink:href="#SVGID_8_"  style="overflow:visible;"/>
		</clipPath>
		<path class="st4" d="M30.3,329.8c-3.9-1.7-7-4.8-8.6-8.7c-1.6-4-1.6-8.3,0.1-12.2c1.7-3.9,4.8-7,8.7-8.6c4-1.6,8.3-1.6,12.2,0.1
			c3.9,1.7,7,4.8,8.6,8.7c1.6,4,1.6,8.3-0.1,12.2c-1.7,3.9-4.8,7-8.7,8.6C38.5,331.5,34.2,331.5,30.3,329.8 M30.4,300.1
			c-4,1.6-7.2,4.7-8.9,8.7c-1.7,4-1.7,8.4-0.1,12.4c1.6,4,4.7,7.2,8.7,8.9c4,1.7,8.4,1.7,12.4,0.1c4-1.6,7.2-4.7,8.9-8.7
			c1.7-4,1.7-8.4,0.1-12.4c-1.6-4-4.7-7.2-8.7-8.9C38.9,298.5,34.5,298.4,30.4,300.1"/>
		<path class="st4" d="M25.4,315.1c0-8.8,5-16,11.1-16c6.1,0,11.1,7.2,11.1,16c0,8.8-5,16-11.1,16C30.4,331.1,25.4,323.9,25.4,315.1
			 M25.2,315.1c0,8.9,5.1,16.2,11.3,16.2c6.3,0,11.3-7.3,11.3-16.2c0-8.9-5.1-16.2-11.3-16.2C30.3,298.9,25.2,306.2,25.2,315.1"/>
		<path class="st4" d="M31,315.1c0-8.8,2.5-16,5.5-16c3,0,5.5,7.2,5.5,16c0,8.8-2.5,16-5.5,16C33.5,331.1,31,323.9,31,315.1
			 M30.8,315.1c0,8.9,2.6,16.2,5.7,16.2c3.2,0,5.7-7.3,5.7-16.2c0-8.9-2.6-16.2-5.7-16.2C33.4,298.9,30.8,306.2,30.8,315.1"/>
		<rect x="36.4" y="290" class="st4" width="0.2" height="50.2"/>
		<rect x="11.4" y="315" class="st4" width="50.2" height="0.2"/>
		<polygon class="st4" points="17,346.2 14.6,346.2 14.6,353.4 13.8,353.4 13.8,346.2 11.4,346.2 11.4,345.5 17,345.5 		"/>
		<path class="st4" d="M18.7,347.6c0,0.6,0,0.8,0,1c0.4-0.7,1.1-1.1,1.9-1.1c0.9,0,1.6,0.5,1.8,1.3c0.1,0.3,0.2,1,0.2,1.9v2.7h-0.7
			v-2.7c0-0.9,0-1.4-0.2-1.7c-0.2-0.5-0.6-0.8-1.2-0.8c-0.6,0-1.3,0.4-1.6,1.1c-0.1,0.3-0.2,0.9-0.2,1.5v2.7H18v-8.6h0.7V347.6"/>
		<path class="st4" d="M28.1,350.1c0-0.5-0.1-0.8-0.3-1.1c-0.3-0.5-0.8-0.9-1.4-0.9c-0.6,0-1.2,0.4-1.5,1.1
			c-0.1,0.3-0.2,0.5-0.2,0.9H28.1 M24.7,350.7c0.1,1.4,0.8,2.2,2,2.2c0.6,0,1.1-0.2,1.6-0.4l0,0.7c-0.5,0.3-1,0.3-1.6,0.3
			c-1.8,0-2.8-1.1-2.8-3.1c0-1.8,1-3,2.5-3c1.1,0,1.9,0.6,2.2,1.7c0.1,0.5,0.1,0.8,0.1,1.5H24.7z"/>
		<path class="st4" d="M43.1,345.4v4.8c0,2.3-1,3.3-3.3,3.3c-1.2,0-2-0.3-2.6-1c-0.4-0.6-0.6-1.2-0.6-2.3v-4.8h1.6v4.7
			c0,0.9,0.1,1.3,0.4,1.7c0.3,0.3,0.7,0.5,1.3,0.5c0.6,0,1.1-0.3,1.4-0.8c0.2-0.4,0.2-0.6,0.2-1.4v-4.6H43.1"/>
		<path class="st4" d="M47.8,348.4c-0.5-0.2-0.9-0.3-1.4-0.3c-0.7,0-1.2,0.3-1.2,0.8c0,0.4,0.2,0.6,0.9,0.9l0.6,0.3
			c1,0.5,1.4,1,1.4,1.7c0,1-0.9,1.6-2.2,1.6c-0.5,0-1-0.1-1.5-0.3l0.1-0.7c0.5,0.3,0.9,0.4,1.4,0.4c0.8,0,1.4-0.4,1.4-1
			c0-0.4-0.3-0.8-0.9-1.1l-0.6-0.3c-1-0.5-1.4-0.9-1.4-1.6c0-0.9,0.8-1.5,2-1.5c0.4,0,0.8,0.1,1.4,0.3L47.8,348.4"/>
		<path class="st4" d="M50.2,353.4h-0.7v-5.8h0.7V353.4z M50.3,345.9h-0.9v-1h0.9V345.9z"/>
		<path class="st4" d="M51.3,348.2v-0.6h1.2v-1.4l0.7-0.3v1.7h1.4v0.6h-1.4v2.9c0,1,0,1.1,0.2,1.3c0.1,0.3,0.4,0.4,0.8,0.4
			c0.2,0,0.3,0,0.5-0.1l0,0.6c-0.3,0.1-0.4,0.1-0.7,0.1c-0.6,0-1.1-0.2-1.3-0.6c-0.2-0.3-0.2-0.4-0.2-1.7v-2.9H51.3"/>
		<path class="st4" d="M59.3,350.5c-0.2,0-0.4,0-0.5,0c-1.7,0-2.5,0.5-2.5,1.4c0,0.6,0.5,1.1,1.2,1.1c0.8,0,1.4-0.4,1.6-1.1
			c0.1-0.3,0.1-0.6,0.1-1.1V350.5 M56.2,347.9c0.6-0.3,1.2-0.4,1.8-0.4c0.9,0,1.5,0.4,1.8,1.1c0.1,0.3,0.2,0.8,0.2,1.5v1
			c0,0.4,0,2,0.1,2.4h-0.7c0-0.2,0-0.3,0-0.5c0-0.2,0-0.3,0-0.6c-0.4,0.8-1.1,1.1-2,1.1c-1.1,0-1.9-0.7-1.9-1.7
			c0-1.3,1.1-1.9,3.2-1.9c0.2,0,0.3,0,0.6,0c0-0.1,0-0.1,0-0.2c0-1.1-0.5-1.6-1.5-1.6c-0.6,0-1,0.1-1.6,0.5L56.2,347.9z"/>
		<path class="st4" d="M67.9,353.4h-0.9l-1.1-3.3c-0.4-1.1-0.4-1.4-0.6-2c-0.1,0.6-0.2,1-0.5,2l-1,3.3H63l-1.9-5.8h0.8l0.9,2.9
			c0.5,1.5,0.5,1.8,0.7,2.5c0.1-0.6,0.2-0.9,0.7-2.5l0.9-2.9h0.9l0.9,2.9c0.3,1,0.5,1.6,0.5,1.7c0.1,0.3,0.1,0.5,0.2,0.7
			c0-0.3,0.1-0.4,0.2-0.9c0.1-0.3,0.2-0.6,0.3-0.9l0.2-0.7l0.9-2.9h0.8L67.9,353.4"/>
		<path class="st4" d="M71.6,353.4h-0.7v-5.8h0.7V353.4z M71.6,345.9h-0.8v-1h0.8V345.9z"/>
		<path class="st4" d="M78,353.4l-2.6-4.8c-0.3-0.5-0.4-0.8-0.7-1.4c0.1,0.8,0.2,1.5,0.2,2.1v4.2h-1.5v-8h1.9l2.7,4.8
			c0.3,0.5,0.3,0.7,0.5,1.1l0.1,0.3l0-0.4c-0.1-0.7-0.1-0.7-0.1-1.5v-4.3H80v8H78"/>
		<path class="st4" d="M85.6,350.1c0-0.5-0.1-0.8-0.3-1.1c-0.3-0.5-0.8-0.9-1.4-0.9c-0.6,0-1.2,0.4-1.5,1.1
			c-0.1,0.3-0.2,0.5-0.2,0.9H85.6 M82.2,350.7c0.1,1.4,0.8,2.2,2,2.2c0.6,0,1.1-0.2,1.6-0.4l0,0.7c-0.5,0.3-1,0.3-1.6,0.3
			c-1.8,0-2.8-1.1-2.8-3.1c0-1.8,1-3,2.5-3c1.1,0,1.9,0.6,2.2,1.7c0.1,0.5,0.1,0.8,0.1,1.5H82.2z"/>
		<path class="st4" d="M87.1,348.2v-0.6h1.2v-1.4l0.7-0.3v1.7h1.4v0.6H89v2.9c0,1,0,1.1,0.2,1.3c0.1,0.3,0.4,0.4,0.8,0.4
			c0.2,0,0.3,0,0.5-0.1l0,0.6c-0.3,0.1-0.4,0.1-0.7,0.1c-0.6,0-1.1-0.2-1.3-0.6c-0.2-0.3-0.2-0.4-0.2-1.7v-2.9H87.1"/>
		<path class="st4" d="M97.8,353.4h-0.9l-1.1-3.3c-0.4-1.1-0.4-1.4-0.6-2c-0.1,0.6-0.2,1-0.5,2l-1,3.3h-0.9l-1.9-5.8h0.8l0.9,2.9
			c0.5,1.5,0.5,1.8,0.7,2.5c0.1-0.6,0.2-0.9,0.7-2.5l0.9-2.9h0.9l0.9,2.9c0.3,1,0.5,1.6,0.5,1.7c0.1,0.3,0.1,0.5,0.2,0.7
			c0-0.3,0.1-0.4,0.2-0.9c0.1-0.3,0.2-0.6,0.3-0.9l0.2-0.7l0.9-2.9h0.8L97.8,353.4"/>
		<path class="st4" d="M101.1,350.5c0,1.4,0.8,2.4,2,2.4c1.1,0,2-1,2-2.4c0-1.4-0.8-2.5-2-2.5C101.9,348.1,101.1,349.1,101.1,350.5
			 M105.8,350.5c0,1.8-1.1,3-2.7,3c-1.6,0-2.7-1.2-2.7-3c0-1.9,1.1-3.1,2.8-3.1C104.7,347.5,105.8,348.7,105.8,350.5"/>
		<path class="st4" d="M107.8,347.6c0,0.4,0,0.5,0,0.6c0,0.3,0,0.4,0,0.7c0.2-0.5,0.2-0.6,0.4-0.8c0.3-0.4,0.8-0.6,1.2-0.6
			c0.1,0,0.3,0,0.5,0.1v0.8c-0.2-0.1-0.3-0.1-0.4-0.1c-0.7,0-1.2,0.4-1.4,1.1c-0.1,0.3-0.1,0.6-0.1,1.4v2.6h-0.7v-3.5
			c0-0.4,0-1.7-0.1-2.3H107.8"/>
		<polygon class="st4" points="111.8,350 114.5,347.6 115.4,347.6 112.5,350.1 115.7,353.4 114.7,353.4 111.8,350.4 111.8,353.4 
			111.1,353.4 111.1,344.8 111.8,344.8 		"/>
	</g>
</g>
</svg>
