<svg version="1.1" xmlns="http://www.w3.org/2000/svg" xmlns:xlink="http://www.w3.org/1999/xlink" x="0" y="0" viewBox="0, 0, 100, 39.6" class="aligncenter">
                <rect x="0" y="0" width="100" height="39.6" fill="#000000" fill-opacity="0"></rect>
                <path d="M67.475,19.997 C67.475,16.695 65.718,14.907 63.324,14.907 C60.96,14.907 59.174,16.695 59.174,19.997 C59.174,23.33 60.96,25.117 63.324,25.117 C65.718,25.117 67.475,23.33 67.475,19.997 M52.445,19.997 C52.445,16.775 50.688,14.907 48.294,14.907 C45.931,14.907 44.144,16.824 44.144,19.997 C44.144,23.171 45.689,25.117 48.294,25.117 C50.931,25.117 52.445,23.22 52.445,19.997 M37.383,18.27 C36.868,16.059 35.383,14.907 33.414,14.907 C31.323,14.907 29.99,16.21 29.475,18.27 z M99.975,26.329 C99.975,27.208 99.4,28.056 98.248,28.056 L85.088,28.056 C84.239,28.056 83.36,27.481 83.36,26.329 L83.36,18.361 C83.36,16.161 81.845,14.907 79.906,14.907 C77.968,14.907 76.452,16.422 76.452,18.361 L76.452,26.238 C76.452,27.451 75.604,28.056 74.725,28.056 L73.35,28.056 C73.35,28.056 71.302,28.056 71.277,28.056 C70.099,28.032 69.126,27.462 68.414,26.602 C67.172,27.814 65.445,28.571 63.324,28.571 C59.126,28.571 56.571,25.636 55.899,21.983 L55.899,27.602 C55.899,32.419 52.745,34.964 48.019,34.964 C45.966,34.964 44.173,34.482 43.12,33.8 C42.154,33.174 41.572,32.611 41.572,31.739 C41.572,30.9 42.183,30.103 43.023,30.103 C43.775,30.103 44.068,30.292 44.761,30.723 C45.448,31.15 46.49,31.537 48.019,31.537 C50.958,31.537 52.445,30.329 52.445,27.602 L52.445,26.884 C51.738,27.624 50.113,28.571 48.125,28.571 C43.597,28.571 40.986,25.309 40.715,20.788 C40.461,21.324 39.934,21.725 39.163,21.725 L29.445,21.725 C29.96,23.936 31.444,25.137 33.414,25.137 C34.694,25.137 35.547,24.87 36.484,24.385 C36.974,24.131 37.519,23.89 38.096,23.89 C38.987,23.89 39.552,24.591 39.552,25.53 C39.552,26.314 39.018,27.079 37.856,27.661 C36.458,28.362 35.106,28.571 33.414,28.571 C28.475,28.571 25.809,24.542 25.809,19.997 C25.809,19.173 25.9,18.364 26.078,17.591 C24.619,20.687 22.239,24.706 19.361,27.967 C19.016,28.357 18.436,28.583 17.996,28.583 C17.544,28.583 16.976,28.357 16.631,27.967 C13.355,24.255 10.724,19.56 9.362,16.364 C8.909,15.285 8.596,14.406 8.444,13.61 C8.256,12.621 8.806,11.67 9.796,11.488 C10.786,11.306 11.659,11.687 12.05,12.95 C12.348,13.915 13.66,17.009 14.321,18.218 C15.325,20.055 16.594,22.073 17.995,23.895 C19.396,22.073 20.666,20.055 21.671,18.218 C22.331,17.009 23.643,13.915 23.941,12.95 C24.333,11.687 25.206,11.306 26.195,11.488 C27.185,11.67 27.736,12.621 27.548,13.61 C27.478,13.976 27.372,14.361 27.237,14.773 C28.5,12.789 30.582,11.453 33.414,11.453 C37.112,11.453 40.154,13.907 40.841,18.135 C41.471,14.314 44.079,11.453 48.294,11.453 C49.872,11.453 51.671,12.098 52.468,12.896 C52.593,12.075 53.261,11.448 54.172,11.448 C55.126,11.448 55.899,12.221 55.899,13.175 L55.899,18.023 C56.571,14.389 59.126,11.453 63.324,11.453 C64.92,11.453 66.667,12.091 67.494,12.919 C67.61,12.087 68.281,11.448 69.201,11.448 C70.155,11.448 70.929,12.221 70.929,13.175 L70.929,23.966 C70.929,24.299 71.08,24.421 71.384,24.421 L72.999,24.421 L72.999,13.175 C72.999,12.221 73.772,11.448 74.725,11.448 C75.532,11.448 76.208,11.967 76.397,12.733 C77.137,11.994 78.734,11.453 79.906,11.453 C83.663,11.453 86.814,14.329 86.814,18.361 L86.814,24.983 L94.485,15.422 L88.785,15.422 C87.633,15.422 87.058,14.544 87.058,13.695 C87.058,12.817 87.633,11.969 88.785,11.969 L97.909,11.969 C99.181,11.969 99.818,12.847 99.818,13.665 C99.818,14.059 99.605,14.513 99.181,15.029 L91.469,24.602 L98.248,24.602 C99.4,24.602 99.975,25.481 99.975,26.329 M25.432,28.266 C26.359,28.266 27.11,29.018 27.11,29.945 C27.11,30.355 26.952,30.72 26.707,31.013 C24.464,33.69 22.113,36.166 19.173,38.85 C18.844,39.151 18.413,39.361 17.996,39.361 C17.579,39.361 17.148,39.151 16.819,38.85 C6.109,29.073 0.025,18.728 0.025,10.998 C0.025,4.379 3.812,0.238 9.581,0.238 C13.139,0.238 16.066,2.145 17.996,5.503 C19.926,2.145 22.853,0.238 26.412,0.238 C30.705,0.238 34.319,2.464 35.023,7.102 C35.042,7.23 35.065,7.36 35.065,7.495 C35.065,8.446 34.431,9.218 33.479,9.218 C32.431,9.218 31.893,8.642 31.711,7.797 C31.202,5.424 29.612,3.69 26.472,3.69 C23.209,3.69 20.702,6.105 19.595,10.492 C19.404,11.249 18.771,11.795 17.996,11.795 C17.221,11.795 16.588,11.249 16.397,10.492 C15.29,6.105 12.783,3.69 9.521,3.69 C5.736,3.69 3.477,6.336 3.477,10.998 C3.477,17.12 9.424,27.682 17.996,35.382 C20.336,33.279 22.189,31.174 24.152,28.86 C24.46,28.498 24.919,28.266 25.432,28.266" fill="#000000"></path>
            </svg>
