<?xml version="1.0" encoding="utf-8"?>
<!-- Generator: Adobe Illustrator 19.0.0, SVG Export Plug-In . SVG Version: 6.00 Build 0)  -->
<!DOCTYPE svg PUBLIC "-//W3C//DTD SVG 1.1//EN" "http://www.w3.org/Graphics/SVG/1.1/DTD/svg11.dtd">
<svg version="1.1" id="Ebene_1" xmlns="http://www.w3.org/2000/svg" xmlns:xlink="http://www.w3.org/1999/xlink" x="0px" y="0px"
	 width="175.6px" height="100px" viewBox="-22 271 175.6 100" style="enable-background:new -22 271 175.6 100;"
	 xml:space="preserve">
<style type="text/css">
	.st0{fill:#12596D;}
	.st1{opacity:0.4;fill:#12596D;}
</style>
<path class="st0" d="M138,306c0,2.3-1.9,4.2-4.2,4.2c-2.3,0-4.2-1.9-4.2-4.2c0-2.3,1.9-4.2,4.2-4.2C136.1,301.8,138,303.7,138,306"
	/>
<path class="st1" d="M106.1,313.4c0,2.3-1.9,4.2-4.2,4.2c-2.3,0-4.2-1.9-4.2-4.2c0-2.3,1.9-4.2,4.2-4.2
	C104.3,309.2,106.1,311.1,106.1,313.4"/>
<path class="st1" d="M118.7,313.4c0,2.3-1.9,4.2-4.2,4.2c-2.3,0-4.2-1.9-4.2-4.2c0-2.3,1.9-4.2,4.2-4.2
	C116.8,309.2,118.7,311.1,118.7,313.4"/>
<path class="st1" d="M106.1,325.2c0,2.3-1.9,4.2-4.2,4.2c-2.3,0-4.2-1.9-4.2-4.2c0-2.3,1.9-4.2,4.2-4.2
	C104.3,321,106.1,322.9,106.1,325.2"/>
<path class="st1" d="M118.7,325.2c0,2.3-1.9,4.2-4.2,4.2c-2.3,0-4.2-1.9-4.2-4.2c0-2.3,1.9-4.2,4.2-4.2
	C116.8,321,118.7,322.9,118.7,325.2"/>
<path class="st1" d="M131.3,325.2c0,2.3-1.9,4.2-4.2,4.2c-2.3,0-4.2-1.9-4.2-4.2c0-2.3,1.9-4.2,4.2-4.2
	C129.4,321,131.3,322.9,131.3,325.2"/>
<path class="st1" d="M106.1,337c0,2.3-1.9,4.2-4.2,4.2c-2.3,0-4.2-1.9-4.2-4.2c0-2.3,1.9-4.2,4.2-4.2
	C104.3,332.8,106.1,334.7,106.1,337"/>
<path class="st1" d="M118.7,337c0,2.3-1.9,4.2-4.2,4.2c-2.3,0-4.2-1.9-4.2-4.2c0-2.3,1.9-4.2,4.2-4.2
	C116.8,332.8,118.7,334.7,118.7,337"/>
<path class="st1" d="M131.3,337c0,2.3-1.9,4.2-4.2,4.2c-2.3,0-4.2-1.9-4.2-4.2c0-2.3,1.9-4.2,4.2-4.2
	C129.4,332.8,131.3,334.7,131.3,337"/>
<polygon class="st1" points="0.6,324.2 -2,324.2 -6.7,310.1 -3.1,310.1 -0.8,318.2 -0.7,318.6 -0.6,318.2 1.6,310.1 5.2,310.1 "/>
<polygon class="st1" points="8.7,324.2 8.7,310.1 18.3,310.1 18.3,313.2 12.1,313.2 12.1,315.6 17.4,315.6 17.4,318.5 12.1,318.5 
	12.1,321.1 18.3,321.1 18.3,324.2 "/>
<polygon class="st1" points="81.8,324.2 81.8,310.1 91.4,310.1 91.4,313.2 85.2,313.2 85.2,315.6 90.5,315.6 90.5,318.5 85.2,318.5 
	85.2,321.1 91.4,321.1 91.4,324.2 "/>
<polygon class="st1" points="31.2,324.2 26.6,316.9 26.6,324.2 23.1,324.2 23.1,310.1 25.8,310.1 30.7,317.5 30.7,310.1 34.2,310.1 
	34.2,324.2 "/>
<polygon class="st1" points="44.7,313.2 44.7,324.2 41.2,324.2 41.2,313.2 37.8,313.2 37.8,310.1 48.2,310.1 48.2,313.2 "/>
<path class="st1" d="M56.9,324.3c-2.9,0-5.3-2-5.3-5.1v-9.2H55v9.1c0,1.3,0.7,2.1,1.9,2.1c1.1,0,1.9-0.8,1.9-2.1v-9.1h3.5v9.2
	C62.3,322.3,59.8,324.3,56.9,324.3"/>
<polygon class="st0" points="49,340.6 45.7,334.8 44.5,336.2 44.5,340.6 41.1,340.6 41.1,326.5 44.5,326.5 44.5,331.5 48.6,326.5 
	52.9,326.5 48,332.2 53,340.6 "/>
<rect x="57.1" y="326.5" class="st0" width="3.5" height="14.1"/>
<path class="st0" d="M70.7,340.8c-1.6,0-2.9-0.6-3.9-1.6c-1.5-1.5-1.4-3.5-1.4-5.6c0-2.1-0.1-4.1,1.4-5.6c1-1,2.3-1.6,3.9-1.6
	c2.7,0,4.8,1.5,5.4,4.6h-3.5c-0.2-0.8-0.7-1.5-1.8-1.5c-0.6,0-1.1,0.3-1.4,0.6c-0.3,0.4-0.5,0.9-0.5,3.5c0,2.6,0.2,3.1,0.5,3.5
	c0.3,0.3,0.7,0.6,1.4,0.6c1.2,0,1.6-0.7,1.8-1.5H76C75.5,339.3,73.3,340.8,70.7,340.8"/>
<polygon class="st0" points="88.4,340.6 85.1,334.8 83.9,336.2 83.9,340.6 80.5,340.6 80.5,326.5 83.9,326.5 83.9,331.5 88,326.5 
	92.3,326.5 87.5,332.2 92.4,340.6 "/>
<path class="st1" d="M72.8,316.1h-2V313h2c1,0,1.5,0.7,1.5,1.5C74.3,315.3,73.7,316.1,72.8,316.1 M75.4,318.3
	c1.1-0.6,2.3-1.8,2.3-3.7c0-2.3-1.7-4.5-4.8-4.5h-5.6v14.1h3.5v-5.6h1.2l2.5,5.6h4L75.4,318.3z"/>
</svg>
