<?xml version="1.0" encoding="UTF-8" standalone="no"?>
<!DOCTYPE svg PUBLIC "-//W3C//DTD SVG 1.1//EN" "http://www.w3.org/Graphics/SVG/1.1/DTD/svg11.dtd">
<svg width="322" height="100" viewBox="0 0 322 100" xmlns="http://www.w3.org/2000/svg">
    <g transform="matrix(0.803398,0,0,0.803398,27.7172,8.625)">
        <g transform="matrix(0.562384,0,0,0.562384,-15.6344,1.38824)">
            <path d="M150.085,98.514L149.793,100.821L145.365,100.868L141.823,121.816L139.167,121.816L142.706,100.887L137.995,100.868L138.288,98.514L150.085,98.514Z" style="fill:rgb(73,109,128);fill-rule:nonzero;"/>
        </g>
        <g transform="matrix(0.562384,0,0,0.562384,-15.6344,1.38824)">
            <path d="M107.301,98.514L103.71,121.816L101.114,121.816L104.946,98.514L107.301,98.514Z" style="fill:rgb(73,109,128);fill-rule:nonzero;"/>
        </g>
        <g transform="matrix(0.562384,0,0,0.562384,-15.6344,1.38824)">
            <path d="M39.444,98.514L42.982,117.623L46.227,98.514L48.593,98.514L44.458,121.816L41.506,121.816L37.675,102.052L34.723,121.816L32.132,121.816L36.198,98.514L39.444,98.514Z" style="fill:rgb(73,109,128);fill-rule:nonzero;"/>
        </g>
        <g transform="matrix(0.562384,0,0,0.562384,-15.6344,1.38824)">
            <path d="M127.663,104.71C126.972,104.71 126.291,104.71 125.601,104.71C128.082,98.514 119.937,99.865 119.989,104.407C120.042,108.312 125.736,108.489 126.479,113.263C127.38,119.011 122.587,124.311 116.612,121.585C114.44,120.352 114.755,116.938 115.864,115.032C116.356,115.032 117.318,115.052 117.81,115.052C117.287,116.917 116.829,118.912 118.661,119.632C121.636,120.352 124.323,118.058 124.124,115.032C123.894,111.589 118.23,110.604 117.633,106.48C116.796,100.723 120.811,96.614 126.873,98.728C128.933,99.579 128.866,102.952 127.663,104.71Z" style="fill:rgb(73,109,128);fill-rule:nonzero;"/>
        </g>
        <g transform="matrix(0.562384,0,0,0.562384,-15.6344,1.38824)">
            <path d="M69.541,104.71C68.85,104.71 68.159,104.71 67.479,104.71C67.835,102.491 67.382,100.707 65.699,100.283C59.873,98.815 58.478,115.914 59.512,118.571C60.135,120.058 63.783,119.68 65.112,118.875C65.584,116.687 66.295,111.727 66.295,111.727L63.051,111.787L63.343,109.128L68.944,109.128L67.175,120.644C67.175,120.644 67.027,122.164 59.209,122.119C53.548,122.119 57.827,102.711 60.684,99.696C64.17,96.012 72.218,98.074 69.541,104.71Z" style="fill:rgb(73,109,128);fill-rule:nonzero;"/>
        </g>
        <g transform="matrix(0.562384,0,0,0.562384,-15.6344,1.38824)">
            <path d="M91.524,104.71C90.834,104.71 90.143,104.71 89.462,104.71C89.818,102.491 89.367,100.707 87.683,100.283C81.857,98.815 80.461,115.914 81.496,118.571C82.119,120.058 85.767,119.68 87.096,118.875C87.568,116.687 88.279,111.727 88.279,111.727L85.034,111.787L85.327,109.128L90.928,109.128L89.159,120.644C89.159,120.644 89.011,122.164 81.192,122.119C75.532,122.119 79.811,102.711 82.668,99.696C86.154,96.012 94.201,98.074 91.524,104.71Z" style="fill:rgb(73,109,128);fill-rule:nonzero;"/>
        </g>
        <g transform="matrix(0.562384,0,0,0.562384,-15.6344,1.38824)">
            <path d="M12.592,92.609C16.528,92.609 24.401,92.609 24.401,92.609L23.803,95.854L15.251,95.854L13.986,104.71L21.741,104.704L21.155,108.249L13.482,108.249L11.892,118.575L20.266,118.571L19.679,121.816C19.679,121.816 11.807,121.816 7.871,121.816C9.577,112.238 11.262,102.396 12.592,92.609Z" style="fill:rgb(73,109,128);fill-rule:nonzero;"/>
        </g>
        <g>
            <g transform="matrix(2.63241,0,0,2.63241,-59.8835,-37.7499)">
                <path d="M24.116,19.063L31.548,22.658C32.634,23.183 33.944,22.947 34.779,22.077L40.494,16.12C41.02,15.571 41.749,15.26 42.509,15.26C44.041,15.26 45.302,16.521 45.302,18.053C45.302,18.18 45.293,18.307 45.276,18.432L44.154,26.611C43.99,27.806 44.619,28.979 45.705,29.504L53.136,33.098C54.099,33.564 54.713,34.543 54.713,35.613C54.713,36.959 53.74,38.123 52.415,38.361L44.29,39.822C43.102,40.035 42.181,40.995 42.017,42.191L40.895,50.369C40.707,51.746 39.518,52.782 38.129,52.782C37.101,52.782 36.153,52.215 35.667,51.309L31.768,44.033C31.198,42.969 30,42.39 28.812,42.604L20.687,44.064C20.524,44.093 20.359,44.108 20.193,44.108C18.661,44.108 17.401,42.847 17.401,41.315C17.401,40.595 17.679,39.902 18.178,39.382L23.893,33.425C24.728,32.554 24.909,31.236 24.339,30.173L20.439,22.897C20.222,22.491 20.108,22.038 20.108,21.577C20.108,20.045 21.368,18.785 22.9,18.785C23.322,18.785 23.737,18.88 24.116,19.063Z" style="fill:rgb(17,88,108);fill-rule:nonzero;"/>
            </g>
            <g transform="matrix(2.63241,0,0,2.63241,-59.8835,-37.7499)">
                <path d="M30.005,16.883L35.097,23.38C35.841,24.33 37.121,24.695 38.254,24.28L46.007,21.445C46.314,21.333 46.639,21.275 46.966,21.275C48.498,21.275 49.759,22.536 49.759,24.068C49.759,24.623 49.593,25.165 49.284,25.626L44.678,32.477C44.005,33.478 44.053,34.808 44.797,35.757L49.89,42.255C50.275,42.746 50.484,43.353 50.484,43.977C50.484,45.509 49.223,46.77 47.691,46.77C47.433,46.77 47.175,46.734 46.926,46.663L38.987,44.4C37.827,44.069 36.577,44.526 35.904,45.527L31.298,52.378C30.78,53.149 29.91,53.613 28.981,53.613C27.487,53.613 26.244,52.414 26.19,50.922L25.889,42.672C25.845,41.466 25.024,40.419 23.864,40.088L15.925,37.825C14.729,37.484 13.898,36.383 13.898,35.139C13.898,33.969 14.633,32.918 15.732,32.516L23.485,29.681C24.618,29.267 25.36,28.163 25.316,26.957L25.016,18.707C25.015,18.673 25.014,18.639 25.014,18.606C25.014,17.073 26.275,15.813 27.807,15.813C28.664,15.813 29.476,16.208 30.005,16.883Z" style="fill:rgb(17,88,108);fill-rule:nonzero;"/>
            </g>
            <g transform="matrix(2.63241,0,0,2.63241,-59.8835,-37.7499)">
                <path d="M20.799,22.262L28.878,23.955C30.059,24.202 31.273,23.657 31.873,22.611L35.98,15.449C36.477,14.583 37.403,14.046 38.403,14.046C39.822,14.046 41.027,15.128 41.179,16.539L42.066,24.746C42.196,25.946 43.089,26.932 44.27,27.179L52.349,28.872C53.638,29.142 54.569,30.289 54.569,31.605C54.569,32.703 53.922,33.704 52.92,34.153L45.388,37.533C44.288,38.027 43.626,39.181 43.755,40.381L44.642,48.588C44.653,48.688 44.658,48.788 44.658,48.888C44.658,50.42 43.398,51.681 41.866,51.681C41.077,51.681 40.325,51.347 39.796,50.763L34.254,44.644C33.444,43.75 32.142,43.477 31.041,43.971L23.509,47.351C23.15,47.512 22.76,47.595 22.366,47.595C20.834,47.595 19.574,46.335 19.574,44.803C19.574,44.315 19.701,43.836 19.944,43.413L24.05,36.252C24.651,35.206 24.508,33.883 23.698,32.988L18.156,26.87C17.691,26.356 17.433,25.688 17.433,24.995C17.433,23.463 18.694,22.203 20.226,22.203C20.418,22.203 20.61,22.222 20.799,22.262Z" style="fill:rgb(17,88,108);fill-rule:nonzero;"/>
            </g>
            <g transform="matrix(2.63241,0,0,2.63241,-59.8835,-37.7499)">
                <path d="M35.996,16.263L38.547,24.114C38.92,25.261 39.996,26.043 41.203,26.043L49.458,26.043C50.99,26.043 52.25,27.304 52.25,28.836C52.25,29.729 51.822,30.57 51.099,31.095L44.421,35.948C43.444,36.657 43.033,37.922 43.406,39.07L45.957,46.921C46.048,47.2 46.094,47.491 46.094,47.784C46.094,49.316 44.833,50.577 43.301,50.577C42.712,50.577 42.137,50.39 41.66,50.043L34.981,45.191C34.005,44.482 32.674,44.482 31.698,45.191L25.02,50.043C24.543,50.39 23.968,50.577 23.378,50.577C21.846,50.577 20.586,49.316 20.586,47.784C20.586,47.491 20.632,47.2 20.722,46.921L23.273,39.07C23.646,37.922 23.235,36.657 22.259,35.948L15.58,31.095C14.858,30.57 14.429,29.729 14.429,28.836C14.429,27.304 15.69,26.043 17.222,26.043L25.477,26.043C26.683,26.043 27.76,25.261 28.133,24.114L30.684,16.263C31.057,15.115 32.133,14.333 33.34,14.333C34.546,14.333 35.623,15.115 35.996,16.263Z" style="fill:rgb(17,88,108);fill-rule:nonzero;"/>
            </g>
            <g transform="matrix(2.63241,0,0,2.63241,-59.8835,-37.7499)">
                <path d="M26.647,17.892L33.065,23.084C34.003,23.843 35.332,23.912 36.344,23.254L43.265,18.755C43.718,18.461 44.247,18.304 44.787,18.304C46.319,18.304 47.58,19.565 47.58,21.097C47.58,21.439 47.517,21.777 47.395,22.097L44.44,29.805C44.008,30.931 44.352,32.216 45.291,32.975L51.708,38.168C52.363,38.697 52.744,39.496 52.744,40.339C52.744,41.871 51.484,43.131 49.952,43.131C49.903,43.131 49.855,43.13 49.807,43.128L41.563,42.699C40.358,42.636 39.242,43.362 38.81,44.488L35.855,52.196C35.442,53.274 34.402,53.989 33.248,53.989C31.988,53.989 30.877,53.137 30.55,51.92L28.41,43.948C28.098,42.782 27.063,41.945 25.858,41.883L17.614,41.454C16.139,41.377 14.967,40.143 14.967,38.665C14.967,37.721 15.445,36.838 16.237,36.324L23.159,31.825C24.17,31.167 24.647,29.925 24.334,28.759L22.194,20.787C22.13,20.55 22.098,20.307 22.098,20.063C22.098,18.531 23.359,17.27 24.891,17.27C25.53,17.27 26.15,17.49 26.647,17.892Z" style="fill:rgb(17,88,108);fill-rule:nonzero;"/>
            </g>
            <g transform="matrix(2.63241,0,0,2.63241,-23.2978,-0.781589)">
                <circle cx="20.372" cy="20.257" r="16.945" style="fill:white;"/>
            </g>
            <g transform="matrix(2.63241,0,0,2.63241,-59.8835,-37.7499)">
                <path d="M40.213,29.562C40.096,28.944 39.544,28.497 38.915,28.51C38.237,28.434 37.6,28.873 37.428,29.533C36.849,31.035 36.271,32.604 35.758,34L34.223,38.155L33.511,36.169C33.251,35.448 33.002,34.749 32.759,34.065L32.701,33.903C32.153,32.366 31.66,30.985 31.143,29.611C31.005,29.158 30.691,28.779 30.271,28.56C30.117,28.492 29.95,28.457 29.782,28.458C29.583,28.46 29.386,28.5 29.202,28.576C28.847,28.694 28.554,28.949 28.39,29.285C28.236,29.733 28.267,30.223 28.473,30.649C29.881,34.174 31.309,37.694 32.771,41.29C32.964,41.92 33.549,42.353 34.208,42.353C34.845,42.353 35.415,41.949 35.626,41.348C36.988,38.124 38.59,34.318 40.129,30.544C40.252,30.232 40.281,29.891 40.213,29.562Z" style="fill:rgb(17,88,108);fill-opacity:0.87;fill-rule:nonzero;"/>
            </g>
            <g transform="matrix(2.63241,0,0,2.63241,-59.8835,-37.7499)">
                <path d="M63.417,25.959C63.714,26.908 64.011,27.847 64.308,28.776C64.604,29.705 64.868,30.647 65.1,31.602C65.149,31.392 65.2,31.177 65.251,30.957C65.302,30.736 65.36,30.524 65.425,30.322L66.781,25.959C66.819,25.835 66.902,25.728 67.015,25.662C67.255,25.495 67.58,25.512 67.801,25.705C67.916,25.808 67.979,25.957 67.975,26.112C67.975,26.133 67.973,26.166 67.969,26.21C67.967,26.242 67.962,26.275 67.953,26.307L65.837,32.741C65.784,32.915 65.695,33.076 65.576,33.213C65.451,33.339 65.277,33.405 65.1,33.392C64.922,33.405 64.748,33.337 64.627,33.208C64.515,33.07 64.431,32.911 64.383,32.741L62.268,26.307C62.251,26.277 62.241,26.244 62.24,26.21C62.236,26.166 62.234,26.133 62.234,26.112C62.23,25.955 62.298,25.805 62.419,25.705C62.54,25.601 62.694,25.545 62.854,25.547C62.971,25.553 63.084,25.593 63.179,25.662C63.289,25.732 63.373,25.836 63.417,25.959Z" style="fill:rgb(17,88,108);fill-opacity:0.95;fill-rule:nonzero;"/>
            </g>
            <g transform="matrix(2.63241,0,0,2.63241,-59.8835,-37.7499)">
                <path d="M70.459,31.157C70.307,31.157 70.151,31.152 69.992,31.141C69.833,31.129 69.667,31.11 69.493,31.081L69.493,31.581C69.484,31.803 69.575,32.019 69.742,32.167C69.965,32.328 70.238,32.405 70.513,32.383C70.697,32.386 70.88,32.36 71.056,32.307C71.229,32.251 71.399,32.186 71.565,32.112C71.589,32.093 71.617,32.08 71.647,32.074C71.698,32.062 71.751,32.056 71.804,32.057C71.958,32.043 72.109,32.104 72.211,32.22C72.288,32.312 72.332,32.426 72.336,32.545C72.338,32.708 72.259,32.861 72.124,32.953C71.969,33.064 71.797,33.151 71.614,33.208C71.41,33.274 71.199,33.319 70.985,33.343C70.796,33.367 70.606,33.379 70.415,33.381C70.113,33.386 69.811,33.339 69.525,33.24C69.282,33.156 69.059,33.023 68.869,32.849C68.693,32.684 68.554,32.482 68.462,32.258C68.367,32.026 68.319,31.777 68.321,31.526L68.321,29.605C68.319,29.35 68.367,29.098 68.462,28.862C68.554,28.637 68.695,28.435 68.875,28.271C69.071,28.096 69.299,27.961 69.547,27.875C69.844,27.772 70.156,27.723 70.47,27.728C71.008,27.686 71.541,27.864 71.945,28.222C72.279,28.573 72.456,29.046 72.434,29.53C72.459,29.978 72.289,30.416 71.967,30.728C71.535,31.052 70.997,31.205 70.459,31.157ZM71.272,29.497C71.295,29.27 71.218,29.044 71.061,28.878C70.886,28.744 70.668,28.679 70.448,28.694C70.193,28.678 69.94,28.759 69.742,28.922C69.573,29.082 69.482,29.308 69.493,29.541L69.493,30.18C69.681,30.203 69.867,30.218 70.052,30.229C70.236,30.24 70.368,30.246 70.448,30.246C70.682,30.272 70.916,30.199 71.094,30.044C71.22,29.891 71.284,29.695 71.272,29.497L71.272,29.497Z" style="fill:rgb(17,88,108);fill-opacity:0.95;fill-rule:nonzero;"/>
            </g>
            <g transform="matrix(2.63241,0,0,2.63241,-59.8835,-37.7499)">
                <path d="M75.526,27.728C75.781,27.727 76.034,27.758 76.28,27.821C76.521,27.884 76.752,27.977 76.97,28.097C77.08,27.908 77.234,27.747 77.42,27.63C77.557,27.54 77.716,27.488 77.881,27.479C78.021,27.48 78.156,27.532 78.261,27.625C78.372,27.713 78.436,27.847 78.435,27.989C78.436,28.053 78.421,28.117 78.391,28.173C78.367,28.217 78.338,28.257 78.304,28.292L78.142,28.456C78.069,28.528 78.009,28.591 77.962,28.645C77.919,28.694 77.881,28.746 77.849,28.802C77.819,28.855 77.799,28.912 77.789,28.971C77.777,29.041 77.771,29.111 77.772,29.182L77.772,29.823C77.775,30.089 77.731,30.353 77.643,30.604C77.558,30.838 77.421,31.05 77.24,31.222C77.047,31.404 76.818,31.544 76.568,31.634C76.265,31.742 75.945,31.793 75.624,31.787C75.499,31.786 75.374,31.779 75.25,31.764C75.13,31.752 75.012,31.727 74.897,31.689C74.866,31.755 74.841,31.824 74.821,31.895C74.807,31.952 74.8,32.01 74.8,32.069C74.782,32.199 74.841,32.328 74.951,32.399C75.04,32.45 75.141,32.478 75.244,32.481L75.7,32.481C76.01,32.478 76.32,32.511 76.622,32.579C76.883,32.635 77.133,32.735 77.36,32.876C77.563,33.003 77.732,33.176 77.854,33.381C77.978,33.603 78.04,33.854 78.033,34.108C78.038,34.37 77.976,34.63 77.854,34.862C77.731,35.086 77.561,35.281 77.355,35.432C77.127,35.598 76.872,35.721 76.601,35.795C76.29,35.881 75.968,35.924 75.646,35.92C75.338,35.924 75.031,35.883 74.734,35.801C74.48,35.731 74.239,35.617 74.024,35.464C73.829,35.325 73.671,35.141 73.563,34.927C73.451,34.703 73.396,34.456 73.399,34.206C73.397,33.978 73.449,33.753 73.552,33.549C73.672,33.327 73.834,33.13 74.029,32.969C73.932,32.833 73.86,32.681 73.817,32.519C73.78,32.383 73.76,32.242 73.758,32.101C73.76,31.964 73.786,31.828 73.834,31.7C73.897,31.537 73.993,31.389 74.116,31.265C73.688,30.879 73.453,30.322 73.476,29.747C73.473,29.474 73.517,29.202 73.606,28.944C73.689,28.705 73.822,28.486 73.996,28.303C74.177,28.118 74.395,27.974 74.637,27.88C74.921,27.773 75.223,27.722 75.526,27.728ZM75.494,33.479C75.378,33.479 75.268,33.475 75.163,33.468C75.058,33.46 74.955,33.454 74.853,33.447C74.674,33.615 74.572,33.851 74.571,34.097C74.56,34.331 74.661,34.557 74.843,34.705C75.085,34.867 75.376,34.944 75.667,34.922C75.966,34.934 76.262,34.865 76.524,34.721C76.739,34.604 76.87,34.375 76.861,34.13C76.861,33.696 76.481,33.479 75.722,33.479L75.494,33.479ZM76.601,29.497L76.601,29.231C76.601,29.141 76.604,29.052 76.611,28.965C76.463,28.89 76.309,28.827 76.15,28.776C75.998,28.728 75.839,28.704 75.679,28.705C75.393,28.682 75.111,28.781 74.902,28.976C74.718,29.197 74.627,29.481 74.647,29.768C74.633,30.041 74.716,30.31 74.881,30.528C75.303,30.892 75.931,30.904 76.367,30.555C76.533,30.357 76.616,30.102 76.601,29.844L76.601,29.497Z" style="fill:rgb(17,88,108);fill-opacity:0.95;fill-rule:nonzero;"/>
            </g>
            <g transform="matrix(2.63241,0,0,2.63241,-59.8835,-37.7499)">
                <path d="M81.841,29.681C81.845,29.647 81.847,29.613 81.847,29.579C81.847,29.105 81.458,28.716 80.984,28.716C80.937,28.716 80.89,28.719 80.843,28.727C80.722,28.724 80.602,28.738 80.485,28.77C80.391,28.799 80.297,28.832 80.203,28.868L79.997,28.955C79.908,28.994 79.811,29.012 79.714,29.008C79.582,29.021 79.452,28.963 79.373,28.857C79.306,28.762 79.27,28.648 79.27,28.532C79.267,28.395 79.317,28.263 79.411,28.163C79.518,28.053 79.647,27.967 79.791,27.913C79.965,27.844 80.147,27.796 80.334,27.772C80.538,27.743 80.745,27.728 80.952,27.728C81.537,27.671 82.119,27.878 82.536,28.292C82.885,28.768 83.055,29.353 83.013,29.942L83.013,32.144C82.999,32.24 83.027,32.337 83.089,32.411C83.147,32.453 83.214,32.481 83.285,32.492C83.48,32.511 83.626,32.686 83.61,32.882C83.61,33.186 83.396,33.338 82.969,33.337C82.613,33.348 82.278,33.16 82.102,32.849C81.691,33.199 81.166,33.384 80.627,33.371C80.136,33.407 79.652,33.242 79.286,32.915C78.977,32.588 78.814,32.149 78.836,31.7L78.836,31.667C78.836,30.575 79.512,30.029 80.865,30.029C81.195,30.028 81.523,30.072 81.841,30.159L81.841,29.681L81.841,29.681ZM80.897,30.918C80.741,30.914 80.586,30.934 80.436,30.978C80.332,31.009 80.237,31.065 80.16,31.141C80.095,31.209 80.05,31.293 80.03,31.385C80.007,31.481 79.996,31.58 79.997,31.678L79.997,31.71C79.985,31.896 80.05,32.079 80.176,32.215C80.357,32.354 80.584,32.418 80.811,32.394C81.19,32.4 81.557,32.264 81.841,32.014L81.841,31.038C81.682,31.001 81.519,30.972 81.353,30.951C81.202,30.93 81.049,30.919 80.897,30.918Z" style="fill:rgb(17,88,108);fill-opacity:0.95;fill-rule:nonzero;"/>
            </g>
            <g transform="matrix(2.63241,0,0,2.63241,-59.8835,-37.7499)">
                <path d="M85.888,32.828C85.892,32.97 85.839,33.109 85.742,33.213C85.487,33.422 85.117,33.422 84.863,33.213C84.765,33.109 84.713,32.97 84.716,32.828L84.716,29.345C84.716,29.229 84.712,29.137 84.706,29.068C84.7,29.013 84.69,28.959 84.673,28.906C84.662,28.872 84.645,28.841 84.624,28.813C84.605,28.79 84.589,28.765 84.576,28.738C84.54,28.685 84.507,28.631 84.478,28.575C84.454,28.524 84.443,28.468 84.445,28.412C84.441,28.275 84.499,28.144 84.602,28.054C84.715,27.957 84.861,27.907 85.009,27.913C85.223,27.919 85.417,28.039 85.519,28.227C85.75,28.068 86.004,27.946 86.273,27.864C86.514,27.79 86.764,27.752 87.016,27.75C87.551,27.711 88.075,27.924 88.432,28.325C88.762,28.756 88.93,29.291 88.905,29.834L88.905,32.828C88.908,32.971 88.853,33.111 88.752,33.213C88.502,33.422 88.135,33.422 87.884,33.213C87.784,33.11 87.729,32.971 87.733,32.828L87.733,29.833C87.751,29.549 87.673,29.266 87.51,29.031C87.357,28.84 87.12,28.735 86.875,28.749C86.511,28.765 86.159,28.881 85.856,29.084C85.875,29.17 85.886,29.257 85.888,29.345L85.888,32.828L85.888,32.828Z" style="fill:rgb(17,88,108);fill-opacity:0.95;fill-rule:nonzero;"/>
            </g>
            <g transform="matrix(2.63241,0,0,2.63241,-59.8835,-37.7499)">
                <path d="M92.344,31.157C92.192,31.157 92.037,31.152 91.877,31.141C91.718,31.129 91.552,31.11 91.378,31.081L91.378,31.581C91.369,31.803 91.46,32.019 91.627,32.167C91.85,32.328 92.124,32.405 92.398,32.383C92.582,32.386 92.765,32.36 92.941,32.307C93.114,32.251 93.284,32.186 93.451,32.112C93.474,32.093 93.502,32.08 93.532,32.074C93.583,32.062 93.636,32.056 93.689,32.057C93.843,32.043 93.995,32.104 94.096,32.22C94.173,32.312 94.217,32.426 94.221,32.545C94.224,32.708 94.144,32.861 94.009,32.953C93.854,33.064 93.682,33.151 93.5,33.208C93.295,33.274 93.084,33.319 92.871,33.343C92.681,33.367 92.491,33.379 92.3,33.381C91.998,33.386 91.697,33.339 91.411,33.24C91.167,33.156 90.944,33.023 90.754,32.849C90.578,32.684 90.439,32.482 90.347,32.258C90.252,32.026 90.205,31.777 90.207,31.526L90.207,29.605C90.204,29.35 90.252,29.098 90.347,28.862C90.44,28.637 90.581,28.435 90.76,28.271C90.956,28.096 91.184,27.961 91.432,27.875C91.729,27.772 92.041,27.723 92.355,27.728C92.893,27.686 93.426,27.864 93.831,28.222C94.165,28.573 94.341,29.046 94.319,29.53C94.345,29.978 94.174,30.416 93.852,30.728C93.42,31.052 92.882,31.205 92.344,31.157ZM93.158,29.497C93.181,29.27 93.103,29.044 92.946,28.878C92.771,28.744 92.553,28.679 92.333,28.694C92.078,28.678 91.825,28.759 91.627,28.922C91.458,29.082 91.367,29.308 91.378,29.541L91.378,30.18C91.566,30.203 91.752,30.218 91.937,30.229C92.122,30.24 92.253,30.246 92.333,30.246C92.567,30.272 92.802,30.199 92.979,30.044C93.105,29.891 93.169,29.695 93.158,29.497L93.158,29.497Z" style="fill:rgb(17,88,108);fill-opacity:0.95;fill-rule:nonzero;"/>
            </g>
            <g transform="matrix(2.63241,0,0,2.63241,-59.8835,-37.7499)">
                <path d="M99.765,30.582C99.763,30.826 99.786,31.07 99.835,31.309C99.875,31.509 99.958,31.698 100.08,31.862C100.198,32.016 100.355,32.136 100.535,32.209C100.756,32.295 100.992,32.336 101.229,32.329C101.429,32.332 101.629,32.305 101.821,32.248C101.989,32.194 102.148,32.115 102.292,32.014L102.292,30.007L101.479,30.007C101.335,30.008 101.198,29.949 101.099,29.844C100.993,29.742 100.934,29.601 100.936,29.454C100.934,29.308 100.993,29.168 101.099,29.068C101.199,28.967 101.336,28.91 101.479,28.911L102.716,28.911C102.905,28.907 103.091,28.962 103.248,29.068C103.4,29.175 103.487,29.354 103.475,29.541L103.475,32.036C103.481,32.259 103.406,32.476 103.264,32.649C103.114,32.826 102.927,32.968 102.716,33.067C102.48,33.179 102.23,33.259 101.973,33.305C101.71,33.355 101.443,33.381 101.175,33.381C100.779,33.391 100.384,33.322 100.014,33.18C99.705,33.058 99.428,32.865 99.206,32.617C98.985,32.361 98.823,32.062 98.729,31.738C98.619,31.362 98.566,30.973 98.571,30.582L98.571,28.347C98.566,27.958 98.62,27.57 98.729,27.197C98.822,26.871 98.985,26.569 99.206,26.312C99.428,26.064 99.705,25.871 100.014,25.749C100.384,25.607 100.779,25.538 101.175,25.547C101.436,25.547 101.696,25.574 101.951,25.629C102.182,25.677 102.406,25.753 102.619,25.857C102.793,25.94 102.951,26.053 103.085,26.193C103.191,26.298 103.253,26.44 103.258,26.589C103.26,26.729 103.203,26.863 103.101,26.958C102.995,27.06 102.852,27.114 102.705,27.11C102.624,27.114 102.544,27.097 102.472,27.061C102.418,27.029 102.35,26.987 102.271,26.936L102.217,26.904C102.076,26.804 101.92,26.728 101.755,26.676C101.585,26.624 101.407,26.599 101.229,26.6C100.992,26.594 100.756,26.634 100.535,26.719C100.355,26.793 100.198,26.913 100.08,27.067C99.958,27.231 99.875,27.419 99.835,27.62C99.786,27.859 99.763,28.103 99.765,28.347L99.765,30.582L99.765,30.582Z" style="fill:rgb(17,88,108);fill-opacity:0.95;fill-rule:nonzero;"/>
            </g>
            <g transform="matrix(2.63241,0,0,2.63241,-59.8835,-37.7499)">
                <path d="M106.766,31.157C106.614,31.157 106.458,31.152 106.299,31.141C106.14,31.129 105.974,31.11 105.8,31.081L105.8,31.581C105.791,31.803 105.882,32.019 106.049,32.167C106.272,32.328 106.545,32.405 106.82,32.383C107.004,32.386 107.187,32.36 107.363,32.307C107.536,32.251 107.706,32.186 107.873,32.112C107.896,32.093 107.924,32.08 107.954,32.074C108.005,32.062 108.058,32.056 108.111,32.057C108.265,32.043 108.417,32.104 108.518,32.22C108.595,32.312 108.639,32.426 108.643,32.545C108.645,32.708 108.566,32.861 108.431,32.953C108.276,33.064 108.104,33.151 107.921,33.208C107.717,33.274 107.506,33.319 107.292,33.343C107.103,33.367 106.913,33.379 106.722,33.381C106.42,33.386 106.119,33.339 105.833,33.24C105.589,33.156 105.366,33.023 105.176,32.849C105,32.684 104.861,32.482 104.769,32.258C104.674,32.026 104.627,31.777 104.628,31.526L104.628,29.605C104.626,29.35 104.674,29.098 104.769,28.862C104.861,28.637 105.003,28.435 105.182,28.271C105.378,28.096 105.606,27.961 105.854,27.875C106.151,27.772 106.463,27.723 106.777,27.728C107.315,27.686 107.848,27.864 108.252,28.222C108.586,28.573 108.763,29.046 108.741,29.53C108.767,29.978 108.596,30.416 108.274,30.728C107.842,31.052 107.304,31.205 106.766,31.157ZM107.58,29.497C107.603,29.27 107.525,29.044 107.368,28.878C107.193,28.744 106.975,28.679 106.755,28.694C106.5,28.678 106.247,28.759 106.049,28.922C105.88,29.082 105.789,29.308 105.8,29.541L105.8,30.18C105.988,30.203 106.174,30.218 106.359,30.229C106.543,30.24 106.675,30.246 106.755,30.246C106.989,30.272 107.224,30.199 107.401,30.044C107.527,29.891 107.591,29.695 107.58,29.497L107.58,29.497Z" style="fill:rgb(17,88,108);fill-opacity:0.95;fill-rule:nonzero;"/>
            </g>
            <g transform="matrix(2.63241,0,0,2.63241,-59.8835,-37.7499)">
                <path d="M109.827,29.356C109.808,28.91 109.984,28.478 110.31,28.173C110.715,27.848 111.229,27.689 111.748,27.728C111.92,27.729 112.092,27.742 112.263,27.766C112.437,27.789 112.608,27.831 112.773,27.891C112.917,27.942 113.048,28.023 113.158,28.129C113.26,28.233 113.315,28.374 113.31,28.52C113.318,28.644 113.27,28.766 113.179,28.851C113.082,28.931 112.958,28.972 112.832,28.965C112.753,28.967 112.674,28.954 112.599,28.927C112.531,28.902 112.456,28.874 112.376,28.846C112.297,28.817 112.208,28.79 112.111,28.764C111.992,28.737 111.87,28.725 111.747,28.727C111.669,28.728 111.592,28.733 111.514,28.743C111.426,28.753 111.34,28.776 111.259,28.813C111.18,28.849 111.111,28.903 111.058,28.971C111,29.051 110.972,29.149 110.977,29.248C110.969,29.411 111.04,29.568 111.166,29.67C111.308,29.781 111.466,29.87 111.633,29.936C111.818,30.012 112.02,30.088 112.241,30.165C112.456,30.237 112.66,30.337 112.849,30.462C113.037,30.589 113.195,30.754 113.315,30.946C113.452,31.184 113.518,31.457 113.505,31.732C113.527,32.186 113.344,32.627 113.006,32.931C112.585,33.253 112.06,33.409 111.531,33.371C111.351,33.369 111.172,33.358 110.994,33.337C110.797,33.318 110.602,33.28 110.413,33.224C110.248,33.177 110.093,33.104 109.952,33.007C109.832,32.93 109.76,32.796 109.762,32.654C109.764,32.592 109.773,32.53 109.789,32.47C109.806,32.399 109.84,32.332 109.886,32.275C109.936,32.215 109.999,32.168 110.071,32.139C110.167,32.106 110.272,32.104 110.37,32.133C110.526,32.172 110.68,32.219 110.831,32.275C111.042,32.348 111.263,32.385 111.487,32.383C111.705,32.391 111.921,32.332 112.105,32.215C112.264,32.117 112.359,31.941 112.355,31.753C112.36,31.599 112.289,31.451 112.166,31.358C112.023,31.251 111.866,31.166 111.699,31.103C111.514,31.031 111.312,30.96 111.091,30.891C110.876,30.825 110.671,30.729 110.483,30.604C110.296,30.479 110.138,30.316 110.017,30.126C109.88,29.894 109.814,29.626 109.827,29.356Z" style="fill:rgb(17,88,108);fill-opacity:0.95;fill-rule:nonzero;"/>
            </g>
            <g transform="matrix(2.63241,0,0,2.63241,-59.8835,-37.7499)">
                <path d="M116.729,31.157C116.577,31.157 116.421,31.152 116.262,31.141C116.103,31.129 115.937,31.11 115.763,31.081L115.763,31.581C115.754,31.803 115.845,32.019 116.012,32.167C116.235,32.328 116.508,32.405 116.783,32.383C116.967,32.386 117.15,32.36 117.326,32.307C117.499,32.251 117.669,32.186 117.835,32.112C117.859,32.093 117.887,32.08 117.917,32.074C117.968,32.062 118.021,32.056 118.074,32.057C118.228,32.043 118.379,32.104 118.481,32.22C118.558,32.312 118.602,32.426 118.606,32.545C118.608,32.708 118.529,32.861 118.394,32.953C118.239,33.064 118.067,33.151 117.884,33.208C117.68,33.274 117.469,33.319 117.255,33.343C117.066,33.367 116.876,33.379 116.685,33.381C116.383,33.386 116.081,33.339 115.795,33.24C115.552,33.156 115.329,33.023 115.139,32.849C114.963,32.684 114.824,32.482 114.732,32.258C114.637,32.026 114.589,31.777 114.591,31.526L114.591,29.605C114.589,29.35 114.637,29.098 114.732,28.862C114.824,28.637 114.965,28.435 115.145,28.271C115.341,28.096 115.569,27.961 115.817,27.875C116.114,27.772 116.426,27.723 116.74,27.728C117.278,27.686 117.811,27.864 118.215,28.222C118.549,28.573 118.726,29.046 118.704,29.53C118.729,29.978 118.559,30.416 118.237,30.728C117.805,31.052 117.267,31.205 116.729,31.157ZM117.542,29.497C117.565,29.27 117.488,29.044 117.331,28.878C117.156,28.744 116.938,28.679 116.718,28.694C116.463,28.678 116.21,28.759 116.012,28.922C115.843,29.082 115.752,29.308 115.763,29.541L115.763,30.18C115.951,30.203 116.137,30.218 116.322,30.229C116.506,30.24 116.638,30.246 116.718,30.246C116.952,30.272 117.187,30.199 117.364,30.044C117.49,29.891 117.554,29.695 117.542,29.497L117.542,29.497Z" style="fill:rgb(17,88,108);fill-opacity:0.95;fill-rule:nonzero;"/>
            </g>
            <g transform="matrix(2.63241,0,0,2.63241,-59.8835,-37.7499)">
                <path d="M120.761,33.381C120.666,33.38 120.571,33.367 120.479,33.343C120.374,33.316 120.278,33.259 120.203,33.18C120.107,33.076 120.035,32.952 119.992,32.817C119.927,32.614 119.898,32.401 119.905,32.188L119.905,25.993C119.905,25.848 119.966,25.71 120.073,25.613C120.184,25.504 120.335,25.446 120.491,25.45C120.645,25.445 120.795,25.502 120.908,25.607C121.017,25.705 121.079,25.846 121.077,25.993L121.077,32.123C121.074,32.212 121.081,32.301 121.098,32.388C121.123,32.468 121.168,32.541 121.228,32.6C121.264,32.636 121.296,32.674 121.326,32.714C121.359,32.768 121.374,32.83 121.37,32.893C121.375,33.032 121.315,33.165 121.207,33.251C121.077,33.344 120.92,33.39 120.761,33.381Z" style="fill:rgb(17,88,108);fill-opacity:0.95;fill-rule:nonzero;"/>
            </g>
            <g transform="matrix(2.63241,0,0,2.63241,-59.8835,-37.7499)">
                <path d="M123.45,33.381C123.354,33.38 123.26,33.367 123.167,33.343C123.062,33.316 122.966,33.259 122.891,33.18C122.795,33.076 122.723,32.952 122.68,32.817C122.615,32.614 122.586,32.401 122.593,32.188L122.593,25.993C122.593,25.848 122.654,25.71 122.761,25.613C122.873,25.504 123.024,25.446 123.179,25.45C123.333,25.445 123.483,25.502 123.596,25.607C123.706,25.705 123.767,25.846 123.765,25.993L123.765,32.123C123.763,32.212 123.77,32.301 123.787,32.388C123.812,32.468 123.857,32.541 123.917,32.6C123.952,32.636 123.985,32.674 124.014,32.714C124.047,32.768 124.063,32.83 124.058,32.893C124.064,33.032 124.003,33.165 123.895,33.251C123.766,33.344 123.609,33.39 123.45,33.381Z" style="fill:rgb(17,88,108);fill-opacity:0.95;fill-rule:nonzero;"/>
            </g>
            <g transform="matrix(2.63241,0,0,2.63241,-59.8835,-37.7499)">
                <path d="M125.219,29.356C125.2,28.91 125.377,28.478 125.703,28.173C126.108,27.848 126.622,27.689 127.14,27.728C127.313,27.729 127.485,27.742 127.656,27.766C127.83,27.789 128.001,27.831 128.166,27.891C128.309,27.942 128.441,28.023 128.55,28.129C128.653,28.233 128.708,28.375 128.703,28.52C128.711,28.644 128.663,28.766 128.572,28.851C128.475,28.931 128.351,28.972 128.225,28.965C128.146,28.967 128.067,28.954 127.992,28.927C127.923,28.902 127.849,28.875 127.769,28.846C127.69,28.817 127.601,28.79 127.503,28.764C127.384,28.737 127.262,28.725 127.14,28.727C127.062,28.728 126.984,28.733 126.907,28.743C126.819,28.753 126.733,28.776 126.652,28.813C126.573,28.849 126.504,28.903 126.451,28.971C126.393,29.051 126.364,29.149 126.37,29.248C126.362,29.411 126.432,29.568 126.559,29.67C126.701,29.781 126.858,29.87 127.026,29.936C127.21,30.012 127.413,30.088 127.633,30.165C127.848,30.237 128.053,30.337 128.242,30.462C128.429,30.589 128.588,30.754 128.708,30.946C128.845,31.184 128.911,31.457 128.898,31.732C128.92,32.186 128.736,32.627 128.399,32.931C127.977,33.253 127.452,33.409 126.923,33.371C126.744,33.369 126.565,33.358 126.386,33.337C126.189,33.318 125.995,33.28 125.805,33.224C125.641,33.177 125.485,33.104 125.344,33.007C125.225,32.93 125.153,32.796 125.155,32.654C125.156,32.592 125.165,32.53 125.181,32.47C125.199,32.399 125.232,32.332 125.279,32.275C125.328,32.215 125.392,32.168 125.463,32.139C125.56,32.106 125.665,32.104 125.762,32.133C125.918,32.172 126.072,32.219 126.223,32.275C126.434,32.348 126.656,32.385 126.879,32.383C127.098,32.391 127.313,32.332 127.498,32.215C127.657,32.117 127.752,31.941 127.748,31.753C127.753,31.599 127.682,31.451 127.558,31.358C127.415,31.251 127.258,31.166 127.091,31.103C126.907,31.031 126.704,30.96 126.484,30.891C126.268,30.825 126.063,30.729 125.876,30.604C125.689,30.479 125.53,30.316 125.41,30.127C125.273,29.894 125.207,29.626 125.219,29.356Z" style="fill:rgb(17,88,108);fill-opacity:0.95;fill-rule:nonzero;"/>
            </g>
            <g transform="matrix(2.63241,0,0,2.63241,-59.8835,-37.7499)">
                <path d="M129.983,29.79C129.981,29.519 130.023,29.25 130.108,28.993C130.185,28.752 130.315,28.532 130.488,28.347C130.67,28.158 130.892,28.011 131.138,27.918C131.438,27.808 131.757,27.754 132.077,27.761C132.245,27.763 132.414,27.773 132.582,27.793C132.768,27.814 132.952,27.856 133.129,27.918C133.292,27.974 133.443,28.058 133.575,28.167C133.693,28.265 133.761,28.411 133.758,28.564C133.758,28.68 133.716,28.792 133.639,28.878C133.533,28.983 133.386,29.035 133.238,29.02C133.146,29.019 133.054,29.004 132.966,28.976C132.843,28.918 132.724,28.868 132.609,28.825C132.465,28.777 132.315,28.754 132.164,28.759C131.876,28.729 131.589,28.829 131.382,29.031C131.219,29.249 131.138,29.518 131.155,29.79L131.155,31.341C131.139,31.615 131.219,31.886 131.382,32.106C131.587,32.311 131.875,32.414 132.164,32.383C132.315,32.388 132.465,32.366 132.609,32.318C132.724,32.275 132.843,32.224 132.966,32.166C133.01,32.152 133.049,32.139 133.086,32.128C133.132,32.116 133.18,32.111 133.227,32.112C133.378,32.098 133.527,32.151 133.634,32.258C133.713,32.346 133.758,32.46 133.758,32.579C133.761,32.731 133.693,32.877 133.575,32.974C133.443,33.084 133.292,33.167 133.129,33.218C132.949,33.278 132.764,33.32 132.576,33.343C132.407,33.367 132.236,33.379 132.066,33.381C131.748,33.389 131.431,33.335 131.133,33.224C130.644,33.038 130.266,32.638 130.108,32.139C130.023,31.882 129.981,31.612 129.983,31.341L129.983,29.79L129.983,29.79Z" style="fill:rgb(17,88,108);fill-opacity:0.95;fill-rule:nonzero;"/>
            </g>
            <g transform="matrix(2.63241,0,0,2.63241,-59.8835,-37.7499)">
                <path d="M135.892,33.218C135.78,33.321 135.632,33.376 135.48,33.371C135.326,33.375 135.177,33.321 135.062,33.218C134.951,33.12 134.889,32.976 134.894,32.828L134.894,25.938C134.894,25.793 134.952,25.654 135.056,25.553C135.163,25.442 135.313,25.38 135.468,25.385C135.623,25.38 135.773,25.437 135.886,25.542C135.997,25.644 136.058,25.788 136.054,25.938L136.054,28.097C136.405,27.855 136.822,27.726 137.249,27.728C137.77,27.684 138.284,27.873 138.653,28.244C138.963,28.615 139.124,29.089 139.103,29.573L139.103,32.828C139.107,32.977 139.044,33.121 138.93,33.218C138.816,33.319 138.669,33.373 138.517,33.371C138.364,33.375 138.214,33.321 138.1,33.218C137.989,33.12 137.927,32.976 137.932,32.828L137.932,29.53C137.946,29.311 137.876,29.096 137.737,28.927C137.581,28.776 137.367,28.699 137.151,28.715C136.951,28.718 136.754,28.758 136.57,28.835C136.371,28.915 136.194,29.041 136.054,29.204L136.054,32.828C136.059,32.975 136,33.118 135.892,33.218Z" style="fill:rgb(17,88,108);fill-opacity:0.95;fill-rule:nonzero;"/>
            </g>
            <g transform="matrix(2.63241,0,0,2.63241,-59.8835,-37.7499)">
                <path d="M143.324,29.681C143.328,29.647 143.33,29.613 143.33,29.579C143.33,29.105 142.94,28.716 142.466,28.716C142.419,28.716 142.372,28.719 142.326,28.727C142.205,28.724 142.084,28.738 141.967,28.77C141.874,28.799 141.78,28.832 141.685,28.868L141.479,28.955C141.39,28.994 141.294,29.012 141.197,29.008C141.064,29.021 140.935,28.963 140.855,28.857C140.789,28.762 140.753,28.648 140.752,28.532C140.749,28.395 140.8,28.263 140.893,28.163C141,28.053 141.13,27.967 141.273,27.913C141.448,27.844 141.63,27.796 141.816,27.772C142.021,27.743 142.227,27.728 142.434,27.728C143.02,27.671 143.601,27.878 144.018,28.292C144.368,28.768 144.537,29.353 144.496,29.942L144.496,32.144C144.482,32.24 144.51,32.337 144.572,32.411C144.629,32.453 144.696,32.481 144.767,32.492C144.963,32.511 145.109,32.686 145.092,32.882C145.092,33.186 144.879,33.338 144.452,33.337C144.095,33.348 143.76,33.16 143.585,32.849C143.174,33.199 142.648,33.384 142.109,33.371C141.619,33.407 141.134,33.242 140.768,32.915C140.459,32.588 140.297,32.149 140.318,31.7L140.318,31.667C140.318,30.575 140.994,30.029 142.347,30.029C142.677,30.028 143.006,30.072 143.324,30.159L143.324,29.681L143.324,29.681ZM142.379,30.918C142.224,30.914 142.068,30.934 141.918,30.978C141.814,31.009 141.719,31.065 141.642,31.141C141.577,31.209 141.532,31.293 141.512,31.385C141.49,31.481 141.478,31.58 141.479,31.678L141.479,31.71C141.467,31.896 141.532,32.079 141.659,32.215C141.839,32.354 142.067,32.418 142.293,32.394C142.672,32.4 143.04,32.264 143.324,32.014L143.324,31.038C143.165,31.001 143.001,30.972 142.835,30.951C142.684,30.93 142.532,30.919 142.379,30.918L142.379,30.918Z" style="fill:rgb(17,88,108);fill-opacity:0.95;fill-rule:nonzero;"/>
            </g>
            <g transform="matrix(2.63241,0,0,2.63241,-59.8835,-37.7499)">
                <path d="M146.166,27.522C146.159,27.212 146.215,26.905 146.329,26.617C146.523,26.131 146.923,25.755 147.419,25.591C147.676,25.503 147.945,25.456 148.216,25.45C148.275,25.45 148.367,25.452 148.494,25.456C148.624,25.46 148.754,25.482 148.878,25.52C149.005,25.558 149.123,25.621 149.226,25.705C149.328,25.792 149.384,25.923 149.377,26.057C149.385,26.206 149.321,26.35 149.205,26.443C149.09,26.533 148.948,26.581 148.802,26.579C148.698,26.579 148.595,26.567 148.494,26.545C148.381,26.523 148.267,26.512 148.152,26.513C147.914,26.496 147.683,26.6 147.539,26.79C147.403,26.981 147.333,27.211 147.338,27.446L147.338,28.043L148.303,28.043C148.448,28.04 148.589,28.095 148.694,28.195C148.801,28.292 148.86,28.431 148.857,28.575C148.858,28.715 148.799,28.85 148.694,28.944C148.589,29.044 148.448,29.098 148.303,29.095L147.338,29.095L147.338,32.817C147.34,32.957 147.285,33.092 147.186,33.191C146.936,33.401 146.568,33.401 146.318,33.191C146.219,33.092 146.164,32.957 146.167,32.817L146.167,27.522L146.166,27.522Z" style="fill:rgb(17,88,108);fill-opacity:0.95;fill-rule:nonzero;"/>
            </g>
            <g transform="matrix(2.63241,0,0,2.63241,-59.8835,-37.7499)">
                <path d="M150.094,26.698C150.091,26.554 150.145,26.415 150.246,26.312C150.362,26.202 150.52,26.144 150.68,26.155C150.841,26.145 150.999,26.204 151.114,26.318C151.212,26.419 151.267,26.556 151.266,26.698L151.266,28.043L152.231,28.043C152.376,28.04 152.516,28.095 152.622,28.195C152.728,28.292 152.788,28.431 152.785,28.575C152.786,28.715 152.727,28.85 152.622,28.944C152.516,29.044 152.376,29.098 152.231,29.095L151.266,29.095L151.266,30.995C151.266,31.233 151.273,31.435 151.288,31.602C151.295,31.741 151.33,31.878 151.39,32.003C151.439,32.099 151.517,32.177 151.613,32.226C151.736,32.279 151.87,32.303 152.003,32.296C152.04,32.296 152.076,32.294 152.112,32.291C152.148,32.288 152.177,32.286 152.199,32.286C152.383,32.276 152.568,32.311 152.736,32.388C152.869,32.469 152.943,32.62 152.925,32.774C152.93,32.878 152.906,32.981 152.855,33.072C152.809,33.146 152.744,33.207 152.666,33.246C152.582,33.287 152.492,33.312 152.4,33.322C152.297,33.333 152.194,33.338 152.09,33.337C151.757,33.348 151.424,33.298 151.108,33.191C150.869,33.106 150.658,32.958 150.496,32.763C150.335,32.555 150.227,32.311 150.181,32.052C150.119,31.729 150.09,31.399 150.094,31.07L150.094,26.698L150.094,26.698Z" style="fill:rgb(17,88,108);fill-opacity:0.95;fill-rule:nonzero;"/>
            </g>
            <g transform="matrix(2.63241,0,0,2.63241,-59.8835,-37.7499)">
                <path d="M67.148,42.918C67.277,42.612 67.341,42.283 67.335,41.951C67.342,41.678 67.295,41.406 67.197,41.151C67.177,41.102 67.149,41.062 67.126,41.017C67.069,40.906 67,40.801 66.919,40.706C66.889,40.67 66.863,40.628 66.83,40.596C66.675,40.446 66.498,40.32 66.306,40.223C66.106,40.121 65.9,40.032 65.69,39.955C65.48,39.878 65.263,39.804 65.045,39.734C64.841,39.671 64.642,39.59 64.452,39.492C64.391,39.461 64.331,39.427 64.273,39.389C64.205,39.343 64.145,39.285 64.097,39.218C64.039,39.138 63.993,39.05 63.96,38.957C63.875,38.668 63.89,38.359 64.004,38.08C64.064,37.952 64.157,37.843 64.273,37.763C64.39,37.684 64.522,37.629 64.66,37.599C64.805,37.566 64.954,37.55 65.103,37.55C65.258,37.548 65.412,37.562 65.564,37.593C65.68,37.619 65.794,37.654 65.905,37.696C66.005,37.736 66.099,37.77 66.184,37.798C66.269,37.826 66.358,37.84 66.447,37.84C66.604,37.85 66.759,37.793 66.872,37.684C66.969,37.587 67.024,37.455 67.024,37.318C67.026,37.148 66.941,36.988 66.799,36.895C66.632,36.778 66.446,36.692 66.25,36.639C66.035,36.578 65.814,36.537 65.591,36.516C65.367,36.494 65.182,36.483 65.039,36.483C64.423,36.451 63.816,36.656 63.345,37.055C62.919,37.464 62.691,38.039 62.721,38.629C62.714,38.908 62.761,39.185 62.859,39.446C62.88,39.495 62.907,39.536 62.931,39.582C62.988,39.695 63.057,39.801 63.136,39.898C63.167,39.935 63.194,39.977 63.228,40.01C63.382,40.165 63.56,40.292 63.756,40.389C63.957,40.49 64.165,40.578 64.378,40.652C64.584,40.724 64.799,40.796 65.017,40.867C65.218,40.931 65.414,41.009 65.604,41.099C65.739,41.173 65.859,41.27 65.958,41.387C66.094,41.571 66.159,41.798 66.14,42.026C66.159,42.339 66.041,42.645 65.818,42.865C65.542,43.081 65.195,43.186 64.846,43.159C64.653,43.161 64.461,43.143 64.272,43.105C64.124,43.074 63.978,43.032 63.835,42.981L63.677,42.922C63.614,42.899 63.556,42.877 63.501,42.857C63.419,42.825 63.332,42.807 63.244,42.804C63.1,42.801 62.96,42.86 62.863,42.966C62.765,43.065 62.71,43.199 62.71,43.337C62.712,43.502 62.797,43.656 62.936,43.746C63.104,43.867 63.292,43.96 63.49,44.022C63.717,44.095 63.95,44.148 64.187,44.178C64.401,44.208 64.618,44.224 64.835,44.226C65.173,44.229 65.508,44.178 65.83,44.076C66.123,43.984 66.394,43.833 66.626,43.632C66.851,43.436 67.029,43.192 67.148,42.918Z" style="fill:rgb(23,88,108);fill-opacity:0.694118;fill-rule:nonzero;"/>
            </g>
            <g transform="matrix(2.63241,0,0,2.63241,-59.8835,-37.7499)">
                <path d="M65.811,41.286C65.78,41.258 65.748,41.232 65.714,41.207C65.748,41.232 65.78,41.258 65.811,41.286Z" style="fill:rgb(17,88,108);fill-rule:nonzero;"/>
            </g>
            <g transform="matrix(2.63241,0,0,2.63241,-59.8835,-37.7499)">
                <path d="M71.984,43.815C72.099,43.722 72.164,43.581 72.162,43.434C72.16,43.321 72.118,43.212 72.042,43.127C71.939,43.025 71.795,42.974 71.65,42.987C71.605,42.986 71.559,42.991 71.515,43.003C71.487,43.011 71.457,43.021 71.424,43.032L71.397,43.041C71.279,43.096 71.159,43.147 71.042,43.19C70.899,43.238 70.748,43.26 70.597,43.255C70.306,43.285 70.018,43.183 69.811,42.977C69.647,42.756 69.566,42.484 69.582,42.209L69.582,40.671C69.565,40.398 69.647,40.128 69.811,39.91C70.019,39.707 70.307,39.607 70.597,39.636C70.748,39.631 70.899,39.653 71.042,39.701C71.159,39.745 71.279,39.795 71.399,39.852C71.484,39.879 71.572,39.893 71.661,39.894C71.803,39.908 71.945,39.859 72.047,39.759C72.121,39.676 72.162,39.569 72.162,39.458C72.164,39.31 72.099,39.169 71.984,39.076C71.855,38.969 71.708,38.886 71.549,38.832C71.374,38.771 71.193,38.729 71.009,38.709C70.844,38.689 70.677,38.678 70.511,38.677C70.196,38.67 69.882,38.722 69.586,38.832C69.345,38.923 69.126,39.067 68.946,39.252C68.778,39.434 68.651,39.65 68.574,39.886C68.491,40.14 68.45,40.405 68.451,40.671L68.451,42.209C68.45,42.476 68.491,42.741 68.574,42.995C68.651,43.232 68.778,43.45 68.947,43.634C69.124,43.822 69.34,43.967 69.58,44.06C69.874,44.17 70.186,44.223 70.5,44.215C70.668,44.213 70.836,44.201 71.003,44.178C71.188,44.155 71.371,44.113 71.549,44.054C71.708,44.004 71.856,43.922 71.984,43.815Z" style="fill:rgb(23,88,108);fill-opacity:0.694118;fill-rule:nonzero;"/>
            </g>
            <g transform="matrix(2.63241,0,0,2.63241,-59.8835,-37.7499)">
                <path d="M77.482,40.457C77.501,39.981 77.343,39.516 77.04,39.15C76.676,38.787 76.17,38.602 75.658,38.645C75.239,38.642 74.829,38.769 74.484,39.007L74.46,39.023L74.46,36.856C74.464,36.712 74.405,36.572 74.299,36.474C74.19,36.372 74.045,36.317 73.895,36.322C73.746,36.318 73.602,36.377 73.498,36.484C73.398,36.582 73.342,36.716 73.341,36.856L73.341,43.682C73.336,43.825 73.395,43.963 73.502,44.058C73.613,44.157 73.758,44.21 73.906,44.205C74.053,44.211 74.196,44.158 74.304,44.058C74.408,43.961 74.465,43.824 74.46,43.682L74.46,40.085L74.464,40.082C74.605,39.919 74.782,39.792 74.981,39.712C75.165,39.635 75.362,39.595 75.562,39.593C75.78,39.577 75.996,39.655 76.154,39.807C76.294,39.977 76.365,40.194 76.351,40.414L76.351,43.682C76.347,43.825 76.406,43.962 76.512,44.058C76.743,44.253 77.085,44.253 77.315,44.057C77.424,43.963 77.485,43.826 77.482,43.682L77.482,40.457Z" style="fill:rgb(23,88,108);fill-opacity:0.694118;fill-rule:nonzero;"/>
            </g>
            <g transform="matrix(2.63241,0,0,2.63241,-59.8835,-37.7499)">
                <path d="M85.342,39.281C85.343,39.265 85.345,39.249 85.348,39.233C85.351,39.222 85.352,39.21 85.353,39.199C85.356,39.055 85.295,38.917 85.186,38.823C85.08,38.728 84.941,38.675 84.798,38.677C84.678,38.677 84.56,38.715 84.463,38.787C84.367,38.848 84.296,38.942 84.264,39.052L83.748,41.074C83.677,41.346 83.619,41.621 83.577,41.899C83.536,42.167 83.487,42.442 83.426,42.739L83.413,42.804L83.397,42.74C83.318,42.416 83.248,42.091 83.193,41.777C83.135,41.46 83.067,41.137 82.988,40.816L82.569,39.127C82.537,39 82.466,38.886 82.365,38.802C82.253,38.715 82.113,38.671 81.971,38.677C81.822,38.671 81.676,38.715 81.555,38.802C81.449,38.883 81.373,38.998 81.34,39.127L80.921,40.816C80.841,41.142 80.773,41.465 80.717,41.777C80.66,42.097 80.594,42.421 80.524,42.739L80.508,42.807L80.495,42.739C80.438,42.465 80.387,42.183 80.344,41.899C80.301,41.621 80.243,41.346 80.171,41.074L79.645,39.052C79.614,38.939 79.544,38.841 79.447,38.775C79.221,38.627 78.92,38.649 78.718,38.829C78.616,38.916 78.557,39.043 78.556,39.177C78.556,39.212 78.559,39.247 78.566,39.281L79.814,43.657C79.851,43.812 79.934,43.953 80.051,44.062C80.177,44.163 80.337,44.214 80.499,44.205C80.645,44.211 80.791,44.179 80.92,44.11C81.035,44.032 81.113,43.911 81.139,43.775C81.289,43.211 81.43,42.642 81.558,42.082C81.683,41.542 81.809,40.982 81.946,40.368L81.96,40.303L81.975,40.367L82.781,43.775C82.812,43.91 82.899,44.026 83.021,44.093C83.142,44.166 83.281,44.205 83.422,44.205C83.582,44.218 83.742,44.171 83.87,44.074C83.979,43.96 84.056,43.819 84.095,43.666L85.342,39.281Z" style="fill:rgb(23,88,108);fill-opacity:0.694118;fill-rule:nonzero;"/>
            </g>
            <g transform="matrix(2.63241,0,0,2.63241,-59.8835,-37.7499)">
                <path d="M90.022,43.793C90.151,43.705 90.227,43.558 90.225,43.402C90.221,43.287 90.178,43.177 90.105,43.088C90.007,42.977 89.861,42.919 89.713,42.933C89.662,42.932 89.611,42.938 89.561,42.95C89.534,42.954 89.509,42.966 89.488,42.983L89.483,42.986C89.318,43.06 89.148,43.125 88.976,43.18C88.8,43.233 88.617,43.258 88.434,43.255C88.159,43.277 87.884,43.2 87.661,43.038C87.492,42.888 87.4,42.671 87.409,42.446L87.409,41.933L87.426,41.936C87.59,41.964 87.754,41.984 87.919,41.996C88.071,42.005 88.226,42.011 88.38,42.011C88.91,42.058 89.438,41.908 89.865,41.591C90.179,41.283 90.346,40.853 90.322,40.414C90.343,39.938 90.17,39.475 89.842,39.129C89.444,38.779 88.92,38.603 88.391,38.645C88.082,38.639 87.774,38.688 87.482,38.789C87.238,38.874 87.014,39.006 86.821,39.178C86.645,39.339 86.506,39.537 86.415,39.758C86.322,39.99 86.275,40.239 86.277,40.489L86.277,42.392C86.276,42.639 86.323,42.883 86.415,43.112C86.506,43.332 86.642,43.53 86.816,43.693C87.002,43.864 87.221,43.994 87.46,44.077C87.743,44.173 88.039,44.22 88.337,44.215C88.525,44.213 88.713,44.201 88.9,44.178C89.111,44.154 89.318,44.109 89.52,44.043C89.7,43.988 89.869,43.903 90.022,43.793ZM87.409,40.424C87.398,40.19 87.49,39.962 87.661,39.801C87.859,39.638 88.113,39.555 88.37,39.571C88.591,39.557 88.811,39.623 88.987,39.758C89.26,40.097 89.273,40.58 89.02,40.934C88.842,41.09 88.605,41.164 88.37,41.138C88.294,41.138 88.169,41.133 87.976,41.122C87.789,41.111 87.602,41.095 87.421,41.074L87.409,41.073L87.409,40.424L87.409,40.424Z" style="fill:rgb(23,88,108);fill-opacity:0.694118;fill-rule:nonzero;"/>
            </g>
            <g transform="matrix(2.63241,0,0,2.63241,-59.8835,-37.7499)">
                <path d="M92.748,39.199C92.747,39.06 92.688,38.927 92.585,38.834C92.358,38.626 92.006,38.626 91.779,38.834C91.676,38.927 91.617,39.06 91.617,39.199L91.617,43.682C91.612,43.825 91.671,43.963 91.778,44.058C92.011,44.253 92.353,44.253 92.586,44.058C92.693,43.963 92.753,43.825 92.748,43.682L92.748,39.199L92.748,39.199Z" style="fill:rgb(23,88,108);fill-opacity:0.694118;fill-rule:nonzero;"/>
            </g>
            <g transform="matrix(2.63241,0,0,2.63241,-59.8835,-37.7499)">
                <path d="M92.182,36.473C92.007,36.468 91.838,36.532 91.709,36.651C91.589,36.765 91.52,36.923 91.52,37.089C91.52,37.255 91.589,37.414 91.709,37.528C91.972,37.769 92.379,37.771 92.644,37.533C92.768,37.419 92.841,37.26 92.845,37.092C92.846,36.926 92.774,36.767 92.65,36.657C92.524,36.536 92.356,36.47 92.182,36.473Z" style="fill:rgb(95,122,140);fill-rule:nonzero;"/>
            </g>
            <g transform="matrix(2.63241,0,0,2.63241,-59.8835,-37.7499)">
                <path d="M97.857,43.284C97.751,43.185 97.609,43.132 97.464,43.137L95.36,43.137L95.377,43.114L97.872,39.631C97.913,39.576 97.943,39.514 97.96,39.448C97.977,39.388 97.986,39.326 97.987,39.263C97.995,39.113 97.931,38.968 97.815,38.873C97.698,38.778 97.551,38.727 97.4,38.73L94.551,38.73C94.412,38.727 94.276,38.778 94.173,38.872C94.07,38.962 94.013,39.094 94.017,39.231C94.015,39.365 94.072,39.493 94.173,39.58C94.277,39.674 94.412,39.724 94.551,39.722L96.526,39.722L96.509,39.746L94.015,43.25C93.977,43.298 93.948,43.353 93.931,43.412C93.917,43.465 93.91,43.52 93.91,43.575C93.906,43.726 93.97,43.871 94.082,43.972C94.192,44.074 94.337,44.13 94.487,44.129L97.464,44.129C97.609,44.135 97.75,44.084 97.858,43.988C97.956,43.899 98.011,43.772 98.008,43.639C98.01,43.505 97.955,43.376 97.857,43.284Z" style="fill:rgb(23,88,108);fill-opacity:0.694118;fill-rule:nonzero;"/>
            </g>
        </g>
    </g>
</svg>
