<svg width="156" height="30" viewBox="0 0 156 30" xmlns="http://www.w3.org/2000/svg"><title>Group 4</title><g fill-rule="nonzero" fill="#442D33"><path d="M87.595 10.169a4.269 4.269 0 0 0-1.821-.237c-.968.095-1.752.562-2.031 1.312-.26.765.057 1.606.765 2.295.448.425.985.746 1.572.94.484.148.996.172 1.492.07a8.205 8.205 0 0 0 2.635-1.064c-.073-.214-.968-2.758-2.582-3.328M94.56 8.872a5.18 5.18 0 0 0-.172-2.253c-.363-1.147-1.148-1.962-2.12-2.104h-.037c-.991-.114-1.947.49-2.594 1.5a5.214 5.214 0 0 0-.765 2.138c-.268 2.096 2.066 4.506 2.265 4.705.244-.145 3.12-1.886 3.408-3.982"/><path d="M91.156 15.077a9.834 9.834 0 0 1-3.13 1.22 5.86 5.86 0 0 1-.619.069h-.065a6.85 6.85 0 0 1 1.381 3.06 4.548 4.548 0 1 1-8.92 0c.336-1.974 1.733-4.047 3.515-4.617-1.782-.57-3.179-2.643-3.515-4.617a4.54 4.54 0 0 1 4.46-5.432V.656a8.66 8.66 0 0 0-6.69 14.153 8.668 8.668 0 1 0 13.579.264l.004.004zM10.028 15.769l.234-1.68h.157l.233 1.68 1.813 12.623c1.19-.146 2.39-.287 3.611-.425L19.756.656h-3.91l-1.679 14.918-.076.937h-.314l-.119-.937L11.861.656H8.8L7.003 15.574l-.119.937H6.57l-.08-.937L4.81.656H.926l3.867 28.688h.29c1.005-.143 2.025-.284 3.06-.424l1.886-13.151zM25.73 7.996h-3.947v19.367c1.3-.13 2.616-.258 3.948-.383V7.996zM21.783.648h3.948v3.948h-3.948zM32.8.656h-3.944v26.06c1.3-.11 2.62-.214 3.947-.313L32.8.656zM39.868.656h-3.943v25.513c1.305-.091 2.621-.18 3.947-.264L39.868.655zM46.275 24.05V19.4h6.526V13.19s.038-5.508-5.08-5.508-5.118 5.626-5.118 5.626v10.745c.017.567.098 1.13.241 1.68 1.255-.072 2.517-.14 3.787-.203a3.443 3.443 0 0 1-.356-1.48zm0-10.745s0-2.188 1.446-2.188 1.408 2.188 1.408 2.188v3.007h-2.85l-.004-3.007z"/><path d="M52.801 24.169v-2.475H49.13v2.345c.008.47-.081.935-.26 1.37 1.275-.06 2.55-.114 3.825-.165.065-.355.1-.715.107-1.075zM59.361 12.514s.704-1.018 1.484-1.018c.383 0 1.056.119 1.056.937v12.505c1.232-.03 2.469-.059 3.71-.084v-12.34s.704-1.018 1.485-1.018c.382 0 1.055.119 1.055.937v12.378c1.232-.017 2.469-.033 3.71-.045V11.863c0-1.76-.86-4.18-2.968-4.18-1.365 0-2.968 1.912-3.591 2.383-.383-1.251-1.251-2.383-2.659-2.383-1.407 0-2.968 1.912-3.282 2.111V7.996H55.41v17.14c1.308-.045 2.624-.089 3.947-.13l.004-12.492zM108.4 15.027c0-11.25-.586-14.337-8.416-14.375h-3.32v24.362c3.675.107 7.292.244 10.852.41.773-2.22.883-5.547.883-10.397zm-7.502 10.11V4.863c2.969 0 3.164.742 3.125 10.118.039 9.421-.156 10.156-3.125 10.156zM115.155 14.518a2.414 2.414 0 0 1 .86-1.955c1.251-1.094 3.087-.508 3.087-.508V7.683c-2.892 0-3.825 2.15-3.947 2.677V7.977h-3.944v17.596c1.326.071 2.64.146 3.944.225v-11.28zM130.547 24.169v-2.475h-3.672v2.345s.076 2.15-1.408 2.15-1.446-2.15-1.446-2.15v-4.64h6.526V13.19s.038-5.508-5.08-5.508-5.118 5.626-5.118 5.626v10.745a7.72 7.72 0 0 0 .383 2.146c3.121.22 6.181.463 9.18.73.39-.87.606-1.808.635-2.761zm-6.526-10.86s0-2.188 1.446-2.188 1.408 2.188 1.408 2.188v3.007h-2.85l-.004-3.007zM143.124 24.169v-2.475h-3.672v2.345s.076 2.15-1.408 2.15-1.446-2.15-1.446-2.15v-4.64h6.526V13.19s.038-5.508-5.08-5.508-5.118 5.626-5.118 5.626v10.745a7.52 7.52 0 0 0 .85 3.24c2.705.255 5.347.537 7.925.845 1.423-1.633 1.423-3.97 1.423-3.97zm-6.526-10.86s0-2.188 1.446-2.188 1.408 2.188 1.408 2.188v3.007h-2.85l-.004-3.007zM155.353 23.817c0-2.773-1.913-4.885-3.634-6.526-1.212-1.17-2.578-2.46-2.578-3.825 0-1.094.157-2.46 1.213-2.502 1.25 0 1.289 1.485 1.289 2.502h3.672c0-2.421-.429-5.86-5.038-5.78-3.79.08-4.808 3.244-4.808 5.78 0 3.087 1.912 4.804 3.752 6.564 1.213 1.17 2.46 2.502 2.46 3.79 0 1.29-.233 2.579-1.366 2.579-1.64 0-1.836-2.108-1.836-3.244h-3.672c0 1.656.363 4.3 2.349 5.658 1.596.209 3.163.424 4.7.646 2.564-.757 3.497-3.393 3.497-5.642z"/></g></svg>