<?xml version="1.0" encoding="utf-8"?>
<!-- Generator: Adobe Illustrator 19.0.0, SVG Export Plug-In . SVG Version: 6.00 Build 0)  -->
<!DOCTYPE svg PUBLIC "-//W3C//DTD SVG 1.1//EN" "http://www.w3.org/Graphics/SVG/1.1/DTD/svg11.dtd">
<svg version="1.1" id="Ebene_1" xmlns="http://www.w3.org/2000/svg" xmlns:xlink="http://www.w3.org/1999/xlink" x="0px" y="0px"
	 width="113.3px" height="100px" viewBox="0 0 113.3 100" style="enable-background:new 0 0 113.3 100;" xml:space="preserve">
<style type="text/css">
	.st0{fill:#11586C;}
</style>
<g>
	<path class="st0" d="M47.5,76c-0.5,0-1,0.3-1.1,0.8l-2.3,5.8l-0.2,0.7l-0.2-0.7L42,76.9c0,0,0,0,0-0.1v0c-0.2-0.5-0.6-0.8-1.1-0.8
		H38c-0.6,0-1.2,0.6-1.2,1.2c0,0.2,0.1,0.4,0.1,0.6l0.4,1.2l-1.4,3.5l-0.2,0.7l-0.2-0.7l-1.8-5.7c0,0,0,0,0-0.1v0
		c-0.2-0.5-0.6-0.8-1.1-0.8h-2.9c-0.6,0-1.2,0.6-1.2,1.2c0,0.2,0.1,0.4,0.1,0.6L33,90.6c0.1,0.5,0.6,0.9,1.2,0.9
		c0.5,0,1-0.4,1.2-0.8l3-7.6l0.2-0.7l0.2,0.7l2.5,7.5c0.1,0.5,0.6,0.9,1.2,0.9c0.6,0,1-0.4,1.2-0.9l5.1-12.9
		c0.1-0.2,0.1-0.3,0.1-0.5C48.8,76.5,48.2,76,47.5,76"/>
	<path class="st0" d="M68.9,76c-0.5,0-1,0.3-1.1,0.8l-2.3,5.8l-0.2,0.7l-0.2-0.7l-1.8-5.6c0,0,0,0,0-0.1v0c-0.2-0.5-0.6-0.8-1.1-0.8
		h-2.9c-0.6,0-1.1,0.6-1.1,1.2c0,0.2,0.1,0.4,0.1,0.6l0.4,1.2l-1.4,3.5L57,83.2l-0.2-0.7l-1.8-5.7c0,0,0,0,0-0.1v0
		c-0.2-0.5-0.6-0.8-1.1-0.8h-2.9c-0.7,0-1.2,0.6-1.2,1.2c0,0.2,0.1,0.4,0.1,0.6l4.3,12.8c0.1,0.5,0.6,0.9,1.2,0.9
		c0.5,0,1-0.4,1.2-0.8l3-7.6l0.2-0.7l0.2,0.7l2.5,7.5c0.1,0.5,0.6,0.9,1.2,0.9c0.5,0,1-0.4,1.2-0.9L70,77.7c0.1-0.2,0.1-0.3,0.1-0.5
		C70.1,76.5,69.6,76,68.9,76"/>
	<path class="st0" d="M82.8,76h-10c-0.6,0-1,0.5-1,1v0v2.5v10.8c0,0,0,0,0,0h0c0,0.6,0.5,1.1,1.1,1.1h2.8c0.6,0,1.1-0.5,1.1-1.1
		v-6.2c0,0,4.1,0,4.1,0c0.6,0,1.1-0.5,1.1-1.1c0-0.6-0.5-1.1-1.1-1.1h-4.1l0-3.6h6c0.6,0,1.1-0.5,1.1-1.2C83.9,76.5,83.4,76,82.8,76
		"/>
	<path class="st0" d="M67.2,33.7c1.8,2,2,8.1,6.6,5.7c2.8-1.5,2.7-7.6-1-9.8c-3-1.8-4.6,0.6-5.7,3.5C67.1,33.3,67.1,33.5,67.2,33.7"
		/>
	<path class="st0" d="M60.1,32.7c-1.9,1.6-3.2,5.9-6.7,4.5c-2.8-1.4-3.1-7.1,1.8-9.7c3.4-1.6,5.1,1.5,5.2,4.8
		C60.3,32.4,60.2,32.6,60.1,32.7"/>
	<path class="st0" d="M64.8,43.8c1.9-0.2,1.5-1.9,0-2.4c-1.3-0.4-3.2-0.6-4.6-0.6c-2.4,0.1-2.4,1.9-1.1,2.2c1,0.3,1.6,0.4,2.4,1.5
		C62.3,46,62,44.1,64.8,43.8"/>
	<path class="st0" d="M73.8,12.4c2.4-4,6.5-3.2,8.6-1.2c2.3,2.1,2.6,4.6,1.8,6.4c-1.2,2.3-4.2,5.2-6.2,2.4c-0.9-1.2-2.7-2.7-3.7-3.1
		C72.6,16.2,72.3,14.8,73.8,12.4"/>
	<path class="st0" d="M83.2,29.8c-0.2-0.7-0.6-0.7-0.5-0.1c0.2,7.2-4.1,14.9-13.3,15c-2.4,0-1.6,3.8-5.9,1.9c-3.1-2.1-4.9,2-7.1-2.4
		c-0.5-1.3-1.2-1.8-2.1-2c-9.1-2.3-12-14.8-4-24.9c1.6,0.9,2.2,1.1,3.9-0.5c0.9-0.8,2.4-1.7,3.2-2c1.9-0.7,3-1.6,1.3-5.2
		C56.4,4.9,52,6.2,50,7.9c-2.3,1.9-3.8,4.9-0.9,8.4c-8.1,5.5-9.5,12.2-9.3,18.1c0.2,6.2-1.4,5.7,0.6,12.1c0.2,0.6-0.2,0.5-0.5,0.4
		c-8.5-5.4-13.1-22,0.2-31.1c0.3-0.3,0.2-0.6-0.9,0c-11.4,6.1-12.5,17.8-10.6,25.7c0.9,3.8-0.5,4.5,1,9.6
		c3.4,10.5,6.3,11.3,10.4,11.6c7.5,0,2.4-4.1,2.7-9.3c0-0.3,0.4-0.5,0.6,0.2c4.1,9.2,7,17.6,17.8,16.8c6.3-0.8,2.8-3.9,2.4-5.7
		c-4.6-15.3,6.6-18.9,3.4-4c-2.1,8.5,4.5,7.7,9.1,4.6C80.7,62,86.7,41.3,83.2,29.8 M65,47.9c-1,2.7-6.4,1.8-6.6-0.8
		c0-0.1,0.1-0.1,0.2-0.1c2.4,0.6,4.7,0.8,6.2,0.8C64.9,47.8,65,47.8,65,47.9"/>
	<path class="st0" d="M41,66.4c0,1.1-0.9,2-2,2c-1.1,0-2-0.9-2-2c0-1.1,0.9-2,2-2C40.1,64.4,41,65.3,41,66.4 M39,64
		c-1.3,0-2.4,1.1-2.4,2.4c0,1.3,1.1,2.4,2.4,2.4c1.3,0,2.4-1.1,2.4-2.4C41.4,65.1,40.4,64,39,64"/>
	<path class="st0" d="M39.7,66.8c0,0.3-0.3,0.5-0.6,0.5c-0.5,0-0.8-0.4-0.8-0.9c0-0.5,0.3-0.9,0.7-0.9c0.3,0,0.6,0.2,0.6,0.5h0.3
		c-0.1-0.5-0.5-0.8-1-0.8c-0.7,0-1.1,0.5-1.1,1.2c0,0.7,0.4,1.2,1.1,1.2c0.5,0,0.9-0.3,1-0.8H39.7z"/>
	<path class="st0" d="M83.2,72.1c0,1.1-0.9,2-2,2c-1.1,0-2-0.9-2-2c0-1.1,0.9-2,2-2C82.3,70.1,83.2,71,83.2,72.1 M81.2,69.7
		c-1.3,0-2.4,1.1-2.4,2.4c0,1.3,1.1,2.4,2.4,2.4c1.3,0,2.4-1.1,2.4-2.4C83.5,70.8,82.5,69.7,81.2,69.7"/>
	<path class="st0" d="M80.7,72.3h0.4l0.6,1h0.4l-0.6-1c0.3,0,0.6-0.2,0.6-0.6c0-0.5-0.3-0.6-0.8-0.6h-0.9v2.3h0.4V72.3 M80.7,72
		v-0.7h0.5c0.2,0,0.5,0.1,0.5,0.3c0,0.4-0.3,0.4-0.6,0.4H80.7z"/>
</g>
</svg>
