<?xml version="1.0" encoding="utf-8"?>
<!-- Generator: Adobe Illustrator 19.0.0, SVG Export Plug-In . SVG Version: 6.00 Build 0)  -->
<!DOCTYPE svg PUBLIC "-//W3C//DTD SVG 1.1//EN" "http://www.w3.org/Graphics/SVG/1.1/DTD/svg11.dtd">
<svg version="1.1" id="Ebene_1" xmlns="http://www.w3.org/2000/svg" xmlns:xlink="http://www.w3.org/1999/xlink" x="0px" y="0px"
	 width="293px" height="100px" viewBox="-22 271 293 100" style="enable-background:new -22 271 293 100;" xml:space="preserve">
<style type="text/css">
	.st0{fill:#11586C;}
</style>
<g>
	<path class="st0" d="M120.6,331.5v0.2c0,1.7,1.1,2.7,2.6,2.8c2,0,3.4-1.4,3.4-3.6V329c-0.7-0.3-1.7-0.6-2.8-0.6
		C121.8,328.4,120.6,329.6,120.6,331.5z"/>
	<path class="st0" d="M100,320.9c-2.3,0-4,2.3-4,5.7v0.6c0,3.4,1.7,5.7,4,5.7c2.3,0,4-2.3,4-5.7v-0.6
		C104.1,323.1,102.4,320.9,100,320.9z"/>
	<path class="st0" d="M50.3,320.2c-1.9,0-3.2,1.6-3.5,4.8h7C53.5,321.9,52.2,320.2,50.3,320.2z"/>
	<path class="st0" d="M74.6,320.9c-2.6,0-4.1,2.4-4.1,5.8v0.4c0,3.4,1.6,5.9,4.2,5.9c2.6,0,4.1-2.4,4.1-5.8v-0.4
		C78.7,323.3,77.1,320.9,74.6,320.9z"/>
	<path class="st0" d="M25.6,326.1h-4.8v6.3h4.8c2.6,0,4.1-1.1,4.1-3.1v0C29.7,327.3,28.3,326.1,25.6,326.1z"/>
	<path class="st0" d="M28.7,317.1L28.7,317.1c0-2-1.4-3-3.8-3h-4.1v6h3.9C27.3,320.1,28.7,319.1,28.7,317.1z"/>
	<path class="st0" d="M209,320.2c-1.9,0-3.2,1.6-3.5,4.8h7C212.2,321.9,210.9,320.2,209,320.2z"/>
	<path class="st0" d="M4.9,299.3v47.8H244v-47.8H4.9z M38,330.4c0,5.5-4.3,8.9-11.8,8.9H12.8v-32h13.3c3.8,0,6.8,0.9,8.7,2.8
		c1.3,1.3,2.1,3,2.1,5.3v0.2c0,3.7-2.1,5.9-4.8,7c3.4,1.3,5.9,3.4,5.9,7.6V330.4z M61.2,329.5H46.8c0.6,2.7,2.4,4,4.8,4
		c2,0,3.6-0.9,5.1-2.3l3.8,4.6c-2.3,2.5-5.3,4.1-9.5,4.1c-7,0-12-4.8-12-12.6v-0.5c0-7.4,4.7-12.8,11.2-12.8c7.3,0,11,5.7,11,13.2
		C61.2,327.5,61.2,328.8,61.2,329.5z M86.6,327.2c0,7.3-5,12.6-12.1,12.6c-6.9,0-11.9-5.3-11.9-12.6v-0.7c0-7.3,5-12.6,12-12.6
		c6.9,0,12,5.3,12,12.6V327.2z M112,327.2c0,8.4-4.3,12.5-9.2,12.5c-3.3,0-5.2-1.6-6.6-3.5v3h-8v-33.1h8v11.5c1.5-2,3.3-3.7,6.6-3.7
		c4.9,0,9.2,4.1,9.2,12.4V327.2z M134.4,339.2h-8v-2.5c-1.5,1.9-3.5,3-6.3,3c-4.1,0-7.2-2.7-7.2-7.5v-0.3c0-5.3,3.4-7.8,8.5-7.8
		c2,0,3.8,0.4,5.1,1v-0.6c0-2.5-1.5-3.8-4.3-3.8c-2.4,0-4.3,0.7-5.9,1.4l-1.8-5.9c2.4-1.1,5.4-1.9,9-1.9c3.8,0,6.6,1,8.4,2.7
		c1.7,1.7,2.5,4.2,2.5,7.5V339.2z M147.5,339.8c-6.8,0-11.5-5.3-11.5-12.6v-0.5c0-7.3,4.8-12.8,11.8-12.8c3.9,0,6.8,1.6,8.8,4.2
		l-4.7,5c-1-1.3-2.1-2.1-3.8-2.1c-2.5,0-4.2,2.4-4.2,5.7v0.1c0,3.6,1.7,5.9,4.3,5.9c1.7,0,2.8-0.9,3.9-2.1l4.6,4.7
		C154.6,338.1,151.7,339.8,147.5,339.8z M179.8,339.2h-8v-14.6c0-2.3-1.1-3.5-2.8-3.5c-1.7,0-3,1.2-3,3.5v14.6h-8v-33.1h8v11.6
		c1.4-2,3.4-3.7,6.5-3.7c4.6,0,7.3,3.2,7.3,8.2V339.2z M196.8,320.9h-4.8v9.7c0,1.5,0.7,2.1,2.1,2.1c0.9,0,1.8-0.2,2.7-0.6v6.3
		c-1.4,0.8-3.3,1.3-5.4,1.3c-4.5,0-7.4-1.9-7.4-7.2v-11.6h-2.5v-6.4h2.5v-6.2h8v6.2h4.8V320.9z M219.9,329.5h-14.4
		c0.6,2.7,2.4,4,4.8,4c2,0,3.6-0.9,5.1-2.3l3.8,4.6c-2.3,2.5-5.3,4.1-9.5,4.1c-7,0-12-4.8-12-12.6v-0.5c0-7.4,4.7-12.8,11.2-12.8
		c7.3,0,11,5.7,11,13.2C219.9,327.5,219.9,328.8,219.9,329.5z M236.1,322.9h-0.5c-3.9,0-6,2.3-6,7.3v9h-8v-24.7h8v4.5
		c1.2-3.1,3.1-5,6.6-4.8V322.9z"/>
</g>
</svg>
