<?xml version="1.0" encoding="utf-8"?>
<!-- Generator: Adobe Illustrator 19.0.0, SVG Export Plug-In . SVG Version: 6.00 Build 0)  -->
<!DOCTYPE svg PUBLIC "-//W3C//DTD SVG 1.1//EN" "http://www.w3.org/Graphics/SVG/1.1/DTD/svg11.dtd">
<svg version="1.1" id="Ebene_1" xmlns="http://www.w3.org/2000/svg" xmlns:xlink="http://www.w3.org/1999/xlink" x="0px" y="0px"
	 width="301px" height="100px" viewBox="8 271 301 100" style="enable-background:new 8 271 301 100;" xml:space="preserve">
<style type="text/css">
	.st0{fill:#11586C;}
	.st1{opacity:0.7;}
</style>
<g>
	<g>
		<path class="st0" d="M43.9,331c-1.1-1.5-3.3-5-5.1-7.8c-0.4-0.5-0.6-0.7-0.9-0.7c0,0-0.1,0-0.3,0v4.1c0,2.5,0.3,2.6,2.5,3v1.2
			H30.2v-1.2c2.4-0.4,2.6-0.4,2.6-3v-18.1c0-2.2-0.3-2.5-2.4-2.7v-1.1c1.8-0.3,4.6-0.7,7.3-1.4v17.9c0.9-0.2,1.7-0.9,2.3-1.5
			c0.9-1,1.8-2.5,2.3-3.4c0.4-0.8,0.4-1.3-1.1-1.6v-1.1l8.5-0.4v1.1c-2.5,0.4-3.8,1-4.9,2c-1.1,1.1-1.7,1.8-2.7,3.2
			c1.1,1.8,4.5,6.4,5.7,7.9c1.2,1.4,1.9,1.8,3.3,2v1.2L43.9,331z"/>
		<path class="st0" d="M51,330.9v-1.2c2.3-0.4,2.5-0.5,2.5-3.1v-17.9c0-2.4-0.2-2.5-2.4-2.7v-1.1c2.3-0.3,5.2-0.8,7.4-1.4v23.2
			c0,2.6,0.3,2.8,2.6,3.1v1.2H51z"/>
		<path class="st0" d="M62.6,330.9v-1.2c2.3-0.3,2.5-0.4,2.5-3.2v-7.8c0-2.6-0.3-2.7-2.2-3v-1.1c2.4-0.3,4.9-0.8,7.1-1.4v13.3
			c0,2.7,0.2,2.9,2.5,3.2v1.2L62.6,330.9L62.6,330.9z M64.6,307.9c0-1.6,1.3-2.7,2.8-2.7c1.6,0,2.8,1.1,2.8,2.7
			c0,1.5-1.2,2.7-2.8,2.7C65.9,310.6,64.6,309.4,64.6,307.9z"/>
		<path class="st0" d="M96.2,330.9v-1.2c1.8-0.3,2-0.4,2-2.9v-6.7c0-3.2-1.5-3.9-2.8-3.9c-0.8,0-1.8,0.3-3.1,1.3
			c0,0.4,0.1,1,0.1,1.6v7.9c0,2.3,0.3,2.5,2,2.6v1.2h-9v-1.2c1.8-0.3,2-0.4,2-2.6v-7.1c0-2.8-1.2-3.7-2.7-3.7c-1,0-1.9,0.4-3,1.2
			v9.5c0,2.3,0.3,2.5,1.8,2.6v1.2h-9.2v-1.2c2.3-0.3,2.5-0.4,2.5-2.9v-8.2c0-2.3-0.2-2.6-2-2.9v-1.1c1.8-0.3,4.5-0.8,6.9-1.5v3
			c0.9-0.6,1.6-1.1,2.5-1.7c1.2-0.8,2.3-1.2,3.4-1.2c2.2,0,3.8,1.3,4.5,3.1c1-0.8,1.8-1.3,2.8-2c0.9-0.6,1.9-1.1,3.1-1.1
			c3.4,0,5.3,2.3,5.3,6.3v7.5c0,2.3,0.2,2.4,2.3,2.6v1.2h-9.2V330.9z"/>
		<path class="st0" d="M120,331.4c-1.1,0-1.8-0.4-2.4-0.8c-0.5-0.4-0.8-1-1.1-1.5c-1.5,1-3.3,2.3-4.1,2.3c-3.3,0-5.3-2.6-5.3-5
			c0-2,1-3,3-3.8c2.3-0.9,5.3-1.8,6.2-2.6v-1.1c0-2.5-1-3.9-2.4-3.9c-0.5,0-1,0.3-1.3,0.7c-0.4,0.5-0.8,1.5-1.1,2.7
			c-0.3,1.1-0.8,1.3-1.7,1.3c-1.1,0-2.5-1-2.5-1.9c0-0.7,0.4-1.2,1.4-1.8c1.5-1.1,4.3-2.4,6.5-2.8c1.6,0,2.8,0.4,3.9,1.1
			c1.7,1.3,2,3,2,5.2v6.5c0,1.8,0.6,2.3,1.2,2.3c0.4,0,0.9-0.2,1.3-0.4l0.4,1.2L120,331.4z M116.5,321.6c-0.7,0.4-1.4,0.8-2.2,1.2
			c-1.2,0.6-1.8,1.3-1.8,2.6c0,2.2,1.5,3,2.4,3c0.5,0,1-0.2,1.7-0.6V321.6z"/>
	</g>
	<g class="st1">
		<path class="st0" d="M128.4,313.8v-0.9c0-1.2,0.2-2.4,0.4-3.2c0.3-0.9,0.9-2.8,3-4.6c1.4-1.2,2.8-1.9,4.3-2.1
			c1.3,0,2.5,0.6,3.1,1.3c0.4,0.4,0.4,1,0.2,1.4c-0.1,0.4-0.4,0.6-0.8,1c-0.4,0.3-0.7,0.3-1.1-0.1c-0.8-0.7-1.8-1.5-3.2-1.5
			c-1.1,0-1.7,0.4-2.1,1.1c-0.5,0.8-1,2.6-0.9,6v1.6h4.6c0.3,0.4,0,1.3-0.4,1.5h-4.2v11.3c0,2.9,0.3,3,3.4,3.3v1h-9.3v-1.1
			c2.5-0.3,2.8-0.4,2.8-3v-11.6h-2.7l-0.2-0.4l1.1-1.1L128.4,313.8L128.4,313.8z"/>
		<path class="st0" d="M143.5,317.4c1.1-1.9,2.9-4.1,4.7-4.1c1.3,0,2.3,1.1,2.3,1.9c0,0.8-0.5,1.6-1.2,1.9c-0.4,0.2-0.8,0.2-1.1-0.1
			c-0.5-0.6-1.1-0.8-1.7-0.8c-1.1,0-2.3,1.1-3.2,3.3v7.2c0,2.6,0.2,2.8,3.2,3.1v1.1h-9v-1.1c2.5-0.3,2.7-0.4,2.7-3.1v-8.1
			c0-2.6-0.2-2.7-2.5-3.1v-0.9c1.9-0.4,3.7-0.8,5.5-1.6L143.5,317.4L143.5,317.4z"/>
		<path class="st0" d="M165.9,327.6c-2.5,3.1-5.2,3.8-6.4,3.8c-4.8,0-7.6-3.9-7.6-8.3c0-2.7,1-5.1,2.6-6.8c1.6-1.8,3.8-2.9,5.8-2.9
			c3.2,0,5.9,2.9,5.9,6c0,0.8-0.2,1.1-0.9,1.2c-0.7,0.1-5.6,0.5-10.2,0.7c0,5.3,3.1,7.5,5.9,7.5c1.6,0,3.1-0.6,4.5-1.9L165.9,327.6z
			 M155.2,319.6c2.2,0,4.4,0,6.7-0.1c0.7,0,1-0.3,1-0.8c0-2-1.3-3.9-3.4-3.9C157.5,314.7,155.8,316.4,155.2,319.6z"/>
		<path class="st0" d="M187.4,330c-1.8,0.3-3.8,0.8-5.8,1.4l-0.3-0.3v-2.8c-0.9,0.7-1.8,1.4-2.9,2c-1.1,0.7-1.9,1-3,1
			c-2.6,0-4.9-1.6-4.9-5.9v-7.7c0-2.2-0.2-2.3-2.4-2.7v-0.9c1.8-0.1,3.8-0.4,5.6-0.7c-0.1,1.2-0.1,3.1-0.1,5.7v5.3
			c0,3.5,1.7,4.5,3.4,4.5c1.4,0,2.9-0.6,4.2-1.8v-9.1c0-2.3-0.3-2.4-3.1-2.8v-0.9c2-0.1,4.1-0.3,6.1-0.7v13.1c0,1.9,0.4,2.3,1.8,2.3
			l1.1,0.1L187.4,330L187.4,330z"/>
		<path class="st0" d="M200.2,330.9v-1.1c2.3-0.3,2.6-0.5,2.6-3.2v-6.6c0-2.7-1-4.5-3.6-4.5c-1.6,0-3.1,1-4.3,2v9.2
			c0,2.6,0.3,2.8,2.5,3.1v1.1H189v-1.1c2.6-0.3,2.9-0.4,2.9-3.1v-8.1c0-2.5-0.3-2.6-2.4-3v-0.9c1.8-0.4,3.8-0.8,5.4-1.6v3.2
			c0.8-0.6,1.7-1.1,2.6-1.8c1.1-0.7,2.1-1.1,3.2-1.1c3.1,0,5.1,2.2,5.1,6v7.5c0,2.6,0.2,2.8,2.5,3.1v1.1L200.2,330.9L200.2,330.9z"
			/>
		<path class="st0" d="M229.6,329.9c-0.9,0.2-3.8,0.7-6,1.5v-2.5l-2.4,1.4c-1.5,0.9-2.6,1.1-3.1,1.1c-3.2,0-7.3-2.9-7.3-8.3
			c0-5.4,4.8-9.7,10.2-9.7c0.5,0,1.7,0.1,2.6,0.4v-5.5c0-2.6-0.2-2.7-3-2.9v-1c2-0.3,4.6-0.9,6.1-1.4v23.4c0,2,0.3,2.3,1.8,2.4
			l1.2,0.1v1.1H229.6z M223.5,316.7c-1-1.4-2.5-2-4-2c-1.8,0-5.1,1.5-5.1,7.2c0,4.6,2.9,6.9,5.3,6.9c1.4,0,2.8-0.6,3.8-1.3V316.7z"
			/>
		<path class="st0" d="M230.6,330.9v-1.1c2.5-0.3,2.8-0.4,2.8-3.1v-18.6c0-2.6-0.3-2.8-2.7-3v-1c2-0.3,4.5-0.9,5.8-1.4v23.8
			c0,2.6,0.4,2.8,2.8,3.1v1.1L230.6,330.9L230.6,330.9z"/>
		<path class="st0" d="M241.2,330.9v-1.1c2.5-0.3,2.7-0.4,2.7-3.2v-8.1c0-2.5-0.1-2.6-2.5-3v-1c2-0.4,3.9-0.8,5.6-1.5v13.5
			c0,2.6,0.3,2.9,2.8,3.2v1.1H241.2z M243.3,307.9c0-1.1,1-2,2-2c1.1,0,1.9,0.9,1.9,2c0,1.1-0.9,2-2,2
			C244.3,309.9,243.3,308.9,243.3,307.9z"/>
		<path class="st0" d="M266.5,327.4c-1.8,2.3-4.4,4-6.7,4c-4.9,0-7.9-4-7.9-8.2c0-3,1.3-5.6,3.9-7.7c2-1.6,4.4-2.2,6-2.2
			s2.9,0.5,3.5,1.1c0.5,0.4,0.6,0.8,0.6,1.2c0,0.8-0.9,1.7-1.3,1.7c-0.2,0-0.4-0.1-0.8-0.4c-1.1-1.1-2.5-1.6-3.9-1.6
			c-2.6,0-4.9,2.2-4.9,6.3c0,5.4,3.8,7.3,6,7.3c1.7,0,3-0.4,4.8-2.2L266.5,327.4z"/>
		<path class="st0" d="M278.9,330.9v-1.1c2.3-0.3,2.6-0.4,2.6-3v-6.5c0-3.2-1.2-4.8-3.9-4.8c-1.5,0-3,0.8-4.1,2v9.4
			c0,2.5,0.2,2.8,2.5,3v1.1h-8.3V330c2.4-0.2,2.7-0.4,2.7-3v-18.8c0-2.5-0.1-2.6-2.6-2.9v-0.9c1.8-0.3,4.2-0.9,5.8-1.4v13.1
			c1.4-1.4,3.5-2.9,5.6-2.9c3.2,0,5.4,2,5.4,6.7v6.8c0,2.6,0.3,2.8,2.6,3v1.1L278.9,330.9L278.9,330.9z"/>
	</g>
	<g>
		<path class="st0" d="M35.7,337c-0.6-0.3-1.2-0.4-1.9-0.4c-0.6,0-1.5,0.3-1.5,1.3c0,1.7,4.1,1,4.1,4.2c0,2.1-1.6,2.9-3.5,2.9
			c-1.1,0-1.5-0.2-2.4-0.4l0.2-1.8c0.6,0.4,1.4,0.6,2.1,0.6c0.7,0,1.7-0.4,1.7-1.2c0-1.8-4.1-1.1-4.1-4.3c0-2.2,1.6-3,3.2-3
			c0.8,0,1.6,0.1,2.3,0.4L35.7,337z"/>
		<path class="st0" d="M45.2,344.7c-0.7,0.2-1.4,0.3-2.1,0.3c-3.1,0-5.2-1.6-5.2-4.8c0-3.3,1.9-5.2,5.2-5.2c0.6,0,1.4,0.1,2.1,0.4
			l-0.2,1.7c-0.7-0.4-1.3-0.5-2-0.5c-1.9,0-3.2,1.5-3.2,3.5c0,1.9,1.1,3.4,3.2,3.4c0.7,0,1.6-0.2,2-0.4L45.2,344.7z"/>
		<path class="st0" d="M46.8,335.2h1.8v3.9h3.8v-3.9h1.9v9.7h-1.8v-4.2h-3.8v4.2h-1.8L46.8,335.2L46.8,335.2z"/>
		<path class="st0" d="M55.8,335.2h1.9l1.8,7.7l0,0l1.6-7.7h2.5l1.7,7.7l0,0l1.8-7.7h1.8l-2.5,9.7h-2.5l-1.7-7.7l0,0l-1.7,7.7h-2.5
			L55.8,335.2z"/>
		<path class="st0" d="M70.4,335.2h5.5v1.5h-3.7v2.4h3.3v1.5h-3.3v2.7h3.7v1.5h-5.5V335.2z"/>
		<path class="st0" d="M77.9,335.2h1.8v9.7h-1.8V335.2z"/>
		<path class="st0" d="M81.4,343.3l4.4-6.6h-4.2v-1.5h6.2v1.6l-4.5,6.6h4.6v1.5h-6.5V343.3z"/>
	</g>
	<g>
		<path class="st0" d="M93.4,344.8v-1.7c0.9-0.9,4-3.6,4-5.4c0-0.9-0.8-1.3-1.5-1.3c-0.8,0-1.6,0.4-2.2,0.8l-0.2-1.6
			c0.9-0.4,1.8-0.7,2.8-0.7c1.8,0,2.9,1,2.9,2.8c0,2-2,3.9-3.5,5.5h3.9v1.5L93.4,344.8L93.4,344.8z"/>
		<path class="st0" d="M101,340c0-2.5,0.7-5.1,3.2-5.1c2.7,0,3.2,2.8,3.2,5.1s-0.5,5-3.2,5C101.3,345,101,342,101,340z M105.6,340
			c0-1.2,0-3.6-1.4-3.6c-1.4,0-1.4,2.4-1.4,3.6c0,1.2,0,3.5,1.4,3.5C105.6,343.6,105.6,341.2,105.6,340z"/>
		<path class="st0" d="M112,335.2h1.7v9.7h-1.8v-7.4l-1.6,1.3l-1-1.2L112,335.2z"/>
	</g>
	<g>
		<path class="st0" d="M122.5,336.6h-3.6v2.1c0.2,0,0.5-0.1,0.9-0.1c1.3,0,3,0.6,3,3.2c0,1.8-1.2,3.3-3.7,3.3
			c-0.7,0-1.6-0.1-2.2-0.3v-1.8c0.4,0.2,1.1,0.5,1.9,0.5c1,0,2-0.4,2-1.7s-1.1-1.7-2.1-1.7c-0.6,0-1.1,0.1-1.7,0.3l0.1-5.2h5.3
			V336.6z"/>
	</g>
</g>
</svg>
