<?xml version="1.0" encoding="utf-8"?>
<!-- Generator: Adobe Illustrator 19.0.0, SVG Export Plug-In . SVG Version: 6.00 Build 0)  -->
<!DOCTYPE svg PUBLIC "-//W3C//DTD SVG 1.1//EN" "http://www.w3.org/Graphics/SVG/1.1/DTD/svg11.dtd">
<svg version="1.1" id="Ebene_1" xmlns="http://www.w3.org/2000/svg" xmlns:xlink="http://www.w3.org/1999/xlink" x="0px" y="0px"
	 width="335px" height="100px" viewBox="-22 271 335 100" style="enable-background:new -22 271 335 100;" xml:space="preserve">
<style type="text/css">
	.st0{fill:#11586C;}
</style>
<path class="st0" d="M19.1,337.8H6.2v-29.3h12.9c2.9,0,5.3,2.4,5.3,5.3v18.7C24.5,335.4,22,337.8,19.1,337.8 M17.3,314.5h-3.7v16.9
	h3.7V314.5z M27.4,308.5h7.2v29.3h-7.2V308.5z M44.9,314.8v4.9H52v6.2h-7.1v5.6h8.6v6.4H37.9v-29.3h15.5v6.4H44.9z"/>
<path class="st0" d="M72.1,338.7c-8.6,0-15.6-7-15.6-15.6c0-8.6,7-15.6,15.6-15.6c8.7,0,15.7,7,15.7,15.6
	C87.8,331.7,80.8,338.7,72.1,338.7 M86.7,323.5c-0.2,0.8-1.1,2.1-1.6,2.4c-0.1-1.4-0.4-2.9-0.9-4.3c-0.1,0.2-0.3,0.6-0.3,0.7
	c0.5,1.4,0.7,2.4,0.9,3.9c-0.8,0.7-2,1.4-3.1,1.7c0-1.6-0.1-3.2-0.4-4.5c2.9-1.2,4.9-3.8,4.3-6.4c0,0.5-0.1,1.2-0.3,1.5
	c-0.6-1.2-1.9-2.4-3-3.5c0.1-0.7,0.1-1.1-0.1-1.7c0.2,0.2,0.3,0.5,0.5,0.7c1.1,0.6,2.4,1.7,2.8,2.5h0c-0.3-1.3-1.6-3.3-3.4-4.8
	c-6-5.4-14.1-4.5-19.1-0.9c-5.3,3.8-7.8,11.2-5.2,17.8c0.4,1,0.7,1.4,1.4,2.3c0,0.3,0.2,0.8,0.4,1c0-0.1,0-0.3-0.1-0.5
	c4,4.8,12,6.1,13.3,5.7v0c-2.7-0.2-6.8-1.4-9.2-3c0-0.7,0.1-1.5,0.2-2.5c-0.1-0.2-0.3-0.4-0.4-0.5c-0.2,0.9-0.3,1.8-0.3,2.7
	c-1.3-0.7-3.1-2.2-3.7-3.1c-0.1-0.7,0-1.7,0.2-2.5c-0.1-0.2-0.1-0.4-0.1-0.7c2.7,3,6.4,4.8,9.8,5.7c6.3,1.8,12.7,0.1,14.5-2
	c-1.2,0.8-2.2,1.2-2.8,1.4c0.4-1.3,0.6-2.8,0.6-4.1c-0.1,0.1-0.4,0.4-0.4,0.5c0,1.3-0.2,2.5-0.5,3.7c-1.6,0.5-3,0.7-5,0.8
	c0.5-1.7,0.8-2.9,1-4.1c-0.2,0.1-0.6,0.4-0.6,0.4c-0.1,1.2-0.5,2.5-0.8,3.6c-3,0-7.3-0.8-11.1-3c0.3-1.2,0.7-2.2,1.1-3.4
	c-0.1-0.2-0.2-0.5-0.3-0.7c4.8,2.7,11.1,3.8,16,2.2C83.8,327.8,86.5,325.9,86.7,323.5L86.7,323.5z M59.2,330.1
	c-0.3-0.6-0.6-1-0.8-1.6c-0.6-1.4-0.7-2.8-0.8-4.2c0.5,1.2,1.2,2.1,2,3C59.3,328.2,59.2,329.1,59.2,330.1 M57.6,321.8
	c0-1.5,0.4-3.3,1.2-4.8c0,0.5,0,1.4,0.2,2C58.6,319.6,57.9,320.8,57.6,321.8 M59.7,326.5c-0.7-0.9-1.6-2.3-1.9-3.5
	c0.2-0.8,0.7-1.9,1.2-2.8c0-0.3,0-0.5,0.1-0.7c0.5,1.4,1.1,2.5,2,3.5C60.5,324.2,60,325.2,59.7,326.5 M58.6,318.1
	c-0.2,0.6-0.4,1.2-0.5,1.8c0.2-0.4,0.4-0.7,0.6-1C58.6,318.6,58.6,318.4,58.6,318.1 M59,321.4c-0.3,0.5-0.6,1.3-0.7,1.7
	c0.3,0.9,0.7,1.7,1.1,2.3c0.1-0.3,0.4-0.5,0.6-0.7C59.5,323.6,59.2,322.6,59,321.4 M59.7,318.1c-0.2-1-0.2-2,0-2.4
	c0.4-0.5,1.5-1.5,2.4-2c0.1-0.1,0.2-0.3,0.4-0.5c-0.1,0.6-0.1,1.3,0,2.1C61.2,316.3,60.6,316.9,59.7,318.1 M62,314.6
	c-0.7,0.3-1.4,0.8-2.1,1.4c0,0.3,0,0.8,0,1.3c0.6-0.7,1.4-1.4,2.1-2C62,315,62,314.9,62,314.6 M61.6,322.2c-0.7-0.9-1.3-1.9-1.7-3.2
	c0.8-1,1.5-1.7,2.5-2.5c0-0.2,0-0.4,0.1-0.6c0.3,1.1,0.9,2.1,1.5,2.8C63.4,319.5,62.3,321,61.6,322.2 M60.1,322.3
	c0.1,0.5,0.2,0.7,0.3,1.2c0.1-0.2,0.1-0.3,0.2-0.4C60.4,322.7,60.4,322.6,60.1,322.3 M63.8,330.1c-1.4-0.9-2.8-2.1-3.6-3.1
	c0.3-1,0.8-2.2,1.3-3c0-0.3,0-0.4,0-0.7c1,1.1,2,2,3.6,3C64.5,327.6,64.1,328.7,63.8,330.1 M60.4,329.9v0.6c0.3,0.4,1.1,1.1,1.6,1.5
	v-0.5C61.5,331.1,60.8,330.4,60.4,329.9 M62.6,318.6c-0.7,0.2-1.5,0.6-2.1,1c0.2,0.7,0.6,1.3,1,1.8c0.4-0.6,0.7-1.1,1.1-1.6
	C62.6,319.5,62.6,319.1,62.6,318.6 M60.5,329c0.2,0.5,1.2,1.3,1.7,1.7c0,0,0.1-0.1,0.1-0.2C61.9,330.1,60.9,329.3,60.5,329
	 M60.8,326.7c0,0.1,0,0.2-0.1,0.4c0.2,0.2,0.6,0.7,0.8,0.8C61.3,327.5,61.1,327.1,60.8,326.7 M62.5,317c-0.3,0.3-0.9,0.9-1.3,1.3
	c0.3-0.1,1.1-0.4,1.4-0.5v-0.4L62.5,317z M62.6,312.5c-0.4,0.2-0.9,0.5-1.3,0.8h0c0.4-0.5,1.1-1.2,1.6-1.6
	C62.8,312,62.6,312.3,62.6,312.5 M63.8,326c-0.6-0.4-1.3-1-1.8-1.4c-0.2,0.1-0.3,0.2-0.5,0.4c-0.1,0.1-0.2,0.4-0.2,0.6
	c0.6,1.3,1.3,2.5,2.2,3.6l0,0c0.2-0.5,0.5-1.4,0.7-2C64,326.7,63.9,326.4,63.8,326 M65.3,325.5c-1.3-0.9-2.2-1.7-3.2-2.8
	c0.8-1.4,1.4-2.1,2.3-3.2c0-0.2,0-0.4,0-0.6c0.8,1,1.8,1.8,2.8,2.4C66.6,322.7,65.9,324,65.3,325.5 M62.9,322.4
	c0,0.1-0.1,0.2-0.2,0.4c0,0,0.1,0.1,0.1,0.1c0.1,0,0.2,0,0.2-0.1C63,322.7,63,322.6,62.9,322.4 M67.3,312.6c-1.5,0.6-3,1.4-3.9,2
	c-0.1-0.6,0-1.3,0.1-1.7c1.2-0.6,2.4-0.9,3.5-1.2c0.1-0.1,0.2-0.2,0.3-0.3C67.2,311.8,67.2,312.3,67.3,312.6 M63.9,335l-0.4-0.4
	c0,0.3,0.2,0.9,0.6,1.2C64,335.6,63.9,335.3,63.9,335 M64.7,318c-0.5-0.7-1-1.5-1.2-2.3c1.1-0.8,2.4-1.4,3.6-2
	c0-0.2,0.1-0.4,0.2-0.5c0.1,0.5,0.4,1.1,0.8,1.5C66.9,315.7,65.8,316.7,64.7,318 M67.5,310.9c-1.1,0.2-2.4,0.6-3.7,1.1
	c0.1-0.4,0.6-1.1,1-1.4c0.4-0.2,2.1-0.4,2.8-0.4c0.1,0,0.2,0,0.3-0.1C67.6,310.4,67.5,310.7,67.5,310.9 M64.7,320.1
	c-0.4,0.4-0.7,0.7-0.9,1.2c0,0.4,0.1,0.9,0.2,1.4c0.9-0.2,1.6-0.3,2.4-0.4c0.1-0.2,0.2-0.4,0.3-0.6C66,321.2,65.2,320.6,64.7,320.1
	 M67.3,314c-1.1,0.5-2.2,1.1-3.3,1.8c0.1,0.4,0.4,1,0.7,1.3c0.1,0,0.2,0,0.2,0c0.7-0.8,1.9-1.8,2.8-2.5
	C67.5,314.4,67.4,314.3,67.3,314 M64.1,323.6c0,0.3,0.1,0.5,0.2,0.7c0.2,0.2,0.5,0.5,0.7,0.6c0.2-0.5,0.5-1,0.7-1.6
	C65.3,323.3,64.6,323.4,64.1,323.6 M64.3,333.1v0.4c0.3,0.1,1.1,0.4,1.6,0.5C65.6,333.8,64.6,333.3,64.3,333.1 M66.9,312.2
	c-0.4,0.1-1.8,0.5-2.5,0.8c0.7-0.1,1.7-0.3,2.2-0.4c0.1,0,0.2-0.1,0.3-0.1V312.2z M64.6,331.8c0,0.1,0,0.3,0,0.4
	c0.3,0.2,1.4,0.9,2.1,1.1h0C66,332.9,64.9,332.2,64.6,331.8 M65.2,329.5c-0.1,0.3-0.2,0.6-0.2,0.8c0.2,0.1,0.6,0.3,0.8,0.4
	C65.5,330.4,65.4,329.9,65.2,329.5 M65.3,310.9c0,0.1-0.1,0.2-0.2,0.3c0.7-0.2,1.5-0.4,2.1-0.6l0-0.1
	C66.6,310.5,65.8,310.7,65.3,310.9 M67.6,320.7c-0.8-0.6-1.8-1.4-2.4-2.1c1.4-1.4,2.5-2.4,3.3-2.9v-0.7c0.5,0.6,1,1,1.7,1.5
	C69.3,317.9,68.5,319.1,67.6,320.7 M66,327.4c-0.1,0.2-0.2,0.5-0.3,0.7c0.4-0.1,0.9-0.2,1.4-0.2C66.7,327.7,66.3,327.5,66,327.4
	 M66.8,317.7c-0.3,0.3-0.7,0.6-1,1c0.3,0.3,0.8,0.8,1.4,1.2c0-0.7,0.1-1.5,0.2-2.2H66.8z M76.6,324.6c0,1.4-0.1,2.8-0.3,4.2
	c-3.5,0-7.6-1.1-10.4-2.8c0.5-1.1,1.2-2.6,1.8-3.5c0-0.2-0.1-0.5-0.2-0.7c2.5,1.6,6.3,2.7,9.3,2.6C76.8,324.4,76.7,324.5,76.6,324.6
	 M67.4,328.8c-0.4,0-0.9,0.1-1.3,0.2c0.3,0.7,0.8,1.7,1.3,2.4c0.2,0.1,0.4,0.1,0.6,0.2C67.7,330.7,67.5,329.7,67.4,328.8
	 M67.1,324.8c-0.1,0.3-0.3,0.7-0.5,1c0.2,0.1,0.4,0.2,0.6,0.3C67.1,325.8,67.1,325.1,67.1,324.8 M68.4,309.4c-0.4,0-1.1,0-1.5,0.2v0
	c0.4-0.2,1.6-0.6,2.1-0.6C68.9,309.1,68.6,309.3,68.4,309.4 M68.2,323.1h-0.1c0,1,0,2.4,0.1,3.5c0.3,0.1,1.1,0.5,2,0.7l0.2-0.7
	C69,326,68.2,324.6,68.2,323.1 M68.4,317.7c0,0.4-0.1,0.8-0.1,1.1c0.3-0.4,0.5-0.7,0.7-1.1C68.8,317.8,68.7,317.7,68.4,317.7
	 M68.4,312.3c0-0.2,0-0.5,0-0.7c0.9-0.2,2.5-0.4,3.4-0.3C70.7,311.5,69.1,311.9,68.4,312.3 M68.4,328.8c0.1,1,0.3,2.1,0.5,3.1l0.8-3
	C69.3,328.8,68.8,328.8,68.4,328.8 M76.3,318.8c0.1,1.3,0.3,2.8,0.3,4.7c-2.7,0-6.2-1.1-8.2-2.2c0.8-1.4,1.6-2.7,2.4-3.8
	c0-0.2,0-0.4-0.2-0.7c1.8,1.1,3.9,1.6,6,1.6C76.5,318.6,76.4,318.7,76.3,318.8 M68.8,316c0,0-0.1,0.1-0.1,0.1
	c-0.1,0.2-0.1,0.5-0.1,0.7c0.4,0,0.6,0,1,0.1c0-0.1,0.1-0.2,0.1-0.2C69.4,316.5,69.1,316.2,68.8,316 M69.1,314
	c-0.2-0.3-0.4-0.6-0.5-0.8c0.8-0.4,2.7-0.9,3.7-1.1C71.1,312.6,69.9,313.3,69.1,314 M68.7,310.7c0.1-0.2,0.2-0.3,0.3-0.5
	c0.8-0.1,2.2,0.1,2.8,0.3C70.8,310.4,69.5,310.5,68.7,310.7 M69,333.6l-0.3,1.2c-0.1,0.2,0.6,0.5,0.7,0.2l0.2-0.6
	C69.6,334.1,69.3,333.7,69,333.6 M71.6,323.9c-1-0.3-2-0.7-2.7-1.1c-0.1,1.1,0.6,2.1,1.7,2.6c1,0.5,2.4,0.2,2.9-0.2
	C73.2,324.8,72.5,324.2,71.6,323.9 M74.7,321.1c-0.5-0.3-1.2-0.1-1.6,0l0.5-1.8c0-0.3-0.4-0.8-0.7-0.9l-0.6,2.1
	c0-0.3-0.1-0.6-0.3-0.8c-1.2,0-2.3,0.7-2.8,1.5c1.2,0.7,3.4,1.5,5.7,1.7C75.2,322.4,75.1,321.6,74.7,321.1 M70.2,329.1l-0.8,3.2
	c0.2,0,0.5,0.1,0.7,0.2l0.7-2.6C70.8,329.6,70.4,329.3,70.2,329.1 M71,318c-0.4,0.6-0.8,1.1-1.4,2.2h0c0.7-0.7,1.8-1.1,2.7-1
	l0.2-0.9C72.1,318.2,71.4,318.1,71,318 M70.9,315.7c-0.4-0.3-0.9-0.7-1.2-0.9c1.1-0.8,2.2-1.6,3.5-2.1
	C72.5,313.5,71.6,314.7,70.9,315.7 M69.9,309.4c0.1-0.1,0.5-0.2,0.7-0.3c0.6,0.1,1.4,0.5,1.8,0.8C71.6,309.6,70.7,309.4,69.9,309.4
	 M70.3,314.9c0.1,0.1,0.3,0.2,0.4,0.3c0.4-0.6,1-1.2,1.3-1.5C71.6,314,70.7,314.5,70.3,314.9 M70.8,327l-0.1,0.5
	c0.1,0,0.5,0.2,0.7,0.2C71.4,327.4,71,327.2,70.8,327 M71.5,329.4l-0.7,2.9c0.6-0.7,1.4-1.5,1.9-2.3
	C72.3,329.7,71.8,329.5,71.5,329.4 M73.5,330.5c-0.6,0.7-1.3,1.6-1.9,2.2c0.1,0,0.4,0,0.6,0.1c0.8-0.4,1.6-0.9,2.3-1.4
	C74.2,331.1,73.7,330.7,73.5,330.5 M73.4,316.9c-0.6-0.2-1.1-0.4-1.6-0.7c0.8-1.1,1.6-2.2,2.5-3.1L73.4,316.9z M71.8,334.7
	c0.6,0.1,1.8,0.2,2.6,0.1c0.1-0.1,0.1-0.3,0.2-0.4C74,334.6,72.5,334.7,71.8,334.7 M75.6,325.1c-0.7,1.3-2.1,2.1-3.5,2l-0.2,0.7
	c0.6,0.1,1.4,0.2,2,0.3c0.7-1.1,1.4-2,1.9-3L75.6,325.1z M72,308.7c0.2,0,0.7,0,0.9,0c0.1,0.1,0.5,0.5,0.6,0.9
	C73.2,309.1,72.4,308.8,72,308.7 M72.2,335.6c0.5,0.2,1.4,0.4,1.8,0.4c0-0.1,0.1-0.2,0.2-0.3C73.8,335.7,72.6,335.6,72.2,335.6
	 M72.4,316.2c0.2,0.1,0.4,0.2,0.6,0.3l0.6-2C73.3,314.9,72.6,315.8,72.4,316.2 M75.1,332.1c-0.5,0.4-0.9,0.6-1.4,0.9
	c0.5,0,0.9,0.1,1.3,0.1c0-0.2,0.1-0.5,0.2-0.8C75.2,332.2,75.1,332.2,75.1,332.1 M74,329.8c0.5,0.3,0.8,0.7,1.2,1.1l0.3-0.2
	c0-0.2,0.1-0.5,0.1-0.7C75.1,329.9,74.6,329.9,74,329.8 M75.9,319.5c-0.5-0.2-1-0.4-1.6-0.6l-0.2,0.8c1.1,0.6,1.8,1.6,2,2.7
	C76.1,321.4,76,320.4,75.9,319.5 M75,334.6c-0.2,0.7-0.6,1.5-0.8,2.2c0.6-0.7,1.1-1.9,1.3-2.6C75.4,334.3,75.1,334.5,75,334.6
	 M74.3,317.2l1.1-3.8c0.3,1.3,0.6,2.8,0.8,4.2C75.5,317.4,74.9,317.3,74.3,317.2 M75.1,309.5c-0.1-0.3-0.5-0.7-0.7-0.9
	c0.2,0,0.7,0.1,0.9,0.1C75.2,309,75.2,309.2,75.1,309.5 M74.4,311.3c-0.1-0.2,0-0.4,0.1-0.6c-0.1,0.2,0,0.4,0.1,0.5
	c0.3,0.3,1.2,0.6,1.5,0.1c0.2-0.4-0.4-0.8-0.9-0.9c0.6,0,1.6,0.6,1.4,1.2C76.2,312.4,74.6,312.1,74.4,311.3 M75.3,314.9l-0.5,2.1
	c0.2,0,0.5,0.1,0.7,0.1C75.5,316.5,75.4,315.6,75.3,314.9 M75,328.3c0.3,0,0.6,0,0.8,0c0-0.5,0.1-1.1,0.1-1.6
	C75.7,327.2,75.3,327.8,75,328.3 M76.5,335.5c-0.1,0.3-0.3,0.6-0.4,0.7c0.7,0,1.9-0.2,2.7-0.4c0.2-0.3,0.5-0.7,0.7-1
	C78.6,335.2,77.4,335.5,76.5,335.5 M77,317.5c-0.1-1.4-0.3-2.9-0.7-4.1c0.9,1.2,1.9,2.9,2.3,3.9C78.1,317.4,77.6,317.5,77,317.5
	 M76.5,309.9c0.1-0.3,0.1-0.5,0.2-0.7c0.2,0.1,0.7,0.2,0.9,0.3C77.3,309.5,76.8,309.7,76.5,309.9 M80.2,329.4
	c-0.7,0.1-1.4,0.3-2.1,0.4c-0.4,0.4-0.6,0.5-1,0.9c-0.1,0.5-0.3,1.3-0.5,2.1c1.4-0.6,2.9-1.4,4.2-2.2
	C80.6,330.1,80.4,329.8,80.2,329.4 M76.7,334.4v0.3c0.8,0,2.8-0.6,3.1-0.9C78.8,334.1,77.8,334.3,76.7,334.4 M76.9,328.8
	c0.2-1.5,0.4-3,0.4-4.5c1.3-0.1,2.7-0.3,3.8-0.7c-0.1,0.1-0.2,0.4-0.2,0.5c0.3,1.4,0.4,2.9,0.4,4C79.9,328.5,78.4,328.8,76.9,328.8
	 M77.1,315.2c0.1,0.7,0.2,1.4,0.3,1.9c0.2,0,0.4,0,0.6-0.1C77.8,316.5,77.4,315.8,77.1,315.2 M77.4,323.5c0-1.4,0-3.3-0.2-5.1
	c0.8,0,1.6-0.2,2.3-0.4c-0.1,0.1-0.2,0.4-0.2,0.5c0.7,1.5,1.1,2.8,1.5,4.5C79.7,323.3,78.3,323.5,77.4,323.5 M79.4,317.1
	c-0.5-1.1-1.3-2.7-2.1-3.8c1.1,0.9,2.2,2.1,3.2,3.3C80.2,316.7,79.8,316.9,79.4,317.1 M77.6,326.4c0,0.6-0.1,1.2-0.2,1.9
	c0.4,0,0.6,0,0.9-0.1c0.2-0.2,0.4-0.4,0.6-0.7C78.5,327.1,78.1,326.8,77.6,326.4 M78.7,318.7c-0.4,0.1-0.8,0.1-1.1,0.2
	c0,0.1,0,0.3,0,0.4c0.3,0.2,0.5,0.3,0.8,0.5c0.1-0.3,0.3-0.6,0.4-0.8C78.8,318.8,78.8,318.7,78.7,318.7 M77.7,320.3
	c0,0.3,0,0.8,0,1.1c0.1-0.3,0.2-0.5,0.4-0.9C78,320.4,77.9,320.4,77.7,320.3 M80.4,324.2c-0.8,0.2-1.8,0.4-2.7,0.5l0,0.6
	c0.8,0.6,1.3,0.9,1.9,1.6c0.4-0.4,0.7-0.8,1-1.3C80.6,325.2,80.5,324.6,80.4,324.2 M77.8,310.6c0.3-0.2,0.9-0.5,1.1-0.5
	c0.2,0.1,0.7,0.3,0.9,0.6C79.3,310.6,78.4,310.5,77.8,310.6 M81.1,316c-0.7-0.9-2-2.3-3.1-3.1c1.3,0.6,2.7,1.5,3.6,2.3
	C81.6,315.5,81.4,315.8,81.1,316 M79.8,321.6c-0.2-0.1-0.5-0.4-0.8-0.6c-0.3,0.7-0.6,1.4-0.9,2c0.9,0,1.7-0.2,2.1-0.3
	C80,322.3,79.9,322,79.8,321.6 M78.5,311.5c0.7-0.1,1.7,0,2.4,0.3c0.2,0.2,0.5,0.6,0.6,0.8C80.8,312.2,79.5,311.7,78.5,311.5
	 M78.6,312.3c1.1,0.2,2.3,0.8,3.2,1.3c0.1,0.3,0.1,0.7,0,0.9C81.2,313.8,79.8,312.8,78.6,312.3 M78.7,332.9c0.7-0.1,1.2-0.2,1.7-0.4
	c0.1-0.2,0.1-0.4,0.1-0.6C80,332.2,79.5,332.5,78.7,332.9 M78.9,315.3c0.2,0.4,0.5,0.9,0.7,1.2c0,0,0-0.1,0.1-0.2
	C79.5,316,79.2,315.6,78.9,315.3 M81.3,322.8c-0.4-2-0.8-3.4-1.5-4.9c0.6-0.2,1-0.5,1.5-0.9c0,0.1,0,0.3,0,0.4
	c0.9,1.2,1.8,2.6,2.4,4C83,321.9,82.1,322.4,81.3,322.8 M80.5,333.7c-0.1,0.5-0.3,0.8-0.5,1.3c0.3-0.3,0.6-0.9,0.8-1.6
	C80.8,333.5,80.6,333.6,80.5,333.7 M80.8,327c-0.1,0.2-0.3,0.4-0.5,0.6l0.2,0.3c0.2,0,0.2,0,0.4-0.1C80.8,327.4,80.8,327.3,80.8,327
	 M80.9,317.8c-0.2,0.1-0.4,0.2-0.7,0.4c0.4,0.9,1,2.5,1.3,3.8c0.1,0,0.1,0,0.2,0.1c0.4-0.2,0.9-0.5,1.3-0.8
	C82.5,320,81.6,318.7,80.9,317.8 M81.8,334c0,0.1-0.1,0.4-0.2,0.5c0.5-0.3,1-0.7,1.4-1.2C82.6,333.6,82.2,333.8,81.8,334 M84,320.9
	c-0.7-1.6-1.5-2.9-2.4-4.3c0.4-0.4,0.6-0.7,0.7-1.4c0.1,0.2,0.1,0.4,0.2,0.7c1,0.9,1.8,1.9,2.6,3.1C85,319.6,84.5,320.3,84,320.9
	 M82.3,313.1c-0.2-0.4-0.4-0.7-0.6-1.1c0.2,0.1,0.4,0.3,0.6,0.5c0.6,0.4,1.7,1.5,2,2.1C83.8,314.1,83.2,313.6,82.3,313.1
	 M82.1,330.8c0,0.4,0,0.7,0,1c0.8-0.4,1.6-0.9,2.3-1.4c0.1-0.6,0.2-1.1,0.1-1.9C83.7,329.5,83,330.1,82.1,330.8 M82.7,324.4
	c-0.2,0.3-0.4,0.5-0.6,0.8c0.1,0.7,0.2,1.4,0.2,2.1c0.5-0.2,1-0.4,1.6-0.8C83.5,325.6,83.2,325.1,82.7,324.4 M82.4,316.3
	c0,0.1-0.1,0.2-0.2,0.3c0.8,0.6,1.4,1.2,2,1.7C83.8,317.6,82.9,316.7,82.4,316.3 M82.3,328.7c0,0.3,0,0.4,0,0.7
	c0.7-0.5,0.9-0.7,1.5-1.4C83.2,328.3,82.9,328.5,82.3,328.7 M84.7,316c-0.4-0.4-1.3-1.1-1.7-1.4c0,0.1,0,0.3,0,0.3
	c0.5,0.5,1.4,1.4,1.8,2C84.8,316.6,84.7,316.2,84.7,316 M83.2,318.5c0.2,0.3,0.7,1,0.8,1.4c0-0.1,0.1-0.4,0.2-0.5
	C84,319.2,83.5,318.7,83.2,318.5 M83.6,322.8c-0.1,0.2-0.3,0.6-0.4,0.8c0.3,0.4,0.9,1.2,1.2,1.7C84.3,324.6,83.9,323.4,83.6,322.8
	 M85.2,320.9c-0.1,0.2-0.3,0.5-0.5,0.7c0.4,1.2,0.7,2.1,0.8,3.3c0.4-0.4,0.7-0.9,0.8-1.5C86.1,322.6,85.7,321.6,85.2,320.9
	 M85.1,327.2c0,0.4,0,1.4-0.1,2.4c0.3-0.8,0.3-2.3,0.3-3C85.2,326.8,85,327.1,85.1,327.2 M85.8,326.8c0.1,0.7,0,1.4-0.1,2.3
	c0.7-1.1,1.2-2.6,1-4C86.4,326,86.1,326.3,85.8,326.8 M85.8,319.1c0,0.2-0.1,0.6-0.1,0.7c0.5,0.7,0.9,1.9,1.1,2.8
	C86.8,321.6,86.3,320.1,85.8,319.1 M86.1,318.2c0,0.3,0,0.5,0,0.7c0.2,0.4,0.4,0.9,0.6,1.3C86.6,319.5,86.3,318.7,86.1,318.2"/>
<path class="st0" d="M114.2,337.8h-8.3l-2.7-12.1l-2.8,12.1h-8.3l-1.7-29.3h7l0.4,18.2h0l2.8-12.2h5l2.7,12.2h0l0.4-18.2h7
	L114.2,337.8z M125.5,314.8v4.9h7.1v6.2h-7.1v5.6h8.6v6.4h-15.5v-29.3h15.5v6.4H125.5z M137,337.8v-29.3h7.2v22.8h8.3v6.5H137z
	 M162.8,314.9v22.9h-7.2v-22.9h-6.8v-6.4h20.6v6.4H162.8z M194.4,337.8h-8.3l-2.7-12.1l-2.8,12.1h-8.3l-1.7-29.3h7.1l0.4,18.2h0
	l2.8-12.2h5l2.7,12.2h0l0.4-18.2h7L194.4,337.8z M211.1,337.8h-7.4c-2.9,0-5.3-2.4-5.3-5.3v-18.7c0-2.9,2.4-5.3,5.3-5.3h7.4
	c2.9,0,5.3,2.4,5.3,5.3v18.7C216.4,335.4,214.1,337.8,211.1,337.8 M209.4,314.5h-3.9v16.9h3.9V314.5z M231.1,337.8h-6.7
	c-2.9,0-5.3-2.4-5.3-5.3v-18.7c0-2.9,2.4-5.3,5.3-5.3h6.7c3,0,5.4,2.4,5.4,5.3v5.5h-6.8v-4.8h-3.2v16.9h3.2v-4.7h6.8v5.7
	C236.5,335.4,234.1,337.8,231.1,337.8 M250.8,337.8v-11.6h-4.2v11.6h-7.2v-29.3h7.2v10.9h4.2v-10.9h7.2v29.3H250.8z M268.2,314.8
	v4.9h7.1v6.2h-7.1v5.6h8.6v6.4h-15.5v-29.3h15.5v6.4H268.2z"/>
</svg>
