<svg xmlns="http://www.w3.org/2000/svg" width="200" height="200" viewBox="0 0 200 200">
  <g id="Health-Icon-Inverted" fill="none" fill-rule="evenodd">
    <g id="Group" fill="#FFF" transform="translate(19 30)">
      <path id="Fill-78" d="M39.5387495,61.935 L58.0087495,28.575 C58.7587495,27.195 60.2187495,26.405 61.8387495,26.605 C63.4087495,26.795 64.6987495,27.905 65.1087495,29.425 L81.2387495,88.315 L99.1087495,46.555 C99.5887495,45.435 100.57875,44.605 101.77875,44.325 C102.94875,44.015 104.22875,44.345 105.15875,45.135 L121.72875,59.225 L158.54875,59.225 C164.46875,43.625 161.23875,25.295 148.70875,12.765 C131.68875,-4.255 103.93875,-4.255 86.9187495,12.765 L80.6887495,18.995 L74.4587495,12.765 C57.4387495,-4.255 29.6887495,-4.255 12.6687495,12.765 C-0.611250481,26.035 -3.39125048,45.785 4.04874952,61.935 L39.5387495,61.935 Z"/>
      <path id="Fill-80" d="M120.31075,66.949 C119.40075,66.949 118.51075,66.619 117.81075,66.029 L104.15075,54.419 L83.9907495,101.529 C83.3807495,102.949 81.9807495,103.869 80.4407495,103.869 C80.3507495,103.869 80.2607495,103.859 80.1807495,103.859 C78.5407495,103.749 77.1507495,102.609 76.7107495,101.019 L60.1707495,40.619 L45.1907495,67.669 C44.5207495,68.899 43.2207495,69.659 41.8207495,69.659 L8.67074952,69.659 C9.92074952,71.339 11.1407495,73.039 12.6607495,74.559 L49.7907495,111.679 C50.0007495,111.889 50.2507495,112.019 50.4607495,112.229 L76.4307495,138.199 C78.7707495,140.539 82.7207495,140.539 85.1907495,138.199 L118.24075,105.149 C118.34075,105.049 118.37075,104.909 118.46075,104.809 L148.71075,74.559 C151.05075,72.219 153.00075,69.639 154.69075,66.949 L120.31075,66.949 Z"/>
    </g>
  </g>
</svg>
