<?xml version="1.0" encoding="utf-8"?>
<!-- Generator: Adobe Illustrator 19.0.0, SVG Export Plug-In . SVG Version: 6.00 Build 0)  -->
<!DOCTYPE svg PUBLIC "-//W3C//DTD SVG 1.1//EN" "http://www.w3.org/Graphics/SVG/1.1/DTD/svg11.dtd">
<svg version="1.1" id="Ebene_1" xmlns="http://www.w3.org/2000/svg" xmlns:xlink="http://www.w3.org/1999/xlink" x="0px" y="0px"
	 width="100%" height="100%" viewBox="0 0 93.4 93.4" style="enable-background:new 0 0 246.6 93.4;" xml:space="preserve">
<style type="text/css">
	.st0{opacity:0.2;fill:#105D73;}
	.st1{fill:none;stroke:#105D73;stroke-miterlimit:10;}
	.st2{opacity:0.2;}
	.st3{fill:#105D73;}
</style>

<circle class="st0" cx="47.1" cy="46.7" r="45.8"/>
<circle class="st1" cx="47.1" cy="46.7" r="37"/>


<g>
	<g class="st2">
		<path class="st3" d="M76.5,24c-0.6,0.2-1.2,0.3-1.8,0.4c0.2-0.7,0.4-1.3,0.5-1.9c-0.3-0.3-0.5-0.6-0.8-0.9c-1-0.2-1.9-0.4-2.9-0.5
			c-1.7,2.1-3.3,4.1-4.9,6.1c0.6,1,1.2,1.8,1.8,2.7c-0.3,0.7-0.5,1.3-0.8,2c-0.6-0.6-0.6-1.4-0.8-2.1c-0.3-0.7-0.4-1.4-0.7-2.2
			c-1.1,0.1-1.3,1.2-1.9,1.7c-0.7,0.6-1.2,1.3-1.7,1.9c-0.9-0.2-1.7-0.1-2.6-0.1c-0.6,0.9-1.2,1.9-1.9,2.9c-0.4-0.5-0.8-1-1.3-1.7
			c0.6,0.2,1.1,0.3,1.6,0.4c0.2-0.4,0.4-0.7,0.7-1.1c-1.4-0.6-2.7-1.1-4.1-1.6c-1.3,1-2.5,2-3.7,2.9c-0.1,0.6-0.3,1.2-0.4,1.9
			c-0.9-0.1-1.2,0.6-1.7,1c0.1,0.1,0.3,0.2,0.3,0.4c0.1,0.5,0.1,1,0.2,1.5c0.3-0.1,0.6-0.3,0.9-0.4c0.6,0.5,1.1,0.9,1.8,1.4
			c0.4-1.9,0.9-3.8,1.3-5.6c0.4,0.1,0.8,0.1,1.1,0.2c-0.3,0.9-0.5,1.6-0.8,2.5c0.8,0.1,1.6,0.3,2.3,0.4c0,0,0,0.1,0,0.1
			c-0.4,0.1-0.9,0.2-1.4,0.3c-0.3,0.5-0.5,1.1-0.8,1.5c-0.5,0.4-0.9,0.7-1.3,1c-0.5,0.4-1.1,0.6-1.7,0.4c-0.2-0.4-0.5-0.8-0.8-1.3
			c-0.7,2.2-2.7,3.2-4.1,4.6c0.1,0.4,0.1,0.9,0.2,1.3c-0.6,0.2-1.2,0.5-1.6,0.6c0.1,0.7,0.1,1.3,0.2,1.9c0.6,0,1.2,0,1.9,0
			c0.8-0.8,1.6-1.7,2.5-2.7c1.2,0.5,2.3,0.9,3.4,1.3c0,0,0.1-0.1,0.1-0.1c-0.4-0.5-0.8-1.1-1.3-1.7c0.7-0.1,1.1,0.5,1.7,0.5
			c0.7,0.9,1.3,1.8,1.9,2.7c0.6-0.4,1.1-0.8,1.7-1.3c-0.1,0.5-0.1,0.9-0.2,1.3c0.9,0.1,1.8,0.1,2.9,0.2c-0.3,0.4-0.5,0.7-0.7,1
			c-0.2,0.3-0.6,0.5-0.7,0.8c1.8,2.2,3.3,4.6,4.9,6.8c2.2-0.5,3.9-1.6,5-3.6c-1.1-0.3-2.3,0.1-3.4-0.5c-0.2-0.5-0.5-1.1-0.8-1.7
			c2.4,0.7,4.7,1.4,7.2,2.1c1.1,1.7,2.3,3.6,3.6,5.5c0.6-1,1.1-2,1.6-2.9c0.5-1,0.9-2,1.4-3c0.6,0,1.1,0,1.6,0
			c0.2,1,0.4,1.9,0.6,2.8c0.4-0.1,0.8-0.1,1.2-0.2c0.1,0.5,0.2,1.1,0.3,1.6c0.2,0.7,0.2,1.5,0.6,2.1c0.3,0.4,0.6,0.7,1,1.1
			c0.1-0.2,0.2-0.5,0.2-0.7c-0.3-0.4-0.8-0.6-1.1-1c0-0.6,0-1,0-1.7c0.6,0.4,1.1,0.8,1.6,1c0.8-3,1.2-6.1,1.2-9.3
			C84.6,38.5,81.5,30.4,76.5,24z M60.3,45c-0.8,0-1.6,0-2.4,0c-0.4,0-0.8,0-1.2,0.1c0-0.3,0-0.5,0-0.7c0.5-0.5,0.8-0.9,1.3-1.4
			c1.1,0.4,1.9,1.2,3,1.8C60.7,45,60.5,45,60.3,45z M63.8,46.7c-0.2-1.3-0.4-2.5-0.7-3.9c0.2-0.2,0.5-0.4,0.7-0.7
			c0.6,0.8,2.1,4.1,2.2,5C65.3,47.1,64.6,46.9,63.8,46.7z"/>
		<path class="st3" d="M27.8,75.5c1.7-2.3,3.5-4.4,4.7-6.9c0,0,0.1-0.1,0.1-0.1c0.7-0.2,1.5-0.3,2.1-0.8c0.2-1,0.4-1.9,0.5-2.8
			c0.2-1,0.6-1.9,0.3-3c-3.1-1.2-5.9-3.2-8.3-5.3c-0.9,0-1.7-0.1-2.4,0c-1.4,0.2-2.8,0.4-4-0.6c-0.1-0.1-0.3-0.2-0.5-0.3
			c-0.7-0.4-1.3-0.9-2.1-1.3c0.2-0.5,0.4-1,0.5-1.5c0-0.1,0-0.2-0.1-0.3c-0.3,0.1-0.7,0.1-0.9,0.2c-0.2,0.2-0.3,0.4-0.5,0.6
			c-0.7-0.6-1.4-1.2-2.1-1.8c0.2-0.6,0.4-1.1,0.5-1.6c1.7-0.2,3.3-0.7,4.9-0.7c0.2,0.5,0.3,1,0.4,1.5c0.1-0.7,0.3-1.4,0.4-2.2
			c3.3-2.4,6.6-4.7,9.9-7.1c-0.9-2-1.7-3.8-2.6-5.7c-1.1-0.6-2.1-1.2-3.2-1.8c-0.5,1.8-1,3.5-1.4,5.3c-1.4-1.3-2.8-2.5-4.1-3.7
			c0.3-0.7,0.6-1.3,0.9-1.8c0.1-0.2,0.3-0.4,0.5-0.6c0.7-0.5,1.4-1,2-1.5c0.9-0.7,1.7-1.3,2.7-2.1c-0.8-0.5-1.5-1-2.2-1.4
			c-0.2-0.1-0.6-0.1-0.9-0.1c-0.2-0.2-0.5-0.4-0.8-0.5c-1.9-0.6-3.8-1.2-5.7-1.7c-4.3,6.1-6.8,13.5-6.8,21.5c0,0.7,0,1.4,0.1,2.1
			c0.2,0.2,0.4,0.4,0.6,0.7c0.5,0,0.7,0.5,1.1,0.9c0.4,0.4,0.7,0.8,0.9,1.2c0.2,0.4,0.1,1,0.1,1.4c0.7,0.2,1.3,0.3,1.9,0.6
			c2.6,1.3,5.2,2.6,7.7,3.8c0,0.4,0,0.7,0,0.8c-0.6,1.6-1.2,3-1.7,4.4c1.5,1.2,2.8,2.2,4.1,3.3c0.2,0.8-0.2,1.7,0.4,2.3
			c-0.3,0.5-0.4,0.5-0.3,2.2c0,0.7,0.1,1.5,0,2.2c-0.1,0.7,0,1.5,0,2.2c0,0.6,0,1.1,0,1.7c0.9,0.7,1.9,1.4,2.9,2
			c0-0.7-0.1-1.5-0.1-2.2C27.2,76.3,27.4,75.9,27.8,75.5z"/>
		<path class="st3" d="M62.3,55.8c-0.7-1-1.3-2.1-2.1-3.1c-0.7-1-1.2-2.2-2.1-3c-0.1-1-0.9-1-1.6-1.2c-2-0.6-4.1-1.1-6-1.7
			c-2.1,0.5-4.1,0.9-6.1,1.4c-0.7,2.4-1.5,4.8-2.2,7.1c0.9,1.2,1.7,2.3,2.5,3.3c1.2-0.2,2.2-0.5,3.3-0.6c0.4-0.1,0.8,0,1.2,0.2
			c0.6,0.2,1.3,0.5,1.9,0.8c0.5,2.1,1.1,4,1.6,5.9c-0.2,0.5-0.4,1-0.5,1.5c-0.1,0.3-0.1,0.7,0,1c0.4,1.1,0.8,2.2,1.2,3.4
			c0.2,0.6,0.5,1.1,0.7,1.7c0.9-0.2,1.7-0.3,2.5-0.5c0.3-0.1,0.7-0.3,0.9-0.6c0.7-0.9,1.4-1.8,2-2.7c-0.1-0.6-0.2-1.2-0.3-1.8
			c0.8-0.6,1.5-1.2,2.3-1.8c-0.2-1-0.3-2-0.5-3c1.3-1.9,2.6-3.8,3.9-5.8c-0.9,0.1-1.6,0.3-2.3,0.4C62.6,56.4,62.4,56.1,62.3,55.8z"
			/>
		<path class="st3" d="M41.8,29.5c0-0.6,0.1-1.1,0.3-1.6c0.8-1.6,1.5-3.2,2.2-4.8c0.3-0.7,0.7-1.4,0.8-2.3c-1.1-1-2.1-1.9-3.2-2.9
			c-0.2,0.1-0.5,0.1-0.7,0.2c-0.1,0.5-0.1,0.5-0.4,0.8c-1.7,1.5-3.4,2.9-5.1,4.4c-0.6,0.6-1.3,1.2-1.9,1.7c0,0-0.1,0-0.2,0
			c0,2,0.5,3.8,0.8,5.7c-0.5,1-1,2-1.5,3c0.5,0.8,1,1.6,1.6,2.4c1-1.5,2-2.9,3-4.3c1.4-0.5,2.8-1,4.3-1.5
			C41.8,30.1,41.8,29.8,41.8,29.5z"/>
		<polygon class="st3" points="33.6,25.1 33.7,25.1 33.7,25.1 		"/>
		<path class="st3" d="M35.2,18.3c0,0-0.1-0.1-0.1-0.1c-0.2,0.1-0.3,0.2-0.5,0.3c-0.1-0.1-0.3-0.2-0.3-0.2c-0.4,0-0.6,0.1-0.8,0.1
			c-0.5-0.2-1.1-0.1-1.6-0.2c-0.4,0-0.8-0.2-1.2-0.2c-0.6,0-1.2-0.1-1.8,0.1c-1.2,0.3-2.4,0.7-3.6,1c-0.4,0.3-0.7,0.6-0.9,0.8
			c0.1,0.9,0.2,1.7,0.3,2.4c0.1,0.8,0.3,1.6,0.5,2.3c0.9,0.1,1.7,0.3,2.5,0.4C30.2,22.7,32.7,20.5,35.2,18.3z"/>
		<path class="st3" d="M29.2,29.9C29.2,29.9,29.3,29.9,29.2,29.9C29.3,29.9,29.3,29.9,29.2,29.9L29.2,29.9z"/>
		<path class="st3" d="M29.2,30.2c-0.6-0.2-1.1-0.4-1.7-0.6c0.2,0.5,0.3,1,0.5,1.5c-0.7,0.5-1.4,0.9-2.1,1.4c1,0.8,1.9,1.4,2.9,2
			c0.4-0.5,0.7-0.9,1-1.4c0.3-0.5,0.7-0.9,1-1.3c-0.5-0.7-1-1.3-1.5-2C29.2,30,29.2,30.1,29.2,30.2z"/>
		<path class="st3" d="M33.6,25.1C33.6,25.1,33.6,25.1,33.6,25.1L33.6,25.1C33.6,25.1,33.6,25.1,33.6,25.1z"/>
		<path class="st3" d="M33.7,24.6c0.4-1.2,0.9-2.4,1.3-3.6c0.2-0.5,0.5-0.9,0.3-1.4c-0.7,0.4-3.8,3.1-4.3,3.7
			c0.9,0.6,1.7,1.1,2.6,1.7C33.6,24.9,33.6,24.8,33.7,24.6z"/>
		<path class="st3" d="M62.6,66.1c0.6,1-0.4,1.8-0.3,2.8c0.3,0,0.7,0.1,1.2,0.1c0.4-1.1,0.8-2.2,1.2-3.2c0.2-0.5,0.2-1-0.2-1.4
			C63.9,65,63.3,65.6,62.6,66.1z"/>
		<path class="st3" d="M61.9,27.6c0.6-1,1.2-1.9,1.8-2.9c-0.1-0.1-0.1-0.1-0.2-0.2c-0.5,0.6-1.3,0.6-1.7,1.2
			c-0.1,0.1-0.1,0.2-0.1,0.3c-0.2,1-0.4,2.1-0.7,3.1c0.5,0.1,1,0.3,1.6,0.5C62.3,28.8,62.1,28.2,61.9,27.6z"/>
		<path class="st3" d="M29.2,29.9C29.2,29.9,29.2,29.9,29.2,29.9L29.2,29.9C29.3,29.9,29.2,29.9,29.2,29.9z"/>
		<path class="st3" d="M27.2,25.8c-0.3-0.1-0.5-0.4-1-0.2c1,1.4,2,2.8,3,4.2c-0.2-1.3-0.6-2.6-1-3.8C27.8,26,27.5,25.9,27.2,25.8z"
			/>
		<path class="st3" d="M48.1,40.9c0-1.4-1-2.2-1.8-3.2c0.1,1.3,0.2,2.5,0.3,3.8C47.2,41.3,47.6,41.1,48.1,40.9z"/>
		<path class="st3" d="M22,21.6c-0.4,0.3-0.7,0.5-1.1,0.7c-0.2-0.2-0.4-0.3-0.8-0.5c-0.1,0.6-0.2,1-0.3,1.6c0.5,0,0.9,0,1.2-0.1
			c0.4,0,0.8-0.1,1.3-0.2C22.2,22.5,22.1,22.1,22,21.6z"/>
		<path class="st3" d="M80.9,58.9c0.4,0.5,0.9,1,1.3,1.6c0.1-0.2,0.2-0.4,0.2-0.7c-0.5-0.4-0.9-0.7-1.4-1
			C81,58.8,80.9,58.8,80.9,58.9z"/>
		<path class="st3" d="M69.6,20.3c-0.8-0.7-1.6-1.5-2.5-2.3c0,0.6,0,1.1,0,1.7c0.8,0.2,1.6,0.4,2.5,0.7
			C69.6,20.4,69.6,20.4,69.6,20.3z"/>
		<path class="st3" d="M44,33.6c-0.1-0.2-0.2-0.4-0.3-0.5c-0.8,0.2-1.5,0.3-2.3,0.4c0.4,0.4,0.7,0.7,1.1,1.1
			C43,34.4,43.7,34.3,44,33.6z"/>
		<path class="st3" d="M51.6,25.4c-0.3-0.7,0.6-1.3,0-2c-0.4,0-0.8,0-1.4,0C50.7,24.2,50.9,24.9,51.6,25.4z"/>
		<path class="st3" d="M44.6,40.7c0.5-0.1,0.9-0.2,1.4-0.4c-0.1-0.4-0.2-0.8-0.3-1.2c-0.3,0.2-0.5,0.4-0.8,0.5
			C44.8,40,44.7,40.3,44.6,40.7z"/>
		<path class="st3" d="M22.8,26.4c0.1-0.5,0.2-1,0.3-1.6c-0.6,0.2-1,0.4-1.5,0.6C22,25.7,22.2,26.2,22.8,26.4z"/>
		<path class="st3" d="M53.5,22.4c-0.6-0.1-1.1-0.2-1.7-0.3c0.4,0.4,0.6,0.7,0.9,1C53,22.9,53.2,22.7,53.5,22.4z"/>
		<path class="st3" d="M23.1,22.9c0.3,0.3,0.6,0.5,0.8,0.8c0,0,0.1,0,0.1-0.1c-0.1-0.4-0.2-0.9-0.3-1.4
			C23.4,22.5,23.3,22.7,23.1,22.9z"/>
		<path class="st3" d="M22.8,52.9c-0.5-0.2-1.1-0.4-1.7-0.6C21.9,53.2,22.2,53.3,22.8,52.9z"/>
		<path class="st3" d="M52.4,24.1c0.2,0.4,0.4,0.7,0.7,1.1c0.1-0.4,0.2-0.7,0.3-0.9C53,24.1,52.8,23.8,52.4,24.1z"/>
	</g>
</g>
</svg>
