<svg xmlns="http://www.w3.org/2000/svg" xmlns:xlink="http://www.w3.org/1999/xlink" viewBox="0 0 2152.19122 1814.26416"><defs><style>.a,.ah,.y{fill:none;}.b{isolation:isolate;}.c{fill:#f8cf3f;}.ad,.ai,.d,.v,.w,.z{fill:#1b556c;}.e{opacity:0.72;fill:url(#a);}.e,.g{mix-blend-mode:multiply;}.f{fill:#59b031;}.h{fill:url(#b);}.i{fill:#1d617a;}.j{fill:url(#c);}.k{fill:#ee7631;}.l{fill:url(#d);}.m{fill:url(#e);}.n{fill:#72b84e;}.o{fill:#1f617b;}.p{fill:#eef5f7;}.q{opacity:0.52;}.r{clip-path:url(#f);}.s{font-size:624.02863px;}.ab,.ac,.ae,.aj,.s{fill:#fff;}.ab,.ac,.ad,.ae,.ai,.s,.v,.w,.z{font-family:Source Sans Pro;}.ab,.ac,.ae,.s{font-weight:700;}.t{clip-path:url(#g);}.u{clip-path:url(#h);}.v{font-size:119.28869px;}.ac,.w{font-size:44.30723px;}.x{letter-spacing:1px;}.ah,.y{stroke:#fff;}.y{stroke-miterlimit:10;stroke-width:2.96212px;}.ab,.z{font-size:37.49073px;}.aa{letter-spacing:-1px;}.ad{font-size:34.16776px;}.ae{font-size:92.02271px;}.af{fill:#959290;}.af,.am{fill-rule:evenodd;}.ag{fill:#eae9ea;}.ah{stroke-linejoin:round;stroke-width:4.36206px;}.ai{font-size:40.89898px;}.ak{fill:#e7e6e6;}.al{fill:#44403e;}.am{fill:#80a4d4;}</style><radialGradient id="a" cx="653.09089" cy="814.31952" r="408.29609" gradientUnits="userSpaceOnUse"><stop offset="0.16746" stop-color="#686566"/><stop offset="0.31174" stop-color="#959394"/><stop offset="0.45615" stop-color="#bbbaba"/><stop offset="0.59944" stop-color="#d9d8d8"/><stop offset="0.73945" stop-color="#eee"/><stop offset="0.87478" stop-color="#fbfbfb"/><stop offset="1" stop-color="#fff"/></radialGradient><radialGradient id="b" cx="2965.88308" cy="970.12029" r="226.34765" gradientUnits="userSpaceOnUse"><stop offset="0" stop-color="#460e00"/><stop offset="0.01621" stop-color="#4a1406"/><stop offset="0.2333" stop-color="#805a50"/><stop offset="0.43698" stop-color="#ad958f"/><stop offset="0.62111" stop-color="#d1c3bf"/><stop offset="0.78215" stop-color="#eae4e2"/><stop offset="0.91389" stop-color="#f9f8f7"/><stop offset="1" stop-color="#fff"/></radialGradient><radialGradient id="c" cx="3343.74001" cy="692.45092" r="216.80544" gradientUnits="userSpaceOnUse"><stop offset="0" stop-color="#0d524b"/><stop offset="0.2079" stop-color="#51837e"/><stop offset="0.41599" stop-color="#8fafab"/><stop offset="0.60695" stop-color="#bfd1cf"/><stop offset="0.77396" stop-color="#e2eae9"/><stop offset="0.91068" stop-color="#f7f9f9"/><stop offset="1" stop-color="#fff"/></radialGradient><linearGradient id="d" x1="545.7579" y1="951.71517" x2="820.89147" y2="592.58081" gradientUnits="userSpaceOnUse"><stop offset="0" stop-color="#f8f8f9"/><stop offset="1" stop-color="#fff"/></linearGradient><linearGradient id="e" x1="2097.36938" y1="3568.65254" x2="2367.62028" y2="3215.89157" gradientTransform="translate(2916.07356 4164.08838) rotate(180)" xlink:href="#d"/><clipPath id="f" transform="translate(-2386.92644 68.08838)"><rect class="a" x="4158.91917" y="-1.27463" width="352.9325" height="441.42469"/></clipPath><clipPath id="g" transform="translate(-2386.92644 68.08838)"><rect class="a" x="4158.91917" y="523.94329" width="352.9325" height="441.42469"/></clipPath><clipPath id="h" transform="translate(-2386.92644 68.08838)"><rect class="a" x="4158.91917" y="1089.08079" width="352.2707" height="441.42469"/></clipPath></defs><title>planet-8</title><g class="b"><path class="c" d="M3475.18732,971.95517a26.8745,26.8745,0,1,0,26.87342,26.87558A26.90564,26.90564,0,0,0,3475.18732,971.95517Z" transform="translate(-2386.92644 68.08838)"/><path class="c" d="M3522.2639,1018.71748c-22.05908-12.94814-21.33865-16.3338,4.015-19.88727-25.35367-3.55374-26.07409-6.9394-4.015-19.88754-24.66405,6.78969-26.54861,4.01664-10.94955-16.24-20.25667,15.59906-23.02973,13.7145-16.24-10.94955-12.94814,22.05908-16.33353,21.33892-19.887-4.015-3.554,25.35394-6.9394,26.07409-19.88754,4.015,6.78969,24.66405,4.01664,26.54861-16.24,10.94955,15.59906,20.25667,13.714,23.02973-10.94955,16.24,22.05908,12.94814,21.33865,16.3338-4.015,19.88754,25.35367,3.55347,26.07409,6.93913,4.015,19.88727,24.66351-6.78969,26.54861-4.01664,10.94955,16.2403,20.25667-15.59906,23.02973-13.7145,16.24,10.94928,12.94814-22.05908,16.33353-21.33892,19.88754,4.015,3.55347-25.35394,6.93886-26.07409,19.887-4.015-6.78969-24.66378-4.01664-26.54834,16.24-10.94928C3495.71529,1014.70085,3497.59985,1011.92779,3522.2639,1018.71748Zm-47.07658,9.87919a29.767,29.767,0,1,1,29.76592-29.76592A29.80033,29.80033,0,0,1,3475.18732,1028.59667Z" transform="translate(-2386.92644 68.08838)"/><rect class="d" y="62.24391" width="1525.3703" height="172.60498"/><circle class="e" cx="653.09332" cy="814.31856" r="408.29609"/><path class="f" d="M3000.3218,981.8425a78.36459,78.36459,0,0,1-106.97412,28.69953c-110.85489-64.04113-177.031-178.65843-177.031-306.62438,0-128.02636,66.1761-242.63956,177.031-306.62479a78.33076,78.33076,0,0,1,78.33295,135.6716c-61.854,35.65886-98.69846,99.57547-98.69846,170.95319,0,71.3132,36.8445,135.238,98.69846,170.95278A78.2869,78.2869,0,0,1,3000.3218,981.8425Z" transform="translate(-2386.92644 68.08838)"/><g class="g"><path class="h" d="M3000.3218,981.8425a78.36459,78.36459,0,0,1-106.97412,28.69953c-110.85489-64.04113-177.031-178.65843-177.031-306.62438,0-128.02636,66.1761-242.63956,177.031-306.62479a78.33076,78.33076,0,0,1,78.33295,135.6716c-61.854,35.65886-98.69846,99.57547-98.69846,170.95319,0,71.3132,36.8445,135.238,98.69846,170.95278A78.2869,78.2869,0,0,1,3000.3218,981.8425Z" transform="translate(-2386.92644 68.08838)"/></g><path class="i" d="M3070.35895,1058.52582c-60.80434,0-121.60458-16.001-177.0314-48.00352a78.33025,78.33025,0,1,1,78.33089-135.6716c61.79971,35.68681,135.60132,35.67859,197.399,0,61.80587-35.68311,98.6964-99.59149,98.6964-170.9573a78.33274,78.33274,0,0,1,156.66548,0c0,128.00212-66.18021,242.62764-177.02894,306.6289C3191.96558,1042.52479,3131.15918,1058.52582,3070.35895,1058.52582Z" transform="translate(-2386.92644 68.08838)"/><g class="g"><path class="j" d="M3070.35895,1058.52582c-60.80434,0-121.60458-16.001-177.0314-48.00352a78.33025,78.33025,0,1,1,78.33089-135.6716c61.79971,35.68681,135.60132,35.67859,197.399,0,61.80587-35.68311,98.6964-99.59149,98.6964-170.9573a78.33274,78.33274,0,0,1,156.66548,0c0,128.00212-66.18021,242.62764-177.02894,306.6289C3191.96558,1042.52479,3131.15918,1058.52582,3070.35895,1058.52582Z" transform="translate(-2386.92644 68.08838)"/></g><path class="i" d="M3424.44353,703.91765a78.33274,78.33274,0,1,1-156.66548,0c0-71.37773-36.91108-135.29433-98.6964-170.95319-61.854-35.71475-135.61365-35.71475-197.401,0a78.33076,78.33076,0,0,0-78.33295-135.6716c110.85694-64.04483,243.20956-64.04483,354.06244,0C3358.267,461.27809,3424.44353,575.89129,3424.44353,703.91765Z" transform="translate(-2386.92644 68.08838)"/><path class="k" d="M3424.44353,703.91765a78.33274,78.33274,0,1,1-156.66548,0c0-71.37773-36.91108-135.29433-98.6964-170.95319-61.854-35.71475-135.61365-35.71475-197.401,0a78.33076,78.33076,0,0,0-78.33295-135.6716c110.85694-64.04483,243.20956-64.04483,354.06244,0C3358.267,461.27809,3424.44353,575.89129,3424.44353,703.91765Z" transform="translate(-2386.92644 68.08838)"/><circle class="l" cx="683.45213" cy="771.98086" r="205.74224"/><circle class="m" cx="683.45162" cy="771.98086" r="202.09069"/><path class="n" d="M3021.168,784.1469a33.92991,33.92991,0,0,0,8.40944,11.79386c11.15079,9.82156,23.0886,13.13925,37.75531,12.27629-1.31687-8.78075-25.13179-19.21576-33.00714-24.07471a170.26651,170.26651,0,0,1-14.95433-10.41989A22.685,22.685,0,0,0,3021.168,784.1469Zm-25.66162-7.48727a52.1428,52.1428,0,0,0,13.91,12.04793c2.7547-5.90917-2.58828-15.07043-5.20671-20.28567-6.1604-12.26547-11.04942-21.20317-15.96851-34.22971a22.987,22.987,0,0,0-3.345,10.02857C2983.87292,756.82127,2987.95354,766.79357,2995.50637,776.65962Zm-21.04348-33.82974c6.67946-4.75249,5.19169-34.32127,5.68657-42.93445,0.28138-4.86984.69622-9.60261,1.26544-14.4421-4.81341,3.30252-8.48523,8.9985-10.44855,14.4421A52.11587,52.11587,0,0,0,2974.46289,742.82989Zm-7.54829-54.30238c7.84044-3.23092,17.33055-24.75984,21.47338-32.31846l8.32026-13.98538C2978.03958,646.20626,2966.07306,668.94183,2966.9146,688.5275Zm41.78573,115.44377c5.57012,0.33026,11.004.974,16.53324,1.67854,14.14287,1.80644,27.86517,3.66285,42.09917,4.94579-2.58832,16.48119-39.50491,9.38044-47.91149,6.38246a88.32928,88.32928,0,0,1-23.21243-12.55032A55.951,55.951,0,0,1,3008.70034,803.97128Zm-14.61075-25.97251q6.89306,6.39137,13.81916,12.75272c-5.97419,5.30632-17.17464-1.10046-22.52219-4.50923-7.57867-5.21523-12.7354-10.648-18.20415-18.04848a93.79093,93.79093,0,0,1-11.48359-21.76185C2966.4711,751.44334,2985.512,770.06558,2994.08958,777.99877Zm-22.24081-34.08838a5.50107,5.50107,0,0,1-2.18856-.12642c-13.86-3.81961-19.78877-31.18606-20.29732-43.88853a95.79257,95.79257,0,0,1,1.10481-18.92683C2958.08127,693.46868,2968.51429,731.65524,2971.84877,743.91039Zm-8.12806-55.69177c-11.38218-7.944-4.10168-34.03811-.27685-44.07745a85.947,85.947,0,0,1,10.50428-18.149C2974.06938,642.2799,2967.11136,673.72028,2963.72071,688.21862Zm48.45038-76.79014c-10.03973,9.88574-18.87452,20.11212-28.58578,30.1255a69.94,69.94,0,0,1-6.44349,5.72817,31.32072,31.32072,0,0,1,1.6499-8.68509c5.68656-15.09156,15.60079-24.91626,29.50461-32.64244a59.84639,59.84639,0,0,1,15.91852-5.646Q3018.05513,605.712,3012.17108,611.42848Z" transform="translate(-2386.92644 68.08838)"/><path class="n" d="M3121.17608,784.1469a33.85473,33.85473,0,0,1-8.41115,11.79386c-11.15531,9.82156-23.15194,13.13925-37.82486,12.27629,1.31687-8.78075,25.1863-19.21576,33.07215-24.07471a170.84854,170.84854,0,0,0,14.96485-10.41989A22.69165,22.69165,0,0,1,3121.17608,784.1469Zm25.6599-7.48727a52.21257,52.21257,0,0,1-13.91,12.04793c-2.7547-5.90917,2.58374-15.07043,5.207-20.28567,6.16017-12.26547,11.04914-21.20317,15.97449-34.22971a23.11913,23.11913,0,0,1,3.339,10.02857C3158.47115,756.82127,3154.38881,766.79357,3146.836,776.65962Zm21.03895-33.82974c-6.67492-4.75249-5.18543-34.32127-5.68031-42.93445-0.28309-4.86984-.69648-9.60261-1.26694-14.4421,4.8132,3.30252,8.48668,8.9985,10.44977,14.4421A52.12241,52.12241,0,0,1,3167.87494,742.82989Zm7.55307-54.30238c-7.84042-3.23092-17.3308-24.75984-21.47816-32.31846l-8.31859-13.98538C3164.309,646.20626,3176.271,668.94183,3175.428,688.5275Zm-41.78454,115.44377c-5.57609.33026-11.00373,0.974-16.53895,1.67854-14.13716,1.80644-27.93669,3.66285-42.16446,4.94579,2.58829,16.48119,39.57614,9.38044,47.98108,6.38246a88.37979,88.37979,0,0,0,23.20952-12.55032A55.909,55.909,0,0,0,3133.64347,803.97128Zm14.61076-25.97251q-6.89524,6.39137-13.81915,12.75272c5.9682,5.30632,17.1749-1.10046,22.51789-4.50923,7.58319-5.21523,12.73852-10.648,18.20845-18.04848a93.71227,93.71227,0,0,0,11.48213-21.76185C3175.87292,751.44334,3156.82579,770.06558,3148.25423,777.99877Zm22.23936-34.08838a5.51408,5.51408,0,0,0,2.19023-.12642c13.85385-3.81961,19.78258-31.18606,20.29731-43.88853a96.136,96.136,0,0,0-1.105-18.92683C3184.26281,693.46868,3173.82353,731.65524,3170.49359,743.91039Zm8.12808-55.69177c11.37763-7.944,4.10166-34.03811.2785-44.07745a85.93593,85.93593,0,0,0-10.50449-18.149C3168.26845,642.2799,3175.23121,673.72028,3178.62167,688.21862Zm-48.45039-76.79014c10.04119,9.88574,18.87456,20.11212,28.58746,30.1255a70.5391,70.5391,0,0,0,6.44326,5.72817,31.471,31.471,0,0,0-1.64538-8.68509c-5.69108-15.09156-15.60509-24.91626-29.50433-32.64244a60.03145,60.03145,0,0,0-15.92306-5.646Q3124.28854,605.712,3130.17128,611.42848Z" transform="translate(-2386.92644 68.08838)"/><polygon class="f" points="540.653 675.244 585.697 506.887 417.327 461.938 507.884 409.572 676.192 454.565 631.203 622.882 540.653 675.244"/><polygon class="k" points="839.442 685.06 958.089 812.717 1085.669 694.006 1081.881 798.55 954.288 917.177 835.653 789.588 839.442 685.06"/><polygon class="o" points="651.344 946.792 479.536 976.033 508.871 1147.817 423.518 1087.331 394.256 915.588 566.002 886.314 651.344 946.792"/><rect class="p" x="1525.3703" y="68.36143" width="626.82092" height="1531.77919"/><g class="q"><g class="r"><text class="s" transform="translate(1823.20503 517.94482)">5</text></g></g><g class="q"><g class="t"><text class="s" transform="translate(1823.20503 1029.91748)">7</text></g></g><g class="q"><g class="u"><text class="s" transform="translate(1823.20503 1593.98389)">8</text></g></g><text class="v" transform="translate(1627.54585 212.74951)">5</text><text class="w" transform="translate(1705.08198 173.84033)">H<tspan x="28.31152" y="0">e</tspan><tspan x="49.04688" y="0">alth</tspan><tspan class="x" x="0" y="40.89893">A</tspan><tspan x="24.5459" y="40.89893">spe</tspan><tspan x="87.99219" y="40.89893">ct</tspan><tspan x="120.82422" y="40.89893">s</tspan></text><line class="y" x1="2152.19121" y1="508.2384" x2="1525.37038" y2="508.2384"/><line class="y" x1="2152.19121" y1="1029.91857" x2="1525.37038" y2="1029.91857"/><text class="z" transform="translate(1627.5478 276.61768)">+ GBD Risk <tspan class="aa" x="169.00488" y="0">F</tspan><tspan x="185.72559" y="0">a</tspan><tspan x="204.13379" y="0">c</tspan><tspan x="220.59277" y="0">t</tspan><tspan x="231.87793" y="0">ors</tspan><tspan x="0" y="40.89893">+ Mic</tspan><tspan x="77.3418" y="40.89893">r</tspan><tspan x="88.85059" y="40.89893">o</tspan><tspan x="109.24414" y="40.89893">- and Mac</tspan><tspan x="255.90723" y="40.89893">r</tspan><tspan x="267.41699" y="40.89893">onutrien</tspan><tspan x="397.46973" y="40.89893">t</tspan><tspan x="408.79199" y="40.89893">s</tspan><tspan x="0" y="81.79785">+ Ene</tspan><tspan x="82.81641" y="81.79785">r</tspan><tspan x="94.3252" y="81.79785">g</tspan><tspan x="113.40723" y="81.79785">y </tspan><tspan x="137.25098" y="81.79785">V</tspan><tspan x="155.09766" y="81.79785">alues</tspan><tspan x="0" y="122.69727">+ Balan</tspan><tspan x="112.77246" y="122.69727">c</tspan><tspan x="128.96777" y="122.69727">ed E</tspan><tspan x="194.27539" y="122.69727">a</tspan><tspan x="212.27246" y="122.69727">ting</tspan><tspan x="0" y="163.5957">+ Alle</tspan><tspan x="81.05469" y="163.5957">r</tspan><tspan x="92.56348" y="163.5957">g</tspan><tspan x="110.41016" y="163.5957">ens</tspan></text><text class="v" transform="translate(1627.54585 665.47119)">7</text><text class="w" transform="translate(1705.08198 613.771)">Li<tspan x="30.83691" y="0">f</tspan><tspan x="42.04688" y="0">e </tspan><tspan x="72.30762" y="0">C</tspan><tspan x="96.80957" y="0">ycle</tspan><tspan class="x" x="0" y="40.89941">A</tspan><tspan x="24.5459" y="40.89941">ssessment Modules</tspan></text><text class="z" transform="translate(1627.5478 716.54932)">+ P<tspan x="46.03809" y="0">r</tspan><tspan x="57.54688" y="0">odu</tspan><tspan x="117.83008" y="0">c</tspan><tspan x="134.28906" y="0">t </tspan><tspan x="153.48438" y="0">F</tspan><tspan x="170.95508" y="0">o</tspan><tspan x="191.01172" y="0">o</tspan><tspan x="210.61816" y="0">tprint D</tspan><tspan x="324.96289" y="0">a</tspan><tspan x="342.95996" y="0">t</tspan><tspan x="353.83301" y="0">a</tspan><tspan x="372.24121" y="0">b</tspan><tspan x="391.99805" y="0">ase</tspan><tspan x="0" y="40.89844">+ G</tspan><tspan x="48.1377" y="40.89844">r</tspan><tspan x="59.64648" y="40.89844">eenhouse H</tspan><tspan x="240.23535" y="40.89844">e</tspan><tspan x="257.78027" y="40.89844">a</tspan><tspan x="275.77734" y="40.89844">ting</tspan><tspan x="0" y="81.79785">+ </tspan><tspan class="aa" x="25.45605" y="81.79785">T</tspan><tspan x="43.26367" y="81.79785">r</tspan><tspan x="54.36035" y="81.79785">anspor</tspan><tspan x="160.23242" y="81.79785">t</tspan><tspan x="171.10547" y="81.79785">a</tspan><tspan x="189.10156" y="81.79785">tion &amp; Origin</tspan><tspan x="0" y="122.69629">+ </tspan><tspan class="aa" x="25.45605" y="122.69629">F</tspan><tspan x="42.17676" y="122.69629">arming p</tspan><tspan x="177.5918" y="122.69629">r</tspan><tspan x="189.10156" y="122.69629">o</tspan><tspan x="209.1582" y="122.69629">c</tspan><tspan x="225.35352" y="122.69629">edu</tspan><tspan x="283.6875" y="122.69629">r</tspan><tspan x="295.19629" y="122.69629">e</tspan><tspan x="0" y="163.5957">+ P</tspan><tspan x="46.03809" y="163.5957">r</tspan><tspan x="57.54688" y="163.5957">ese</tspan><tspan class="x" x="108.94531" y="163.5957">r</tspan><tspan x="122.17871" y="163.5957">v</tspan><tspan x="137.7002" y="163.5957">a</tspan><tspan x="155.69629" y="163.5957">tion</tspan><tspan x="0" y="204.49414">+ P</tspan><tspan x="46.03809" y="204.49414">r</tspan><tspan x="57.54688" y="204.49414">o</tspan><tspan x="77.60352" y="204.49414">c</tspan><tspan x="93.7998" y="204.49414">essing</tspan><tspan x="0" y="245.39355">+ </tspan><tspan x="25.45605" y="245.39355">W</tspan><tspan x="53.61133" y="245.39355">a</tspan><tspan x="72.01953" y="245.39355">s</tspan><tspan x="86.45313" y="245.39355">t</tspan><tspan x="97.73926" y="245.39355">e</tspan></text><text class="v" transform="translate(1627.54585 1175.28174)">8</text><text class="w" transform="translate(1705.08198 1175.28174)">Indi<tspan x="68.45313" y="0">c</tspan><tspan x="87.9043" y="0">at</tspan><tspan x="122.50879" y="0">ors</tspan></text><text class="z" transform="translate(1627.5478 1239.15088)">+ Vi<tspan x="52.44922" y="0">t</tspan><tspan x="63.32227" y="0">a S</tspan><tspan x="108.76074" y="0">c</tspan><tspan x="124.95605" y="0">o</tspan><tspan x="145.0127" y="0">r</tspan><tspan x="156.52246" y="0">e</tspan><tspan x="0" y="40.89844">+ Nutritional Balan</tspan><tspan x="283.69043" y="40.89844">c</tspan><tspan x="299.88574" y="40.89844">e</tspan><tspan x="0" y="81.79785">+ Clim</tspan><tspan x="94.51367" y="81.79785">at</tspan><tspan x="123.79492" y="81.79785">e S</tspan><tspan x="168.93262" y="81.79785">c</tspan><tspan x="185.12891" y="81.79785">o</tspan><tspan x="205.18555" y="81.79785">r</tspan><tspan x="216.69434" y="81.79785">e</tspan><tspan x="0" y="122.69629">+ </tspan><tspan x="25.45605" y="122.69629">W</tspan><tspan x="53.61133" y="122.69629">at</tspan><tspan x="82.89258" y="122.69629">er S</tspan><tspan x="139.91406" y="122.69629">c</tspan><tspan x="156.37207" y="122.69629">a</tspan><tspan x="174.78027" y="122.69629">r</tspan><tspan x="186.29004" y="122.69629">city</tspan><tspan x="0" y="163.5957">+ Animal </tspan><tspan class="aa" x="138.94043" y="163.5957">T</tspan><tspan x="156.74805" y="163.5957">r</tspan><tspan x="168.25684" y="163.5957">e</tspan><tspan x="185.80273" y="163.5957">a</tspan><tspan x="203.79883" y="163.5957">tment</tspan><tspan x="0" y="204.49414">+ De</tspan><tspan x="66.20703" y="204.49414">f</tspan><tspan x="75.69141" y="204.49414">o</tspan><tspan x="95.74805" y="204.49414">r</tspan><tspan x="107.25781" y="204.49414">e</tspan><tspan x="125.36523" y="204.49414">s</tspan><tspan x="139.79883" y="204.49414">t</tspan><tspan x="150.67188" y="204.49414">a</tspan><tspan x="168.66797" y="204.49414">tion</tspan><tspan x="0" y="245.39355">+ </tspan><tspan x="25.45605" y="245.39355">Re</tspan><tspan x="63.20898" y="245.39355">gionality</tspan><tspan x="0" y="286.29199">+ S</tspan><tspan x="44.98828" y="286.29199">e</tspan><tspan x="62.5332" y="286.29199">ason</tspan></text><text class="ab" transform="translate(763.95601 522.09619) rotate(20.22072)">C</text><text class="ab" transform="translate(783.76362 529.4292) rotate(24.55874)">L</text><text class="ab" transform="translate(800.53316 537.20752) rotate(27.70918)">I</text><text class="ab" transform="translate(809.66987 541.63721) rotate(31.82351)">M</text><text class="ab" transform="translate(832.86812 556.19287) rotate(37.02727)">A</text><text class="ab" transform="translate(848.05952 567.57568) rotate(41.10342)">T</text><text class="ab" transform="translate(863.1523 580.72998) rotate(45.4165)">E</text><text class="ab" transform="translate(876.96773 594.96338) rotate(48.36819)"> </text><text class="ab" transform="translate(882.00191 600.36475) rotate(51.35574)">S</text><text class="ab" transform="matrix(0.56175, 0.8273, -0.8273, 0.56175, 894.49214, 615.92041)">C</text><text class="ab" transform="matrix(0.4915, 0.87088, -0.87088, 0.4915, 905.77827, 632.27686)">O</text><text class="ab" transform="matrix(0.41198, 0.91119, -0.91119, 0.41198, 917.89839, 653.83057)">R</text><text class="ab" transform="translate(926.92476 673.85693) rotate(70.24835)">E</text><text class="ab" transform="matrix(-0.62142, 0.78348, -0.78348, -0.62142, 895.29292, 926.90967)">E</text><text class="ab" transform="translate(883.14253 942.40674) rotate(133.17557)">N</text><text class="ab" transform="matrix(-0.74215, 0.67023, -0.67023, -0.74215, 866.61128, 959.92139)">V</text><text class="ab" transform="matrix(-0.779, 0.62702, -0.62702, -0.779, 851.87886, 973.05811)">I</text><text class="ab" transform="translate(844.05562 979.60303) rotate(144.67965)">R</text><text class="ab" transform="matrix(-0.86397, 0.50354, -0.50354, -0.86397, 826.22359, 992.34521)">O</text><text class="ab" transform="translate(804.87886 1004.79834) rotate(155.1028)">N</text><text class="ab" transform="translate(783.1396 1015.00928) rotate(160.74563)">M</text><text class="ab" transform="translate(757.24605 1023.89502) rotate(165.9176)">E</text><text class="ab" transform="matrix(-0.98692, 0.16123, -0.16123, -0.98692, 738.18843, 1028.79248)">N</text><text class="ab" transform="translate(714.40425 1032.60986) rotate(175.52462)">T</text><text class="ab" transform="translate(695.87007 1034.0415) rotate(179.07122)">A</text><text class="ab" transform="translate(675.4521 1034.26514) rotate(-176.25467)">L</text><text class="ab" transform="matrix(-0.99346, -0.11417, 0.11417, -0.99346, 657.00288, 1032.92822)"> </text><text class="ab" transform="matrix(-0.98652, -0.16366, 0.16366, -0.98652, 649.64741, 1032.23584)">F</text><text class="ab" transform="matrix(-0.96985, -0.24369, 0.24369, -0.96985, 631.59468, 1029.40381)">O</text><text class="ab" transform="translate(607.64741 1023.41553) rotate(-160.46389)">O</text><text class="ab" transform="translate(585.02046 1015.33643) rotate(-155.70941)">T</text><text class="ab" transform="translate(566.78804 1007.17139) rotate(-151.11352)">R</text><text class="ab" transform="matrix(-0.83239, -0.55419, 0.55419, -0.83239, 547.54683, 996.57178)">P</text><text class="ab" transform="matrix(-0.79717, -0.60375, 0.60375, -0.79717, 529.48726, 984.35107)">I</text><text class="ab" transform="matrix(-0.7561, -0.65446, 0.65446, -0.7561, 521.21089, 978.38428)">N</text><text class="ab" transform="translate(503.05171 962.58057) rotate(-134.34414)">T</text><text class="ac" transform="translate(425.61714 808.69971) rotate(-95.0752)">V</text><text class="ac" transform="translate(423.72944 785.49072) rotate(-91.25852)">I</text><text class="ac" transform="matrix(0.0448, -0.999, 0.999, 0.0448, 423.25288, 773.50928)">T</text><text class="ac" transform="matrix(0.12816, -0.99175, 0.99175, 0.12816, 424.11909, 751.69678)">A</text><text class="ac" transform="translate(427.45308 727.68701) rotate(-79.04083)"> </text><text class="ac" transform="translate(428.85347 719.15674) rotate(-75.48762)">S</text><text class="ac" transform="matrix(0.3393, -0.94068, 0.94068, 0.3393, 434.68257, 696.38818)">C</text><text class="ac" transform="matrix(0.42953, -0.90305, 0.90305, 0.42953, 442.40425, 674.35498)">O</text><text class="ac" transform="matrix(0.52169, -0.85314, 0.85314, 0.52169, 454.95601, 648.08154)">R</text><text class="ac" transform="matrix(0.59882, -0.80088, 0.80088, 0.59882, 468.47359, 626.0376)">E</text><text class="ad" transform="translate(75.80171 584.52588)">R<tspan x="18.24512" y="0">edu</tspan><tspan x="71.40918" y="0">c</tspan><tspan x="86.16992" y="0">e the risk </tspan><tspan x="0" y="34.16797">of </tspan><tspan x="34.09766" y="34.16797">f</tspan><tspan x="42.74121" y="34.16797">ood </tspan><tspan x="104.71973" y="34.16797">r</tspan><tspan x="115.20996" y="34.16797">el</tspan><tspan x="139.81055" y="34.16797">at</tspan><tspan x="166.49609" y="34.16797">ed </tspan><tspan x="0" y="68.33594">dis</tspan><tspan x="40.24902" y="68.33594">e</tspan><tspan x="56.23926" y="68.33594">ases.</tspan></text><text class="ad" transform="translate(75.80171 717.46143)">80% of h<tspan x="119.20898" y="0">e</tspan><tspan x="135.19922" y="0">art </tspan><tspan x="0" y="34.16797">dis</tspan><tspan x="40.24902" y="34.16797">e</tspan><tspan x="56.23926" y="34.16797">ase, </tspan><tspan x="117.67188" y="34.16797">s</tspan><tspan x="130.82715" y="34.16797">t</tspan><tspan x="141.4873" y="34.16797">r</tspan><tspan x="151.97656" y="34.16797">o</tspan><tspan x="170.25586" y="34.16797">k</tspan><tspan x="185.7002" y="34.16797">e </tspan><tspan x="0" y="68.33594">and diab</tspan><tspan x="122.0791" y="68.33594">e</tspan><tspan x="138.24023" y="68.33594">t</tspan><tspan x="148.52539" y="68.33594">es </tspan><tspan x="0" y="102.50293">type II and 40% </tspan><tspan x="0" y="136.6709">of </tspan><tspan x="34.09766" y="136.6709">c</tspan><tspan x="49.09668" y="136.6709">an</tspan><tspan x="84.0498" y="136.6709">c</tspan><tspan x="98.81055" y="136.6709">er </tspan><tspan x="132.97754" y="136.6709">c</tspan><tspan x="147.7373" y="136.6709">ould </tspan><tspan x="0" y="170.83887">be avoided.</tspan></text><text class="ad" transform="translate(1072.11812 370.15283)">R<tspan x="18.04004" y="0">edu</tspan><tspan x="70.58887" y="0">c</tspan><tspan x="85.14453" y="0">e </tspan><tspan x="108.07129" y="0">f</tspan><tspan x="116.50977" y="0">ood-</tspan><tspan x="181.05078" y="0">r</tspan><tspan x="191.33496" y="0">el</tspan><tspan x="215.52539" y="0">at</tspan><tspan x="241.80176" y="0">ed</tspan><tspan x="276.48145" y="0"> </tspan><tspan x="0" y="34.16797">c</tspan><tspan x="14.99902" y="34.16797">arbon emissions </tspan><tspan x="0" y="68.33594">by 50%.</tspan></text><text class="ae" transform="translate(499.65816 183.07227)">Ea<tspan x="97.63477" y="0">t</tspan><tspan x="129.93457" y="0">ernity </tspan><tspan x="384.18848" y="0">A</tspan><tspan x="434.98438" y="0">w</tspan><tspan x="502.89648" y="0">a</tspan><tspan x="551.02441" y="0">r</tspan><tspan x="584.42773" y="0">d</tspan></text><path class="af" d="M3402.15664,298.4405a27.08044,27.08044,0,0,0-39.19078-28.75241,29.56888,29.56888,0,0,0-54.01594,16.63687c0,0.0449.00816,0.08569,0.00816,0.12654a27.09585,27.09585,0,0,0,2.46065,54.0812c0.68555,0,1.36294-.053,2.04034-0.09794a44.18337,44.18337,0,0,0,60.798,8.6796A29.553,29.553,0,0,0,3402.15664,298.4405Z" transform="translate(-2386.92644 68.08838)"/><path class="ag" d="M3412.2629,294.83587a32.49514,32.49514,0,0,0-47.02691-34.50114,35.4812,35.4812,0,0,0-64.81634,19.96329c0,0.05383.0098,0.10285,0.0098,0.15179a32.51333,32.51333,0,0,0,2.95265,64.8941c0.82263,0,1.63547-.06365,2.4483-0.11752a53.018,53.018,0,0,0,72.95444,10.415A35.4618,35.4618,0,0,0,3412.2629,294.83587ZM3316.575,326.82356a17.38845,17.38845,0,0,1-17.66261-17.71647v-0.093a17.59148,17.59148,0,0,1,18.05434-17.81438c7.00237,0,11.50248,2.93317,14.53848,7.14438l-7.14437,5.52841c-1.95381-2.44348-4.20142-4.01537-7.48225-4.01537-4.79883,0-8.17759,4.06433-8.17759,9.059v0.10283c0,5.1367,3.37387,9.14715,8.17759,9.14715,3.56973,0,5.67045-1.66979,7.72708-4.16714l7.14437,5.08773C3328.52307,323.54763,3324.16007,326.82356,3316.575,326.82356Zm53.99657-17.80951c0,9.83269-7.92789,17.80951-18.5,17.80951s-18.402-7.874-18.402-17.71647v-0.093c0-9.83762,7.92783-17.81438,18.5-17.81438,10.56229,0,18.402,7.874,18.402,17.71645V309.014Zm25.76181,25.34072H3374.1168v-5.85162l10.50846-8.02089c2.605-2.04685,3.604-3.369,3.604-5.05346,0-1.753-1.24379-2.84012-3.129-2.84012s-3.369,1.08707-5.57743,3.59911l-5.24929-4.36791c3.00168-3.888,5.97408-6.01812,11.42412-6.01812,6.13565,0,10.342,3.64809,10.342,8.94149v0.08324c0,4.49522-2.33088,6.831-6.49309,9.82289l-4.80867,3.369h11.59066Zm-44.26178-34.59067c-5.19057,0-8.66238,4.2063-8.66238,9.152v0.10283c0,4.94083,3.56978,9.24509,8.76524,9.24509,5.22972,0,8.70154-4.20632,8.70154-9.152v-0.093c0.00489-4.95061-3.56978-9.25484-8.8044-9.25484" transform="translate(-2386.92644 68.08838)"/><path class="k" d="M2567.85593,369.50539a30.34291,30.34291,0,0,0-43.6545,0l-4.40052,4.52064-4.40014-4.52064a30.34337,30.34337,0,0,0-43.65489,0,32.3902,32.3902,0,0,0,0,44.85031l26.22758,26.946c0.14745,0.1513.32455,0.24986,0.47432,0.3977l18.34706,18.84949a4.38778,4.38778,0,0,0,6.18653,0l23.352-23.9919c0.067-.07238.08893-0.16824,0.15053-0.2437l21.372-21.95757A32.3902,32.3902,0,0,0,2567.85593,369.50539Z" transform="translate(-2386.92644 68.08838)"/><polyline class="ah" points="40.244 479.121 105.111 479.121 118.838 454.319 132.204 503.117 147.795 466.693 160.174 477.216 227.242 477.216"/><text class="ad" transform="translate(1072.11812 514.48975)">If <tspan x="24.01855" y="0">e</tspan><tspan x="40.93164" y="0">ve</tspan><tspan class="x" x="72.2627" y="0">r</tspan><tspan x="84.32324" y="0">y Swiss </tspan><tspan x="189.5918" y="0">at</tspan><tspan x="216.27734" y="0">e 3 clim</tspan><tspan x="321.81934" y="0">at</tspan><tspan x="348.50488" y="0">e </tspan><tspan x="0" y="34.16797">friendly m</tspan><tspan x="138.47852" y="34.16797">e</tspan><tspan x="154.46875" y="34.16797">als per wee</tspan><tspan x="309.17871" y="34.16797">k</tspan><tspan x="325.64746" y="34.16797">, the </tspan><tspan x="0" y="68.33594">im</tspan><tspan x="35.56836" y="68.33594">p</tspan><tspan x="53.64258" y="68.33594">a</tspan><tspan x="70.41895" y="68.33594">c</tspan><tspan x="85.41895" y="68.33594">t would equal 750.000 </tspan><tspan x="0" y="102.50293">c</tspan><tspan x="14.99902" y="102.50293">ars off the </tspan><tspan x="158.53516" y="102.50293">s</tspan><tspan x="171.69043" y="102.50293">t</tspan><tspan x="182.35059" y="102.50293">r</tspan><tspan x="192.83984" y="102.50293">e</tspan><tspan x="209.34277" y="102.50293">e</tspan><tspan x="225.50488" y="102.50293">t</tspan><tspan x="236.7793" y="102.50293">.</tspan></text><text class="ai" transform="translate(255.60347 1477.74268)">With the E<tspan x="166.74414" y="0">at</tspan><tspan x="198.6875" y="0">ernity A</tspan><tspan x="322.81348" y="0">w</tspan><tspan x="350.41992" y="0">a</tspan><tspan x="370.50098" y="0">r</tspan><tspan x="383.05762" y="0">d we se</tspan><tspan class="x" x="505.75391" y="0">r</tspan><tspan x="520.19043" y="0">ve the </tspan><tspan x="628.16309" y="0">f</tspan><tspan x="638.51074" y="0">ound</tspan><tspan x="726.0332" y="0">a</tspan><tspan x="745.66406" y="0">tion </tspan><tspan x="819.6084" y="0">f</tspan><tspan x="829.95605" y="0">or mutually </tspan><tspan x="62.57422" y="44.30664">clim</tspan><tspan x="133.20605" y="44.30664">at</tspan><tspan x="165.14941" y="44.30664">e</tspan><tspan x="185.31152" y="44.30664">-friendl</tspan><tspan x="304.08008" y="44.30664">y</tspan><tspan x="321.09375" y="44.30664">, h</tspan><tspan x="359.8252" y="44.30664">e</tspan><tspan x="378.96582" y="44.30664">althy and su</tspan><tspan x="579.57324" y="44.30664">s</tspan><tspan x="595.32031" y="44.30664">t</tspan><tspan x="607.18164" y="44.30664">ainable </tspan><tspan x="738.26074" y="44.30664">f</tspan><tspan x="748.60742" y="44.30664">ood choi</tspan><tspan x="894.00195" y="44.30664">c</tspan><tspan x="911.6709" y="44.30664">es.</tspan></text><text class="ad" transform="translate(643.3271 1334.51611)">C<tspan x="18.92871" y="0">ut down </tspan><tspan x="139.77734" y="0">w</tspan><tspan x="162.8418" y="0">at</tspan><tspan x="189.52734" y="0">er </tspan><tspan x="0" y="34.16797">f</tspan><tspan x="8.64355" y="34.16797">o</tspan><tspan x="26.92285" y="34.16797">o</tspan><tspan x="44.79297" y="34.16797">tprint by 50%.</tspan></text><text class="ad" transform="translate(354.54487 1334.51611)">Minimi<tspan x="93.51563" y="0">z</tspan><tspan x="106.97754" y="0">e land </tspan><tspan x="0" y="34.16797">use chan</tspan><tspan x="123.58301" y="34.16797">g</tspan><tspan x="139.84766" y="34.16797">e.</tspan></text><text class="ad" transform="translate(917.65816 1281.00928)">P<tspan x="18.75781" y="0">r</tspan><tspan x="29.24707" y="0">om</tspan><tspan x="75.27051" y="0">o</tspan><tspan x="93.14063" y="0">t</tspan><tspan x="103.4248" y="0">e b</tspan><tspan x="145.2793" y="0">e</tspan><tspan x="161.44141" y="0">t</tspan><tspan x="171.41797" y="0">t</tspan><tspan x="181.70313" y="0">er </tspan><tspan x="0" y="34.16797">animal t</tspan><tspan x="112.88867" y="34.16797">r</tspan><tspan x="123.37793" y="34.16797">e</tspan><tspan x="139.36914" y="34.16797">a</tspan><tspan x="155.76953" y="34.16797">tmen</tspan><tspan x="228.85352" y="34.16797">t</tspan><tspan x="240.12891" y="34.16797">.</tspan></text><text class="ad" transform="translate(1217.84175 908.39893)">Choose lo<tspan x="137.4209" y="0">c</tspan><tspan x="152.41992" y="0">al, </tspan><tspan x="191.60938" y="0">t</tspan><tspan x="201.89453" y="0">o </tspan><tspan x="0" y="34.16797">avoid t</tspan><tspan x="93.78809" y="34.16797">r</tspan><tspan x="103.90137" y="34.16797">anspor</tspan><tspan x="200.38965" y="34.16797">t</tspan><tspan x="210.70898" y="34.16797">s.</tspan></text><text class="ad" transform="translate(1163.05269 1061.36475)">E<tspan x="17.59668" y="0">a</tspan><tspan x="33.99805" y="0">t s</tspan><tspan x="65.3291" y="0">e</tspan><tspan x="81.31934" y="0">asonal </tspan><tspan x="0" y="34.16797">p</tspan><tspan x="18.58691" y="34.16797">r</tspan><tspan x="29.07617" y="34.16797">odu</tspan><tspan x="84.0166" y="34.16797">c</tspan><tspan x="98.77734" y="34.16797">e.</tspan></text><path class="n" d="M2846.2279,1160.91992a118.8214,118.8214,0,0,0-16.52139-19.40713,90.07674,90.07674,0,0,0-26.16964-20.30637,12.60439,12.60439,0,0,0-21.30921-3.56418,14.27776,14.27776,0,0,1-17.82929,7.65877,11.6362,11.6362,0,0,0-11.63624,11.63616c0,0.29224.02253,0.57884,0.04382,0.86568a11.62787,11.62787,0,0,0,1.54075,22.48222,29.08534,29.08534,0,0,1-9.70333,15.93911,11.6362,11.6362,0,0,0,11.63624,11.63616c0.26665,0,.52767-0.02222.78994-0.0399a11.62855,11.62855,0,0,0,19.97377,3.83592,13.77216,13.77216,0,0,0,10.22975-1.70538,11.54225,11.54225,0,0,0,9.62008-1.03491,9.65976,9.65976,0,0,0,13.5851-1.30485,14.14118,14.14118,0,0,0,10.42191-1.174,11.627,11.627,0,1,0,17.81333-14.64631A11.63013,11.63013,0,0,0,2846.2279,1160.91992Z" transform="translate(-2386.92644 68.08838)"/><path class="n" d="M2818.19389,1209.48978a7.91,7.91,0,0,0-4.84728-1.28193,9.531,9.531,0,0,1-6.009-1.52229c-1.12169-.76114-1.44217-3.56536-1.362-4.88734s0.28042-6.87033.28042-6.87033l0.36743-.3837a9.65538,9.65538,0,0,1-10.26449-1.275,11.5075,11.5075,0,0,1-9.49458,1.07153l-0.15774.44692c0.16024,1.04157.28042,5.24789,0.28042,5.24789s0.08012,3.76566-2.48373,5.28795-8.89336,1.80271-8.89336,1.80271-4.36656.04006-4.71521,3.68554c-0.34881,3.64548,2.09346,3.99788,2.09346,3.99788h44.88526s1.12169,0.12832,1.68253-1.87469S2818.19389,1209.48978,2818.19389,1209.48978Z" transform="translate(-2386.92644 68.08838)"/><path class="aj" d="M3331.46783,1089.73353a11.86161,11.86161,0,0,1,2.1424-3.09571c1.077-.90287,3.08651-4.49133,3.08651-4.49133l3.03482-2.56319,2.65377-.661a10.22331,10.22331,0,0,1,2.22654-.61037c1.53791-.28708,19.91087-0.02051,19.91087-0.02051l1.06652,0.09715s0.15051,0.01629,1.87962.53373,5.56365,1.74777,5.56365,1.74777l2.41965,2.15308,0.7918,3.81465a10.03388,10.03388,0,0,1,2.284,2.78813c0.41011,1.14831-6.91036,30.45071-6.91036,30.45071l-0.65618,16.24038,1.45589,10.84742-0.34553,4.94965a31.79019,31.79019,0,0,0-7.797,5.13627c-3.45334,3.22217-18.95747-.28229-18.95747-0.28229s-4.9809-3.941-7.50308-4.78586l-0.03076-5.95078,0.67668-17.16313,1.41488-17.805-4.24464-16.98263-4.16262-4.21389v-0.13329Z" transform="translate(-2386.92644 68.08838)"/><path class="ak" d="M3340.05073,1083.47938s-2.97707,1.45225-3.4853,2.17833a4.99465,4.99465,0,0,1-3.26765,2.10569c-1.52482.14539-3.12236-1.089-5.88168-2.46872s-5.88148-4.13893-10.45607-3.63058a21.74122,21.74122,0,0,0-9.73,3.4854c-2.17843,1.37951-3.4854,3.84834-2.03314,5.88146a30.14048,30.14048,0,0,0,5.66373,5.95422c1.23452,0.72618,1.67011,2.75932,5.37333,4.64726a18.86433,18.86433,0,0,0,10.38354,1.74265c2.68666-.29048,5.08284-0.29048,5.08284-0.29048a14.03722,14.03722,0,0,0,.65343,3.84851c0.65353,2.03314,2.68658,5.30079,3.26765,6.89805,0.58079,1.59746.21775,4.7198,0.07256,7.26137-0.14531,2.54139.07254,10.16569,0.65343,11.90844,0.58087,1.74255,1.2343,6.02667.79872,7.26119a26.6119,26.6119,0,0,0-.363,8.85883c0.50833,2.25077.58079,2.97705,1.16176,2.75922s0.363-4.28414,1.01657-5.95432c0.65343-1.67,1.08942-1.888,1.08932-3.55784,0-1.67041.21765-2.68688,1.16166-2.61413,0.94393,0.07256,1.37971.65333,2.46882,0.50825,1.08922-.14531,3.41255-4.35668,4.284-4.79216,0.87127-.43588,1.67008-8.3504,1.30684-9.58491,0,0,1.45276-3.55844.87169-6.02687-0.58079-2.469-.2904-6.53529-2.033-10.81933-1.74285-4.28412-3.04971-7.98735-3.34031-10.892-0.29038-2.90443-.2902-5.66373-2.10569-7.40648C3340.84945,1088.99782,3340.05073,1083.47938,3340.05073,1083.47938Z" transform="translate(-2386.92644 68.08838)"/><path class="aj" d="M3307.85248,1089.5627c1.3202-1.17706,5.81656-3.06313,8.30834-.84872a3.55547,3.55547,0,0,0-1.58931,1.13313s3.7943,0.23648,4.849,2.42393a2.54907,2.54907,0,0,0-1.43145.30923c5.09824,1.84794,5.16558,3.608,12.66333,3.448-0.47744.97236-1.76588,5.134-8.179,4.7902S3310.07659,1095.71614,3307.85248,1089.5627Z" transform="translate(-2386.92644 68.08838)"/><path class="ak" d="M3369.80359,1083.47938s2.97687,1.45225,3.4851,2.17833a4.99445,4.99445,0,0,0,3.26765,2.10569c1.52492,0.14539,3.12236-1.089,5.88158-2.46872s5.88158-4.13893,10.45629-3.63058a21.73928,21.73928,0,0,1,9.72979,3.4854c2.17843,1.37951,3.4857,3.84834,2.03334,5.88146a30.13782,30.13782,0,0,1-5.66393,5.95422c-1.23432.72618-1.67,2.75932-5.37313,4.64726a18.86394,18.86394,0,0,1-10.38335,1.74265c-2.68706-.29048-5.08294-0.29048-5.08294-0.29048a14.03125,14.03125,0,0,1-.65373,3.84851c-0.65353,2.03314-2.68647,5.30079-3.26744,6.89805-0.58079,1.59746-.21765,4.7198-0.07256,7.26137,0.14531,2.54139-.07255,10.16569-0.65333,11.90844-0.58117,1.74255-1.2347,6.02667-.799,7.26119a26.60845,26.60845,0,0,1,.36334,8.85883c-0.50822,2.25077-.581,2.97705-1.162,2.75922-0.58079-.21785-0.36294-4.28414-1.01667-5.95432-0.65333-1.67-1.08921-1.888-1.089-3.55784,0-1.67041-.21785-2.68688-1.162-2.61413-0.94393.07256-1.37961,0.65333-2.46862,0.50825-1.08921-.14531-3.41275-4.35668-4.28394-4.79216-0.87156-.43588-1.67038-8.3504-1.307-9.58491,0,0-1.45276-3.55844-.87159-6.02687,0.58079-2.469.29039-6.53529,2.03294-10.81933,1.74275-4.28412,3.04981-7.98735,3.34041-10.892,0.29019-2.90443.29019-5.66373,2.10548-7.40648S3369.80359,1083.47938,3369.80359,1083.47938Z" transform="translate(-2386.92644 68.08838)"/><path class="aj" d="M3402.00164,1089.5627c-1.3202-1.17706-5.81666-3.06313-8.30824-.84872a3.55817,3.55817,0,0,1,1.58941,1.13313s-3.7945.23648-4.849,2.42393a2.54944,2.54944,0,0,1,1.43139.30923c-5.09826,1.84794-5.1659,3.608-12.66355,3.448,0.47747,0.97236,1.7659,5.134,8.17924,4.7902C3393.794,1100.47477,3399.77773,1095.71614,3402.00164,1089.5627Z" transform="translate(-2386.92644 68.08838)"/><path class="ak" d="M3367.52987,1145.97823c-1.76176-1.05783-1.9651.12471-3.72726,0-1.76176-.12411-2.16823-3.672-4.40491-3.92118a9.04107,9.04107,0,0,1-8.94157,0c-2.23628.24921-2.64295,3.79707-4.40481,3.92118-1.76214.12471-1.96538-1.05783-3.72724,0a5.02534,5.02534,0,0,0-1.62638,6.20412c1.08422,2.32276,4.947,4.18981,5.28577,5.55922s1.21991,3.42315,3.45618,3.54746a27.16553,27.16553,0,0,1,10.97472,0c2.23648-.12431,3.11746-2.178,3.45608-3.54746,0.33882-1.36941,4.20177-3.23646,5.28627-5.55922A5.02548,5.02548,0,0,0,3367.52987,1145.97823Z" transform="translate(-2386.92644 68.08838)"/><path class="aj" d="M3345.30582,1149.7753c0.99384,0.24881,1.34521,1.86862,2.27657,2.407,0.93128,0.53864,2.60265,3.44315,1.24755,3.89962-1.3557.45648-3.70489-.74686-3.976-1.9502-0.2708-1.20314.72323-1.5351,0-2.24057a5.31063,5.31063,0,0,1-1.67157-2.3651c-0.27108-.99569-0.63265-1.74257,0-1.74257C3343.81476,1147.78352,3344.31182,1149.52609,3345.30582,1149.7753Z" transform="translate(-2386.92644 68.08838)"/><path class="aj" d="M3364.54848,1149.7753c-0.9939.24881-1.34509,1.86862-2.27645,2.407-0.93138.53864-2.60295,3.44315-1.24727,3.89962,1.35511,0.45648,3.70413-.74686,3.97531-1.9502,0.271-1.20314-.72275-1.5351,0-2.24057a5.30944,5.30944,0,0,0,1.67175-2.3651c0.27118-.99569.63255-1.74257,0-1.74257C3366.03946,1147.78352,3365.5424,1149.52609,3364.54848,1149.7753Z" transform="translate(-2386.92644 68.08838)"/><path class="ak" d="M3365.58926,1078.38859s1.64726-.2704,2.09-1.09813c-4.45079.31146-5.70451-.85265-7.60588-1.70482a10.47018,10.47018,0,0,0-4.85236-.39332h-0.58786a10.46934,10.46934,0,0,0-4.85216.39332c-1.90127.85217-3.15529,2.01628-7.60587,1.70482,0.44255,0.82773,2.09,1.09813,2.09,1.09813a6.35667,6.35667,0,0,1-4.45049,3.04893c3.63912,0.81147,5.70443-.4754,5.70443-0.4754a2.77822,2.77822,0,0,1,.59029,2.14745c1.10628-.41793,1.57363-2.34412,1.57363-2.34412s-0.24588,3.1802-1.00824,3.59824a3.07986,3.07986,0,0,0,1.92609-1.5s-0.59834,3.02432,1.34411,4.27823a6.89308,6.89308,0,0,1,.19687-1.40137c1.07343,2.45393,3.34569,2.24844,4.75295,3.80735l0.03235,0.03373,0.03235-.03373c1.40726-1.55891,3.67962-1.35343,4.753-3.80735a6.893,6.893,0,0,1,.19707,1.40137c1.94235-1.25392,1.34431-4.27823,1.34431-4.27823a3.0783,3.0783,0,0,0,1.92568,1.5c-0.76216-.418-1.00824-3.59824-1.00824-3.59824s0.46727,1.92618,1.57393,2.34412a2.77832,2.77832,0,0,1,.59018-2.14745s2.06531,1.28687,5.70412.4754A6.356,6.356,0,0,1,3365.58926,1078.38859Z" transform="translate(-2386.92644 68.08838)"/><path class="aj" d="M3370.56534,1110.907s4.281,0.9004,5.44511-1.621c0.95842-2.07657-.74844-3.99011-0.74844-3.99011a2.63757,2.63757,0,0,1,1.96747-.88666c0.02783-.44343-1.96727-0.99764-4.1008.80364C3370.995,1107.0141,3370.56534,1110.907,3370.56534,1110.907Z" transform="translate(-2386.92644 68.08838)"/><circle class="ak" cx="987.5718" cy="1174.95465" r="0.60061"/><path class="ak" d="M3375.84242,1107.90057c0.41568,1.74558-1.63491,2.57687-2.74314,2.10589C3373.93045,1109.95106,3375.56516,1109.81244,3375.84242,1107.90057Z" transform="translate(-2386.92644 68.08838)"/><path class="aj" d="M3339.28867,1110.907s-4.28088.9004-5.44481-1.621c-0.95862-2.07657.74814-3.99011,0.74814-3.99011a2.6367,2.6367,0,0,0-1.96727-.88666c-0.02783-.44343,1.96706-0.99764,4.1008.80364S3339.28867,1110.907,3339.28867,1110.907Z" transform="translate(-2386.92644 68.08838)"/><circle class="ak" cx="948.42965" cy="1174.95465" r="0.60054"/><path class="ak" d="M3334.0117,1107.90057c-0.41558,1.74558,1.63481,2.57687,2.74334,2.10589C3335.92367,1109.95106,3334.289,1109.81244,3334.0117,1107.90057Z" transform="translate(-2386.92644 68.08838)"/><path class="al" d="M3342.38533,1078.92231s-12.92393-1.78216-18.97039-5.96794-6.28423-8.48864-5.65549-10.69677-0.73862-3.97708-2.47539-.85245-2.01118,11.74147,3.29323,16.64,15.033,8.59265,15.033,8.59265a14.04,14.04,0,0,0,3.01659-2.23883c0.886-1.04707,1.55108-1.11863,2.1648-2.613S3342.38533,1078.92231,3342.38533,1078.92231Z" transform="translate(-2386.92644 68.08838)"/><path class="al" d="M3367.46889,1078.92231s12.92393-1.78216,18.97039-5.96794,6.28431-8.48864,5.65549-10.69677c-0.62864-2.208.73863-3.97708,2.47549-.85245,1.73666,3.12461,2.011,11.74147-3.29333,16.64-5.30452,4.89852-15.03295,8.59265-15.03295,8.59265a14.04376,14.04376,0,0,1-3.01667-2.23883c-0.8859-1.04707-1.551-1.11863-2.16472-2.613S3367.46889,1078.92231,3367.46889,1078.92231Z" transform="translate(-2386.92644 68.08838)"/><path class="am" d="M3107.06719,1149.37253c-11.19712-10.32455-13.10414-11.00888-15.48381-16.22637a21.71629,21.71629,0,0,1-1.74174-7.47755q-0.39581-4.05121,2.49566-12.44349-15.83008,6.09549-21.95831,9.34374a104.3376,104.3376,0,0,0-20.76558,14.72119c-4.626,4.069-10.93373,9.806-14.1891,16.389a34.55387,34.55387,0,0,0-5.16336,19.135,38.433,38.433,0,0,0,4.77287,17.62522c6.21788,14.24371,22.11006,24.37205,40.7347,24.37205a47.59783,47.59783,0,0,0,27.76734-8.66328l0.03963,0.00846q15.75106-9.78279,17.33187-25.24534a33.91964,33.91964,0,0,0-3.845-18.73507A56.7773,56.7773,0,0,0,3107.06719,1149.37253Z" transform="translate(-2386.92644 68.08838)"/><path class="n" d="M3561.68068,825.50492a28.882,28.882,0,0,0-57.76406,0c0,15.94924,28.88407,56.72038,28.88407,56.72038S3561.68068,841.45416,3561.68068,825.50492Zm-43.116-.31465a14.235,14.235,0,1,1,14.236,14.234A14.2294,14.2294,0,0,1,3518.56468,825.19027Z" transform="translate(-2386.92644 68.08838)"/><path class="n" d="M3555.34391,867.96654h-9.08436q-1.32976,2.16261-2.6079,4.18058h9.82593l16.49835,20.67893h-74.20526l16.49835-20.67893h9.67983q-1.27727-2.02132-2.60849-4.18058H3510.328l-23.14249,28.99022h91.30084Z" transform="translate(-2386.92644 68.08838)"/><path class="aj" d="M2793.93763,52.892c-3.35527,3.286-6.30789,6.68525-9.55339,10.0137a23.32876,23.32876,0,0,1-2.15338,1.904,10.35841,10.35841,0,0,1,.55137-2.88686c1.90046-5.01646,5.21374-8.2822,9.86043-10.85037a20.071,20.071,0,0,1,5.32-1.87668Q2795.9041,50.99176,2793.93763,52.892Zm-16.1921,25.52493c-3.804-2.64051-1.37084-11.31423-.09257-14.65129a28.5286,28.5286,0,0,1,3.51056-6.03271C2781.204,63.147,2778.87862,73.59771,2777.74553,78.4169Zm2.71639,18.5119a1.84865,1.84865,0,0,1-.73145-0.042c-4.632-1.26967-6.61342-10.36628-6.78338-14.58857a31.67335,31.67335,0,0,1,.36927-6.29119C2775.86075,80.16206,2779.34754,92.85523,2780.46192,96.9288Zm7.43288,11.33093q2.30362,2.12455,4.61836,4.239c-1.99657,1.76388-5.73982-.36573-7.527-1.49882a24.22811,24.22811,0,0,1-6.0838-5.99932,31.11889,31.11889,0,0,1-3.83785-7.23358C2778.66465,99.43273,2785.02818,105.62275,2787.8948,108.25972Zm4.88292,8.63326c1.86151,0.10977,3.67749.32374,5.52534,0.55795,4.72661,0.60044,9.3126,1.21757,14.06957,1.644-0.865,5.4783-13.20255,3.118-16.012,2.12151a29.57216,29.57216,0,0,1-7.75764-4.1717A18.79593,18.79593,0,0,1,2792.77772,116.893Zm-13.96486-38.3734c2.62028-1.07391,5.79192-8.2301,7.17642-10.74263l2.78063-4.64871C2782.53083,64.452,2778.53162,72.00936,2778.81287,78.51958Zm2.52265,18.05006c2.23229-1.57975,1.735-11.40832,1.90046-14.2714,0.09409-1.6187.23269-3.19188,0.42289-4.80047a10.10212,10.10212,0,0,0-3.49185,4.80047A17.24023,17.24023,0,0,0,2781.33551,96.56965Zm7.03276,11.24493a17.40005,17.40005,0,0,0,4.64872,4.00478c0.92064-1.9642-.865-5.00939-1.74011-6.74291a109.10163,109.10163,0,0,1-5.33666-11.378,7.61327,7.61327,0,0,0-1.11792,3.33352C2784.48035,101.22039,2785.84411,104.53519,2788.36828,107.81458Zm8.5761,2.48876a11.27867,11.27867,0,0,0,2.81047,3.92029c3.72656,3.26473,7.71616,4.36747,12.61779,4.08065-0.44008-2.91873-8.399-6.3873-11.031-8.00247a56.88389,56.88389,0,0,1-4.99775-3.46352A7.50448,7.50448,0,0,0,2796.94437,110.30334Z" transform="translate(-2386.92644 68.08838)"/><path class="aj" d="M2833.37329,52.892c3.35578,3.286,6.30789,6.68525,9.5539,10.0137a23.52933,23.52933,0,0,0,2.15338,1.904,10.41151,10.41151,0,0,0-.54985-2.88686c-1.902-5.01646-5.21526-8.2822-9.86043-10.85037a20.13168,20.13168,0,0,0-5.32149-1.87668Q2831.40733,50.99176,2833.37329,52.892Zm16.1921,25.52493c3.80244-2.64051,1.37084-11.31423.09307-14.65129a28.52835,28.52835,0,0,0-3.51057-6.03271C2846.10541,63.147,2848.4323,73.59771,2849.56539,78.4169ZM2846.849,96.9288a1.85279,1.85279,0,0,0,.732-0.042c4.63-1.26967,6.61139-10.36628,6.78338-14.58857a31.78753,31.78753,0,0,0-.36927-6.29119C2851.45067,80.16206,2847.96186,92.85523,2846.849,96.9288Zm-7.43238,11.33093q-2.30438,2.12455-4.61837,4.239c1.99455,1.76388,5.73982-.36573,7.52545-1.49882a24.21732,24.21732,0,0,0,6.08531-5.99932,31.09766,31.09766,0,0,0,3.83734-7.23358C2848.64677,99.43273,2842.28122,105.62275,2839.41663,108.25972Zm-4.88292,8.63326c-1.86354.10977-3.67749,0.32374-5.52737,0.55795-4.72459.60044-9.33638,1.21757-14.09132,1.644,0.865,5.4783,13.22633,3.118,16.03528,2.12151a29.59009,29.59009,0,0,0,7.75662-4.1717A18.78122,18.78122,0,0,0,2834.5337,116.893Zm13.96436-38.3734c-2.62028-1.07391-5.79193-8.2301-7.17794-10.74263L2838.54,63.12824C2844.78212,64.452,2848.77981,72.00936,2848.49806,78.51958Zm-2.52417,18.05006c-2.23078-1.57975-1.733-11.40832-1.89844-14.2714-0.09459-1.6187-.23268-3.19188-0.42339-4.80047a10.10311,10.10311,0,0,1,3.49235,4.80047A17.24251,17.24251,0,0,1,2845.97389,96.56965Zm-7.03124,11.24493a17.4236,17.4236,0,0,1-4.64872,4.00478c-0.92064-1.9642.86348-5.00939,1.74011-6.74291a109.5319,109.5319,0,0,0,5.33869-11.378,7.65614,7.65614,0,0,1,1.11589,3.33352C2842.83108,101.22039,2841.46681,104.53519,2838.94265,107.81458Zm-8.57559,2.48876a11.25409,11.25409,0,0,1-2.811,3.92029c-3.72807,3.26473-7.7374,4.36747-12.64106,4.08065,0.44009-2.91873,8.41726-6.3873,11.05271-8.00247a57.08966,57.08966,0,0,0,5.00129-3.46352A7.50568,7.50568,0,0,1,2830.36706,110.30334Z" transform="translate(-2386.92644 68.08838)"/><path class="aj" d="M2829.9811,86.97074a17.0843,17.0843,0,1,1-16.99841-21.64l-3.13421,7.77129a4.97073,4.97073,0,0,1-2.18879,2.45841c-0.02529.01163-.43,0.15529-0.46538,0.16693-1.92069.39962-3.937,2.23078-5.09892,4.87281-1.59847,3.62691-.98285,7.41063,1.37236,8.44761,2.35724,1.037,5.56278-1.06227,7.15973-4.68918a8.88948,8.88948,0,0,0,.60347-6.02461,4.89432,4.89432,0,0,0-.45526-1.03344c-0.01517-.03035-0.11635-0.25292-0.1467-0.33234a4.86727,4.86727,0,0,1,.29339-3.39422l3.9289-8.19772A17.08529,17.08529,0,0,1,2829.9811,86.97074ZM2818.377,58.01415l4.5779-9.55187a0.92839,0.92839,0,0,0-.48055-1.2292l-0.97628-.42845a0.94269,0.94269,0,0,0-1.23932.479L2816.0734,57.6636a25.344,25.344,0,0,0-2.56767-.13152A24.88352,24.88352,0,1,0,2818.377,58.01415Z" transform="translate(-2386.92644 68.08838)"/></g></svg>