<svg xmlns="http://www.w3.org/2000/svg" xmlns:xlink="http://www.w3.org/1999/xlink" width="100%" height="100%" viewBox="0 0 96 43">
  <defs>
    <linearGradient id="linearGradient-1" x1="32.671%" x2="56.16%" y1="38.34%" y2="72.698%">
      <stop offset="0%" stop-color="#213855" stop-opacity=".489"/>
      <stop offset="100%" stop-color="#213855" stop-opacity=".865"/>
    </linearGradient>
    <path id="path-2" d="M27.6821161,1.01879724 C26.9611165,0.0964232156 25.6882545,-0.0640514037 24.6122225,0.0193101906 C22.8799487,0.153370403 21.3751796,1.28649163 20.2037149,2.48834712 C20.1883775,2.50411056 20.172756,2.52143613 20.1572766,2.5386197 C18.7094547,3.59491193 17.3854681,4.80628228 16.066736,6.02517933 C14.5026055,7.470587 12.8903326,8.85208886 11.2236688,10.1755074 C7.82430508,12.8750313 4.13211072,15.2169667 1.07670238,18.3331566 C1.06406322,18.3462218 1.05128206,18.3602811 1.0385009,18.3743403 C1.00825214,18.392802 0.978287411,18.4114057 0.947896642,18.4294414 C0.478401871,18.7133252 -0.0125368535,19.3229868 5.04531305e-16,19.9048138 C0.0137355399,20.5188777 0.638450452,20.3477521 0.98794429,20.1629933 C2.82942605,19.1885005 4.69860033,18.2740792 6.5314193,17.2755862 C8.47330421,16.2174478 10.4187394,15.16499 12.3671569,14.1190647 C16.2997792,12.0080424 20.25981,9.95126899 24.2135922,7.88100439 C25.8095335,7.04540027 27.2117693,5.98399557 27.9962488,4.30327246 C28.5116137,3.19897986 28.4293882,1.97482834 27.6821161,1.01879724 Z"/>
    <linearGradient id="linearGradient-4" x1="100%" x2="0%" y1="49.999%" y2="49.999%">
      <stop offset="0%" stop-color="#213855" stop-opacity=".82"/>
      <stop offset="100%" stop-color="#213855" stop-opacity=".576"/>
    </linearGradient>
    <linearGradient id="linearGradient-5" x1="50.001%" x2="50.001%" y1="99.999%" y2="-.001%">
      <stop offset="0%" stop-color="#213855" stop-opacity=".81"/>
      <stop offset="100%" stop-color="#213855" stop-opacity=".512"/>
    </linearGradient>
    <linearGradient id="linearGradient-6" x1="0%" x2="100%" y1="49.998%" y2="49.998%">
      <stop offset="0%" stop-color="#213855" stop-opacity=".771"/>
      <stop offset="100%" stop-color="#213855" stop-opacity=".6"/>
    </linearGradient>
    <linearGradient id="linearGradient-7" x1="45.363%" x2="53.883%" y1=".37%" y2="98.059%">
      <stop offset="0%" stop-color="#213855" stop-opacity=".763"/>
      <stop offset="100%" stop-color="#213855" stop-opacity=".535"/>
    </linearGradient>
  </defs>
  <g id="Page-1" fill="none" fill-rule="evenodd" stroke="none" stroke-width="1">
    <g id="Eaternity-logo-black-outline-hestia" transform="translate(.843 1.13)">
      <g id="Group" transform="translate(0 19.167)">
        <path id="Path" stroke="#FFF" stroke-width="1.42" d="M27.6821161,1.01879724 C26.9611165,0.0964232156 25.6882545,-0.0640514037 24.6122225,0.0193101906 C22.8799487,0.153370403 21.3751796,1.28649163 20.2037149,2.48834712 C20.1883775,2.50411056 20.172756,2.52143613 20.1572766,2.5386197 C18.7094547,3.59491193 17.3854681,4.80628228 16.066736,6.02517933 C14.5026055,7.470587 12.8903326,8.85208886 11.2236688,10.1755074 C7.82430508,12.8750313 4.13211072,15.2169667 1.07670238,18.3331566 C1.06406322,18.3462218 1.05128206,18.3602811 1.0385009,18.3743403 C1.00825214,18.392802 0.978287411,18.4114057 0.947896642,18.4294414 C0.478401871,18.7133252 -0.0125368535,19.3229868 5.04531305e-16,19.9048138 C0.0137355399,20.5188777 0.638450452,20.3477521 0.98794429,20.1629933 C2.82942605,19.1885005 4.69860033,18.2740792 6.5314193,17.2755862 C8.47330421,16.2174478 10.4187394,15.16499 12.3671569,14.1190647 C16.2997792,12.0080424 20.25981,9.95126899 24.2135922,7.88100439 C25.8095335,7.04540027 27.2117693,5.98399557 27.9962488,4.30327246 C28.5116137,3.19897986 28.4293882,1.97482834 27.6821161,1.01879724 Z"/>
        <g id="Clipped">
          <mask id="mask-3" fill="#fff">
            <use xlink:href="#path-2"/>
          </mask>
          <use id="Path" fill="url(#linearGradient-1)" xlink:href="#path-2"/>
        </g>
      </g>
      <g id="Group" fill="#213855" fill-rule="nonzero" transform="translate(40.869 25.165)">
        <path id="Shape" d="M9.5137307,6.01339582 C9.55860679,5.78901538 9.58104483,5.49732081 9.58104483,5.09343601 C9.58104483,3.09645009 8.66108503,0 5.09343601,0 C1.92967179,0 0,2.55793703 0,5.83389147 C0,9.10984591 1.99698593,11.3312123 5.3402545,11.3312123 C7.06798389,11.3312123 8.27963828,10.9497655 8.97521764,10.6356329 L8.61620894,9.22203613 C7.89819153,9.53616875 7.02310781,9.78298723 5.60951103,9.78298723 C3.6125251,9.78298723 1.92967179,8.68352307 1.88479571,6.01339582 L9.5137307,6.01339582 Z M1.90723375,4.59979904 C2.06430006,3.23107835 2.91694573,1.41359678 4.9363697,1.41359678 C7.15773607,1.41359678 7.69624913,3.36570662 7.67381109,4.59979904 L1.90723375,4.59979904 Z"/>
      </g>
      <g id="Group" fill="#213855" fill-rule="nonzero" transform="translate(52.806 25.165)">
        <path id="Path" d="M0.0897521764,11.0843938 L2.06430006,11.0843938 L2.06430006,5.29537841 C2.06430006,4.98124579 2.0867381,4.64467513 2.13161419,4.3754186 C2.40087072,2.89450769 3.38814466,1.86235766 4.7793034,1.86235766 C5.04855992,1.86235766 5.25050232,1.86235766 5.45244472,1.90723375 L5.45244472,0.0448760882 C5.27294037,0.0224380441 5.11587406,4.03625044e-15 4.91393166,4.03625044e-15 C3.59008706,4.03625044e-15 2.37843268,0.919959808 1.88479571,2.37843268 L1.81748157,2.37843268 L1.7277294,0.224380441 L0,0.224380441 C0.0673141323,1.23409243 0.0897521764,2.33355659 0.0897521764,3.6125251 L0.0897521764,11.0843938 Z"/>
      </g>
      <g id="Group" fill="#213855" fill-rule="nonzero" transform="translate(60.233 25.165)">
        <path id="Path" d="M0.0897521764,11.0843938 L2.06430006,11.0843938 L2.06430006,4.55492295 C2.06430006,4.21835229 2.10917615,3.88178163 2.19892832,3.63496315 C2.55793703,2.53549898 3.56764901,1.61553918 4.84661753,1.61553918 C6.70897519,1.61553918 7.35967847,3.07401204 7.35967847,4.82417948 L7.35967847,11.0843938 L9.33422635,11.0843938 L9.33422635,4.62223709 C9.33422635,0.897521764 7.00066976,4.03625044e-15 5.49732081,4.03625044e-15 C3.70227728,4.03625044e-15 2.44574681,1.00971198 1.90723375,2.01942397 L1.86235766,2.01942397 L1.75016744,0.224380441 L8.07250088e-15,0.224380441 C0.0673141323,1.12190221 0.0897521764,2.01942397 0.0897521764,3.16376422 L0.0897521764,11.0843938 Z"/>
      </g>
      <g id="Group" fill="#213855" fill-rule="nonzero" transform="translate(72.529 21.104)">
        <path id="Shape" d="M2.22136637,15.1456798 L2.22136637,4.28566642 L0.246818485,4.28566642 L0.246818485,15.1456798 L2.22136637,15.1456798 Z M1.23409243,0 C0.49363697,0 0,0.560951103 0,1.23409243 C0,1.90723375 0.471198926,2.44574681 1.18921634,2.44574681 C1.97454788,2.44574681 2.44574681,1.90723375 2.44574681,1.23409243 C2.44574681,0.538513059 1.95210984,0 1.23409243,0 Z"/>
      </g>
      <g id="Group" fill="#213855" fill-rule="nonzero" transform="translate(76.792 22.787)">
        <path id="Path" d="M1.68285331,0.583389147 L1.68285331,2.60281312 L0,2.60281312 L0,4.10616207 L1.68285331,4.10616207 L1.68285331,10.0298057 C1.68285331,11.3087742 1.90723375,12.2736101 2.44574681,12.8794373 C2.91694573,13.3955123 3.65740119,13.709645 4.577361,13.709645 C5.3402545,13.709645 5.94608169,13.5750167 6.32752844,13.4403884 L6.23777626,11.9370395 C5.94608169,12.0267916 5.63194907,12.0716677 5.09343601,12.0716677 C3.99397185,12.0716677 3.6125251,11.3087742 3.6125251,9.96249158 L3.6125251,4.10616207 L6.43971866,4.10616207 L6.43971866,2.60281312 L3.6125251,2.60281312 L3.6125251,4.03625044e-15 L1.68285331,0.583389147 Z"/>
      </g>
      <g id="Group" fill="#213855" fill-rule="nonzero" transform="translate(84.218 25.39)">
        <path id="Path" d="M0,0 L3.99397185,10.0073677 C4.10616207,10.2541862 4.15103816,10.4112525 4.15103816,10.5234427 C4.15103816,10.6356329 4.08372403,10.7926992 3.99397185,10.9946416 C3.52277293,12.0043536 2.87206965,12.7672471 2.33355659,13.1935699 C1.75016744,13.6872069 1.09946416,14.0013395 0.605827191,14.1584058 L1.09946416,15.7963831 C1.59310113,15.7066309 2.53549898,15.3700602 3.52277293,14.5398526 C4.86905557,13.3506362 5.83389147,11.4658405 7.24748825,7.74112522 L10.2093101,0 L8.12257197,0 L5.96851973,6.37240453 C5.6992632,7.15773607 5.47488276,7.9879437 5.27294037,8.63864698 L5.22806428,8.63864698 C5.04855992,7.9879437 4.7793034,7.13529803 4.51004687,6.41728062 L2.15405223,0 L0,0 Z"/>
      </g>
      <g id="Group" fill="#213855" fill-rule="nonzero" transform="translate(9.568 25.369)">
        <path id="Shape" d="M9.8363841,6.40251127 C9.88069213,6.15881707 9.92500017,5.76004474 9.92500017,5.25050232 C9.92500017,2.88002237 8.77299122,4.03625044e-15 5.27265634,4.03625044e-15 C1.8166295,4.03625044e-15 -2.01812522e-15,2.81356032 -2.01812522e-15,5.80435278 C-2.01812522e-15,9.10530149 2.0603237,11.2542413 5.56065858,11.2542413 C7.11143985,11.2542413 8.39637291,10.966239 9.32684168,10.5674667 L8.92806935,8.70652917 C8.08621666,8.9945314 7.20005593,9.19391757 5.93727689,9.19391757 C4.18710945,9.19391757 2.68063621,8.35206487 2.61417415,6.40251127 L9.8363841,6.40251127 Z M2.61417415,4.4972657 C2.72494424,3.38956479 3.43387283,1.86093753 5.11757821,1.86093753 C6.93420771,1.86093753 7.37728807,3.50033488 7.35513405,4.4972657 L2.61417415,4.4972657 Z"/>
      </g>
      <g id="Group" fill="#213855" fill-rule="nonzero" transform="translate(20.933 25.369)">
        <path id="Shape" d="M9.12745551,4.56372776 C9.12745551,2.19324781 8.13052469,-4.03625044e-15 4.67449785,-4.03625044e-15 C2.96863844,-4.03625044e-15 1.57293529,0.465234383 0.775390638,0.952622784 L1.30708708,2.72494424 C2.03816968,2.25970986 3.14587059,1.92739959 4.20926346,1.92739959 C6.11450903,1.92739959 6.40251127,3.10156255 6.40251127,3.81049114 L6.40251127,3.98772328 C2.41478799,3.96556926 -4.03625044e-15,5.36127241 -4.03625044e-15,8.06406264 C-4.03625044e-15,9.70345999 1.218471,11.2763953 3.38956479,11.2763953 C4.80742196,11.2763953 5.93727689,10.6782368 6.57974342,9.8363841 L6.64620547,9.8363841 L6.84559163,11.0327011 L9.30468766,11.0327011 C9.17176355,10.3680805 9.12745551,9.41545775 9.12745551,8.44068095 L9.12745551,4.56372776 Z M6.46897332,7.24436396 C6.46897332,7.44375013 6.46897332,7.64313629 6.40251127,7.84252245 C6.13666305,8.61791309 5.36127241,9.32684168 4.2535715,9.32684168 C3.38956479,9.32684168 2.70279022,8.83945328 2.70279022,7.7760604 C2.70279022,6.13666305 4.54157374,5.73789072 6.46897332,5.76004474 L6.46897332,7.24436396 Z"/>
      </g>
      <g id="Group" fill="#FFF" fill-rule="nonzero" transform="translate(31.722 22.843)">
        <path id="Path" d="M1.52862726,0.75323662 L1.52862726,2.76925228 L0,2.76925228 L0,4.80742196 L1.52862726,4.80742196 L1.52862726,9.88069213 C1.52862726,11.2985493 1.79447548,12.2954801 2.39263397,12.9157926 C2.90217639,13.4696431 3.72187506,13.8019534 4.7409599,13.8019534 C5.5828126,13.8019534 6.3138952,13.6690293 6.71266753,13.5139511 L6.66835949,11.4536274 C6.35820323,11.5422435 6.09235501,11.5643975 5.60496661,11.5643975 C4.56372776,11.5643975 4.20926346,10.899777 4.20926346,9.57053588 L4.20926346,4.80742196 L6.8012836,4.80742196 L6.8012836,2.76925228 L4.20926346,2.76925228 L4.20926346,-4.03625044e-15 L1.52862726,0.75323662 Z"/>
      </g>
      <g id="Group" transform="translate(12.947 9.617)">
        <path id="Path" stroke="#FFF" stroke-width="1.42" d="M17.8867771,8.52535735 C18.478261,6.68330754 19.0329636,4.39973951 18.0144468,2.59219884 C17.2475769,1.23128886 15.7829975,0.56851448 14.3103233,0.26971926 C10.9297054,-0.416345241 7.36390251,0.371116497 4.00245629,0.810504525 C3.38952845,0.890741835 2.7687899,0.969985054 2.14932947,0.962174342 C2.36533114,0.964872588 2.03202678,0.94754701 1.9696831,0.940020324 C1.8829132,0.929369354 1.79898355,0.912327801 1.71363377,0.893866119 C1.62260348,0.873984308 1.68579924,0.936043962 1.66705353,0.857936846 C1.57545519,0.474217889 1.01109577,0.699734434 0.822360579,0.821155496 C0.403422413,1.09069605 -0.00756302739,1.61032139 -2.01812522e-15,2.13250296 C0.0160111202,3.19404967 1.56636636,2.96739702 2.24064378,2.90647347 C3.78063208,2.7674428 5.30769719,2.4875353 6.84214698,2.29837407 C8.58478774,2.08365051 10.3612276,1.92402797 12.1145193,2.09799382 C13.5653235,2.24199493 15.0735009,2.637927 16.0437332,3.79930881 C17.1873634,5.16831352 16.9144146,7.30106382 16.512518,8.90694611 C16.4436417,9.18202517 16.5735835,9.46761319 16.8924026,9.42373119 C17.3107727,9.36578991 17.7609537,8.91731306 17.8867771,8.52535735 Z"/>
        <path id="Path" fill="url(#linearGradient-4)" d="M17.8867771,8.52535735 C18.478261,6.68330754 19.0329636,4.39973951 18.0144468,2.59219884 C17.2475769,1.23128886 15.7829975,0.56851448 14.3103233,0.26971926 C10.9297054,-0.416345241 7.36390251,0.371116497 4.00245629,0.810504525 C3.38952845,0.890741835 2.7687899,0.969985054 2.14932947,0.962174342 C2.36533114,0.964872588 2.03202678,0.94754701 1.9696831,0.940020324 C1.8829132,0.929369354 1.79898355,0.912327801 1.71363377,0.893866119 C1.62260348,0.873984308 1.68579924,0.936043962 1.66705353,0.857936846 C1.57545519,0.474217889 1.01109577,0.699734434 0.822360579,0.821155496 C0.403422413,1.09069605 -0.00756302739,1.61032139 -2.01812522e-15,2.13250296 C0.0160111202,3.19404967 1.56636636,2.96739702 2.24064378,2.90647347 C3.78063208,2.7674428 5.30769719,2.4875353 6.84214698,2.29837407 C8.58478774,2.08365051 10.3612276,1.92402797 12.1145193,2.09799382 C13.5653235,2.24199493 15.0735009,2.637927 16.0437332,3.79930881 C17.1873634,5.16831352 16.9144146,7.30106382 16.512518,8.90694611 C16.4436417,9.18202517 16.5735835,9.46761319 16.8924026,9.42373119 C17.3107727,9.36578991 17.7609537,8.91731306 17.8867771,8.52535735 Z"/>
      </g>
      <g id="Group" transform="translate(30.938)">
        <path id="Path" stroke="#FFF" stroke-width="1.42" d="M5.56194013,7.94596207 C4.65504551,8.13128895 3.584694,8.14691037 2.8097294,7.57275207 C2.17138125,7.09984898 1.93734393,6.31778374 1.90581705,5.55645238 C1.86875168,4.66404308 2.168683,3.92287756 2.58321877,3.28978389 C2.80475895,2.95136706 2.43680343,3.46928824 2.69072256,3.1504692 C2.77053383,3.05006605 2.85730374,2.95548543 2.94407364,2.86118884 C2.8756234,2.93574563 3.21574439,2.63141191 3.26232463,2.59761283 C3.73664784,2.25436756 4.26323182,2.12897014 4.78981579,1.89819911 C5.23033992,1.70506152 5.59403505,1.31211172 5.77936194,0.870451485 C5.94594311,0.473099286 5.92435714,-0.0111648303 5.39777317,0.000196204692 C3.96188036,0.031155025 2.44773842,1.35570969 1.60304547,2.4040492 C0.690754362,3.53617633 0.142158385,4.88856554 0.015624858,6.33326315 C-0.079807836,7.4216503 0.260313149,8.57564743 1.08015384,9.32306152 C2.17322742,10.3195663 3.71875421,10.0825467 5.00155708,9.69584548 C5.40473181,9.57428241 5.75877006,9.11813685 5.91384819,8.74833516 C6.03796749,8.45223819 6.06537599,7.84300269 5.56194013,7.94596207 Z"/>
        <path id="Path" fill="url(#linearGradient-5)" d="M5.56194013,7.94596207 C4.65504551,8.13128895 3.584694,8.14691037 2.8097294,7.57275207 C2.17138125,7.09984898 1.93734393,6.31778374 1.90581705,5.55645238 C1.86875168,4.66404308 2.168683,3.92287756 2.58321877,3.28978389 C2.80475895,2.95136706 2.43680343,3.46928824 2.69072256,3.1504692 C2.77053383,3.05006605 2.85730374,2.95548543 2.94407364,2.86118884 C2.8756234,2.93574563 3.21574439,2.63141191 3.26232463,2.59761283 C3.73664784,2.25436756 4.26323182,2.12897014 4.78981579,1.89819911 C5.23033992,1.70506152 5.59403505,1.31211172 5.77936194,0.870451485 C5.94594311,0.473099286 5.92435714,-0.0111648303 5.39777317,0.000196204692 C3.96188036,0.031155025 2.44773842,1.35570969 1.60304547,2.4040492 C0.690754362,3.53617633 0.142158385,4.88856554 0.015624858,6.33326315 C-0.079807836,7.4216503 0.260313149,8.57564743 1.08015384,9.32306152 C2.17322742,10.3195663 3.71875421,10.0825467 5.00155708,9.69584548 C5.40473181,9.57428241 5.75877006,9.11813685 5.91384819,8.74833516 C6.03796749,8.45223819 6.06537599,7.84300269 5.56194013,7.94596207 Z"/>
      </g>
      <g id="Group" transform="translate(33.003 10.714)">
        <path id="Path" stroke="#FFF" stroke-width="1.42" d="M0.541961972,3.40340907 C2.4709237,2.62318999 4.55680973,2.45547271 6.55706195,3.03474349 C8.15499152,3.49742164 9.59869504,4.37704977 11.1311566,5.00545702 C12.2911183,5.48134237 13.5328794,5.71580573 14.7286284,5.22458298 C16.4662987,4.51068394 17.5241531,2.64577005 18.1183352,0.964620898 C18.2538155,0.581185967 18.3113308,-0.0773280238 17.698687,0.0074536998 C17.1140197,0.0881170482 16.5813292,0.68286723 16.3742743,1.20348666 C16.1138226,1.85873435 15.8259623,2.52292886 15.3867163,3.01826999 C15.4550246,2.94129897 15.1736969,3.14835384 15.1727028,3.14892189 C14.9484644,3.25372744 14.735019,3.27715957 14.4747092,3.29533723 C13.3714107,3.37216623 12.1698393,2.71919074 11.2015951,2.27412219 C9.6718317,1.57101614 8.16308626,0.874868721 6.47057607,0.672074247 C4.43879697,0.428522059 2.6684637,1.17778232 0.849561994,1.96595412 C0.454766029,2.1369377 0.105414202,2.53613606 0.0146679355,2.96089676 C-0.0650013224,3.33311267 0.189627874,3.54584805 0.541961972,3.40340907 Z"/>
        <path id="Path" fill="url(#linearGradient-6)" d="M0.541961972,3.40340907 C2.4709237,2.62318999 4.55680973,2.45547271 6.55706195,3.03474349 C8.15499152,3.49742164 9.59869504,4.37704977 11.1311566,5.00545702 C12.2911183,5.48134237 13.5328794,5.71580573 14.7286284,5.22458298 C16.4662987,4.51068394 17.5241531,2.64577005 18.1183352,0.964620898 C18.2538155,0.581185967 18.3113308,-0.0773280238 17.698687,0.0074536998 C17.1140197,0.0881170482 16.5813292,0.68286723 16.3742743,1.20348666 C16.1138226,1.85873435 15.8259623,2.52292886 15.3867163,3.01826999 C15.4550246,2.94129897 15.1736969,3.14835384 15.1727028,3.14892189 C14.9484644,3.25372744 14.735019,3.27715957 14.4747092,3.29533723 C13.3714107,3.37216623 12.1698393,2.71919074 11.2015951,2.27412219 C9.6718317,1.57101614 8.16308626,0.874868721 6.47057607,0.672074247 C4.43879697,0.428522059 2.6684637,1.17778232 0.849561994,1.96595412 C0.454766029,2.1369377 0.105414202,2.53613606 0.0146679355,2.96089676 C-0.0650013224,3.33311267 0.189627874,3.54584805 0.541961972,3.40340907 Z"/>
      </g>
      <g id="Group" transform="translate(30.75 15.725)">
        <path id="Path" stroke="#FFF" stroke-width="1.42" d="M1.90816247,1.97416835 C4.41270264,1.59130147 7.57618283,2.01805035 9.1444317,4.24736944 C9.71986812,5.06536396 10.0171012,6.03531232 10.0340007,7.02982892 C10.0524624,8.11494978 9.7262587,8.72290716 9.20961564,9.52954065 C8.4430298,10.7265677 7.11421475,11.6034976 5.98975631,12.431859 C4.60257393,13.4539262 3.18869313,14.4555434 2.00544134,15.7176124 C0.388766056,17.4417915 -0.775171979,20.1218596 0.627773829,22.3342792 C2.19474458,24.8057303 5.60561131,24.5049469 7.96345211,23.5342885 C8.50253322,23.3123223 8.97941266,22.7489569 9.1016858,22.1779229 C9.21927252,21.6283328 8.86026381,21.4366154 8.38281631,21.574652 C6.12055022,22.2283375 2.9600523,22.4302799 2.11450727,19.6547791 C1.99862471,19.2744684 1.98697965,18.820169 2.04066054,18.4510774 C2.11905169,17.9118543 2.2575143,17.645296 2.52038025,17.2534823 C3.198208,16.2427762 4.64929619,15.2604727 5.7317188,14.4636381 C8.23256663,12.6222984 10.8346697,10.6522949 11.7608781,7.54476783 C12.3780663,5.47393518 11.7365938,3.18994111 10.190357,1.70562189 C8.15389146,-0.249470222 5.19917028,-0.207718418 2.61709106,0.286628617 C2.14915843,0.376380793 1.75762876,0.798727269 1.57926051,1.22405602 C1.45556724,1.5191589 1.44065588,2.04574287 1.90816247,1.97416835 Z"/>
        <path id="Path" fill="url(#linearGradient-7)" d="M1.90816247,1.97416835 C4.41270264,1.59130147 7.57618283,2.01805035 9.1444317,4.24736944 C9.71986812,5.06536396 10.0171012,6.03531232 10.0340007,7.02982892 C10.0524624,8.11494978 9.7262587,8.72290716 9.20961564,9.52954065 C8.4430298,10.7265677 7.11421475,11.6034976 5.98975631,12.431859 C4.60257393,13.4539262 3.18869313,14.4555434 2.00544134,15.7176124 C0.388766056,17.4417915 -0.775171979,20.1218596 0.627773829,22.3342792 C2.19474458,24.8057303 5.60561131,24.5049469 7.96345211,23.5342885 C8.50253322,23.3123223 8.97941266,22.7489569 9.1016858,22.1779229 C9.21927252,21.6283328 8.86026381,21.4366154 8.38281631,21.574652 C6.12055022,22.2283375 2.9600523,22.4302799 2.11450727,19.6547791 C1.99862471,19.2744684 1.98697965,18.820169 2.04066054,18.4510774 C2.11905169,17.9118543 2.2575143,17.645296 2.52038025,17.2534823 C3.198208,16.2427762 4.64929619,15.2604727 5.7317188,14.4636381 C8.23256663,12.6222984 10.8346697,10.6522949 11.7608781,7.54476783 C12.3780663,5.47393518 11.7365938,3.18994111 10.190357,1.70562189 C8.15389146,-0.249470222 5.19917028,-0.207718418 2.61709106,0.286628617 C2.14915843,0.376380793 1.75762876,0.798727269 1.57926051,1.22405602 C1.45556724,1.5191589 1.44065588,2.04574287 1.90816247,1.97416835 Z"/>
      </g>
      <g id="Group" fill="#213855" fill-rule="nonzero" transform="translate(31.722 22.843)">
        <path id="Path" d="M1.52862726,0.75323662 L1.52862726,2.76925228 L0,2.76925228 L0,4.80742196 L1.52862726,4.80742196 L1.52862726,9.88069213 C1.52862726,11.2985493 1.79447548,12.2954801 2.39263397,12.9157926 C2.90217639,13.4696431 3.72187506,13.8019534 4.7409599,13.8019534 C5.5828126,13.8019534 6.3138952,13.6690293 6.71266753,13.5139511 L6.66835949,11.4536274 C6.35820323,11.5422435 6.09235501,11.5643975 5.60496661,11.5643975 C4.56372776,11.5643975 4.20926346,10.899777 4.20926346,9.57053588 L4.20926346,4.80742196 L5.71587872,4.81807293 L6.8012836,3.98942744 L6.8012836,2.76925228 L4.20926346,2.76925228 L4.20926346,-4.03625044e-15 L1.52862726,0.75323662 Z"/>
      </g>
    </g>
  </g>
</svg>
