<?xml version="1.0" encoding="UTF-8"?>
<svg width="33px" height="25px" viewBox="0 0 33 25" version="1.1" xmlns="http://www.w3.org/2000/svg" xmlns:xlink="http://www.w3.org/1999/xlink">
    <!-- Generator: Sketch 48.2 (47327) - http://www.bohemiancoding.com/sketch -->
    <title>Report-Icon-CO2</title>
    <desc>Created with Sketch.</desc>
    <defs></defs>
    <g id="Symbols" stroke="none" stroke-width="1" fill="none" fill-rule="evenodd">
        <g id="Report-Icon-CO2">
            <g id="cloud" transform="translate(1.000000, 0.000000)">
                <path d="M26.1443858,11.2766602 C26.1976924,10.9673024 26.2308072,10.6505399 26.2308072,10.3255497 C26.2308072,7.30519809 23.8263558,4.85995564 20.8638003,4.85995564 C19.969703,4.85995564 19.1272969,5.08621461 18.3874657,5.47949385 C17.3326409,3.90555415 15.5605998,2.87134494 13.5470636,2.87134494 C10.3147444,2.87134494 7.69625884,5.54120084 7.69625884,8.833886 C7.69625884,8.84293636 7.69787419,8.85116396 7.69787419,8.85939155 C4.96066031,9.10951057 2.81870362,11.4469715 2.81870362,14.3003028 C2.81870362,17.3181862 5.21911662,19.7634286 8.18490281,19.7634286 C8.32059237,19.7634286 8.45466658,19.7527327 8.5887408,19.7436824 C10.1952083,21.8343153 12.6909271,23.1861098 15.5000241,23.1861098 C17.4150239,23.1861098 19.1797959,22.5542302 20.6223052,21.4936927 C21.1618327,21.660713 21.734475,21.7520393 22.3265015,21.7520393 C25.5604361,21.7520393 28.180537,19.0838289 28.180537,15.7886755 C28.180537,13.984363 27.3898222,12.3692853 26.1443858,11.2766602 Z" id="Path" fill="#FFFFFF"></path>
                <path d="M16.2311983,11.5435217 C15.2038459,11.5435217 14.5166829,12.3916132 14.5166829,13.3887871 L14.5166829,13.4095204 C14.5166829,14.405707 15.2232299,15.2735444 16.2515515,15.2735444 C17.2866575,15.2735444 17.9738205,14.425453 17.9738205,13.4282791 L17.9738205,13.4095204 C17.9747897,12.4113592 17.2672735,11.5435217 16.2311983,11.5435217 M24.9918003,18.5178151 L20.5945383,18.5178151 L20.5945383,17.3379905 L22.6744422,15.7207917 C23.1900568,15.3081 23.3877737,15.0415287 23.3877737,14.7018972 C23.3877737,14.3484435 23.1415968,14.1292627 22.7684547,14.1292627 C22.3953125,14.1292627 22.1016448,14.3484435 21.6645355,14.8549289 L20.6255527,13.9742565 C21.2196725,13.1903396 21.8079771,12.7608637 22.8866971,12.7608637 C24.1011051,12.7608637 24.9336482,13.4964029 24.9336482,14.5636751 L24.9336482,14.5804592 C24.9336482,15.4868014 24.4723089,15.9577439 23.6484886,16.5609848 L22.6967338,17.2402478 L24.9908311,17.2402478 L24.9918003,18.5178151 Z M19.8928372,13.4085331 C19.8928372,15.3910332 18.3237018,16.9993463 16.2311983,16.9993463 C14.1386947,16.9993463 12.5889434,15.4117665 12.5889434,13.4272918 L12.5889434,13.4085331 C12.5889434,11.4250456 14.1580787,9.81673253 16.2505823,9.81673253 C18.3411475,9.81673253 19.8928372,11.4043123 19.8928372,13.3887871 L19.8928372,13.4085331 Z M9.20546494,16.9993463 C7.26803344,16.9993463 5.70955927,15.4907506 5.70955927,13.4272918 L5.70955927,13.4085331 C5.70955927,11.3944393 7.22926542,9.81673253 9.28300097,9.81673253 C10.6689575,9.81673253 11.5596526,10.4081257 12.1605568,11.2572045 L10.7464935,12.3718672 C10.3597826,11.879204 9.9149196,11.5622805 9.26555536,11.5622805 C8.31573902,11.5622805 7.64699078,12.3817402 7.64699078,13.3887871 L7.64699078,13.4095204 C7.64699078,14.445199 8.31476982,15.2537984 9.26555536,15.2537984 C9.97210242,15.2537984 10.3878894,14.9171288 10.7949535,14.4136054 L12.2090168,15.439411 C11.5703138,16.3388421 10.7067563,16.9993463 9.20546494,16.9993463 Z M28.1446863,10.5498881 C28.2086515,10.178678 28.2483875,9.79858257 28.2483875,9.40861451 C28.2483875,5.78437973 25.3631699,2.85024033 21.8082563,2.85024033 C20.7353857,2.85024033 19.7245419,3.12173708 18.8367827,3.59364779 C17.5710474,1.70501768 15.4446895,0.46403073 13.02855,0.46403073 C9.1499338,0.46403073 6.00788637,3.66769236 6.00788637,7.61871049 C6.00788637,7.62957036 6.00982471,7.63944297 6.00982471,7.64931558 C2.72530936,7.94944289 0.155071908,10.7542511 0.155071908,14.1780719 C0.155071908,17.7993449 3.03544359,20.7334843 6.5942339,20.7334843 C6.75705437,20.7334843 6.9179365,20.7206499 7.07881864,20.7097901 C9.00649672,23.21842 12.0012304,24.8404897 15.3720018,24.8404897 C17.6699027,24.8404897 19.787538,24.0822733 21.5184746,22.809694 C22.1658798,23.010108 22.853021,23.1196939 23.5634222,23.1196939 C27.4439768,23.1196939 30.5879626,19.9180068 30.5879626,15.9640269 C30.5879626,13.7989637 29.6391457,11.8609706 28.1446863,10.5498881 Z" id="Shape" fill="#D96A2C" fill-rule="nonzero"></path>
            </g>
        </g>
    </g>
</svg>