<?xml version="1.0" encoding="UTF-8"?>
<svg width="33px" height="25px" viewBox="0 0 33 25" version="1.1" xmlns="http://www.w3.org/2000/svg" xmlns:xlink="http://www.w3.org/1999/xlink">
    <!-- Generator: Sketch 48.2 (47327) - http://www.bohemiancoding.com/sketch -->
    <title>Report-Icon-Menu</title>
    <desc>Created with Sketch.</desc>
    <defs></defs>
    <g id="Symbols" stroke="none" stroke-width="1" fill="none" fill-rule="evenodd">
        <g id="Report-Icon-Menu" fill="#D96A2C">
            <g id="Group" transform="translate(1.000000, 1.000000)">
                <path d="M2.56844118,18 L28.2510294,18 C29.6697353,18 30.8194706,19.1368889 30.8194706,20.5377778 C30.8194706,21.9395556 29.6697353,23.0764444 28.2510294,23.0764444 L2.56844118,23.0764444 C1.14973529,23.0764444 0,21.9395556 0,20.5377778 C0,19.1368889 1.14973529,18 2.56844118,18" id="Fill-7"></path>
                <path d="M28.4265659,12.7427237 C28.4265659,12.7427237 26.1151169,6.42910831 18.8464957,4.69044679 C19.0191427,4.22220788 19.1174045,3.71547131 19.1174045,3.18545709 C19.1174045,0.839786045 17.2651229,0 14.9803055,0 C12.6954882,0 10.8432066,0.839786045 10.8432066,3.18545709 C10.8432066,3.72084308 10.9442234,4.23026553 11.1205437,4.70298091 C4.10538303,6.45865302 2.56900865,12.7427237 2.56900865,12.7427237 C1.42568163,12.7427237 0.5,13.6926309 0.5,14.8663617 C0.5,16.0391972 1.42568163,16.9899998 2.56900865,16.9899998 L28.4265659,16.9899998 C29.569893,16.9899998 30.4955746,16.0391972 30.4955746,14.8663617 C30.4955746,13.6926309 29.569893,12.7427237 28.4265659,12.7427237 Z M3.60305381,13.8045427 L7.74015277,8.49455224 L10.8432066,8.49455224 L3.60305381,13.8045427 Z M14.9803055,5.30909515 C13.8378969,5.30909515 12.9112969,4.35829261 12.9112969,3.18545709 C12.9112969,2.01262157 13.8378969,2.12363806 14.9803055,2.12363806 C16.1236326,2.12363806 17.0483959,2.01262157 17.0483959,3.18545709 C17.0483959,4.35829261 16.1236326,5.30909515 14.9803055,5.30909515 Z" id="Fill-9"></path>
            </g>
        </g>
    </g>
</svg>