<?xml version="1.0" encoding="UTF-8"?>
<svg width="33px" height="25px" viewBox="0 0 33 25" version="1.1" xmlns="http://www.w3.org/2000/svg" xmlns:xlink="http://www.w3.org/1999/xlink">
    <!-- Generator: Sketch 48.2 (47327) - http://www.bohemiancoding.com/sketch -->
    <title>Report-Icon-Award</title>
    <desc>Created with Sketch.</desc>
    <defs></defs>
    <g id="Symbols" stroke="none" stroke-width="1" fill="none" fill-rule="evenodd">
        <g id="Report-Icon-Award" fill="#DE6E2B">
            <g id="Group" transform="translate(2.000000, -2.000000)">
                <g id="Page-1" transform="translate(0.929062, 0.929062)">
                    <g id="Group-10" transform="translate(0.214335, 2.197223)">
                        <path d="M6.59076183,1.21803154 C5.54051807,2.24581638 4.61646432,3.30874827 3.60078215,4.34984639 C3.38215998,4.56339132 3.16996788,4.75909646 2.92669713,4.94521605 C2.94089685,4.61877454 2.99903535,4.35304157 3.09923718,4.04230973 C3.69401808,2.47347339 4.73113379,1.45207892 6.18539989,0.649022163 C6.70945009,0.378496412 7.271009,0.175868365 7.8505185,0.0621729949 C7.42104382,0.436542292 7.00041048,0.821029678 6.59076183,1.21803154 M1.52279986,9.20067131 C0.33216638,8.37498199 1.09386102,5.66226905 1.49386458,4.61877454 C1.75294256,3.98213373 2.17411174,3.28664823 2.59260173,2.73201719 C2.60519394,4.42519952 1.87752505,7.69360857 1.52279986,9.20067131 M2.37290788,14.9903484 C2.29012081,15.0012653 2.22528434,14.9964725 2.14410478,14.9770351 C0.694393308,14.5800333 0.0741600694,11.7352526 0.0208441235,10.4145757 C-0.00380445443,9.72228543 0.0304892193,9.13224108 0.136585272,8.44713994 C0.932841508,9.74651559 2.02434484,13.716268 2.37290788,14.9903484 M4.69951931,18.5338097 C5.18016658,18.9768755 5.66242137,19.4183437 6.14494407,19.8595457 C5.51988828,20.4112478 4.34854499,19.7453178 3.78912944,19.3909184 C2.99635616,18.8488018 2.45703455,18.2840527 1.88502679,17.5145454 C1.3958061,16.8395623 0.976244439,16.0381032 0.683676535,15.2523537 C1.81054522,15.7734352 3.80225749,17.7091855 4.69951931,18.5338097 M6.22773114,21.2340082 C6.81045568,21.2683564 7.37871257,21.3351891 7.95715039,21.4084121 C9.43660091,21.5961293 10.8718447,21.7891718 12.3606724,21.9225708 C12.0900739,23.635723 8.22855267,22.897635 7.34924144,22.5861044 C6.47984323,22.2780352 5.66054593,21.8317742 4.92108859,21.2814034 C5.34466905,21.2071154 5.79906022,21.2113756 6.22773114,21.2340082 M1.85689526,9.23288944 C2.67699632,8.89712864 3.66963742,6.65890082 4.10313089,5.87315133 L4.97333286,4.41934168 C3.02046889,4.83338454 1.7687498,7.19675714 1.85689526,9.23288944 M2.64645352,14.8779844 C3.34518712,14.3837956 3.18952599,11.3100266 3.24123442,10.4145757 C3.27070554,9.90840502 3.31410848,9.41634637 3.37358657,8.91337084 C2.87016615,9.25658707 2.48596984,9.84876155 2.28074364,10.4145757 C1.75669343,11.9032662 1.87591753,13.501658 2.64645352,14.8779844 M4.8476787,18.3948191 C5.29403229,18.9268176 5.70743181,19.2868086 6.30248063,19.6470658 C6.59076183,19.0327913 6.03188212,18.0806258 5.75806856,17.538243 C5.11372259,16.2633638 4.60226459,15.3340972 4.08759157,13.9798708 C3.88665207,14.2932653 3.77573347,14.6553864 3.73768893,15.0225665 C3.63078912,16.3323265 4.0575846,17.3691644 4.8476787,18.3948191 M7.53196242,19.1731132 C7.75192419,19.6771538 8.01368137,20.0206363 8.41154157,20.3989996 C9.57779439,21.4201278 10.8265664,21.7649416 12.3606724,21.6752101 C12.2229619,20.762452 9.731848,19.6776863 8.908264,19.1725807 C8.36787072,18.8381512 7.84542803,18.4792253 7.34388305,18.0894126 C7.31387609,18.4595216 7.38969726,18.830962 7.53196242,19.1731132" id="Fill-6"></path>
                        <path d="M18.933698,1.21803154 C19.9839418,2.24581638 20.9079955,3.30874827 21.9239456,4.34984639 C22.1428357,4.56339132 22.3544919,4.75909646 22.5980306,4.94521605 C22.583563,4.61877454 22.5256924,4.35304157 22.4257585,4.04230973 C21.8304417,2.47347339 20.793594,1.45207892 19.3395958,0.649022163 C18.8150097,0.378496412 18.252915,0.175868365 17.6742092,0.0621729949 C18.1036839,0.436542292 18.5243173,0.821029678 18.933698,1.21803154 M24.00166,9.20067131 C25.1917576,8.37498199 24.4305988,5.66226905 24.0308632,4.61877454 C23.7715173,3.98213373 23.3503481,3.28664823 22.932126,2.73201719 C22.91873,4.42519952 23.6469348,7.69360857 24.00166,9.20067131 M23.1515519,14.9903484 C23.234339,15.0012653 23.2986397,14.9964725 23.380623,14.9770351 C24.8297986,14.5800333 25.4497639,11.7352526 25.5036157,10.4145757 C25.5285322,9.72228543 25.4937027,9.13224108 25.3881425,8.44713994 C24.5916183,9.74651559 23.4998471,13.716268 23.1515519,14.9903484 M20.8252084,18.5338097 C20.3442932,18.9768755 19.8615026,19.4183437 19.3797837,19.8595457 C20.0040357,20.4112478 21.1761828,19.7453178 21.7350625,19.3909184 C22.5283716,18.8488018 23.0674253,18.2840527 23.639701,17.5145454 C24.1289216,16.8395623 24.5484833,16.0381032 24.8407833,15.2523537 C23.7141825,15.7734352 21.7216665,17.7091855 20.8252084,18.5338097 M19.2969966,21.2340082 C18.7137362,21.2683564 18.1460152,21.3351891 17.5667736,21.4084121 C16.0881268,21.5961293 14.6445775,21.7891718 13.1565536,21.9225708 C13.4271521,23.635723 17.2961751,22.897635 18.1752184,22.5861044 C19.0440808,22.2780352 19.863646,21.8317742 20.6031033,21.2814034 C20.1797908,21.2071154 19.7253996,21.2113756 19.2969966,21.2340082 M23.6675646,9.23288944 C22.8474635,8.89712864 21.8548224,6.65890082 21.421061,5.87315133 L20.550859,4.41934168 C22.5045268,4.83338454 23.75571,7.19675714 23.6675646,9.23288944 M22.8774705,14.8779844 C22.1792727,14.3837956 22.3352018,11.3100266 22.2834933,10.4145757 C22.2537543,9.90840502 22.2106193,9.41634637 22.1508733,8.91337084 C22.6542937,9.25658707 23.03849,9.84876155 23.2439841,10.4145757 C23.7672306,11.9032662 23.6485423,13.501658 22.8774705,14.8779844 M20.6767811,18.3948191 C20.2298917,18.9268176 19.817028,19.2868086 19.2217113,19.6470658 C18.933698,19.0327913 19.4920419,18.0806258 19.7663913,17.538243 C20.4107372,16.2633638 20.9221952,15.3340972 21.4374041,13.9798708 C21.6378078,14.2932653 21.7481905,14.6553864 21.7867709,15.0225665 C21.8939386,16.3323265 21.4668752,17.3691644 20.6767811,18.3948191 M17.9927653,19.1731132 C17.7730715,19.6771538 17.5110464,20.0206363 17.1129183,20.3989996 C15.9461296,21.4201278 14.6911955,21.7649416 13.1565536,21.6752101 C13.2942641,20.762452 15.7910043,19.6776863 16.6159279,19.1725807 C17.1563212,18.8381512 17.6792997,18.4792253 18.1811126,18.0894126 C18.2113875,18.4595216 18.1347626,18.830962 17.9927653,19.1731132" id="Fill-8"></path>
                    </g>
                    <path d="M15.0431343,1.66096421 L13.7335446,4.90727322 C13.4688403,4.8803804 13.200921,4.8657358 12.9295187,4.8657358 C8.6395945,4.8657358 5.14967736,8.35328135 5.14967736,12.6393571 C5.14967736,16.9270305 8.6395945,20.4143098 12.9295187,20.4143098 C13.4988473,20.4143098 14.0668363,20.35227 14.615803,20.2303204 C17.4335105,19.6099217 19.6625993,17.5000339 20.434207,14.7239498 C20.6217505,14.0489667 20.7168619,13.3462921 20.7168619,12.6393571 C20.7168619,8.87462921 18.0207897,5.72577337 14.4545155,5.0169746 L15.8873481,2.02974193 C15.9524525,1.88223084 15.8857406,1.70995706 15.7367774,1.64552081 L15.4310815,1.50999167 C15.3925011,1.49374947 15.3523132,1.48522897 15.3134649,1.48522897 C15.1998671,1.48522897 15.0913598,1.55073029 15.0431343,1.66096421 M7.58613571,12.6393571 C7.58613571,9.75117524 9.89506446,7.39259542 12.76582,7.30499407 L11.7852353,9.73573184 C11.7153084,9.89469235 11.4932032,10.3236461 11.1001656,10.5041741 C11.0915922,10.5079018 10.9654022,10.5531669 10.9541496,10.5568947 C10.3529386,10.6809744 9.72198857,11.2529127 9.35815413,12.0796671 C8.85821667,13.2144906 9.05085066,14.3980408 9.78762881,14.7226184 C10.5257465,15.0469298 11.5291044,14.3903191 12.0290419,13.2557618 C12.3261644,12.581045 12.3789445,11.8898198 12.2176571,11.3716671 C12.1806842,11.2547765 12.1332625,11.1464065 12.0748561,11.047622 C12.0700335,11.0388352 12.038687,10.9690737 12.0293098,10.944311 C11.8728449,10.5233452 12.0486,10.0469962 12.1212061,9.88324293 L13.3506879,7.31910614 C16.1046307,7.53424867 18.2804035,9.83797779 18.2804035,12.6393571 C18.2804035,13.1271555 18.2150312,13.6093624 18.086162,14.0729306 C17.5562176,15.9785928 16.0261303,17.4262784 14.0901453,17.8533682 C13.7126469,17.9361768 13.3222885,17.9795781 12.9295187,17.9795781 C9.98320992,17.9795781 7.58613571,15.5839873 7.58613571,12.6393571" id="Fill-11"></path>
                </g>
            </g>
        </g>
    </g>
</svg>