<?xml version="1.0" encoding="UTF-8"?>
<svg width="33px" height="25px" viewBox="0 0 33 25" version="1.1" xmlns="http://www.w3.org/2000/svg" xmlns:xlink="http://www.w3.org/1999/xlink">
    <!-- Generator: Sketch 48.2 (47327) - http://www.bohemiancoding.com/sketch -->
    <title>Report-Icon-Products</title>
    <desc>Created with Sketch.</desc>
    <defs></defs>
    <g id="Symbols" stroke="none" stroke-width="1" fill="none" fill-rule="evenodd">
        <g id="Report-Icon-Products">
            <g id="Icon" transform="translate(6.000000, 1.000000)">
                <path d="M9.04333333,22.7141667 L2.54916667,22.7141667 L2.54916667,6.89333333 L0.300833333,8.07416667 L0.300833333,2.1975 L8.565,0.963333333 L9.04333333,0.891666667 L9.04333333,22.7141667 M3.3825,5.51333333 L3.3825,21.8808333 L8.21,21.8808333 L8.21,1.85833333 L1.135,2.915 L1.135,6.695 L3.3825,5.51333333" id="Fill-62" fill="#E58E53"></path>
                <path d="M18.8491667,8.68333333 C18.3241667,8.43916667 17.3366667,8.3975 16.8383333,8.42916667 C15.815,8.49666667 15.2408333,8.69166667 14.735,8.86333333 C14.6083333,8.90583333 14.4858333,8.9475 14.3625,8.98416667 C14.635,8.12416667 15.0891667,7.16 15.4616667,6.8775 L15.6316667,6.74333333 C16.1175,6.3575 16.3183333,6.1975 16.9841667,6.19583333 C17.3558333,6.19583333 17.6983333,6.22583333 18.0625,6.29166667 L18.2483333,6.325 L18.3,6.14333333 L18.4933333,5.46666667 L18.2675,5.425 C17.81,5.34166667 17.4108333,5.30083333 17.0466667,5.30083333 C16.1466667,5.3 15.4266667,5.55166667 14.7125,6.11583333 C14.1091667,6.60416667 13.2916667,8.015 12.9008333,9.045 L12.7975,9.02333333 C12.4825,8.9575 12.0908333,8.875 11.5933333,8.84 C11.3008333,8.81916667 11.0941667,8.77916667 10.8991667,8.74166667 C10.54,8.6725 10.2,8.60666667 9.48416667,8.6775 C7.27583333,8.89916667 5.98083333,10.4791667 5.83833333,13.125 C5.66833333,16.31 7.1,21.3633333 10.7141667,22.0916667 C12.4225,22.4366667 14.2033333,22.6958333 15.6508333,22.2541667 C17.37,21.7283333 18.7208333,20.9075 19.6658333,19.815 C21.2275,18.0066667 22.375,14.2566667 21.5933333,11.555 C21.17,10.0925 20.2241667,9.1 18.8591667,8.68583333 L18.8541667,8.68416667 L18.8491667,8.68333333" id="Fill-63" fill="#DE6E2B"></path>
            </g>
        </g>
    </g>
</svg>