<?xml version="1.0" standalone="no"?><!DOCTYPE svg PUBLIC "-//W3C//DTD SVG 1.1//EN" "http://www.w3.org/Graphics/SVG/1.1/DTD/svg11.dtd"><svg width="100%" height="100%" viewBox="0 0 813 938" version="1.1" xmlns="http://www.w3.org/2000/svg" xmlns:xlink="http://www.w3.org/1999/xlink" xml:space="preserve" style="fill-rule:evenodd;clip-rule:evenodd;stroke-linejoin:round;stroke-miterlimit:1.41421;"><g><g><g><path d="M712.508,644.671c0,-13.486 -10.948,-24.435 -24.434,-24.435l-559.818,0c-13.486,0 -24.434,10.949 -24.434,24.435l0,194.135c0,13.486 10.948,24.435 24.434,24.435l559.818,0c13.486,0 24.434,-10.949 24.434,-24.435l0,-194.135Z" style="fill:#fff;"/><circle cx="410.453" cy="365.665" r="294.87" style="fill:#fff;"/></g><g><path d="M712.508,644.671c0,-13.486 -10.948,-24.435 -24.434,-24.435l-559.818,0c-13.486,0 -24.434,10.949 -24.434,24.435l0,194.135c0,13.486 10.948,24.435 24.434,24.435l559.818,0c13.486,0 24.434,-10.949 24.434,-24.435l0,-194.135Z" style="fill:#fff;"/><circle cx="410.453" cy="365.665" r="294.87" style="fill:#fff;"/></g><path d="M287.948,175.427c-20.729,20.302 -38.969,41.302 -59.021,61.865c-4.312,4.218 -8.5,8.083 -13.302,11.76c0.281,-6.448 1.427,-11.698 3.406,-17.833c11.74,-30.99 32.209,-51.167 60.917,-67.032c10.344,-5.343 21.427,-9.343 32.865,-11.593c-8.48,7.396 -16.782,14.989 -24.865,22.833ZM187.917,333.115c-23.5,-16.313 -8.469,-69.896 -0.573,-90.511c5.114,-12.573 13.427,-26.312 21.687,-37.271c0.25,33.448 -14.114,98.011 -21.114,127.782ZM204.698,447.479c-1.635,0.219 -2.917,0.125 -4.521,-0.26c-28.614,-7.844 -40.854,-64.042 -41.906,-90.125c-0.49,-13.677 0.187,-25.334 2.281,-38.865c15.719,25.667 37.261,104.083 44.146,129.25ZM250.615,517.479c9.489,8.75 19.01,17.469 28.531,26.188c-12.333,10.895 -35.459,-2.261 -46.5,-9.261c-15.646,-10.708 -26.292,-21.864 -37.583,-37.062c-9.657,-13.334 -17.938,-29.167 -23.709,-44.688c22.24,10.292 61.552,48.531 79.261,64.823ZM280.781,570.812c11.5,0.678 22.719,2 34.136,3.448c29.198,3.709 57.531,7.521 86.916,10.157c-5.343,33.843 -81.562,19.26 -98.916,13.104c-17.157,-6.084 -33.334,-14.896 -47.927,-25.771c8.364,-1.469 17.333,-1.385 25.791,-0.938ZM194.51,333.75c16.188,-6.635 35.782,-50.844 44.334,-66.365l17.177,-28.718c-38.542,8.177 -63.25,54.864 -61.511,95.083ZM210.094,445.26c13.791,-9.76 10.718,-70.479 11.739,-88.166c0.584,-10 1.438,-19.719 2.615,-29.657c-9.938,6.782 -17.521,18.48 -21.573,29.657c-10.344,29.406 -7.99,60.979 7.219,88.166ZM253.542,514.729c8.812,10.511 16.968,17.625 28.718,24.74c5.688,-12.136 -5.343,-30.948 -10.75,-41.657c-12.718,-25.187 -22.812,-43.541 -32.968,-70.291c-3.969,6.187 -6.157,13.344 -6.907,20.594c-2.114,25.875 6.313,46.354 21.907,66.614ZM306.521,530.104c4.344,9.958 9.51,16.74 17.364,24.219c23.021,20.167 47.667,26.979 77.948,25.208c-2.718,-18.031 -51.885,-39.458 -68.146,-49.437c-10.666,-6.604 -20.979,-13.698 -30.874,-21.396c-0.594,7.312 0.906,14.646 3.708,21.406Z" style="fill:#7fcb28;fill-rule:nonzero;"/><path d="M531.573,175.427c20.729,20.302 38.969,41.302 59.021,61.865c4.323,4.218 8.5,8.083 13.302,11.76c-0.281,-6.448 -1.427,-11.698 -3.396,-17.833c-11.75,-30.99 -32.219,-51.167 -60.917,-67.032c-10.354,-5.343 -21.448,-9.343 -32.875,-11.593c8.48,7.396 16.782,14.989 24.865,22.833ZM631.604,333.115c23.49,-16.313 8.469,-69.896 0.573,-90.511c-5.114,-12.573 -13.427,-26.312 -21.687,-37.271c-0.261,33.448 14.114,98.011 21.114,127.782ZM614.823,447.479c1.635,0.219 2.906,0.125 4.521,-0.26c28.604,-7.844 40.844,-64.042 41.906,-90.125c0.49,-13.677 -0.198,-25.334 -2.281,-38.865c-15.719,25.667 -37.271,104.083 -44.146,129.25ZM568.906,517.479c-9.489,8.75 -19.021,17.469 -28.531,26.188c12.323,10.895 35.458,-2.261 46.49,-9.261c15.656,-10.708 26.302,-21.864 37.593,-37.062c9.657,-13.334 17.938,-29.167 23.709,-44.688c-22.24,10.292 -61.563,48.531 -79.261,64.823ZM538.74,570.812c-11.511,0.678 -22.719,2 -34.146,3.448c-29.188,3.709 -57.677,7.521 -87.052,10.157c5.343,33.843 81.708,19.26 99.062,13.104c17.146,-6.084 33.323,-14.896 47.917,-25.771c-8.354,-1.469 -17.323,-1.385 -25.781,-0.938ZM625.01,333.75c-16.187,-6.635 -35.781,-50.844 -44.343,-66.365l-17.177,-28.718c38.562,8.177 63.26,54.864 61.52,95.083ZM609.417,445.26c-13.782,-9.76 -10.709,-70.479 -11.729,-88.166c-0.584,-10 -1.438,-19.719 -2.615,-29.657c9.937,6.782 17.521,18.48 21.573,29.657c10.333,29.406 7.989,60.979 -7.229,88.166ZM565.979,514.729c-8.823,10.511 -16.969,17.625 -28.719,24.74c-5.687,-12.136 5.334,-30.948 10.75,-41.657c12.719,-25.187 22.813,-43.541 32.98,-70.291c3.958,6.187 6.135,13.344 6.895,20.594c2.115,25.875 -6.312,46.354 -21.906,66.614ZM513,530.104c-4.333,9.958 -9.51,16.74 -17.365,24.219c-23.031,20.167 -47.802,26.979 -78.093,25.208c2.718,-18.031 52,-39.458 68.281,-49.437c10.667,-6.604 20.99,-13.698 30.896,-21.396c0.594,7.312 -0.917,14.646 -3.719,21.406Z" style="fill:#7fcb28;fill-rule:nonzero;"/><path d="M510.615,385.958c-10.459,37.646 -40.667,66.261 -78.875,74.677c-7.448,1.657 -15.157,2.49 -22.907,2.49c-58.156,0 -105.468,-47.313 -105.468,-105.469c0,-57.062 45.573,-103.656 102.239,-105.385l-19.364,48.01c-1.375,3.146 -5.761,11.625 -13.521,15.188c-0.156,0.073 -2.657,0.958 -2.875,1.031c-11.865,2.469 -24.323,13.781 -31.5,30.104c-9.875,22.406 -6.073,45.781 8.479,52.188c14.562,6.406 34.365,-6.563 44.229,-28.969c5.875,-13.323 6.906,-26.99 3.729,-37.219c-0.729,-2.312 -1.666,-4.458 -2.812,-6.385c-0.094,-0.188 -0.719,-1.563 -0.907,-2.052c-3.083,-8.323 0.386,-17.74 1.813,-20.969l24.271,-50.646c54.354,4.25 97.302,49.75 97.302,105.104c0,9.625 -1.292,19.146 -3.833,28.302ZM438.927,207.073l28.281,-59.011c1.292,-2.916 -0.031,-6.322 -2.968,-7.593l-6.032,-2.646c-2.937,-1.281 -6.375,0.042 -7.656,2.958l-25.854,64.125c-5.219,-0.531 -10.51,-0.812 -15.865,-0.812c-84.677,0 -153.562,68.885 -153.562,153.562c0,84.677 68.885,153.563 153.562,153.563c11.24,0 22.448,-1.219 33.282,-3.625c55.614,-12.25 99.614,-53.938 114.843,-108.761c3.709,-13.343 5.584,-27.198 5.584,-41.177c0,-74.385 -53.219,-136.562 -123.615,-150.583Z" style="fill:url(#_Linear1);"/></g><g id="FR"><path d="M164.389,649.504l-31.409,0l0,54.702l14.214,0l0,-21.471l15.602,0l0,-12.047l-15.602,0l0,-9.137l17.195,0l0,-12.047Z" style="fill:#dd7028;fill-rule:nonzero;"/><path d="M205.382,704.206l15.166,0l-20.6,-54.702l-15.532,0l-21.035,54.702l15.085,0l3.772,-9.503l19.59,0l3.554,9.503ZM186.158,683.825l5.881,-17.413l0.137,0l5.812,17.413l-11.83,0Z" style="fill:#dd7028;fill-rule:nonzero;"/><path d="M211.262,649.504l23.007,54.702l11.028,0l23.362,-54.702l-15.453,0l-13.285,33.231l-13.206,-33.231l-15.453,0Z" style="fill:#dd7028;fill-rule:nonzero;"/><path d="M273.737,661.253c-2.831,4.356 -4.287,9.217 -4.287,14.582c0,8.861 2.831,16.117 8.563,21.7c5.663,5.662 12.919,8.494 21.7,8.494c8.781,0 16.037,-2.832 21.768,-8.494c5.652,-5.583 8.483,-12.839 8.483,-21.7c0,-5.365 -1.444,-10.226 -4.276,-14.582c-2.831,-4.356 -6.602,-7.691 -11.176,-10.087c-4.574,-2.316 -9.503,-3.474 -14.799,-3.474c-5.296,0 -10.237,1.158 -14.799,3.474c-4.574,2.396 -8.346,5.731 -11.177,10.087ZM315.165,675.915c0,4.642 -1.524,8.483 -4.493,11.612c-2.981,3.118 -6.684,4.712 -10.959,4.712c-4.288,0 -7.979,-1.594 -10.959,-4.712c-2.969,-3.129 -4.494,-6.97 -4.494,-11.612c0,-3.852 1.525,-7.188 4.563,-10.088c3.049,-2.9 6.683,-4.356 10.89,-4.356c4.207,0 7.829,1.456 10.878,4.356c3.05,2.9 4.574,6.236 4.574,10.088Z" style="fill:#dd7028;fill-rule:nonzero;"/><path d="M373.719,676.488c2.11,-2.82 3.118,-6.236 3.118,-10.156c0,-5.583 -1.742,-9.79 -5.227,-12.621c-3.473,-2.832 -8.047,-4.207 -13.779,-4.207l-21.264,0l0,54.702l14.226,0l0,-21.035l0.149,0l13.412,21.035l17.711,0l-17.195,-22.422c3.771,-0.642 6.74,-2.465 8.849,-5.296ZM352.168,660.382c6.603,0 9.87,2.247 9.87,6.821c0,4.574 -3.267,6.82 -9.87,6.82l-1.375,0l0,-13.641l1.375,0Z" style="fill:#dd7028;fill-rule:nonzero;"/><path d="M422.988,704.206l15.166,0l-20.611,-54.702l-15.532,0l-21.035,54.702l15.085,0l3.783,-9.503l19.591,0l3.553,9.503ZM403.753,683.825l5.881,-17.413l0.149,0l5.8,17.413l-11.83,0Z" style="fill:#dd7028;fill-rule:nonzero;"/><path d="M458.249,681.566l3.405,0c0.218,0 0.802,0 1.673,0.08c0.791,0.069 1.376,0.138 1.743,0.218c0.355,0.138 0.871,0.287 1.524,0.436c0.654,0.218 1.089,0.435 1.376,0.722c0.287,0.367 0.653,0.722 1.009,1.089c0.367,0.367 0.584,0.871 0.733,1.456c0.138,0.573 0.218,1.226 0.218,1.96c0,0.94 -0.149,1.811 -0.435,2.465c-0.367,0.722 -0.872,1.307 -1.594,1.662c-0.802,0.435 -1.456,0.802 -1.96,1.02c-0.585,0.218 -1.456,0.436 -2.614,0.505c-1.169,0.08 -1.96,0.149 -2.327,0.149c-0.435,0 -1.226,0 -2.395,0l-1.812,0l0,-11.762l1.456,0ZM471.89,703.415c2.247,-0.516 4.276,-1.387 6.236,-2.545c1.892,-1.089 3.405,-2.682 4.494,-4.711c1.089,-2.029 1.674,-4.425 1.674,-7.187c0,-8.346 -3.703,-12.988 -11.177,-13.928l0,-0.149c3.989,-2.029 6.03,-5.732 6.03,-11.177c0,-9.503 -5.445,-14.214 -16.255,-14.214l-20.313,0l0,54.702l21.906,0c2.683,0 5.147,-0.286 7.405,-0.791ZM457.814,660.382c1.226,0 2.178,0.08 2.969,0.149c0.802,0.069 1.593,0.287 2.544,0.585c0.94,0.355 1.594,0.871 2.098,1.593c0.436,0.791 0.654,1.743 0.654,2.969c0,2.109 -0.723,3.485 -2.098,4.207c-1.387,0.734 -3.267,1.089 -5.594,1.089l-1.594,0l0,-10.592l1.021,0Z" style="fill:#dd7028;fill-rule:nonzero;"/><path d="M491.699,649.504l0,54.702l31.272,0l0,-12.036l-17.058,0l0,-42.666l-14.214,0Z" style="fill:#dd7028;fill-rule:nonzero;"/><path d="M558.736,649.504l-31.123,0l0,54.702l31.123,0l0,-12.036l-16.908,0l0,-9.435l16.037,0l0,-12.047l-16.037,0l0,-9.137l16.908,0l0,-12.047Z" style="fill:#dd7028;fill-rule:nonzero;"/><path d="M620.74,703.931l15.134,0l-20.568,-54.587l-15.488,0l-21.002,54.587l15.065,0l3.764,-9.483l19.549,0l3.546,9.483ZM601.557,683.593l5.857,-17.376l0.148,0l5.8,17.376l-11.805,0Z" style="fill:#dd7028;fill-rule:nonzero;"/><path d="M673.451,678.09c0,1.739 0,3.18 -0.068,4.336c-0.081,1.167 -0.298,2.471 -0.652,3.912c-0.367,1.453 -0.87,2.608 -1.522,3.477c-0.652,0.87 -1.67,1.59 -2.894,2.174c-1.235,0.652 -2.757,0.938 -4.496,0.938c-1.738,0 -3.26,-0.286 -4.484,-0.938c-1.235,-0.584 -2.173,-1.304 -2.825,-2.174c-0.652,-0.869 -1.155,-2.024 -1.521,-3.477c-0.366,-1.441 -0.584,-2.745 -0.652,-3.912c-0.069,-1.156 -0.149,-2.597 -0.149,-4.336l0,-28.746l-14.185,0l0,30.702c0,4.416 0.355,8.179 1.087,11.142c0.652,3.043 2.242,5.72 4.633,8.11c4.118,4.061 10.135,6.086 18.096,6.086c7.962,0 13.979,-2.025 18.097,-6.086c2.391,-2.39 3.992,-5.067 4.713,-8.11c0.652,-2.963 1.007,-6.726 1.007,-11.142l0,-30.702l-14.185,0l0,28.746Z" style="fill:#dd7028;fill-rule:nonzero;"/><path d="M191.865,728.213c-7.892,0 -15.482,1.631 -23.081,4.756c-7.59,3.283 -14.134,7.747 -19.643,13.402c-11.018,11.321 -16.527,25.015 -16.527,41.093c0,17.416 5.948,31.559 18.012,42.431c12.063,11.008 26.196,16.517 42.128,16.517c5.812,0 14.446,-1.778 25.757,-5.206l0,-34.988c-3.126,3.721 -6.847,6.554 -11.311,8.634c-4.463,2.237 -9.084,3.283 -13.851,3.283c-9.073,0 -16.37,-2.833 -21.879,-8.635c-5.655,-5.666 -8.488,-12.952 -8.488,-21.89c0,-8.781 2.833,-16.224 8.342,-22.182c5.498,-5.959 12.795,-8.928 21.586,-8.928c5.06,0 9.827,1.035 14.437,3.126c4.463,2.227 8.185,5.206 11.164,9.231l0,-34.988c-9.084,-3.722 -18.011,-5.656 -26.646,-5.656Z" style="fill:#dd7028;fill-rule:nonzero;"/><path d="M236.523,731.192l0,112.251l64.164,0l0,-24.712l-34.978,0l0,-87.539l-29.186,0Z" style="fill:#dd7028;fill-rule:nonzero;"/><rect x="310.22" y="731.192" width="29.176" height="112.25" style="fill:#dd7028;fill-rule:nonzero;"/><path d="M380.782,843.443l9.387,-64.614l0.293,0l25.757,64.614l11.614,0l26.939,-64.614l0.303,0l8.185,64.614l29.176,0l-16.966,-112.251l-29.029,0l-24.117,59.993l-22.778,-59.993l-28.737,0l-19.057,112.251l29.03,0Z" style="fill:#dd7028;fill-rule:nonzero;"/><path d="M580.873,843.443l31.11,0l-42.284,-112.251l-31.852,0l-43.174,112.251l30.964,0l7.746,-19.507l40.194,0l7.296,19.507ZM541.422,801.608l12.053,-35.731l0.303,0l11.906,35.731l-24.262,0Z" style="fill:#dd7028;fill-rule:nonzero;"/><path d="M680.914,755.905l0,-24.713l-77.419,0l0,24.713l24.116,0l0,87.538l29.187,0l0,-87.538l24.116,0Z" style="fill:#dd7028;fill-rule:nonzero;"/></g></g><defs><linearGradient id="_Linear1" x1="0" y1="0" x2="1" y2="0" gradientUnits="userSpaceOnUse" gradientTransform="matrix(307.272,0,0,307.272,255.278,324.273)"><stop offset="0%" style="stop-color:#f1a04d;stop-opacity:1"/><stop offset="100%" style="stop-color:#c46322;stop-opacity:1"/></linearGradient></defs></svg>