<?xml version="1.0" encoding="UTF-8" standalone="no"?>
<!-- Created with Inkscape (http://www.inkscape.org/) by Marsupilami -->
<svg
   xmlns:svg="http://www.w3.org/2000/svg"
   xmlns="http://www.w3.org/2000/svg"
   version="1.0"
   width="1024"
   height="538"
   viewBox="0 0 113.715 59.69529"
   id="svg2930">
  <defs
     id="defs2932" />
  <g
     transform="translate(-318.1425,-502.51455)"
     id="layer1">
    <path
       d="M 431.46125,555.0858 C 430.6125,555.48205 429.7475,555.87705 428.8825,556.2583 C 426.42125,557.35705 423.945,558.39705 421.39625,559.24705 C 420.0775,559.68705 418.73,560.0533 417.38125,560.41955 C 416.23875,560.69705 415.095,560.9608 413.9375,561.1958 C 413.205,561.32705 412.4875,561.45955 411.755,561.56205 C 410.65625,561.7233 409.5575,561.8408 408.44375,561.9433 C 407.8725,561.98705 407.3,562.0158 406.73,562.05955 C 404.355,562.17705 401.9675,562.22205 399.59375,562.20705 C 398.33375,562.17705 397.08875,562.1183 395.8425,562.0308 C 394.685,561.9283 393.5425,561.8108 392.4,561.64955 C 391.6525,561.54705 390.92,561.42955 390.1725,561.3133 C 387.37375,560.82955 384.59,560.2433 381.80625,559.68705 C 381.3225,559.5833 380.83875,559.4808 380.35625,559.36455 C 377.90875,558.7933 375.50625,558.07455 373.07375,557.5033 C 372.575,557.3858 372.09125,557.2833 371.60875,557.1808 C 368.4875,556.5358 365.38125,555.87705 362.24625,555.3208 C 360.94125,555.1008 359.6525,554.92455 358.34875,554.7633 C 357.22,554.6308 356.10625,554.52955 354.97875,554.4558 C 354.01125,554.39705 353.04375,554.3533 352.0775,554.3233 C 348.8825,554.2658 345.67375,554.3383 342.48,554.5733 C 341.3525,554.6758 340.20875,554.79205 339.08125,554.93955 C 337.9525,555.0858 336.825,555.2758 335.71125,555.48205 L 334.53875,555.7158 C 332.18,556.21455 329.82125,556.79955 327.49125,557.45955 C 324.64875,558.27955 321.835,559.1883 319.06625,560.19955 C 318.75875,560.3158 318.45125,560.41955 318.1425,560.5358 L 318.1425,508.6833 C 321.51375,507.4958 324.8975,506.3383 328.34125,505.4158 C 330.715,504.7858 333.1025,504.2433 335.49125,503.77455 C 336.45875,503.5983 337.41,503.43705 338.3625,503.2908 C 339.71125,503.0858 341.04375,502.93955 342.3925,502.80705 L 343.59375,502.71955 C 345.90875,502.5733 348.22375,502.51455 350.53875,502.51455 C 351.565,502.51455 352.59,502.5433 353.61625,502.58705 C 354.55375,502.63205 355.50625,502.70455 356.44375,502.7783 C 357.57125,502.8808 358.685,503.01205 359.79875,503.15955 C 360.45875,503.26205 361.1175,503.34955 361.77625,503.46705 C 365.27875,504.05205 368.75125,504.79955 372.22375,505.5183 C 372.7075,505.63455 373.19125,505.7383 373.675,505.85455 C 376.00375,506.41205 378.29,507.1008 380.62,507.64205 C 381.22,507.77455 381.82125,507.9058 382.42125,508.0233 C 385.25,508.5658 388.0625,509.12205 390.905,509.54705 C 392.01875,509.7083 393.1175,509.8408 394.21625,509.9433 C 395.38875,510.0458 396.54625,510.1183 397.70375,510.16205 C 398.34875,510.19205 398.97875,510.19205 399.60875,510.20705 C 401.7625,510.20705 403.91625,510.16205 406.085,510.05955 C 407.38875,509.98705 408.6775,509.88455 409.9675,509.7383 C 410.86125,509.63455 411.755,509.5033 412.63375,509.35705 C 413.5575,509.1958 414.465,509.01955 415.37375,508.82955 C 417.57125,508.31705 419.77,507.74455 421.90875,507.01205 C 424.7225,506.0458 427.49125,504.8883 430.21625,503.6858 C 430.77375,503.43705 431.315,503.1733 431.8575,502.92455 L 431.8575,554.8958 L 431.46125,555.0858"
       id="path2680"
       style="fill:#ffffff;fill-opacity:1;fill-rule:nonzero;stroke:none" />
    <path
       d="M 431.30125,554.5433 C 431.30125,554.5433 424.78125,557.66455 420.37,558.9983 C 413.3075,561.12205 409.02875,561.5758 401.66,561.64955 C 394.055,561.73705 389.7775,560.71205 382.31875,559.21705 C 378.14375,558.38205 375.88625,557.5033 371.725,556.6383 C 362.935,554.83705 357.88,553.6058 348.8975,553.7383 C 341.19125,553.8408 336.76625,554.4558 329.3075,556.38955 C 324.0475,557.75205 318.72875,559.7308 318.72875,559.7308 L 318.72875,509.0933 C 318.72875,509.0933 325.1025,506.80705 329.3075,505.76705 C 336.78,503.9058 341.19125,503.21705 348.8975,503.1008 C 357.88,502.9833 362.935,504.19955 371.725,506.0158 C 375.88625,506.8658 378.14375,507.77455 382.31875,508.59455 C 389.7775,510.0458 394.07,510.90955 401.66,510.7783 C 409.02875,510.6608 413.2925,510.19205 420.37,508.1258 C 424.765,506.83705 431.30125,503.8333 431.30125,503.8333 L 431.30125,554.5433"
       id="path2682"
       style="fill:#1b62b7;fill-opacity:1;fill-rule:nonzero;stroke:none" />
    <path
       d="M 425.835,550.73455 C 419.81375,553.67955 410.1725,556.5508 399.91625,555.9358 C 386.8175,555.15955 380.3125,552.38955 371.6675,550.5733 C 365.1325,549.1958 356.2825,547.62705 345.5425,548.1408 C 333.235,548.72705 324.20875,551.8333 324.20875,551.8333 L 324.20875,513.7383 C 324.20875,513.7383 328.0775,512.4333 330.5975,511.77455 C 337.5425,509.97205 341.645,509.4008 348.81,509.2833 C 357.39625,509.15205 362.23125,510.36705 370.65625,512.09705 C 374.77375,512.9458 377,513.8408 381.1325,514.6608 C 389,516.2133 393.5425,517.0933 401.57125,516.9608 C 411.16875,516.82955 416.7225,515.87705 425.835,512.8583 L 425.835,550.73455"
       id="path2684"
       style="fill:#ed1c24;fill-opacity:1;fill-rule:nonzero;stroke:none" />
    <path
       d="M 11.1875,13.46875 L 11.1875,42.53125 L 15.71875,42.53125 L 15.71875,29.375 C 15.73375,28.05625 16.570001,26.297501 18.09375,26.3125 C 19.6325,26.3425 20.255,27.691251 20.3125,28.9375 L 20.3125,42.53125 L 24.875,42.53125 L 24.875,27.46875 C 24.89,23.22 22.153751,21.71875 20,21.71875 C 17.9775,21.71875 16.52875,22.71125 15.78125,25.1875 L 15.78125,13.46875 L 11.1875,13.46875 z M 36.875,13.46875 L 36.875,42.53125 L 41.6875,42.53125 L 41.6875,13.46875 L 36.875,13.46875 z M 51.65625,20.78125 C 45.26875,20.78125 44.312502,28.24875 44.3125,32 C 44.3125,35.51625 45.798748,42.945002 51.46875,43.0625 C 53.15375,43.0925 54.593748,42.803751 56,41.25 L 53.65625,37.40625 C 53.33375,37.72875 52.365001,38 51.75,38 C 49.25875,38 48.4375,34.13875 48.4375,32 C 48.4375,29.53875 49.16625,25.656249 51.90625,25.65625 C 52.79875,25.65625 53.158749,26.0125 53.65625,26.65625 L 56.03125,22.75 C 54.53625,21.1375 53.04875,20.781249 51.65625,20.78125 z M 63.5,20.8125 C 63.470001,20.8125 63.4825,20.84375 63.46875,20.84375 C 57.491248,20.872501 56.71875,28.41 56.71875,32 C 56.718751,35.61875 57.8275,43.2025 63.46875,43.1875 C 63.482498,43.187501 63.47,43.1875 63.5,43.1875 C 69.258751,43.115001 70.1875,36.2775 70.1875,32 C 70.187504,28.3375 69.25875,20.8125 63.5,20.8125 z M 81.5,21.53125 C 79.65375,21.53125 78.152498,22.63375 77.375,24.1875 C 77.375,23.425 77.374998,22.650001 77.375,21.84375 L 72.8125,21.84375 L 72.8125,42.53125 L 77.375,42.53125 L 77.375,29.03125 C 77.34625,28.3575 77.867498,26.078751 79.875,26.09375 C 81.4725,26.05 81.872503,28.1375 81.84375,29.03125 L 81.84375,42.53125 L 86.375,42.53125 L 86.375,27.375 C 86.405,25.11875 85.353748,21.53125 81.5,21.53125 z M 28.4375,21.71875 L 28.4375,42.53125 L 33.03125,42.53125 L 33.03125,21.71875 L 28.4375,21.71875 z M 94.9375,21.75 C 89.135,21.75 88.656246,30.4725 88.65625,32.40625 C 88.685,35.68875 89.084999,42.968749 94.125,42.96875 C 94.74125,42.96875 95.775002,42.945002 96.84375,42.125 L 96.84375,37.40625 C 93.885,39.82375 92.785,34.800001 92.84375,32.25 C 92.8875,30.0525 93.738751,26.0375 96.15625,26.125 C 98.13375,26.18375 98.576246,28.565 98.53125,30.25 L 98.53125,42.53125 L 103.125,42.53125 L 103.125,21.875 L 98.53125,21.84375 L 98.53125,23.84375 C 98.09125,22.6125 96.739998,21.75 94.9375,21.75 z M 63.46875,25.5 C 65.8425,25.499999 66.5,30.285 66.5,32 C 66.500001,34.0075 65.785,38.22375 63.46875,38.28125 C 61.094998,38.34 60.4375,33.7 60.4375,32 C 60.437501,30.33 61.095,25.54625 63.46875,25.53125 L 63.46875,25.5 z"
       transform="translate(318.1425,502.51455)"
       id="path2686"
       style="fill:#ffffff;fill-opacity:1;fill-rule:nonzero;stroke:none" />
    <path
       d="M 351.1975,521.2833 L 346.5825,521.2833 L 345.39625,515.7158 L 345.36625,515.5833 L 347.6675,517.4158 L 348.9125,514.68955 L 350.11375,517.4158 L 352.4,515.5833 L 352.37,515.7158 L 351.1975,521.2833"
       id="path2700"
       style="fill:#fff200;fill-opacity:1;fill-rule:nonzero;stroke:none" />
  </g>
</svg>
