<?xml version="1.0" encoding="utf-8"?>
<!-- Generator: Adobe Illustrator 19.0.0, SVG Export Plug-In . SVG Version: 6.00 Build 0)  -->
<!DOCTYPE svg PUBLIC "-//W3C//DTD SVG 1.1//EN" "http://www.w3.org/Graphics/SVG/1.1/DTD/svg11.dtd">
<svg version="1.1" id="Ebene_1" xmlns="http://www.w3.org/2000/svg" xmlns:xlink="http://www.w3.org/1999/xlink" x="0px" y="0px"
	 width="188.2px" height="171.7px" viewBox="-326 212.6 188.2 171.7" style="enable-background:new -326 212.6 188.2 171.7;"
	 xml:space="preserve">
<style type="text/css">
	.st0{enable-background:new    ;}
	.st1{fill:#FA701B;}
	.st2{fill:#105D73;}
	.st3{opacity:0.3;fill:#105D73;}
	.st4{opacity:0.2;fill:#105D73;}
	.st5{opacity:0.1;fill:#105D73;}
	.st6{font-family:'MyriadPro-Semibold';}
	.st7{font-size:14.4857px;}
	.st8{letter-spacing:-1;}
</style>
<g>
	<g class="st0">
		<path class="st1" d="M-160.2,239.1c-0.2-0.1-0.4-0.1-0.5-0.1c-0.5,0-0.7,0.3-0.7,0.9v0.8h1v0.7h-1v4.2h-0.8v-4.2h-0.7v-0.6
			l0.7-0.1v-0.8c0-0.5,0.1-0.9,0.3-1.2c0.2-0.3,0.6-0.4,1.1-0.4c0.2,0,0.3,0,0.4,0s0.3,0.1,0.4,0.1L-160.2,239.1z"/>
		<path class="st1" d="M-159.9,243.2c0-0.4,0.1-0.8,0.2-1.1s0.3-0.6,0.5-0.8c0.2-0.2,0.4-0.4,0.7-0.5c0.3-0.1,0.6-0.2,0.9-0.2
			c0.3,0,0.6,0.1,0.9,0.2s0.5,0.3,0.7,0.5s0.4,0.5,0.5,0.8s0.2,0.7,0.2,1.1s-0.1,0.8-0.2,1.1c-0.1,0.3-0.3,0.6-0.5,0.8
			c-0.2,0.2-0.4,0.4-0.7,0.5s-0.6,0.2-0.9,0.2c-0.3,0-0.6-0.1-0.9-0.2s-0.5-0.3-0.7-0.5s-0.4-0.5-0.5-0.8S-159.9,243.6-159.9,243.2z
			 M-159.1,243.2c0,0.3,0,0.5,0.1,0.8c0.1,0.2,0.2,0.4,0.3,0.6c0.1,0.2,0.3,0.3,0.4,0.4c0.2,0.1,0.4,0.1,0.6,0.1s0.4,0,0.6-0.1
			c0.2-0.1,0.3-0.2,0.4-0.4c0.1-0.2,0.2-0.4,0.3-0.6s0.1-0.5,0.1-0.8s0-0.5-0.1-0.8c-0.1-0.2-0.2-0.4-0.3-0.6
			c-0.1-0.2-0.3-0.3-0.4-0.4c-0.2-0.1-0.4-0.1-0.6-0.1s-0.4,0-0.6,0.1c-0.2,0.1-0.3,0.2-0.4,0.4c-0.1,0.2-0.2,0.4-0.3,0.6
			C-159,242.6-159.1,242.9-159.1,243.2z"/>
		<path class="st1" d="M-154.5,243.2c0-0.4,0.1-0.8,0.2-1.1s0.3-0.6,0.5-0.8c0.2-0.2,0.4-0.4,0.7-0.5c0.3-0.1,0.6-0.2,0.9-0.2
			c0.3,0,0.6,0.1,0.9,0.2s0.5,0.3,0.7,0.5s0.4,0.5,0.5,0.8s0.2,0.7,0.2,1.1s-0.1,0.8-0.2,1.1c-0.1,0.3-0.3,0.6-0.5,0.8
			c-0.2,0.2-0.4,0.4-0.7,0.5s-0.6,0.2-0.9,0.2c-0.3,0-0.6-0.1-0.9-0.2s-0.5-0.3-0.7-0.5s-0.4-0.5-0.5-0.8S-154.5,243.6-154.5,243.2z
			 M-153.7,243.2c0,0.3,0,0.5,0.1,0.8c0.1,0.2,0.2,0.4,0.3,0.6c0.1,0.2,0.3,0.3,0.4,0.4c0.2,0.1,0.4,0.1,0.6,0.1
			c0.2,0,0.4,0,0.6-0.1s0.3-0.2,0.4-0.4c0.1-0.2,0.2-0.4,0.3-0.6s0.1-0.5,0.1-0.8s0-0.5-0.1-0.8c-0.1-0.2-0.2-0.4-0.3-0.6
			s-0.3-0.3-0.4-0.4c-0.2-0.1-0.4-0.1-0.6-0.1c-0.2,0-0.4,0-0.6,0.1s-0.3,0.2-0.4,0.4c-0.1,0.2-0.2,0.4-0.3,0.6
			C-153.6,242.6-153.7,242.9-153.7,243.2z"/>
		<path class="st1" d="M-149.1,243.2c0-0.4,0.1-0.7,0.2-1.1c0.1-0.3,0.3-0.6,0.5-0.8c0.2-0.2,0.4-0.4,0.7-0.5
			c0.3-0.1,0.5-0.2,0.8-0.2c0.3,0,0.5,0.1,0.7,0.2c0.2,0.1,0.4,0.2,0.6,0.4v-0.8v-1.9h0.8v7.1h-0.7l-0.1-0.6l0,0
			c-0.2,0.2-0.4,0.3-0.7,0.5c-0.3,0.2-0.5,0.2-0.8,0.2c-0.6,0-1.1-0.2-1.5-0.7C-149,244.5-149.1,244-149.1,243.2z M-148.2,243.2
			c0,0.6,0.1,1,0.4,1.4c0.2,0.3,0.6,0.5,1,0.5c0.2,0,0.4-0.1,0.6-0.2s0.4-0.3,0.6-0.5v-2.5c-0.2-0.2-0.4-0.3-0.6-0.4
			s-0.4-0.1-0.6-0.1c-0.2,0-0.4,0-0.5,0.1c-0.1,0.1-0.3,0.2-0.4,0.4c-0.1,0.2-0.2,0.4-0.3,0.6C-148.2,242.6-148.2,242.9-148.2,243.2
			z"/>
	</g>
</g>
<g class="st0">
	<path class="st1" d="M-171.3,369.8h0.8v6.2c0,0.1,0,0.2,0.1,0.3c0,0.1,0.1,0.1,0.2,0.1h0.1h0.1l0.1,0.6c-0.1,0-0.1,0-0.2,0.1
		c-0.1,0-0.2,0-0.3,0c-0.3,0-0.5-0.1-0.7-0.3c-0.1-0.2-0.2-0.5-0.2-0.8V369.8z"/>
	<path class="st1" d="M-168.3,371.1c-0.2,0-0.3,0-0.4-0.1s-0.2-0.2-0.2-0.4c0-0.2,0.1-0.3,0.2-0.4s0.2-0.1,0.4-0.1
		c0.2,0,0.3,0,0.4,0.1s0.2,0.2,0.2,0.4c0,0.2-0.1,0.3-0.2,0.4S-168.2,371.1-168.3,371.1z M-168.8,372.1h0.8v4.9h-0.8V372.1z"/>
	<path class="st1" d="M-167,372.1h0.9l0.9,2.8c0.1,0.2,0.1,0.5,0.2,0.7s0.2,0.5,0.2,0.7l0,0c0.1-0.2,0.1-0.5,0.2-0.7
		s0.1-0.5,0.2-0.7l0.9-2.8h0.8l-1.7,4.9h-1L-167,372.1z"/>
	<path class="st1" d="M-161.2,371.1c-0.2,0-0.3,0-0.4-0.1c-0.1-0.1-0.2-0.2-0.2-0.4c0-0.2,0.1-0.3,0.2-0.4c0.1-0.1,0.2-0.1,0.4-0.1
		s0.3,0,0.4,0.1c0.1,0.1,0.2,0.2,0.2,0.4c0,0.2-0.1,0.3-0.2,0.4C-160.9,371.1-161,371.1-161.2,371.1z M-161.6,372.1h0.8v4.9h-0.8
		V372.1z"/>
	<path class="st1" d="M-159.2,372.1h0.7l0.1,0.7l0,0c0.2-0.2,0.5-0.4,0.7-0.6c0.3-0.2,0.6-0.2,0.9-0.2c0.5,0,0.9,0.2,1.1,0.5
		c0.2,0.3,0.4,0.8,0.4,1.4v3.1h-0.8v-3c0-0.5-0.1-0.8-0.2-1s-0.4-0.3-0.7-0.3c-0.3,0-0.5,0.1-0.7,0.2s-0.4,0.3-0.7,0.6v3.5h-0.8
		V372.1z"/>
	<path class="st1" d="M-154.1,377.9c0-0.2,0.1-0.4,0.2-0.6c0.1-0.2,0.3-0.4,0.5-0.5l0,0c-0.1-0.1-0.2-0.2-0.3-0.3
		c-0.1-0.1-0.1-0.3-0.1-0.5s0.1-0.4,0.2-0.5s0.2-0.3,0.4-0.4l0,0c-0.2-0.1-0.3-0.3-0.4-0.5s-0.2-0.5-0.2-0.8s0-0.5,0.1-0.7
		c0.1-0.2,0.2-0.4,0.4-0.5c0.2-0.2,0.4-0.3,0.6-0.3c0.2-0.1,0.5-0.1,0.7-0.1c0.1,0,0.3,0,0.4,0s0.2,0.1,0.3,0.1h1.7v0.6h-1
		c0.1,0.1,0.2,0.3,0.3,0.4c0.1,0.2,0.1,0.4,0.1,0.6c0,0.3,0,0.5-0.1,0.7s-0.2,0.4-0.4,0.5c-0.2,0.1-0.3,0.3-0.6,0.3
		s-0.4,0.1-0.7,0.1c-0.1,0-0.2,0-0.4,0c-0.1,0-0.2-0.1-0.4-0.1c-0.1,0.1-0.2,0.2-0.2,0.2c-0.1,0.1-0.1,0.2-0.1,0.3
		c0,0.2,0.1,0.3,0.2,0.4c0.1,0.1,0.3,0.2,0.7,0.2h0.9c0.6,0,1,0.1,1.3,0.3c0.3,0.2,0.4,0.5,0.4,0.9c0,0.2-0.1,0.4-0.2,0.6
		c-0.1,0.2-0.3,0.4-0.5,0.5c-0.2,0.2-0.5,0.3-0.8,0.4c-0.3,0.1-0.6,0.1-1,0.1c-0.3,0-0.6,0-0.8-0.1c-0.2-0.1-0.5-0.1-0.6-0.3
		c-0.2-0.1-0.3-0.2-0.4-0.4C-154,378.3-154.1,378.1-154.1,377.9z M-153.3,377.8c0,0.3,0.1,0.5,0.4,0.6c0.2,0.2,0.6,0.2,1,0.2
		c0.2,0,0.4,0,0.6-0.1c0.2-0.1,0.4-0.1,0.5-0.2c0.1-0.1,0.2-0.2,0.3-0.3c0.1-0.1,0.1-0.2,0.1-0.4c0-0.2-0.1-0.4-0.2-0.5
		s-0.4-0.1-0.7-0.1h-0.9c-0.1,0-0.2,0-0.3,0s-0.2,0-0.3-0.1c-0.2,0.1-0.3,0.3-0.4,0.4C-153.3,377.5-153.3,377.6-153.3,377.8z
		 M-152.1,374.9c0.1,0,0.3,0,0.4-0.1s0.2-0.1,0.3-0.2s0.2-0.2,0.2-0.4s0.1-0.3,0.1-0.5c0-0.4-0.1-0.6-0.3-0.8
		c-0.2-0.2-0.4-0.3-0.7-0.3c-0.3,0-0.5,0.1-0.7,0.3c-0.2,0.2-0.3,0.5-0.3,0.8c0,0.2,0,0.3,0.1,0.5c0.1,0.1,0.1,0.3,0.2,0.4
		s0.2,0.2,0.3,0.2C-152.3,374.9-152.2,374.9-152.1,374.9z"/>
</g>
<g class="st0">
	<path class="st1" d="M-317.3,372.8h-0.7v-0.6l0.8-0.1l0.1-1.4h0.7v1.4h1.3v0.7h-1.3v2.7c0,0.3,0.1,0.5,0.2,0.7
		c0.1,0.2,0.3,0.2,0.6,0.2c0.1,0,0.2,0,0.3,0c0.1,0,0.2-0.1,0.3-0.1l0.2,0.6c-0.1,0-0.3,0.1-0.4,0.1c-0.2,0-0.3,0.1-0.5,0.1
		c-0.3,0-0.5,0-0.7-0.1c-0.2-0.1-0.3-0.2-0.4-0.3c-0.1-0.1-0.2-0.3-0.2-0.5s-0.1-0.4-0.1-0.7v-2.7H-317.3z"/>
	<path class="st1" d="M-314,372.1h0.7l0.1,0.9l0,0c0.2-0.3,0.4-0.5,0.6-0.7c0.2-0.2,0.5-0.3,0.8-0.3c0.2,0,0.4,0,0.5,0.1l-0.2,0.7
		c-0.1,0-0.2,0-0.2-0.1c-0.1,0-0.1,0-0.2,0c-0.2,0-0.4,0.1-0.6,0.2c-0.2,0.2-0.4,0.5-0.6,0.9v3.1h-0.8v-4.8H-314z"/>
	<path class="st1" d="M-311,375.7c0-0.5,0.2-0.9,0.7-1.2c0.5-0.3,1.2-0.5,2.3-0.6c0-0.2,0-0.3,0-0.5c0-0.1-0.1-0.3-0.2-0.4
		c-0.1-0.1-0.2-0.2-0.3-0.3c-0.1-0.1-0.3-0.1-0.5-0.1c-0.3,0-0.6,0.1-0.8,0.2c-0.2,0.1-0.5,0.2-0.7,0.4l-0.3-0.6
		c0.2-0.1,0.5-0.3,0.8-0.4s0.7-0.2,1.1-0.2c0.6,0,1,0.2,1.3,0.5c0.3,0.4,0.4,0.8,0.4,1.5v3h-0.7l-0.1-0.6l0,0
		c-0.2,0.2-0.5,0.4-0.8,0.5c-0.3,0.1-0.6,0.2-0.9,0.2c-0.4,0-0.8-0.1-1-0.4C-310.9,376.4-311,376.1-311,375.7z M-310.2,375.6
		c0,0.3,0.1,0.5,0.2,0.6c0.2,0.1,0.4,0.2,0.6,0.2c0.2,0,0.5-0.1,0.7-0.2c0.2-0.1,0.4-0.3,0.7-0.5v-1.3c-0.4,0.1-0.8,0.1-1,0.2
		c-0.3,0.1-0.5,0.2-0.7,0.3c-0.2,0.1-0.3,0.2-0.4,0.3S-310.2,375.5-310.2,375.6z"/>
	<path class="st1" d="M-300.6,370.5c-0.2-0.1-0.4-0.1-0.5-0.1c-0.5,0-0.7,0.3-0.7,0.9v0.8h1v0.7h-1v4.2h-0.8v-4.2h-2v4.2h-0.8v-4.2
		h-0.8v-0.6l0.7-0.1v-0.6c0-0.5,0.1-0.9,0.4-1.2c0.2-0.3,0.6-0.4,1.1-0.4c0.2,0,0.3,0,0.5,0s0.3,0.1,0.4,0.1l-0.2,0.6
		c-0.2-0.1-0.4-0.1-0.6-0.1c-0.2,0-0.4,0.1-0.6,0.3c-0.2,0.2-0.2,0.4-0.2,0.7v0.6h2v-0.8c0-0.5,0.1-0.9,0.3-1.2
		c0.2-0.3,0.6-0.4,1.1-0.4c0.2,0,0.3,0,0.4,0s0.3,0.1,0.4,0.1L-300.6,370.5z"/>
	<path class="st1" d="M-299.5,371.1c-0.2,0-0.3,0-0.4-0.1s-0.2-0.2-0.2-0.4c0-0.2,0.1-0.3,0.2-0.4s0.2-0.1,0.4-0.1s0.3,0,0.4,0.1
		s0.2,0.2,0.2,0.4c0,0.2-0.1,0.3-0.2,0.4S-299.4,371.1-299.5,371.1z M-299.9,372.1h0.8v4.9h-0.8V372.1z"/>
	<path class="st1" d="M-297.8,374.5c0-0.4,0.1-0.8,0.2-1.1s0.3-0.6,0.5-0.8c0.2-0.2,0.5-0.4,0.7-0.5c0.3-0.1,0.6-0.2,0.9-0.2
		c0.3,0,0.6,0.1,0.8,0.2c0.2,0.1,0.4,0.3,0.6,0.4l-0.4,0.5c-0.1-0.1-0.3-0.2-0.5-0.3s-0.3-0.1-0.5-0.1s-0.4,0-0.6,0.1
		c-0.2,0.1-0.3,0.2-0.5,0.4c-0.1,0.2-0.2,0.4-0.3,0.6s-0.1,0.5-0.1,0.8s0,0.5,0.1,0.8s0.2,0.4,0.3,0.6c0.1,0.2,0.3,0.3,0.5,0.4
		c0.2,0.1,0.4,0.1,0.6,0.1c0.2,0,0.4,0,0.6-0.1c0.2-0.1,0.4-0.2,0.5-0.3l0.4,0.5c-0.2,0.2-0.5,0.3-0.7,0.5c-0.2,0.2-0.6,0.2-0.8,0.2
		c-0.3,0-0.6-0.1-0.9-0.2c-0.3-0.1-0.5-0.3-0.7-0.5c-0.2-0.2-0.4-0.5-0.5-0.8S-297.8,374.9-297.8,374.5z"/>
</g>
<g>
	<path class="st2" d="M-235.1,365.5c-38.7,0-70.2-31.5-70.2-70.2s31.5-70.2,70.2-70.2s70.2,31.5,70.2,70.2S-196.4,365.5-235.1,365.5
		z M-235.1,226.1c-38.2,0-69.2,31-69.2,69.2s31,69.2,69.2,69.2s69.2-31,69.2-69.2C-165.9,257.1-196.9,226.1-235.1,226.1z"/>
</g>
<g>
	<g class="st0">
		<path class="st2" d="M-239.6,297.2c-0.2,2-1,3.6-2.2,4.7c-1.2,1.1-2.9,1.6-5,1.6c-1.4,0-2.7-0.4-3.8-1.1c-1.1-0.7-2-1.7-2.6-3.1
			c-0.6-1.3-0.9-2.8-0.9-4.5v-2.5c0-1.7,0.3-3.3,0.9-4.6c0.6-1.3,1.5-2.4,2.6-3.1c1.1-0.7,2.4-1.1,3.9-1.1c2.1,0,3.7,0.6,4.9,1.7
			c1.2,1.1,1.9,2.7,2.1,4.7h-1.5c-0.4-3.3-2.2-5-5.4-5c-1.8,0-3.2,0.7-4.2,2s-1.6,3.1-1.6,5.5v2.4c0,2.2,0.5,4,1.5,5.4
			c1,1.3,2.4,2,4.1,2c1.7,0,3-0.4,3.9-1.2c0.9-0.8,1.4-2.1,1.6-3.7L-239.6,297.2L-239.6,297.2z"/>
		<path class="st2" d="M-221.2,294.6c0,1.8-0.3,3.4-0.9,4.7c-0.6,1.4-1.5,2.4-2.6,3.1s-2.5,1.1-4,1.1c-2.3,0-4.1-0.8-5.5-2.4
			s-2.1-3.8-2.1-6.6v-2c0-1.8,0.3-3.3,0.9-4.7c0.6-1.4,1.5-2.4,2.7-3.2s2.5-1.1,4-1.1s2.8,0.4,4,1.1c1.1,0.7,2,1.7,2.6,3.1
			c0.6,1.4,0.9,2.8,1,4.6L-221.2,294.6L-221.2,294.6z M-222.8,292.5c0-2.3-0.5-4.2-1.6-5.5s-2.5-2-4.4-2c-1.8,0-3.2,0.7-4.3,2
			c-1.1,1.3-1.6,3.2-1.6,5.6v2c0,2.3,0.5,4.1,1.6,5.5c1.1,1.3,2.5,2,4.4,2c1.9,0,3.3-0.7,4.4-2c1-1.3,1.6-3.2,1.6-5.6L-222.8,292.5
			L-222.8,292.5z"/>
	</g>
	<g class="st0">
		<path class="st2" d="M-211.4,312.3h-7.1v-0.7l3.9-4.4c0.6-0.7,1.1-1.4,1.3-1.8c0.2-0.4,0.4-1,0.4-1.4c0-0.7-0.2-1.3-0.6-1.7
			c-0.4-0.4-1-0.6-1.7-0.6c-0.8,0-1.4,0.2-1.8,0.7c-0.5,0.5-0.7,1.1-0.7,1.9h-0.9c0-0.6,0.1-1.2,0.4-1.7s0.7-0.9,1.2-1.2
			c0.5-0.3,1.1-0.4,1.8-0.4c1,0,1.8,0.3,2.4,0.8c0.6,0.5,0.9,1.3,0.9,2.2c0,0.5-0.2,1.1-0.5,1.7c-0.3,0.6-0.9,1.4-1.7,2.4l-3.2,3.6
			h6v0.6H-211.4z"/>
	</g>
</g>
<g class="st0">
	<path class="st1" d="M-324.4,237.1c0-0.4,0.1-0.8,0.2-1.1c0.1-0.3,0.3-0.6,0.5-0.8c0.2-0.2,0.4-0.4,0.7-0.5s0.6-0.2,0.9-0.2
		c0.3,0,0.6,0.1,0.9,0.2c0.3,0.1,0.5,0.3,0.7,0.5c0.2,0.2,0.4,0.5,0.5,0.8c0.1,0.3,0.2,0.7,0.2,1.1s-0.1,0.8-0.2,1.1
		s-0.3,0.6-0.5,0.8c-0.2,0.2-0.4,0.4-0.7,0.5c-0.3,0.1-0.6,0.2-0.9,0.2c-0.3,0-0.6-0.1-0.9-0.2c-0.3-0.1-0.5-0.3-0.7-0.5
		c-0.2-0.2-0.4-0.5-0.5-0.8C-324.3,237.9-324.4,237.5-324.4,237.1z M-323.5,237.1c0,0.3,0,0.5,0.1,0.8c0.1,0.2,0.2,0.4,0.3,0.6
		s0.3,0.3,0.4,0.4c0.1,0.1,0.4,0.1,0.6,0.1c0.2,0,0.4,0,0.6-0.1s0.3-0.2,0.4-0.4c0.1-0.2,0.2-0.4,0.3-0.6c0.1-0.2,0.1-0.5,0.1-0.8
		s0-0.5-0.1-0.8c-0.1-0.2-0.2-0.4-0.3-0.6s-0.3-0.3-0.4-0.4s-0.4-0.1-0.6-0.1c-0.2,0-0.4,0-0.6,0.1c-0.2,0.1-0.3,0.2-0.4,0.4
		c-0.1,0.2-0.2,0.4-0.3,0.6C-323.5,236.6-323.5,236.8-323.5,237.1z"/>
	<path class="st1" d="M-318.5,235.3h-0.7v-0.6l0.8-0.1l0.1-1.4h0.7v1.4h1.3v0.7h-1.3v2.7c0,0.3,0.1,0.5,0.2,0.7s0.3,0.2,0.6,0.2
		c0.1,0,0.2,0,0.3,0s0.2-0.1,0.3-0.1l0.2,0.6c-0.1,0-0.3,0.1-0.4,0.1c-0.2,0-0.3,0.1-0.5,0.1c-0.3,0-0.5,0-0.7-0.1
		c-0.2-0.1-0.3-0.2-0.4-0.3c-0.1-0.1-0.2-0.3-0.2-0.5s-0.1-0.4-0.1-0.7v-2.7H-318.5z"/>
	<path class="st1" d="M-315.2,232.4h0.8v1.9v1c0.2-0.2,0.5-0.4,0.7-0.6c0.3-0.2,0.6-0.2,0.9-0.2c0.5,0,0.9,0.2,1.1,0.5
		c0.2,0.3,0.4,0.8,0.4,1.4v3.1h-0.8v-3c0-0.5-0.1-0.8-0.2-1s-0.4-0.3-0.7-0.3s-0.5,0.1-0.7,0.2c-0.2,0.1-0.4,0.3-0.7,0.6v3.5h-0.8
		V232.4z"/>
	<path class="st1" d="M-310.1,237.1c0-0.4,0.1-0.8,0.2-1.1c0.1-0.3,0.3-0.6,0.5-0.8c0.2-0.2,0.4-0.4,0.7-0.5
		c0.3-0.1,0.5-0.2,0.8-0.2c0.3,0,0.6,0.1,0.8,0.2c0.2,0.1,0.4,0.3,0.6,0.5s0.3,0.4,0.4,0.7c0.1,0.3,0.1,0.6,0.1,0.9
		c0,0.2,0,0.3,0,0.5h-3.3c0,0.5,0.2,0.9,0.5,1.2c0.3,0.3,0.7,0.5,1.1,0.5c0.2,0,0.4,0,0.6-0.1c0.2-0.1,0.4-0.2,0.6-0.3l0.3,0.5
		c-0.2,0.1-0.5,0.2-0.7,0.3c-0.3,0.1-0.6,0.2-0.9,0.2c-0.3,0-0.6-0.1-0.9-0.2c-0.3-0.1-0.5-0.3-0.7-0.5c-0.2-0.2-0.4-0.5-0.5-0.8
		C-310.1,237.9-310.1,237.5-310.1,237.1z M-306.7,236.7c0-0.5-0.1-0.9-0.3-1.1c-0.2-0.3-0.5-0.4-0.9-0.4c-0.2,0-0.3,0-0.5,0.1
		c-0.2,0.1-0.3,0.2-0.4,0.3c-0.1,0.1-0.2,0.3-0.3,0.5s-0.1,0.4-0.2,0.7h2.6V236.7z"/>
	<path class="st1" d="M-304.8,234.7h0.7l0.1,0.9l0,0c0.2-0.3,0.4-0.5,0.6-0.7c0.2-0.2,0.5-0.3,0.8-0.3c0.2,0,0.4,0,0.5,0.1l-0.2,0.7
		c-0.1,0-0.2,0-0.2-0.1c-0.1,0-0.1,0-0.2,0c-0.2,0-0.4,0.1-0.6,0.2c-0.2,0.2-0.4,0.5-0.6,0.9v3.1h-0.8L-304.8,234.7L-304.8,234.7z"
		/>
</g>
<path class="st3" d="M-235.1,212.6v82.7l0,0.1l77,30c0.4-0.9,0.8-2.3,1.2-3.2c2.9-8.4,4.5-17.4,4.5-26.8
	C-152.4,249.6-189.4,212.6-235.1,212.6z"/>
<path class="st4" d="M-170.4,320.5l-64.7-25.2v-0.1l-0.2,0.1l-21.7,66.1c6.6,2.2,13.8,3.5,21.7,3.5c0,0,0,0,0,0
	C-205.7,363.4-183.1,350.3-170.4,320.5z"/>
<path class="st5" d="M-235.9,295.5l0.1-0.2l-68.4,9.6l0.4,3.2l2.3,8.7c5.6,16.5,20.6,36.6,44.4,44.6l21.7-66.1L-235.9,295.5z"/>
<text transform="matrix(1 0 0 1 -166.4463 234.1577)"><tspan x="0" y="0" class="st1 st6 st7 st8">3</tspan><tspan x="6.6" y="0" class="st1 st6 st7">1%</tspan></text>
<text transform="matrix(1 0 0 1 -175.7796 366.0631)" class="st1 st6 st7">24%</text>
<text transform="matrix(1 0 0 1 -320.6129 365.4803)"><tspan x="0" y="0" class="st1 st6 st7 st8">1</tspan><tspan x="6.3" y="0" class="st1 st6 st7">8%</tspan></text>
</svg>
