<?xml version="1.0" encoding="utf-8"?>
<!-- Generator: Adobe Illustrator 19.0.0, SVG Export Plug-In . SVG Version: 6.00 Build 0)  -->
<!DOCTYPE svg PUBLIC "-//W3C//DTD SVG 1.1//EN" "http://www.w3.org/Graphics/SVG/1.1/DTD/svg11.dtd">
<svg version="1.1" id="Ebene_1" xmlns="http://www.w3.org/2000/svg" xmlns:xlink="http://www.w3.org/1999/xlink" x="0px" y="0px"
	 width="246.6px" height="93.4px" viewBox="0 0 246.6 93.4" style="enable-background:new 0 0 246.6 93.4;" xml:space="preserve">
<style type="text/css">
	.st0{opacity:0.2;fill:#105D73;}
	.st1{fill:none;stroke:#105D73;stroke-miterlimit:10;}
	.st2{opacity:0.2;}
	.st3{fill:#105D73;}
</style>
<path class="st0" d="M245.7,24.4v-1.5v-0.7V21v-0.8v-0.9v-0.8v-0.9V17v-4v-0.5V0.9c-25.3,0-45.8,20.5-45.8,45.8s20.5,45.8,45.8,45.8
	V24.7c0,0,0,0,0-0.1C245.8,24.5,245.8,24.5,245.7,24.4z"/>
<circle class="st0" cx="47.1" cy="46.7" r="45.8"/>
<circle class="st1" cx="47.1" cy="46.7" r="37"/>
<circle class="st0" cx="146.1" cy="46.7" r="45.8"/>
<circle class="st1" cx="146.1" cy="46.7" r="37"/>
<path class="st1" d="M245.7,83.7c-20.4,0-37-16.6-37-37s16.6-37,37-37"/>
<g>
	<g class="st2">
		<path class="st3" d="M76.5,24c-0.6,0.2-1.2,0.3-1.8,0.4c0.2-0.7,0.4-1.3,0.5-1.9c-0.3-0.3-0.5-0.6-0.8-0.9c-1-0.2-1.9-0.4-2.9-0.5
			c-1.7,2.1-3.3,4.1-4.9,6.1c0.6,1,1.2,1.8,1.8,2.7c-0.3,0.7-0.5,1.3-0.8,2c-0.6-0.6-0.6-1.4-0.8-2.1c-0.3-0.7-0.4-1.4-0.7-2.2
			c-1.1,0.1-1.3,1.2-1.9,1.7c-0.7,0.6-1.2,1.3-1.7,1.9c-0.9-0.2-1.7-0.1-2.6-0.1c-0.6,0.9-1.2,1.9-1.9,2.9c-0.4-0.5-0.8-1-1.3-1.7
			c0.6,0.2,1.1,0.3,1.6,0.4c0.2-0.4,0.4-0.7,0.7-1.1c-1.4-0.6-2.7-1.1-4.1-1.6c-1.3,1-2.5,2-3.7,2.9c-0.1,0.6-0.3,1.2-0.4,1.9
			c-0.9-0.1-1.2,0.6-1.7,1c0.1,0.1,0.3,0.2,0.3,0.4c0.1,0.5,0.1,1,0.2,1.5c0.3-0.1,0.6-0.3,0.9-0.4c0.6,0.5,1.1,0.9,1.8,1.4
			c0.4-1.9,0.9-3.8,1.3-5.6c0.4,0.1,0.8,0.1,1.1,0.2c-0.3,0.9-0.5,1.6-0.8,2.5c0.8,0.1,1.6,0.3,2.3,0.4c0,0,0,0.1,0,0.1
			c-0.4,0.1-0.9,0.2-1.4,0.3c-0.3,0.5-0.5,1.1-0.8,1.5c-0.5,0.4-0.9,0.7-1.3,1c-0.5,0.4-1.1,0.6-1.7,0.4c-0.2-0.4-0.5-0.8-0.8-1.3
			c-0.7,2.2-2.7,3.2-4.1,4.6c0.1,0.4,0.1,0.9,0.2,1.3c-0.6,0.2-1.2,0.5-1.6,0.6c0.1,0.7,0.1,1.3,0.2,1.9c0.6,0,1.2,0,1.9,0
			c0.8-0.8,1.6-1.7,2.5-2.7c1.2,0.5,2.3,0.9,3.4,1.3c0,0,0.1-0.1,0.1-0.1c-0.4-0.5-0.8-1.1-1.3-1.7c0.7-0.1,1.1,0.5,1.7,0.5
			c0.7,0.9,1.3,1.8,1.9,2.7c0.6-0.4,1.1-0.8,1.7-1.3c-0.1,0.5-0.1,0.9-0.2,1.3c0.9,0.1,1.8,0.1,2.9,0.2c-0.3,0.4-0.5,0.7-0.7,1
			c-0.2,0.3-0.6,0.5-0.7,0.8c1.8,2.2,3.3,4.6,4.9,6.8c2.2-0.5,3.9-1.6,5-3.6c-1.1-0.3-2.3,0.1-3.4-0.5c-0.2-0.5-0.5-1.1-0.8-1.7
			c2.4,0.7,4.7,1.4,7.2,2.1c1.1,1.7,2.3,3.6,3.6,5.5c0.6-1,1.1-2,1.6-2.9c0.5-1,0.9-2,1.4-3c0.6,0,1.1,0,1.6,0
			c0.2,1,0.4,1.9,0.6,2.8c0.4-0.1,0.8-0.1,1.2-0.2c0.1,0.5,0.2,1.1,0.3,1.6c0.2,0.7,0.2,1.5,0.6,2.1c0.3,0.4,0.6,0.7,1,1.1
			c0.1-0.2,0.2-0.5,0.2-0.7c-0.3-0.4-0.8-0.6-1.1-1c0-0.6,0-1,0-1.7c0.6,0.4,1.1,0.8,1.6,1c0.8-3,1.2-6.1,1.2-9.3
			C84.6,38.5,81.5,30.4,76.5,24z M60.3,45c-0.8,0-1.6,0-2.4,0c-0.4,0-0.8,0-1.2,0.1c0-0.3,0-0.5,0-0.7c0.5-0.5,0.8-0.9,1.3-1.4
			c1.1,0.4,1.9,1.2,3,1.8C60.7,45,60.5,45,60.3,45z M63.8,46.7c-0.2-1.3-0.4-2.5-0.7-3.9c0.2-0.2,0.5-0.4,0.7-0.7
			c0.6,0.8,2.1,4.1,2.2,5C65.3,47.1,64.6,46.9,63.8,46.7z"/>
		<path class="st3" d="M27.8,75.5c1.7-2.3,3.5-4.4,4.7-6.9c0,0,0.1-0.1,0.1-0.1c0.7-0.2,1.5-0.3,2.1-0.8c0.2-1,0.4-1.9,0.5-2.8
			c0.2-1,0.6-1.9,0.3-3c-3.1-1.2-5.9-3.2-8.3-5.3c-0.9,0-1.7-0.1-2.4,0c-1.4,0.2-2.8,0.4-4-0.6c-0.1-0.1-0.3-0.2-0.5-0.3
			c-0.7-0.4-1.3-0.9-2.1-1.3c0.2-0.5,0.4-1,0.5-1.5c0-0.1,0-0.2-0.1-0.3c-0.3,0.1-0.7,0.1-0.9,0.2c-0.2,0.2-0.3,0.4-0.5,0.6
			c-0.7-0.6-1.4-1.2-2.1-1.8c0.2-0.6,0.4-1.1,0.5-1.6c1.7-0.2,3.3-0.7,4.9-0.7c0.2,0.5,0.3,1,0.4,1.5c0.1-0.7,0.3-1.4,0.4-2.2
			c3.3-2.4,6.6-4.7,9.9-7.1c-0.9-2-1.7-3.8-2.6-5.7c-1.1-0.6-2.1-1.2-3.2-1.8c-0.5,1.8-1,3.5-1.4,5.3c-1.4-1.3-2.8-2.5-4.1-3.7
			c0.3-0.7,0.6-1.3,0.9-1.8c0.1-0.2,0.3-0.4,0.5-0.6c0.7-0.5,1.4-1,2-1.5c0.9-0.7,1.7-1.3,2.7-2.1c-0.8-0.5-1.5-1-2.2-1.4
			c-0.2-0.1-0.6-0.1-0.9-0.1c-0.2-0.2-0.5-0.4-0.8-0.5c-1.9-0.6-3.8-1.2-5.7-1.7c-4.3,6.1-6.8,13.5-6.8,21.5c0,0.7,0,1.4,0.1,2.1
			c0.2,0.2,0.4,0.4,0.6,0.7c0.5,0,0.7,0.5,1.1,0.9c0.4,0.4,0.7,0.8,0.9,1.2c0.2,0.4,0.1,1,0.1,1.4c0.7,0.2,1.3,0.3,1.9,0.6
			c2.6,1.3,5.2,2.6,7.7,3.8c0,0.4,0,0.7,0,0.8c-0.6,1.6-1.2,3-1.7,4.4c1.5,1.2,2.8,2.2,4.1,3.3c0.2,0.8-0.2,1.7,0.4,2.3
			c-0.3,0.5-0.4,0.5-0.3,2.2c0,0.7,0.1,1.5,0,2.2c-0.1,0.7,0,1.5,0,2.2c0,0.6,0,1.1,0,1.7c0.9,0.7,1.9,1.4,2.9,2
			c0-0.7-0.1-1.5-0.1-2.2C27.2,76.3,27.4,75.9,27.8,75.5z"/>
		<path class="st3" d="M62.3,55.8c-0.7-1-1.3-2.1-2.1-3.1c-0.7-1-1.2-2.2-2.1-3c-0.1-1-0.9-1-1.6-1.2c-2-0.6-4.1-1.1-6-1.7
			c-2.1,0.5-4.1,0.9-6.1,1.4c-0.7,2.4-1.5,4.8-2.2,7.1c0.9,1.2,1.7,2.3,2.5,3.3c1.2-0.2,2.2-0.5,3.3-0.6c0.4-0.1,0.8,0,1.2,0.2
			c0.6,0.2,1.3,0.5,1.9,0.8c0.5,2.1,1.1,4,1.6,5.9c-0.2,0.5-0.4,1-0.5,1.5c-0.1,0.3-0.1,0.7,0,1c0.4,1.1,0.8,2.2,1.2,3.4
			c0.2,0.6,0.5,1.1,0.7,1.7c0.9-0.2,1.7-0.3,2.5-0.5c0.3-0.1,0.7-0.3,0.9-0.6c0.7-0.9,1.4-1.8,2-2.7c-0.1-0.6-0.2-1.2-0.3-1.8
			c0.8-0.6,1.5-1.2,2.3-1.8c-0.2-1-0.3-2-0.5-3c1.3-1.9,2.6-3.8,3.9-5.8c-0.9,0.1-1.6,0.3-2.3,0.4C62.6,56.4,62.4,56.1,62.3,55.8z"
			/>
		<path class="st3" d="M41.8,29.5c0-0.6,0.1-1.1,0.3-1.6c0.8-1.6,1.5-3.2,2.2-4.8c0.3-0.7,0.7-1.4,0.8-2.3c-1.1-1-2.1-1.9-3.2-2.9
			c-0.2,0.1-0.5,0.1-0.7,0.2c-0.1,0.5-0.1,0.5-0.4,0.8c-1.7,1.5-3.4,2.9-5.1,4.4c-0.6,0.6-1.3,1.2-1.9,1.7c0,0-0.1,0-0.2,0
			c0,2,0.5,3.8,0.8,5.7c-0.5,1-1,2-1.5,3c0.5,0.8,1,1.6,1.6,2.4c1-1.5,2-2.9,3-4.3c1.4-0.5,2.8-1,4.3-1.5
			C41.8,30.1,41.8,29.8,41.8,29.5z"/>
		<polygon class="st3" points="33.6,25.1 33.7,25.1 33.7,25.1 		"/>
		<path class="st3" d="M35.2,18.3c0,0-0.1-0.1-0.1-0.1c-0.2,0.1-0.3,0.2-0.5,0.3c-0.1-0.1-0.3-0.2-0.3-0.2c-0.4,0-0.6,0.1-0.8,0.1
			c-0.5-0.2-1.1-0.1-1.6-0.2c-0.4,0-0.8-0.2-1.2-0.2c-0.6,0-1.2-0.1-1.8,0.1c-1.2,0.3-2.4,0.7-3.6,1c-0.4,0.3-0.7,0.6-0.9,0.8
			c0.1,0.9,0.2,1.7,0.3,2.4c0.1,0.8,0.3,1.6,0.5,2.3c0.9,0.1,1.7,0.3,2.5,0.4C30.2,22.7,32.7,20.5,35.2,18.3z"/>
		<path class="st3" d="M29.2,29.9C29.2,29.9,29.3,29.9,29.2,29.9C29.3,29.9,29.3,29.9,29.2,29.9L29.2,29.9z"/>
		<path class="st3" d="M29.2,30.2c-0.6-0.2-1.1-0.4-1.7-0.6c0.2,0.5,0.3,1,0.5,1.5c-0.7,0.5-1.4,0.9-2.1,1.4c1,0.8,1.9,1.4,2.9,2
			c0.4-0.5,0.7-0.9,1-1.4c0.3-0.5,0.7-0.9,1-1.3c-0.5-0.7-1-1.3-1.5-2C29.2,30,29.2,30.1,29.2,30.2z"/>
		<path class="st3" d="M33.6,25.1C33.6,25.1,33.6,25.1,33.6,25.1L33.6,25.1C33.6,25.1,33.6,25.1,33.6,25.1z"/>
		<path class="st3" d="M33.7,24.6c0.4-1.2,0.9-2.4,1.3-3.6c0.2-0.5,0.5-0.9,0.3-1.4c-0.7,0.4-3.8,3.1-4.3,3.7
			c0.9,0.6,1.7,1.1,2.6,1.7C33.6,24.9,33.6,24.8,33.7,24.6z"/>
		<path class="st3" d="M62.6,66.1c0.6,1-0.4,1.8-0.3,2.8c0.3,0,0.7,0.1,1.2,0.1c0.4-1.1,0.8-2.2,1.2-3.2c0.2-0.5,0.2-1-0.2-1.4
			C63.9,65,63.3,65.6,62.6,66.1z"/>
		<path class="st3" d="M61.9,27.6c0.6-1,1.2-1.9,1.8-2.9c-0.1-0.1-0.1-0.1-0.2-0.2c-0.5,0.6-1.3,0.6-1.7,1.2
			c-0.1,0.1-0.1,0.2-0.1,0.3c-0.2,1-0.4,2.1-0.7,3.1c0.5,0.1,1,0.3,1.6,0.5C62.3,28.8,62.1,28.2,61.9,27.6z"/>
		<path class="st3" d="M29.2,29.9C29.2,29.9,29.2,29.9,29.2,29.9L29.2,29.9C29.3,29.9,29.2,29.9,29.2,29.9z"/>
		<path class="st3" d="M27.2,25.8c-0.3-0.1-0.5-0.4-1-0.2c1,1.4,2,2.8,3,4.2c-0.2-1.3-0.6-2.6-1-3.8C27.8,26,27.5,25.9,27.2,25.8z"
			/>
		<path class="st3" d="M48.1,40.9c0-1.4-1-2.2-1.8-3.2c0.1,1.3,0.2,2.5,0.3,3.8C47.2,41.3,47.6,41.1,48.1,40.9z"/>
		<path class="st3" d="M22,21.6c-0.4,0.3-0.7,0.5-1.1,0.7c-0.2-0.2-0.4-0.3-0.8-0.5c-0.1,0.6-0.2,1-0.3,1.6c0.5,0,0.9,0,1.2-0.1
			c0.4,0,0.8-0.1,1.3-0.2C22.2,22.5,22.1,22.1,22,21.6z"/>
		<path class="st3" d="M80.9,58.9c0.4,0.5,0.9,1,1.3,1.6c0.1-0.2,0.2-0.4,0.2-0.7c-0.5-0.4-0.9-0.7-1.4-1
			C81,58.8,80.9,58.8,80.9,58.9z"/>
		<path class="st3" d="M69.6,20.3c-0.8-0.7-1.6-1.5-2.5-2.3c0,0.6,0,1.1,0,1.7c0.8,0.2,1.6,0.4,2.5,0.7
			C69.6,20.4,69.6,20.4,69.6,20.3z"/>
		<path class="st3" d="M44,33.6c-0.1-0.2-0.2-0.4-0.3-0.5c-0.8,0.2-1.5,0.3-2.3,0.4c0.4,0.4,0.7,0.7,1.1,1.1
			C43,34.4,43.7,34.3,44,33.6z"/>
		<path class="st3" d="M51.6,25.4c-0.3-0.7,0.6-1.3,0-2c-0.4,0-0.8,0-1.4,0C50.7,24.2,50.9,24.9,51.6,25.4z"/>
		<path class="st3" d="M44.6,40.7c0.5-0.1,0.9-0.2,1.4-0.4c-0.1-0.4-0.2-0.8-0.3-1.2c-0.3,0.2-0.5,0.4-0.8,0.5
			C44.8,40,44.7,40.3,44.6,40.7z"/>
		<path class="st3" d="M22.8,26.4c0.1-0.5,0.2-1,0.3-1.6c-0.6,0.2-1,0.4-1.5,0.6C22,25.7,22.2,26.2,22.8,26.4z"/>
		<path class="st3" d="M53.5,22.4c-0.6-0.1-1.1-0.2-1.7-0.3c0.4,0.4,0.6,0.7,0.9,1C53,22.9,53.2,22.7,53.5,22.4z"/>
		<path class="st3" d="M23.1,22.9c0.3,0.3,0.6,0.5,0.8,0.8c0,0,0.1,0,0.1-0.1c-0.1-0.4-0.2-0.9-0.3-1.4
			C23.4,22.5,23.3,22.7,23.1,22.9z"/>
		<path class="st3" d="M22.8,52.9c-0.5-0.2-1.1-0.4-1.7-0.6C21.9,53.2,22.2,53.3,22.8,52.9z"/>
		<path class="st3" d="M52.4,24.1c0.2,0.4,0.4,0.7,0.7,1.1c0.1-0.4,0.2-0.7,0.3-0.9C53,24.1,52.8,23.8,52.4,24.1z"/>
	</g>
</g>
<g class="st2">
	<path class="st3" d="M111.4,35.2c0.1,0.1,0.1,0.1,0.2,0.2c0.2-0.7,0.5-1.4,0.7-2c0,0,0,0.1-0.1,0.1C112,34,111.7,34.5,111.4,35.2z"
		/>
	<path class="st3" d="M146.3,43.6c0,0.2,0,0.4,0,0.7c0.4,0,0.8-0.1,1.1-0.1c0.8,0,1.5,0,2.3,0c0.2,0,0.3-0.1,0.7-0.2
		c-1.1-0.6-1.8-1.4-2.9-1.7C147.1,42.7,146.7,43.2,146.3,43.6z"/>
	<path class="st3" d="M156.1,18.6c0.8,0.8,1.6,1.5,2.4,2.1c0,0,0,0.1-0.1,0.1c-0.8-0.2-1.5-0.4-2.3-0.6
		C156.1,19.7,156.1,19.2,156.1,18.6z M150.9,26.2c0-0.1,0.1-0.2,0.1-0.3c0.4-0.6,1.2-0.6,1.7-1.2c0.1,0.1,0.1,0.1,0.2,0.2
		c-0.6,0.9-1.1,1.8-1.7,2.7c0.2,0.6,0.4,1.2,0.7,1.9c-0.6-0.2-1-0.3-1.5-0.5C150.5,28.2,150.7,27.2,150.9,26.2z M142.7,25.4
		c-0.3-0.4-0.4-0.7-0.6-1.1c0.4-0.2,0.6,0.1,0.9,0.2C143,24.8,142.9,25,142.7,25.4z M143.2,22.8c-0.3,0.3-0.5,0.5-0.7,0.7
		c-0.3-0.3-0.5-0.5-0.9-0.9C142.2,22.6,142.6,22.7,143.2,22.8z M141.5,23.7c0.5,0.7-0.3,1.3,0,1.9c-0.7-0.5-0.9-1.2-1.3-1.9
		C140.7,23.7,141.1,23.7,141.5,23.7z M138.1,40.3c-0.5,0.2-0.9,0.4-1.4,0.6c-0.1-1.2-0.2-2.4-0.3-3.6
		C137.1,38.2,138.1,38.9,138.1,40.3z M112.5,51.1c0.6,0.2,1.1,0.4,1.6,0.5C113.5,52.1,113.2,52,112.5,51.1z M136.1,39.8
		c-0.5,0.1-0.8,0.2-1.3,0.3c0.1-0.4,0.2-0.7,0.3-0.9c0.2-0.2,0.4-0.3,0.7-0.5C135.9,39,136,39.3,136.1,39.8z M120.7,33
		c-0.3,0.4-0.6,0.8-0.9,1.3c-1-0.6-1.9-1.1-2.8-1.9c0.7-0.5,1.4-0.9,2-1.4c-0.2-0.5-0.3-1-0.5-1.5c0.5,0.2,1.1,0.4,1.6,0.6
		c0-0.1,0-0.2,0-0.3c0,0,0,0,0,0c0,0,0,0,0,0c-1-1.3-1.9-2.7-2.9-4c0.4-0.2,0.6,0.1,0.9,0.1c0.3,0.1,0.6,0.2,1,0.3
		c0.4,1.1,0.8,2.3,1,3.6c0,0,0,0,0,0c0,0,0,0,0,0c0.5,0.6,0.9,1.2,1.4,1.9C121.3,32.1,121,32.6,120.7,33z M125.2,35.8
		c-0.5-0.8-1-1.5-1.5-2.3c0.5-0.9,1-1.9,1.4-2.8c-0.2-1.8-0.7-3.6-0.7-5.4c0,0,0,0,0,0c0,0,0,0,0,0c-0.8-0.5-1.6-1.1-2.5-1.6
		c0.5-0.6,3.4-3.2,4-3.5c0.2,0.5-0.1,0.9-0.3,1.3c-0.4,1.1-0.8,2.3-1.3,3.4c0,0.1,0,0.3,0,0.4c0,0,0,0,0,0c0,0,0,0,0,0
		c0.1,0,0.1,0,0.2,0c0.6-0.5,1.2-1.1,1.8-1.7c1.6-1.4,3.2-2.8,4.8-4.2c0.3-0.3,0.3-0.2,0.4-0.7c0.2-0.1,0.4-0.1,0.7-0.2
		c1,0.9,2,1.8,3,2.8c0,0.8-0.4,1.5-0.7,2.1c-0.7,1.5-1.4,3.1-2.1,4.6c-0.2,0.5-0.3,1-0.3,1.5c0,0.3,0,0.6,0,0.9
		c-1.3,0.5-2.7,0.9-4,1.4C127.1,33.1,126.2,34.4,125.2,35.8z M133.9,32.9c0.1,0.1,0.2,0.3,0.2,0.5c-0.3,0.6-0.9,0.7-1.4,1
		c-0.4-0.4-0.7-0.7-1.1-1.1C132.5,33.2,133.2,33,133.9,32.9z M153.8,64c-0.4,0.9-0.7,1.9-1.1,3c-0.4,0-0.8-0.1-1.1-0.1
		c-0.1-1,0.9-1.7,0.3-2.7c0.6-0.5,1.2-1,1.8-1.5C154,63.1,154,63.5,153.8,64z M150.4,60.4c0.2,0.9,0.3,1.9,0.5,2.9
		c-0.7,0.6-1.4,1.1-2.2,1.7c0.1,0.5,0.2,1.1,0.2,1.7c-0.7,0.9-1.3,1.8-1.9,2.6c-0.2,0.2-0.5,0.5-0.8,0.5c-0.8,0.2-1.5,0.3-2.4,0.4
		c-0.2-0.5-0.5-1.1-0.7-1.6c-0.4-1.1-0.8-2.1-1.2-3.2c-0.1-0.3-0.1-0.7,0-1c0.1-0.5,0.3-0.9,0.5-1.4c-0.5-1.8-1-3.7-1.5-5.6
		c-0.6-0.3-1.2-0.5-1.8-0.8c-0.3-0.1-0.7-0.2-1.1-0.2c-1,0.1-2,0.4-3.1,0.6c-0.8-1-1.5-2-2.4-3.1c0.7-2.2,1.4-4.4,2.1-6.7
		c1.9-0.4,3.8-0.8,5.8-1.3c1.8,0.5,3.7,1,5.7,1.6c0.7,0.2,1.4,0.2,1.5,1.1c0.9,0.8,1.3,1.9,2,2.8c0.7,0.9,1.3,1.9,2,2.9
		c0.2,0.3,0.3,0.5,0.5,0.9c0.7-0.1,1.4-0.2,2.2-0.4C152.9,56.8,151.7,58.6,150.4,60.4z M178.4,55.5c0.3,0.4,0.1,0.8,0.2,1.3
		c-0.5-0.2-0.8-0.4-1.3-0.7C177.7,55.8,178,55.7,178.4,55.5z M177.5,59c-0.3,0.5-0.5,0.8-0.8,1.3c0-0.4,0-0.7,0-1.1
		C177,59.1,177.2,59.1,177.5,59z M176.7,52.2c0.6,0.9,1,1.6,1.4,2.3c0,0-0.1,0.1-0.1,0.1c-0.4-0.3-0.9-0.5-1.3-0.8
		C176.7,53.3,176.7,52.9,176.7,52.2z M175.7,56.3c0.5,0.1,0.6,0.4,0.5,0.8c0,0.2-0.1,0.5-0.2,0.7c-0.2,0.7-0.4,1.3-0.6,2.1
		c-0.5-0.1-1-0.1-1.5-0.2c-0.2-0.5-0.4-0.8-0.6-1.3C174,57.6,174.9,57,175.7,56.3z M171.8,60.6c-1-1.2-1.8-2.2-2.7-3.2
		c0,0,0.1-0.1,0.1-0.1c0.9,0.7,1.9,1.4,2.8,2.1C172,59.7,171.9,60.1,171.8,60.6z M177.5,62.2c-1.7-0.4-3.3-0.8-5.1-1.2
		c2.2-0.3,4.2,0.3,6.3,0.3C178.3,61.6,177.9,61.9,177.5,62.2z M181.1,40.6c0.4,0.1,0.8,0.3,1.2,0.5c-0.2,0.6-0.8,0.8-1.2,1.4
		C181.1,41.7,181.1,41.2,181.1,40.6z M181.1,42.8c0.1-0.1,0.3-0.2,0.6-0.3c0.1,0.1,0.2,0.2,0.2,0.3c0,0.7,0.1,1.4,0.1,2.3
		c-0.8,0.7-1.7,1.4-3.2,1.4c0.8-0.7,1.4-1.3,2-1.9C180.9,44,181,43.4,181.1,42.8z M180.8,39.3c0,0-0.1,0-0.1,0
		c-0.3-1-0.6-1.9-0.9-2.9c0.1,0,0.1-0.1,0.2-0.1c0.3,0.4,0.6,0.9,0.9,1.3C180.8,38.3,180.8,38.8,180.8,39.3z"/>
	<path class="st3" d="M113.3,56.4c-0.8-0.4-1.6-0.8-2.4-1.2c0.4,1.6,0.8,3.1,1.4,4.6c0.3-0.8,0.7-1.7,1-2.6
		C113.3,57.1,113.3,56.8,113.3,56.4z"/>
	<path class="st3" d="M115.5,64.5c-0.6-0.5-1.3-1-1.9-1.5c0.7,1.3,1.4,2.6,2.2,3.8c0,0,0-0.1,0.1-0.1
		C115.4,66.1,115.8,65.3,115.5,64.5z"/>
	<path class="st3" d="M152.4,42.2c0.2,1.3,0.4,2.5,0.6,3.7c0.7,0.2,1.4,0.3,2.2,0.5c-0.1-0.9-1.5-4-2.1-4.8
		C152.8,41.7,152.6,42,152.4,42.2z"/>
	<path class="st3" d="M174.8,22.8c-1-0.1-2-0.1-3.1,0c-0.1,0.5-0.1,0.9-0.2,1.4c-0.9,0-1.7,0-2.6,0c-0.3-0.3-0.5-0.7-0.8-1
		c-1.7,0.4-3.2,1.2-4.9,1.4c0.2-0.9,0.4-1.6,0.7-2.4c-1.2-0.3-2.4-0.6-3.7-0.7c-1.6,1.9-3.1,3.9-4.7,5.8c0.6,0.9,1.2,1.7,1.7,2.6
		c-0.3,0.6-0.5,1.2-0.8,1.9c-0.6-0.6-0.5-1.3-0.8-2c-0.3-0.7-0.4-1.4-0.6-2.1c-1,0.1-1.2,1.1-1.8,1.6c-0.6,0.6-1.1,1.3-1.6,1.8
		c-0.9-0.2-1.6-0.1-2.5-0.1c-0.6,0.9-1.1,1.8-1.8,2.7c-0.4-0.5-0.7-1-1.2-1.6c0.6,0.2,1.1,0.3,1.5,0.4c0.2-0.4,0.4-0.7,0.6-1.1
		c-1.3-0.5-2.6-1.1-3.9-1.6c-1.2,1-2.4,1.9-3.5,2.8c-0.1,0.6-0.2,1.2-0.4,1.8c-0.8-0.1-1.1,0.5-1.6,0.9c0.1,0.1,0.3,0.2,0.3,0.3
		c0.1,0.5,0.1,0.9,0.2,1.5c0.3-0.1,0.6-0.2,0.9-0.3c0.6,0.4,1.1,0.9,1.7,1.4c0.4-1.8,0.8-3.6,1.2-5.3c0.4,0.1,0.7,0.1,1,0.2
		c-0.3,0.8-0.5,1.6-0.8,2.4c0.8,0.1,1.5,0.2,2.2,0.4c0,0,0,0.1,0,0.1c-0.4,0.1-0.8,0.2-1.3,0.3c-0.3,0.5-0.5,1-0.7,1.4
		c-0.5,0.4-0.9,0.6-1.3,0.9c-0.5,0.4-1,0.6-1.6,0.4c-0.2-0.4-0.4-0.8-0.7-1.3c-0.7,2.1-2.5,3-3.9,4.4c0.1,0.4,0.1,0.8,0.2,1.2
		c-0.6,0.2-1.1,0.4-1.6,0.6c0.1,0.7,0.1,1.2,0.2,1.8c0.6,0,1.1,0,1.8,0c0.8-0.8,1.6-1.7,2.4-2.5c1.1,0.4,2.1,0.8,3.2,1.2
		c0,0,0.1-0.1,0.1-0.1c-0.4-0.5-0.8-1-1.2-1.6c0.7-0.1,1.1,0.5,1.6,0.5c0.6,0.9,1.2,1.7,1.8,2.6c0.5-0.4,1-0.8,1.6-1.2
		c-0.1,0.5-0.1,0.9-0.2,1.2c0.9,0.1,1.7,0.1,2.7,0.2c-0.3,0.4-0.4,0.7-0.6,0.9c-0.2,0.3-0.6,0.5-0.7,0.8c1.7,2.1,3.1,4.3,4.6,6.4
		c2.1-0.5,3.7-1.5,4.7-3.4c-1-0.3-2.2,0.1-3.2-0.5c-0.2-0.5-0.5-1-0.8-1.6c2.3,0.7,4.5,1.3,6.9,2c1.1,1.6,2.2,3.4,3.4,5.3
		c0.5-1,1.1-1.9,1.5-2.8c0.5-0.9,0.9-1.9,1.3-2.8c0.5,0,1,0,1.5,0c0.2,0.9,0.4,1.8,0.6,2.7c0.4-0.1,0.7-0.1,1.1-0.2
		c0.1,0.5,0.1,1,0.3,1.5c0.2,0.7,0.2,1.4,0.6,2c0.4,0.5,0.9,1,1.4,1.6c0.3-1.3-0.9-1.5-1.3-2.1c0-0.5,0-1,0-1.6
		c0.8,0.5,1.4,0.9,1.8,1.2c0.5-0.4,0.9-0.7,1.3-0.9c-0.3-0.7-0.6-1.4-0.9-2.1c0.8-0.6,1.6-1.2,2.4-1.7c1-0.8,1.6-1.8,1.8-3
		c-0.5-0.7-1-1.4-1.5-2.1c0-0.7,0-1.3,0-2c1.2,0.5,1.9,1.7,3.2,2.3c-0.1-1.3-0.2-2.5-0.3-3.6c0.5-0.3,1-0.5,1.4-0.7
		c0.2-0.7,0.3-1.2,0.5-1.8c0.1-0.6,0.2-1.3,0-1.9c-0.2-0.6-0.4-1.3-0.6-1.9c-0.6-0.1-1.2-0.3-1.8-0.4c-0.1-1,0.2-1.9,0.5-2.8
		c1-0.1,2-0.2,2.9-0.3c0-0.1,0-0.1,0.1-0.2c-1.4-3.4-3.4-6.5-5.7-9.2C175,22.8,174.9,22.8,174.8,22.8z M149.7,44.2
		c-0.8,0-1.5,0-2.3,0c-0.4,0-0.7,0-1.1,0.1c0-0.2,0-0.5,0-0.7c0.4-0.5,0.8-0.9,1.2-1.3c1.1,0.4,1.8,1.1,2.9,1.7
		C150,44.1,149.8,44.2,149.7,44.2z M153,45.8c-0.2-1.2-0.4-2.4-0.6-3.7c0.2-0.2,0.5-0.4,0.7-0.6c0.6,0.8,1.9,3.9,2.1,4.8
		C154.4,46.1,153.7,46,153,45.8z"/>
	<path class="st3" d="M111.6,61.4c0.7,0.5,1.3,1.1,2,1.6c-0.5-1-1-2.1-1.4-3.2C112,60.3,111.8,60.9,111.6,61.4z"/>
	<path class="st3" d="M112.7,32.9c0.6-0.5,1.3-0.9,1.9-1.4c0.8-0.6,1.6-1.3,2.5-2c-0.8-0.5-1.4-1-2.1-1.4c-0.1,0-0.2-0.1-0.2-0.1
		c-1,1.7-1.8,3.4-2.5,5.3C112.4,33.2,112.6,33,112.7,32.9z"/>
	<path class="st3" d="M123.4,66.4c0.7-0.2,1.4-0.3,2-0.7c0.2-0.9,0.4-1.8,0.5-2.7c0.1-0.9,0.6-1.8,0.3-2.8c-3-1.2-5.6-3-7.9-5.1
		c-0.8,0-1.6-0.1-2.3,0c-1.4,0.2-2.7,0.4-3.8-0.6c-0.1-0.1-0.3-0.2-0.5-0.2c-0.4-0.2-0.8-0.5-1.1-0.7c0.1,0.5,0.2,1.1,0.3,1.6
		c0.8,0.4,1.6,0.8,2.4,1.2c0,0.3,0,0.7,0,0.8c-0.4,0.9-0.7,1.8-1,2.6c0.4,1.1,0.9,2.1,1.4,3.2c0.7,0.5,1.3,1,1.9,1.5
		c0.2,0.8-0.2,1.6,0.3,2.2c0,0-0.1,0.1-0.1,0.1c1.2,1.8,2.5,3.4,3.9,5C121,70.1,122.3,68.4,123.4,66.4
		C123.3,66.5,123.3,66.5,123.4,66.4z"/>
	<path class="st3" d="M109.9,48.4c0.7-0.1,1.4-0.2,2.1-0.2c0.1,0.5,0.3,0.9,0.4,1.4c0.1-0.7,0.2-1.4,0.4-2.1
		c3.1-2.2,6.2-4.5,9.4-6.8c-0.8-1.9-1.6-3.6-2.4-5.4c-1-0.6-2-1.2-3.1-1.8c-0.5,1.7-0.9,3.3-1.4,5.1c-1.3-1.1-2.5-2.2-3.7-3.3
		c-1.1,3.6-1.8,7.4-1.8,11.3C109.8,47.3,109.9,47.9,109.9,48.4z"/>
	<path class="st3" d="M151.5,54.4c-0.6-1-1.3-2-2-2.9c-0.7-0.9-1.1-2.1-2-2.8c-0.1-0.9-0.9-0.9-1.5-1.1c-1.9-0.5-3.9-1.1-5.7-1.6
		c-2,0.5-3.9,0.9-5.8,1.3c-0.7,2.3-1.4,4.5-2.1,6.7c0.8,1.1,1.6,2.1,2.4,3.1c1.1-0.2,2.1-0.4,3.1-0.6c0.4-0.1,0.8,0,1.1,0.2
		c0.6,0.2,1.2,0.5,1.8,0.8c0.5,2,1,3.8,1.5,5.6c-0.2,0.5-0.4,0.9-0.5,1.4c-0.1,0.3-0.1,0.7,0,1c0.4,1.1,0.8,2.1,1.2,3.2
		c0.2,0.5,0.5,1.1,0.7,1.6c0.8-0.1,1.6-0.2,2.4-0.4c0.3-0.1,0.6-0.3,0.8-0.5c0.7-0.8,1.3-1.7,1.9-2.6c-0.1-0.6-0.2-1.2-0.2-1.7
		c0.8-0.6,1.5-1.1,2.2-1.7c-0.2-1-0.3-1.9-0.5-2.9c1.2-1.8,2.5-3.6,3.7-5.5c-0.8,0.1-1.5,0.3-2.2,0.4
		C151.8,54.9,151.7,54.7,151.5,54.4z"/>
	<path class="st3" d="M132.1,29.5c0-0.5,0.1-1,0.3-1.5c0.7-1.5,1.4-3.1,2.1-4.6c0.3-0.7,0.7-1.3,0.7-2.1c-1-0.9-2-1.8-3-2.8
		c-0.2,0.1-0.4,0.1-0.7,0.2c-0.1,0.5-0.1,0.5-0.4,0.7c-1.6,1.4-3.2,2.8-4.8,4.2c-0.6,0.5-1.2,1.1-1.8,1.7c0,0-0.1,0-0.2,0
		c0,1.9,0.5,3.6,0.7,5.4c-0.5,0.9-1,1.9-1.4,2.8c0.5,0.8,1,1.5,1.5,2.3c1-1.4,1.9-2.7,2.8-4c1.3-0.5,2.7-0.9,4-1.4
		C132.1,30,132.1,29.7,132.1,29.5z"/>
	<path class="st3" d="M174.2,66.2c0,0.9,0,1.7,0,2.5c0,0.8-0.1,1.7,0.1,2.6c0.1,0,0.1,0,0.2-0.1c2.1-2.3,3.9-4.9,5.3-7.8
		c-0.6,0.1-1,0.1-1.4,0.3C177,64.6,175.6,65.4,174.2,66.2z"/>
	<path class="st3" d="M125.8,18.8c0,0-0.1-0.1-0.1-0.1c-0.2,0.1-0.3,0.2-0.5,0.3c-0.1-0.1-0.3-0.2-0.3-0.2c-0.3,0-0.6,0.1-0.8,0.1
		c-0.5-0.2-0.9-0.2-1.4-0.2c-2.2,1.9-4.1,4-5.8,6.3c0.6,0.1,1.2,0.2,1.7,0.3C121.1,23,123.5,20.9,125.8,18.8z"/>
	<path class="st3" d="M120.1,30.2c-0.5-0.2-1.1-0.4-1.6-0.6c0.2,0.5,0.3,1,0.5,1.5c-0.7,0.5-1.3,0.9-2,1.4c0.9,0.8,1.8,1.3,2.8,1.9
		c0.3-0.5,0.6-0.9,0.9-1.3c0.3-0.4,0.7-0.9,0.9-1.3c-0.5-0.7-1-1.3-1.4-1.9C120.2,30,120.2,30.1,120.1,30.2z"/>
	<path class="st3" d="M124.4,25.3C124.4,25.3,124.4,25.3,124.4,25.3C124.4,25.3,124.4,25.3,124.4,25.3
		C124.4,25.3,124.4,25.3,124.4,25.3C124.4,25.3,124.4,25.3,124.4,25.3z"/>
	<path class="st3" d="M124.4,24.9c0.4-1.1,0.8-2.3,1.3-3.4c0.2-0.4,0.5-0.8,0.3-1.3c-0.7,0.4-3.6,2.9-4,3.5c0.8,0.5,1.6,1.1,2.5,1.6
		C124.4,25.1,124.3,25,124.4,24.9z"/>
	<path class="st3" d="M180.7,59.1c0,0,0,0.1-0.1,0.1c0.3,0.2,0.5,0.4,0.8,0.6c0.1-0.2,0.2-0.4,0.2-0.6c-0.1,0-0.2,0-0.3-0.1
		C181.2,59,180.9,59.1,180.7,59.1z"/>
	<path class="st3" d="M175.4,59.9c0.2-0.8,0.4-1.5,0.6-2.1c0.1-0.2,0.2-0.5,0.2-0.7c0.1-0.4,0-0.7-0.5-0.8c-0.8,0.7-1.7,1.3-2.5,2.1
		c0.2,0.5,0.4,0.8,0.6,1.3C174.4,59.8,174.9,59.8,175.4,59.9z"/>
	<path class="st3" d="M151.9,64.2c0.6,1-0.3,1.7-0.3,2.7c0.3,0,0.6,0.1,1.1,0.1c0.4-1.1,0.7-2,1.1-3c0.2-0.5,0.2-0.9-0.2-1.3
		C153,63.2,152.4,63.7,151.9,64.2z"/>
	<path class="st3" d="M178.7,46.5c1.5,0,2.4-0.7,3.2-1.4c0-0.8,0-1.5-0.1-2.3c0-0.1-0.1-0.2-0.2-0.3c-0.2,0.1-0.4,0.2-0.6,0.3
		c-0.1,0.7-0.2,1.2-0.4,1.8C180.1,45.2,179.5,45.8,178.7,46.5z"/>
	<path class="st3" d="M151.1,27.7c0.6-0.9,1.2-1.8,1.7-2.7c-0.1-0.1-0.1-0.1-0.2-0.2c-0.5,0.5-1.2,0.6-1.7,1.2
		c-0.1,0.1-0.1,0.2-0.1,0.3c-0.2,1-0.4,2-0.6,3c0.5,0.1,0.9,0.3,1.5,0.5C151.5,28.8,151.3,28.2,151.1,27.7z"/>
	<path class="st3" d="M172.4,61c1.8,0.4,3.4,0.8,5.1,1.2c0.4-0.3,0.8-0.6,1.2-0.9C176.7,61.3,174.6,60.7,172.4,61z"/>
	<path class="st3" d="M120.2,29.8C120.2,29.8,120.2,29.9,120.2,29.8C120.2,29.9,120.2,29.9,120.2,29.8
		C120.2,29.9,120.2,29.9,120.2,29.8C120.2,29.8,120.2,29.8,120.2,29.8z"/>
	<path class="st3" d="M118.2,25.9c-0.3-0.1-0.5-0.4-0.9-0.1c1,1.3,1.9,2.7,2.9,4c-0.2-1.3-0.5-2.5-1-3.6
		C118.8,26.1,118.5,26,118.2,25.9z"/>
	<path class="st3" d="M138.1,40.3c0-1.4-1-2.1-1.7-3.1c0.1,1.2,0.2,2.4,0.3,3.6C137.2,40.7,137.6,40.5,138.1,40.3z"/>
	<path class="st3" d="M169.2,57.3c0.9,1,1.7,2.1,2.7,3.2c0.1-0.5,0.2-0.9,0.3-1.3c-1-0.7-1.9-1.4-2.8-2.1
		C169.2,57.3,169.2,57.3,169.2,57.3z"/>
	<path class="st3" d="M158.5,20.8c-0.8-0.7-1.6-1.4-2.4-2.1c0,0.6,0,1.1,0,1.6c0.8,0.2,1.6,0.4,2.3,0.6
		C158.4,20.8,158.5,20.8,158.5,20.8z"/>
	<path class="st3" d="M134.2,33.4c-0.1-0.2-0.2-0.4-0.2-0.5c-0.8,0.1-1.5,0.3-2.2,0.4c0.4,0.4,0.7,0.7,1.1,1.1
		C133.3,34.1,133.9,34,134.2,33.4z"/>
	<path class="st3" d="M141.4,25.6c-0.3-0.6,0.5-1.2,0-1.9c-0.4,0-0.8,0-1.4,0C140.5,24.4,140.7,25.1,141.4,25.6z"/>
	<path class="st3" d="M178.1,54.5c-0.4-0.7-0.9-1.4-1.4-2.3c0,0.7,0,1.1,0,1.6c0.4,0.3,0.9,0.5,1.3,0.8
		C178,54.6,178.1,54.5,178.1,54.5z"/>
	<path class="st3" d="M182.3,41c-0.4-0.2-0.8-0.3-1.2-0.5c0,0.6,0,1.2,0,1.9C181.5,41.9,182.1,41.6,182.3,41z"/>
	<path class="st3" d="M179.7,36.5c0.3,1,0.6,1.9,0.9,2.9c0,0,0.1,0,0.1,0c0-0.5,0-1,0-1.6c-0.3-0.4-0.6-0.9-0.9-1.3
		C179.8,36.4,179.8,36.5,179.7,36.5z"/>
	<path class="st3" d="M134.8,40.1c0.5-0.1,0.8-0.2,1.3-0.3c-0.1-0.4-0.2-0.8-0.3-1.1c-0.3,0.2-0.5,0.4-0.7,0.5
		C135,39.4,134.9,39.7,134.8,40.1z"/>
	<path class="st3" d="M178.6,56.7c-0.1-0.5,0.1-0.9-0.2-1.3c-0.4,0.2-0.7,0.4-1.2,0.6C177.7,56.3,178.1,56.5,178.6,56.7z"/>
	<path class="st3" d="M143.2,22.8c-0.6-0.1-1-0.2-1.6-0.2c0.4,0.4,0.6,0.6,0.9,0.9C142.7,23.2,142.9,23.1,143.2,22.8z"/>
	<path class="st3" d="M114.1,51.6c-0.5-0.2-1-0.3-1.6-0.5C113.2,52,113.5,52.1,114.1,51.6z"/>
	<path class="st3" d="M142.1,24.3c0.2,0.3,0.4,0.6,0.6,1.1c0.1-0.4,0.2-0.6,0.3-0.9C142.7,24.4,142.5,24.1,142.1,24.3z"/>
	<path class="st3" d="M176.7,60.3c0.3-0.5,0.5-0.8,0.8-1.3c-0.4,0.1-0.6,0.2-0.8,0.2C176.7,59.6,176.7,59.9,176.7,60.3z"/>
</g>
<g class="st2">
	<path class="st3" d="M217.3,48.7c-1-0.3-2.2,0.1-3.2-0.5c-0.2-0.5-0.5-1-0.8-1.6c2.3,0.7,4.5,1.3,6.9,2c1.1,1.6,2.2,3.4,3.4,5.3
		c0.5-1,1.1-1.9,1.5-2.8c0.5-0.9,0.9-1.9,1.3-2.8c0.5,0,1,0,1.5,0c0.2,0.9,0.4,1.8,0.6,2.7c0.4-0.1,0.7-0.1,1.1-0.2
		c0.1,0.5,0.1,1,0.3,1.5c0.2,0.7,0.2,1.4,0.6,2c0.4,0.5,0.9,1,1.4,1.6c0.3-1.3-0.9-1.5-1.3-2.1c0-0.5,0-1,0-1.6
		c0.8,0.5,1.4,0.9,1.8,1.2c0.5-0.4,0.9-0.7,1.3-0.9c-0.3-0.7-0.6-1.4-0.9-2.1c0.8-0.6,1.6-1.2,2.4-1.7c1-0.8,1.6-1.8,1.8-3
		c-0.5-0.7-1-1.4-1.5-2.1c0-0.7,0-1.3,0-2c1.2,0.5,1.9,1.7,3.2,2.3c-0.1-1.3-0.2-2.5-0.3-3.6c0.5-0.3,1-0.5,1.4-0.7
		c0.2-0.7,0.3-1.2,0.5-1.8c0.1-0.6,0.2-1.3,0-1.9c-0.2-0.6-0.4-1.3-0.6-1.9c-0.6-0.1-1.2-0.3-1.8-0.4c-0.1-1,0.2-1.9,0.5-2.8
		c1-0.1,2-0.2,2.9-0.3c0.3-0.9,0.6-1.7,0.9-2.5c0.6-0.1,1.1-0.1,1.5,0.3c-0.2,1.3-0.5,2.6-0.7,4c0.3,0.4,0.6,0.8,1,1.2
		c0.3,0.4,0.5,1,1.1,1.1c0.1-0.9,0.2-1.7,0.3-2.5c-0.4-0.5-0.6-1.1-0.9-1.7c-0.3-0.6-0.1-1.1,0.3-1.5c0.2-0.3,0.5-0.6,0.7-0.8
		c0.1,0.1,0.2,0.2,0.4,0.3v-8.1c-1.8,0-3.9,0-4.5,0.2c0.2,0.3,0.4,0.5,0.6,0.8c-0.7,0.5-1.4,0.3-2.1,0.3c-0.4,0-0.9-0.1-1.3-0.2
		c-1.1-0.1-2.1-0.3-3.2-0.4c-1-0.1-2-0.1-3.1,0c-0.1,0.5-0.1,0.9-0.2,1.4c-0.9,0-1.7,0-2.6,0c-0.3-0.3-0.5-0.7-0.8-1
		c-1.7,0.4-3.2,1.2-4.9,1.4c0.2-0.9,0.4-1.6,0.7-2.4c-1.2-0.3-2.4-0.6-3.7-0.7c-1.6,1.9-3.1,3.9-4.7,5.8c0.6,0.9,1.1,1.7,1.7,2.6
		c-0.3,0.6-0.5,1.2-0.8,1.9c-0.6-0.6-0.5-1.3-0.8-2c-0.3-0.7-0.4-1.4-0.6-2.1c-0.2,0-0.4,0.1-0.5,0.2c-3,4.4-5,9.5-5.9,15
		c0.5,0.3,1,0.7,1.6,1.1c-0.3,0.1-0.5,0.2-0.7,0.2c-0.4,0-0.7,0-1.1,0c-0.1,0.6-0.1,1.2-0.2,1.8c0.1,0,0.3,0,0.4,0
		c-0.2,0.3-0.3,0.5-0.5,0.7c0,0.6,0,1.2,0,1.8c0,0.1,0,0.1,0,0.2c1.3,1.8,2.5,3.6,3.9,5.4C214.7,51.6,216.3,50.6,217.3,48.7z
		 M213.5,39.4c0.6,0.8,1.9,3.9,2.1,4.8c-0.8-0.2-1.5-0.3-2.2-0.5c-0.2-1.2-0.4-2.4-0.6-3.7C213,39.9,213.3,39.7,213.5,39.4z"/>
	<path class="st3" d="M214.6,52.8c-0.8,0.1-1.5,0.3-2.2,0.4c-0.2-0.3-0.3-0.6-0.5-0.9c-0.6-1-1.3-2-2-2.9c-0.5-0.6-0.8-1.3-1.2-1.9
		c0.1,4.1,0.9,8.1,2.3,11.8c-0.1-0.3-0.1-0.7-0.2-1C212.1,56.5,213.3,54.7,214.6,52.8z"/>
	<path class="st3" d="M244.3,60.5c-0.3,0.8-0.5,1.5-0.8,2.2c-1-0.6-1.3-1.7-2.3-2.3c-0.4,0.4-0.8,0.7-1,0.9c-0.6,0.1-1,0.1-1.4,0.3
		c-1.4,0.8-2.8,1.6-4.2,2.4c0,0.9,0,1.7,0,2.5c0,0.8-0.1,1.7,0.1,2.6c1.6-0.6,3.1-1.2,4.7-1.8c1.2,1.4,2.3,2.8,3.4,4.1
		c0.7,0,1.3,0,2,0c0.3-0.6,0.6-1.2,0.9-1.8v-6.1c0,0,0,0,0,0C245.2,62.6,244.8,61.6,244.3,60.5z"/>
	<path class="st3" d="M244.8,57.8c-1-0.3-2-0.5-3-0.8c-0.2-0.1-0.4,0-0.7,0c0,0,0,0.1-0.1,0.1c1.2,0.9,2.3,1.9,3.4,2.7
		c0.4,0,0.8,0,1.2,0v-1.4C245.5,58.1,245.2,57.9,244.8,57.8z"/>
	<path class="st3" d="M235.9,57.8c0.2-0.8,0.4-1.5,0.6-2.1c0.1-0.2,0.2-0.5,0.2-0.7c0.1-0.4,0-0.7-0.5-0.8c-0.8,0.7-1.7,1.3-2.5,2.1
		c0.2,0.5,0.4,0.8,0.6,1.3C234.8,57.7,235.4,57.8,235.9,57.8z"/>
	<path class="st3" d="M214.1,60.6c-0.6,0.5-1.2,1-1.8,1.5c0.1,0.2,0.2,0.4,0.2,0.6c0.3,0.5,0.5,1.1,0.8,1.6c0.3-0.8,0.6-1.6,0.9-2.4
		C214.5,61.4,214.4,61,214.1,60.6z"/>
	<path class="st3" d="M242.1,40.4c-0.2,0.1-0.4,0.2-0.6,0.3c-0.1,0.7-0.2,1.2-0.4,1.8c-0.6,0.6-1.3,1.2-2,1.9c1.5,0,2.4-0.7,3.2-1.4
		c0-0.8,0-1.5-0.1-2.3C242.3,40.7,242.2,40.6,242.1,40.4z"/>
	<path class="st3" d="M232.9,58.9c1.8,0.4,3.4,0.8,5.1,1.2c0.4-0.3,0.8-0.6,1.2-0.9C237.1,59.2,235.1,58.6,232.9,58.9z"/>
	<path class="st3" d="M229.6,55.3c0.9,1,1.7,2.1,2.7,3.2c0.1-0.5,0.2-0.9,0.3-1.3c-1-0.7-1.9-1.4-2.8-2.1
		C229.7,55.2,229.6,55.2,229.6,55.3z"/>
	<path class="st3" d="M238.6,52.4c-0.4-0.7-0.9-1.4-1.4-2.3c0,0.7,0,1.1,0,1.6c0.4,0.3,0.9,0.5,1.3,0.8
		C238.5,52.5,238.5,52.4,238.6,52.4z"/>
	<path class="st3" d="M241.5,40.4c0.4-0.6,1-0.9,1.2-1.4c-0.4-0.2-0.8-0.3-1.2-0.5C241.5,39.1,241.5,39.7,241.5,40.4z"/>
	<path class="st3" d="M241.2,37.2c0-0.5,0-1,0-1.6c-0.3-0.4-0.6-0.9-0.9-1.3c-0.1,0-0.1,0.1-0.2,0.1c0.3,1,0.6,1.9,1,2.9
		C241.2,37.2,241.2,37.2,241.2,37.2z"/>
	<path class="st3" d="M239,54.7c-0.1-0.5,0.1-0.9-0.2-1.3c-0.4,0.2-0.7,0.4-1.2,0.6C238.2,54.2,238.5,54.4,239,54.7z"/>
	<path class="st3" d="M243.5,74c0.2-0.4,0.5-0.7,0.5-1.2c-0.3,0-0.6,0-0.9,0C243,73.3,242.9,73.8,243.5,74z"/>
	<path class="st3" d="M237.2,58.2c0.3-0.5,0.5-0.8,0.8-1.3c-0.4,0.1-0.6,0.2-0.8,0.2C237.2,57.5,237.2,57.8,237.2,58.2z"/>
</g>
</svg>
