<svg xmlns="http://www.w3.org/2000/svg" width="189" height="168" viewBox="0 0 189 168">
  <g id="Page-1" fill="none" fill-rule="evenodd">
    <g id="illustration-living-transport-backup">
      <g id="Group" fill="#FA701B" fill-rule="nonzero" transform="translate(162 26)">
        <path id="Path" d="M2.8,1.1 C2.6,1 2.4,1 2.3,1 C1.8,1 1.6,1.3 1.6,1.9 L1.6,2.7 L2.6,2.7 L2.6,3.4 L1.6,3.4 L1.6,7.6 L0.8,7.6 L0.8,3.4 L0.1,3.4 L0.1,2.8 L0.8,2.7 L0.8,1.9 C0.8,1.4 0.9,1 1.1,0.7 C1.3,0.4 1.7,0.3 2.2,0.3 C2.4,0.3 2.5,0.3 2.6,0.3 C2.7,0.3 2.9,0.4 3,0.4 L2.8,1.1 Z"/>
        <path id="Shape" d="M3.1 5.2C3.1 4.8 3.2 4.4 3.3 4.1 3.4 3.8 3.6 3.5 3.8 3.3 4 3.1 4.2 2.9 4.5 2.8 4.8 2.7 5.1 2.6 5.4 2.6 5.7 2.6 6 2.7 6.3 2.8 6.6 2.9 6.8 3.1 7 3.3 7.2 3.5 7.4 3.8 7.5 4.1 7.6 4.4 7.7 4.8 7.7 5.2 7.7 5.6 7.6 6 7.5 6.3 7.4 6.6 7.2 6.9 7 7.1 6.8 7.3 6.6 7.5 6.3 7.6 6 7.7 5.7 7.8 5.4 7.8 5.1 7.8 4.8 7.7 4.5 7.6 4.2 7.5 4 7.3 3.8 7.1 3.6 6.9 3.4 6.6 3.3 6.3 3.2 6 3.1 5.6 3.1 5.2zM3.9 5.2C3.9 5.5 3.9 5.7 4 6 4.1 6.2 4.2 6.4 4.3 6.6 4.4 6.8 4.6 6.9 4.7 7 4.9 7.1 5.1 7.1 5.3 7.1 5.5 7.1 5.7 7.1 5.9 7 6.1 6.9 6.2 6.8 6.3 6.6 6.4 6.4 6.5 6.2 6.6 6 6.7 5.8 6.7 5.5 6.7 5.2 6.7 4.9 6.7 4.7 6.6 4.4 6.5 4.2 6.4 4 6.3 3.8 6.2 3.6 6 3.5 5.9 3.4 5.7 3.3 5.5 3.3 5.3 3.3 5.1 3.3 4.9 3.3 4.7 3.4 4.5 3.5 4.4 3.6 4.3 3.8 4.2 4 4.1 4.2 4 4.4 4 4.6 3.9 4.9 3.9 5.2zM8.5 5.2C8.5 4.8 8.6 4.4 8.7 4.1 8.8 3.8 9 3.5 9.2 3.3 9.4 3.1 9.6 2.9 9.9 2.8 10.2 2.7 10.5 2.6 10.8 2.6 11.1 2.6 11.4 2.7 11.7 2.8 12 2.9 12.2 3.1 12.4 3.3 12.6 3.5 12.8 3.8 12.9 4.1 13 4.4 13.1 4.8 13.1 5.2 13.1 5.6 13 6 12.9 6.3 12.8 6.6 12.6 6.9 12.4 7.1 12.2 7.3 12 7.5 11.7 7.6 11.4 7.7 11.1 7.8 10.8 7.8 10.5 7.8 10.2 7.7 9.9 7.6 9.6 7.5 9.4 7.3 9.2 7.1 9 6.9 8.8 6.6 8.7 6.3 8.6 6 8.5 5.6 8.5 5.2zM9.3 5.2C9.3 5.5 9.3 5.7 9.4 6 9.5 6.2 9.6 6.4 9.7 6.6 9.8 6.8 10 6.9 10.1 7 10.3 7.1 10.5 7.1 10.7 7.1 10.9 7.1 11.1 7.1 11.3 7 11.5 6.9 11.6 6.8 11.7 6.6 11.8 6.4 11.9 6.2 12 6 12.1 5.8 12.1 5.5 12.1 5.2 12.1 4.9 12.1 4.7 12 4.4 11.9 4.2 11.8 4 11.7 3.8 11.6 3.6 11.4 3.5 11.3 3.4 11.1 3.3 10.9 3.3 10.7 3.3 10.5 3.3 10.3 3.3 10.1 3.4 9.9 3.5 9.8 3.6 9.7 3.8 9.6 4 9.5 4.2 9.4 4.4 9.4 4.6 9.3 4.9 9.3 5.2zM13.9 5.2C13.9 4.8 14 4.5 14.1 4.1 14.2 3.8 14.4 3.5 14.6 3.3 14.8 3.1 15 2.9 15.3 2.8 15.6 2.7 15.8 2.6 16.1 2.6 16.4 2.6 16.6 2.7 16.8 2.8 17 2.9 17.2 3 17.4 3.2L17.4 2.4 17.4.5 18.2.5 18.2 7.6 17.5 7.6 17.4 7 17.4 7C17.2 7.2 17 7.3 16.7 7.5 16.4 7.7 16.2 7.7 15.9 7.7 15.3 7.7 14.8 7.5 14.4 7 14 6.5 13.9 6 13.9 5.2zM14.8 5.2C14.8 5.8 14.9 6.2 15.2 6.6 15.4 6.9 15.8 7.1 16.2 7.1 16.4 7.1 16.6 7 16.8 6.9 17 6.8 17.2 6.6 17.4 6.4L17.4 3.9C17.2 3.7 17 3.6 16.8 3.5 16.6 3.4 16.4 3.4 16.2 3.4 16 3.4 15.8 3.4 15.7 3.5 15.6 3.6 15.4 3.7 15.3 3.9 15.2 4.1 15.1 4.3 15 4.5 14.8 4.6 14.8 4.9 14.8 5.2z"/>
      </g>
      <g id="Group" fill="#FA701B" fill-rule="nonzero" transform="translate(153 157)">
        <path id="Path" d="M0.7,0.8 L1.5,0.8 L1.5,7 C1.5,7.1 1.5,7.2 1.6,7.3 C1.6,7.4 1.7,7.4 1.8,7.4 L1.9,7.4 L2,7.4 L2.1,8 C2,8 2,8 1.9,8.1 C1.8,8.1 1.7,8.1 1.6,8.1 C1.3,8.1 1.1,8 0.9,7.8 C0.8,7.6 0.7,7.3 0.7,7 L0.7,0.8 Z"/>
        <path id="Shape" d="M3.7,2.1 C3.5,2.1 3.4,2.1 3.3,2 C3.2,1.9 3.1,1.8 3.1,1.6 C3.1,1.4 3.2,1.3 3.3,1.2 C3.4,1.1 3.5,1.1 3.7,1.1 C3.9,1.1 4,1.1 4.1,1.2 C4.2,1.3 4.3,1.4 4.3,1.6 C4.3,1.8 4.2,1.9 4.1,2 C4,2.1 3.8,2.1 3.7,2.1 Z M3.2,3.1 L4,3.1 L4,8 L3.2,8 L3.2,3.1 Z"/>
        <path id="Path" d="M5,3.1 L5.9,3.1 L6.8,5.9 C6.9,6.1 6.9,6.4 7,6.6 C7.1,6.8 7.2,7.1 7.2,7.3 L7.2,7.3 C7.3,7.1 7.3,6.8 7.4,6.6 C7.5,6.4 7.5,6.1 7.6,5.9 L8.5,3.1 L9.3,3.1 L7.6,8 L6.6,8 L5,3.1 Z"/>
        <path id="Shape" d="M10.8,2.1 C10.6,2.1 10.5,2.1 10.4,2 C10.3,1.9 10.2,1.8 10.2,1.6 C10.2,1.4 10.3,1.3 10.4,1.2 C10.5,1.1 10.6,1.1 10.8,1.1 C11,1.1 11.1,1.1 11.2,1.2 C11.3,1.3 11.4,1.4 11.4,1.6 C11.4,1.8 11.3,1.9 11.2,2 C11.1,2.1 11,2.1 10.8,2.1 Z M10.4,3.1 L11.2,3.1 L11.2,8 L10.4,8 L10.4,3.1 Z"/>
        <path id="Path" d="M12.8,3.1 L13.5,3.1 L13.6,3.8 L13.6,3.8 C13.8,3.6 14.1,3.4 14.3,3.2 C14.6,3 14.9,3 15.2,3 C15.7,3 16.1,3.2 16.3,3.5 C16.5,3.8 16.7,4.3 16.7,4.9 L16.7,8 L15.9,8 L15.9,5 C15.9,4.5 15.8,4.2 15.7,4 C15.6,3.8 15.3,3.7 15,3.7 C14.7,3.7 14.5,3.8 14.3,3.9 C14.1,4 13.9,4.2 13.6,4.5 L13.6,8 L12.8,8 L12.8,3.1 Z"/>
        <path id="Shape" d="M17.9,8.9 C17.9,8.7 18,8.5 18.1,8.3 C18.2,8.1 18.4,7.9 18.6,7.8 L18.6,7.8 C18.5,7.7 18.4,7.6 18.3,7.5 C18.2,7.4 18.2,7.2 18.2,7 C18.2,6.8 18.3,6.6 18.4,6.5 C18.5,6.4 18.6,6.2 18.8,6.1 L18.8,6.1 C18.6,6 18.5,5.8 18.4,5.6 C18.3,5.4 18.2,5.1 18.2,4.8 C18.2,4.5 18.2,4.3 18.3,4.1 C18.4,3.9 18.5,3.7 18.7,3.6 C18.9,3.4 19.1,3.3 19.3,3.3 C19.5,3.2 19.8,3.2 20,3.2 C20.1,3.2 20.3,3.2 20.4,3.2 C20.5,3.2 20.6,3.3 20.7,3.3 L22.4,3.3 L22.4,3.9 L21.4,3.9 C21.5,4 21.6,4.2 21.7,4.3 C21.8,4.5 21.8,4.7 21.8,4.9 C21.8,5.2 21.8,5.4 21.7,5.6 C21.6,5.8 21.5,6 21.3,6.1 C21.1,6.2 21,6.4 20.7,6.4 C20.4,6.4 20.3,6.5 20,6.5 C19.9,6.5 19.8,6.5 19.6,6.5 C19.5,6.5 19.4,6.4 19.2,6.4 C19.1,6.5 19,6.6 19,6.6 C18.9,6.7 18.9,6.8 18.9,6.9 C18.9,7.1 19,7.2 19.1,7.3 C19.2,7.4 19.4,7.5 19.8,7.5 L20.7,7.5 C21.3,7.5 21.7,7.6 22,7.8 C22.3,8 22.4,8.3 22.4,8.7 C22.4,8.9 22.3,9.1 22.2,9.3 C22.1,9.5 21.9,9.7 21.7,9.8 C21.5,10 21.2,10.1 20.9,10.2 C20.6,10.3 20.3,10.3 19.9,10.3 C19.6,10.3 19.3,10.3 19.1,10.2 C18.9,10.1 18.6,10.1 18.5,9.9 C18.3,9.8 18.2,9.7 18.1,9.5 C18,9.3 17.9,9.1 17.9,8.9 Z M18.7,8.8 C18.7,9.1 18.8,9.3 19.1,9.4 C19.3,9.6 19.7,9.6 20.1,9.6 C20.3,9.6 20.5,9.6 20.7,9.5 C20.9,9.4 21.1,9.4 21.2,9.3 C21.3,9.2 21.4,9.1 21.5,9 C21.6,8.9 21.6,8.8 21.6,8.6 C21.6,8.4 21.5,8.2 21.4,8.1 C21.3,8 21,8 20.7,8 L19.8,8 C19.7,8 19.6,8 19.5,8 C19.4,8 19.3,8 19.2,7.9 C19,8 18.9,8.2 18.8,8.3 C18.7,8.5 18.7,8.6 18.7,8.8 Z M19.9,5.9 C20,5.9 20.2,5.9 20.3,5.8 C20.4,5.7 20.5,5.7 20.6,5.6 C20.7,5.5 20.8,5.4 20.8,5.2 C20.8,5 20.9,4.9 20.9,4.7 C20.9,4.3 20.8,4.1 20.6,3.9 C20.4,3.7 20.2,3.6 19.9,3.6 C19.6,3.6 19.4,3.7 19.2,3.9 C19,4.1 18.9,4.4 18.9,4.7 C18.9,4.9 18.9,5 19,5.2 C19.1,5.3 19.1,5.5 19.2,5.6 C19.3,5.7 19.4,5.8 19.5,5.8 C19.7,5.9 19.8,5.9 19.9,5.9 Z"/>
      </g>
      <g id="Group" fill="#FA701B" fill-rule="nonzero" transform="translate(7 157)">
        <path id="Path" d="M.7 3.8L0 3.8 0 3.2.8 3.1.9 1.7 1.6 1.7 1.6 3.1 2.9 3.1 2.9 3.8 1.6 3.8 1.6 6.5C1.6 6.8 1.7 7 1.8 7.2 1.9 7.4 2.1 7.4 2.4 7.4 2.5 7.4 2.6 7.4 2.7 7.4 2.8 7.4 2.9 7.3 3 7.3L3.2 7.9C3.1 7.9 2.9 8 2.8 8 2.6 8 2.5 8.1 2.3 8.1 2 8.1 1.8 8.1 1.6 8 1.4 7.9 1.3 7.8 1.2 7.7 1.1 7.6 1 7.4 1 7.2 1 7 .9 6.8.9 6.5L.9 3.8.7 3.8.7 3.8zM4 3.1L4.7 3.1 4.8 4 4.8 4C5 3.7 5.2 3.5 5.4 3.3 5.6 3.1 5.9 3 6.2 3 6.4 3 6.6 3 6.7 3.1L6.5 3.8C6.4 3.8 6.3 3.8 6.3 3.7 6.2 3.7 6.2 3.7 6.1 3.7 5.9 3.7 5.7 3.8 5.5 3.9 5.3 4.1 5.1 4.4 4.9 4.8L4.9 7.9 4.1 7.9 4.1 3.1 4 3.1 4 3.1z"/>
        <path id="Shape" d="M7,6.7 C7,6.2 7.2,5.8 7.7,5.5 C8.2,5.2 8.9,5 10,4.9 C10,4.7 10,4.6 10,4.4 C10,4.3 9.9,4.1 9.8,4 C9.7,3.9 9.6,3.8 9.5,3.7 C9.4,3.6 9.2,3.6 9,3.6 C8.7,3.6 8.4,3.7 8.2,3.8 C8,3.9 7.7,4 7.5,4.2 L7.2,3.6 C7.4,3.5 7.7,3.3 8,3.2 C8.3,3.1 8.7,3 9.1,3 C9.7,3 10.1,3.2 10.4,3.5 C10.7,3.9 10.8,4.3 10.8,5 L10.8,8 L10.1,8 L10,7.4 L10,7.4 C9.8,7.6 9.5,7.8 9.2,7.9 C8.9,8 8.6,8.1 8.3,8.1 C7.9,8.1 7.5,8 7.3,7.7 C7.1,7.4 7,7.1 7,6.7 Z M7.8,6.6 C7.8,6.9 7.9,7.1 8,7.2 C8.2,7.3 8.4,7.4 8.6,7.4 C8.8,7.4 9.1,7.3 9.3,7.2 C9.5,7.1 9.7,6.9 10,6.7 L10,5.4 C9.6,5.5 9.2,5.5 9,5.6 C8.7,5.7 8.5,5.8 8.3,5.9 C8.1,6 8,6.1 7.9,6.2 C7.8,6.3 7.8,6.5 7.8,6.6 Z"/>
        <path id="Path" d="M17.4,1.5 C17.2,1.4 17,1.4 16.9,1.4 C16.4,1.4 16.2,1.7 16.2,2.3 L16.2,3.1 L17.2,3.1 L17.2,3.8 L16.2,3.8 L16.2,8 L15.4,8 L15.4,3.8 L13.4,3.8 L13.4,8 L12.6,8 L12.6,3.8 L11.8,3.8 L11.8,3.2 L12.5,3.1 L12.5,2.5 C12.5,2 12.6,1.6 12.9,1.3 C13.1,1 13.5,0.9 14,0.9 C14.2,0.9 14.3,0.9 14.5,0.9 C14.7,0.9 14.8,1 14.9,1 L14.7,1.6 C14.5,1.5 14.3,1.5 14.1,1.5 C13.9,1.5 13.7,1.6 13.5,1.8 C13.3,2 13.3,2.2 13.3,2.5 L13.3,3.1 L15.3,3.1 L15.3,2.3 C15.3,1.8 15.4,1.4 15.6,1.1 C15.8,0.8 16.2,0.7 16.7,0.7 C16.9,0.7 17,0.7 17.1,0.7 C17.2,0.7 17.4,0.8 17.5,0.8 L17.4,1.5 Z"/>
        <path id="Shape" d="M18.5,2.1 C18.3,2.1 18.2,2.1 18.1,2 C18,1.9 17.9,1.8 17.9,1.6 C17.9,1.4 18,1.3 18.1,1.2 C18.2,1.1 18.3,1.1 18.5,1.1 C18.7,1.1 18.8,1.1 18.9,1.2 C19,1.3 19.1,1.4 19.1,1.6 C19.1,1.8 19,1.9 18.9,2 C18.8,2.1 18.6,2.1 18.5,2.1 Z M18.1,3.1 L18.9,3.1 L18.9,8 L18.1,8 L18.1,3.1 Z"/>
        <path id="Path" d="M20.2,5.5 C20.2,5.1 20.3,4.7 20.4,4.4 C20.5,4.1 20.7,3.8 20.9,3.6 C21.1,3.4 21.4,3.2 21.6,3.1 C21.9,3 22.2,2.9 22.5,2.9 C22.8,2.9 23.1,3 23.3,3.1 C23.5,3.2 23.7,3.4 23.9,3.5 L23.5,4 C23.4,3.9 23.2,3.8 23,3.7 C22.8,3.6 22.7,3.6 22.5,3.6 C22.3,3.6 22.1,3.6 21.9,3.7 C21.7,3.8 21.6,3.9 21.4,4.1 C21.3,4.3 21.2,4.5 21.1,4.7 C21,4.9 21,5.2 21,5.5 C21,5.8 21,6 21.1,6.3 C21.2,6.6 21.3,6.7 21.4,6.9 C21.5,7.1 21.7,7.2 21.9,7.3 C22.1,7.4 22.3,7.4 22.5,7.4 C22.7,7.4 22.9,7.4 23.1,7.3 C23.3,7.2 23.5,7.1 23.6,7 L24,7.5 C23.8,7.7 23.5,7.8 23.3,8 C23.1,8.2 22.7,8.2 22.5,8.2 C22.2,8.2 21.9,8.1 21.6,8 C21.3,7.9 21.1,7.7 20.9,7.5 C20.7,7.3 20.5,7 20.4,6.7 C20.3,6.4 20.2,5.9 20.2,5.5 Z"/>
      </g>
      <path id="Shape" fill="#105D73" fill-rule="nonzero" d="M89.9,153.5 C51.2,153.5 19.7,122 19.7,83.3 C19.7,44.6 51.2,13.1 89.9,13.1 C128.6,13.1 160.1,44.6 160.1,83.3 C160.1,122 128.6,153.5 89.9,153.5 Z M89.9,14.1 C51.7,14.1 20.7,45.1 20.7,83.3 C20.7,121.5 51.7,152.5 89.9,152.5 C128.1,152.5 159.1,121.5 159.1,83.3 C159.1,45.1 128.1,14.1 89.9,14.1 Z"/>
      <g id="Group" fill="#105D73" fill-rule="nonzero" transform="translate(70 71)">
        <path id="Path" d="M15.4,14.2 C15.2,16.2 14.4,17.8 13.2,18.9 C12,20 10.3,20.5 8.2,20.5 C6.8,20.5 5.5,20.1 4.4,19.4 C3.3,18.7 2.4,17.7 1.8,16.3 C1.2,15 0.9,13.5 0.9,11.8 L0.9,9.3 C0.9,7.6 1.2,6 1.8,4.7 C2.4,3.4 3.3,2.3 4.4,1.6 C5.5,0.9 6.8,0.5 8.3,0.5 C10.4,0.5 12,1.1 13.2,2.2 C14.4,3.3 15.1,4.9 15.3,6.9 L13.8,6.9 C13.4,3.6 11.6,1.9 8.4,1.9 C6.6,1.9 5.2,2.6 4.2,3.9 C3.2,5.2 2.6,7 2.6,9.4 L2.6,11.8 C2.6,14 3.1,15.8 4.1,17.2 C5.1,18.5 6.5,19.2 8.2,19.2 C9.9,19.2 11.2,18.8 12.1,18 C13,17.2 13.5,15.9 13.7,14.3 L15.4,14.2 L15.4,14.2 Z"/>
        <path id="Shape" d="M33.8,11.6 C33.8,13.4 33.5,15 32.9,16.3 C32.3,17.7 31.4,18.7 30.3,19.4 C29.2,20.1 27.8,20.5 26.3,20.5 C24,20.5 22.2,19.7 20.8,18.1 C19.4,16.5 18.7,14.3 18.7,11.5 L18.7,9.5 C18.7,7.7 19,6.2 19.6,4.8 C20.2,3.4 21.1,2.4 22.3,1.6 C23.5,0.8 24.8,0.5 26.3,0.5 C27.8,0.5 29.1,0.9 30.3,1.6 C31.4,2.3 32.3,3.3 32.9,4.7 C33.5,6.1 33.8,7.5 33.9,9.3 L33.8,11.6 L33.8,11.6 Z M32.2,9.5 C32.2,7.2 31.7,5.3 30.6,4 C29.5,2.7 28.1,2 26.2,2 C24.4,2 23,2.7 21.9,4 C20.8,5.3 20.3,7.2 20.3,9.6 L20.3,11.6 C20.3,13.9 20.8,15.7 21.9,17.1 C23,18.4 24.4,19.1 26.3,19.1 C28.2,19.1 29.6,18.4 30.7,17.1 C31.7,15.8 32.3,13.9 32.3,11.5 L32.2,9.5 L32.2,9.5 Z"/>
        <path id="Path" d="M43.6,29.3 L36.5,29.3 L36.5,28.6 L40.4,24.2 C41,23.5 41.5,22.8 41.7,22.4 C41.9,22 42.1,21.4 42.1,21 C42.1,20.3 41.9,19.7 41.5,19.3 C41.1,18.9 40.5,18.7 39.8,18.7 C39,18.7 38.4,18.9 38,19.4 C37.5,19.9 37.3,20.5 37.3,21.3 L36.4,21.3 C36.4,20.7 36.5,20.1 36.8,19.6 C37.1,19.1 37.5,18.7 38,18.4 C38.5,18.1 39.1,18 39.8,18 C40.8,18 41.6,18.3 42.2,18.8 C42.8,19.3 43.1,20.1 43.1,21 C43.1,21.5 42.9,22.1 42.6,22.7 C42.3,23.3 41.7,24.1 40.9,25.1 L37.7,28.7 L43.7,28.7 L43.7,29.3 L43.6,29.3 L43.6,29.3 Z"/>
      </g>
      <g id="Group" fill="#FA701B" fill-rule="nonzero" transform="translate(0 20)">
        <path id="Shape" d="M0.6,5.1 C0.6,4.7 0.7,4.3 0.8,4 C0.9,3.7 1.1,3.4 1.3,3.2 C1.5,3 1.7,2.8 2,2.7 C2.3,2.6 2.6,2.5 2.9,2.5 C3.2,2.5 3.5,2.6 3.8,2.7 C4.1,2.8 4.3,3 4.5,3.2 C4.7,3.4 4.9,3.7 5,4 C5.1,4.3 5.2,4.7 5.2,5.1 C5.2,5.5 5.1,5.9 5,6.2 C4.9,6.5 4.7,6.8 4.5,7 C4.3,7.2 4.1,7.4 3.8,7.5 C3.5,7.6 3.2,7.7 2.9,7.7 C2.6,7.7 2.3,7.6 2,7.5 C1.7,7.4 1.5,7.2 1.3,7 C1.1,6.8 0.9,6.5 0.8,6.2 C0.7,5.9 0.6,5.5 0.6,5.1 Z M1.5,5.1 C1.5,5.4 1.5,5.6 1.6,5.9 C1.7,6.1 1.8,6.3 1.9,6.5 C2,6.7 2.2,6.8 2.3,6.9 C2.4,7 2.7,7 2.9,7 C3.1,7 3.3,7 3.5,6.9 C3.7,6.8 3.8,6.7 3.9,6.5 C4,6.3 4.1,6.1 4.2,5.9 C4.3,5.7 4.3,5.4 4.3,5.1 C4.3,4.8 4.3,4.6 4.2,4.3 C4.1,4.1 4,3.9 3.9,3.7 C3.8,3.5 3.6,3.4 3.5,3.3 C3.4,3.2 3.1,3.2 2.9,3.2 C2.7,3.2 2.5,3.2 2.3,3.3 C2.1,3.4 2,3.5 1.9,3.7 C1.8,3.9 1.7,4.1 1.6,4.3 C1.5,4.6 1.5,4.8 1.5,5.1 Z"/>
        <path id="Path" d="M6.5 3.3L5.8 3.3 5.8 2.7 6.6 2.6 6.7 1.2 7.4 1.2 7.4 2.6 8.7 2.6 8.7 3.3 7.4 3.3 7.4 6C7.4 6.3 7.5 6.5 7.6 6.7 7.7 6.9 7.9 6.9 8.2 6.9 8.3 6.9 8.4 6.9 8.5 6.9 8.6 6.9 8.7 6.8 8.8 6.8L9 7.4C8.9 7.4 8.7 7.5 8.6 7.5 8.4 7.5 8.3 7.6 8.1 7.6 7.8 7.6 7.6 7.6 7.4 7.5 7.2 7.4 7.1 7.3 7 7.2 6.9 7.1 6.8 6.9 6.8 6.7 6.8 6.5 6.7 6.3 6.7 6L6.7 3.3 6.5 3.3 6.5 3.3zM9.8.4L10.6.4 10.6 2.3 10.6 3.3C10.8 3.1 11.1 2.9 11.3 2.7 11.6 2.5 11.9 2.5 12.2 2.5 12.7 2.5 13.1 2.7 13.3 3 13.5 3.3 13.7 3.8 13.7 4.4L13.7 7.5 12.9 7.5 12.9 4.5C12.9 4 12.8 3.7 12.7 3.5 12.6 3.3 12.3 3.2 12 3.2 11.7 3.2 11.5 3.3 11.3 3.4 11.1 3.5 10.9 3.7 10.6 4L10.6 7.5 9.8 7.5 9.8.4z"/>
        <path id="Shape" d="M14.9,5.1 C14.9,4.7 15,4.3 15.1,4 C15.2,3.7 15.4,3.4 15.6,3.2 C15.8,3 16,2.8 16.3,2.7 C16.6,2.6 16.8,2.5 17.1,2.5 C17.4,2.5 17.7,2.6 17.9,2.7 C18.1,2.8 18.3,3 18.5,3.2 C18.7,3.4 18.8,3.6 18.9,3.9 C19,4.2 19,4.5 19,4.8 C19,5 19,5.1 19,5.3 L15.7,5.3 C15.7,5.8 15.9,6.2 16.2,6.5 C16.5,6.8 16.9,7 17.3,7 C17.5,7 17.7,7 17.9,6.9 C18.1,6.8 18.3,6.7 18.5,6.6 L18.8,7.1 C18.6,7.2 18.3,7.3 18.1,7.4 C17.8,7.5 17.5,7.6 17.2,7.6 C16.9,7.6 16.6,7.5 16.3,7.4 C16,7.3 15.8,7.1 15.6,6.9 C15.4,6.7 15.2,6.4 15.1,6.1 C14.9,5.9 14.9,5.5 14.9,5.1 Z M18.3,4.7 C18.3,4.2 18.2,3.8 18,3.6 C17.8,3.3 17.5,3.2 17.1,3.2 C16.9,3.2 16.8,3.2 16.6,3.3 C16.4,3.4 16.3,3.5 16.2,3.6 C16.1,3.7 16,3.9 15.9,4.1 C15.8,4.3 15.8,4.5 15.7,4.8 L18.3,4.8 L18.3,4.7 L18.3,4.7 Z"/>
        <path id="Path" d="M20.2,2.7 L20.9,2.7 L21,3.6 L21,3.6 C21.2,3.3 21.4,3.1 21.6,2.9 C21.8,2.7 22.1,2.6 22.4,2.6 C22.6,2.6 22.8,2.6 22.9,2.7 L22.7,3.4 C22.6,3.4 22.5,3.4 22.5,3.3 C22.4,3.3 22.4,3.3 22.3,3.3 C22.1,3.3 21.9,3.4 21.7,3.5 C21.5,3.7 21.3,4 21.1,4.4 L21.1,7.5 L20.3,7.5 L20.2,2.7 L20.2,2.7 Z"/>
      </g>
      <path id="Path" fill="#105D73" fill-rule="nonzero" d="M89.9,0.6 L89.9,83.3 L89.9,83.4 L166.9,113.4 C167.3,112.5 167.7,111.1 168.1,110.2 C171,101.8 172.6,92.8 172.6,83.4 C172.6,37.6 135.6,0.6 89.9,0.6 Z" opacity=".3"/>
      <path id="Path" fill="#105D73" fill-rule="nonzero" d="M154.6,108.5 L89.9,83.3 L89.9,83.2 L89.7,83.3 L68,149.4 C74.6,151.6 81.8,152.9 89.7,152.9 C89.7,152.9 89.7,152.9 89.7,152.9 C119.3,151.4 141.9,138.3 154.6,108.5 Z" opacity=".2"/>
      <path id="Path" fill="#105D73" fill-rule="nonzero" d="M89.1,83.5 L89.2,83.3 L20.8,92.9 L21.2,96.1 L23.5,104.8 C29.1,121.3 44.1,141.4 67.9,149.4 L89.6,83.3 L89.1,83.5 Z" opacity=".1"/>
      <g id="Group" fill="#FA701B" font-family="Helvetica" font-size="14.486" transform="translate(158.554 8.158)">
        <text id="3">
          <tspan x="0" y="14">3</tspan>
        </text>
        <text id="0%">
          <tspan x="8.6" y="14">0%</tspan>
        </text>
      </g>
      <text id="24%" fill="#FA701B" font-family="Helvetica" font-size="14.486">
        <tspan x="149.22" y="154.063">24%</tspan>
      </text>
      <g id="Group" fill="#FA701B" font-family="Helvetica" font-size="14.486" transform="translate(4.387 139.48)">
        <text id="1">
          <tspan x="0" y="14">1</tspan>
        </text>
        <text id="8%">
          <tspan x="6.3" y="14">8%</tspan>
        </text>
      </g>
    </g>
  </g>
</svg>
