<?xml version="1.0" encoding="UTF-8" standalone="no"?>
<!DOCTYPE svg PUBLIC "-//W3C//DTD SVG 1.1//EN" "http://www.w3.org/Graphics/SVG/1.1/DTD/svg11.dtd">
<svg  width="189" height="168" viewBox="0 0 189 168" version="1.1" xmlns="http://www.w3.org/2000/svg" xmlns:xlink="http://www.w3.org/1999/xlink" xml:space="preserve" xmlns:serif="http://www.serif.com/" style="fill-rule:evenodd;clip-rule:evenodd;stroke-linejoin:round;stroke-miterlimit:2;">
    <g id="Page-1">
        <g id="illustration-living-transport-backup">
            <g id="Group" transform="matrix(1,0,0,1,162,26)">
                <path id="Path" d="M2.8,1.1C2.6,1 2.4,1 2.3,1C1.8,1 1.6,1.3 1.6,1.9L1.6,2.7L2.6,2.7L2.6,3.4L1.6,3.4L1.6,7.6L0.8,7.6L0.8,3.4L0.1,3.4L0.1,2.8L0.8,2.7L0.8,1.9C0.8,1.4 0.9,1 1.1,0.7C1.3,0.4 1.7,0.3 2.2,0.3L2.6,0.3C2.7,0.3 2.9,0.4 3,0.4L2.8,1.1Z" style="fill:rgb(250,112,27);fill-rule:nonzero;"/>
                <path id="Shape" d="M3.1,5.2C3.1,4.8 3.2,4.4 3.3,4.1C3.4,3.8 3.6,3.5 3.8,3.3C4,3.1 4.2,2.9 4.5,2.8C4.8,2.7 5.1,2.6 5.4,2.6C5.7,2.6 6,2.7 6.3,2.8C6.6,2.9 6.8,3.1 7,3.3C7.2,3.5 7.4,3.8 7.5,4.1C7.6,4.4 7.7,4.8 7.7,5.2C7.7,5.6 7.6,6 7.5,6.3C7.4,6.6 7.2,6.9 7,7.1C6.8,7.3 6.6,7.5 6.3,7.6C6,7.7 5.7,7.8 5.4,7.8C5.1,7.8 4.8,7.7 4.5,7.6C4.2,7.5 4,7.3 3.8,7.1C3.6,6.9 3.4,6.6 3.3,6.3C3.2,6 3.1,5.6 3.1,5.2ZM3.9,5.2C3.9,5.5 3.9,5.7 4,6C4.1,6.2 4.2,6.4 4.3,6.6C4.4,6.8 4.6,6.9 4.7,7C4.9,7.1 5.1,7.1 5.3,7.1C5.5,7.1 5.7,7.1 5.9,7C6.1,6.9 6.2,6.8 6.3,6.6C6.4,6.4 6.5,6.2 6.6,6C6.7,5.8 6.7,5.5 6.7,5.2C6.7,4.9 6.7,4.7 6.6,4.4C6.5,4.2 6.4,4 6.3,3.8C6.2,3.6 6,3.5 5.9,3.4C5.7,3.3 5.5,3.3 5.3,3.3C5.1,3.3 4.9,3.3 4.7,3.4C4.5,3.5 4.4,3.6 4.3,3.8C4.2,4 4.1,4.2 4,4.4C4,4.6 3.9,4.9 3.9,5.2ZM8.5,5.2C8.5,4.8 8.6,4.4 8.7,4.1C8.8,3.8 9,3.5 9.2,3.3C9.4,3.1 9.6,2.9 9.9,2.8C10.2,2.7 10.5,2.6 10.8,2.6C11.1,2.6 11.4,2.7 11.7,2.8C12,2.9 12.2,3.1 12.4,3.3C12.6,3.5 12.8,3.8 12.9,4.1C13,4.4 13.1,4.8 13.1,5.2C13.1,5.6 13,6 12.9,6.3C12.8,6.6 12.6,6.9 12.4,7.1C12.2,7.3 12,7.5 11.7,7.6C11.4,7.7 11.1,7.8 10.8,7.8C10.5,7.8 10.2,7.7 9.9,7.6C9.6,7.5 9.4,7.3 9.2,7.1C9,6.9 8.8,6.6 8.7,6.3C8.6,6 8.5,5.6 8.5,5.2ZM9.3,5.2C9.3,5.5 9.3,5.7 9.4,6C9.5,6.2 9.6,6.4 9.7,6.6C9.8,6.8 10,6.9 10.1,7C10.3,7.1 10.5,7.1 10.7,7.1C10.9,7.1 11.1,7.1 11.3,7C11.5,6.9 11.6,6.8 11.7,6.6C11.8,6.4 11.9,6.2 12,6C12.1,5.8 12.1,5.5 12.1,5.2C12.1,4.9 12.1,4.7 12,4.4C11.9,4.2 11.8,4 11.7,3.8C11.6,3.6 11.4,3.5 11.3,3.4C11.1,3.3 10.9,3.3 10.7,3.3C10.5,3.3 10.3,3.3 10.1,3.4C9.9,3.5 9.8,3.6 9.7,3.8C9.6,4 9.5,4.2 9.4,4.4C9.4,4.6 9.3,4.9 9.3,5.2ZM13.9,5.2C13.9,4.8 14,4.5 14.1,4.1C14.2,3.8 14.4,3.5 14.6,3.3C14.8,3.1 15,2.9 15.3,2.8C15.6,2.7 15.8,2.6 16.1,2.6C16.4,2.6 16.6,2.7 16.8,2.8C17,2.9 17.2,3 17.4,3.2L17.4,0.5L18.2,0.5L18.2,7.6L17.5,7.6L17.4,7C17.2,7.2 17,7.3 16.7,7.5C16.4,7.7 16.2,7.7 15.9,7.7C15.3,7.7 14.8,7.5 14.4,7C14,6.5 13.9,6 13.9,5.2ZM14.8,5.2C14.8,5.8 14.9,6.2 15.2,6.6C15.4,6.9 15.8,7.1 16.2,7.1C16.4,7.1 16.6,7 16.8,6.9C17,6.8 17.2,6.6 17.4,6.4L17.4,3.9C17.2,3.7 17,3.6 16.8,3.5C16.6,3.4 16.4,3.4 16.2,3.4C16,3.4 15.8,3.4 15.7,3.5C15.6,3.6 15.4,3.7 15.3,3.9C15.2,4.1 15.1,4.3 15,4.5C14.8,4.6 14.8,4.9 14.8,5.2Z" style="fill:rgb(250,112,27);fill-rule:nonzero;"/>
            </g>
            <g id="Group1" serif:id="Group" transform="matrix(1,0,0,1,153,157)">
                <path id="Path1" serif:id="Path" d="M0.7,0.8L1.5,0.8L1.5,7C1.5,7.1 1.5,7.2 1.6,7.3C1.6,7.4 1.7,7.4 1.8,7.4L2,7.4L2.1,8C2,8 2,8 1.9,8.1L1.6,8.1C1.3,8.1 1.1,8 0.9,7.8C0.8,7.6 0.7,7.3 0.7,7L0.7,0.8Z" style="fill:rgb(250,112,27);fill-rule:nonzero;"/>
                <path id="Shape1" serif:id="Shape" d="M3.7,2.1C3.5,2.1 3.4,2.1 3.3,2C3.2,1.9 3.1,1.8 3.1,1.6C3.1,1.4 3.2,1.3 3.3,1.2C3.4,1.1 3.5,1.1 3.7,1.1C3.9,1.1 4,1.1 4.1,1.2C4.2,1.3 4.3,1.4 4.3,1.6C4.3,1.8 4.2,1.9 4.1,2C4,2.1 3.8,2.1 3.7,2.1ZM3.2,3.1L4,3.1L4,8L3.2,8L3.2,3.1Z" style="fill:rgb(250,112,27);fill-rule:nonzero;"/>
                <path id="Path2" serif:id="Path" d="M5,3.1L5.9,3.1L6.8,5.9C6.9,6.1 6.9,6.4 7,6.6C7.1,6.8 7.2,7.1 7.2,7.3C7.3,7.1 7.3,6.8 7.4,6.6C7.5,6.4 7.5,6.1 7.6,5.9L8.5,3.1L9.3,3.1L7.6,8L6.6,8L5,3.1Z" style="fill:rgb(250,112,27);fill-rule:nonzero;"/>
                <path id="Shape2" serif:id="Shape" d="M10.8,2.1C10.6,2.1 10.5,2.1 10.4,2C10.3,1.9 10.2,1.8 10.2,1.6C10.2,1.4 10.3,1.3 10.4,1.2C10.5,1.1 10.6,1.1 10.8,1.1C11,1.1 11.1,1.1 11.2,1.2C11.3,1.3 11.4,1.4 11.4,1.6C11.4,1.8 11.3,1.9 11.2,2C11.1,2.1 11,2.1 10.8,2.1ZM10.4,3.1L11.2,3.1L11.2,8L10.4,8L10.4,3.1Z" style="fill:rgb(250,112,27);fill-rule:nonzero;"/>
                <path id="Path3" serif:id="Path" d="M12.8,3.1L13.5,3.1L13.6,3.8C13.8,3.6 14.1,3.4 14.3,3.2C14.6,3 14.9,3 15.2,3C15.7,3 16.1,3.2 16.3,3.5C16.5,3.8 16.7,4.3 16.7,4.9L16.7,8L15.9,8L15.9,5C15.9,4.5 15.8,4.2 15.7,4C15.6,3.8 15.3,3.7 15,3.7C14.7,3.7 14.5,3.8 14.3,3.9C14.1,4 13.9,4.2 13.6,4.5L13.6,8L12.8,8L12.8,3.1Z" style="fill:rgb(250,112,27);fill-rule:nonzero;"/>
                <path id="Shape3" serif:id="Shape" d="M17.9,8.9C17.9,8.7 18,8.5 18.1,8.3C18.2,8.1 18.4,7.9 18.6,7.8C18.5,7.7 18.4,7.6 18.3,7.5C18.2,7.4 18.2,7.2 18.2,7C18.2,6.8 18.3,6.6 18.4,6.5C18.5,6.4 18.6,6.2 18.8,6.1C18.6,6 18.5,5.8 18.4,5.6C18.3,5.4 18.2,5.1 18.2,4.8C18.2,4.5 18.2,4.3 18.3,4.1C18.4,3.9 18.5,3.7 18.7,3.6C18.9,3.4 19.1,3.3 19.3,3.3C19.5,3.2 19.8,3.2 20,3.2L20.4,3.2C20.5,3.2 20.6,3.3 20.7,3.3L22.4,3.3L22.4,3.9L21.4,3.9C21.5,4 21.6,4.2 21.7,4.3C21.8,4.5 21.8,4.7 21.8,4.9C21.8,5.2 21.8,5.4 21.7,5.6C21.6,5.8 21.5,6 21.3,6.1C21.1,6.2 21,6.4 20.7,6.4C20.4,6.4 20.3,6.5 20,6.5L19.6,6.5C19.5,6.5 19.4,6.4 19.2,6.4C19.1,6.5 19,6.6 19,6.6C18.9,6.7 18.9,6.8 18.9,6.9C18.9,7.1 19,7.2 19.1,7.3C19.2,7.4 19.4,7.5 19.8,7.5L20.7,7.5C21.3,7.5 21.7,7.6 22,7.8C22.3,8 22.4,8.3 22.4,8.7C22.4,8.9 22.3,9.1 22.2,9.3C22.1,9.5 21.9,9.7 21.7,9.8C21.5,10 21.2,10.1 20.9,10.2C20.6,10.3 20.3,10.3 19.9,10.3C19.6,10.3 19.3,10.3 19.1,10.2C18.9,10.1 18.6,10.1 18.5,9.9C18.3,9.8 18.2,9.7 18.1,9.5C18,9.3 17.9,9.1 17.9,8.9ZM18.7,8.8C18.7,9.1 18.8,9.3 19.1,9.4C19.3,9.6 19.7,9.6 20.1,9.6C20.3,9.6 20.5,9.6 20.7,9.5C20.9,9.4 21.1,9.4 21.2,9.3C21.3,9.2 21.4,9.1 21.5,9C21.6,8.9 21.6,8.8 21.6,8.6C21.6,8.4 21.5,8.2 21.4,8.1C21.3,8 21,8 20.7,8L19.5,8C19.4,8 19.3,8 19.2,7.9C19,8 18.9,8.2 18.8,8.3C18.7,8.5 18.7,8.6 18.7,8.8ZM19.9,5.9C20,5.9 20.2,5.9 20.3,5.8C20.4,5.7 20.5,5.7 20.6,5.6C20.7,5.5 20.8,5.4 20.8,5.2C20.8,5 20.9,4.9 20.9,4.7C20.9,4.3 20.8,4.1 20.6,3.9C20.4,3.7 20.2,3.6 19.9,3.6C19.6,3.6 19.4,3.7 19.2,3.9C19,4.1 18.9,4.4 18.9,4.7C18.9,4.9 18.9,5 19,5.2C19.1,5.3 19.1,5.5 19.2,5.6C19.3,5.7 19.4,5.8 19.5,5.8C19.7,5.9 19.8,5.9 19.9,5.9Z" style="fill:rgb(250,112,27);fill-rule:nonzero;"/>
            </g>
            <g id="Group2" serif:id="Group" transform="matrix(1,0,0,1,7,157)">
                <path id="Path4" serif:id="Path" d="M0.9,3.8L0,3.8L0,3.2L0.8,3.1L0.9,1.7L1.6,1.7L1.6,3.1L2.9,3.1L2.9,3.8L1.6,3.8L1.6,6.5C1.6,6.8 1.7,7 1.8,7.2C1.9,7.4 2.1,7.4 2.4,7.4L2.7,7.4C2.8,7.4 2.9,7.3 3,7.3L3.2,7.9C3.1,7.9 2.9,8 2.8,8C2.6,8 2.5,8.1 2.3,8.1C2,8.1 1.8,8.1 1.6,8C1.4,7.9 1.3,7.8 1.2,7.7C1.1,7.6 1,7.4 1,7.2C1,7 0.9,6.8 0.9,6.5L0.9,3.8ZM4,3.1L4.7,3.1L4.8,4C5,3.7 5.2,3.5 5.4,3.3C5.6,3.1 5.9,3 6.2,3C6.4,3 6.6,3 6.7,3.1L6.5,3.8C6.4,3.8 6.3,3.8 6.3,3.7L6.1,3.7C5.9,3.7 5.7,3.8 5.5,3.9C5.3,4.1 5.1,4.4 4.9,4.8L4.9,7.9L4.1,7.9L4.1,3.1L4,3.1Z" style="fill:rgb(250,112,27);fill-rule:nonzero;"/>
                <path id="Shape4" serif:id="Shape" d="M7,6.7C7,6.2 7.2,5.8 7.7,5.5C8.2,5.2 8.9,5 10,4.9L10,4.4C10,4.3 9.9,4.1 9.8,4C9.7,3.9 9.6,3.8 9.5,3.7C9.4,3.6 9.2,3.6 9,3.6C8.7,3.6 8.4,3.7 8.2,3.8C8,3.9 7.7,4 7.5,4.2L7.2,3.6C7.4,3.5 7.7,3.3 8,3.2C8.3,3.1 8.7,3 9.1,3C9.7,3 10.1,3.2 10.4,3.5C10.7,3.9 10.8,4.3 10.8,5L10.8,8L10.1,8L10,7.4C9.8,7.6 9.5,7.8 9.2,7.9C8.9,8 8.6,8.1 8.3,8.1C7.9,8.1 7.5,8 7.3,7.7C7.1,7.4 7,7.1 7,6.7ZM7.8,6.6C7.8,6.9 7.9,7.1 8,7.2C8.2,7.3 8.4,7.4 8.6,7.4C8.8,7.4 9.1,7.3 9.3,7.2C9.5,7.1 9.7,6.9 10,6.7L10,5.4C9.6,5.5 9.2,5.5 9,5.6C8.7,5.7 8.5,5.8 8.3,5.9C8.1,6 8,6.1 7.9,6.2C7.8,6.3 7.8,6.5 7.8,6.6Z" style="fill:rgb(250,112,27);fill-rule:nonzero;"/>
                <path id="Path5" serif:id="Path" d="M17.4,1.5C17.2,1.4 17,1.4 16.9,1.4C16.4,1.4 16.2,1.7 16.2,2.3L16.2,3.1L17.2,3.1L17.2,3.8L16.2,3.8L16.2,8L15.4,8L15.4,3.8L13.4,3.8L13.4,8L12.6,8L12.6,3.8L11.8,3.8L11.8,3.2L12.5,3.1L12.5,2.5C12.5,2 12.6,1.6 12.9,1.3C13.1,1 13.5,0.9 14,0.9L14.5,0.9C14.7,0.9 14.8,1 14.9,1L14.7,1.6C14.5,1.5 14.3,1.5 14.1,1.5C13.9,1.5 13.7,1.6 13.5,1.8C13.3,2 13.3,2.2 13.3,2.5L13.3,3.1L15.3,3.1L15.3,2.3C15.3,1.8 15.4,1.4 15.6,1.1C15.8,0.8 16.2,0.7 16.7,0.7L17.1,0.7C17.2,0.7 17.4,0.8 17.5,0.8L17.4,1.5Z" style="fill:rgb(250,112,27);fill-rule:nonzero;"/>
                <path id="Shape5" serif:id="Shape" d="M18.5,2.1C18.3,2.1 18.2,2.1 18.1,2C18,1.9 17.9,1.8 17.9,1.6C17.9,1.4 18,1.3 18.1,1.2C18.2,1.1 18.3,1.1 18.5,1.1C18.7,1.1 18.8,1.1 18.9,1.2C19,1.3 19.1,1.4 19.1,1.6C19.1,1.8 19,1.9 18.9,2C18.8,2.1 18.6,2.1 18.5,2.1ZM18.1,3.1L18.9,3.1L18.9,8L18.1,8L18.1,3.1Z" style="fill:rgb(250,112,27);fill-rule:nonzero;"/>
                <path id="Path6" serif:id="Path" d="M20.2,5.5C20.2,5.1 20.3,4.7 20.4,4.4C20.5,4.1 20.7,3.8 20.9,3.6C21.1,3.4 21.4,3.2 21.6,3.1C21.9,3 22.2,2.9 22.5,2.9C22.8,2.9 23.1,3 23.3,3.1C23.5,3.2 23.7,3.4 23.9,3.5L23.5,4C23.4,3.9 23.2,3.8 23,3.7C22.8,3.6 22.7,3.6 22.5,3.6C22.3,3.6 22.1,3.6 21.9,3.7C21.7,3.8 21.6,3.9 21.4,4.1C21.3,4.3 21.2,4.5 21.1,4.7C21,4.9 21,5.2 21,5.5C21,5.8 21,6 21.1,6.3C21.2,6.6 21.3,6.7 21.4,6.9C21.5,7.1 21.7,7.2 21.9,7.3C22.1,7.4 22.3,7.4 22.5,7.4C22.7,7.4 22.9,7.4 23.1,7.3C23.3,7.2 23.5,7.1 23.6,7L24,7.5C23.8,7.7 23.5,7.8 23.3,8C23.1,8.2 22.7,8.2 22.5,8.2C22.2,8.2 21.9,8.1 21.6,8C21.3,7.9 21.1,7.7 20.9,7.5C20.7,7.3 20.5,7 20.4,6.7C20.3,6.4 20.2,5.9 20.2,5.5Z" style="fill:rgb(250,112,27);fill-rule:nonzero;"/>
            </g>
            <path id="Shape6" serif:id="Shape" d="M89.9,153.5C51.2,153.5 19.7,122 19.7,83.3C19.7,44.6 51.2,13.1 89.9,13.1C128.6,13.1 160.1,44.6 160.1,83.3C160.1,122 128.6,153.5 89.9,153.5ZM89.9,14.1C51.7,14.1 20.7,45.1 20.7,83.3C20.7,121.5 51.7,152.5 89.9,152.5C128.1,152.5 159.1,121.5 159.1,83.3C159.1,45.1 128.1,14.1 89.9,14.1Z" style="fill:rgb(16,93,115);fill-rule:nonzero;"/>
            <g id="Group3" serif:id="Group" transform="matrix(1,0,0,1,70,71)">
                <path id="Path7" serif:id="Path" d="M15.4,14.2C15.2,16.2 14.4,17.8 13.2,18.9C12,20 10.3,20.5 8.2,20.5C6.8,20.5 5.5,20.1 4.4,19.4C3.3,18.7 2.4,17.7 1.8,16.3C1.2,15 0.9,13.5 0.9,11.8L0.9,9.3C0.9,7.6 1.2,6 1.8,4.7C2.4,3.4 3.3,2.3 4.4,1.6C5.5,0.9 6.8,0.5 8.3,0.5C10.4,0.5 12,1.1 13.2,2.2C14.4,3.3 15.1,4.9 15.3,6.9L13.8,6.9C13.4,3.6 11.6,1.9 8.4,1.9C6.6,1.9 5.2,2.6 4.2,3.9C3.2,5.2 2.6,7 2.6,9.4L2.6,11.8C2.6,14 3.1,15.8 4.1,17.2C5.1,18.5 6.5,19.2 8.2,19.2C9.9,19.2 11.2,18.8 12.1,18C13,17.2 13.5,15.9 13.7,14.3L15.4,14.2Z" style="fill:rgb(16,93,115);fill-rule:nonzero;"/>
                <path id="Shape7" serif:id="Shape" d="M33.8,11.6C33.8,13.4 33.5,15 32.9,16.3C32.3,17.7 31.4,18.7 30.3,19.4C29.2,20.1 27.8,20.5 26.3,20.5C24,20.5 22.2,19.7 20.8,18.1C19.4,16.5 18.7,14.3 18.7,11.5L18.7,9.5C18.7,7.7 19,6.2 19.6,4.8C20.2,3.4 21.1,2.4 22.3,1.6C23.5,0.8 24.8,0.5 26.3,0.5C27.8,0.5 29.1,0.9 30.3,1.6C31.4,2.3 32.3,3.3 32.9,4.7C33.5,6.1 33.8,7.5 33.9,9.3L33.8,11.6ZM32.2,9.5C32.2,7.2 31.7,5.3 30.6,4C29.5,2.7 28.1,2 26.2,2C24.4,2 23,2.7 21.9,4C20.8,5.3 20.3,7.2 20.3,9.6L20.3,11.6C20.3,13.9 20.8,15.7 21.9,17.1C23,18.4 24.4,19.1 26.3,19.1C28.2,19.1 29.6,18.4 30.7,17.1C31.7,15.8 32.3,13.9 32.3,11.5L32.2,9.5Z" style="fill:rgb(16,93,115);fill-rule:nonzero;"/>
                <path id="Path8" serif:id="Path" d="M43.7,29.3L36.5,29.3L36.5,28.6L40.4,24.2C41,23.5 41.5,22.8 41.7,22.4C41.9,22 42.1,21.4 42.1,21C42.1,20.3 41.9,19.7 41.5,19.3C41.1,18.9 40.5,18.7 39.8,18.7C39,18.7 38.4,18.9 38,19.4C37.5,19.9 37.3,20.5 37.3,21.3L36.4,21.3C36.4,20.7 36.5,20.1 36.8,19.6C37.1,19.1 37.5,18.7 38,18.4C38.5,18.1 39.1,18 39.8,18C40.8,18 41.6,18.3 42.2,18.8C42.8,19.3 43.1,20.1 43.1,21C43.1,21.5 42.9,22.1 42.6,22.7C42.3,23.3 41.7,24.1 40.9,25.1L37.7,28.7L43.7,28.7L43.7,29.3Z" style="fill:rgb(16,93,115);fill-rule:nonzero;"/>
            </g>
            <g id="Group4" serif:id="Group" transform="matrix(1,0,0,1,0,20)">
                <path id="Shape8" serif:id="Shape" d="M0.6,5.1C0.6,4.7 0.7,4.3 0.8,4C0.9,3.7 1.1,3.4 1.3,3.2C1.5,3 1.7,2.8 2,2.7C2.3,2.6 2.6,2.5 2.9,2.5C3.2,2.5 3.5,2.6 3.8,2.7C4.1,2.8 4.3,3 4.5,3.2C4.7,3.4 4.9,3.7 5,4C5.1,4.3 5.2,4.7 5.2,5.1C5.2,5.5 5.1,5.9 5,6.2C4.9,6.5 4.7,6.8 4.5,7C4.3,7.2 4.1,7.4 3.8,7.5C3.5,7.6 3.2,7.7 2.9,7.7C2.6,7.7 2.3,7.6 2,7.5C1.7,7.4 1.5,7.2 1.3,7C1.1,6.8 0.9,6.5 0.8,6.2C0.7,5.9 0.6,5.5 0.6,5.1ZM1.5,5.1C1.5,5.4 1.5,5.6 1.6,5.9C1.7,6.1 1.8,6.3 1.9,6.5C2,6.7 2.2,6.8 2.3,6.9C2.4,7 2.7,7 2.9,7C3.1,7 3.3,7 3.5,6.9C3.7,6.8 3.8,6.7 3.9,6.5C4,6.3 4.1,6.1 4.2,5.9C4.3,5.7 4.3,5.4 4.3,5.1C4.3,4.8 4.3,4.6 4.2,4.3C4.1,4.1 4,3.9 3.9,3.7C3.8,3.5 3.6,3.4 3.5,3.3C3.4,3.2 3.1,3.2 2.9,3.2C2.7,3.2 2.5,3.2 2.3,3.3C2.1,3.4 2,3.5 1.9,3.7C1.8,3.9 1.7,4.1 1.6,4.3C1.5,4.6 1.5,4.8 1.5,5.1Z" style="fill:rgb(250,112,27);fill-rule:nonzero;"/>
                <path id="Path9" serif:id="Path" d="M6.7,3.3L5.8,3.3L5.8,2.7L6.6,2.6L6.7,1.2L7.4,1.2L7.4,2.6L8.7,2.6L8.7,3.3L7.4,3.3L7.4,6C7.4,6.3 7.5,6.5 7.6,6.7C7.7,6.9 7.9,6.9 8.2,6.9L8.5,6.9C8.6,6.9 8.7,6.8 8.8,6.8L9,7.4C8.9,7.4 8.7,7.5 8.6,7.5C8.4,7.5 8.3,7.6 8.1,7.6C7.8,7.6 7.6,7.6 7.4,7.5C7.2,7.4 7.1,7.3 7,7.2C6.9,7.1 6.8,6.9 6.8,6.7C6.8,6.5 6.7,6.3 6.7,6L6.7,3.3ZM9.8,0.4L10.6,0.4L10.6,3.3C10.8,3.1 11.1,2.9 11.3,2.7C11.6,2.5 11.9,2.5 12.2,2.5C12.7,2.5 13.1,2.7 13.3,3C13.5,3.3 13.7,3.8 13.7,4.4L13.7,7.5L12.9,7.5L12.9,4.5C12.9,4 12.8,3.7 12.7,3.5C12.6,3.3 12.3,3.2 12,3.2C11.7,3.2 11.5,3.3 11.3,3.4C11.1,3.5 10.9,3.7 10.6,4L10.6,7.5L9.8,7.5L9.8,0.4Z" style="fill:rgb(250,112,27);fill-rule:nonzero;"/>
                <path id="Shape9" serif:id="Shape" d="M14.9,5.1C14.9,4.7 15,4.3 15.1,4C15.2,3.7 15.4,3.4 15.6,3.2C15.8,3 16,2.8 16.3,2.7C16.6,2.6 16.8,2.5 17.1,2.5C17.4,2.5 17.7,2.6 17.9,2.7C18.1,2.8 18.3,3 18.5,3.2C18.7,3.4 18.8,3.6 18.9,3.9C19,4.2 19,4.5 19,4.8L19,5.3L15.7,5.3C15.7,5.8 15.9,6.2 16.2,6.5C16.5,6.8 16.9,7 17.3,7C17.5,7 17.7,7 17.9,6.9C18.1,6.8 18.3,6.7 18.5,6.6L18.8,7.1C18.6,7.2 18.3,7.3 18.1,7.4C17.8,7.5 17.5,7.6 17.2,7.6C16.9,7.6 16.6,7.5 16.3,7.4C16,7.3 15.8,7.1 15.6,6.9C15.4,6.7 15.2,6.4 15.1,6.1C14.9,5.9 14.9,5.5 14.9,5.1ZM18.3,4.7C18.3,4.2 18.2,3.8 18,3.6C17.8,3.3 17.5,3.2 17.1,3.2C16.9,3.2 16.8,3.2 16.6,3.3C16.4,3.4 16.3,3.5 16.2,3.6C16.1,3.7 16,3.9 15.9,4.1C15.8,4.3 15.8,4.5 15.7,4.8L18.3,4.8L18.3,4.7Z" style="fill:rgb(250,112,27);fill-rule:nonzero;"/>
                <path id="Path10" serif:id="Path" d="M20.2,2.7L20.9,2.7L21,3.6C21.2,3.3 21.4,3.1 21.6,2.9C21.8,2.7 22.1,2.6 22.4,2.6C22.6,2.6 22.8,2.6 22.9,2.7L22.7,3.4C22.6,3.4 22.5,3.4 22.5,3.3L22.3,3.3C22.1,3.3 21.9,3.4 21.7,3.5C21.5,3.7 21.3,4 21.1,4.4L21.1,7.5L20.3,7.5L20.2,2.7Z" style="fill:rgb(250,112,27);fill-rule:nonzero;"/>
            </g>
            <path id="Path11" serif:id="Path" d="M89.9,0.6L89.9,83.4L166.9,113.4C167.3,112.5 167.7,111.1 168.1,110.2C171,101.8 172.6,92.8 172.6,83.4C172.6,37.6 135.6,0.6 89.9,0.6Z" style="fill:rgb(16,93,115);fill-opacity:0.3;fill-rule:nonzero;"/>
            <path id="Path12" serif:id="Path" d="M154.6,108.5L89.9,83.3L89.9,83.2L89.7,83.3L68,149.4C74.6,151.6 81.8,152.9 89.7,152.9C119.3,151.4 141.9,138.3 154.6,108.5Z" style="fill:rgb(16,93,115);fill-opacity:0.2;fill-rule:nonzero;"/>
            <path id="Path13" serif:id="Path" d="M89.1,83.5L89.2,83.3L20.8,92.9L21.2,96.1L23.5,104.8C29.1,121.3 44.1,141.4 67.9,149.4L89.6,83.3L89.1,83.5Z" style="fill:rgb(16,93,115);fill-opacity:0.1;fill-rule:nonzero;"/>
            <g id="Group5" serif:id="Group" transform="matrix(1,0,0,1,158.554,8.158)">
                <g transform="matrix(1,0,0,1,0,14)">
                    <g id="_3" serif:id="3">
                        <text x="0px" y="0px" style="font-family:'Helvetica';font-size:14.486px;fill:rgb(250,112,27);">3</text>
                    </g>
                </g>
                <g transform="matrix(1,0,0,1,8.6,14)">
                    <g id="_0-" serif:id="0%">
                        <text x="0px" y="0px" style="font-family:'Helvetica';font-size:14.486px;fill:rgb(250,112,27);">4%</text>
                    </g>
                </g>
            </g>
            <g transform="matrix(1,0,0,1,149.22,154.063)">
                <g id="_24-" serif:id="24%">
                    <text x="0px" y="0px" style="font-family:'Helvetica';font-size:14.486px;fill:rgb(250,112,27);">24%</text>
                </g>
            </g>
            <g id="Group6" serif:id="Group" transform="matrix(1,0,0,1,4.387,139.48)">
                <g transform="matrix(1,0,0,1,0,14)">
                    <g id="_1" serif:id="1">
                        <text x="0px" y="0px" style="font-family:'Helvetica';font-size:14.486px;fill:rgb(250,112,27);">1</text>
                    </g>
                </g>
                <g transform="matrix(1,0,0,1,6.3,14)">
                    <g id="_8-" serif:id="8%">
                        <text x="0px" y="0px" style="font-family:'Helvetica';font-size:14.486px;fill:rgb(250,112,27);">8%</text>
                    </g>
                </g>
            </g>
        </g>
    </g>
</svg>
