<?xml version="1.0" encoding="utf-8"?>
<!-- Generator: Adobe Illustrator 19.0.0, SVG Export Plug-In . SVG Version: 6.00 Build 0)  -->
<!DOCTYPE svg PUBLIC "-//W3C//DTD SVG 1.1//EN" "http://www.w3.org/Graphics/SVG/1.1/DTD/svg11.dtd">
<svg version="1.1" id="Ebene_1" xmlns="http://www.w3.org/2000/svg" xmlns:xlink="http://www.w3.org/1999/xlink" x="0px" y="0px"
	 width="188.2px" height="171.7px" viewBox="-65 235.3 188.2 171.7" style="enable-background:new -65 235.3 188.2 171.7;"
	 xml:space="preserve">
<style type="text/css">
	.st0{opacity:0.3;enable-background:new    ;}
	.st1{fill:#105D73;}
	.st2{opacity:0.2;enable-background:new    ;}
	.st3{opacity:0.1;enable-background:new    ;}
	.st4{enable-background:new    ;}
	.st5{fill:#FA701B;}
</style>
<g>
	<g class="st0">
		<path class="st1" d="M104.3,349.2c2.9-8.4,4.5-17.4,4.5-26.8c0-45.7-37-82.7-82.7-82.7v82.7L104.3,349.2z"/>
	</g>
	<g class="st2">
		<path class="st1" d="M92,344.8l-65.9-22.4l-0.2,69.7C56.4,390.5,79.5,376.6,92,344.8z"/>
	</g>
	<g class="st3">
		<path class="st1" d="M-40.2,344c7.1,21,29.5,48,66.1,48.1c0.1-0.1,0.1-0.1,0.2-0.2v-69.5L-40.2,344z"/>
	</g>
</g>
<g>
	<g class="st4">
		<path class="st5" d="M94.9,258.4c0.6,0.6,1.3,1.1,2.3,1.1c1,0,1.8-0.5,1.8-1.4c0-1-0.6-1.6-2.8-1.6v-1.3c1.9,0,2.5-0.6,2.5-1.5
			c0-0.8-0.5-1.3-1.4-1.3c-0.8,0-1.3,0.4-1.9,0.9l-0.9-1.1c0.8-0.7,1.7-1.2,2.9-1.2c1.8,0,3.1,0.9,3.1,2.5c0,1.1-0.6,1.8-1.7,2.2
			v0.1c1.1,0.3,2,1.1,2,2.4c0,1.7-1.5,2.8-3.3,2.8c-1.5,0-2.6-0.6-3.2-1.3L94.9,258.4z"/>
		<path class="st5" d="M102,255.9c0-3.2,1.3-4.9,3.2-4.9c2,0,3.2,1.7,3.2,4.9c0,3.2-1.3,5-3.2,5C103.3,260.9,102,259.1,102,255.9z
			 M106.8,255.9c0-2.7-0.7-3.6-1.6-3.6c-0.9,0-1.6,0.9-1.6,3.6c0,2.7,0.7,3.6,1.6,3.6C106.2,259.5,106.8,258.6,106.8,255.9z"/>
		<path class="st5" d="M109.5,253.8c0-2,1-3.1,2.3-3.1s2.3,1.1,2.3,3.1c0,2-1,3.1-2.3,3.1S109.5,255.8,109.5,253.8z M113,253.8
			c0-1.5-0.5-2.1-1.1-2.1s-1.1,0.6-1.1,2.1c0,1.5,0.5,2.1,1.1,2.1S113,255.3,113,253.8z M112.2,260.9l5.4-10.2h1.1l-5.4,10.2H112.2z
			 M116.6,257.7c0-2,1-3.1,2.3-3.1s2.3,1.1,2.3,3.1c0,2-1,3.1-2.3,3.1S116.6,259.7,116.6,257.7z M120,257.7c0-1.5-0.5-2.1-1.1-2.1
			s-1.1,0.6-1.1,2.1c0,1.5,0.5,2.1,1.1,2.1S120,259.2,120,257.7z"/>
	</g>
	<g class="st4">
	</g>
	<g class="st4">
		<path class="st5" d="M101,266.2c-0.2-0.1-0.4-0.1-0.5-0.1c-0.5,0-0.7,0.3-0.7,0.9v0.8h1v0.7h-1v4.2H99v-4.2h-0.7v-0.6l0.7-0.1
			v-0.8c0-0.5,0.1-0.9,0.3-1.2c0.2-0.3,0.6-0.4,1.1-0.4c0.2,0,0.3,0,0.4,0c0.1,0,0.3,0.1,0.4,0.1L101,266.2z"/>
		<path class="st5" d="M101.3,270.3c0-0.4,0.1-0.8,0.2-1.1s0.3-0.6,0.5-0.8c0.2-0.2,0.4-0.4,0.7-0.5c0.3-0.1,0.6-0.2,0.9-0.2
			s0.6,0.1,0.9,0.2c0.3,0.1,0.5,0.3,0.7,0.5c0.2,0.2,0.4,0.5,0.5,0.8c0.1,0.3,0.2,0.7,0.2,1.1c0,0.4-0.1,0.8-0.2,1.1
			c-0.1,0.3-0.3,0.6-0.5,0.8c-0.2,0.2-0.4,0.4-0.7,0.5c-0.3,0.1-0.6,0.2-0.9,0.2s-0.6-0.1-0.9-0.2c-0.3-0.1-0.5-0.3-0.7-0.5
			s-0.4-0.5-0.5-0.8S101.3,270.7,101.3,270.3z M102.1,270.3c0,0.3,0,0.5,0.1,0.8c0.1,0.2,0.2,0.4,0.3,0.6c0.1,0.2,0.3,0.3,0.4,0.4
			c0.2,0.1,0.4,0.1,0.6,0.1c0.2,0,0.4,0,0.6-0.1c0.2-0.1,0.3-0.2,0.4-0.4c0.1-0.2,0.2-0.4,0.3-0.6s0.1-0.5,0.1-0.8s0-0.5-0.1-0.8
			c-0.1-0.2-0.2-0.4-0.3-0.6c-0.1-0.2-0.3-0.3-0.4-0.4c-0.2-0.1-0.4-0.1-0.6-0.1c-0.2,0-0.4,0-0.6,0.1c-0.2,0.1-0.3,0.2-0.4,0.4
			c-0.1,0.2-0.2,0.4-0.3,0.6C102.2,269.7,102.1,270,102.1,270.3z"/>
		<path class="st5" d="M106.7,270.3c0-0.4,0.1-0.8,0.2-1.1s0.3-0.6,0.5-0.8c0.2-0.2,0.4-0.4,0.7-0.5c0.3-0.1,0.6-0.2,0.9-0.2
			s0.6,0.1,0.9,0.2c0.3,0.1,0.5,0.3,0.7,0.5c0.2,0.2,0.4,0.5,0.5,0.8c0.1,0.3,0.2,0.7,0.2,1.1c0,0.4-0.1,0.8-0.2,1.1
			c-0.1,0.3-0.3,0.6-0.5,0.8c-0.2,0.2-0.4,0.4-0.7,0.5c-0.3,0.1-0.6,0.2-0.9,0.2s-0.6-0.1-0.9-0.2c-0.3-0.1-0.5-0.3-0.7-0.5
			s-0.4-0.5-0.5-0.8S106.7,270.7,106.7,270.3z M107.5,270.3c0,0.3,0,0.5,0.1,0.8c0.1,0.2,0.2,0.4,0.3,0.6c0.1,0.2,0.3,0.3,0.4,0.4
			c0.2,0.1,0.4,0.1,0.6,0.1c0.2,0,0.4,0,0.6-0.1c0.2-0.1,0.3-0.2,0.4-0.4c0.1-0.2,0.2-0.4,0.3-0.6s0.1-0.5,0.1-0.8s0-0.5-0.1-0.8
			c-0.1-0.2-0.2-0.4-0.3-0.6c-0.1-0.2-0.3-0.3-0.4-0.4c-0.2-0.1-0.4-0.1-0.6-0.1c-0.2,0-0.4,0-0.6,0.1c-0.2,0.1-0.3,0.2-0.4,0.4
			c-0.1,0.2-0.2,0.4-0.3,0.6C107.6,269.7,107.5,270,107.5,270.3z"/>
		<path class="st5" d="M112.1,270.3c0-0.4,0.1-0.7,0.2-1.1c0.1-0.3,0.3-0.6,0.5-0.8s0.4-0.4,0.7-0.5c0.3-0.1,0.5-0.2,0.8-0.2
			c0.3,0,0.5,0.1,0.7,0.2c0.2,0.1,0.4,0.2,0.6,0.4l0-0.8v-1.9h0.8v7.1h-0.7l-0.1-0.6h0c-0.2,0.2-0.4,0.3-0.7,0.5s-0.5,0.2-0.8,0.2
			c-0.6,0-1.1-0.2-1.5-0.7S112.1,271.1,112.1,270.3z M113,270.3c0,0.6,0.1,1,0.4,1.4c0.2,0.3,0.6,0.5,1,0.5c0.2,0,0.4-0.1,0.6-0.2
			c0.2-0.1,0.4-0.3,0.6-0.5v-2.5c-0.2-0.2-0.4-0.3-0.6-0.4c-0.2-0.1-0.4-0.1-0.6-0.1c-0.2,0-0.4,0-0.5,0.1s-0.3,0.2-0.4,0.4
			c-0.1,0.2-0.2,0.4-0.3,0.6C113,269.7,113,270,113,270.3z"/>
	</g>
</g>
<g>
	<g class="st4">
		<path class="st5" d="M86,391.1c2.7-2.6,4.3-4.2,4.3-5.7c0-1-0.6-1.6-1.6-1.6c-0.7,0-1.3,0.5-1.9,1.1l-1-1c0.9-0.9,1.7-1.5,3-1.5
			c1.8,0,3,1.2,3,2.9c0,1.7-1.6,3.4-3.5,5.4c0.5,0,1.1-0.1,1.6-0.1h2.3v1.5H86V391.1z"/>
		<path class="st5" d="M93.8,387.3c0-3.2,1.3-4.9,3.2-4.9c2,0,3.2,1.7,3.2,4.9c0,3.2-1.3,5-3.2,5C95,392.2,93.8,390.5,93.8,387.3z
			 M98.6,387.3c0-2.7-0.7-3.6-1.6-3.6c-0.9,0-1.6,0.9-1.6,3.6c0,2.7,0.7,3.6,1.6,3.6C97.9,390.9,98.6,390,98.6,387.3z"/>
		<path class="st5" d="M101.3,385.2c0-2,1-3.1,2.3-3.1s2.3,1.1,2.3,3.1c0,2-1,3.1-2.3,3.1S101.3,387.1,101.3,385.2z M104.7,385.2
			c0-1.5-0.5-2.1-1.1-2.1s-1.1,0.6-1.1,2.1c0,1.5,0.5,2.1,1.1,2.1S104.7,386.6,104.7,385.2z M104,392.2l5.4-10.2h1.1l-5.4,10.2H104z
			 M108.3,389.1c0-2,1-3.1,2.3-3.1s2.3,1.1,2.3,3.1c0,2-1,3.1-2.3,3.1S108.3,391.1,108.3,389.1z M111.8,389.1c0-1.5-0.5-2.1-1.1-2.1
			s-1.1,0.6-1.1,2.1c0,1.5,0.5,2.1,1.1,2.1S111.8,390.6,111.8,389.1z"/>
	</g>
	<g class="st4">
	</g>
	<g class="st4">
		<path class="st5" d="M89.9,396.9h0.8v6.2c0,0.1,0,0.2,0.1,0.3c0,0.1,0.1,0.1,0.2,0.1c0,0,0.1,0,0.1,0s0.1,0,0.1,0l0.1,0.6
			c-0.1,0-0.1,0-0.2,0.1c-0.1,0-0.2,0-0.3,0c-0.3,0-0.5-0.1-0.7-0.3c-0.1-0.2-0.2-0.5-0.2-0.8V396.9z"/>
		<path class="st5" d="M92.9,398.2c-0.2,0-0.3,0-0.4-0.1c-0.1-0.1-0.2-0.2-0.2-0.4c0-0.2,0.1-0.3,0.2-0.4c0.1-0.1,0.2-0.1,0.4-0.1
			s0.3,0,0.4,0.1c0.1,0.1,0.2,0.2,0.2,0.4c0,0.2-0.1,0.3-0.2,0.4C93.2,398.2,93,398.2,92.9,398.2z M92.4,399.2h0.8v4.9h-0.8V399.2z"
			/>
		<path class="st5" d="M94.2,399.2h0.9L96,402c0.1,0.2,0.1,0.5,0.2,0.7c0.1,0.2,0.2,0.5,0.2,0.7h0c0.1-0.2,0.1-0.5,0.2-0.7
			c0.1-0.2,0.1-0.5,0.2-0.7l0.9-2.8h0.8l-1.7,4.9h-1L94.2,399.2z"/>
		<path class="st5" d="M100,398.2c-0.2,0-0.3,0-0.4-0.1c-0.1-0.1-0.2-0.2-0.2-0.4c0-0.2,0.1-0.3,0.2-0.4c0.1-0.1,0.2-0.1,0.4-0.1
			s0.3,0,0.4,0.1c0.1,0.1,0.2,0.2,0.2,0.4c0,0.2-0.1,0.3-0.2,0.4C100.3,398.2,100.2,398.2,100,398.2z M99.6,399.2h0.8v4.9h-0.8
			V399.2z"/>
		<path class="st5" d="M102,399.2h0.7l0.1,0.7h0c0.2-0.2,0.5-0.4,0.7-0.6c0.3-0.2,0.6-0.2,0.9-0.2c0.5,0,0.9,0.2,1.1,0.5
			c0.2,0.3,0.4,0.8,0.4,1.4v3.1h-0.8v-3c0-0.5-0.1-0.8-0.2-1s-0.4-0.3-0.7-0.3c-0.3,0-0.5,0.1-0.7,0.2s-0.4,0.3-0.7,0.6v3.5H102
			V399.2z"/>
		<path class="st5" d="M107.1,405c0-0.2,0.1-0.4,0.2-0.6c0.1-0.2,0.3-0.4,0.5-0.5v0c-0.1-0.1-0.2-0.2-0.3-0.3
			c-0.1-0.1-0.1-0.3-0.1-0.5c0-0.2,0.1-0.4,0.2-0.5s0.2-0.3,0.4-0.4v0c-0.2-0.1-0.3-0.3-0.4-0.5c-0.1-0.2-0.2-0.5-0.2-0.8
			c0-0.3,0-0.5,0.1-0.7c0.1-0.2,0.2-0.4,0.4-0.5c0.2-0.2,0.4-0.3,0.6-0.3c0.2-0.1,0.5-0.1,0.7-0.1c0.1,0,0.3,0,0.4,0
			c0.1,0,0.2,0.1,0.3,0.1h1.7v0.6h-1c0.1,0.1,0.2,0.3,0.3,0.4c0.1,0.2,0.1,0.4,0.1,0.6c0,0.3,0,0.5-0.1,0.7
			c-0.1,0.2-0.2,0.4-0.4,0.5c-0.2,0.1-0.3,0.3-0.6,0.3s-0.4,0.1-0.7,0.1c-0.1,0-0.2,0-0.4,0c-0.1,0-0.2-0.1-0.4-0.1
			c-0.1,0.1-0.2,0.2-0.2,0.2c-0.1,0.1-0.1,0.2-0.1,0.3c0,0.2,0.1,0.3,0.2,0.4s0.3,0.2,0.7,0.2h0.9c0.6,0,1,0.1,1.3,0.3
			c0.3,0.2,0.4,0.5,0.4,0.9c0,0.2-0.1,0.4-0.2,0.6s-0.3,0.4-0.5,0.5c-0.2,0.2-0.5,0.3-0.8,0.4c-0.3,0.1-0.6,0.1-1,0.1
			c-0.3,0-0.6,0-0.8-0.1c-0.2-0.1-0.5-0.1-0.6-0.3c-0.2-0.1-0.3-0.2-0.4-0.4C107.2,405.4,107.1,405.2,107.1,405z M107.9,404.9
			c0,0.3,0.1,0.5,0.4,0.6c0.2,0.2,0.6,0.2,1,0.2c0.2,0,0.4,0,0.6-0.1c0.2-0.1,0.4-0.1,0.5-0.2s0.2-0.2,0.3-0.3
			c0.1-0.1,0.1-0.2,0.1-0.4c0-0.2-0.1-0.4-0.2-0.5s-0.4-0.1-0.7-0.1H109c-0.1,0-0.2,0-0.3,0c-0.1,0-0.2,0-0.3-0.1
			c-0.2,0.1-0.3,0.3-0.4,0.4C107.9,404.6,107.9,404.7,107.9,404.9z M109.1,402c0.1,0,0.3,0,0.4-0.1c0.1-0.1,0.2-0.1,0.3-0.2
			c0.1-0.1,0.2-0.2,0.2-0.4s0.1-0.3,0.1-0.5c0-0.4-0.1-0.6-0.3-0.8s-0.4-0.3-0.7-0.3c-0.3,0-0.5,0.1-0.7,0.3s-0.3,0.5-0.3,0.8
			c0,0.2,0,0.3,0.1,0.5c0.1,0.1,0.1,0.3,0.2,0.4c0.1,0.1,0.2,0.2,0.3,0.2C108.9,402,109,402,109.1,402z"/>
	</g>
</g>
<g>
	<g class="st4">
		<path class="st5" d="M-58,391.1c2.7-2.6,4.3-4.2,4.3-5.7c0-1-0.6-1.6-1.6-1.6c-0.7,0-1.4,0.5-1.9,1.1l-1-1c0.9-0.9,1.7-1.5,3-1.5
			c1.8,0,3,1.2,3,2.9c0,1.7-1.6,3.4-3.5,5.4c0.5,0,1.1-0.1,1.6-0.1h2.3v1.5H-58V391.1z"/>
		<path class="st5" d="M-50.2,387.3c0-3.2,1.3-4.9,3.2-4.9s3.2,1.7,3.2,4.9c0,3.2-1.3,5-3.2,5S-50.2,390.5-50.2,387.3z M-45.4,387.3
			c0-2.7-0.7-3.6-1.6-3.6c-0.9,0-1.6,0.9-1.6,3.6c0,2.7,0.7,3.6,1.6,3.6C-46.1,390.9-45.4,390-45.4,387.3z"/>
		<path class="st5" d="M-42.7,385.2c0-2,1-3.1,2.3-3.1s2.3,1.1,2.3,3.1c0,2-1,3.1-2.3,3.1S-42.7,387.1-42.7,385.2z M-39.3,385.2
			c0-1.5-0.5-2.1-1.1-2.1s-1.1,0.6-1.1,2.1c0,1.5,0.5,2.1,1.1,2.1S-39.3,386.6-39.3,385.2z M-40,392.2l5.4-10.2h1.1l-5.4,10.2H-40z
			 M-35.7,389.1c0-2,1-3.1,2.3-3.1s2.3,1.1,2.3,3.1c0,2-1,3.1-2.3,3.1S-35.7,391.1-35.7,389.1z M-32.2,389.1c0-1.5-0.5-2.1-1.1-2.1
			s-1.1,0.6-1.1,2.1c0,1.5,0.5,2.1,1.1,2.1S-32.2,390.6-32.2,389.1z"/>
	</g>
	<g class="st4">
	</g>
	<g class="st4">
		<path class="st5" d="M-56.1,399.9h-0.7v-0.6l0.8-0.1l0.1-1.4h0.7v1.4h1.3v0.7h-1.3v2.7c0,0.3,0.1,0.5,0.2,0.7s0.3,0.2,0.6,0.2
			c0.1,0,0.2,0,0.3,0c0.1,0,0.2-0.1,0.3-0.1l0.2,0.6c-0.1,0-0.3,0.1-0.4,0.1c-0.2,0-0.3,0.1-0.5,0.1c-0.3,0-0.5,0-0.7-0.1
			s-0.3-0.2-0.4-0.3c-0.1-0.1-0.2-0.3-0.2-0.5c0-0.2-0.1-0.4-0.1-0.7V399.9z"/>
		<path class="st5" d="M-52.8,399.2h0.7l0.1,0.9h0c0.2-0.3,0.4-0.5,0.6-0.7c0.2-0.2,0.5-0.3,0.8-0.3c0.2,0,0.4,0,0.5,0.1l-0.2,0.7
			c-0.1,0-0.2,0-0.2-0.1c-0.1,0-0.1,0-0.2,0c-0.2,0-0.4,0.1-0.6,0.2c-0.2,0.2-0.4,0.5-0.6,0.9v3.1h-0.8V399.2z"/>
		<path class="st5" d="M-49.8,402.8c0-0.5,0.2-0.9,0.7-1.2c0.5-0.3,1.2-0.5,2.3-0.6c0-0.2,0-0.3,0-0.5c0-0.1-0.1-0.3-0.2-0.4
			c-0.1-0.1-0.2-0.2-0.3-0.3c-0.1-0.1-0.3-0.1-0.5-0.1c-0.3,0-0.6,0.1-0.8,0.2s-0.5,0.2-0.7,0.4l-0.3-0.6c0.2-0.1,0.5-0.3,0.8-0.4
			c0.3-0.1,0.7-0.2,1.1-0.2c0.6,0,1,0.2,1.3,0.5c0.3,0.4,0.4,0.8,0.4,1.5v3h-0.7l-0.1-0.6h0c-0.2,0.2-0.5,0.4-0.8,0.5
			c-0.3,0.1-0.6,0.2-0.9,0.2c-0.4,0-0.8-0.1-1-0.4S-49.8,403.2-49.8,402.8z M-49,402.7c0,0.3,0.1,0.5,0.2,0.6
			c0.2,0.1,0.4,0.2,0.6,0.2c0.2,0,0.5-0.1,0.7-0.2c0.2-0.1,0.4-0.3,0.7-0.5v-1.3c-0.4,0.1-0.8,0.1-1,0.2c-0.3,0.1-0.5,0.2-0.7,0.3
			c-0.2,0.1-0.3,0.2-0.4,0.3S-49,402.6-49,402.7z"/>
		<path class="st5" d="M-39.4,397.6c-0.2-0.1-0.4-0.1-0.5-0.1c-0.5,0-0.7,0.3-0.7,0.9v0.8h1v0.7h-1v4.2h-0.8v-4.2h-2v4.2h-0.8v-4.2
			H-45v-0.6l0.7-0.1v-0.6c0-0.5,0.1-0.9,0.4-1.2c0.2-0.3,0.6-0.4,1.1-0.4c0.2,0,0.3,0,0.5,0s0.3,0.1,0.4,0.1l-0.2,0.6
			c-0.2-0.1-0.4-0.1-0.6-0.1c-0.2,0-0.4,0.1-0.6,0.3s-0.2,0.4-0.2,0.7v0.6h2v-0.8c0-0.5,0.1-0.9,0.3-1.2c0.2-0.3,0.6-0.4,1.1-0.4
			c0.2,0,0.3,0,0.4,0c0.1,0,0.3,0.1,0.4,0.1L-39.4,397.6z"/>
		<path class="st5" d="M-38.3,398.2c-0.2,0-0.3,0-0.4-0.1c-0.1-0.1-0.2-0.2-0.2-0.4c0-0.2,0.1-0.3,0.2-0.4c0.1-0.1,0.2-0.1,0.4-0.1
			c0.2,0,0.3,0,0.4,0.1c0.1,0.1,0.2,0.2,0.2,0.4c0,0.2-0.1,0.3-0.2,0.4C-38,398.2-38.2,398.2-38.3,398.2z M-38.7,399.2h0.8v4.9h-0.8
			V399.2z"/>
		<path class="st5" d="M-36.6,401.6c0-0.4,0.1-0.8,0.2-1.1s0.3-0.6,0.5-0.8c0.2-0.2,0.5-0.4,0.7-0.5c0.3-0.1,0.6-0.2,0.9-0.2
			c0.3,0,0.6,0.1,0.8,0.2c0.2,0.1,0.4,0.3,0.6,0.4l-0.4,0.5c-0.1-0.1-0.3-0.2-0.5-0.3s-0.3-0.1-0.5-0.1c-0.2,0-0.4,0-0.6,0.1
			c-0.2,0.1-0.3,0.2-0.5,0.4c-0.1,0.2-0.2,0.4-0.3,0.6c-0.1,0.2-0.1,0.5-0.1,0.8s0,0.5,0.1,0.8s0.2,0.4,0.3,0.6
			c0.1,0.2,0.3,0.3,0.5,0.4c0.2,0.1,0.4,0.1,0.6,0.1c0.2,0,0.4,0,0.6-0.1s0.4-0.2,0.5-0.3l0.4,0.5c-0.2,0.2-0.5,0.3-0.7,0.5
			s-0.6,0.2-0.8,0.2c-0.3,0-0.6-0.1-0.9-0.2c-0.3-0.1-0.5-0.3-0.7-0.5c-0.2-0.2-0.4-0.5-0.5-0.8S-36.6,402-36.6,401.6z"/>
	</g>
</g>
<g>
	<path class="st1" d="M26.1,392.6c-38.7,0-70.2-31.5-70.2-70.2c0-38.7,31.5-70.2,70.2-70.2s70.2,31.5,70.2,70.2
		C96.3,361.1,64.8,392.6,26.1,392.6z M26.1,253.2c-38.2,0-69.2,31-69.2,69.2c0,38.2,31,69.2,69.2,69.2c38.2,0,69.2-31,69.2-69.2
		C95.3,284.2,64.3,253.2,26.1,253.2z"/>
</g>
<g>
	<g class="st4">
		<path class="st1" d="M21.6,324.3c-0.2,2-1,3.6-2.2,4.7s-2.9,1.6-5,1.6c-1.4,0-2.7-0.4-3.8-1.1c-1.1-0.7-2-1.7-2.6-3.1
			c-0.6-1.3-0.9-2.8-0.9-4.5v-2.5c0-1.7,0.3-3.3,0.9-4.6c0.6-1.3,1.5-2.4,2.6-3.1s2.4-1.1,3.9-1.1c2.1,0,3.7,0.6,4.9,1.7
			c1.2,1.1,1.9,2.7,2.1,4.7H20c-0.4-3.3-2.2-5-5.4-5c-1.8,0-3.2,0.7-4.2,2c-1,1.3-1.6,3.1-1.6,5.5v2.4c0,2.2,0.5,4,1.5,5.4
			c1,1.3,2.4,2,4.1,2c1.7,0,3-0.4,3.9-1.2s1.4-2.1,1.6-3.7H21.6z"/>
		<path class="st1" d="M40,321.7c0,1.8-0.3,3.4-0.9,4.7c-0.6,1.4-1.5,2.4-2.6,3.1c-1.1,0.7-2.5,1.1-4,1.1c-2.3,0-4.1-0.8-5.5-2.4
			c-1.4-1.6-2.1-3.8-2.1-6.6v-2c0-1.8,0.3-3.3,0.9-4.7s1.5-2.4,2.7-3.2s2.5-1.1,4-1.1c1.5,0,2.8,0.4,4,1.1c1.1,0.7,2,1.7,2.6,3.1
			s0.9,2.8,1,4.6V321.7z M38.4,319.6c0-2.3-0.5-4.2-1.6-5.5s-2.5-2-4.4-2c-1.8,0-3.2,0.7-4.3,2c-1.1,1.3-1.6,3.2-1.6,5.6v2
			c0,2.3,0.5,4.1,1.6,5.5c1.1,1.3,2.5,2,4.4,2c1.9,0,3.3-0.7,4.4-2c1-1.3,1.6-3.2,1.6-5.6V319.6z"/>
	</g>
	<g class="st4">
		<path class="st1" d="M49.8,339.4h-7.1v-0.7l3.9-4.4c0.6-0.7,1.1-1.4,1.3-1.8s0.4-1,0.4-1.4c0-0.7-0.2-1.3-0.6-1.7s-1-0.6-1.7-0.6
			c-0.8,0-1.4,0.2-1.8,0.7c-0.5,0.5-0.7,1.1-0.7,1.9h-0.9c0-0.6,0.1-1.2,0.4-1.7c0.3-0.5,0.7-0.9,1.2-1.2c0.5-0.3,1.1-0.4,1.8-0.4
			c1,0,1.8,0.3,2.4,0.8c0.6,0.5,0.9,1.3,0.9,2.2c0,0.5-0.2,1.1-0.5,1.7c-0.3,0.6-0.9,1.4-1.7,2.4l-3.2,3.6h6V339.4z"/>
	</g>
</g>
<g class="st4">
	<path class="st5" d="M-63.2,264.2c0-0.4,0.1-0.8,0.2-1.1c0.1-0.3,0.3-0.6,0.5-0.8c0.2-0.2,0.4-0.4,0.7-0.5s0.6-0.2,0.9-0.2
		s0.6,0.1,0.9,0.2s0.5,0.3,0.7,0.5c0.2,0.2,0.4,0.5,0.5,0.8s0.2,0.7,0.2,1.1c0,0.4-0.1,0.8-0.2,1.1s-0.3,0.6-0.5,0.8
		s-0.4,0.4-0.7,0.5s-0.6,0.2-0.9,0.2s-0.6-0.1-0.9-0.2s-0.5-0.3-0.7-0.5c-0.2-0.2-0.4-0.5-0.5-0.8C-63.1,265-63.2,264.6-63.2,264.2z
		 M-62.3,264.2c0,0.3,0,0.5,0.1,0.8c0.1,0.2,0.2,0.4,0.3,0.6c0.1,0.2,0.3,0.3,0.4,0.4s0.4,0.1,0.6,0.1s0.4,0,0.6-0.1
		s0.3-0.2,0.4-0.4c0.1-0.2,0.2-0.4,0.3-0.6c0.1-0.2,0.1-0.5,0.1-0.8s0-0.5-0.1-0.8c-0.1-0.2-0.2-0.4-0.3-0.6
		c-0.1-0.2-0.3-0.3-0.4-0.4s-0.4-0.1-0.6-0.1s-0.4,0-0.6,0.1s-0.3,0.2-0.4,0.4c-0.1,0.2-0.2,0.4-0.3,0.6
		C-62.3,263.7-62.3,263.9-62.3,264.2z"/>
	<path class="st5" d="M-57.3,262.4H-58v-0.6l0.8-0.1l0.1-1.4h0.7v1.4h1.3v0.7h-1.3v2.7c0,0.3,0.1,0.5,0.2,0.7s0.3,0.2,0.6,0.2
		c0.1,0,0.2,0,0.3,0c0.1,0,0.2-0.1,0.3-0.1l0.2,0.6c-0.1,0-0.3,0.1-0.4,0.1c-0.2,0-0.3,0.1-0.5,0.1c-0.3,0-0.5,0-0.7-0.1
		s-0.3-0.2-0.4-0.3c-0.1-0.1-0.2-0.3-0.2-0.5c0-0.2-0.1-0.4-0.1-0.7V262.4z"/>
	<path class="st5" d="M-54,259.5h0.8v1.9l0,1c0.2-0.2,0.5-0.4,0.7-0.6c0.3-0.2,0.6-0.2,0.9-0.2c0.5,0,0.9,0.2,1.1,0.5
		s0.4,0.8,0.4,1.4v3.1h-0.8v-3c0-0.5-0.1-0.8-0.2-1s-0.4-0.3-0.7-0.3c-0.3,0-0.5,0.1-0.7,0.2s-0.4,0.3-0.7,0.6v3.5H-54V259.5z"/>
	<path class="st5" d="M-48.9,264.2c0-0.4,0.1-0.8,0.2-1.1c0.1-0.3,0.3-0.6,0.5-0.8c0.2-0.2,0.4-0.4,0.7-0.5c0.3-0.1,0.5-0.2,0.8-0.2
		c0.3,0,0.6,0.1,0.8,0.2c0.2,0.1,0.4,0.3,0.6,0.5c0.2,0.2,0.3,0.4,0.4,0.7c0.1,0.3,0.1,0.6,0.1,0.9c0,0.2,0,0.3,0,0.5h-3.3
		c0,0.5,0.2,0.9,0.5,1.2s0.7,0.5,1.1,0.5c0.2,0,0.4,0,0.6-0.1c0.2-0.1,0.4-0.2,0.6-0.3l0.3,0.5c-0.2,0.1-0.5,0.2-0.7,0.3
		c-0.3,0.1-0.6,0.2-0.9,0.2c-0.3,0-0.6-0.1-0.9-0.2c-0.3-0.1-0.5-0.3-0.7-0.5c-0.2-0.2-0.4-0.5-0.5-0.8
		C-48.9,265-48.9,264.6-48.9,264.2z M-45.5,263.8c0-0.5-0.1-0.9-0.3-1.1c-0.2-0.3-0.5-0.4-0.9-0.4c-0.2,0-0.3,0-0.5,0.1
		c-0.2,0.1-0.3,0.2-0.4,0.3c-0.1,0.1-0.2,0.3-0.3,0.5c-0.1,0.2-0.1,0.4-0.2,0.7H-45.5z"/>
	<path class="st5" d="M-43.6,261.8h0.7l0.1,0.9h0c0.2-0.3,0.4-0.5,0.6-0.7c0.2-0.2,0.5-0.3,0.8-0.3c0.2,0,0.4,0,0.5,0.1l-0.2,0.7
		c-0.1,0-0.2,0-0.2-0.1c-0.1,0-0.1,0-0.2,0c-0.2,0-0.4,0.1-0.6,0.2c-0.2,0.2-0.4,0.5-0.6,0.9v3.1h-0.8V261.8z"/>
</g>
</svg>
