<?xml version="1.0" encoding="UTF-8"?>
<svg width="100%" height="100%" viewBox="0 0 36 36" version="1.1" xmlns="http://www.w3.org/2000/svg" xmlns:xlink="http://www.w3.org/1999/xlink">
    <!-- Generator: Sketch 47.1 (45422) - http://www.bohemiancoding.com/sketch -->
    <title>Icon / Full / VitaScore</title>
    <desc>Created with Sketch.</desc>
    <defs></defs>
    <g id="Symbols" stroke="none" stroke-width="1" fill="none" fill-rule="evenodd">
        <g id="Icon-/-Full-/-VitaScore">
            <g id="Group-2">
                <g id="svg-heart-icon-2" transform="translate(7.000000, 10.000000)" fill-rule="nonzero" fill="#000000">
                    <g id="Layer_1" transform="translate(0.468085, 0.021277)">
                        <g id="Group">
                            <path d="M6.52659574,14.4893617 L1.72340426,9.68617021 C-0.478723404,7.48404255 -0.478723404,3.89361702 1.72340426,1.69148936 L1.72340426,1.69148936 C3.92553191,-0.510638298 7.51595745,-0.510638298 9.71808511,1.69148936 L14.5212766,6.49468085 C16.7234043,8.69680851 16.7234043,12.287234 14.5212766,14.4893617 L14.5212766,14.4893617 C12.3351064,16.6755319 8.7287234,16.6755319 6.52659574,14.4893617 Z" id="Shape"></path>
                            <path d="M6.52659574,6.49468085 L11.3297872,1.69148936 C13.5319149,-0.510638298 17.1223404,-0.510638298 19.3244681,1.69148936 L19.3244681,1.69148936 C21.5265957,3.89361702 21.5265957,7.48404255 19.3244681,9.68617021 L14.5212766,14.4893617 C12.3191489,16.6914894 8.7287234,16.6914894 6.52659574,14.4893617 L6.52659574,14.4893617 C4.34042553,12.287234 4.34042553,8.68085106 6.52659574,6.49468085 Z" id="Shape"></path>
                            <path d="M9.97340426,17.9202128 L5.69680851,13.643617 C5.39361702,13.3404255 5.39361702,12.8297872 5.69680851,12.5106383 L9.97340426,8.23404255 C10.2765957,7.93085106 10.787234,7.93085106 11.106383,8.23404255 L15.3829787,12.5106383 C15.6861702,12.8138298 15.6861702,13.3244681 15.3829787,13.643617 L11.106383,17.9202128 C10.787234,18.2234043 10.2765957,18.2234043 9.97340426,17.9202128 Z" id="Shape"></path>
                        </g>
                    </g>
                </g>
                <polyline id="Page-1" stroke="#FEFEFE" stroke-width="0.833" stroke-linejoin="round" points="1 18.5742718 12.9632282 18.5742718 15.4950243 14 17.9601942 23 20.8354976 16.2822209 23.1188107 18.2231189 35.4883495 18.2231189"></polyline>
                <g id="award---sorounding-icon" stroke="#000000" stroke-width="2">
                    <rect id="Rectangle-2" x="1" y="1" width="34" height="34" rx="8"></rect>
                </g>
            </g>
        </g>
    </g>
</svg>
