<?xml version="1.0" encoding="utf-8"?>
<!-- Generator: Adobe Illustrator 22.0.1, SVG Export Plug-In . SVG Version: 6.00 Build 0)  -->
<svg version="1.1" id="Layer_1" xmlns="http://www.w3.org/2000/svg" xmlns:xlink="http://www.w3.org/1999/xlink" x="0px" y="0px"
	 viewBox="0 0 1190.5 549.9" style="enable-background:new 0 0 1190.5 549.9;" xml:space="preserve">
<g>
	<polygon points="70.9,251.2 122.6,329.7 127.4,329.7 179.8,250.3 179.8,375.9 231.2,375.9 231.2,164.7 177.5,164.7 125.6,248.1 
		73.8,164.7 20.1,164.7 20.1,375.9 70.9,375.9 	"/>
	<polygon points="539.8,377.3 584.1,377.3 669.5,164.7 613.6,164.7 562.6,302.3 511.5,164.7 454.5,164.7 	"/>
	<rect x="682.2" y="164.7" width="51.7" height="211.2"/>
	<polygon points="950,164.7 898.9,164.7 898.9,283.9 809.1,166 808.1,164.7 761.6,164.7 761.6,375.9 812.7,375.9 812.7,252.5 
		905.7,374.5 906.7,375.9 950,375.9 	"/>
	<path d="M1076.6,379.4c33.4,0,63.5-11.2,89.5-33.2l1.2-1v-93.7h-95.5V297h45.2v24c-10.4,7-23.8,10.7-38.9,10.7
		c-33.9,0-58.6-25.8-58.6-62c0-33.3,24.8-60.3,55.4-60.3c22.8,0,36.1,7.3,51.3,20l2.6,2.2l32.6-39.3l-2.5-2.2
		c-24.1-20.5-48-28.9-82.5-28.9c-62,0-110.6,47.9-110.6,109.7C965.7,333.7,1012.4,379.4,1076.6,379.4z"/>
	<polygon points="91.3,443.7 57.7,389.7 20.4,389.7 20.4,531.4 56.3,531.4 56.3,451.7 88.7,501 93.2,501 125.9,451.2 125.9,531.4 
		162.2,531.4 162.2,389.7 125,389.7 	"/>
	<path d="M249.5,387.3c-42.2,0-75.3,32.2-75.3,73.6c0,41.5,32.2,72.8,74.9,72.8c42.2,0,75.3-32.2,75.3-73.6
		C324.4,418.6,292.2,387.3,249.5,387.3z M249.1,421.5c21.4,0,37.5,16.8,37.5,39.4c0,22.1-16,38.7-37.2,38.7
		c-21.4,0-37.5-16.8-37.5-39.5C212,438.1,228,421.5,249.1,421.5z"/>
	<path d="M422.2,470.4c0,19-8.9,29-25.8,29c-16.8,0-25.7-10.4-25.7-30v-79.7h-36.5v80.5c0,40.3,22.5,63.4,61.9,63.4
		c39.8,0,62.6-23.4,62.6-64.3v-79.6h-36.4V470.4z"/>
	<polygon points="565.2,466.1 506.9,389.7 474.5,389.7 474.5,531.4 510.6,531.4 510.6,452.2 570.9,531.4 601.2,531.4 601.2,389.7 
		565.2,389.7 	"/>
	<polygon points="728.1,389.7 609.5,389.7 609.5,423.8 650.6,423.8 650.6,531.4 687.1,531.4 687.1,423.8 728.1,423.8 	"/>
	<path d="M766.5,388.7l-60.8,142.7h37.7l12.3-30.3h52.6l12.3,30.3h38.4l-60.7-142.7H766.5z M795,468.2h-25.8l12.9-31.5L795,468.2z"
		/>
	<rect x="865.1" y="389.7" width="36.5" height="141.8"/>
	<polygon points="1011.5,466.1 953.3,389.7 920.8,389.7 920.8,531.4 956.9,531.4 956.9,452.2 1017.2,531.4 1047.6,531.4 
		1047.6,389.7 1011.5,389.7 	"/>
	<path d="M1124.5,444c-24.4-6.3-26.6-8.8-26.6-14.9c0-5.1,5.5-8.4,14-8.4c10,0,20.8,4.2,33.1,12.7l2.8,1.9l19.2-27.8l-2.5-2
		c-14.8-11.9-32.4-17.9-52.2-17.9c-29.8,0-50.6,18.1-50.6,44.5c0,30,21.4,37.9,47.3,44.6c22.9,5.9,24.6,9.3,24.6,14.3
		c0,8.7-12.3,9.3-16.1,9.3c-13.3,0-25.1-4.8-38.2-15.6l-2.6-2.1l-21.8,26.1l2.4,2.2c16.2,14.5,37.4,22.4,59.6,22.4
		c32.2,0,52.9-17.8,52.9-45.6C1169.9,461.2,1151.7,451.1,1124.5,444z"/>
	<path d="M358.5,217.1c-29.4,0-53.3,23.9-53.3,53.3c0,29.4,23.9,53.3,53.3,53.3c29.4,0,53.3-23.9,53.3-53.3
		C411.8,241,387.9,217.1,358.5,217.1z"/>
	<path d="M419.4,178.9L437,144l11.8,5.9l41.9-82.4c6.1-12.7,0.8-28.2-11.8-34.5c-3.7-1.9-7.6-2.8-11.7-2.8c-8.6,0-16.5,4.2-21.3,11
		l-0.3-0.1l-43.4,85.4l11.8,5.9l-17.8,35.3c-12.2-4.3-24.8-6.4-37.6-6.4c-61.8,0-112,49.2-112,109.6c0,60.4,50.3,109.6,112,109.6
		c61.8,0,112-49.2,112-109.6C470.6,233.4,451.5,199.3,419.4,178.9z M358.6,337c-37.4,0-67.7-29.7-67.7-66.1
		c0-36.5,30.4-66.1,67.7-66.1c37.3,0,67.7,29.7,67.7,66.1C426.3,307.3,395.9,337,358.6,337z M458.4,54.6c1.4-2.8,4.3-4.6,7.5-4.6
		c1.3,0,2.6,0.3,3.8,0.9c2,1,3.5,2.7,4.2,4.8c0.7,2.1,0.5,4.4-0.5,6.4c-2,4-7.2,5.7-11.2,3.7C458,63.7,456.3,58.7,458.4,54.6z"/>
	<path d="M1149.2,157h4.2l4.3,5.8h2.1l-4.6-6c2.3-0.4,4-1.9,4-4.3v-0.1c0-1.2-0.4-2.2-1.1-2.9c-0.9-0.9-2.4-1.5-4.2-1.5h-6.4v14.8
		h1.7V157z M1149.2,149.5h4.6c2.4,0,3.8,1.1,3.8,2.9v0c0,1.9-1.6,3.1-3.8,3.1h-4.5V149.5z"/>
	<path d="M1152.8,170c8.1,0,14.7-6.6,14.7-14.7c0-8.1-6.6-14.7-14.7-14.7c-8.1,0-14.7,6.6-14.7,14.7
		C1138.2,163.5,1144.8,170,1152.8,170z M1152.8,142.3c7.2,0,13,5.8,13,13c0,7.2-5.8,13-13,13c-7.2,0-13-5.8-13-13
		C1139.8,148.2,1145.7,142.3,1152.8,142.3z"/>
</g>
</svg>
