<?xml version="1.0" encoding="utf-8"?>
<!-- Generator: Adobe Illustrator 19.0.0, SVG Export Plug-In . SVG Version: 6.00 Build 0)  -->
<!DOCTYPE svg PUBLIC "-//W3C//DTD SVG 1.1//EN" "http://www.w3.org/Graphics/SVG/1.1/DTD/svg11.dtd">
<svg version="1.1" id="Ebene_1" xmlns="http://www.w3.org/2000/svg" xmlns:xlink="http://www.w3.org/1999/xlink" x="0px" y="0px"
	 width="140px" height="100px" viewBox="-219.3 268 140 100" style="enable-background:new -219.3 268 140 100;"
	 xml:space="preserve">
<style type="text/css">
	.st0{fill:#11586C;}
</style>
<g>
	<path class="st0" d="M-118.1,327.8c0,0-0.2,0.6-0.2,0.6l-0.2,1c0,0-3.6,15.8-4.1,18.3c-0.1-0.7-3.6-16.5-3.6-16.5
		c-0.2-0.7-0.4-1.5-0.6-2.4l-0.2-0.7c-1-2.4-3.3-3.9-5.9-3.9c-2.5,0-4.8,1.5-5.8,3.7c-0.2,0.5-0.3,1-0.5,1.6
		c-0.1,0.6-0.3,1.2-0.4,1.7c0,0-3,14.2-3.5,16.5c-0.2-0.6-4.4-18.4-4.4-18.4l-0.2-0.8c-0.1-0.5-0.2-0.8-0.3-1.2
		c-0.8-1.9-2.7-3.2-4.8-3.2c-1.5,0-2.9,0.7-4,1.8c-0.7,0.9-1.2,1.9-1.3,3c0,0,0,0.2,0,0.2c0,0.3,0,0.6,0,0.9
		c0.1,1.1,0.4,1.9,0.6,2.8l6.9,22.6l0.2,0.5l0.4,1c1.1,2.4,3.5,4,6.1,4l0.1,0c2.8,0,5.2-1.7,6.2-4.3c0,0,0.3-1.1,0.3-1.1
		c0,0,0.1-0.2,0.1-0.2s3.9-15.7,4.1-16.3c0.1,0.6,4.1,16.5,4.1,16.5l0.3,1.1c1,2.6,3.5,4.3,6.3,4.4l0.1,0c2.6,0,5-1.6,6.1-3.9
		c0.1-0.4,0.3-0.8,0.4-1.3l0.1-0.4l6.9-22.6c0.3-0.8,0.5-1.7,0.6-2.8c0-0.3,0-0.6,0-0.9l0-0.2c-0.1-1.1-0.5-2.2-1.3-3
		c-1-1.1-2.4-1.8-3.9-1.8C-115.4,324.3-117.4,325.8-118.1,327.8"/>
	<path class="st0" d="M-141.5,277.3l0,39c0,3,2.4,5.4,5.4,5.4c3,0,5.4-2.4,5.4-5.4v-0.1v-15.6c0-4.2,3.4-6.8,6.5-6.8
		c4.6,0,5.3,3.7,5.3,5.9v16.6l0,0.1c0,2.9,2.5,5.3,5.4,5.3c3,0,5.4-2.4,5.4-5.4v-18.4c0-8.2-4.7-13.2-12.6-13.2c-4,0-7.5,1.4-10,4
		v-11.4v-0.1c-0.1-2.9-2.5-5.3-5.4-5.3C-139.1,271.8-141.5,274.3-141.5,277.3"/>
	<path class="st0" d="M-169.9,347.5c0,3.5-3.2,6.9-8.4,6.9c-3.2,0-5.3-1.8-5.3-3.9c0-2.9,2.1-4.1,6.1-4.7l3.4-0.5
		c1.1-0.2,3.1-0.5,4.1-1.5V347.5z M-159.2,355.2c-0.3-1-0.6-2.2-0.6-4.6v-15.9c0-6.6-5.7-10.3-15.9-10.3c-9.6,0-15.6,4.6-15.6,9
		c0,2.4,2,4.4,4.4,4.4c1.1,0,2-0.4,2.8-1c0.5-0.4,0.9-0.8,1.4-1.2c1.5-1.4,3.1-3,6.9-3c2.6,0,5.4,0.9,5.4,3.4c0,2.2-1.2,2.7-3.6,3
		l-5.8,0.6c-6.8,0.8-13.7,2.8-13.7,11.4c0,6.4,5.7,10.2,11.3,10.2c5.2,0,9.2-1.6,12.6-4.9c0.5,3.2,2.6,4.9,6,4.9
		c2.7,0,4.8-1.8,4.8-4.2C-158.9,356.3-159,355.8-159.2,355.2"/>
	<path class="st0" d="M-171.3,286.3c-0.5,0-1,0.1-1.5,0.2c-1.8,0.6-3,2.3-3,4.2c0,1.9,1.2,3.6,3,4.2c0.5,0.1,1,0.2,1.5,0.2h12.1
		c-0.5,0.5-16.8,18.3-16.8,18.3c-0.9,1-1.4,2.3-1.4,3.9l0,0.2c0.1,1.9,1.6,4,4.6,4.2l0.3,0h24.2c0.5,0,1-0.1,1.5-0.2
		c1.8-0.6,3-2.3,3-4.2c0-1.9-1.2-3.6-3-4.2l0,0c-0.5-0.1-1-0.2-1.5-0.2h-14c0.5-0.5,16.5-18.1,16.5-18.1c1.1-1.1,1.7-2.5,1.7-3.7
		l0-0.5c-0.1-0.8-0.2-1.5-0.6-2.1c-0.5-1-1.3-1.7-2.4-2c-0.5-0.2-1.1-0.2-1.7-0.2H-171.3z"/>
</g>
</svg>
