<?xml version="1.0" encoding="utf-8"?>
<!-- Generator: Adobe Illustrator 19.0.0, SVG Export Plug-In . SVG Version: 6.00 Build 0)  -->
<!DOCTYPE svg PUBLIC "-//W3C//DTD SVG 1.1//EN" "http://www.w3.org/Graphics/SVG/1.1/DTD/svg11.dtd">
<svg version="1.1" id="Ebene_1" xmlns="http://www.w3.org/2000/svg" xmlns:xlink="http://www.w3.org/1999/xlink" x="0px" y="0px"
	 width="321px" height="100px" viewBox="36 271 321 100" style="enable-background:new 36 271 321 100;" xml:space="preserve">
<style type="text/css">
	.st0{fill:#11586C;}
	.st1{opacity:0.7;fill:#11586C;enable-background:new    ;}
</style>
<g>
	<polygon id="XMLID_71_" class="st0" points="184.7,314.6 193.7,314.6 194.1,314.6 194.5,314.9 194.7,315.4 194.9,315.8 
		194.9,330.1 192.7,330.4 190.2,330.6 187.8,330.9 185.4,330.9 183.5,330.9 181.8,330.6 180.1,330.4 178.6,330.1 177.2,329.5 
		175.9,328.9 174.8,328.1 173.6,327.3 172.7,326.4 171.9,325.2 171.2,324.1 170.8,322.8 170.3,321.5 169.9,319.9 169.7,318.3 
		169.7,316.6 169.7,315 169.9,313.6 170.3,312.2 170.6,310.9 171.2,309.6 171.9,308.3 172.7,307.3 173.5,306.3 174.5,305.5 
		175.6,304.7 176.7,304 178.1,303.4 179.5,303 180.9,302.6 182.5,302.4 184.1,302.4 185.6,302.4 187,302.6 188.4,302.7 189.6,303.1 
		190.8,303.4 192,303.9 193,304.5 193.9,304.9 191.2,309.6 189.6,309.1 187.8,308.6 186.2,308.3 184.7,308.3 183.8,308.3 
		182.9,308.3 182,308.6 181.4,308.8 180.6,309.1 180,309.5 179.4,310 178.9,310.5 178.5,311.1 178.1,311.8 177.8,312.5 177.5,313.2 
		177.2,314.8 177.1,316.6 177.2,318.5 177.3,319.4 177.5,320.2 177.9,321 178.2,321.7 178.6,322.3 179.2,322.9 179.6,323.4 
		180.2,323.9 180.9,324.3 181.6,324.7 182.4,324.9 183.2,325 184.1,325.1 185.1,325.2 186.7,325.1 188.2,325 188.2,320.2 
		184.7,320.2 	"/>
	<polygon id="XMLID_70_" class="st0" points="124.6,314.6 133.6,314.6 134,314.6 134.4,314.9 134.6,315.4 134.6,315.8 134.6,330.1 
		132.5,330.4 130.1,330.6 127.6,330.9 125.3,330.9 123.5,330.9 121.6,330.6 120,330.4 118.4,330.1 117.1,329.5 115.7,328.9 
		114.5,328.1 113.5,327.3 112.6,326.4 111.8,325.2 111,324.1 110.5,322.8 110,321.5 109.8,319.9 109.6,318.3 109.6,316.6 109.6,315 
		109.8,313.6 110,312.2 110.5,310.9 111,309.6 111.8,308.3 112.5,307.3 113.4,306.3 114.3,305.5 115.5,304.7 116.6,304 117.9,303.4 
		119.2,303 120.8,302.6 122.4,302.4 124,302.4 125.5,302.4 126.9,302.6 128.2,302.7 129.5,303.1 130.7,303.4 131.9,303.9 
		132.9,304.5 133.7,304.9 130.9,309.6 129.4,309.1 127.7,308.6 126.1,308.3 124.6,308.3 123.5,308.3 122.7,308.3 121.9,308.6 
		121.1,308.8 120.4,309.1 119.8,309.5 119.2,310 118.8,310.5 118.4,311.1 117.9,311.8 117.6,312.5 117.3,313.2 117,314.8 
		116.8,316.6 117.1,318.5 117.2,319.4 117.4,320.2 117.6,321 118.2,321.7 118.4,322.3 119,322.9 119.5,323.4 120.1,323.9 
		120.8,324.3 121.5,324.7 122.3,324.9 123.1,325 124,325.1 124.9,325.2 126.4,325.1 128,325 128,320.2 124.6,320.2 	"/>
	<polygon id="XMLID_69_" class="st1" points="250.8,330.4 250.8,314.6 244,330.4 240.2,330.4 233.5,314.6 233.5,330.4 226.4,330.4 
		226.4,302.8 235.8,302.8 242.4,318.5 249.2,302.8 258,302.8 258,330.4 	"/>
	<path id="XMLID_66_" class="st0" d="M153,308.6L153,308.6l-3.6,10.8h6.9L153,308.6z M148.5,302.8h9.1l10.6,27.6h-8.1l-2.1-5.9
		h-10.4l-2.2,5.9H138L148.5,302.8z"/>
	<polygon id="XMLID_65_" class="st0" points="72.8,304.1 72.8,308.1 60.7,308.1 60.7,313.8 72.2,313.8 72.2,319.1 60.7,319.1 
		60.7,325.2 73.2,325.2 73.2,330.4 53.3,330.4 53.3,302.8 71.7,302.8 72.2,303 72.5,303.2 72.8,303.6 	"/>
	<polygon id="XMLID_64_" class="st0" points="220.3,304.1 220.3,308.1 208.1,308.1 208.1,313.8 219.7,313.8 219.7,319.1 
		208.1,319.1 208.1,325.2 220.7,325.2 220.7,330.4 200.7,330.4 200.7,302.8 219.2,302.8 219.7,303 220,303.2 220.3,303.6 	"/>
	<polygon id="XMLID_63_" class="st0" points="284,304.1 284,308.1 271.9,308.1 271.9,313.8 283.4,313.8 283.4,319.1 271.9,319.1 
		271.9,325.2 284.4,325.2 284.4,330.4 264.5,330.4 264.5,302.8 282.9,302.8 283.4,303 283.7,303.2 284,303.6 	"/>
	<polygon id="XMLID_62_" class="st0" points="104.4,304.1 104.4,330.4 95.3,330.4 85.6,311.6 85.4,311.6 85.7,330.4 78.9,330.4 
		78.9,302.8 88.3,302.8 97.7,321.5 97.8,321.5 97.7,302.8 103.2,302.8 103.7,303 104,303.3 104.3,303.6 	"/>
	<polygon id="XMLID_61_" class="st0" points="315.5,304.1 315.5,330.4 306.5,330.4 296.8,311.6 296.6,311.6 296.9,330.4 
		290.1,330.4 290.1,302.8 299.5,302.8 308.9,321.5 309,321.5 308.7,302.8 314.4,302.8 314.9,303 315.2,303.3 315.5,303.6 	"/>
	<polygon id="XMLID_60_" class="st0" points="341.2,304.1 341.2,308.3 334.3,308.3 334.3,330.4 327,330.4 327,308.3 320,308.3 
		320,302.8 340,302.8 340.5,303 340.8,303.3 341.1,303.6 	"/>
	<polygon id="XMLID_59_" class="st0" points="53.3,336.4 58.4,336.4 58.4,337.5 54.7,337.5 54.7,340.2 58,340.2 58,341.3 
		54.7,341.3 54.7,344.3 58.4,344.3 58.4,345.5 53.3,345.5 	"/>
	<rect id="XMLID_58_" x="61.6" y="336.4" class="st0" width="1.2" height="9.1"/>
	<polygon id="XMLID_57_" class="st0" points="66.6,336.4 68.4,336.4 72.3,343.6 72.3,336.4 73.7,336.4 73.7,345.5 71.9,345.5 
		67.9,338 67.9,345.5 66.6,345.5 	"/>
	<polygon id="XMLID_56_" class="st0" points="81.9,336.4 86.7,336.4 86.7,337.5 83.2,337.5 83.2,340.2 86.5,340.2 86.5,341.3 
		83.2,341.3 83.2,345.5 81.9,345.5 	"/>
	<path id="XMLID_51_" class="st0" d="M93.8,334.5h1.2v1.2h-1.2V334.5z M91.7,334.5h1.2v1.2h-1.2V334.5z M93.3,344.4L93.3,344.4
		l0.7-0.1l0.7-0.2l0.4-0.4l0.4-0.4l0.2-0.6l0.2-0.6l0.1-0.7l0.1-0.7l-0.1-0.6l-0.1-0.7l-0.2-0.6l-0.4-0.6l-0.4-0.4l-0.6-0.4
		l-0.6-0.1l-0.7-0.1l-0.7,0.1l-0.6,0.1l-0.6,0.4l-0.4,0.4l-0.4,0.6l-0.2,0.6l-0.1,0.7l-0.1,0.6l0.1,0.7l0.1,0.7l0.2,0.6l0.2,0.6
		l0.4,0.4l0.4,0.4l0.7,0.2L93.3,344.4z M93.3,336.3L93.3,336.3l0.9,0.1l0.9,0.2l0.7,0.4l0.7,0.6l0.4,0.7l0.4,0.7l0.2,0.9l0.1,0.9
		l-0.1,1l-0.2,0.9l-0.4,0.8l-0.4,0.7l-0.7,0.4l-0.7,0.4l-0.9,0.2l-0.9,0.1l-0.9-0.1l-0.9-0.2l-0.7-0.4l-0.7-0.4l-0.4-0.7l-0.4-0.8
		l-0.2-0.9l-0.1-1l0.1-0.9l0.2-0.9l0.4-0.7l0.4-0.7l0.7-0.6l0.7-0.4l0.9-0.2L93.3,336.3z"/>
	<path id="XMLID_48_" class="st0" d="M101.8,340.3h1l0.8-0.1l0.7-0.2l0.2-0.2l0.1-0.2l0.1-0.4v-0.2l-0.1-0.6l-0.4-0.4l-0.6-0.2
		l-0.7-0.1h-1.2V340.3z M100.6,336.4h2.2l1.2,0.1l0.6,0.1l0.6,0.2l0.4,0.4l0.4,0.4l0.1,0.6l0.1,0.8v0.4l-0.1,0.4l-0.2,0.4l-0.2,0.2
		l-0.6,0.4l-0.7,0.2v0.1l0.4,0.2l0.4,0.6l1.6,3.7h-1.4l-1.4-3.2l-0.4-0.4l-0.4-0.2l-0.4-0.1h-0.4h-0.8v4h-1.2L100.6,336.4
		L100.6,336.4z"/>
	<path id="XMLID_45_" class="st0" d="M111,344.3h1.4l0.8-0.1l0.7-0.1l0.6-0.2l0.4-0.4l0.4-0.6l0.4-0.6l0.1-0.7l0.1-0.8l-0.1-0.7
		l-0.1-0.7l-0.4-0.6l-0.4-0.4l-0.6-0.4l-0.6-0.4l-0.6-0.1l-0.7-0.1h-1.5L111,344.3L111,344.3z M109.7,336.4h2.7l0.9,0.1l0.9,0.2
		l0.8,0.4l0.8,0.6l0.6,0.6l0.4,0.8l0.4,0.8l0.1,1l-0.1,1l-0.2,0.9l-0.4,0.8l-0.6,0.7l-0.6,0.4l-0.9,0.4l-0.9,0.2l-1,0.1h-2.7
		L109.7,336.4L109.7,336.4z"/>
	<polygon id="XMLID_44_" class="st0" points="120.2,336.4 125.1,336.4 125.1,337.5 121.5,337.5 121.5,340.2 124.9,340.2 
		124.9,341.3 121.5,341.3 121.5,344.3 125.1,344.3 125.1,345.5 120.2,345.5 	"/>
	<path id="XMLID_41_" class="st0" d="M129.7,340.3h1l0.8-0.1l0.7-0.2l0.2-0.2l0.1-0.2l0.1-0.4v-0.2l-0.1-0.6l-0.4-0.4l-0.6-0.2
		l-0.8-0.1h-1.2V340.3z M128.2,336.4h2.3l1.2,0.1l0.6,0.1l0.6,0.2l0.4,0.4l0.4,0.4l0.2,0.6l0.1,0.8v0.4l-0.1,0.4l-0.2,0.4l-0.2,0.2
		l-0.6,0.4l-0.7,0.2v0.1l0.4,0.2l0.4,0.6l1.7,3.7h-1.5l-1.4-3.2l-0.2-0.4l-0.4-0.2l-0.4-0.1h-0.4h-0.7v4h-1.4
		C128.2,345.6,128.2,336.4,128.2,336.4z"/>
	<polygon id="XMLID_40_" class="st0" points="137.5,336.4 142.3,336.4 142.3,337.5 138.8,337.5 138.8,340.2 142.1,340.2 
		142.1,341.3 138.8,341.3 138.8,345.5 137.5,345.5 	"/>
	<path id="XMLID_37_" class="st0" d="M148.8,344.4L148.8,344.4l0.7-0.1l0.6-0.2l0.6-0.4l0.4-0.4l0.4-0.6l0.2-0.6l0.1-0.7v-0.7v-0.6
		l-0.1-0.7l-0.2-0.6l-0.4-0.6l-0.4-0.4l-0.4-0.4l-0.6-0.1l-0.7-0.1l-0.8,0.1l-0.6,0.1L147,338l-0.4,0.4l-0.4,0.6l-0.2,0.6l-0.1,0.7
		v0.6v0.7l0.1,0.7l0.2,0.6l0.4,0.6l0.4,0.4l0.6,0.4l0.6,0.2L148.8,344.4z M148.8,336.3L148.8,336.3l0.9,0.1l0.8,0.2l0.8,0.4l0.6,0.6
		l0.4,0.7l0.4,0.7l0.1,0.9l0.1,0.9l-0.1,1l-0.1,0.9l-0.4,0.8l-0.6,0.7l-0.6,0.4l-0.8,0.4l-0.8,0.2l-0.9,0.1l-1-0.1l-0.8-0.2
		l-0.8-0.4l-0.6-0.4l-0.6-0.7l-0.4-0.8l-0.1-0.9l-0.1-1l0.1-0.9l0.1-0.9l0.4-0.7l0.4-0.7l0.6-0.6l0.8-0.4l0.8-0.2L148.8,336.3z"/>
	<polygon id="XMLID_36_" class="st0" points="156,336.4 157.7,336.4 161.6,343.6 161.8,343.6 161.8,336.4 163,336.4 163,345.5 
		161.3,345.5 157.3,338 157.3,345.5 156,345.5 	"/>
	<path id="XMLID_33_" class="st0" d="M167.9,344.3h1.2l0.8-0.1l0.7-0.1l0.6-0.2l0.6-0.4l0.4-0.6l0.2-0.6l0.2-0.7v-0.8v-0.7l-0.2-0.7
		l-0.4-0.6l-0.4-0.4l-0.4-0.4l-0.6-0.4l-0.6-0.1l-0.7-0.1h-1.5L167.9,344.3L167.9,344.3z M166.6,336.4h2.7l1,0.1l0.9,0.2l0.8,0.4
		l0.7,0.6l0.6,0.6l0.4,0.8l0.2,0.8l0.1,1l-0.1,1l-0.2,0.9l-0.4,0.8l-0.6,0.7l-0.7,0.4l-0.8,0.4l-0.9,0.2l-1.2,0.1h-2.7L166.6,336.4
		L166.6,336.4z"/>
	<polygon id="XMLID_32_" class="st0" points="181.1,337.8 181.1,337.8 180.2,337.5 179.4,337.4 178.8,337.4 178.4,337.6 
		178.1,337.8 177.9,338 177.8,338.3 177.8,338.6 177.9,338.9 178,339.2 178.4,339.6 179,340 179.8,340.3 180.4,340.6 181.1,341.2 
		181.4,341.6 181.4,341.9 181.6,342.4 181.7,342.9 181.6,343.5 181.4,344.1 181.1,344.5 180.6,345 180.2,345.2 179.6,345.5 
		179,345.6 178.4,345.6 177.4,345.5 176.5,345.2 176.6,344 177.5,344.3 178,344.4 178.6,344.4 179.2,344.3 179.8,344.1 180,343.8 
		180.1,343.6 180.2,343.3 180.3,342.9 180.3,342.6 180.1,342.4 180,342 179.8,341.9 179,341.4 178.4,341.1 177.7,340.8 177.1,340.3 
		176.7,340 176.6,339.6 176.5,339.2 176.4,338.7 176.5,338.1 176.6,337.6 176.9,337.3 177.3,336.8 177.7,336.6 178.2,336.4 
		178.7,336.3 179.3,336.3 180.3,336.4 181.2,336.6 	"/>
	<path id="XMLID_29_" class="st0" d="M190.6,344.3h1.4l0.8-0.1l0.7-0.1l0.6-0.2l0.4-0.4l0.4-0.6l0.2-0.6l0.1-0.7l0.1-0.8l-0.1-0.7
		l-0.1-0.7l-0.4-0.6l-0.4-0.4l-0.6-0.4l-0.4-0.4l-0.7-0.1l-0.7-0.1h-1.5V344.3z M189.3,336.4h2.7l1,0.1l0.8,0.2l0.9,0.4l0.7,0.6
		l0.6,0.6l0.4,0.8l0.2,0.8l0.1,1l-0.1,1l-0.2,0.9l-0.4,0.8l-0.4,0.7l-0.7,0.4l-0.8,0.4l-1,0.2l-1,0.1h-2.7L189.3,336.4L189.3,336.4z
		"/>
	<polygon id="XMLID_28_" class="st0" points="199.7,336.4 204.8,336.4 204.8,337.5 201,337.5 201,340.2 204.4,340.2 204.4,341.3 
		201,341.3 201,344.3 204.8,344.3 204.8,345.5 199.7,345.5 	"/>
	<path id="XMLID_25_" class="st0" d="M209.2,340.3h1.2l0.8-0.1l0.6-0.2l0.2-0.2l0.2-0.2v-0.4l0.1-0.2l-0.1-0.6l-0.4-0.4l-0.6-0.2
		l-0.8-0.1h-1.2V340.3z M207.9,336.4h2.2l1.3,0.1l0.7,0.1l0.4,0.2l0.4,0.4l0.4,0.4l0.2,0.6l0.1,0.8l-0.1,0.4l-0.1,0.4l-0.1,0.4
		l-0.2,0.2l-0.6,0.4l-0.8,0.2v0.1l0.6,0.2l0.4,0.6l1.7,3.7h-1.5l-1.4-3.2l-0.4-0.4l-0.4-0.2l-0.4-0.1H210h-0.8v4h-1.2V336.4z"/>
	<polygon id="XMLID_24_" class="st0" points="221.6,336.4 223.8,336.4 226.6,343.8 229.3,336.4 231.6,336.4 231.6,345.5 
		230.3,345.5 230.3,337.6 230.1,337.6 227.3,345.5 226,345.5 223,337.6 222.9,337.6 222.9,345.5 221.6,345.5 	"/>
	<rect id="XMLID_23_" x="235.2" y="336.4" class="st0" width="1.2" height="9.1"/>
	<polygon id="XMLID_22_" class="st0" points="246.7,338 246.7,338 246.2,337.8 245.7,337.5 244.9,337.4 244.2,337.4 243.4,337.5 
		242.8,337.6 242.2,338 241.7,338.4 241.2,338.9 241,339.5 240.8,340.2 240.7,340.8 240.8,341.6 241,342.4 241.4,342.9 241.7,343.5 
		242.2,343.8 242.8,344.2 243.4,344.4 244.1,344.4 245.1,344.4 245.5,344.3 245.5,341.6 243.7,341.6 243.7,340.5 246.9,340.5 
		246.9,345.1 245.9,345.5 245.1,345.6 244.1,345.6 243.1,345.5 242.2,345.2 241.4,344.9 240.7,344.3 240.1,343.6 239.7,342.8 
		239.4,341.9 239.4,340.8 239.4,340 239.7,339 240.1,338.2 240.7,337.5 241.4,336.9 242.2,336.6 243.1,336.4 244.1,336.3 
		244.9,336.3 245.7,336.4 246.8,336.7 	"/>
	<path id="XMLID_19_" class="st0" d="M251.5,340.3h1l0.8-0.1l0.7-0.2l0.2-0.2l0.1-0.2l0.1-0.4v-0.2l-0.1-0.6l-0.4-0.4l-0.6-0.2
		l-0.7-0.1h-1.2V340.3z M250.2,336.4h2.2l1.2,0.1l0.6,0.1l0.6,0.2l0.4,0.4l0.4,0.4l0.1,0.6l0.1,0.8v0.4l-0.1,0.4l-0.2,0.4l-0.2,0.2
		l-0.6,0.4L254,341v0.1l0.4,0.2l0.4,0.6l1.6,3.7h-1.4l-1.4-3.2l-0.4-0.4l-0.4-0.2l-0.4-0.1h-0.4h-0.8v4h-1.2L250.2,336.4
		L250.2,336.4z"/>
	<path id="XMLID_16_" class="st0" d="M263.1,344.4L263.1,344.4l0.7-0.1l0.7-0.2l0.4-0.4l0.4-0.4l0.2-0.6l0.2-0.6l0.1-0.7l0.1-0.7
		l-0.1-0.6l-0.1-0.7l-0.2-0.6l-0.4-0.6l-0.4-0.4l-0.6-0.4l-0.6-0.1l-0.7-0.1l-0.7,0.1l-0.6,0.1l-0.6,0.4l-0.4,0.4l-0.4,0.6l-0.2,0.6
		l-0.1,0.7l-0.1,0.6l0.1,0.7l0.1,0.7l0.2,0.6l0.2,0.6l0.4,0.4l0.4,0.4l0.7,0.2L263.1,344.4z M263.1,336.3L263.1,336.3l0.9,0.1
		l0.9,0.2l0.7,0.4l0.7,0.6l0.4,0.7l0.4,0.7l0.2,0.9l0.1,0.9l-0.1,1l-0.2,0.9l-0.4,0.8l-0.4,0.7l-0.7,0.4l-0.7,0.4l-0.9,0.2l-0.9,0.1
		l-1-0.1l-0.8-0.2l-0.7-0.4l-0.7-0.4l-0.4-0.7l-0.4-0.8l-0.2-0.9l-0.1-1l0.1-0.9l0.2-0.9l0.4-0.7l0.4-0.7l0.7-0.6l0.7-0.4l0.8-0.2
		L263.1,336.3z"/>
	<polygon id="XMLID_15_" class="st0" points="274.4,337.8 274.4,337.8 273.5,337.5 272.7,337.4 272.1,337.4 271.6,337.6 
		271.4,337.8 271.1,338 271.1,338.3 271,338.6 271.1,338.9 271.3,339.2 271.6,339.6 272.3,340 272.9,340.3 273.7,340.6 274.4,341.2 
		274.6,341.6 274.7,341.9 274.8,342.4 274.9,342.9 274.8,343.5 274.7,344.1 274.4,344.5 273.9,345 273.5,345.2 272.9,345.5 
		272.3,345.6 271.6,345.6 270.7,345.5 269.8,345.2 269.9,344 270.8,344.3 271.3,344.4 271.9,344.4 272.4,344.3 272.9,344.1 
		273.2,343.8 273.3,343.6 273.5,343.3 273.5,342.9 273.5,342.6 273.5,342.4 273.2,342 272.9,341.9 272.3,341.4 271.6,341.1 
		270.9,340.8 270.3,340.3 270,340 269.9,339.6 269.8,339.2 269.6,338.7 269.8,338.1 269.9,337.6 270.2,337.3 270.6,336.8 
		270.9,336.6 271.5,336.4 271.9,336.3 272.5,336.3 273.5,336.4 274.5,336.6 	"/>
	<rect id="XMLID_14_" x="277" y="341.4" class="st0" width="3.3" height="1"/>
	<polygon id="XMLID_13_" class="st0" points="289.9,338 289.9,338 289.3,337.8 288.8,337.5 288.1,337.4 287.3,337.4 286.6,337.5 
		285.9,337.6 285.4,338 284.8,338.4 284.4,338.9 284.1,339.5 284,340.2 283.8,340.8 284,341.6 284.1,342.4 284.4,342.9 284.9,343.5 
		285.4,343.8 285.9,344.2 286.6,344.4 287.3,344.4 288.2,344.4 288.7,344.3 288.7,341.6 286.8,341.6 286.8,340.5 289.9,340.5 
		289.9,345.1 288.9,345.5 288.2,345.6 287.2,345.6 286.2,345.5 285.4,345.2 284.5,344.9 283.8,344.3 283.3,343.6 282.8,342.8 
		282.5,341.9 282.5,340.8 282.5,340 282.8,339 283.3,338.2 283.8,337.5 284.5,336.9 285.4,336.6 286.2,336.4 287.3,336.3 
		288.1,336.3 288.8,336.4 289.9,336.7 	"/>
	<path id="XMLID_10_" class="st0" d="M294.6,340.3h1.2l0.8-0.1l0.6-0.2l0.2-0.2l0.2-0.2l0.1-0.4v-0.2l-0.1-0.6l-0.4-0.4l-0.6-0.2
		l-0.8-0.1h-1.2V340.3L294.6,340.3z M293.3,336.4h2.2l1.4,0.1l0.6,0.1l0.4,0.2l0.4,0.4l0.4,0.4l0.2,0.6l0.1,0.8l-0.1,0.4l-0.1,0.4
		l-0.1,0.4l-0.2,0.2l-0.6,0.4L297,341v0.1l0.4,0.2l0.4,0.6l1.7,3.7h-1.5l-1.4-3.2l-0.2-0.4l-0.4-0.2l-0.4-0.1h-0.4h-0.8v4h-1.2
		L293.3,336.4L293.3,336.4z"/>
	<polygon id="XMLID_9_" class="st0" points="309.2,341.6 309.2,341.6 309.1,342.6 309,343.4 308.7,344.1 308.3,344.5 307.7,345 
		307.1,345.3 306.5,345.5 305.6,345.6 304.8,345.5 304.2,345.3 303.6,345 303.1,344.5 302.6,344.1 302.4,343.4 302.2,342.6 
		302.2,341.6 302.2,336.4 303.4,336.4 303.4,341.6 303.6,342.7 303.6,343.2 303.9,343.6 304.2,344 304.6,344.2 305.1,344.4 
		305.6,344.4 306.2,344.4 306.7,344.2 307.1,344 307.3,343.6 307.6,343.2 307.7,342.7 307.9,341.6 307.9,336.4 309.2,336.4 	"/>
	<path id="XMLID_6_" class="st0" d="M313.7,340.6h1.3h0.7l0.6-0.4l0.2-0.1l0.2-0.4l0.1-0.4V339v-0.4l-0.2-0.4l-0.1-0.2l-0.4-0.2
		l-0.6-0.2l-0.7-0.1h-1.2V340.6z M312.4,336.4h2.4l0.7,0.1l0.6,0.1l0.6,0.1l0.4,0.2l0.4,0.4l0.4,0.4l0.1,0.6l0.1,0.7l-0.1,0.7
		l-0.1,0.6l-0.4,0.4l-0.4,0.4l-0.4,0.2l-0.4,0.2l-0.6,0.1H315h-1.3v3.7h-1.2V336.4z"/>
	<path id="XMLID_3_" class="st0" d="M322,340.6h1.4h0.6l0.6-0.4l0.2-0.1l0.2-0.4l0.1-0.4V339v-0.4l-0.2-0.4l-0.1-0.2l-0.4-0.2
		l-0.6-0.2l-0.7-0.1h-1.2L322,340.6L322,340.6z M320.8,336.4h2.4l0.7,0.1l0.6,0.1l0.6,0.1l0.4,0.2l0.4,0.4l0.4,0.4l0.1,0.6l0.1,0.7
		l-0.1,0.7l-0.1,0.6l-0.4,0.4l-0.4,0.4l-0.6,0.2l-0.4,0.2l-0.6,0.1h-0.7H322v3.7h-1.2V336.4z"/>
	<polygon id="XMLID_2_" class="st0" points="329.2,336.4 334.3,336.4 334.3,337.5 330.6,337.5 330.6,340.2 333.9,340.2 333.9,341.3 
		330.6,341.3 330.6,344.3 334.3,344.3 334.3,345.5 329.2,345.5 	"/>
</g>
</svg>
