<svg xmlns="http://www.w3.org/2000/svg" width="200" height="200" viewBox="0 0 200 200">
  <g id="Nutrients-Icon-Inverted" fill="none" fill-rule="evenodd">
    <path id="Path-3" fill="#FFF" d="M84.1910179,167.306945 C61.397006,158.650446 50,144.468618 50,124.761462 C50,99.1936877 63.0593107,96.3284563 76.5484802,74.1651813 C80.4291193,67.7891275 85.013873,54.0674004 90.3027415,33 C126.685407,57.3614691 146.590621,81.4407351 150.018383,105.237798 C153.446144,129.034861 143.955519,148.991545 121.546507,165.107852 C129.957016,143.889004 132.542657,127.309578 129.303431,115.369575 C126.064205,103.429572 116.987788,92.329668 102.074181,82.0698627 C97.2074875,94.8070517 93.0195519,103.496275 89.5103746,108.137533 C80.6648881,119.836622 72.8022871,129.418499 71.4166525,136.022893 C69.1342067,146.901786 73.3923284,157.329803 84.1910179,167.306945 Z"/>
  </g>
</svg>
