<svg xmlns="http://www.w3.org/2000/svg" width="200" height="200" viewBox="0 0 200 200">
  <g id="Seasonal-Icon" fill="none" fill-rule="evenodd">
    <g id="Group-31" fill="#161717" transform="translate(14 13)">
      <path id="Fill-13" d="M127.895,86.856 C127.895,63.996 109.365,45.466 86.505,45.466 C63.645,45.466 45.115,63.996 45.115,86.856 C45.115,109.716 63.645,128.246 86.505,128.246 C109.365,128.246 127.895,109.716 127.895,86.856"/>
      <path id="Fill-15" d="M73.53,134.673 C79.44,143.793 76.1,151.883 76.1,151.883 C71.6,165.113 79.18,172.433 79.18,172.433 C73.53,165.373 84.58,154.713 84.58,154.713 C92.41,146.873 90.62,136.733 90.62,136.733 C79.44,137.753 73.53,134.673 73.53,134.673"/>
      <path id="Fill-17" d="M154.219,91.541 C146.379,83.701 136.239,85.501 136.239,85.501 C137.259,96.681 134.179,102.591 134.179,102.591 C143.299,96.681 151.389,100.021 151.389,100.021 C164.619,104.511 171.939,96.931 171.939,96.931 C164.879,102.591 154.219,91.541 154.219,91.541"/>
      <path id="Fill-19" d="M36.36,89.967 C35.26,78.797 38.3,72.867 38.3,72.867 C29.22,78.837 21.11,75.547 21.11,75.547 C7.85,71.147 0.58,78.767 0.58,78.767 C7.6,73.077 18.34,84.047 18.34,84.047 C26.22,91.827 36.36,89.967 36.36,89.967"/>
      <path id="Fill-21" d="M99.835,38.455 C93.535,29.605 96.515,21.375 96.515,21.375 C100.425,7.955 92.525,0.975 92.525,0.975 C98.485,7.785 87.915,18.925 87.915,18.925 C80.435,27.095 82.675,37.155 82.675,37.155 C93.795,35.635 99.835,38.455 99.835,38.455"/>
      <path id="Fill-23" d="M133.155,135.984 C133.155,124.904 124.705,118.994 124.705,118.994 C117.535,127.624 111.175,129.624 111.175,129.624 C121.805,131.894 125.165,139.984 125.165,139.984 C131.335,152.514 141.875,152.33414 141.875,152.33414 C132.885,151.334 133.155,135.984 133.155,135.984"/>
      <path id="Fill-25" d="M131.376,64.052 C133.646,53.422 141.726,50.062 141.726,50.062 C154.266,43.892 154.08614,33.352 154.08614,33.352 C153.086,42.342 137.736,42.072 137.736,42.072 C126.656,42.072 120.746,50.522 120.746,50.522 C129.376,57.692 131.376,64.052 131.376,64.052"/>
      <path id="Fill-27" d="M42.564,110.832 C40.364,121.472 32.304,124.892 32.304,124.892 C19.814,131.152 20.064,141.682 20.064,141.682 C21.004,132.682 36.354,132.852 36.354,132.852 C47.434,132.782 53.284,124.292 53.284,124.292 C44.604,117.182 42.564,110.832 42.564,110.832"/>
      <path id="Fill-29" d="M39.501,37.605 C39.991,48.675 48.681,54.205 48.681,54.205 C55.471,45.275 61.741,42.995 61.741,42.995 C51.021,41.185 47.311,33.265 47.311,33.265 C40.591,21.015 30.071,21.655 30.071,21.655 C39.101,22.255 39.501,37.605 39.501,37.605"/>
    </g>
  </g>
</svg>
