<svg xmlns="http://www.w3.org/2000/svg" xmlns:xlink="http://www.w3.org/1999/xlink" width="100%" height="100%" viewBox="0 0 69 37"><defs><polygon id="a" points="6.664 0 13.327 0 13.327 11.231 0 11.231 0 0"/><polygon id="c" points="6.548 2.753 0 2.753 0 0 6.548 0"/></defs><g fill="none" fill-rule="evenodd"><rect width="36.585" height="36.585"/><path fill="#E6E6E6" fill-rule="nonzero" d="M12.8379227,21.9687576 C12.4256607,21.2006873 12.2117235,20.4106307 12.1961113,19.5985877 C12.1678071,18.1263957 12.755146,17.2989382 12.8904374,17.0253955 C13.3282676,16.1401561 14.176497,15.3686668 14.7985618,14.8214888 C15.4106091,14.2831224 16.2976028,13.5274831 17.5910549,12.8418486 C18.140429,12.5506358 19.1246996,12.1318082 20.5438667,11.5853659 C20.2846605,12.3377251 20.1728075,12.8955041 20.2083074,13.2587029 C20.2427135,13.6107101 20.2824209,13.9133023 20.4424673,14.2642343 C20.7624571,14.9658721 21.0189299,15.0579011 22.5246664,16.4462817 C22.6243479,16.5381941 23.3509942,17.2341585 23.8687872,18.1680396 C24.2903118,18.9282929 24.4649407,19.9138387 24.3858498,20.6874665 C24.244131,22.0736899 23.467231,23.2053155 22.0551496,24.0823434 L22.0497796,24.081193 C21.0363487,24.8088165 19.7350387,25.2462056 18.315768,25.2462056 C15.8112507,25.2462056 13.674062,23.8841788 12.8379227,21.9687576 Z"/><g transform="translate(32.317)"><rect width="36.585" height="36.585"/><g fill-rule="nonzero" transform="translate(11.28 11.585)"><path fill="#FEFEFE" d="M3.6873436,4.11684847 C3.6873436,4.11684847 3.83366474,3.81625905 3.98138832,3.69237693 C4.1291119,3.56849481 4.40445742,3.07623872 4.40445742,3.07623872 L4.82098181,2.724694 L5.184681,2.63400295 C5.184681,2.63400295 5.2791119,2.58959237 5.49041271,2.55032408 C5.70124604,2.51105579 8.22142899,2.5475192 8.22142899,2.5475192 L8.36728265,2.56060864 C8.36728265,2.56060864 8.38831923,2.56294603 8.62533143,2.63400295 C8.86234362,2.70505986 9.38825826,2.87382002 9.38825826,2.87382002 L9.7201688,3.16879969 L9.82909155,3.69237693 C9.82909155,3.69237693 10.0857379,3.91723466 10.142303,4.0747753 C10.1984005,4.23231595 9.19425417,8.2512387 9.19425417,8.2512387 L9.10449807,10.4787794 L9.30411191,11.9667672 L9.25642899,12.6455477 C9.25642899,12.6455477 8.66085984,12.9082713 8.18730295,13.3500396 C7.71374606,13.7922753 5.587181,13.3112387 5.587181,13.3112387 C5.587181,13.3112387 4.90372571,12.7708322 4.55779076,12.6548972 L4.55358344,11.8386777 L4.6466119,9.4844501 L4.84061596,7.04233626 L4.25813629,4.71288506 L3.6873436,4.13508018 L3.6873436,4.11684847 Z"/><path fill="#383D3C" d="M4.86459766,3.25902327 C4.86459766,3.25902327 4.45648791,3.45816961 4.38636596,3.55774278 C4.31671149,3.65731595 4.14748385,3.82654359 3.93852043,3.84664522 C3.72908954,3.86674685 3.51030905,3.69705173 3.13165051,3.50818994 C2.75299198,3.31886067 2.32478059,2.94020213 1.69742287,3.00985661 C1.07006515,3.07997856 0.661487908,3.29875905 0.362768398,3.48808831 C0.0640488858,3.67741758 -0.114995829,4.01587286 0.084150512,4.29495823 C0.283296853,4.57357612 0.69140661,5.01207205 0.86063425,5.11164522 C1.03032937,5.21121839 1.08969929,5.48983628 1.5978497,5.74882002 C2.1060001,6.00780376 2.6534188,6.02790539 3.02226027,5.98816961 C3.39063425,5.94796636 3.71927246,5.94796636 3.71927246,5.94796636 C3.71927246,5.94796636 3.71927246,6.19713303 3.80902856,6.47575089 C3.89831718,6.75483626 4.17740254,7.20314931 4.25687409,7.4219298 C4.33681312,7.64117772 4.28679279,8.06938912 4.26715864,8.41812894 C4.24705702,8.76686882 4.27697571,9.81262083 4.35644726,10.051503 C4.43638629,10.290385 4.52614238,10.878007 4.46630498,11.0472347 C4.40646759,11.2169298 4.34663019,11.9536777 4.41628466,12.2626818 C4.48593913,12.5712184 4.49622368,12.6707916 4.57569523,12.6408728 C4.65563425,12.6109542 4.62571555,12.0532509 4.71500417,11.8241859 C4.80476027,11.5951208 4.86459766,11.5652021 4.86459766,11.3361371 C4.86459766,11.1070721 4.89451637,10.9677631 5.02400824,10.9775802 C5.1535001,10.9878647 5.21333751,11.0673363 5.36246352,11.0472347 C5.51205702,11.0276005 5.83041068,10.4497956 5.95008547,10.3899582 C6.06976027,10.3301208 6.17915051,9.24463303 6.12959765,9.07540541 C6.12959765,9.07540541 6.32874399,8.58735662 6.24880496,8.24890132 C6.16933344,7.90997858 6.20906923,7.35227528 5.9701871,6.76465333 C5.73083751,6.17703138 5.55179279,5.66934847 5.51205702,5.27105579 C5.47232124,4.87229563 5.47232124,4.49410457 5.22315458,4.25475498 C4.97398791,4.01587286 4.86459766,3.25902327 4.86459766,3.25902327"/><path fill="#FEFEFE" d="M0.448223683,4.09342774 C0.629138317,3.93214725 1.24621149,3.67316352 1.58793913,3.9770253 C1.41403669,4.05649685 1.36962612,4.13222856 1.36962612,4.13222856 C1.36962612,4.13222856 1.89039848,4.16495213 2.0348497,4.46507408 C1.89180092,4.46647652 1.83850824,4.50714725 1.83850824,4.50714725 C2.53785783,4.76098872 2.54720742,5.00220823 3.57566271,4.98023669 C3.51021555,5.11346839 3.33350824,5.68426108 2.45371149,5.63751311 C1.57391474,5.59029766 0.753487908,4.93722856 0.448223683,4.09342774"/><path fill="#383D3C" d="M1.4031339,0.257610204 C1.4031339,0.257610204 1.81124365,0.456756544 1.8813656,0.556329714 C1.95102007,0.655902885 2.12024771,0.825130531 2.32921113,0.845232153 C2.53864202,0.865333781 2.75742251,0.695638659 3.13608105,0.506776873 C3.51473958,0.317447603 3.94295097,-0.0612109338 4.57030869,0.00844353751 C5.19766641,0.0785654887 5.60624365,0.297345977 5.90496316,0.486675245 C6.20368269,0.676004513 6.38272739,1.0144598 6.18358105,1.29354517 C5.98443471,1.57216305 5.57632495,2.01065898 5.40662983,2.11023215 C5.23740219,2.20980532 5.17756479,2.48842321 4.66988186,2.74740695 C4.16173146,3.00639069 3.61431276,3.02649232 3.24547129,2.98675654 C2.87709731,2.94655329 2.5484591,2.94655329 2.5484591,2.94655329 C2.5484591,2.94655329 2.5484591,3.19571996 2.458703,3.47433785 C2.3689469,3.75342321 2.09032902,4.20173622 2.01085747,4.42051671 C1.93091844,4.63976468 1.98093877,5.06797606 2.00057292,5.4167159 C2.02067454,5.76545573 1.99075585,6.81120774 1.9112843,7.05008988 C1.83134527,7.28897201 1.74158918,7.87659396 1.80142658,8.04582159 C1.86126398,8.21551671 1.92110137,8.9522647 1.8514469,9.26126872 C1.78179243,9.56980531 1.77150788,9.66937848 1.69203633,9.63945982 C1.61209731,9.6095411 1.64201601,9.05183787 1.55272739,8.82277281 C1.46297129,8.59370774 1.4031339,8.56378909 1.4031339,8.33472403 C1.4031339,8.10565896 1.37321519,7.96635006 1.24372332,7.97616714 C1.11423146,7.98645165 1.05439405,8.06592323 0.905268042,8.04582159 C0.755674542,8.02618744 0.436853406,7.44838256 0.317646089,7.38854518 C0.197971292,7.32870774 0.0885810482,6.24321994 0.138133894,6.07399232 C0.138133894,6.07399232 -0.0610124477,5.58594354 0.0189265769,5.24748825 C0.0983981214,4.90856549 0.0586623489,4.35086224 0.297544463,3.76324029 C0.536426577,3.17561834 0.715938774,2.66793541 0.755674542,2.26964273 C0.795410317,1.87088256 0.795410317,1.49269151 1.04457698,1.25334191 C1.29374365,1.0144598 1.4031339,0.257610204 1.4031339,0.257610204" transform="translate(7.542 3.001)"/><path fill="#FEFEFE" d="M13.3618822,4.09342774 C13.1809676,3.93214725 12.5638944,3.67316352 12.2221668,3.9770253 C12.3960692,4.05649685 12.4404798,4.13222856 12.4404798,4.13222856 C12.4404798,4.13222856 11.9197074,4.16495213 11.7752562,4.46507408 C11.918305,4.46647652 11.9715976,4.50714725 11.9715976,4.50714725 C11.2722481,4.76098872 11.2628985,5.00220823 10.2344432,4.98023669 C10.2998903,5.11346839 10.4765976,5.68426108 11.3563944,5.63751311 C12.2361912,5.59029766 13.0570855,4.93722856 13.3618822,4.09342774"/><path fill="#121112" d="M8.63365252,11.8314786 C8.39196557,11.6865599 8.36391679,11.8487753 8.12222978,11.8314786 C7.88054277,11.8146493 7.82491271,11.328003 7.51824606,11.2938769 C7.21157935,11.2597509 6.90491271,11.4560924 6.90491271,11.4560924 C6.90491271,11.4560924 6.5987135,11.2597509 6.29157935,11.2938769 C5.98491271,11.328003 5.92928263,11.8146493 5.68759563,11.8314786 C5.44590864,11.8487753 5.41785986,11.6865599 5.17617287,11.8314786 C4.93495336,11.9768647 4.80452653,12.3639379 4.95318507,12.6822916 C5.1018436,13.0011127 5.63196555,13.2572916 5.67824604,13.4447509 C5.72499401,13.6326777 5.84560376,13.914568 6.15227045,13.9313972 C6.4589371,13.948694 6.90491271,13.8547306 6.90491271,13.8547306 C6.90491271,13.8547306 7.35088832,13.948694 7.65755496,13.9313972 C7.96422167,13.914568 8.08529887,13.6326777 8.13157935,13.4447509 C8.17832734,13.2572916 8.70798179,13.0011127 8.85664033,12.6822916 C9.00529887,12.3639379 8.87533954,11.9768647 8.63365252,11.8314786"/><path fill="#FEFEFE" d="M5.58540458 12.3522977C5.72190864 12.3864237 5.77005905 12.6084765 5.897681 12.6823383 6.02530295 12.7562001 6.25483545 13.1544928 6.06877856 13.217135 5.88272165 13.2797774 5.56062815 13.114757 5.52322978 12.9497367 5.48629888 12.7847164 5.62280295 12.7393708 5.52322978 12.6426025 5.42412409 12.5458342 5.33156312 12.4546757 5.29416474 12.3181716 5.25676637 12.1816676 5.20721352 12.0792896 5.29416474 12.0792896 5.38111596 12.0792896 5.44890051 12.3181716 5.58540458 12.3522977M8.22474807 12.3522977C8.08824399 12.3864237 8.04009362 12.6084765 7.91247167 12.6823383 7.78484972 12.7562001 7.55531716 13.1544928 7.74137411 13.217135 7.927431 13.2797774 8.24952448 13.114757 8.28645539 12.9497367 8.32385374 12.7847164 8.18734972 12.7393708 8.28645539 12.6426025 8.38602856 12.5458342 8.47858954 12.4546757 8.51598789 12.3181716 8.5533863 12.1816676 8.60293911 12.0792896 8.51598789 12.0792896 8.42903667 12.0792896 8.36125216 12.3181716 8.22474807 12.3522977"/><path fill="#121112" d="M8.3674696,2.56079563 C8.3674696,2.56079563 8.59326228,2.52386473 8.65403466,2.41026717 C8.04350618,2.45280783 7.87147368,2.29339725 7.61108752,2.17652734 C7.35023387,2.05965742 6.94539643,2.12229969 6.94539643,2.12229969 L6.86452246,2.12229969 C6.86452246,2.12229969 6.46015252,2.05965742 6.19929887,2.17652734 C5.93844523,2.29339725 5.76641271,2.45280783 5.15588425,2.41026717 C5.21665661,2.52386473 5.44244929,2.56079563 5.44244929,2.56079563 C5.44244929,2.56079563 5.25732734,2.91514522 4.83238832,2.97918994 C5.33118913,3.0904501 5.61448181,2.91374278 5.61448181,2.91374278 C5.61448181,2.91374278 5.73275417,3.05679156 5.6953558,3.20825498 C5.84728669,3.15122246 5.91133141,2.88662896 5.91133141,2.88662896 C5.91133141,2.88662896 5.87767287,3.3227875 5.77295742,3.3802875 C5.92816068,3.36673059 6.03755092,3.17459644 6.03755092,3.17459644 C6.03755092,3.17459644 5.95527449,3.58925091 6.22173789,3.76128344 C6.22501027,3.65703547 6.24885173,3.56914929 6.24885173,3.56914929 C6.39610783,3.90573466 6.70744929,3.87768587 6.90051838,4.09132408 L6.90519319,4.09599888 L6.90940051,4.09132408 C7.1024696,3.87768587 7.41427856,3.90573466 7.56153466,3.56914929 C7.56153466,3.56914929 7.58490862,3.65703547 7.5886485,3.76128344 C7.85464441,3.58925091 7.77283545,3.17459644 7.77283545,3.17459644 C7.77283545,3.17459644 7.88175826,3.36673059 8.03696149,3.3802875 C7.93224606,3.3227875 7.89858752,2.88662896 7.89858752,2.88662896 C7.89858752,2.88662896 7.96263222,3.15122246 8.11456313,3.20825498 C8.07763222,3.05679156 8.1954371,2.91374278 8.1954371,2.91374278 C8.1954371,2.91374278 8.47872978,3.0904501 8.97799807,2.97918994 C8.55305905,2.91514522 8.3674696,2.56079563 8.3674696,2.56079563"/><path fill="#FFF" d="M9.05003667,7.02106595 C9.05003667,7.02106595 9.63719118,7.14448059 9.79706923,6.79854565 C9.928431,6.51385053 9.69422368,6.25159443 9.69422368,6.25159443 C9.69422368,6.25159443 9.74751637,6.16043589 9.96395948,6.13004967 C9.96769929,6.06880986 9.69422368,5.99307815 9.40158143,6.23990742 C9.10893911,6.48720419 9.05003667,7.02106595 9.05003667,7.02106595"/><path fill="#121112" d="M9.50704484 6.46682205C9.50704484 6.5121676 9.54397569 6.54909845 9.58932124 6.54909845 9.63513423 6.54909845 9.67159765 6.5121676 9.67159765 6.46682205 9.67159765 6.4214765 9.63513423 6.38454565 9.58932124 6.38454565 9.54397569 6.38454565 9.50704484 6.4214765 9.50704484 6.46682205M9.77383545 6.60870211C9.83086801 6.84805175 9.54944521 6.96211675 9.39751435 6.89760455 9.51157935 6.89012492 9.7359696 6.87095821 9.77383545 6.60870211"/><path fill="#FFF" d="M4.76006921,7.02106595 C4.76006921,7.02106595 4.17291474,7.14448059 4.01303669,6.79854565 C3.8816749,6.51385053 4.11588222,6.25159443 4.11588222,6.25159443 C4.11588222,6.25159443 4.06258954,6.16043589 3.84614644,6.13004967 C3.84240661,6.06880986 4.11588222,5.99307815 4.40852449,6.23990742 C4.70116677,6.48720419 4.76006921,7.02106595 4.76006921,7.02106595"/><path fill="#121112" d="M4.30306108,6.46682205 C4.30306108,6.5121676 4.26613019,6.54909845 4.22078466,6.54909845 C4.17497165,6.54909845 4.13850824,6.5121676 4.13850824,6.46682205 C4.13850824,6.4214765 4.17497165,6.38454565 4.22078466,6.38454565 C4.26613019,6.38454565 4.30306108,6.4214765 4.30306108,6.46682205"/><path fill="#000" d="M4.03627043,6.60870211 C3.97923791,6.84805175 4.26066068,6.96211675 4.41259157,6.89760455 C4.29852653,6.89012492 4.07413629,6.87095821 4.03627043,6.60870211"/><path fill="#121112" d="M5.18482124 2.63400295C5.18482124 2.63400295 3.41213832 2.38951108 2.58282937 1.81544603 1.75352043 1.241381 1.72079685.650954168 1.80728059.348027336 1.89329685.0455679867 1.70583751-.197053965 1.46742287.231157418 1.22947571.659836277 1.19160986 1.8416249 1.91947571 2.51386067 2.64687409 3.18562896 3.98106108 3.69237693 3.98106108 3.69237693 3.98106108 3.69237693 4.27323588 3.52875905 4.39478059 3.38524278 4.51632531 3.24172652 4.60795132 3.23190945 4.69209766 3.02668587 4.77624401 2.82192978 5.18482124 2.63400295 5.18482124 2.63400295M8.62528466 2.63400295C8.62528466 2.63400295 10.3979676 2.38951108 11.2272765 1.81544603 12.0565855 1.241381 12.089309.650954168 12.0028253.348027336 11.916809.0455679867 12.1042684-.197053965 12.342683.231157418 12.5806302.659836277 12.6184961 1.8416249 11.8906302 2.51386067 11.1632318 3.18562896 9.82904484 3.69237693 9.82904484 3.69237693 9.82904484 3.69237693 9.53687002 3.52875905 9.41532533 3.38524278 9.29378057 3.24172652 9.2021546 3.23190945 9.11800826 3.02668587 9.03386191 2.82192978 8.62528466 2.63400295 8.62528466 2.63400295"/></g></g><g transform="translate(15.854)"><g transform="translate(11.89 11.675)"><mask id="b" fill="#fff"><use xlink:href="#a"/></mask><path fill="#72B74E" fill-rule="nonzero" d="M13.327439,6.48502439 C13.327439,5.75004878 12.8431708,5.13417073 12.1880894,4.95621951 C12.0539431,4.427 11.6626829,4.00529268 11.1600813,3.84634146 C11.2325203,3.66190244 11.2732114,3.46078049 11.2732114,3.24946341 C11.2732114,2.37592683 10.5895122,1.66736585 9.746626,1.66736585 C9.47430892,1.66736585 9.21943087,1.74197561 8.99853661,1.87126829 C8.74142276,1.41341463 8.27012197,1.10246341 7.72638209,1.08531707 C7.48357722,0.44997561 6.88707319,2.53861972e-16 6.18772356,2.53861972e-16 C5.68422764,2.53861972e-16 5.23439025,0.233560976 4.93077236,0.600585366 C4.83239837,0.579731707 4.73044715,0.569073171 4.62581301,0.569073171 C3.91573171,0.569073171 3.32056911,1.07234146 3.15020325,1.75263415 C2.97670732,1.68219512 2.78890244,1.64187805 2.59170732,1.64187805 C1.74837398,1.64187805 1.06512195,2.35043902 1.06512195,3.22397561 C1.06512195,3.26382927 1.06780488,3.3027561 1.07048781,3.34168293 C0.461910569,3.5497561 0.0223577236,4.14292683 0.0223577236,4.84360976 C0.0223577236,5.61982927 0.561626016,6.26397561 1.27304878,6.39882927 C1.16260162,6.59485366 1.09150406,6.81729268 1.07182927,7.05502439 C0.450731708,7.25568293 -2.19088171e-16,7.85626829 -2.19088171e-16,8.5657561 C-2.19088171e-16,9.4397561 0.683252033,10.1478537 1.52658537,10.1478537 C1.56146342,10.1478537 1.59544715,10.1450732 1.62987805,10.1427561 C1.83020325,10.7748537 2.40345528,11.2313171 3.08,11.2313171 C3.5504065,11.2313171 3.97073171,11.0107317 4.2506504,10.6640976 C4.37764228,10.6932927 4.50910569,10.7095122 4.64504065,10.7095122 C4.99247967,10.7095122 5.31621951,10.6070976 5.59256098,10.4323902 C5.7445935,10.4847561 5.90691057,10.514878 6.07638211,10.514878 C6.36077234,10.514878 6.62682929,10.4323902 6.85487807,10.2915122 C7.07398374,10.4787317 7.35434959,10.590878 7.66020325,10.590878 C8.05325203,10.590878 8.40471545,10.4055122 8.63723575,10.1140244 C8.79284551,10.1575854 8.95516258,10.1826098 9.12373984,10.1826098 C9.4421138,10.1826098 9.74170734,10.0996585 10.0046342,9.95460976 C10.2747154,10.3994878 10.7513821,10.6960732 11.2960162,10.6960732 C12.1393496,10.6960732 12.8230488,9.98797561 12.8230488,9.11397561 C12.8230488,8.65982927 12.6370325,8.25156098 12.3414634,7.96331707 C12.9173984,7.73670732 13.327439,7.16114634 13.327439,6.48502439" mask="url(#b)"/></g><g transform="translate(15.256 22.247)"><mask id="d" fill="#fff"><use xlink:href="#c"/></mask><path fill="#72B74E" fill-rule="nonzero" d="M6.35119569,2.07273519 C6.35119569,2.07273519 6.09326886,1.88850174 5.70089082,1.90897213 C5.30851277,1.92944251 5.04509813,1.81184669 4.89464082,1.71428571 C4.7441835,1.61716028 4.70119569,1.2587108 4.71171399,1.08972126 C4.7226896,0.920731707 4.74921399,0.211672474 4.74921399,0.211672474 L4.79860423,0.162891987 C4.63076886,0.238675959 4.44326886,0.281358885 4.24525057,0.281358885 C3.93244569,0.281358885 3.64525057,0.175522648 3.42116521,3.38482629e-17 C3.1879335,0.131968641 2.91628716,0.209494774 2.62497618,0.209494774 C2.45805545,0.209494774 2.29799447,0.182926829 2.14753716,0.136759582 L2.12604325,0.193815331 C2.14753716,0.327090591 2.16400057,0.864547036 2.16400057,0.864547036 C2.16400057,0.864547036 2.17451886,1.34581882 1.83061643,1.54050523 C1.48671399,1.7347561 0.637476182,1.77090593 0.637476182,1.77090593 C0.637476182,1.77090593 0.0511956939,1.77569687 0.00454935244,2.24172474 C-0.042096989,2.70731707 0.285342035,2.75261324 0.285342035,2.75261324 L6.30820789,2.75261324 C6.30820789,2.75261324 6.45866521,2.76916376 6.53412252,2.5130662 C6.60912252,2.25696864 6.35119569,2.07273519 6.35119569,2.07273519" mask="url(#d)"/></g><rect width="36.585" height="36.585"/></g><rect width="36.585" height="36.585"/><path fill="#437FCD" fill-rule="nonzero" d="M12.8379227,21.9687576 C12.4256607,21.2006873 12.2117235,20.4106307 12.1961113,19.5985877 C12.1678071,18.1263957 12.755146,17.2989382 12.8904374,17.0253955 C13.3282676,16.1401561 14.176497,15.3686668 14.7985618,14.8214888 C15.4106091,14.2831224 16.2976028,13.5274831 17.5910549,12.8418486 C18.140429,12.5506358 19.1246996,12.1318082 20.5438667,11.5853659 C20.2846605,12.3377251 20.1728075,12.8955041 20.2083074,13.2587029 C20.2427135,13.6107101 20.2824209,13.9133023 20.4424673,14.2642343 C20.7624571,14.9658721 21.0189299,15.0579011 22.5246664,16.4462817 C22.6243479,16.5381941 23.3509942,17.2341585 23.8687872,18.1680396 C24.2903118,18.9282929 24.4649407,19.9138387 24.3858498,20.6874665 C24.244131,22.0736899 23.467231,23.2053155 22.0551496,24.0823434 L22.0497796,24.081193 C21.0363487,24.8088165 19.7350387,25.2462056 18.315768,25.2462056 C15.8112507,25.2462056 13.674062,23.8841788 12.8379227,21.9687576 Z"/></g></svg>