<?xml version="1.0" encoding="UTF-8"?>
<svg width="100%" height="100%" viewBox="0 0 164 60" version="1.1" xmlns="http://www.w3.org/2000/svg" xmlns:xlink="http://www.w3.org/1999/xlink">
    <!-- Generator: Sketch 48.1 (47250) - http://www.bohemiancoding.com/sketch -->
    <title>Environment</title>
    <desc>Created with Sketch.</desc>
    <defs>
        <path d="M30,37.9083933 C30,37.9005449 36,29.3137085 36,26 C36,22.6862915 33.3137085,20 30,20 C26.6862915,20 24,22.6862915 24,26 C24,29.3137085 30,37.9162417 30,37.9083933 Z" id="path-1"></path>
        <polygon id="path-2" points="10.9286833 0.14744 21.857 0.14744 21.857 18.5668 0.000366666667 18.5668 0.000366666667 0.14744"></polygon>
        <polygon id="path-4" points="11.2575786 5 0.519189062 5 0.519189062 0.485428571 11.2575786 0.485428571 11.2575786 5"></polygon>
    </defs>
    <g id="Symbols" stroke="none" stroke-width="1" fill="none" fill-rule="evenodd">
        <g id="Environment">
            <g id="Group-3">
                <g id="Group" transform="translate(104.000000, 0.000000)">
                    <rect id="Rectangle" x="0" y="0" width="60" height="60"></rect>
                    <g id="0" transform="translate(29.000000, 18.000000)" fill="#FFCF01">
                        <path d="M6.2514974,3.3659342 C5.61558724,4.17132667 5.01524772,4.21489648 4.07288599,4.77638534 C3.89152234,4.88444752 3.64885027,5.08126508 3.34486977,5.36683803 C3.27403931,4.91949921 3.18552876,4.61841059 3.07933811,4.46357217 C2.87791969,4.1698805 2.5294345,3.76266501 2.42908683,3.29398757 C2.33528343,2.85587537 2.53451921,2.12078251 3.02679418,1.08870899 C2.19367019,1.70967546 1.61241965,2.32508492 1.28304256,2.93493735 C0.953665466,3.54478979 0.692651281,4.38008785 0.5,5.44083154 L3.27370216,5.8133342 L5.64014771,7.08528977 C5.68224659,6.69030929 5.742083,6.43777161 5.81965696,6.32767672 C6.5907639,5.23330253 7.23822268,4.83350879 7.42879487,3.76266501 C7.5606045,3.02201382 7.38612757,1.93445881 6.90536408,0.5 C6.90288641,1.86167099 6.68493085,2.81698239 6.2514974,3.3659342 Z" id="Path-4"></path>
                    </g>
                    <g id="45" transform="translate(38.131728, 26.610913) rotate(45.000000) translate(-38.131728, -26.610913) translate(34.131728, 22.610913)" fill="#FFCF01">
                        <path d="M6.2514974,3.3659342 C5.61558724,4.17132667 5.01524772,4.21489648 4.07288599,4.77638534 C3.89152234,4.88444752 3.64885027,5.08126508 3.34486977,5.36683803 C3.27403931,4.91949921 3.18552876,4.61841059 3.07933811,4.46357217 C2.87791969,4.1698805 2.5294345,3.76266501 2.42908683,3.29398757 C2.33528343,2.85587537 2.53451921,2.12078251 3.02679418,1.08870899 C2.19367019,1.70967546 1.61241965,2.32508492 1.28304256,2.93493735 C0.953665466,3.54478979 0.692651281,4.38008785 0.5,5.44083154 L3.27370216,5.8133342 L5.64014771,7.08528977 C5.68224659,6.69030929 5.742083,6.43777161 5.81965696,6.32767672 C6.5907639,5.23330253 7.23822268,4.83350879 7.42879487,3.76266501 C7.5606045,3.02201382 7.38612757,1.93445881 6.90536408,0.5 C6.90288641,1.86167099 6.68493085,2.81698239 6.2514974,3.3659342 Z" id="Path-4"></path>
                    </g>
                    <g id="90" transform="translate(38.500000, 33.500000) rotate(90.000000) translate(-38.500000, -33.500000) translate(34.500000, 29.500000)" fill="#FFCF01">
                        <path d="M6.2514974,3.3659342 C5.61558724,4.17132667 5.01524772,4.21489648 4.07288599,4.77638534 C3.89152234,4.88444752 3.64885027,5.08126508 3.34486977,5.36683803 C3.27403931,4.91949921 3.18552876,4.61841059 3.07933811,4.46357217 C2.87791969,4.1698805 2.5294345,3.76266501 2.42908683,3.29398757 C2.33528343,2.85587537 2.53451921,2.12078251 3.02679418,1.08870899 C2.19367019,1.70967546 1.61241965,2.32508492 1.28304256,2.93493735 C0.953665466,3.54478979 0.692651281,4.38008785 0.5,5.44083154 L3.27370216,5.8133342 L5.64014771,7.08528977 C5.68224659,6.69030929 5.742083,6.43777161 5.81965696,6.32767672 C6.5907639,5.23330253 7.23822268,4.83350879 7.42879487,3.76266501 C7.5606045,3.02201382 7.38612757,1.93445881 6.90536408,0.5 C6.90288641,1.86167099 6.68493085,2.81698239 6.2514974,3.3659342 Z" id="Path-4"></path>
                    </g>
                    <g id="135" transform="translate(33.889087, 38.631728) rotate(135.000000) translate(-33.889087, -38.631728) translate(29.889087, 34.631728)" fill="#FFCF01">
                        <path d="M6.2514974,3.3659342 C5.61558724,4.17132667 5.01524772,4.21489648 4.07288599,4.77638534 C3.89152234,4.88444752 3.64885027,5.08126508 3.34486977,5.36683803 C3.27403931,4.91949921 3.18552876,4.61841059 3.07933811,4.46357217 C2.87791969,4.1698805 2.5294345,3.76266501 2.42908683,3.29398757 C2.33528343,2.85587537 2.53451921,2.12078251 3.02679418,1.08870899 C2.19367019,1.70967546 1.61241965,2.32508492 1.28304256,2.93493735 C0.953665466,3.54478979 0.692651281,4.38008785 0.5,5.44083154 L3.27370216,5.8133342 L5.64014771,7.08528977 C5.68224659,6.69030929 5.742083,6.43777161 5.81965696,6.32767672 C6.5907639,5.23330253 7.23822268,4.83350879 7.42879487,3.76266501 C7.5606045,3.02201382 7.38612757,1.93445881 6.90536408,0.5 C6.90288641,1.86167099 6.68493085,2.81698239 6.2514974,3.3659342 Z" id="Path-4"></path>
                    </g>
                    <g id="180" transform="translate(27.000000, 39.000000) rotate(180.000000) translate(-27.000000, -39.000000) translate(23.000000, 35.000000)" fill="#FFCF01">
                        <path d="M6.2514974,3.3659342 C5.61558724,4.17132667 5.01524772,4.21489648 4.07288599,4.77638534 C3.89152234,4.88444752 3.64885027,5.08126508 3.34486977,5.36683803 C3.27403931,4.91949921 3.18552876,4.61841059 3.07933811,4.46357217 C2.87791969,4.1698805 2.5294345,3.76266501 2.42908683,3.29398757 C2.33528343,2.85587537 2.53451921,2.12078251 3.02679418,1.08870899 C2.19367019,1.70967546 1.61241965,2.32508492 1.28304256,2.93493735 C0.953665466,3.54478979 0.692651281,4.38008785 0.5,5.44083154 L3.27370216,5.8133342 L5.64014771,7.08528977 C5.68224659,6.69030929 5.742083,6.43777161 5.81965696,6.32767672 C6.5907639,5.23330253 7.23822268,4.83350879 7.42879487,3.76266501 C7.5606045,3.02201382 7.38612757,1.93445881 6.90536408,0.5 C6.90288641,1.86167099 6.68493085,2.81698239 6.2514974,3.3659342 Z" id="Path-4"></path>
                    </g>
                    <g id="225" transform="translate(21.868272, 34.389087) rotate(225.000000) translate(-21.868272, -34.389087) translate(17.868272, 30.389087)" fill="#FFCF01">
                        <path d="M6.2514974,3.3659342 C5.61558724,4.17132667 5.01524772,4.21489648 4.07288599,4.77638534 C3.89152234,4.88444752 3.64885027,5.08126508 3.34486977,5.36683803 C3.27403931,4.91949921 3.18552876,4.61841059 3.07933811,4.46357217 C2.87791969,4.1698805 2.5294345,3.76266501 2.42908683,3.29398757 C2.33528343,2.85587537 2.53451921,2.12078251 3.02679418,1.08870899 C2.19367019,1.70967546 1.61241965,2.32508492 1.28304256,2.93493735 C0.953665466,3.54478979 0.692651281,4.38008785 0.5,5.44083154 L3.27370216,5.8133342 L5.64014771,7.08528977 C5.68224659,6.69030929 5.742083,6.43777161 5.81965696,6.32767672 C6.5907639,5.23330253 7.23822268,4.83350879 7.42879487,3.76266501 C7.5606045,3.02201382 7.38612757,1.93445881 6.90536408,0.5 C6.90288641,1.86167099 6.68493085,2.81698239 6.2514974,3.3659342 Z" id="Path-4"></path>
                    </g>
                    <g id="270" transform="translate(30.000000, 30.500000) rotate(270.000000) translate(-30.000000, -30.500000) translate(15.000000, 16.000000)">
                        <path d="M20.2514974,5.3659342 C19.6155872,6.17132667 19.0152477,6.21489648 18.072886,6.77638534 C17.8915223,6.88444752 17.6488503,7.08126508 17.3448698,7.36683803 C17.2740393,6.91949921 17.1855288,6.61841059 17.0793381,6.46357217 C16.8779197,6.1698805 16.5294345,5.76266501 16.4290868,5.29398757 C16.3352834,4.85587537 16.5345192,4.12078251 17.0267942,3.08870899 C16.1936702,3.70967546 15.6124196,4.32508492 15.2830426,4.93493735 C14.9536655,5.54478979 14.6926513,6.38008785 14.5,7.44083154 L17.2737022,7.8133342 L19.6401477,9.08528977 C19.6822466,8.69030929 19.742083,8.43777161 19.819657,8.32767672 C20.5907639,7.23330253 21.2382227,6.83350879 21.4287949,5.76266501 C21.5606045,5.02201382 21.3861276,3.93445881 20.9053641,2.5 C20.9028864,3.86167099 20.6849308,4.81698239 20.2514974,5.3659342 Z" id="Path-4" fill="#FFCF01"></path>
                        <circle id="Oval-3" stroke="#FFFFFF" stroke-width="0.75" cx="15" cy="14.5" r="14.125"></circle>
                    </g>
                    <g id="315" transform="translate(26.110913, 22.368272) rotate(315.000000) translate(-26.110913, -22.368272) translate(22.110913, 18.368272)" fill="#FFCF01">
                        <path d="M6.2514974,3.3659342 C5.61558724,4.17132667 5.01524772,4.21489648 4.07288599,4.77638534 C3.89152234,4.88444752 3.64885027,5.08126508 3.34486977,5.36683803 C3.27403931,4.91949921 3.18552876,4.61841059 3.07933811,4.46357217 C2.87791969,4.1698805 2.5294345,3.76266501 2.42908683,3.29398757 C2.33528343,2.85587537 2.53451921,2.12078251 3.02679418,1.08870899 C2.19367019,1.70967546 1.61241965,2.32508492 1.28304256,2.93493735 C0.953665466,3.54478979 0.692651281,4.38008785 0.5,5.44083154 L3.27370216,5.8133342 L5.64014771,7.08528977 C5.68224659,6.69030929 5.742083,6.43777161 5.81965696,6.32767672 C6.5907639,5.23330253 7.23822268,4.83350879 7.42879487,3.76266501 C7.5606045,3.02201382 7.38612757,1.93445881 6.90536408,0.5 C6.90288641,1.86167099 6.68493085,2.81698239 6.2514974,3.3659342 Z" id="Path-4"></path>
                    </g>
                    <circle id="Oval-3" fill="#FFCF01" cx="30" cy="30.5" r="6.5"></circle>
                    <circle id="Oval-3" stroke="#FFFFFF" stroke-width="0.75" fill="#FFCF01" cx="30" cy="30.5" r="6.75"></circle>
                </g>
                <g id="Group">
                    <g id="Group-2">
                        <rect id="Rectangle" x="0" y="0" width="60" height="60"></rect>
                        <path d="M21.0541933,36.0287624 C20.3780835,34.7691272 20.0272265,33.4734344 20.0016225,32.1416839 C19.9552037,29.727289 20.9184395,28.3702586 21.1403173,27.9216487 C21.8583588,26.469856 23.249455,25.2046136 24.2696414,24.3072417 C25.273399,23.4243208 26.7280686,22.1850723 28.84933,21.0606317 C29.7503035,20.5830427 31.3645073,19.8961655 33.6919414,19 C33.2668433,20.2338691 33.0834043,21.1486267 33.1416242,21.7442728 C33.1980501,22.3215646 33.2631703,22.8178158 33.5256464,23.3933442 C34.0504296,24.5440303 34.4710451,24.6949578 36.9404529,26.971902 C37.1039306,27.1226384 38.2956305,28.2640199 39.144811,29.795585 C39.8361113,31.0424003 40.1225027,32.6586955 39.9927937,33.927445 C39.7603749,36.2008514 38.4862588,38.0567175 36.1704453,39.4950432 L36.1616385,39.4931565 C34.4996118,40.686459 32.3654634,41.4037772 30.0378595,41.4037772 C25.9304511,41.4037772 22.4254616,39.1700532 21.0541933,36.0287624 Z" id="Combined-Shape" fill="#E6E6E6"></path>
                    </g>
                </g>
                <g id="Group" transform="translate(53.000000, 0.000000)">
                    <rect id="Rectangle" x="0" y="0" width="60" height="60"></rect>
                    <g id="Page-1" transform="translate(18.500000, 19.000000)">
                        <path d="M6.04746667,6.75180333 C6.04746667,6.75180333 6.28743333,6.25883667 6.5297,6.05567 C6.77196667,5.85250333 7.22353333,5.04520333 7.22353333,5.04520333 L7.90663333,4.46867 L8.5031,4.31993667 C8.5031,4.31993667 8.65796667,4.24710333 9.0045,4.18270333 C9.35026667,4.11830333 13.4833667,4.17810333 13.4833667,4.17810333 L13.7225667,4.19957 C13.7225667,4.19957 13.7570667,4.20340333 14.1457667,4.31993667 C14.5344667,4.43647 15.3969667,4.71323667 15.3969667,4.71323667 L15.9413,5.19700333 L16.1199333,6.05567 C16.1199333,6.05567 16.5408333,6.42443667 16.6336,6.68280333 C16.7256,6.94117 15.0788,13.5322033 15.0788,13.5322033 L14.9316,17.18537 L15.2589667,19.62567 L15.1807667,20.73887 C15.1807667,20.73887 14.2040333,21.1697367 13.4274,21.8942367 C12.6507667,22.6195033 9.1632,21.8306033 9.1632,21.8306033 C9.1632,21.8306033 8.04233333,20.9443367 7.475,20.7542033 L7.4681,19.4156033 L7.62066667,15.55467 L7.93883333,11.5496033 L6.98356667,7.72930333 L6.04746667,6.78170333 L6.04746667,6.75180333 Z" id="Fill-1" fill="#FEFEFE"></path>
                        <path d="M7.97816333,5.34497 C7.97816333,5.34497 7.30886333,5.67157 7.19386333,5.83487 C7.07963,5.99817 6.80209667,6.27570333 6.45939667,6.30867 C6.11593,6.34163667 5.75713,6.06333667 5.13613,5.75360333 C4.51513,5.44310333 3.81286333,4.82210333 2.78399667,4.93633667 C1.75513,5.05133667 1.08506333,5.41013667 0.595163333,5.72063667 C0.105263333,6.03113667 -0.18837,6.58620333 0.13823,7.04390333 C0.46483,7.50083667 1.13413,8.21997 1.41166333,8.38327 C1.68996333,8.54657 1.78733,9.00350333 2.62069667,9.42823667 C3.45406333,9.85297 4.35183,9.88593667 4.95673,9.82077 C5.56086333,9.75483667 6.09983,9.75483667 6.09983,9.75483667 C6.09983,9.75483667 6.09983,10.16347 6.24703,10.6204033 C6.39346333,11.0781033 6.85116333,11.8133367 6.98149667,12.1721367 C7.11259667,12.5317033 7.03056333,13.23397 6.99836333,13.8059033 C6.96539667,14.3778367 7.01446333,16.09287 7.14479667,16.4846367 C7.27589667,16.8764033 7.42309667,17.8401033 7.32496333,18.1176367 C7.22683,18.3959367 7.12869667,19.6042033 7.24293,20.11097 C7.35716333,20.61697 7.37403,20.78027 7.50436333,20.7312033 C7.63546333,20.6821367 7.58639667,19.7675033 7.73283,19.3918367 C7.88003,19.01617 7.97816333,18.9671033 7.97816333,18.5914367 C7.97816333,18.21577 8.02723,17.9873033 8.23959667,18.0034033 C8.45196333,18.02027 8.55009667,18.1506033 8.79466333,18.1176367 C9.03999667,18.0854367 9.56209667,17.1378367 9.75836333,17.0397033 C9.95463,16.94157 10.13403,15.16137 10.0527633,14.8838367 C10.0527633,14.8838367 10.3793633,14.0834367 10.2482633,13.52837 C10.11793,12.9725367 10.1830967,12.0579033 9.79133,11.0942033 C9.39879667,10.1305033 9.10516333,9.29790333 9.03999667,8.64470333 C8.97483,7.99073667 8.97483,7.37050333 8.56619667,6.97797 C8.15756333,6.58620333 7.97816333,5.34497 7.97816333,5.34497" id="Fill-3" fill="#383D3C"></path>
                        <path d="M0.73531,6.71339333 C1.03201,6.44889333 2.04401,6.02416 2.60444333,6.52249333 C2.31924333,6.65282667 2.24641,6.77702667 2.24641,6.77702667 C2.24641,6.77702667 3.10047667,6.83069333 3.33737667,7.32289333 C3.10277667,7.32519333 3.01537667,7.39189333 3.01537667,7.39189333 C4.16231,7.80819333 4.17764333,8.20379333 5.86431,8.16776 C5.75697667,8.38626 5.46717667,9.32236 4.02431,9.24569333 C2.58144333,9.16826 1.23594333,8.09722667 0.73531,6.71339333" id="Fill-5" fill="#FEFEFE"></path>
                        <g id="Group-9" transform="translate(12.266667, 4.451267)" fill="#383D3C">
                            <path d="M2.40426667,0.893703333 C2.40426667,0.893703333 3.07356667,1.22030333 3.18856667,1.38360333 C3.3028,1.54690333 3.58033333,1.82443667 3.92303333,1.85740333 C4.2665,1.89037 4.6253,1.61207 5.2463,1.30233667 C5.8673,0.991836667 6.56956667,0.370836667 7.59843333,0.48507 C8.6273,0.60007 9.29736667,0.95887 9.78726667,1.26937 C10.2771667,1.57987 10.5708,2.13493667 10.2442,2.59263667 C9.9176,3.04957 9.2483,3.76870333 8.97,3.93200333 C8.69246667,4.09530333 8.59433333,4.55223667 7.76173333,4.97697 C6.92836667,5.40170333 6.0306,5.43467 5.4257,5.36950333 C4.82156667,5.30357 4.2826,5.30357 4.2826,5.30357 C4.2826,5.30357 4.2826,5.71220333 4.1354,6.16913667 C3.9882,6.62683667 3.53126667,7.36207 3.40093333,7.72087 C3.26983333,8.08043667 3.35186667,8.78270333 3.38406667,9.35463667 C3.41703333,9.92657 3.36796667,11.6416033 3.23763333,12.03337 C3.10653333,12.4251367 2.95933333,13.3888367 3.05746667,13.66637 C3.1556,13.94467 3.25373333,15.1529367 3.1395,15.6597033 C3.02526667,16.1657033 3.0084,16.3290033 2.87806667,16.2799367 C2.74696667,16.23087 2.79603333,15.3162367 2.6496,14.94057 C2.5024,14.5649033 2.40426667,14.5158367 2.40426667,14.14017 C2.40426667,13.7645033 2.3552,13.5360367 2.14283333,13.5521367 C1.93046667,13.5690033 1.83233333,13.6993367 1.58776667,13.66637 C1.34243333,13.63417 0.819566667,12.68657 0.624066667,12.5884367 C0.4278,12.4903033 0.2484,10.7101033 0.329666667,10.43257 C0.329666667,10.43257 0.00306666667,9.63217 0.134166667,9.07710333 C0.2645,8.52127 0.199333333,7.60663667 0.5911,6.64293667 C0.982866667,5.67923667 1.27726667,4.84663667 1.34243333,4.19343667 C1.4076,3.53947 1.4076,2.91923667 1.81623333,2.52670333 C2.22486667,2.13493667 2.40426667,0.893703333 2.40426667,0.893703333" id="Fill-7"></path>
                        </g>
                        <path d="M21.91371,6.71339333 C21.61701,6.44889333 20.60501,6.02416 20.0445767,6.52249333 C20.3297767,6.65282667 20.40261,6.77702667 20.40261,6.77702667 C20.40261,6.77702667 19.5485433,6.83069333 19.3116433,7.32289333 C19.5462433,7.32519333 19.6336433,7.39189333 19.6336433,7.39189333 C18.48671,7.80819333 18.4713767,8.20379333 16.78471,8.16776 C16.8920433,8.38626 17.1818433,9.32236 18.62471,9.24569333 C20.0675767,9.16826 21.4138433,8.09722667 21.91371,6.71339333" id="Fill-10" fill="#FEFEFE"></path>
                        <path d="M14.1594133,19.4037967 C13.7630467,19.16613 13.7170467,19.4321633 13.32068,19.4037967 C12.9243133,19.3761967 12.83308,18.5780967 12.3301467,18.52213 C11.8272133,18.4661633 11.32428,18.7881633 11.32428,18.7881633 C11.32428,18.7881633 10.8221133,18.4661633 10.3184133,18.52213 C9.81548,18.5780967 9.72424667,19.3761967 9.32788,19.4037967 C8.93151333,19.4321633 8.88551333,19.16613 8.48914667,19.4037967 C8.09354667,19.64223 7.87964667,20.27703 8.12344667,20.79913 C8.36724667,21.3219967 9.23664667,21.74213 9.31254667,22.0495633 C9.38921333,22.3577633 9.58701333,22.8200633 10.0899467,22.8476633 C10.59288,22.87603 11.32428,22.72193 11.32428,22.72193 C11.32428,22.72193 12.05568,22.87603 12.5586133,22.8476633 C13.0615467,22.8200633 13.2601133,22.3577633 13.3360133,22.0495633 C13.41268,21.74213 14.2813133,21.3219967 14.5251133,20.79913 C14.7689133,20.27703 14.55578,19.64223 14.1594133,19.4037967" id="Fill-12" fill="#121112"></path>
                        <path d="M9.16028667,20.25794 C9.38415333,20.3139067 9.46312,20.6780733 9.67242,20.7992067 C9.88172,20.92034 10.2581533,21.57354 9.95302,21.6762733 C9.64788667,21.7790067 9.11965333,21.5083733 9.05832,21.23774 C8.99775333,20.9671067 9.22162,20.89274 9.05832,20.73404 C8.89578667,20.57534 8.74398667,20.42584 8.68265333,20.2019733 C8.62132,19.9781067 8.54005333,19.8102067 8.68265333,19.8102067 C8.82525333,19.8102067 8.93642,20.2019733 9.16028667,20.25794" id="Fill-14" fill="#FEFEFE"></path>
                        <path d="M13.48881,20.25794 C13.2649433,20.3139067 13.1859767,20.6780733 12.9766767,20.7992067 C12.7673767,20.92034 12.3909433,21.57354 12.6960767,21.6762733 C13.00121,21.7790067 13.5294433,21.5083733 13.59001,21.23774 C13.6513433,20.9671067 13.4274767,20.89274 13.59001,20.73404 C13.75331,20.57534 13.90511,20.42584 13.9664433,20.2019733 C14.0277767,19.9781067 14.1090433,19.8102067 13.9664433,19.8102067 C13.8238433,19.8102067 13.7126767,20.2019733 13.48881,20.25794" id="Fill-16" fill="#FEFEFE"></path>
                        <path d="M13.7228733,4.19987667 C13.7228733,4.19987667 14.0931733,4.13931 14.19284,3.95301 C13.1915733,4.02277667 12.90944,3.76134333 12.4824067,3.56967667 C12.0546067,3.37801 11.3906733,3.48074333 11.3906733,3.48074333 L11.25804,3.48074333 C11.25804,3.48074333 10.5948733,3.37801 10.1670733,3.56967667 C9.73927333,3.76134333 9.45714,4.02277667 8.45587333,3.95301 C8.55554,4.13931 8.92584,4.19987667 8.92584,4.19987667 C8.92584,4.19987667 8.62224,4.78101 7.92534,4.88604333 C8.74337333,5.06851 9.20797333,4.77871 9.20797333,4.77871 C9.20797333,4.77871 9.40194,5.01331 9.34060667,5.26171 C9.58977333,5.16817667 9.69480667,4.73424333 9.69480667,4.73424333 C9.69480667,4.73424333 9.63960667,5.44954333 9.46787333,5.54384333 C9.72240667,5.52161 9.90180667,5.20651 9.90180667,5.20651 C9.90180667,5.20651 9.76687333,5.88654333 10.2038733,6.16867667 C10.20924,5.99771 10.24834,5.85357667 10.24834,5.85357667 C10.48984,6.40557667 11.00044,6.35957667 11.3170733,6.70994333 L11.32474,6.71761 L11.33164,6.70994333 C11.6482733,6.35957667 12.15964,6.40557667 12.40114,5.85357667 C12.40114,5.85357667 12.4394733,5.99771 12.4456067,6.16867667 C12.88184,5.88654333 12.7476733,5.20651 12.7476733,5.20651 C12.7476733,5.20651 12.9263067,5.52161 13.18084,5.54384333 C13.0091067,5.44954333 12.9539067,4.73424333 12.9539067,4.73424333 C12.9539067,4.73424333 13.05894,5.16817667 13.3081067,5.26171 C13.24754,5.01331 13.44074,4.77871 13.44074,4.77871 C13.44074,4.77871 13.90534,5.06851 14.72414,4.88604333 C14.02724,4.78101 13.7228733,4.19987667 13.7228733,4.19987667" id="Fill-18" fill="#121112"></path>
                        <path d="M14.8422833,11.51472 C14.8422833,11.51472 15.8052167,11.71712 16.0674167,11.1497867 C16.28285,10.6828867 15.89875,10.2527867 15.89875,10.2527867 C15.89875,10.2527867 15.98615,10.1032867 16.3411167,10.0534533 C16.34725,9.95302 15.89875,9.82882 15.4188167,10.23362 C14.9388833,10.6391867 14.8422833,11.51472 14.8422833,11.51472" id="Fill-20" fill="#FFFFFF"></path>
                        <path d="M15.5917767,10.60576 C15.5917767,10.6801267 15.6523433,10.7406933 15.72671,10.7406933 C15.8018433,10.7406933 15.8616433,10.6801267 15.8616433,10.60576 C15.8616433,10.5313933 15.8018433,10.4708267 15.72671,10.4708267 C15.6523433,10.4708267 15.5917767,10.5313933 15.5917767,10.60576" id="Fill-22" fill="#121112"></path>
                        <path d="M16.0293133,10.8384433 C16.1228467,11.2309767 15.6613133,11.4180433 15.4121467,11.3122433 C15.5992133,11.2999767 15.9672133,11.2685433 16.0293133,10.8384433" id="Fill-24" fill="#121112"></path>
                        <path d="M7.80673667,11.51472 C7.80673667,11.51472 6.84380333,11.71712 6.58160333,11.1497867 C6.36617,10.6828867 6.75027,10.2527867 6.75027,10.2527867 C6.75027,10.2527867 6.66287,10.1032867 6.30790333,10.0534533 C6.30177,9.95302 6.75027,9.82882 7.23020333,10.23362 C7.71013667,10.6391867 7.80673667,11.51472 7.80673667,11.51472" id="Fill-26" fill="#FFFFFF"></path>
                        <path d="M7.05724333,10.60576 C7.05724333,10.6801267 6.99667667,10.7406933 6.92231,10.7406933 C6.84717667,10.7406933 6.78737667,10.6801267 6.78737667,10.60576 C6.78737667,10.5313933 6.84717667,10.4708267 6.92231,10.4708267 C6.99667667,10.4708267 7.05724333,10.5313933 7.05724333,10.60576" id="Fill-28" fill="#121112"></path>
                        <path d="M6.61970667,10.8384433 C6.52617333,11.2309767 6.98770667,11.4180433 7.23687333,11.3122433 C7.04980667,11.2999767 6.68180667,11.2685433 6.61970667,10.8384433" id="Fill-30" fill="#000000"></path>
                        <path d="M8.50333,4.31993667 C8.50333,4.31993667 5.59613,3.91897 4.23606333,2.97750333 C2.87599667,2.03603667 2.82233,1.06773667 2.96416333,0.570936667 C3.10523,0.0749033333 2.79779667,-0.322996667 2.40679667,0.37927 C2.01656333,1.08230333 1.95446333,3.02043667 3.14816333,4.12290333 C4.34109667,5.22460333 6.52916333,6.05567 6.52916333,6.05567 C6.52916333,6.05567 7.00833,5.78733667 7.20766333,5.55197 C7.40699667,5.31660333 7.55726333,5.30050333 7.69526333,4.96393667 C7.83326333,4.62813667 8.50333,4.31993667 8.50333,4.31993667" id="Fill-32" fill="#121112"></path>
                        <path d="M14.14569,4.31993667 C14.14569,4.31993667 17.05289,3.91897 18.4129567,2.97750333 C19.7730233,2.03603667 19.82669,1.06773667 19.6848567,0.570936667 C19.54379,0.0749033333 19.8512233,-0.322996667 20.2422233,0.37927 C20.6324567,1.08230333 20.6945567,3.02043667 19.5008567,4.12290333 C18.3079233,5.22460333 16.1198567,6.05567 16.1198567,6.05567 C16.1198567,6.05567 15.64069,5.78733667 15.4413567,5.55197 C15.2420233,5.31660333 15.0917567,5.30050333 14.9537567,4.96393667 C14.8157567,4.62813667 14.14569,4.31993667 14.14569,4.31993667" id="Fill-34" fill="#121112"></path>
                    </g>
                </g>
                <g id="Group" transform="translate(78.000000, 0.000000)">
                    <rect id="Rectangle" x="0" y="0" width="60" height="60"></rect>
                    <polygon id="Path-5" stroke="#BF2784" points="21.25 40.5 38.75 40.5 34.5659373 35 25.4800754 35"></polygon>
                    <g id="Oval-4">
                        <use fill="#BF2785" fill-rule="evenodd" xlink:href="#path-1"></use>
                        <path stroke="#FFFFFF" stroke-width="0.75" d="M30.375,37.9083933 L29.7721848,38.2062611 L29.7151559,38.1523243 C29.7107219,38.1470976 29.7107219,38.1470976 29.7052709,38.1403012 C29.6997123,38.1331156 29.6997123,38.1331156 29.6973468,38.1299118 C29.6936536,38.124869 29.6936536,38.124869 29.6907274,38.1207885 C29.6844212,38.1119369 29.6844212,38.1119369 29.6760153,38.100002 C29.655375,38.0705539 29.655375,38.0705539 29.6244399,38.026018 C29.5718899,37.9502223 29.5061971,37.8545737 29.4322211,37.7459305 C29.2291109,37.4476376 28.9976707,37.1017163 28.7489801,36.7227514 C28.0447493,35.6496157 27.3368443,34.5181351 26.6763256,33.3891475 C24.7655301,30.1231321 23.625,27.5432933 23.625,26 C23.625,22.4791847 26.4791847,19.625 30,19.625 C33.5208153,19.625 36.375,22.4791847 36.375,26 C36.375,27.2236866 35.6558183,29.0978467 34.3846615,31.4886443 C34.0608421,32.0976852 33.7055058,32.7311177 33.3236112,33.3833692 C32.6646042,34.5089109 31.9597162,35.635262 31.2511008,36.7160059 C31.0053927,37.0907475 30.7779569,37.4313777 30.5682142,37.7407831 C30.4982914,37.8439309 30.4533205,37.9098595 30.3767257,38.0217403 C30.3461981,38.0662657 30.3461981,38.0662657 30.3266199,38.0948231 C30.3028683,38.148878 30.3028683,38.148878 30.375,37.9083933 Z"></path>
                    </g>
                    <circle id="Oval-4" fill="#FFFFFF" cx="30" cy="25" r="3"></circle>
                </g>
                <g id="Page-1" transform="translate(25.500000, 0.000000)">
                    <g id="Group-3" transform="translate(20.000000, 19.000000)">
                        <mask id="mask-3" fill="white">
                            <use xlink:href="#path-2"></use>
                        </mask>
                        <g id="Clip-2"></g>
                        <path d="M21.8573667,10.78288 C21.8573667,9.57752 21.0631667,8.56748 19.9888333,8.27564 C19.7688333,7.40772 19.1271667,6.71612 18.3029,6.45544 C18.4217,6.15296 18.4884333,5.82312 18.4884333,5.47656 C18.4884333,4.04396 17.3671667,2.88192 15.9848333,2.88192 C15.5382333,2.88192 15.1202333,3.00428 14.7579667,3.21632 C14.3363,2.46544 13.5633667,1.95548 12.6716333,1.92736 C12.2734333,0.8854 11.2951667,0.14744 10.1482333,0.14744 C9.3225,0.14744 8.58476667,0.53048 8.08683333,1.1324 C7.9255,1.0982 7.7583,1.08072 7.5867,1.08072 C6.42216667,1.08072 5.4461,1.90608 5.1667,3.02176 C4.88216667,2.90624 4.57416667,2.84012 4.25076667,2.84012 C2.8677,2.84012 1.74716667,4.00216 1.74716667,5.43476 C1.74716667,5.50012 1.75156667,5.56396 1.75596667,5.6278 C0.7579,5.96904 0.0370333333,6.94184 0.0370333333,8.09096 C0.0370333333,9.36396 0.921433333,10.42036 2.08816667,10.64152 C1.90703333,10.963 1.79043333,11.3278 1.75816667,11.71768 C0.739566667,12.04676 0.000366666667,13.03172 0.000366666667,14.19528 C0.000366666667,15.62864 1.1209,16.78992 2.50396667,16.78992 C2.56116667,16.78992 2.6169,16.78536 2.67336667,16.78156 C3.0019,17.8182 3.94203333,18.5668 5.05156667,18.5668 C5.82303333,18.5668 6.51236667,18.20504 6.97143333,17.63656 C7.1797,17.68444 7.3953,17.71104 7.61823333,17.71104 C8.18803333,17.71104 8.71896667,17.54308 9.17216667,17.25656 C9.4215,17.34244 9.6877,17.39184 9.96563333,17.39184 C10.4320333,17.39184 10.8683667,17.25656 11.2423667,17.02552 C11.6017,17.33256 12.0615,17.51648 12.5631,17.51648 C13.2077,17.51648 13.7841,17.21248 14.1654333,16.73444 C14.4206333,16.80588 14.6868333,16.84692 14.9633,16.84692 C15.4854333,16.84692 15.9767667,16.71088 16.4079667,16.473 C16.8509,17.2026 17.6326333,17.689 18.5258333,17.689 C19.9089,17.689 21.0301667,16.52772 21.0301667,15.09436 C21.0301667,14.34956 20.7251,13.68 20.2403667,13.20728 C21.1849,12.83564 21.8573667,11.89172 21.8573667,10.78288" id="Fill-1" fill="#72B74E" mask="url(#mask-3)"></path>
                    </g>
                    <g id="Group-6" transform="translate(25.000000, 36.000000)">
                        <mask id="mask-5" fill="white">
                            <use xlink:href="#path-4"></use>
                        </mask>
                        <g id="Clip-5"></g>
                        <path d="M10.93515,3.88471429 C10.93515,3.88471429 10.51215,3.58257143 9.86865,3.61614286 C9.22515,3.64971429 8.79315,3.45685714 8.5464,3.29685714 C8.29965,3.13757143 8.22915,2.54971429 8.2464,2.27257143 C8.2644,1.99542857 8.3079,0.832571429 8.3079,0.832571429 L8.3889,0.752571429 C8.11365,0.876857143 7.80615,0.946857143 7.4814,0.946857143 C6.9684,0.946857143 6.4974,0.773285714 6.1299,0.485428571 C5.7474,0.701857143 5.3019,0.829 4.82415,0.829 C4.5504,0.829 4.2879,0.785428571 4.04115,0.709714286 L4.0059,0.803285714 C4.04115,1.02185714 4.06815,1.90328571 4.06815,1.90328571 C4.06815,1.90328571 4.0854,2.69257143 3.5214,3.01185714 C2.9574,3.33042857 1.56465,3.38971429 1.56465,3.38971429 C1.56465,3.38971429 0.60315,3.39757143 0.52665,4.16185714 C0.45015,4.92542857 0.98715,4.99971429 0.98715,4.99971429 L10.86465,4.99971429 C10.86465,4.99971429 11.1114,5.02685714 11.23515,4.60685714 C11.35815,4.18685714 10.93515,3.88471429 10.93515,3.88471429" id="Fill-4" fill="#72B74E" mask="url(#mask-5)"></path>
                    </g>
                    <rect id="Rectangle" x="0.5" y="0" width="60" height="60"></rect>
                </g>
            </g>
            <g id="Group">
                <g id="Group-2">
                    <rect id="Rectangle" x="0" y="0" width="60" height="60"></rect>
                    <path d="M21.0541933,36.0287624 C20.3780835,34.7691272 20.0272265,33.4734344 20.0016225,32.1416839 C19.9552037,29.727289 20.9184395,28.3702586 21.1403173,27.9216487 C21.8583588,26.469856 23.249455,25.2046136 24.2696414,24.3072417 C25.273399,23.4243208 26.7280686,22.1850723 28.84933,21.0606317 C29.7503035,20.5830427 31.3645073,19.8961655 33.6919414,19 C33.2668433,20.2338691 33.0834043,21.1486267 33.1416242,21.7442728 C33.1980501,22.3215646 33.2631703,22.8178158 33.5256464,23.3933442 C34.0504296,24.5440303 34.4710451,24.6949578 36.9404529,26.971902 C37.1039306,27.1226384 38.2956305,28.2640199 39.144811,29.795585 C39.8361113,31.0424003 40.1225027,32.6586955 39.9927937,33.927445 C39.7603749,36.2008514 38.4862588,38.0567175 36.1704453,39.4950432 L36.1616385,39.4931565 C34.4996118,40.686459 32.3654634,41.4037772 30.0378595,41.4037772 C25.9304511,41.4037772 22.4254616,39.1700532 21.0541933,36.0287624 Z" id="Combined-Shape" fill="#437FCD"></path>
                </g>
            </g>
        </g>
    </g>
</svg>
