<?xml version="1.0" encoding="utf-8"?>
<!-- Generator: Adobe Illustrator 19.2.0, SVG Export Plug-In . SVG Version: 6.00 Build 0)  -->
<svg version="1.1" id="Infographic_1" xmlns="http://www.w3.org/2000/svg" xmlns:xlink="http://www.w3.org/1999/xlink" x="0px"
	 y="0px" viewBox="0 0 2144.6 1532.1" style="enable-background:new 0 0 2144.6 1532.1;" xml:space="preserve">
<style type="text/css">
	.st0{fill:#EEF5F7;}
	.st1{fill-rule:evenodd;clip-rule:evenodd;fill:#EE7631;}
	.st2{fill-rule:evenodd;clip-rule:evenodd;fill:#72B84E;}
	.st3{fill-rule:evenodd;clip-rule:evenodd;fill:#195A74;}
	.st4{fill:#EE7631;stroke:#EE7631;stroke-width:3.4089;stroke-miterlimit:10;}
	.st5{fill:none;stroke:#959290;stroke-width:3.4089;stroke-miterlimit:10;}
	.st6{fill-rule:evenodd;clip-rule:evenodd;fill:#80A4D4;}
	.st7{fill:#1B556C;}
	.st8{fill:#72B84E;}
	.st9{fill:#FFFFFF;}
	.st10{fill:#5E5A57;}
	.st11{fill:#45413D;}
	.st12{fill:#26231E;}
	.st13{fill:#F7CE40;}
	.st14{fill:#F7CE40;stroke:#FFFFFF;stroke-width:16.2206;stroke-miterlimit:10;}
	.st15{opacity:0.53;fill:url(#);}
	.st16{fill:#005577;}
	.st17{fill:#EAF3E4;}
	.st18{fill:#C9E0B4;}
	.st19{fill:#98C773;}
	.st20{fill-rule:evenodd;clip-rule:evenodd;fill:#DFDFDF;}
	.st21{fill-rule:evenodd;clip-rule:evenodd;fill:#1D617A;}
	.st22{fill:#EAE9EA;}
	.st23{fill-rule:evenodd;clip-rule:evenodd;fill:#959290;}
	.st24{fill:#F8CF3F;}
	.st25{fill:#F8CF3F;stroke:#FFFFFF;stroke-width:4.4566;stroke-miterlimit:10;}
	.st26{fill:#0B6A7E;}
	.st27{fill:#31768A;}
	.st28{fill:#7A9EAD;}
	.st29{fill:#6F97A7;}
	.st30{fill:#A6BBC7;}
	.st31{fill:#BCCBD5;}
	.st32{fill:#EE7631;}
	.st33{fill:none;}
	.st34{fill-rule:evenodd;clip-rule:evenodd;fill:none;}
	.st35{fill:#DFDFDF;}
	.st36{fill:none;stroke:#195A74;stroke-width:13.6354;stroke-miterlimit:10;}
	.st37{fill:none;stroke:#195A74;stroke-width:13.6354;stroke-linecap:round;stroke-miterlimit:10;}
	.st38{fill-rule:evenodd;clip-rule:evenodd;fill:#ECEBEC;}
	.st39{fill-rule:evenodd;clip-rule:evenodd;fill:#FFFFFF;}
	.st40{opacity:0.72;fill:url(#SVGID_1_);}
	.st41{fill:#59B031;}
	.st42{fill:url(#SVGID_2_);}
	.st43{fill:#1D617A;}
	.st44{fill:url(#SVGID_3_);}
	.st45{fill:url(#SVGID_4_);}
	.st46{fill:url(#SVGID_5_);}
	.st47{clip-path:url(#SVGID_7_);}
	.st48{fill:#1F617B;}
	.st49{opacity:0.52;}
	.st50{clip-path:url(#SVGID_11_);}
	.st51{clip-path:url(#SVGID_13_);}
	.st52{clip-path:url(#SVGID_15_);}
	.st53{fill:none;stroke:#FFFFFF;stroke-width:2.9621;stroke-miterlimit:10;}
	.st54{clip-path:url(#SVGID_16_);fill:none;stroke:#FFFFFF;stroke-width:4.3621;stroke-linejoin:round;stroke-miterlimit:10;}
	.st55{fill:#E7E6E6;}
	.st56{fill:#44403E;}
	.st57{font-family:'SourceSansPro-SemiBold';}
	.st58{font-size:89.9232px;}
	.st59{clip-path:url(#SVGID_19_);fill:url(#SVGID_20_);}
	.st60{fill:#DAE7EC;}
	.st61{opacity:0.1;fill:#13110C;}
	.st62{filter:url(#Adobe_OpacityMaskFilter);}
	.st63{mask:url(#SVGID_21_);}
	.st64{fill:#195A74;}
	.st65{clip-path:url(#SVGID_23_);fill:#EE7631;}
	.st66{fill:#4C4846;}
	.st67{fill:#ED6B06;}
	.st68{fill:#FFFBFA;stroke:#ED6C0C;stroke-width:4.3002;stroke-miterlimit:10;}
	.st69{fill-rule:evenodd;clip-rule:evenodd;fill:#FFFBFA;}
	.st70{opacity:0.5;}
	.st71{opacity:0.6;}
	.st72{fill-rule:evenodd;clip-rule:evenodd;fill:#D6E7F5;}
	.st73{fill-rule:evenodd;clip-rule:evenodd;fill:#EEF5F7;}
	.st74{fill:#C1DBE2;}
	.st75{fill:none;stroke:#1C566D;stroke-width:6.527;stroke-miterlimit:10;}
	.st76{fill-rule:evenodd;clip-rule:evenodd;fill:#ED6B06;}
	.st77{clip-path:url(#SVGID_25_);fill:none;stroke:#73B84E;stroke-width:1.6851;stroke-linejoin:round;stroke-miterlimit:10;}
	.st78{clip-path:url(#SVGID_27_);fill:none;stroke:#73B84E;stroke-width:1.6851;stroke-linejoin:round;stroke-miterlimit:10;}
	.st79{fill:url(#SVGID_28_);}
	.st80{fill:url(#SVGID_29_);}
	.st81{clip-path:url(#SVGID_31_);fill:none;stroke:#73B84E;stroke-width:1.4366;stroke-linejoin:round;stroke-miterlimit:10;}
	.st82{font-family:'SourceSansPro-Bold';}
	.st83{font-size:37px;}
	.st84{font-family:'SourceSansPro-Light';}
	.st85{font-size:34.0886px;}
	.st86{font-family:'SourceSansPro-Black';}
	.st87{font-size:64.0717px;}
	.st88{letter-spacing:3;}
	.st89{font-size:33.5456px;}
	.st90{fill:#EC6610;}
	.st91{font-size:44.3997px;}
	.st92{fill:#ED6E5C;}
	.st93{fill:none;stroke:#EC6614;stroke-width:5.2585;stroke-miterlimit:10;}
	.st94{fill:none;stroke:#EC6614;stroke-width:5.2585;stroke-miterlimit:10;stroke-dasharray:8.9228,8.9228;}
	.st95{font-family:'SourceSansPro-Regular';}
	.st96{font-size:34.4328px;}
	.st97{fill:url(#SVGID_32_);}
	.st98{fill:url(#SVGID_33_);}
	.st99{font-size:31px;}
	.st100{fill:#CCE3F7;}
	.st101{opacity:0.31;fill:#47666E;}
	.st102{fill:#F6FBFE;}
	.st103{filter:url(#Adobe_OpacityMaskFilter_1_);}
	.st104{opacity:0.2;fill-rule:evenodd;clip-rule:evenodd;fill:#FFFFFF;}
	.st105{mask:url(#SVGID_34_);}
	.st106{fill-rule:evenodd;clip-rule:evenodd;fill:url(#SVGID_35_);}
	.st107{fill-rule:evenodd;clip-rule:evenodd;fill:url(#SVGID_36_);}
	.st108{fill-rule:evenodd;clip-rule:evenodd;fill:url(#SVGID_37_);}
	.st109{fill:#1B556C;stroke:#1B556C;stroke-width:2;stroke-linecap:round;stroke-miterlimit:10;}
	.st110{fill:none;stroke:#E5590F;stroke-miterlimit:10;}
	.st111{fill:#5C8591;}
	.st112{fill:#E63912;}
	.st113{fill:#FCF5F6;stroke:#E63912;stroke-width:4.0757;stroke-miterlimit:10;}
	.st114{fill:url(#SVGID_38_);}
	.st115{fill-rule:evenodd;clip-rule:evenodd;fill:#1B556C;}
	.st116{font-size:49.9376px;}
	.st117{fill:none;stroke:#DAE7EC;stroke-width:3.092;stroke-linecap:round;stroke-miterlimit:10;}
	.st118{fill-rule:evenodd;clip-rule:evenodd;fill:#C1DBE2;}
	.st119{fill:#F7FBFE;stroke:#7FA4D4;stroke-width:4.3002;stroke-miterlimit:10;}
	.st120{fill:#1D4E5F;}
	.st121{opacity:0.6;fill:#D6E7F5;}
	.st122{fill:none;stroke:#D6E7F5;stroke-width:8.2827;stroke-linecap:round;stroke-miterlimit:10;}
	.st123{fill:none;stroke:#1C566D;stroke-width:4.1414;stroke-miterlimit:10;}
	.st124{fill:#1B4E5F;}
	.st125{fill-rule:evenodd;clip-rule:evenodd;fill:#A1C1E7;}
	.st126{fill:#5086C5;}
	.st127{opacity:0.2;}
	.st128{opacity:0.2;fill:#1D617A;}
	.st129{fill:#F7FAF1;stroke:#59B031;stroke-width:4.3002;stroke-miterlimit:10;}
	.st130{clip-path:url(#SVGID_40_);fill:none;stroke:#F7FAF1;stroke-width:3.5588;stroke-linejoin:round;stroke-miterlimit:10;}
	.st131{fill:#DDEBCE;}
	.st132{fill:#C1DAA5;}
	.st133{fill:#4DA134;}
	.st134{fill:url(#SVGID_41_);}
	.st135{fill:url(#SVGID_42_);}
	.st136{fill:url(#SVGID_43_);}
	.st137{fill:url(#SVGID_44_);}
	.st138{fill:url(#SVGID_45_);}
	.st139{fill:url(#SVGID_46_);}
	.st140{fill:url(#SVGID_47_);}
	.st141{fill:url(#SVGID_48_);}
	.st142{fill:#519DA6;}
	.st143{fill-rule:evenodd;clip-rule:evenodd;fill:#B3D0ED;}
	.st144{fill-rule:evenodd;clip-rule:evenodd;fill:#CCE3F7;}
	.st145{fill-rule:evenodd;clip-rule:evenodd;fill:#5086C5;}
	.st146{clip-path:url(#SVGID_50_);}
	.st147{fill:#89CED8;}
	.st148{opacity:0.3;}
	.st149{clip-path:url(#SVGID_52_);}
	.st150{fill:#266F85;}
	.st151{fill:none;stroke:#EC6614;stroke-width:2.7448;stroke-linecap:round;stroke-miterlimit:10;}
	.st152{fill:none;stroke:#59B031;stroke-width:3.6597;stroke-linecap:round;stroke-miterlimit:10;}
	
		.st153{fill:none;stroke:#59B031;stroke-width:3.6597;stroke-linecap:round;stroke-miterlimit:10;stroke-dasharray:10.9013,10.9013;}
	.st154{fill:none;stroke:#59B031;stroke-width:3.6597;stroke-miterlimit:10;}
	.st155{fill:#FAFCF6;stroke:#73B84E;stroke-width:4.0757;stroke-miterlimit:10;}
</style>
<rect x="-12.2" y="-14" class="st7" width="2169" height="167.1"/>
<text transform="matrix(1 0 0 1 923.6083 108.2068)" class="st9 st57 st58">Health</text>
<g>
	<g>
		<g>
			<path class="st22" d="M1550.1,414.8h-96.3c-1.7,0-3,1.3-2.9,3c1.4,33.9,25.8,53.1,25.8,53.1h50.5c0,0,24.4-19.3,25.8-53.1
				C1553.1,416.1,1551.8,414.8,1550.1,414.8z"/>
			<path class="st22" d="M1526.2,473.6h-48.4c-0.4,0-0.6,0.3-0.6,0.8v5.4c0,0.4,0.3,0.8,0.6,0.8h48.4c0.4,0,0.6-0.3,0.6-0.8v-5.4
				C1526.8,474,1526.5,473.6,1526.2,473.6z"/>
		</g>
	</g>
	<g>
		<g>
			<path class="st22" d="M1691.6,414.8h-96.3c-1.7,0-3,1.3-2.9,3c1.4,33.9,25.8,53.1,25.8,53.1h50.5c0,0,24.4-19.3,25.8-53.1
				C1694.6,416.1,1693.2,414.8,1691.6,414.8z"/>
			<path class="st22" d="M1667.6,473.6h-48.4c-0.4,0-0.6,0.3-0.6,0.8v5.4c0,0.4,0.3,0.8,0.6,0.8h48.4c0.4,0,0.6-0.3,0.6-0.8v-5.4
				C1668.3,474,1668,473.6,1667.6,473.6z"/>
		</g>
	</g>
	<g>
		<g>
			<path class="st22" d="M1835.8,414.8h-96.3c-1.7,0-3,1.3-2.9,3c1.4,33.9,25.8,53.1,25.8,53.1h50.5c0,0,24.4-19.3,25.8-53.1
				C1838.8,416.1,1837.4,414.8,1835.8,414.8z"/>
			<path class="st22" d="M1811.8,473.6h-48.4c-0.4,0-0.6,0.3-0.6,0.8v5.4c0,0.4,0.3,0.8,0.6,0.8h48.4c0.4,0,0.6-0.3,0.6-0.8v-5.4
				C1812.5,474,1812.2,473.6,1811.8,473.6z"/>
		</g>
	</g>
	<g>
		<g>
			<path class="st22" d="M1979,414.8h-96.3c-1.7,0-3,1.3-2.9,3c1.4,33.9,25.8,53.1,25.8,53.1h50.5c0,0,24.4-19.3,25.8-53.1
				C1982,416.1,1980.6,414.8,1979,414.8z"/>
			<path class="st22" d="M1955,473.6h-48.4c-0.4,0-0.6,0.3-0.6,0.8v5.4c0,0.4,0.3,0.8,0.6,0.8h48.4c0.4,0,0.6-0.3,0.6-0.8v-5.4
				C1955.7,474,1955.4,473.6,1955,473.6z"/>
		</g>
	</g>
	<g>
		<path class="st8" d="M1408.6,321.7h-96.3c-1.7,0-3,1.3-2.9,3c1.4,33.9,25.8,53.1,25.8,53.1h50.5c0,0,24.4-19.3,25.8-53.1
			C1411.6,323,1410.2,321.7,1408.6,321.7z"/>
		<path class="st8" d="M1384.6,380.5h-48.4c-0.4,0-0.6,0.3-0.6,0.8v5.4c0,0.4,0.3,0.8,0.6,0.8h48.4c0.4,0,0.6-0.3,0.6-0.8v-5.4
			C1385.3,380.8,1385,380.5,1384.6,380.5z"/>
	</g>
	<g>
		<g>
			<g>
				<path class="st67" d="M1835.8,321.7h-96.3c-1.7,0-3,1.3-2.9,3c1.4,33.9,25.8,53.1,25.8,53.1h50.5c0,0,24.4-19.3,25.8-53.1
					C1838.8,323,1837.4,321.7,1835.8,321.7z"/>
				<path class="st67" d="M1811.8,380.5h-48.4c-0.4,0-0.6,0.3-0.6,0.8v5.4c0,0.4,0.3,0.8,0.6,0.8h48.4c0.4,0,0.6-0.3,0.6-0.8v-5.4
					C1812.5,380.8,1812.2,380.5,1811.8,380.5z"/>
			</g>
		</g>
		<g>
			<path class="st76" d="M1805.4,345.8c0.1-0.5,0.1-1,0.1-1.5c0-4.9-4-8.8-8.8-8.8c-1.5,0-2.9,0.4-4.1,1c-1.7-2.5-4.7-4.2-8-4.2
				c-5.3,0-9.6,4.3-9.6,9.6c0,0,0,0,0,0c-4.5,0.4-8,4.2-8,8.8c0,4.9,3.9,8.8,8.8,8.8c0.2,0,0.4,0,0.7,0c2.6,3.4,6.7,5.6,11.4,5.6
				c3.2,0,6.1-1,8.4-2.7c0.9,0.3,1.8,0.4,2.8,0.4c5.3,0,9.6-4.3,9.6-9.6C1808.7,350.2,1807.4,347.6,1805.4,345.8z"/>
			<path class="st9" d="M1808.6,344.6c0.1-0.6,0.2-1.2,0.2-1.8c0-5.9-4.7-10.6-10.6-10.6c-1.8,0-3.4,0.4-4.9,1.2
				c-2.1-3-5.6-5.1-9.6-5.1c-6.4,0-11.5,5.2-11.5,11.6c0,0,0,0,0,0c-5.4,0.5-9.6,5-9.6,10.5c0,5.8,4.7,10.6,10.6,10.6
				c0.3,0,0.5,0,0.8,0c3.2,4.1,8.1,6.7,13.6,6.7c3.8,0,7.3-1.2,10.1-3.3c1.1,0.3,2.2,0.5,3.4,0.5c6.4,0,11.6-5.2,11.6-11.6
				C1812.7,349.9,1811.1,346.7,1808.6,344.6z M1777.5,355c-3.2,0-5.8-2.4-5.8-5.8v0c0-3.3,2.5-5.8,5.9-5.8c2.3,0,3.7,1,4.7,2.3
				l-2.3,1.8c-0.6-0.8-1.4-1.3-2.4-1.3c-1.6,0-2.7,1.3-2.7,2.9v0c0,1.7,1.1,3,2.7,3c1.2,0,1.8-0.5,2.5-1.4l2.3,1.7
				C1781.4,354,1780,355,1777.5,355z M1795.1,349.2c0,3.2-2.6,5.8-6,5.8c-3.4,0-6-2.6-6-5.8v0c0-3.2,2.6-5.8,6-5.8
				C1792.5,343.4,1795.1,346,1795.1,349.2L1795.1,349.2z M1803.5,357.5h-7.2v-1.9l3.4-2.6c0.8-0.7,1.2-1.1,1.2-1.6
				c0-0.6-0.4-0.9-1-0.9s-1.1,0.4-1.8,1.2l-1.7-1.4c1-1.3,1.9-2,3.7-2c2,0,3.4,1.2,3.4,2.9v0c0,1.5-0.8,2.2-2.1,3.2l-1.6,1.1h3.8
				L1803.5,357.5z M1789,346.2c-1.7,0-2.8,1.4-2.8,3v0c0,1.6,1.2,3,2.9,3c1.7,0,2.8-1.4,2.8-3v0
				C1791.9,347.6,1790.8,346.2,1789,346.2"/>
		</g>
	</g>
	<g>
		<g>
			<path class="st22" d="M1408.6,414.8h-96.3c-1.7,0-3,1.3-2.9,3c1.4,33.9,25.8,53.1,25.8,53.1h50.5c0,0,24.4-19.3,25.8-53.1
				C1411.6,416.1,1410.2,414.8,1408.6,414.8z"/>
			<path class="st22" d="M1384.6,473.6h-48.4c-0.4,0-0.6,0.3-0.6,0.8v5.4c0,0.4,0.3,0.8,0.6,0.8h48.4c0.4,0,0.6-0.3,0.6-0.8v-5.4
				C1385.3,474,1385,473.6,1384.6,473.6z"/>
		</g>
	</g>
	<g>
		<g>
			<path class="st67" d="M1979,321.7h-96.3c-1.7,0-3,1.3-2.9,3c1.4,33.9,25.8,53.1,25.8,53.1h50.5c0,0,24.4-19.3,25.8-53.1
				C1982,323,1980.6,321.7,1979,321.7z"/>
			<path class="st67" d="M1955,380.5h-48.4c-0.4,0-0.6,0.3-0.6,0.8v5.4c0,0.4,0.3,0.8,0.6,0.8h48.4c0.4,0,0.6-0.3,0.6-0.8v-5.4
				C1955.7,380.8,1955.4,380.5,1955,380.5z"/>
		</g>
	</g>
	<g>
		<path class="st76" d="M1948.6,345.8c0.1-0.5,0.1-1,0.1-1.5c0-4.9-4-8.8-8.8-8.8c-1.5,0-2.9,0.4-4.1,1c-1.7-2.5-4.7-4.2-8-4.2
			c-5.3,0-9.6,4.3-9.6,9.6c0,0,0,0,0,0c-4.5,0.4-8,4.2-8,8.8c0,4.9,3.9,8.8,8.8,8.8c0.2,0,0.4,0,0.7,0c2.6,3.4,6.7,5.6,11.4,5.6
			c3.2,0,6.1-1,8.4-2.7c0.9,0.3,1.8,0.4,2.8,0.4c5.3,0,9.6-4.3,9.6-9.6C1951.9,350.2,1950.6,347.6,1948.6,345.8z"/>
		<path class="st9" d="M1951.9,344.6c0.1-0.6,0.2-1.2,0.2-1.8c0-5.9-4.7-10.6-10.6-10.6c-1.8,0-3.4,0.4-4.9,1.2
			c-2.1-3-5.6-5.1-9.6-5.1c-6.4,0-11.5,5.2-11.5,11.6c0,0,0,0,0,0c-5.4,0.5-9.6,5-9.6,10.5c0,5.8,4.7,10.6,10.6,10.6
			c0.3,0,0.5,0,0.8,0c3.2,4.1,8.1,6.7,13.6,6.7c3.8,0,7.3-1.2,10.1-3.3c1.1,0.3,2.2,0.5,3.4,0.5c6.4,0,11.6-5.2,11.6-11.6
			C1955.9,349.9,1954.3,346.7,1951.9,344.6z M1920.7,355c-3.2,0-5.8-2.4-5.8-5.8v0c0-3.3,2.5-5.8,5.9-5.8c2.3,0,3.7,1,4.7,2.3
			l-2.3,1.8c-0.6-0.8-1.4-1.3-2.4-1.3c-1.6,0-2.7,1.3-2.7,2.9v0c0,1.7,1.1,3,2.7,3c1.2,0,1.8-0.5,2.5-1.4l2.3,1.7
			C1924.6,354,1923.2,355,1920.7,355z M1938.3,349.2c0,3.2-2.6,5.8-6,5.8s-6-2.6-6-5.8v0c0-3.2,2.6-5.8,6-5.8
			C1935.7,343.4,1938.3,346,1938.3,349.2L1938.3,349.2z M1946.7,357.5h-7.2v-1.9l3.4-2.6c0.8-0.7,1.2-1.1,1.2-1.6
			c0-0.6-0.4-0.9-1-0.9s-1.1,0.4-1.8,1.2l-1.7-1.4c1-1.3,1.9-2,3.7-2c2,0,3.4,1.2,3.4,2.9v0c0,1.5-0.8,2.2-2.1,3.2l-1.6,1.1h3.8
			L1946.7,357.5z M1932.3,346.2c-1.7,0-2.8,1.4-2.8,3v0c0,1.6,1.2,3,2.9,3c1.7,0,2.8-1.4,2.8-3v0
			C1935.1,347.6,1934,346.2,1932.3,346.2"/>
	</g>
	<g>
		<path class="st9" d="M1379,333.9c-4.6-4.8-12.2-4.8-16.9,0l-1.7,1.7l-1.7-1.7c-4.6-4.8-12.2-4.8-16.9,0c-4.6,4.8-4.6,12.6,0,17.3
			l10.1,10.4c0.1,0.1,0.1,0.1,0.2,0.2l7.1,7.3c0.6,0.7,1.7,0.7,2.4,0l9-9.3c0,0,0-0.1,0.1-0.1l8.3-8.5
			C1383.7,346.4,1383.7,338.6,1379,333.9z"/>
		<g>
			<defs>
				<path id="SVGID_24_" d="M1379,333.9c-4.6-4.8-12.2-4.8-16.9,0l-1.7,1.7l-1.7-1.7c-4.6-4.8-12.2-4.8-16.9,0
					c-4.6,4.8-4.6,12.6,0,17.3l10.1,10.4c0.1,0.1,0.1,0.1,0.2,0.2l7.1,7.3c0.6,0.7,1.7,0.7,2.4,0l9-9.3c0,0,0-0.1,0.1-0.1l8.3-8.5
					C1383.7,346.4,1383.7,338.6,1379,333.9z"/>
			</defs>
			<clipPath id="SVGID_1_">
				<use xlink:href="#SVGID_24_"  style="overflow:visible;"/>
			</clipPath>
			
				<polyline style="clip-path:url(#SVGID_1_);fill:none;stroke:#73B84E;stroke-width:1.6851;stroke-linejoin:round;stroke-miterlimit:10;" points="
				1324.7,349.9 1349.7,349.9 1355,340.3 1360.2,359.2 1366.2,345.1 1371,349.2 1396.9,349.2 			"/>
		</g>
	</g>
	<g>
		<path class="st8" d="M1550.3,321.7H1454c-1.7,0-3,1.3-2.9,3c1.4,33.9,25.8,53.1,25.8,53.1h50.5c0,0,24.4-19.3,25.8-53.1
			C1553.3,323,1551.9,321.7,1550.3,321.7z"/>
		<path class="st8" d="M1526.3,380.5h-48.4c-0.4,0-0.6,0.3-0.6,0.8v5.4c0,0.4,0.3,0.8,0.6,0.8h48.4c0.4,0,0.6-0.3,0.6-0.8v-5.4
			C1527,380.8,1526.7,380.5,1526.3,380.5z"/>
	</g>
	<g>
		<path class="st9" d="M1520.7,333.9c-4.6-4.8-12.2-4.8-16.9,0l-1.7,1.7l-1.7-1.7c-4.6-4.8-12.2-4.8-16.9,0
			c-4.6,4.8-4.6,12.6,0,17.3l10.1,10.4c0.1,0.1,0.1,0.1,0.2,0.2l7.1,7.3c0.6,0.7,1.7,0.7,2.4,0l9-9.3c0,0,0-0.1,0.1-0.1l8.3-8.5
			C1525.4,346.4,1525.4,338.6,1520.7,333.9z"/>
		<g>
			<defs>
				<path id="SVGID_26_" d="M1520.7,333.9c-4.6-4.8-12.2-4.8-16.9,0l-1.7,1.7l-1.7-1.7c-4.6-4.8-12.2-4.8-16.9,0
					c-4.6,4.8-4.6,12.6,0,17.3l10.1,10.4c0.1,0.1,0.1,0.1,0.2,0.2l7.1,7.3c0.6,0.7,1.7,0.7,2.4,0l9-9.3c0,0,0-0.1,0.1-0.1l8.3-8.5
					C1525.4,346.4,1525.4,338.6,1520.7,333.9z"/>
			</defs>
			<clipPath id="SVGID_2_">
				<use xlink:href="#SVGID_26_"  style="overflow:visible;"/>
			</clipPath>
			
				<polyline style="clip-path:url(#SVGID_2_);fill:none;stroke:#73B84E;stroke-width:1.6851;stroke-linejoin:round;stroke-miterlimit:10;" points="
				1466.4,349.9 1491.4,349.9 1496.7,340.3 1501.9,359.2 1507.9,345.1 1512.7,349.2 1538.6,349.2 			"/>
		</g>
	</g>
	<g>
		<g>
			<linearGradient id="SVGID_3_" gradientUnits="userSpaceOnUse" x1="1587.067" y1="345.8138" x2="1699.8346" y2="345.8138">
				<stop  offset="0" style="stop-color:#72B84E"/>
				<stop  offset="1" style="stop-color:#ED6B06"/>
			</linearGradient>
			<path class="st44" d="M1696.6,314.8h-106.3c-1.8,0-3.3,1.5-3.3,3.3c1.5,37.4,28.5,58.6,28.5,58.6h55.8c0,0,27-21.3,28.5-58.6
				C1699.9,316.3,1698.4,314.8,1696.6,314.8z"/>
			<linearGradient id="SVGID_4_" gradientUnits="userSpaceOnUse" x1="1616.0371" y1="383.5833" x2="1670.8632" y2="383.5833">
				<stop  offset="0" style="stop-color:#72B84E"/>
				<stop  offset="1" style="stop-color:#ED6B06"/>
			</linearGradient>
			<path class="st45" d="M1670.2,379.7h-53.4c-0.4,0-0.7,0.4-0.7,0.9v6c0,0.5,0.3,0.9,0.7,0.9h53.4c0.4,0,0.7-0.4,0.7-0.9v-6
				C1670.9,380.1,1670.5,379.7,1670.2,379.7z"/>
		</g>
	</g>
	<g>
		<path class="st76" d="M1678.5,340.8c0.1-0.4,0.1-0.9,0.1-1.3c0-4.2-3.4-7.6-7.6-7.6c-1.3,0-2.5,0.3-3.5,0.9
			c-1.5-2.2-4-3.6-6.8-3.6c-4.6,0-8.3,3.7-8.3,8.3c0,0,0,0,0,0c-3.9,0.3-6.9,3.6-6.9,7.6c0,4.2,3.4,7.6,7.6,7.6c0.2,0,0.4,0,0.6,0
			c2.3,2.9,5.8,4.8,9.8,4.8c2.7,0,5.2-0.9,7.2-2.4c0.8,0.2,1.6,0.4,2.4,0.4c4.6,0,8.3-3.7,8.3-8.3
			C1681.3,344.5,1680.2,342.3,1678.5,340.8z"/>
		<path class="st9" d="M1681.3,339.8c0.1-0.5,0.1-1,0.1-1.6c0-5-4.1-9.1-9.1-9.1c-1.5,0-2.9,0.4-4.2,1c-1.8-2.6-4.8-4.3-8.2-4.3
			c-5.5,0-9.9,4.4-9.9,9.9c0,0,0,0,0,0c-4.6,0.4-8.3,4.3-8.3,9.1c0,5,4.1,9.1,9.1,9.1c0.2,0,0.5,0,0.7,0c2.7,3.5,7,5.7,11.7,5.7
			c3.3,0,6.2-1.1,8.7-2.8c0.9,0.3,1.9,0.4,2.9,0.4c5.5,0,9.9-4.4,9.9-9.9C1684.8,344.3,1683.4,341.6,1681.3,339.8z M1654.5,348.7
			c-2.7,0-4.9-2.1-4.9-5v0c0-2.8,2.2-5,5.1-5c2,0,3.2,0.8,4.1,2l-2,1.5c-0.5-0.7-1.2-1.1-2.1-1.1c-1.3,0-2.3,1.1-2.3,2.5v0
			c0,1.4,0.9,2.6,2.3,2.6c1,0,1.6-0.5,2.2-1.2l2,1.4C1657.8,347.8,1656.6,348.7,1654.5,348.7z M1669.6,343.7c0,2.8-2.2,5-5.2,5
			s-5.2-2.2-5.2-5v0c0-2.8,2.2-5,5.2-5C1667.4,338.7,1669.6,341,1669.6,343.7L1669.6,343.7z M1676.8,350.8h-6.2v-1.6l2.9-2.2
			c0.7-0.6,1-0.9,1-1.4c0-0.5-0.3-0.8-0.9-0.8s-0.9,0.3-1.6,1l-1.5-1.2c0.8-1.1,1.7-1.7,3.2-1.7c1.7,0,2.9,1,2.9,2.5v0
			c0,1.3-0.7,1.9-1.8,2.8l-1.3,0.9h3.2L1676.8,350.8z M1664.4,341.1c-1.5,0-2.4,1.2-2.4,2.6v0c0,1.4,1,2.6,2.5,2.6
			c1.5,0,2.4-1.2,2.4-2.6v0C1666.9,342.3,1665.9,341.1,1664.4,341.1"/>
	</g>
	<g>
		<path class="st9" d="M1636.8,329.7c-4-4.1-10.4-4.1-14.4,0l-1.4,1.5l-1.4-1.5c-4-4.1-10.4-4.1-14.4,0c-4,4.1-4,10.7,0,14.8
			l8.6,8.9c0,0,0.1,0.1,0.2,0.1l6,6.2c0.5,0.6,1.5,0.6,2,0l7.7-7.9c0,0,0-0.1,0-0.1l7-7.2C1640.7,340.4,1640.7,333.7,1636.8,329.7z"
			/>
		<g>
			<defs>
				<path id="SVGID_30_" d="M1636.8,329.7c-4-4.1-10.4-4.1-14.4,0l-1.4,1.5l-1.4-1.5c-4-4.1-10.4-4.1-14.4,0c-4,4.1-4,10.7,0,14.8
					l8.6,8.9c0,0,0.1,0.1,0.2,0.1l6,6.2c0.5,0.6,1.5,0.6,2,0l7.7-7.9c0,0,0-0.1,0-0.1l7-7.2C1640.7,340.4,1640.7,333.7,1636.8,329.7
					z"/>
			</defs>
			<clipPath id="SVGID_5_">
				<use xlink:href="#SVGID_30_"  style="overflow:visible;"/>
			</clipPath>
			
				<polyline style="clip-path:url(#SVGID_5_);fill:none;stroke:#73B84E;stroke-width:1.4366;stroke-linejoin:round;stroke-miterlimit:10;" points="
				1590.4,343.4 1611.8,343.4 1616.3,335.2 1620.7,351.3 1625.9,339.3 1629.9,342.7 1652,342.7 			"/>
		</g>
	</g>
</g>
<rect x="165" y="290.1" class="st33" width="308.9" height="149"/>
<text transform="matrix(1 0 0 1 165.0339 316.0646)"><tspan x="0" y="0" class="st7 st82 st83">Current health </tspan><tspan x="0" y="35" class="st7 st82 st83">recommendations </tspan><tspan x="0" y="70" class="st7 st82 st83">disregard climate </tspan><tspan x="0" y="105" class="st7 st82 st83">change.</tspan></text>
<rect x="1305.5" y="206.2" class="st33" width="733.8" height="70.4"/>
<text transform="matrix(1 0 0 1 1305.4684 230.759)"><tspan x="0" y="0" class="st7 st84 st85">Using existing indicators for meals, only 30% were </tspan><tspan x="0" y="34.2" class="st7 st84 st85">both healthy and climate friendly.</tspan></text>
<text transform="matrix(-1.000000e-03 -1 1 -1.000000e-03 109.6145 1372.1715)" class="st7 st86 st87 st88">What is DALY?</text>
<g>
	<g>
		<rect x="168" y="957.2" class="st33" width="744.3" height="126.4"/>
		<text transform="matrix(1 0 0 1 168.0229 981.2878)"><tspan x="0" y="0" class="st7 st84 st89">Disability Adjusted Life Year is a measure of overall </tspan><tspan x="0" y="33.6" class="st7 st84 st89">disease burden, expressed as the cumulative number </tspan><tspan x="0" y="67.3" class="st7 st84 st89">of years lost due to ill-health, disability or early death.</tspan></text>
	</g>
	<g>
		<text transform="matrix(1 0 0 1 168.0229 939.8127)" class="st90 st82 st91">DALY</text>
	</g>
	<text transform="matrix(1 0 0 1 1052.9155 1009.6953)" class="st90 st82 st91">YLD</text>
	<g>
		<text transform="matrix(1 0 0 1 959.9795 1009.6951)" class="st7 st82 st91">=</text>
	</g>
	<g>
		<text transform="matrix(1 0 0 1 1574.1797 1009.6958)" class="st7 st82 st91">+</text>
	</g>
	<g>
		<text transform="matrix(1 0 0 1 1153.7041 1009.6956)" class="st7 st84 st89">Years Lived with Disability </text>
	</g>
	<text transform="matrix(1 0 0 1 1663.8984 1009.6953)" class="st7 st82 st91">YLL</text>
	<g>
		<text transform="matrix(1 0 0 1 1764.6868 1009.6956)" class="st7 st84 st89">Years of Life Lost</text>
	</g>
	<g>
		<g>
			<g>
				<line class="st93" x1="1522.6" y1="1344.5" x2="1526.9" y2="1344.5"/>
				<line class="st94" x1="1535.9" y1="1344.5" x2="1834.8" y2="1344.5"/>
				<line class="st93" x1="1839.2" y1="1344.5" x2="1843.6" y2="1344.5"/>
			</g>
		</g>
		<line class="st93" x1="1843.6" y1="1312.7" x2="1843.6" y2="1376.4"/>
		<polygon class="st17" points="1518.2,1377.8 169.4,1377.8 169.4,1311.2 1518.2,1311.2 1547.7,1344.5 		"/>
		<g>
			<path class="st8" d="M859.2,1129c10,0,18-8,18.1-18c0-9.9-8-18-18-18c-9.9,0-18,8-18,18S849.2,1129,859.2,1129z"/>
			<path class="st8" d="M883.9,1135.8l-50.6-0.1c-9.1,0-16.4,7.3-16.4,16.4l0,60.7c0,4,3.2,7.2,7.1,7.2c4,0,7.2-3.2,7.2-7.2l0.1-55
				l3,0l-0.1,64.3h0v52.8c0,5.9,4.8,10.7,10.7,10.7l0,0c5.9,0,10.7-4.8,10.7-10.7v-52.8h6v52.8c0,5.9,4.8,10.7,10.7,10.7
				c5.9,0,10.7-4.8,10.7-10.7v-57.6l0.1-59.4l2.9,0l-0.1,54.8c0,4,3.2,7.2,7.2,7.2c4,0,7.2-3.2,7.2-7.2l0-60.5
				C900.3,1143.1,892.9,1135.8,883.9,1135.8z"/>
		</g>
		<g>
			<path class="st90" d="M1166,1129c10,0,18-8,18.1-18c0-9.9-8-18-18-18c-9.9,0-18,8-18,18C1148,1120.9,1156.1,1129,1166,1129z"/>
			<g>
				<path class="st90" d="M1166.1,1176.7l-7.2-0.2c-0.5,0-0.9,0.1-1.4,0.2c-1,0.3-1.8,0.8-2.5,1.6c-0.8,0.9-1.3,2.2-1.3,3.5
					c0,0.8,0.1,1.6,0.3,2.3c0.4,1.5,1.2,2.7,2.3,3.4c0.8,0.5,1.6,0.8,2.6,0.8h6.6c2.3-4.8,4.2-10.3,5.7-16c1.8-6.5,3.1-13.2,4-19.1
					c0.7-4.1,1.2-7.8,1.5-10.8c0.3-2.3,0.5-4.5,0.7-6.7l-29.4,0l9.3,14.1l11.5,17.6l-1.5,4.9L1166.1,1176.7z"/>
				<path class="st90" d="M1190.7,1135.8l-11.4,0c0.4,1.2,0.9,2.8,1.4,5.1c0.5,2.1,0.9,4.6,1.4,7.4c2,12.1,4,29.6,5.4,42.7l0.1,0.8
					l-2.2,0.1H1157c-4.4,0-8-4.4-8-9.8c0-5.3,3.4-9.5,7.7-9.7l0-0.1l-5.3-15.1l-7.4-21.4l-3.8,0c-9.1,0-16.4,7.3-16.4,16.4l0,60.7
					c0,4,3.2,7.2,7.1,7.2c4,0,7.2-3.2,7.2-7.2l0.1-55l3,0l-0.1,64.3h0v52.8c0,5.9,4.8,10.7,10.7,10.7s10.7-4.8,10.7-10.7v-52.8h6
					v52.8c0,5.9,4.8,10.7,10.7,10.7c5.9,0,10.7-4.8,10.7-10.7v-57.6l0-25.4h7c4,0,7.2-3.2,7.2-7.2l3.1-32.5
					C1207.1,1143.1,1199.8,1135.8,1190.7,1135.8z"/>
			</g>
		</g>
		<g>
			<path class="st8" d="M267.5,1201.4c9.1,0,16.6-7.4,16.6-16.6c0-9.2-7.4-16.6-16.6-16.6c-9.2,0-16.6,7.4-16.6,16.6
				C251,1194,258.4,1201.4,267.5,1201.4z"/>
			<path class="st8" d="M306.9,1229.4l-22.4-22.5c-1.8-1.8-3.9-2.9-7.1-2.9h-9.9h-10.1c-3.1,0-5.1,1.2-6.9,2.9l-22.2,22.2
				c-6.1,6.1,2.1,13.8,8.2,7.8l13.4-13.5v12.7h17.6v0h17.4v-12.8l13.8,13.8C304.2,1243,312.6,1235.1,306.9,1229.4z"/>
			<path class="st8" d="M284.8,1242.6l-13.2,13.2l9.7,9.6l-9.9,9.9c-5.9,5.8,2.2,14.2,8.2,8.2l15.6-16.3c3.4-3.4,4.3-9.8,0.7-13.4
				C296.1,1253.8,284.8,1242.6,284.8,1242.6z"/>
			<path class="st8" d="M253.5,1265.4l9.6-9.6l-13.2-13.2c0,0-11.2,11.2-11.2,11.2c-3.6,3.6-2.7,9.9,0.7,13.4l15.7,16.3
				c6,6,14.1-2.3,8.3-8.2L253.5,1265.4z"/>
		</g>
		<rect x="525.2" y="1311.2" class="st90" width="22.1" height="66.6"/>
		<rect x="768.5" y="1311.2" class="st90" width="30.3" height="66.6"/>
		<rect x="938.5" y="1311.2" class="st90" width="12.9" height="66.6"/>
		<rect x="1002.5" y="1311.2" class="st90" width="10.9" height="66.6"/>
		<rect x="1047.2" y="1311.2" class="st90" width="27.9" height="66.6"/>
		<polygon class="st90" points="1103.3,1311.2 1103.3,1377.8 1518.2,1377.8 1547.7,1344.5 1518.2,1311.2 		"/>
		<text transform="matrix(1 0 0 1 226.2554 1356.7178)" class="st41 st95 st96">Healthy life </text>
		<text transform="matrix(1 0 0 1 1123.7124 1356.7178)" class="st9 st95 st96">Disease or Disability</text>
		<text transform="matrix(1 0 0 1 1614.5083 1393.8203)" class="st7 st95 st96">Early death</text>
		<text transform="matrix(1 0 0 1 1854.2104 1340.2852)"><tspan x="0" y="0" class="st7 st95 st96">Expected </tspan><tspan x="0" y="34.5" class="st7 st95 st96">life years </tspan></text>
		<g>
			<g>
				<path class="st7" d="M1758.5,1151.5l-26.4-55.9c-0.7-1.6-2.3-2.6-3.9-2.6H1658c-1.7,0-3.2,1-3.9,2.6l-26.4,55.9
					c-0.4,0.9-0.6,1.9-0.4,2.9l26.4,158.3c0.4,2.2,2.2,3.8,4.3,3.8h70.3c2.1,0,4-1.6,4.3-3.8l26.4-158.3
					C1759.1,1153.4,1758.9,1152.4,1758.5,1151.5z M1717.5,1294c-0.4,2.2-2.2,3.8-4.3,3.8H1673c-2.1,0-3.9-1.6-4.3-3.8l-22.9-134.8
					c-0.1-0.9-0.1-1.8,0.3-2.6l16.6-42.1c0.7-1.7,2.3-2.9,4-2.9h52.7c1.8,0,3.4,1.1,4.1,2.9l16.6,42.1c0.3,0.8,0.4,1.7,0.3,2.6
					L1717.5,1294z M1669.7,1121l-15,38l22,129.6h32.9l22-129.6l-15-38H1669.7z"/>
			</g>
		</g>
	</g>
</g>
<g>
	<rect x="-12.2" y="543.1" class="st0" width="2169" height="309.1"/>
	<g>
		<path class="st7" d="M213.8,618.5v24.2h-29.3c-14.2,0.1-14.2,18.3,0,18.3h38.5c5.6,0,9.1-4.5,9.2-9.6v-32.9
			C232.1,604.7,213.8,604.7,213.8,618.5z"/>
		<path class="st7" d="M190.9,638.6c9.5,0,17.2-7.7,17.2-17.2c0-9.5-7.8-17.2-17.2-17.2c-9.5,0-17.2,7.7-17.2,17.2
			C173.7,630.9,181.4,638.6,190.9,638.6z"/>
		<path class="st7" d="M404.1,636.8l-59.7,0v-7.4c0-12-8.1-20.9-22-20.8h-81.4v52.1l163,0c6.6,0,11.9-5.3,11.9-11.9
			C416,642.2,410.7,636.9,404.1,636.8z"/>
	</g>
	<g>
		<g class="st49">
			<g>
				<g>
					<path class="st9" d="M1733.5,780.5c8.1,11.7,2.8,31.6,2.9,31.5c-0.1,0.1-23.9,5.6-31.9-6.1c-4.3-5.7-6.1-17.5-8-26.9
						c-1.7-9.6-3.5-16.7-3.5-16.7c0,0,9.1,0.8,18,4C1720.2,769.4,1729.3,774.8,1733.5,780.5z"/>
					<path class="st9" d="M1733.5,734c8.1,11.7,2.8,31.6,2.9,31.5c-0.1,0.1-23.9,5.7-31.9-6.1c-4.3-5.7-6.1-17.5-8-26.9
						c-1.7-9.6-3.5-16.7-3.5-16.7c0,0,9.1,0.8,18,4C1720.2,722.9,1729.2,728.3,1733.5,734z"/>
					<path class="st9" d="M1733.5,687.6c8.1,11.7,2.8,31.6,2.9,31.5c-0.1,0.1-23.9,5.7-31.9-6.1c-4.3-5.7-6.1-17.5-8-26.9
						c-1.7-9.6-3.5-16.7-3.5-16.7c0,0,9.1,0.8,18,4C1720.1,676.4,1729.2,681.9,1733.5,687.6z"/>
					<path class="st9" d="M1733.4,641.1c8.1,11.7,2.8,31.6,2.9,31.5c-0.1,0.1-23.9,5.7-31.9-6.1c-4.3-5.7-6.1-17.5-8-26.9
						c-1.7-9.6-3.5-16.7-3.5-16.7c0,0,9.1,0.8,18,4C1720.1,630,1729.2,635.4,1733.4,641.1z"/>
					<path class="st9" d="M1733.4,594.6c8.1,11.7,2.8,31.6,2.9,31.5c-0.1,0.1-23.9,5.6-31.9-6.1c-4.3-5.7-6.1-17.5-8-26.9
						c-1.7-9.6-3.5-16.7-3.5-16.7c0,0,9.1,0.8,18,4C1720,583.5,1729.1,588.9,1733.4,594.6z"/>
					<path class="st9" d="M1743,762.8c-8,11.8-2.7,31.6-2.8,31.5c0.1,0.1,23.9,5.6,31.9-6.2c4.2-5.7,6.1-17.5,7.9-26.9
						c1.7-9.6,3.5-16.7,3.5-16.7c0,0-9.1,0.8-18,4C1756.3,751.6,1747.2,757.1,1743,762.8z"/>
					<path class="st9" d="M1743,716.3c-8,11.8-2.7,31.6-2.8,31.5c0.1,0.1,23.9,5.6,31.9-6.2c4.2-5.7,6.1-17.5,7.9-26.9
						c1.7-9.6,3.5-16.7,3.5-16.7s-9,0.8-18,4.1C1756.3,705.2,1747.2,710.6,1743,716.3z"/>
					<path class="st9" d="M1742.9,669.8c-8,11.8-2.7,31.6-2.8,31.5c0.1,0.1,23.9,5.6,31.9-6.2c4.2-5.7,6.1-17.5,7.9-26.9
						c1.7-9.6,3.5-16.7,3.5-16.7s-9,0.8-18,4.1C1756.2,658.7,1747.2,664.2,1742.9,669.8z"/>
					<path class="st9" d="M1742.9,623.4c-8,11.8-2.7,31.6-2.8,31.5c0.1,0.1,23.9,5.6,31.9-6.2c4.2-5.7,6.1-17.5,7.9-26.9
						c1.7-9.6,3.5-16.7,3.5-16.7s-9,0.8-18,4.1C1756.2,612.2,1747.1,617.7,1742.9,623.4z"/>
					<path class="st9" d="M1742.8,576.9c-8,11.8-2.7,31.6-2.8,31.5c0.1,0.1,23.9,5.6,31.9-6.2c4.2-5.7,6.1-17.5,7.9-26.9
						c1.7-9.6,3.5-16.7,3.5-16.7s-9,0.8-18,4.1C1756.1,565.7,1747.1,571.2,1742.8,576.9z"/>
					<path class="st9" d="M1709.7,560.3c3.9,13.7,22.5,22.4,22.3,22.4c0.2,0,19.6-14.7,15.8-28.4c-1.6-6.9-9.5-15.9-15.5-23.4
						c-6.2-7.4-10.6-13.4-10.5-13.4c0,0-5.2,7.5-8.5,16.4C1709.7,542.9,1708.1,553.4,1709.7,560.3z"/>
				</g>
				<path class="st9" d="M1743.9,878.9l0.9-76.4l-6.5,13.9l-2.6,69.2C1738.4,883.5,1741.4,881,1743.9,878.9z"/>
			</g>
		</g>
		<g class="st49">
			<g>
				<g>
					<path class="st9" d="M1842.7,780.5c8.1,11.7,2.8,31.6,2.9,31.5c-0.1,0.1-23.9,5.6-31.9-6.1c-4.3-5.7-6.1-17.5-8-26.9
						c-1.7-9.6-3.5-16.7-3.5-16.7c0,0,9.1,0.8,18,4C1829.4,769.4,1838.5,774.8,1842.7,780.5z"/>
					<path class="st9" d="M1842.7,734c8.1,11.7,2.8,31.6,2.9,31.5c-0.1,0.1-23.9,5.7-31.9-6.1c-4.3-5.7-6.1-17.5-8-26.9
						c-1.7-9.6-3.5-16.7-3.5-16.7c0,0,9.1,0.8,18,4C1829.3,722.9,1838.4,728.3,1842.7,734z"/>
					<path class="st9" d="M1842.6,687.6c8.1,11.7,2.8,31.6,2.9,31.5c-0.1,0.1-23.9,5.7-31.9-6.1c-4.3-5.7-6.1-17.5-8-26.9
						c-1.7-9.6-3.5-16.7-3.5-16.7c0,0,9.1,0.8,18,4C1829.3,676.4,1838.4,681.9,1842.6,687.6z"/>
					<path class="st9" d="M1842.6,641.1c8.1,11.7,2.8,31.6,2.9,31.5c-0.1,0.1-23.9,5.7-31.9-6.1c-4.3-5.7-6.1-17.5-8-26.9
						c-1.7-9.6-3.5-16.7-3.5-16.7c0,0,9.1,0.8,18,4C1829.3,630,1838.3,635.4,1842.6,641.1z"/>
					<path class="st9" d="M1842.5,594.6c8.1,11.7,2.8,31.6,2.9,31.5c-0.1,0.1-23.9,5.6-31.9-6.1c-4.3-5.7-6.1-17.5-8-26.9
						c-1.7-9.6-3.5-16.7-3.5-16.7c0,0,9.1,0.8,18,4C1829.2,583.5,1838.3,588.9,1842.5,594.6z"/>
					<path class="st9" d="M1852.2,762.8c-8,11.8-2.7,31.6-2.8,31.5c0.1,0.1,23.9,5.6,31.9-6.2c4.2-5.7,6.1-17.5,7.9-26.9
						c1.7-9.6,3.5-16.7,3.5-16.7c0,0-9.1,0.8-18,4C1865.5,751.6,1856.4,757.1,1852.2,762.8z"/>
					<path class="st9" d="M1852.1,716.3c-8,11.8-2.7,31.6-2.8,31.5c0.1,0.1,23.9,5.6,31.9-6.2c4.2-5.7,6.1-17.5,7.9-26.9
						c1.7-9.6,3.5-16.7,3.5-16.7s-9,0.8-18,4.1C1865.5,705.2,1856.4,710.6,1852.1,716.3z"/>
					<path class="st9" d="M1852.1,669.8c-8,11.8-2.7,31.6-2.8,31.5c0.1,0.1,23.9,5.6,31.9-6.2c4.2-5.7,6.1-17.5,7.9-26.9
						c1.7-9.6,3.5-16.7,3.5-16.7s-9,0.8-18,4.1C1865.4,658.7,1856.3,664.2,1852.1,669.8z"/>
					<path class="st9" d="M1852.1,623.4c-8,11.8-2.7,31.6-2.8,31.5c0.1,0.1,23.9,5.6,31.9-6.2c4.2-5.7,6.1-17.5,7.9-26.9
						c1.7-9.6,3.5-16.7,3.5-16.7s-9,0.8-18,4.1C1865.4,612.2,1856.3,617.7,1852.1,623.4z"/>
					<path class="st9" d="M1852,576.9c-8,11.8-2.7,31.6-2.8,31.5c0.1,0.1,23.9,5.6,31.9-6.2c4.2-5.7,6.1-17.5,7.9-26.9
						c1.7-9.6,3.5-16.7,3.5-16.7s-9,0.8-18,4.1C1865.3,565.7,1856.3,571.2,1852,576.9z"/>
					<path class="st9" d="M1818.9,560.3c3.9,13.7,22.5,22.4,22.3,22.4c0.2,0,19.6-14.7,15.8-28.4c-1.6-6.9-9.5-15.9-15.5-23.4
						c-6.2-7.4-10.6-13.4-10.5-13.4c0,0-5.2,7.5-8.5,16.4C1818.9,542.9,1817.3,553.4,1818.9,560.3z"/>
				</g>
				<path class="st9" d="M1853.1,878.9l0.9-76.4l-6.5,13.9l-2.6,69.2C1847.6,883.5,1850.6,881,1853.1,878.9z"/>
			</g>
		</g>
		<g class="st49">
			<g>
				<g>
					<path class="st9" d="M1951.9,780.5c8.1,11.7,2.8,31.6,2.9,31.5c-0.1,0.1-23.9,5.6-31.9-6.1c-4.3-5.7-6.1-17.5-8-26.9
						c-1.7-9.6-3.5-16.7-3.5-16.7c0,0,9.1,0.8,18,4C1938.6,769.4,1947.7,774.8,1951.9,780.5z"/>
					<path class="st9" d="M1951.9,734c8.1,11.7,2.8,31.6,2.9,31.5c-0.1,0.1-23.9,5.7-31.9-6.1c-4.3-5.7-6.1-17.5-8-26.9
						c-1.7-9.6-3.5-16.7-3.5-16.7c0,0,9.1,0.8,18,4C1938.5,722.9,1947.6,728.3,1951.9,734z"/>
					<path class="st9" d="M1951.8,687.6c8.1,11.7,2.8,31.6,2.9,31.5c-0.1,0.1-23.9,5.7-31.9-6.1c-4.3-5.7-6.1-17.5-8-26.9
						c-1.7-9.6-3.5-16.7-3.5-16.7c0,0,9.1,0.8,18,4C1938.5,676.4,1947.6,681.9,1951.8,687.6z"/>
					<path class="st9" d="M1951.8,641.1c8.1,11.7,2.8,31.6,2.9,31.5c-0.1,0.1-23.9,5.7-31.9-6.1c-4.3-5.7-6.1-17.5-8-26.9
						c-1.7-9.6-3.5-16.7-3.5-16.7c0,0,9.1,0.8,18,4C1938.4,630,1947.5,635.4,1951.8,641.1z"/>
					<path class="st9" d="M1951.7,594.6c8.1,11.7,2.8,31.6,2.9,31.5c-0.1,0.1-23.9,5.6-31.9-6.1c-4.3-5.7-6.1-17.5-8-26.9
						c-1.7-9.6-3.5-16.7-3.5-16.7c0,0,9.1,0.8,18,4C1938.4,583.5,1947.5,588.9,1951.7,594.6z"/>
					<path class="st9" d="M1961.4,762.8c-8,11.8-2.7,31.6-2.8,31.5c0.1,0.1,23.9,5.6,31.9-6.2c4.2-5.7,6.1-17.5,7.9-26.9
						c1.7-9.6,3.5-16.7,3.5-16.7c0,0-9.1,0.8-18,4C1974.7,751.6,1965.6,757.1,1961.4,762.8z"/>
					<path class="st9" d="M1961.3,716.3c-8,11.8-2.7,31.6-2.8,31.5c0.1,0.1,23.9,5.6,31.9-6.2c4.2-5.7,6.1-17.5,7.9-26.9
						c1.7-9.6,3.5-16.7,3.5-16.7s-9,0.8-18,4.1C1974.7,705.2,1965.6,710.6,1961.3,716.3z"/>
					<path class="st9" d="M1961.3,669.8c-8,11.8-2.7,31.6-2.8,31.5c0.1,0.1,23.9,5.6,31.9-6.2c4.2-5.7,6.1-17.5,7.9-26.9
						c1.7-9.6,3.5-16.7,3.5-16.7s-9,0.8-18,4.1C1974.6,658.7,1965.5,664.2,1961.3,669.8z"/>
					<path class="st9" d="M1961.2,623.4c-8,11.8-2.7,31.6-2.8,31.5c0.1,0.1,23.9,5.6,31.9-6.2c4.2-5.7,6.1-17.5,7.9-26.9
						c1.7-9.6,3.5-16.7,3.5-16.7s-9,0.8-18,4.1C1974.6,612.2,1965.5,617.7,1961.2,623.4z"/>
					<path class="st9" d="M1961.2,576.9c-8,11.8-2.7,31.6-2.8,31.5c0.1,0.1,23.9,5.6,31.9-6.2c4.2-5.7,6.1-17.5,7.9-26.9
						c1.7-9.6,3.5-16.7,3.5-16.7s-9,0.8-18,4.1C1974.5,565.7,1965.4,571.2,1961.2,576.9z"/>
					<path class="st9" d="M1928.1,560.3c3.9,13.7,22.5,22.4,22.3,22.4c0.2,0,19.6-14.7,15.8-28.4c-1.6-6.9-9.5-15.9-15.5-23.4
						c-6.2-7.4-10.6-13.4-10.5-13.4c0,0-5.2,7.5-8.5,16.4C1928.1,542.9,1926.5,553.4,1928.1,560.3z"/>
				</g>
				<path class="st9" d="M1962.3,878.9l0.9-76.4l-6.5,13.9l-2.6,69.2C1956.8,883.5,1959.8,881,1962.3,878.9z"/>
			</g>
		</g>
		<g class="st49">
			<g>
				<g>
					<path class="st9" d="M2070.4,780.5c8.1,11.7,2.8,31.6,2.9,31.5c-0.1,0.1-23.9,5.6-31.9-6.1c-4.3-5.7-6.1-17.5-8-26.9
						c-1.7-9.6-3.5-16.7-3.5-16.7c0,0,9.1,0.8,18,4C2057.1,769.4,2066.2,774.8,2070.4,780.5z"/>
					<path class="st9" d="M2070.4,734c8.1,11.7,2.8,31.6,2.9,31.5c-0.1,0.1-23.9,5.7-31.9-6.1c-4.3-5.7-6.1-17.5-8-26.9
						c-1.7-9.6-3.5-16.7-3.5-16.7c0,0,9.1,0.8,18,4C2057,722.9,2066.1,728.3,2070.4,734z"/>
					<path class="st9" d="M2070.3,687.6c8.1,11.7,2.8,31.6,2.9,31.5c-0.1,0.1-23.9,5.7-31.9-6.1c-4.3-5.7-6.1-17.5-8-26.9
						c-1.7-9.6-3.5-16.7-3.5-16.7c0,0,9.1,0.8,18,4C2057,676.4,2066.1,681.9,2070.3,687.6z"/>
					<path class="st9" d="M2070.3,641.1c8.1,11.7,2.8,31.6,2.9,31.5c-0.1,0.1-23.9,5.7-31.9-6.1c-4.3-5.7-6.1-17.5-8-26.9
						c-1.7-9.6-3.5-16.7-3.5-16.7c0,0,9.1,0.8,18,4C2056.9,630,2066,635.4,2070.3,641.1z"/>
					<path class="st9" d="M2070.2,594.6c8.1,11.7,2.8,31.6,2.9,31.5c-0.1,0.1-23.9,5.6-31.9-6.1c-4.3-5.7-6.1-17.5-8-26.9
						c-1.7-9.6-3.5-16.7-3.5-16.7c0,0,9.1,0.8,18,4C2056.9,583.5,2066,588.9,2070.2,594.6z"/>
					<path class="st9" d="M2079.9,762.8c-8,11.8-2.7,31.6-2.8,31.5c0.1,0.1,23.9,5.6,31.9-6.2c4.2-5.7,6.1-17.5,7.9-26.9
						c1.7-9.6,3.5-16.7,3.5-16.7c0,0-9.1,0.8-18,4C2093.2,751.6,2084.1,757.1,2079.9,762.8z"/>
					<path class="st9" d="M2079.8,716.3c-8,11.8-2.7,31.6-2.8,31.5c0.1,0.1,23.9,5.6,31.9-6.2c4.2-5.7,6.1-17.5,7.9-26.9
						c1.7-9.6,3.5-16.7,3.5-16.7s-9,0.8-18,4.1C2093.2,705.2,2084.1,710.6,2079.8,716.3z"/>
					<path class="st9" d="M2079.8,669.8c-8,11.8-2.7,31.6-2.8,31.5c0.1,0.1,23.9,5.6,31.9-6.2c4.2-5.7,6.1-17.5,7.9-26.9
						c1.7-9.6,3.5-16.7,3.5-16.7s-9,0.8-18,4.1C2093.1,658.7,2084,664.2,2079.8,669.8z"/>
					<path class="st9" d="M2079.7,623.4c-8,11.8-2.7,31.6-2.8,31.5c0.1,0.1,23.9,5.6,31.9-6.2c4.2-5.7,6.1-17.5,7.9-26.9
						c1.7-9.6,3.5-16.7,3.5-16.7s-9,0.8-18,4.1C2093.1,612.2,2084,617.7,2079.7,623.4z"/>
					<path class="st9" d="M2079.7,576.9c-8,11.8-2.7,31.6-2.8,31.5c0.1,0.1,23.9,5.6,31.9-6.2c4.2-5.7,6.1-17.5,7.9-26.9
						c1.7-9.6,3.5-16.7,3.5-16.7s-9,0.8-18,4.1C2093,565.7,2083.9,571.2,2079.7,576.9z"/>
					<path class="st9" d="M2046.6,560.3c3.9,13.7,22.5,22.4,22.3,22.4c0.2,0,19.6-14.7,15.8-28.4c-1.6-6.9-9.5-15.9-15.5-23.4
						c-6.2-7.4-10.6-13.4-10.5-13.4c0,0-5.2,7.5-8.5,16.4C2046.6,542.9,2045,553.4,2046.6,560.3z"/>
				</g>
				<path class="st9" d="M2080.8,878.9l0.9-76.4l-6.5,13.9l-2.6,69.2C2075.3,883.5,2078.3,881,2080.8,878.9z"/>
			</g>
		</g>
	</g>
	<g>
		<g>
			<linearGradient id="SVGID_7_" gradientUnits="userSpaceOnUse" x1="996.7931" y1="655.053" x2="1129.2291" y2="655.053">
				<stop  offset="0" style="stop-color:#358195"/>
				<stop  offset="1" style="stop-color:#195A74"/>
			</linearGradient>
			<circle style="fill:url(#SVGID_7_);" cx="1063" cy="655.1" r="66.2"/>
			<linearGradient id="SVGID_9_" gradientUnits="userSpaceOnUse" x1="1006.3451" y1="655.053" x2="1119.6771" y2="655.053">
				<stop  offset="0" style="stop-color:#195A74"/>
				<stop  offset="0.9982" style="stop-color:#358195"/>
			</linearGradient>
			<ellipse style="fill:url(#SVGID_9_);" cx="1063" cy="655.1" rx="56.7" ry="66.2"/>
			<ellipse class="st0" cx="1063" cy="655.1" rx="39.9" ry="46.5"/>
		</g>
		<text transform="matrix(1 -1.000000e-03 1.000000e-03 1 647.0457 790.8516)" class="st7 st82 st99">Cardiovascular</text>
		<text transform="matrix(1 -1.000000e-03 1.000000e-03 1 996.0661 790.7947)" class="st7 st82 st99">Diabetes</text>
		<text transform="matrix(1 -1.000000e-03 1.000000e-03 1 1273.2202 790.7836)" class="st7 st82 st99">Cancer</text>
		<g>
			<path class="st7" d="M1359.2,631.7c0-10.1-11.6-34.8-15.6-37.3c-3.7-2.4-13.6-1.9-15-1.8c-1.4-0.1-11.3-0.5-15,1.8
				c-4,2.5-15.6,27.2-15.6,37.3c0,6.7,2.7,14,8.8,22.6c2.5-4.1,6.1-9.9,7.9-12.5c2.2-3.2,7.6-10.3,10.9-14.7c-2.2-3.1-4-5.7-5.1-7.4
				c-4.3-6.5-5.1-10.9-5.1-10.9h13h0.4h13c0,0-0.7,4.3-5.1,10.9c-4.3,6.5-20.6,29-22.4,32.6c-1.8,3.6-26.1,42-28.2,50.7l20.3,20.6
				c0,0,17-39.8,31.9-55C1353,653.4,1359.2,641.8,1359.2,631.7z"/>
			<path class="st7" d="M1350,664.2c-3.4,3.4-7.8,8-9.7,10.3c-1.9,2.4-5.5,7.6-8.3,12c10.3,17.1,18.9,37.2,18.9,37.2l20.3-20.6
				C1369.6,697.1,1357.9,677.3,1350,664.2z"/>
		</g>
		<g transform="translate(-510 -80)">
			<g>
				<path class="st7" d="M1292.5,714.9c-0.3,0.7-0.6,1.8-0.2,3.6c4.3,0.7,12.6,3.1,20.2,10c-0.6-9.6-6.4-15.6-12.6-19.3
					C1297.2,710.3,1293.7,712.2,1292.5,714.9z"/>
				<path class="st7" d="M1248.6,707.5c0.1-0.3,0.2-0.6,0.2-0.9c-2.8,2-5.3,5.5-6.1,11.3c-2.5,16.3-17.2,9.3-7.4,30.3
					c1.7,3.6,3.4,6.4,5,8.7c0.3-5.8,2.7-15,12.2-23.7C1249.8,725.5,1247.3,715.7,1248.6,707.5z"/>
				<path class="st7" d="M1254.1,704.2c-0.5,1.3-1,2.6-1.1,4c-1,6.8,0.9,15.1,3.2,21.9c1.4-1.1,2.9-2.1,4.6-3.1
					c1.4-0.9,2.8-1.7,4.4-2.5c-2.6-24.8,23.6-38.7,23.6-38.7l-4.5-9c0,0-5.3,2.7-11.5,7.1l-7.8-8.6l-3.3,3l7.5,8.2
					c-1.2,0.9-2.3,1.9-3.5,2.9l-7.5-8.5l-3.3,3l7.5,8.5c-1.1,1.1-2.1,2.2-3.1,3.3l-7.6-8.4l-3.3,3l8.1,9
					C1255.6,700.9,1254.8,702.5,1254.1,704.2z"/>
				<path class="st7" d="M1312.2,734.5c-10.1-11.4-23-12-23-12c-4.2-8.1,0.7-13.1,5.7-15.9c3.7-2.1,7.3-3,7.3-3v-9
					c-12.1,0-19.7,3.7-24.5,8.6c-2.2,2.3-3.8,4.9-5,7.5c-3,6.6-3.1,13.3-3.1,16.4c-3.3,1.6-6.1,3.2-8.6,4.9
					c-1.2,0.8-2.2,1.6-3.2,2.4c-1.3,1.1-2.5,2.1-3.6,3.2c-10.5,10.6-9.6,21.4-9.2,23.9c0.1,0.3,0.1,0.6,0.1,0.6
					c4.9,30.3,27,32.7,44.1,35c17.2,2.3,23.9,1.1,30.9-4c7.9-5.8,8.3-19.3,0.9-42.7C1318.9,743.6,1315.7,738.4,1312.2,734.5z"/>
			</g>
		</g>
	</g>
	<text transform="matrix(1 0 0 1 1663.782 669.3779)"><tspan x="0" y="0" class="st7 st84 st85">Your diet related risk for:</tspan><tspan x="-144.9" y="36" class="st7 st57 st85">Cardiovascular</tspan><tspan x="75.3" y="36" class="st7 st84 st85">, </tspan><tspan x="89.5" y="36" class="st7 st57 st85">Diabetes</tspan><tspan x="218.1" y="36" class="st7 st84 st85">, </tspan><tspan x="232.4" y="36" class="st7 st57 st85">Cancer</tspan><tspan x="-152.1" y="72" class="st7 st84 st85">differs per country, age and gender.</tspan></text>
	<rect x="173.5" y="693.5" class="st33" width="440.3" height="104.9"/>
	<text transform="matrix(1 0 0 1 173.4712 717.9838)"><tspan x="0" y="0" class="st7 st57 st85">229 million</tspan><tspan x="162.2" y="0" class="st7 st84 st85"> Disability Adjusted </tspan><tspan x="0" y="34.2" class="st7 st84 st85">Life Years lost due to unhealthy </tspan><tspan x="0" y="68.3" class="st7 st84 st85">diets worldwide.</tspan></text>
</g>
<path class="st64" d="M1989.1,1448.8c-2.1,0-4,1.6-4.1,3.7c-0.1,2.2,1.7,4.1,3.9,4.1h75.1c0,0,0.1,0,0,0.1l-3.7,3.7
	c-1.5,1.5-1.7,4-0.3,5.5c1.5,1.6,4.1,1.7,5.6,0.1l10.5-10.5c0.2-0.2,0.3-0.4,0.5-0.6c0.1-0.1,0.1-0.2,0.2-0.3
	c0.1-0.1,0.1-0.3,0.2-0.4c0.1-0.1,0.1-0.3,0.1-0.4c0-0.1,0.1-0.2,0.1-0.3c0.1-0.3,0.1-0.5,0.1-0.8s0-0.5-0.1-0.8
	c0-0.1-0.1-0.2-0.1-0.3c0-0.1-0.1-0.3-0.1-0.4c-0.1-0.1-0.1-0.3-0.2-0.4c-0.1-0.1-0.1-0.2-0.2-0.3c-0.1-0.2-0.3-0.4-0.5-0.6
	l-10.7-10.7c-1.6-1.6-4.1-1.5-5.6,0.1c-1.4,1.6-1.2,4,0.3,5.5l3.9,3.9c0,0,0,0.1,0,0.1"/>
<g>
	<polygon class="st9" points="807.9,457.6 473.9,457.6 513,403.1 768.8,403.1 	"/>
	<polygon class="st9" points="765.2,398.2 516.5,398.2 555.6,343.7 726.2,343.7 	"/>
	<polygon class="st9" points="722.6,338.8 559.2,338.8 598.3,284.3 683.5,284.3 	"/>
	<polygon class="st9" points="680,279.4 601.8,279.4 640.9,224.9 	"/>
	<polygon class="st41" points="807.9,457.6 473.9,457.6 513,403.1 768.8,403.1 	"/>
	<polygon class="st19" points="765.2,398.2 516.5,398.2 555.6,343.7 726.2,343.7 	"/>
	<polygon class="st18" points="722.6,338.8 559.2,338.8 598.3,284.3 683.5,284.3 	"/>
	<polygon class="st17" points="680,279.4 601.8,279.4 640.9,224.9 	"/>
	
		<rect x="638.4" y="282.2" transform="matrix(-1 -1.224647e-16 1.224647e-16 -1 1281.788 623.7073)" class="st9" width="4.9" height="59.2"/>
	
		<rect x="663.9" y="341.3" transform="matrix(-1 -1.224647e-16 1.224647e-16 -1 1332.7893 741.9102)" class="st9" width="4.9" height="59.2"/>
</g>
<g>
	<path class="st115" d="M1090.6,349.5c0.3-1.5,0.4-3.1,0.4-4.7c0-15-12.1-27.1-27.1-27.1c-4.5,0-8.8,1.1-12.5,3.1
		c-5.3-7.8-14.3-12.9-24.5-12.9c-16.3,0-29.6,13.2-29.6,29.6c0,0,0,0.1,0,0.1c-13.8,1.2-24.7,12.8-24.7,27c0,15,12.1,27.1,27.1,27.1
		c0.7,0,1.4-0.1,2-0.1c8.1,10.4,20.7,17.1,34.9,17.1c9.7,0,18.6-3.1,25.9-8.4c2.7,0.8,5.6,1.3,8.6,1.3c16.3,0,29.6-13.2,29.6-29.6
		C1100.9,363,1096.9,355,1090.6,349.5z"/>
	<path class="st22" d="M1100.7,345.9c0.3-1.8,0.5-3.7,0.5-5.7c0-18-14.6-32.5-32.5-32.5c-5.4,0-10.5,1.3-15,3.7
		c-6.4-9.4-17.1-15.5-29.3-15.5c-19.6,0-35.5,15.9-35.5,35.5c0,0.1,0,0.1,0,0.2c-16.6,1.5-29.6,15.4-29.6,32.4
		c0,18,14.6,32.5,32.5,32.5c0.8,0,1.6-0.1,2.4-0.1c9.7,12.4,24.9,20.5,41.9,20.5c11.6,0,22.3-3.8,31.1-10.1c3.3,1,6.7,1.5,10.3,1.5
		c19.6,0,35.5-15.9,35.5-35.5C1113.1,362.1,1108.3,352.4,1100.7,345.9z M1005.1,377.9c-9.8,0-17.7-7.5-17.7-17.7v-0.1
		c0-10,7.7-17.8,18.1-17.8c7,0,11.5,2.9,14.5,7.1l-7.1,5.5c-2-2.4-4.2-4-7.5-4c-4.8,0-8.2,4.1-8.2,9.1v0.1c0,5.1,3.4,9.1,8.2,9.1
		c3.6,0,5.7-1.7,7.7-4.2l7.1,5.1C1017,374.7,1012.6,377.9,1005.1,377.9z M1059.1,360.1c0,9.8-7.9,17.8-18.5,17.8
		c-10.6,0-18.4-7.9-18.4-17.7v-0.1c0-9.8,7.9-17.8,18.5-17.8C1051.2,342.3,1059.1,350.2,1059.1,360.1L1059.1,360.1z M1084.8,385.5
		h-22.2v-5.9l10.5-8c2.6-2,3.6-3.4,3.6-5.1c0-1.8-1.2-2.8-3.1-2.8c-1.9,0-3.4,1.1-5.6,3.6l-5.2-4.4c3-3.9,6-6,11.4-6
		c6.1,0,10.3,3.6,10.3,8.9v0.1c0,4.5-2.3,6.8-6.5,9.8l-4.8,3.4h11.6L1084.8,385.5z M1040.6,350.9c-5.2,0-8.7,4.2-8.7,9.2v0.1
		c0,4.9,3.6,9.2,8.8,9.2c5.2,0,8.7-4.2,8.7-9.2v-0.1C1049.4,355.2,1045.8,350.9,1040.6,350.9"/>
</g>
<text transform="matrix(1 0 0 1 880.7605 321.6521)" class="st7 st57 st116">too much</text>
<path class="st7" d="M860.7,328.6c-1.3,1.4-1.1,3.7,0.3,5.1l3.5,3.5c0,0,0,0.1,0,0.1h-68.5c-1.9,0-3.6,1.4-3.7,3.4
	c-0.1,2,1.5,3.7,3.5,3.7h68.7c0,0,0,0,0,0.1l-3.4,3.4c-1.4,1.4-1.6,3.6-0.3,5.1c1.4,1.5,3.7,1.5,5.1,0.1l9.6-9.6
	c0.2-0.2,0.3-0.3,0.4-0.5c0.1-0.1,0.1-0.2,0.1-0.3c0.1-0.1,0.1-0.2,0.2-0.4c0-0.1,0.1-0.2,0.1-0.4c0-0.1,0.1-0.2,0.1-0.3
	c0-0.2,0.1-0.5,0.1-0.7c0-0.2,0-0.5-0.1-0.7c0-0.1-0.1-0.2-0.1-0.3c0-0.1-0.1-0.2-0.1-0.3c-0.1-0.1-0.1-0.2-0.2-0.4
	c0-0.1-0.1-0.2-0.1-0.3c-0.1-0.2-0.3-0.4-0.4-0.5l-9.8-9.8C864.4,327.1,862.1,327.1,860.7,328.6z"/>
</svg>
