<?xml version="1.0" encoding="utf-8"?>
<!-- Generator: Adobe Illustrator 19.2.0, SVG Export Plug-In . SVG Version: 6.00 Build 0)  -->
<svg version="1.1" id="Infographic_1" xmlns="http://www.w3.org/2000/svg" xmlns:xlink="http://www.w3.org/1999/xlink" x="0px"
	 y="0px" viewBox="0 0 2144.6 1532.1" style="enable-background:new 0 0 2144.6 1532.1;" xml:space="preserve">
<style type="text/css">
	.st0{fill:#EEF5F7;}
	.st1{fill-rule:evenodd;clip-rule:evenodd;fill:#EE7631;}
	.st2{fill-rule:evenodd;clip-rule:evenodd;fill:#72B84E;}
	.st3{fill-rule:evenodd;clip-rule:evenodd;fill:#195A74;}
	.st4{fill:#EE7631;stroke:#EE7631;stroke-width:3.4089;stroke-miterlimit:10;}
	.st5{fill:none;stroke:#959290;stroke-width:3.4089;stroke-miterlimit:10;}
	.st6{fill-rule:evenodd;clip-rule:evenodd;fill:#80A4D4;}
	.st7{fill:#1B556C;}
	.st8{fill:#72B84E;}
	.st9{fill:#FFFFFF;}
	.st10{fill:#5E5A57;}
	.st11{fill:#45413D;}
	.st12{fill:#26231E;}
	.st13{fill:#F7CE40;}
	.st14{fill:#F7CE40;stroke:#FFFFFF;stroke-width:16.2206;stroke-miterlimit:10;}
	.st15{opacity:0.53;fill:url(#);}
	.st16{fill:#005577;}
	.st17{fill:#EAF3E4;}
	.st18{fill:#C9E0B4;}
	.st19{fill:#98C773;}
	.st20{fill-rule:evenodd;clip-rule:evenodd;fill:#DFDFDF;}
	.st21{fill-rule:evenodd;clip-rule:evenodd;fill:#1D617A;}
	.st22{fill:#EAE9EA;}
	.st23{fill-rule:evenodd;clip-rule:evenodd;fill:#959290;}
	.st24{fill:#F8CF3F;}
	.st25{fill:#F8CF3F;stroke:#FFFFFF;stroke-width:4.4566;stroke-miterlimit:10;}
	.st26{fill:#0B6A7E;}
	.st27{fill:#31768A;}
	.st28{fill:#7A9EAD;}
	.st29{fill:#6F97A7;}
	.st30{fill:#A6BBC7;}
	.st31{fill:#BCCBD5;}
	.st32{fill:#EE7631;}
	.st33{fill:none;}
	.st34{fill-rule:evenodd;clip-rule:evenodd;fill:none;}
	.st35{fill:#DFDFDF;}
	.st36{fill:none;stroke:#195A74;stroke-width:13.6354;stroke-miterlimit:10;}
	.st37{fill:none;stroke:#195A74;stroke-width:13.6354;stroke-linecap:round;stroke-miterlimit:10;}
	.st38{fill-rule:evenodd;clip-rule:evenodd;fill:#ECEBEC;}
	.st39{fill-rule:evenodd;clip-rule:evenodd;fill:#FFFFFF;}
	.st40{opacity:0.72;fill:url(#SVGID_1_);}
	.st41{fill:#59B031;}
	.st42{fill:url(#SVGID_2_);}
	.st43{fill:#1D617A;}
	.st44{fill:url(#SVGID_3_);}
	.st45{fill:url(#SVGID_4_);}
	.st46{fill:url(#SVGID_5_);}
	.st47{clip-path:url(#SVGID_7_);}
	.st48{fill:#1F617B;}
	.st49{opacity:0.52;}
	.st50{clip-path:url(#SVGID_11_);}
	.st51{clip-path:url(#SVGID_13_);}
	.st52{clip-path:url(#SVGID_15_);}
	.st53{fill:none;stroke:#FFFFFF;stroke-width:2.9621;stroke-miterlimit:10;}
	.st54{clip-path:url(#SVGID_16_);fill:none;stroke:#FFFFFF;stroke-width:4.3621;stroke-linejoin:round;stroke-miterlimit:10;}
	.st55{fill:#E7E6E6;}
	.st56{fill:#44403E;}
	.st57{clip-path:url(#SVGID_19_);fill:url(#SVGID_20_);}
	.st58{fill:#DAE7EC;}
	.st59{opacity:0.1;fill:#13110C;}
	.st60{filter:url(#Adobe_OpacityMaskFilter);}
	.st61{mask:url(#SVGID_21_);}
	.st62{fill:#195A74;}
	.st63{clip-path:url(#SVGID_23_);fill:#EE7631;}
	.st64{fill:#4C4846;}
	.st65{fill:#ED6B06;}
	.st66{fill:#FFFBFA;stroke:#ED6C0C;stroke-width:4.3002;stroke-miterlimit:10;}
	.st67{fill-rule:evenodd;clip-rule:evenodd;fill:#FFFBFA;}
	.st68{opacity:0.5;}
	.st69{opacity:0.6;}
	.st70{fill-rule:evenodd;clip-rule:evenodd;fill:#D6E7F5;}
	.st71{fill-rule:evenodd;clip-rule:evenodd;fill:#EEF5F7;}
	.st72{fill:#C1DBE2;}
	.st73{fill:none;stroke:#1C566D;stroke-width:6.527;stroke-miterlimit:10;}
	.st74{fill-rule:evenodd;clip-rule:evenodd;fill:#ED6B06;}
	.st75{clip-path:url(#SVGID_25_);fill:none;stroke:#73B84E;stroke-width:1.6851;stroke-linejoin:round;stroke-miterlimit:10;}
	.st76{clip-path:url(#SVGID_27_);fill:none;stroke:#73B84E;stroke-width:1.6851;stroke-linejoin:round;stroke-miterlimit:10;}
	.st77{fill:url(#SVGID_28_);}
	.st78{fill:url(#SVGID_29_);}
	.st79{clip-path:url(#SVGID_31_);fill:none;stroke:#73B84E;stroke-width:1.4366;stroke-linejoin:round;stroke-miterlimit:10;}
	.st80{fill:#EC6610;}
	.st81{fill:#ED6E5C;}
	.st82{fill:none;stroke:#EC6614;stroke-width:5.2585;stroke-miterlimit:10;}
	.st83{fill:none;stroke:#EC6614;stroke-width:5.2585;stroke-miterlimit:10;stroke-dasharray:8.9228,8.9228;}
	.st84{fill:url(#SVGID_32_);}
	.st85{fill:url(#SVGID_33_);}
	.st86{fill:#CCE3F7;}
	.st87{opacity:0.31;fill:#47666E;}
	.st88{fill:#F6FBFE;}
	.st89{filter:url(#Adobe_OpacityMaskFilter_1_);}
	.st90{opacity:0.2;fill-rule:evenodd;clip-rule:evenodd;fill:#FFFFFF;}
	.st91{mask:url(#SVGID_34_);}
	.st92{fill-rule:evenodd;clip-rule:evenodd;fill:url(#SVGID_35_);}
	.st93{fill-rule:evenodd;clip-rule:evenodd;fill:url(#SVGID_36_);}
	.st94{fill-rule:evenodd;clip-rule:evenodd;fill:url(#SVGID_37_);}
	.st95{fill:#1B556C;stroke:#1B556C;stroke-width:2;stroke-linecap:round;stroke-miterlimit:10;}
	.st96{fill:none;stroke:#E5590F;stroke-miterlimit:10;}
	.st97{fill:#5C8591;}
	.st98{fill:#E63912;}
	.st99{fill:#FCF5F6;stroke:#E63912;stroke-width:4.0757;stroke-miterlimit:10;}
	.st100{fill:url(#SVGID_38_);}
	.st101{fill-rule:evenodd;clip-rule:evenodd;fill:#1B556C;}
	.st102{fill:none;stroke:#DAE7EC;stroke-width:3.092;stroke-linecap:round;stroke-miterlimit:10;}
	.st103{fill-rule:evenodd;clip-rule:evenodd;fill:#C1DBE2;}
	.st104{fill:#F7FBFE;stroke:#7FA4D4;stroke-width:4.3002;stroke-miterlimit:10;}
	.st105{fill:#1D4E5F;}
	.st106{opacity:0.6;fill:#D6E7F5;}
	.st107{fill:none;stroke:#D6E7F5;stroke-width:8.2827;stroke-linecap:round;stroke-miterlimit:10;}
	.st108{fill:none;stroke:#1C566D;stroke-width:4.1414;stroke-miterlimit:10;}
	.st109{fill:#1B4E5F;}
	.st110{fill-rule:evenodd;clip-rule:evenodd;fill:#A1C1E7;}
	.st111{fill:#5086C5;}
	.st112{font-family:'SourceSansPro-Black';}
	.st113{font-size:34.09px;}
	.st114{font-size:27px;}
	.st115{letter-spacing:2;}
	.st116{font-family:'SourceSansPro-Light';}
	.st117{font-size:34.0886px;}
	.st118{font-size:30px;}
	.st119{font-size:56px;}
	.st120{opacity:0.2;}
	.st121{font-family:'SourceSansPro-SemiBold';}
	.st122{opacity:0.2;fill:#1D617A;}
	.st123{font-size:34px;}
	.st124{fill:#F7FAF1;stroke:#59B031;stroke-width:4.3002;stroke-miterlimit:10;}
	.st125{clip-path:url(#SVGID_40_);fill:none;stroke:#F7FAF1;stroke-width:3.5588;stroke-linejoin:round;stroke-miterlimit:10;}
	.st126{fill:#DDEBCE;}
	.st127{fill:#C1DAA5;}
	.st128{fill:#4DA134;}
	.st129{fill:url(#SVGID_41_);}
	.st130{fill:url(#SVGID_42_);}
	.st131{font-family:'SourceSansPro-Bold';}
	.st132{font-size:50px;}
	.st133{font-size:35.0103px;}
	.st134{font-size:43.3862px;}
	.st135{fill:url(#SVGID_43_);}
	.st136{fill:url(#SVGID_44_);}
	.st137{fill:url(#SVGID_45_);}
	.st138{fill:url(#SVGID_46_);}
	.st139{fill:url(#SVGID_47_);}
	.st140{fill:url(#SVGID_48_);}
	.st141{font-size:33px;}
	.st142{fill:#519DA6;}
	.st143{font-size:26.2976px;}
	.st144{fill-rule:evenodd;clip-rule:evenodd;fill:#B3D0ED;}
	.st145{fill-rule:evenodd;clip-rule:evenodd;fill:#CCE3F7;}
	.st146{fill-rule:evenodd;clip-rule:evenodd;fill:#5086C5;}
	.st147{clip-path:url(#SVGID_50_);}
	.st148{fill:#89CED8;}
	.st149{opacity:0.3;}
	.st150{clip-path:url(#SVGID_52_);}
	.st151{fill:#266F85;}
	.st152{fill:none;stroke:#EC6614;stroke-width:2.7448;stroke-linecap:round;stroke-miterlimit:10;}
	.st153{fill:none;stroke:#59B031;stroke-width:3.6597;stroke-linecap:round;stroke-miterlimit:10;}
	
		.st154{fill:none;stroke:#59B031;stroke-width:3.6597;stroke-linecap:round;stroke-miterlimit:10;stroke-dasharray:10.9013,10.9013;}
	.st155{fill:none;stroke:#59B031;stroke-width:3.6597;stroke-miterlimit:10;}
	.st156{fill:#FAFCF6;stroke:#73B84E;stroke-width:4.0757;stroke-miterlimit:10;}
</style>
<rect x="-4.8" y="69.6" class="st7" width="806.8" height="238.3"/>
<rect x="-3.5" y="607.9" class="st0" width="2151.5" height="12.1"/>
<rect x="122.7" y="174.6" class="st33" width="607.9" height="114.5"/>
<text transform="matrix(1 0 0 1 122.6566 199.0782)"><tspan x="0" y="0" class="st9 st112 st113">a new approach.</tspan><tspan x="296.8" y="0" class="st9 st112 st114 st115"> </tspan><tspan x="304.9" y="0" class="st9 st116 st117">Meal related risk </tspan><tspan x="0" y="34.2" class="st9 st116 st117">indicator based on the Global Burden of </tspan><tspan x="0" y="68.3" class="st9 st116 st117">Disease project&apos;s results.</tspan></text>
<rect x="920.9" y="108.2" class="st33" width="1149.2" height="26.8"/>
<text transform="matrix(1 0 0 1 920.8564 129.7759)" class="st7 st116 st118">Each meal counts. We look at 8 diet related risk factors. Better ingredients score less risk points.</text>
<rect x="117.7" y="102.9" class="st33" width="737.3" height="75.5"/>
<text transform="matrix(1 0 0 1 117.6561 141.8533)" class="st9 st112 st119">VitaScore</text>
<g class="st120">
	<g>
		<path class="st43" d="M935.8,212.1c1.8,2.6,0.6,6.9,0.6,6.9c0,0-5.2,1.2-7-1.3c-0.9-1.2-1.3-3.8-1.8-5.9c-0.4-2.1-0.8-3.7-0.8-3.7
			c0,0,2,0.2,4,0.9C932.8,209.7,934.8,210.9,935.8,212.1z"/>
		<path class="st43" d="M935.7,201.9c1.8,2.6,0.6,6.9,0.6,6.9c0,0-5.2,1.2-7-1.3c-0.9-1.2-1.3-3.8-1.8-5.9c-0.4-2.1-0.8-3.7-0.8-3.7
			c0,0,2,0.2,4,0.9C932.8,199.5,934.8,200.7,935.7,201.9z"/>
		<path class="st43" d="M935.7,191.7c1.8,2.6,0.6,6.9,0.6,6.9c0,0-5.2,1.2-7-1.3c-0.9-1.2-1.3-3.8-1.8-5.9c-0.4-2.1-0.8-3.7-0.8-3.7
			c0,0,2,0.2,4,0.9C932.8,189.2,934.8,190.4,935.7,191.7z"/>
		<path class="st43" d="M935.7,181.5c1.8,2.6,0.6,6.9,0.6,6.9c0,0-5.2,1.2-7-1.3c-0.9-1.2-1.3-3.8-1.8-5.9c-0.4-2.1-0.8-3.7-0.8-3.7
			c0,0,2,0.2,4,0.9C932.8,179,934.8,180.2,935.7,181.5z"/>
		<path class="st43" d="M935.7,171.3c1.8,2.6,0.6,6.9,0.6,6.9c0,0-5.2,1.2-7-1.3c-0.9-1.2-1.3-3.8-1.8-5.9c-0.4-2.1-0.8-3.7-0.8-3.7
			c0,0,2,0.2,4,0.9C932.8,168.8,934.8,170,935.7,171.3z"/>
		<path class="st43" d="M937.8,208.2c-1.8,2.6-0.6,6.9-0.6,6.9c0,0,5.3,1.2,7-1.4c0.9-1.2,1.3-3.8,1.7-5.9c0.4-2.1,0.8-3.7,0.8-3.7
			c0,0-2,0.2-4,0.9C940.8,205.8,938.8,207,937.8,208.2z"/>
		<path class="st43" d="M937.8,198c-1.8,2.6-0.6,6.9-0.6,6.9c0,0,5.3,1.2,7-1.4c0.9-1.2,1.3-3.8,1.7-5.9c0.4-2.1,0.8-3.7,0.8-3.7
			s-2,0.2-4,0.9C940.8,195.6,938.8,196.8,937.8,198z"/>
		<path class="st43" d="M937.8,187.8c-1.8,2.6-0.6,6.9-0.6,6.9c0,0,5.3,1.2,7-1.4c0.9-1.2,1.3-3.8,1.7-5.9c0.4-2.1,0.8-3.7,0.8-3.7
			s-2,0.2-4,0.9C940.7,185.3,938.7,186.5,937.8,187.8z"/>
		<path class="st43" d="M937.8,177.6c-1.8,2.6-0.6,6.9-0.6,6.9c0,0,5.3,1.2,7-1.4c0.9-1.2,1.3-3.8,1.7-5.9c0.4-2.1,0.8-3.7,0.8-3.7
			s-2,0.2-4,0.9C940.7,175.1,938.7,176.3,937.8,177.6z"/>
		<path class="st43" d="M937.8,167.4c-1.8,2.6-0.6,6.9-0.6,6.9c0,0,5.3,1.2,7-1.4c0.9-1.2,1.3-3.8,1.7-5.9c0.4-2.1,0.8-3.7,0.8-3.7
			s-2,0.2-4,0.9C940.7,164.9,938.7,166.1,937.8,167.4z"/>
		<path class="st43" d="M930.5,163.7c0.8,3,4.9,4.9,4.9,4.9c0,0,4.3-3.2,3.5-6.2c-0.4-1.5-2.1-3.5-3.4-5.1c-1.4-1.6-2.3-2.9-2.3-2.9
			c0,0-1.1,1.6-1.9,3.6C930.5,159.9,930.2,162.2,930.5,163.7z"/>
	</g>
	<path class="st43" d="M938,233.7l0.2-16.8l-1.4,3.1l-0.6,15.2C936.8,234.7,937.5,234.2,938,233.7z"/>
</g>
<g class="st120">
	<g>
		<path class="st43" d="M959.8,212.1c1.8,2.6,0.6,6.9,0.6,6.9c0,0-5.2,1.2-7-1.3c-0.9-1.2-1.3-3.8-1.8-5.9c-0.4-2.1-0.8-3.7-0.8-3.7
			c0,0,2,0.2,4,0.9C956.8,209.7,958.8,210.9,959.8,212.1z"/>
		<path class="st43" d="M959.7,201.9c1.8,2.6,0.6,6.9,0.6,6.9c0,0-5.2,1.2-7-1.3c-0.9-1.2-1.3-3.8-1.8-5.9c-0.4-2.1-0.8-3.7-0.8-3.7
			c0,0,2,0.2,4,0.9C956.8,199.5,958.8,200.7,959.7,201.9z"/>
		<path class="st43" d="M959.7,191.7c1.8,2.6,0.6,6.9,0.6,6.9c0,0-5.2,1.2-7-1.3c-0.9-1.2-1.3-3.8-1.8-5.9c-0.4-2.1-0.8-3.7-0.8-3.7
			c0,0,2,0.2,4,0.9C956.8,189.2,958.8,190.4,959.7,191.7z"/>
		<path class="st43" d="M959.7,181.5c1.8,2.6,0.6,6.9,0.6,6.9c0,0-5.2,1.2-7-1.3c-0.9-1.2-1.3-3.8-1.8-5.9c-0.4-2.1-0.8-3.7-0.8-3.7
			c0,0,2,0.2,4,0.9C956.8,179,958.8,180.2,959.7,181.5z"/>
		<path class="st43" d="M959.7,171.3c1.8,2.6,0.6,6.9,0.6,6.9c0,0-5.2,1.2-7-1.3c-0.9-1.2-1.3-3.8-1.8-5.9c-0.4-2.1-0.8-3.7-0.8-3.7
			c0,0,2,0.2,4,0.9C956.8,168.8,958.8,170,959.7,171.3z"/>
		<path class="st43" d="M961.8,208.2c-1.8,2.6-0.6,6.9-0.6,6.9c0,0,5.3,1.2,7-1.4c0.9-1.2,1.3-3.8,1.7-5.9c0.4-2.1,0.8-3.7,0.8-3.7
			c0,0-2,0.2-4,0.9C964.8,205.8,962.8,207,961.8,208.2z"/>
		<path class="st43" d="M961.8,198c-1.8,2.6-0.6,6.9-0.6,6.9c0,0,5.3,1.2,7-1.4c0.9-1.2,1.3-3.8,1.7-5.9c0.4-2.1,0.8-3.7,0.8-3.7
			s-2,0.2-4,0.9C964.8,195.6,962.8,196.8,961.8,198z"/>
		<path class="st43" d="M961.8,187.8c-1.8,2.6-0.6,6.9-0.6,6.9c0,0,5.3,1.2,7-1.4c0.9-1.2,1.3-3.8,1.7-5.9c0.4-2.1,0.8-3.7,0.8-3.7
			s-2,0.2-4,0.9C964.7,185.3,962.7,186.5,961.8,187.8z"/>
		<path class="st43" d="M961.8,177.6c-1.8,2.6-0.6,6.9-0.6,6.9c0,0,5.3,1.2,7-1.4c0.9-1.2,1.3-3.8,1.7-5.9c0.4-2.1,0.8-3.7,0.8-3.7
			s-2,0.2-4,0.9C964.7,175.1,962.7,176.3,961.8,177.6z"/>
		<path class="st43" d="M961.8,167.4c-1.8,2.6-0.6,6.9-0.6,6.9c0,0,5.3,1.2,7-1.4c0.9-1.2,1.3-3.8,1.7-5.9c0.4-2.1,0.8-3.7,0.8-3.7
			s-2,0.2-4,0.9C964.7,164.9,962.7,166.1,961.8,167.4z"/>
		<path class="st43" d="M954.5,163.7c0.8,3,4.9,4.9,4.9,4.9c0,0,4.3-3.2,3.5-6.2c-0.4-1.5-2.1-3.5-3.4-5.1c-1.4-1.6-2.3-2.9-2.3-2.9
			c0,0-1.1,1.6-1.9,3.6C954.5,159.9,954.2,162.2,954.5,163.7z"/>
	</g>
	<path class="st43" d="M962,233.7l0.2-16.8l-1.4,3.1l-0.6,15.2C960.8,234.7,961.5,234.2,962,233.7z"/>
</g>
<g class="st120">
	<g>
		<path class="st43" d="M983.8,212.1c1.8,2.6,0.6,6.9,0.6,6.9c0,0-5.2,1.2-7-1.3c-0.9-1.2-1.3-3.8-1.8-5.9c-0.4-2.1-0.8-3.7-0.8-3.7
			c0,0,2,0.2,4,0.9C980.8,209.7,982.8,210.9,983.8,212.1z"/>
		<path class="st43" d="M983.7,201.9c1.8,2.6,0.6,6.9,0.6,6.9c0,0-5.2,1.2-7-1.3c-0.9-1.2-1.3-3.8-1.8-5.9c-0.4-2.1-0.8-3.7-0.8-3.7
			c0,0,2,0.2,4,0.9C980.8,199.5,982.8,200.7,983.7,201.9z"/>
		<path class="st43" d="M983.7,191.7c1.8,2.6,0.6,6.9,0.6,6.9c0,0-5.2,1.2-7-1.3c-0.9-1.2-1.3-3.8-1.8-5.9c-0.4-2.1-0.8-3.7-0.8-3.7
			c0,0,2,0.2,4,0.9C980.8,189.2,982.8,190.4,983.7,191.7z"/>
		<path class="st43" d="M983.7,181.5c1.8,2.6,0.6,6.9,0.6,6.9c0,0-5.2,1.2-7-1.3c-0.9-1.2-1.3-3.8-1.8-5.9c-0.4-2.1-0.8-3.7-0.8-3.7
			c0,0,2,0.2,4,0.9C980.8,179,982.8,180.2,983.7,181.5z"/>
		<path class="st43" d="M983.7,171.3c1.8,2.6,0.6,6.9,0.6,6.9c0,0-5.2,1.2-7-1.3c-0.9-1.2-1.3-3.8-1.8-5.9c-0.4-2.1-0.8-3.7-0.8-3.7
			c0,0,2,0.2,4,0.9C980.8,168.8,982.8,170,983.7,171.3z"/>
		<path class="st43" d="M985.8,208.2c-1.8,2.6-0.6,6.9-0.6,6.9c0,0,5.3,1.2,7-1.4c0.9-1.2,1.3-3.8,1.7-5.9c0.4-2.1,0.8-3.7,0.8-3.7
			c0,0-2,0.2-4,0.9C988.8,205.8,986.8,207,985.8,208.2z"/>
		<path class="st43" d="M985.8,198c-1.8,2.6-0.6,6.9-0.6,6.9c0,0,5.3,1.2,7-1.4c0.9-1.2,1.3-3.8,1.7-5.9c0.4-2.1,0.8-3.7,0.8-3.7
			s-2,0.2-4,0.9C988.8,195.6,986.8,196.8,985.8,198z"/>
		<path class="st43" d="M985.8,187.8c-1.8,2.6-0.6,6.9-0.6,6.9c0,0,5.3,1.2,7-1.4c0.9-1.2,1.3-3.8,1.7-5.9c0.4-2.1,0.8-3.7,0.8-3.7
			s-2,0.2-4,0.9C988.7,185.3,986.7,186.5,985.8,187.8z"/>
		<path class="st43" d="M985.8,177.6c-1.8,2.6-0.6,6.9-0.6,6.9c0,0,5.3,1.2,7-1.4c0.9-1.2,1.3-3.8,1.7-5.9c0.4-2.1,0.8-3.7,0.8-3.7
			s-2,0.2-4,0.9C988.7,175.1,986.7,176.3,985.8,177.6z"/>
		<path class="st43" d="M985.8,167.4c-1.8,2.6-0.6,6.9-0.6,6.9c0,0,5.3,1.2,7-1.4c0.9-1.2,1.3-3.8,1.7-5.9c0.4-2.1,0.8-3.7,0.8-3.7
			s-2,0.2-4,0.9C988.7,164.9,986.7,166.1,985.8,167.4z"/>
		<path class="st43" d="M978.5,163.7c0.8,3,4.9,4.9,4.9,4.9c0,0,4.3-3.2,3.5-6.2c-0.4-1.5-2.1-3.5-3.4-5.1c-1.4-1.6-2.3-2.9-2.3-2.9
			c0,0-1.1,1.6-1.9,3.6C978.5,159.9,978.2,162.2,978.5,163.7z"/>
	</g>
	<path class="st43" d="M986,233.7l0.2-16.8l-1.4,3.1l-0.6,15.2C984.8,234.7,985.5,234.2,986,233.7z"/>
</g>
<text transform="matrix(1 0 0 1 1020.4315 191.6912)" class="st7 st121 st118">Diet low in Whole Grains</text>
<g>
	<text transform="matrix(1 0 0 1 1020.4315 219.3435)" class="st7 st116 st118">between 100 g and 150 g per day</text>
</g>
<g class="st120">
	<path class="st43" d="M1507.3,172.4c0,0,6.7-7.1,11.1-9.9c4.3-2.7,14.1-3,17.7-4.5C1536.1,158.1,1525.8,180.9,1507.3,172.4z"/>
	<path class="st43" d="M1509.7,160.6c1.2-0.7-0.8-1.8-1.9-0.9c-0.4,0.3-0.3,0.9-0.4,1.2c-0.1,0.7-0.2,1.3-0.3,1.9
		c-0.4,2.2-0.6,4.4-0.7,6.6c-0.1,2.1,0.1,4.3,0.5,6.4c0.2,1,0.3,1.9,0.6,2.9c0.3,1.1,1.1,2.2,1.2,3.3c0,0.2,0.5,0.2,0.5,0
		c0-1.8-0.6-3.7-0.8-5.5c-0.2-2-0.3-4-0.2-6.1c0.1-2,0.3-4,0.7-5.9c0.1-0.8,0.3-1.7,0.5-2.5c0.1-0.3,0.1-0.6,0.2-0.9
		c0-0.1,0.1-0.2,0.1-0.3C1509.8,160.6,1510,160.4,1509.7,160.6z"/>
	<path class="st43" d="M1536.3,177.9c-6.1-5.6-13.8-3.4-17.3-2.1c-3,1.1-7.9,2.8-10.7,2.8s-7.7-1.6-10.7-2.8
		c-3-1.2-11.2-3.5-17.3,2.1c-6.1,5.6-11.5,17-7.7,30.2c3.8,13.2,11.3,31.9,24.6,29.5c2.8-0.5,6.5-2.1,11.1-2.2
		c4.7,0.1,8.3,1.7,11.1,2.2c13.3,2.4,20.7-16.3,24.6-29.5C1547.8,194.9,1542.5,183.5,1536.3,177.9z"/>
</g>
<text transform="matrix(1 0 0 1 1567.4935 191.6912)" class="st7 st121 st118">Diet low in Fruits</text>
<g>
	<text transform="matrix(1 0 0 1 1567.4935 219.3435)" class="st7 st116 st118">between 200 g and 300 g per day</text>
</g>
<text transform="matrix(1 0 0 1 1020.4315 400.0371)" class="st7 st121 st118">Diet low in Vegetables</text>
<g>
	<text transform="matrix(1 0 0 1 1020.4315 427.6895)" class="st7 st116 st118">between 290 g and 430 g per day</text>
</g>
<text transform="matrix(1 0 0 1 1567.4935 400.0371)" class="st7 st121 st118">Diet high in Processed Meat</text>
<g>
	<text transform="matrix(1 0 0 1 1567.4935 427.6895)" class="st7 st116 st118">between 0 g and 4 g per day</text>
</g>
<text transform="matrix(1 0 0 1 1020.4315 292.6895)" class="st7 st121 st118">Diet low in Nuts and Seeds</text>
<g>
	<text transform="matrix(1 0 0 1 1020.4315 320.3416)" class="st7 st116 st118">between 16 g and 25 g per day</text>
</g>
<text transform="matrix(1 0 0 1 1567.4935 292.6895)" class="st7 st121 st118">Diet high in Salt</text>
<g>
	<text transform="matrix(1 0 0 1 1567.4935 320.3416)" class="st7 st116 st118">between 1 g and 5 g per day</text>
</g>
<path class="st122" d="M990.1,295.9c0,8.3-0.7,16.5-4.2,24.3c-3.6,7.9-9.3,13.2-17.7,15.6c-2.3,0.7-4.5,0.7-6.5-0.5
	c-2.1-1.2-4.2-1.4-6.4-0.3c-3,1.5-5.8,1.1-8.9-0.1c-11-4.3-16.8-12.7-19-23.8c-0.5-2.8,0.1-5.9,0.5-8.8c0.7-4.7,1.2-9.3,1.1-14.1
	c-0.1-12.7,7.9-23.2,20-26.9c1.3-0.4,2.5-1.2,3.6-2c1-0.7,1.7-1.7,2.6-2.4c2.4-1.9,4-2.2,6.4-0.1c2.7,2.3,5.8,3.5,9.1,4.5
	c5.6,1.8,9.9,5.4,13,10.4c4,6.4,6.6,13.3,6.3,21.1C990.1,293.7,990.1,294.8,990.1,295.9z M958.3,326.7c0.2,0,0.4,0,0.6,0
	c0.3-1.5,0.7-3,0.8-4.5c0.1-2.7,0-5.4,0.1-8.1c0.2-5.4,0.4-10.8,0.7-16.3c0.4-9.2-0.2-18.4-1.1-27.6c-0.2-2.4-0.7-4.8-1-7.2
	c-0.8,5.1-1.1,10.1-1.5,15.2c-0.2,2.1-0.4,4.3-1.1,6.3c-1.7,5.2-2.1,10.4-1.3,15.8C955.6,309,956.9,317.8,958.3,326.7z M965.4,268.4
	c0.3,1.7,0.4,2.7,0.7,3.5c1.4,4.1,1.3,8,0.1,12.2c-1.1,3.6-0.6,7.3,1.4,10.6c1.8,3,2.1,6.2,1.2,9.6c-0.3,1.3-0.5,2.6-0.7,3.9
	c0.9-1,1.3-2.1,1.8-3.1c1.8-3.9,1.8-7.8-0.3-11.6c-1.7-3.1-1.8-6.3-1-9.6C970,278.5,968.7,273.7,965.4,268.4z M973.5,322.2
	c0.2,0.1,0.3,0.2,0.5,0.4c0.8-0.7,1.6-1.4,2.4-2.1c2.2-2,3.1-4.6,2.2-7.4c-1-3.2-0.6-6,0.6-8.9c1.4-3.4,1.5-6.8-0.1-10.3
	c-0.1,4.3-1.3,8.3-3.1,12.1c-1,2.2-0.9,4.6,0.1,6.9c1.1,2.5,0.7,4.8-1.1,6.9C974.4,320.6,974,321.5,973.5,322.2z M948.4,322.6
	c0.2,0,0.5,0.1,0.7,0.1c0.2-1.2,0.4-2.4,0.4-3.6c0.2-5.9,0.4-11.8,0.6-17.7c0.1-3.1-0.8-6-2.8-8.5c0.2,1.4,0.4,2.4,0.5,3.4
	c0.1,1.9,0.4,3.8,0,5.6C946.4,309,947.7,315.8,948.4,322.6z M935.3,302.2c0.3,0.1,0.6,0.2,0.9,0.3c2.2-5.6,4.9-11.1,5.1-17.4
	c0.1-2.5,0.5-4.9,0.8-7.3c0.1-0.9,0.4-1.8,0.6-2.7c-2.3,2.6-3.6,5.4-3.8,8.8c-0.2,2.6-0.6,5.1-1.1,7.6
	C937,295.2,936.1,298.7,935.3,302.2z"/>
<g class="st120">
	<circle class="st43" cx="1472.6" cy="328.8" r="1.8"/>
	<circle class="st43" cx="1479.8" cy="338.5" r="1.8"/>
	<circle class="st43" cx="1469.1" cy="339.3" r="1.8"/>
	<path class="st43" d="M1548,285.5l-24.8-24.8c-2-2-5.1-1.8-6.9,0.4l-33.2,43.1c-0.5,0.6-0.8,1.3-1,2.1c0.1,1.2,0.7,2.5,1.6,3.4
		l15.1,15.1c0.9,0.9,2.2,1.5,3.4,1.6c0.7-0.2,1.5-0.5,2.1-1l43.1-33.2C1549.8,290.6,1550,287.5,1548,285.5z"/>
	<path class="st43" d="M1481.2,312.3c-0.5-0.5-1-1.2-1.4-1.8c-3.6,5.1-3.2,12.3,1.4,16.9c4.6,4.6,11.7,5.1,16.9,1.4
		c-0.6-0.4-1.3-0.8-1.8-1.4L1481.2,312.3z"/>
</g>
<text transform="matrix(1 0 0 1 1020.4315 500.678)" class="st7 st121 st118">Diet high in Red Meat</text>
<g>
	<text transform="matrix(1 0 0 1 1020.4315 528.3301)" class="st7 st116 st118">between 16 g and 25 g per day</text>
</g>
<text transform="matrix(1 0 0 1 1567.4935 500.678)" class="st7 st121 st118">Diet low in Milk</text>
<g>
	<text transform="matrix(1 0 0 1 1567.4935 528.3301)" class="st7 st116 st118">between 350 g and 520 g per day</text>
</g>
<g class="st120">
	<path class="st43" d="M991.4,406.2c-1-0.9-3.2-2.2-5.5-3.1c0.4,0,0.8,0,1.1-0.1c2.7-0.4,4.5-2.9,4-5.5c-0.4-2.6-2.7-4.7-5.3-4.2
		c-1.2,0.2-8.8,4.4-10.9,5.4c0,0,12.3-10.4,14.5-18.3c1-3.4,0.1-7.2-3.1-8.8c-2.2-1.1-4.7-0.9-6.6,0.4c0-1.3-0.1-2.5-0.2-3.4
		c-0.8-4.5-5.1-7.5-9.5-6.8c-4.5,0.8-7.5,5-6.8,9.5c0.4,2.3,10.2,18.9,5.6,28.8c-8.5-7.5-21.5-7.2-29.6,0.9c-5,5-6.5,11.8-6.1,18.3
		c0.3,4.3-0.1,17.2-0.1,17.2c0,0.7,0.6,1.3,1.3,1.3c0,0,12.9-0.4,17.2-0.1c6.6,0.4,13.3-1.1,18.3-6.1c7.7-7.7,8.4-19.6,2.1-28.1
		c2.4-1,6.7-1.4,10,4.9c1.1,2,2.3,4,3.2,4.8c2,1.8,5,1.7,6.8-0.3C993.6,410.9,993.4,408,991.4,406.2z M951.2,405.7
		c-0.7,0.4-1.6,0.5-2.4,0.2c-0.8-0.2-1.4-0.8-1.8-1.5c-0.2-0.5-0.3-1-0.1-1.5c0.2-0.5,0.5-0.9,1-1.1c5.9-2.7,13-1.6,17.8,3.2
		c0.3,0.3,0.6,0.7,0.9,1C961.9,403.3,956,403.2,951.2,405.7z"/>
</g>
<path class="st122" d="M1549.6,435.2l0.2-5.4c0-0.7-0.4-0.9-1-0.6l-4.5,2.5c0.6-4.1-1-8.4-4.7-11c-5.3-3.7-17.3-0.8-30.2-13.6
	c-12.9-12.9-11.8-25-13.6-28.5c-2.2-4.4-6.7-6.5-10.9-6.3l2.5-4.5c0.3-0.6,0-1-0.6-1l-5.4,0.2c-0.7,0-0.9,0.5-0.6,1.1l2.9,4.3
	c-2.2,0.4-4.4,1.4-6.1,3c-3.4,3.4-3.8,8.1-3.5,12.5c0,0,2.8,20.3,18.2,35.7c12.4,12.4,30.5,17.9,36.9,17.9c5.1,0,8.3,0.3,11.5-2.9
	l0,0c1.7-1.7,2.7-3.7,3.2-5.8l4.4,3C1549.1,436.2,1549.5,435.9,1549.6,435.2z M1527.5,435.6L1527.5,435.6c0,0-17.3-1.5-31.8-15.7
	c-14.2-14.4-15.7-31.8-15.7-31.8l0,0c-0.1-0.7,0.1-1.5,0.6-2.1c0.9-0.9,2.4-0.9,3.3,0c0.4,0.4,0.7,1,0.7,1.6l0,0
	c0,0,3,16.9,14.6,28.8C1511.2,428,1528,431,1528,431l0,0c0.6,0,1.1,0.2,1.6,0.7c0.9,0.9,0.9,2.4,0,3.3
	C1529,435.5,1528.2,435.7,1527.5,435.6z"/>
<g class="st120">
	<g>
		<path class="st43" d="M946.5,504c-4.6,0-8.4,3.8-8.4,8.4c0,4.6,3.8,8.4,8.4,8.4s8.4-3.8,8.4-8.4C954.9,507.8,951.2,504,946.5,504z
			"/>
	</g>
	<g>
		<path class="st43" d="M961.1,471.2c-0.1,0-0.1,0-0.2,0c0,0-0.6-0.1-1.5-0.1c-1.8,0-5,0.3-7.5,2.3c-2.3,1.8-3.6,4.5-4,8.2
			c-0.4,4.8-4.1,7.8-7.9,11.1c-4.1,3.5-8.7,7.4-10.8,14.1c-1.4,4.7-1.3,11.9,3,17.8c3.4,4.5,10.6,10,25.5,10c28,0,31-21.6,31-30.9
			C988.9,488.4,977.5,471.2,961.1,471.2z M946.5,523.1c-5.9,0-10.7-4.8-10.7-10.7c0-5.9,4.8-10.7,10.7-10.7s10.7,4.8,10.7,10.7
			C957.2,518.3,952.4,523.1,946.5,523.1z"/>
	</g>
	<g>
		<path class="st43" d="M959.3,465.9C959.3,465.9,959.2,465.9,959.3,465.9c-0.2,0-0.5,0-1.1,0c-3.4,0-14,0.8-14.8,9.7
			c-0.5,6.1-4.6,9.1-8.9,12.4c-4.6,3.5-9.9,7.5-12.5,16.1c-1.9,6.2-1.8,15.9,4.4,24.1c4.5,6.1,13.9,13.4,33,13.4
			c37.2,0,37.2-30,37.2-39.9C996.5,481.6,980.1,465.9,959.3,465.9z M957.9,536.8c-15.9,0-23.6-6-27.3-10.9c-5-6.6-5-14.5-3.4-19.8
			c2.2-7.3,7.1-11.4,11.4-15.1c3.6-3.1,6.8-5.8,7.1-9.7c0.4-4.3,2-7.6,4.8-9.8c4.4-3.3,9.9-2.7,10.8-2.6c8.2,0,16,4,21.7,11.4
			c5.2,6.6,8.2,15.1,8.2,23.4C991.1,513.7,987.9,536.8,957.9,536.8z"/>
	</g>
</g>
<path class="st122" d="M1501,488c-2.4,3.5-3.6,11.4-3.6,17.4v25.6c0,5.9,4.8,10.6,10.6,10.6h15.4c5.9,0,10.6-4.8,10.6-10.6v-25.6
	c0-6-1.2-13.9-3.6-17.4l0-0.1c-0.1-0.1-5.1-6.7-5.8-12.5c0.6-0.1,1.1-0.7,1-1.3c-0.1-0.6-0.5-1-1.1-1h-1.8c2,0,3.5-1.6,3.5-3.5
	c0-2-1.6-3.5-3.5-3.5h-14.2c-2,0-3.5,1.6-3.5,3.5c0,2,1.6,3.5,3.5,3.5h-1.8c-0.7,0-1.2,0.5-1.2,1.1c0,0.7,0.5,1.2,1.1,1.2
	C1506.1,481.2,1501.1,487.8,1501,488L1501,488z M1507.5,469.5c0-0.7,0.5-1.2,1.2-1.2h14.2c0.7,0,1.2,0.5,1.2,1.2s-0.5,1.2-1.2,1.2
	h-14.2C1508,470.6,1507.5,470.1,1507.5,469.5z M1509.2,475.4h13.1c0.6,6.4,5.8,13.3,6.2,13.9c2.1,3.1,3.2,10.6,3.2,16.1v6.1
	c-1.3,0.9-2.7,1.5-4.1,1.9c-3.7,1-7.3,0.3-10.9-2.1c-0.1-0.1-0.2-0.2-0.3-0.2c-7.2-4.9-13.6-2.8-16.6-1.2v-4.5
	c0-5.5,1.1-12.9,3.2-16.1C1503.4,488.7,1508.6,481.8,1509.2,475.4z"/>
<g>
	<rect x="297.4" y="387" class="st33" width="491.7" height="114.6"/>
	<text transform="matrix(1 0 0 1 297.384 411.0449)"><tspan x="0" y="0" class="st41 st121 st123">Menus with at least 20% less diet </tspan><tspan x="0" y="35" class="st41 st121 st123">related risk points earn the Vita </tspan><tspan x="0" y="70" class="st41 st121 st123">Score Award.</tspan></text>
</g>
<g>
	<path class="st124" d="M248.7,505.7H126.3c-4.7,0-8.6-3.9-8.6-8.6V374.6c0-4.7,3.9-8.6,8.6-8.6h122.5c4.7,0,8.6,3.9,8.6,8.6v122.5
		C257.3,501.9,253.5,505.7,248.7,505.7z"/>
	<g>
		<path class="st41" d="M226.7,402.2c-9.8-10.1-25.8-10.1-35.6,0l-3.6,3.7l-3.6-3.7c-9.8-10.1-25.8-10.1-35.6,0
			c-9.8,10.1-9.8,26.5,0,36.6l21.4,22c0.1,0.1,0.3,0.2,0.4,0.3l15,15.4c1.4,1.4,3.6,1.4,5,0l19.1-19.6c0.1-0.1,0.1-0.1,0.1-0.2
			l17.4-17.9C236.5,428.7,236.5,412.3,226.7,402.2z"/>
		<g>
			<defs>
				<path id="SVGID_39_" d="M226.7,402.2c-9.8-10.1-25.8-10.1-35.6,0l-3.6,3.7l-3.6-3.7c-9.8-10.1-25.8-10.1-35.6,0
					c-9.8,10.1-9.8,26.5,0,36.6l21.4,22c0.1,0.1,0.3,0.2,0.4,0.3l15,15.4c1.4,1.4,3.6,1.4,5,0l19.1-19.6c0.1-0.1,0.1-0.1,0.1-0.2
					l17.4-17.9C236.5,428.7,236.5,412.3,226.7,402.2z"/>
			</defs>
			<clipPath id="SVGID_1_">
				<use xlink:href="#SVGID_39_"  style="overflow:visible;"/>
			</clipPath>
			
				<polyline style="clip-path:url(#SVGID_1_);fill:none;stroke:#F7FAF1;stroke-width:3.5588;stroke-linejoin:round;stroke-miterlimit:10;" points="
				111.9,436.1 164.9,436.1 176,415.9 187,455.7 199.7,426 209.8,434.6 264.5,434.6 			"/>
		</g>
	</g>
</g>
<g>
	<g>
		<polygon class="st126" points="1694.1,1387.2 881.5,1387.2 881.3,1387.1 407.3,1241.9 408.4,1238 882.1,1383.2 1694.1,1383.2 		
			"/>
	</g>
	<g>
		<polygon class="st127" points="881.5,1244.7 606.2,1184.8 455.3,1184.8 455.3,1181.8 606.5,1181.8 606.7,1181.8 882.2,1241.8 		
			"/>
	</g>
	<g>
		<rect x="525.2" y="1077.9" class="st19" width="356.7" height="3"/>
	</g>
	<g>
		<polygon class="st41" points="521.9,973.7 520.2,971.2 607.4,911.3 881.8,911.3 881.8,914.3 608.4,914.3 		"/>
	</g>
	<g>
		<polygon class="st128" points="255.7,908.6 254,906.1 494.7,740.9 881.8,740.9 881.8,743.9 495.6,743.9 		"/>
	</g>
	<circle class="st128" cx="881.8" cy="742.4" r="8.8"/>
	<circle class="st41" cx="881.8" cy="912.8" r="8.8"/>
	<circle class="st19" cx="881.8" cy="1079.4" r="8.8"/>
	<circle class="st127" cx="881.8" cy="1243.2" r="8.8"/>
	<circle class="st126" cx="1694.1" cy="1384.4" r="8.8"/>
	<path class="st9" d="M714.5,1044.8c-4.1-6.6-9.9-11.5-17.3-13.8c-4.4-1.4-8.5-3-12.1-6c-3.2-2.7-5.2-2.4-8.4,0.2
		c-1.2,1-2.2,2.3-3.5,3.2c-1.5,1.1-3.1,2.2-4.8,2.7c-16.2,4.9-26.8,18.9-26.6,35.8c0.1,6.3-0.5,12.5-1.5,18.7
		c-0.6,3.9-1.4,8-0.7,11.7c2.9,14.8,10.7,25.9,25.3,31.6c4,1.6,7.9,2.1,11.8,0.1c2.9-1.5,5.7-1.2,8.5,0.4c2.7,1.6,5.6,1.5,8.6,0.6
		c11.2-3.2,18.8-10.3,23.6-20.8c4.7-10.3,5.6-21.2,5.6-32.2c0-1.4-0.1-2.8,0-4.2C723.3,1062.5,719.9,1053.3,714.5,1044.8z"/>
	<g>
		<circle class="st9" cx="635" cy="946.9" r="2.2"/>
		<circle class="st9" cx="643.9" cy="959.1" r="2.2"/>
		<circle class="st9" cx="630.5" cy="960.1" r="2.2"/>
		<path class="st9" d="M728.9,893L698,862c-2.5-2.5-6.4-2.3-8.6,0.6L648,916.3c-0.6,0.8-1,1.7-1.2,2.6c0.2,1.5,0.9,3.1,2,4.3
			l18.9,18.9c1.2,1.2,2.8,1.9,4.3,2c0.9-0.2,1.8-0.6,2.6-1.2l53.7-41.4C731.2,899.4,731.4,895.5,728.9,893z"/>
		<path class="st9" d="M645.7,926.3c-0.7-0.7-1.2-1.4-1.7-2.2c-4.5,6.4-3.9,15.3,1.8,21c5.7,5.7,14.6,6.3,21,1.8
			c-0.8-0.5-1.6-1-2.2-1.7L645.7,926.3z"/>
	</g>
	<path class="st126" d="M378.2,1207v91.6c4.7,0.1,9.5-1.7,13.1-5.3l84-86.3H378.2z"/>
	<path class="st127" d="M378.2,1159.6v47.4h97.1l12.3-12.7c0.3-0.3,0.4-0.7,0.6-1l32.8-33.7H378.2z"/>
	<path class="st19" d="M378.2,1159.6h142.9l55.4-56.9c29.8-30.6,41.7-72.7,35.7-112.6h-234V1159.6z"/>
	<path class="st41" d="M612.1,990.1c-4-26.6-15.9-52.1-35.7-72.5c-49.6-51-130.5-51-180.1,0l-18.2,18.7v53.8H612.1z"/>
	<path class="st128" d="M179.9,917.7c-49.6,51-49.6,134.1,0,185.1l108.2,111.2c0.6,0.6,1.3,1,2,1.6l75.7,77.8
		c3.4,3.5,7.9,5.2,12.4,5.3V936.3L360,917.7C310.4,866.7,229.5,866.7,179.9,917.7z"/>
	<g>
		<linearGradient id="SVGID_2_" gradientUnits="userSpaceOnUse" x1="1290.1937" y1="778.5902" x2="1356.6489" y2="778.5902">
			<stop  offset="0" style="stop-color:#358195"/>
			<stop  offset="1" style="stop-color:#195A74"/>
		</linearGradient>
		<circle class="st42" cx="1323.4" cy="778.6" r="33.2"/>
		<linearGradient id="SVGID_3_" gradientUnits="userSpaceOnUse" x1="1294.9868" y1="778.5902" x2="1351.8558" y2="778.5902">
			<stop  offset="0" style="stop-color:#195A74"/>
			<stop  offset="0.9982" style="stop-color:#358195"/>
		</linearGradient>
		<ellipse class="st44" cx="1323.4" cy="778.6" rx="28.4" ry="33.2"/>
		<ellipse class="st9" cx="1323.4" cy="778.6" rx="20" ry="23.3"/>
	</g>
	<text transform="matrix(1 -1.000000e-03 1.000000e-03 1 1008.136 796.6649)"><tspan x="0" y="0" class="st7 st131 st132">64.4</tspan><tspan x="94.2" y="0" class="st7 st121 st133"> DALY</tspan></text>
	<text transform="matrix(1 -1.000000e-03 1.000000e-03 1 1375.6417 795.143)"><tspan x="0" y="0" class="st7 st131 st132">28.7</tspan><tspan x="94.2" y="0" class="st7 st121 st133"> DALY</tspan></text>
	<text transform="matrix(1 -1.000000e-03 1.000000e-03 1 929.4432 721.4325)" class="st7 st131 st134">Whole grains</text>
	<path class="st19" d="M715.9,1077c0,9.2-0.8,18.3-4.6,26.9c-4,8.8-10.3,14.6-19.6,17.3c-2.6,0.7-4.9,0.8-7.2-0.5
		c-2.3-1.4-4.6-1.6-7.1-0.4c-3.3,1.6-6.5,1.2-9.8-0.1c-12.1-4.7-18.6-14-21.1-26.3c-0.6-3.1,0.1-6.5,0.6-9.7
		c0.8-5.2,1.3-10.4,1.2-15.6c-0.1-14.1,8.7-25.7,22.2-29.8c1.4-0.4,2.8-1.4,4-2.3c1.1-0.8,1.9-1.8,2.9-2.6c2.7-2.1,4.4-2.4,7-0.2
		c3,2.5,6.4,3.8,10.1,5c6.2,2,11,6,14.4,11.5c4.5,7.1,7.3,14.8,7,23.3C715.9,1074.6,715.9,1075.8,715.9,1077z M680.6,1111.1
		c0.2,0,0.5,0,0.7,0c0.3-1.7,0.8-3.3,0.8-5c0.2-3,0-6,0.1-9c0.2-6,0.5-12,0.7-18c0.5-10.2-0.2-20.4-1.3-30.6c-0.3-2.7-0.7-5.3-1.1-8
		c-0.9,5.6-1.2,11.2-1.7,16.8c-0.2,2.3-0.5,4.7-1.2,6.9c-1.9,5.7-2.3,11.6-1.4,17.5C677.6,1091.5,679.2,1101.3,680.6,1111.1z
		 M688.5,1046.6c0.3,1.9,0.4,3,0.7,3.9c1.6,4.5,1.5,8.9,0.1,13.5c-1.2,4-0.7,8,1.6,11.7c2,3.3,2.3,6.9,1.4,10.6
		c-0.4,1.4-0.5,2.9-0.8,4.4c1-1.1,1.4-2.3,2-3.4c2-4.3,1.9-8.6-0.3-12.8c-1.9-3.4-2-7-1.1-10.7
		C693.7,1057.7,692.2,1052.4,688.5,1046.6z M697.5,1106.2c0.2,0.1,0.4,0.3,0.5,0.4c0.9-0.8,1.8-1.5,2.6-2.3c2.5-2.2,3.5-5.1,2.5-8.2
		c-1.1-3.5-0.7-6.6,0.7-9.9c1.5-3.7,1.6-7.6-0.1-11.4c-0.1,4.8-1.5,9.2-3.4,13.5c-1.1,2.5-1,5.1,0.1,7.6c1.2,2.8,0.8,5.3-1.2,7.6
		C698.5,1104.4,698,1105.4,697.5,1106.2z M669.7,1106.6c0.3,0,0.5,0.1,0.8,0.1c0.2-1.3,0.4-2.7,0.5-4c0.3-6.5,0.5-13,0.7-19.6
		c0.1-3.5-0.9-6.6-3.1-9.4c0.2,1.5,0.5,2.7,0.5,3.8c0.1,2.1,0.4,4.2,0,6.2C667.5,1091.5,668.9,1099,669.7,1106.6z M655.2,1084.1
		c0.3,0.1,0.7,0.2,1,0.3c2.5-6.2,5.5-12.3,5.6-19.3c0.1-2.7,0.6-5.4,0.9-8.1c0.1-1,0.4-2,0.6-3c-2.5,2.8-4,6-4.2,9.8
		c-0.2,2.8-0.7,5.7-1.3,8.5C657.1,1076.2,656.1,1080.1,655.2,1084.1z"/>
	<g>
		<circle class="st41" cx="642.4" cy="941" r="1.9"/>
		<circle class="st41" cx="649.9" cy="951.1" r="1.9"/>
		<circle class="st41" cx="638.7" cy="952" r="1.9"/>
		<path class="st41" d="M720.7,896l-25.8-25.8c-2.1-2.1-5.3-1.9-7.2,0.5l-34.5,44.8c-0.5,0.6-0.8,1.4-1,2.2c0.1,1.3,0.7,2.6,1.7,3.6
			l15.7,15.7c1,1,2.3,1.6,3.6,1.7c0.8-0.2,1.5-0.5,2.2-1l44.8-34.5C722.6,901.4,722.8,898.2,720.7,896z"/>
		<path class="st41" d="M651.3,923.8c-0.6-0.6-1-1.2-1.4-1.9c-3.8,5.3-3.3,12.7,1.5,17.5c4.8,4.8,12.2,5.3,17.5,1.5
			c-0.7-0.4-1.3-0.8-1.9-1.4L651.3,923.8z"/>
	</g>
	<path class="st9" d="M544.6,1251.6L544.6,1251.6c-0.1-0.2-5.8-7.6-6.5-14.1c0.7-0.1,1.2-0.7,1.1-1.5c-0.1-0.6-0.6-1.1-1.2-1.2h-2
		c2.2,0,4-1.8,4-4c0-2.2-1.8-4-4-4h-15.8c-2.2,0-4,1.8-4,4c0,2.2,1.8,4,4,4h-2c-0.7,0-1.3,0.6-1.4,1.3c0,0.7,0.6,1.3,1.3,1.4
		c-0.7,6.5-6.4,13.9-6.4,14l0,0.1c-2.6,4-4,12.7-4,19.4v28.5c0,6.6,5.3,11.9,11.9,11.9h17.1c6.6,0,11.9-5.3,11.9-11.9v-28.5
		C548.6,1264.4,547.2,1255.6,544.6,1251.6z"/>
	<g>
		<linearGradient id="SVGID_4_" gradientUnits="userSpaceOnUse" x1="1659.191" y1="948.6268" x2="1725.6461" y2="948.6268">
			<stop  offset="0" style="stop-color:#358195"/>
			<stop  offset="1" style="stop-color:#195A74"/>
		</linearGradient>
		<circle class="st45" cx="1692.4" cy="948.6" r="33.2"/>
		<linearGradient id="SVGID_5_" gradientUnits="userSpaceOnUse" x1="1663.9841" y1="948.6268" x2="1720.853" y2="948.6268">
			<stop  offset="0" style="stop-color:#195A74"/>
			<stop  offset="0.9982" style="stop-color:#358195"/>
		</linearGradient>
		<ellipse class="st46" cx="1692.4" cy="948.6" rx="28.4" ry="33.2"/>
		<ellipse class="st9" cx="1692.4" cy="948.6" rx="20" ry="23.3"/>
	</g>
	<text transform="matrix(1 -1.000000e-03 1.000000e-03 1 1377.1315 966.7014)"><tspan x="0" y="0" class="st7 st131 st132">16.4</tspan><tspan x="94.2" y="0" class="st7 st121 st133"> DALY</tspan></text>
	<text transform="matrix(1 -1.000000e-03 1.000000e-03 1 1744.6401 965.1786)"><tspan x="0" y="0" class="st7 st131 st132">1.7</tspan><tspan x="67.8" y="0" class="st7 st121 st133"> DALY</tspan></text>
	<text transform="matrix(1 -1.000000e-03 1.000000e-03 1 1010.6638 965.1577)"><tspan x="0" y="0" class="st7 st131 st132">0.63</tspan><tspan x="94.2" y="0" class="st7 st121 st133"> DALY</tspan></text>
	<g>
		<path class="st7" d="M973.8,940c0-5.1-5.8-17.4-7.8-18.7c-1.9-1.2-6.8-1-7.5-0.9c-0.7,0-5.7-0.3-7.5,0.9c-2,1.3-7.8,13.6-7.8,18.7
			c0,3.4,1.4,7,4.4,11.3c1.3-2.1,3.1-5,3.9-6.3c1.1-1.6,3.8-5.2,5.5-7.4c-1.1-1.6-2-2.9-2.6-3.7c-2.2-3.3-2.5-5.4-2.5-5.4h6.5h0.2
			h6.5c0,0-0.4,2.2-2.5,5.4c-2.2,3.3-10.4,14.5-11.3,16.4c-0.9,1.8-13.1,21.1-14.2,25.4l10.2,10.4c0,0,8.5-20,16-27.6
			C970.7,950.9,973.8,945.1,973.8,940z"/>
		<path class="st7" d="M969.2,956.3c-1.7,1.7-3.9,4-4.8,5.2c-1,1.2-2.7,3.8-4.2,6c5.2,8.6,9.5,18.7,9.5,18.7l10.2-10.4
			C979,972.8,973.1,962.9,969.2,956.3z"/>
	</g>
	<text transform="matrix(1 -1.000000e-03 1.000000e-03 1 929.4426 891.4691)" class="st7 st131 st134">Salt</text>
	<text transform="matrix(1 -1.000000e-03 1.000000e-03 1 929.444 1061.5059)" class="st7 st131 st134">Nuts and seeds</text>
	<text transform="matrix(1 -1.000000e-03 1.000000e-03 1 1010.6645 1305.233)"><tspan x="0" y="0" class="st7 st131 st132">1.7</tspan><tspan x="67.8" y="0" class="st7 st121 st133"> DALY</tspan></text>
	<g>
		<path class="st7" d="M973.8,1280.1c0-5.1-5.8-17.4-7.8-18.7c-1.9-1.2-6.8-1-7.5-0.9c-0.7,0-5.7-0.3-7.5,0.9
			c-2,1.3-7.8,13.6-7.8,18.7c0,3.4,1.4,7,4.4,11.3c1.3-2.1,3.1-5,3.9-6.3c1.1-1.6,3.8-5.2,5.5-7.4c-1.1-1.6-2-2.9-2.6-3.7
			c-2.2-3.3-2.5-5.4-2.5-5.4h6.5h0.2h6.5c0,0-0.4,2.2-2.5,5.4c-2.2,3.3-10.4,14.5-11.3,16.4c-0.9,1.8-13.1,21.1-14.2,25.4l10.2,10.4
			c0,0,8.5-20,16-27.6C970.7,1291,973.8,1285.2,973.8,1280.1z"/>
		<path class="st7" d="M969.2,1296.4c-1.7,1.7-3.9,4-4.8,5.2c-1,1.2-2.7,3.8-4.2,6c5.2,8.6,9.5,18.7,9.5,18.7l10.2-10.4
			C979,1312.9,973.1,1303,969.2,1296.4z"/>
	</g>
	<text transform="matrix(1 -1.000000e-03 1.000000e-03 1 929.4443 1231.5425)" class="st7 st131 st134">Red meat</text>
	<text transform="matrix(1 -1.000000e-03 1.000000e-03 1 1744.6428 1305.2305)"><tspan x="0" y="0" class="st7 st131 st132">6.48</tspan><tspan x="94.2" y="0" class="st7 st121 st133"> DALY</tspan></text>
	<g>
		<path class="st7" d="M1707.8,1280.1c0-5.1-5.8-17.4-7.8-18.7c-1.9-1.2-6.8-1-7.5-0.9c-0.7,0-5.7-0.3-7.5,0.9
			c-2,1.3-7.8,13.6-7.8,18.7c0,3.4,1.4,7,4.4,11.3c1.3-2.1,3.1-5,3.9-6.3c1.1-1.6,3.8-5.2,5.5-7.4c-1.1-1.6-2-2.9-2.6-3.7
			c-2.2-3.3-2.5-5.4-2.5-5.4h6.5h0.2h6.5c0,0-0.4,2.2-2.5,5.4c-2.2,3.3-10.4,14.5-11.3,16.4c-0.9,1.8-13.1,21.1-14.2,25.4l10.2,10.4
			c0,0,8.5-20,16-27.6C1704.7,1291,1707.8,1285.2,1707.8,1280.1z"/>
		<path class="st7" d="M1703.2,1296.4c-1.7,1.7-3.9,4-4.8,5.2c-1,1.2-2.7,3.8-4.2,6c5.2,8.6,9.5,18.7,9.5,18.7l10.2-10.4
			C1713,1312.9,1707.1,1303,1703.2,1296.4z"/>
	</g>
	<text transform="matrix(1 -1.000000e-03 1.000000e-03 1 1663.4216 1231.5419)" class="st7 st131 st134">Milk</text>
	<g>
		<linearGradient id="SVGID_7_" gradientUnits="userSpaceOnUse" x1="1291.6863" y1="1288.7001" x2="1358.1415" y2="1288.7001">
			<stop  offset="0" style="stop-color:#358195"/>
			<stop  offset="1" style="stop-color:#195A74"/>
		</linearGradient>
		<circle style="fill:url(#SVGID_7_);" cx="1324.9" cy="1288.7" r="33.2"/>
		<linearGradient id="SVGID_9_" gradientUnits="userSpaceOnUse" x1="1296.4794" y1="1288.7001" x2="1353.3484" y2="1288.7001">
			<stop  offset="0" style="stop-color:#195A74"/>
			<stop  offset="0.9982" style="stop-color:#358195"/>
		</linearGradient>
		<ellipse style="fill:url(#SVGID_9_);" cx="1324.9" cy="1288.7" rx="28.4" ry="33.2"/>
		<ellipse class="st9" cx="1324.9" cy="1288.7" rx="20" ry="23.3"/>
	</g>
	<text transform="matrix(1 -1.000000e-03 1.000000e-03 1 1377.1366 1305.2572)"><tspan x="0" y="0" class="st7 st131 st132">4.6</tspan><tspan x="67.8" y="0" class="st7 st121 st133"> DALY</tspan></text>
	<g>
		<linearGradient id="SVGID_11_" gradientUnits="userSpaceOnUse" x1="1293.0233" y1="1118.6635" x2="1359.4785" y2="1118.6635">
			<stop  offset="0" style="stop-color:#358195"/>
			<stop  offset="1" style="stop-color:#195A74"/>
		</linearGradient>
		<circle style="fill:url(#SVGID_11_);" cx="1326.3" cy="1118.7" r="33.2"/>
		<linearGradient id="SVGID_13_" gradientUnits="userSpaceOnUse" x1="1297.8164" y1="1118.6635" x2="1354.6854" y2="1118.6635">
			<stop  offset="0" style="stop-color:#195A74"/>
			<stop  offset="0.9982" style="stop-color:#358195"/>
		</linearGradient>
		<ellipse style="fill:url(#SVGID_13_);" cx="1326.3" cy="1118.7" rx="28.4" ry="33.2"/>
		<ellipse class="st9" cx="1326.3" cy="1118.7" rx="20" ry="23.3"/>
	</g>
	<text transform="matrix(1 -1.000000e-03 1.000000e-03 1 1010.9655 1136.7411)"><tspan x="0" y="0" class="st7 st131 st132">21.3</tspan><tspan x="94.2" y="0" class="st7 st121 st133"> DALY</tspan></text>
	<text transform="matrix(1 -1.000000e-03 1.000000e-03 1 1378.4722 1135.2183)"><tspan x="0" y="0" class="st7 st131 st132">13.5</tspan><tspan x="94.2" y="0" class="st7 st121 st133"> DALY</tspan></text>
	<path class="st9" d="M600.6,1158C600.6,1158,600.6,1158,600.6,1158c-0.2,0-0.4,0-0.9,0c-2.9,0-11.8,0.6-12.4,8.1
		c-0.4,5.1-3.9,7.6-7.5,10.3c-3.9,3-8.3,6.3-10.5,13.5c-1.6,5.2-1.5,13.3,3.7,20.2c3.8,5.1,11.6,11.2,27.6,11.2
		c31.2,0,31.2-25.1,31.2-33.4C631.8,1171.2,618.1,1158,600.6,1158z"/>
	<g>
		<g>
			<path class="st127" d="M591.6,1189.9c-3.2,0-5.9,2.6-5.9,5.9c0,3.2,2.6,5.9,5.9,5.9c3.2,0,5.9-2.6,5.9-5.9
				C597.5,1192.5,594.9,1189.9,591.6,1189.9z"/>
		</g>
		<g>
			<path class="st127" d="M601.8,1167c-0.1,0-0.1,0-0.1,0c0,0-0.4-0.1-1.1-0.1c-1.3,0-3.5,0.2-5.2,1.6c-1.6,1.2-2.5,3.2-2.8,5.7
				c-0.3,3.3-2.9,5.5-5.5,7.7c-2.9,2.5-6.1,5.2-7.5,9.9c-1,3.3-0.9,8.3,2.1,12.4c2.3,3.2,7.4,7,17.8,7c19.5,0,21.6-15.1,21.6-21.5
				C621.2,1179,613.3,1167,601.8,1167z M591.6,1203.2c-4.1,0-7.4-3.3-7.4-7.4c0-4.1,3.3-7.4,7.4-7.4c4.1,0,7.4,3.3,7.4,7.4
				C599.1,1199.8,595.7,1203.2,591.6,1203.2z"/>
		</g>
		<g>
			<path class="st127" d="M600.6,1163.3C600.6,1163.3,600.5,1163.3,600.6,1163.3c-0.1,0-0.4,0-0.8,0c-2.4,0-9.8,0.5-10.3,6.7
				c-0.4,4.2-3.2,6.3-6.2,8.6c-3.2,2.5-6.9,5.2-8.7,11.3c-1.3,4.3-1.2,11.1,3,16.8c3.2,4.2,9.7,9.3,23,9.3c26,0,26-20.9,26-27.9
				C626.5,1174.3,615.1,1163.3,600.6,1163.3z M599.6,1212.7c-11.1,0-16.5-4.2-19.1-7.6c-3.5-4.6-3.5-10.1-2.4-13.8
				c1.5-5.1,4.9-8,7.9-10.5c2.5-2.2,4.8-4,5-6.7c0.3-3,1.4-5.3,3.3-6.8c3-2.3,6.9-1.9,7.5-1.8c5.7,0,11.1,2.8,15.1,7.9
				c3.6,4.6,5.7,10.6,5.7,16.3C622.8,1196.6,620.5,1212.7,599.6,1212.7z"/>
		</g>
	</g>
	<path class="st126" d="M516.7,1257c-1.8,2.7-2.8,8.9-2.8,13.5v19.8c0,4.6,3.7,8.2,8.2,8.2h11.9c4.6,0,8.2-3.7,8.2-8.2v-19.8
		c0-4.6-1-10.7-2.8-13.5l0-0.1c0-0.1-4-5.2-4.5-9.7c0.5-0.1,0.9-0.5,0.8-1c-0.1-0.4-0.4-0.8-0.8-0.8h-1.4c1.5,0,2.7-1.2,2.7-2.7
		s-1.2-2.7-2.7-2.7h-11c-1.5,0-2.7,1.2-2.7,2.7s1.2,2.7,2.7,2.7h-1.4c-0.5,0-0.9,0.4-0.9,0.9s0.4,0.9,0.9,0.9
		C520.7,1251.8,516.8,1256.9,516.7,1257L516.7,1257z M521.7,1242.7c0-0.5,0.4-0.9,0.9-0.9h11c0.5,0,0.9,0.4,0.9,0.9
		s-0.4,0.9-0.9,0.9h-11C522.1,1243.6,521.7,1243.2,521.7,1242.7z M523,1247.3h10.2c0.5,4.9,4.5,10.3,4.8,10.8
		c1.6,2.4,2.5,8.2,2.5,12.4v4.7c-1,0.7-2.1,1.2-3.2,1.5c-2.9,0.7-5.7,0.2-8.4-1.6c-0.1-0.1-0.1-0.1-0.2-0.2
		c-5.6-3.8-10.5-2.2-12.9-0.9v-3.5c0-4.2,0.9-10,2.5-12.4C518.6,1257.6,522.6,1252.2,523,1247.3z"/>
	<g transform="translate(-510 -80)">
		<g>
			<path class="st7" d="M1473,849c-0.2,0.4-0.3,0.9-0.1,1.8c2.1,0.4,6.3,1.5,10,5c-0.3-4.8-3.2-7.7-6.2-9.6
				C1475.3,846.7,1473.6,847.7,1473,849z"/>
			<path class="st7" d="M1451.2,845.3c0-0.2,0.1-0.3,0.1-0.5c-1.4,1-2.6,2.7-3,5.6c-1.2,8.1-8.5,4.6-3.6,15c0.8,1.8,1.7,3.2,2.5,4.3
				c0.2-2.9,1.3-7.5,6-11.8C1451.8,854.3,1450.6,849.4,1451.2,845.3z"/>
			<path class="st7" d="M1454,843.7c-0.3,0.6-0.5,1.3-0.6,2c-0.5,3.4,0.4,7.5,1.6,10.9c0.7-0.5,1.5-1,2.3-1.6
				c0.7-0.4,1.4-0.9,2.2-1.3c-1.3-12.3,11.7-19.2,11.7-19.2l-2.2-4.4c0,0-2.6,1.4-5.7,3.5l-3.9-4.3l-1.6,1.5l3.7,4.1
				c-0.6,0.4-1.2,0.9-1.7,1.4l-3.7-4.2l-1.6,1.5l3.7,4.2c-0.5,0.5-1,1.1-1.5,1.6l-3.8-4.2l-1.6,1.5l4,4.5
				C1454.7,842.1,1454.3,842.9,1454,843.7z"/>
			<path class="st7" d="M1482.8,858.7c-5-5.6-11.4-5.9-11.4-5.9c-2.1-4,0.4-6.5,2.8-7.9c1.8-1,3.6-1.5,3.6-1.5V839
				c-6,0-9.8,1.8-12.2,4.3c-1.1,1.1-1.9,2.4-2.5,3.7c-1.5,3.2-1.5,6.6-1.5,8.1c-1.6,0.8-3,1.6-4.3,2.5c-0.6,0.4-1.1,0.8-1.6,1.2
				c-0.6,0.5-1.2,1.1-1.8,1.6c-5.2,5.3-4.8,10.6-4.6,11.8c0,0.2,0.1,0.3,0.1,0.3c2.4,15,13.4,16.2,21.9,17.4
				c8.5,1.2,11.9,0.6,15.3-2c3.9-2.9,4.1-9.6,0.5-21.2C1486.1,863.3,1484.5,860.7,1482.8,858.7z"/>
		</g>
	</g>
	<g transform="translate(-510 -80)">
		<g>
			<path class="st7" d="M1842,1019c-0.2,0.4-0.3,0.9-0.1,1.8c2.1,0.4,6.3,1.5,10,5c-0.3-4.8-3.2-7.7-6.2-9.6
				C1844.3,1016.7,1842.6,1017.7,1842,1019z"/>
			<path class="st7" d="M1820.2,1015.3c0-0.2,0.1-0.3,0.1-0.5c-1.4,1-2.6,2.7-3,5.6c-1.2,8.1-8.5,4.6-3.6,15
				c0.8,1.8,1.7,3.2,2.5,4.3c0.2-2.9,1.3-7.5,6-11.8C1820.8,1024.3,1819.6,1019.4,1820.2,1015.3z"/>
			<path class="st7" d="M1823,1013.7c-0.3,0.6-0.5,1.3-0.6,2c-0.5,3.4,0.4,7.5,1.6,10.9c0.7-0.5,1.5-1,2.3-1.6
				c0.7-0.4,1.4-0.9,2.2-1.3c-1.3-12.3,11.7-19.2,11.7-19.2l-2.2-4.4c0,0-2.6,1.4-5.7,3.5l-3.9-4.3l-1.6,1.5l3.7,4.1
				c-0.6,0.4-1.2,0.9-1.7,1.4l-3.7-4.2l-1.6,1.5l3.7,4.2c-0.5,0.5-1,1.1-1.5,1.6l-3.8-4.2l-1.6,1.5l4,4.5
				C1823.7,1012.1,1823.3,1012.9,1823,1013.7z"/>
			<path class="st7" d="M1851.8,1028.7c-5-5.6-11.4-5.9-11.4-5.9c-2.1-4,0.4-6.5,2.8-7.9c1.8-1,3.6-1.5,3.6-1.5v-4.4
				c-6,0-9.8,1.8-12.2,4.3c-1.1,1.1-1.9,2.4-2.5,3.7c-1.5,3.2-1.5,6.6-1.5,8.1c-1.6,0.8-3,1.6-4.3,2.5c-0.6,0.4-1.1,0.8-1.6,1.2
				c-0.6,0.5-1.2,1.1-1.8,1.6c-5.2,5.3-4.8,10.6-4.6,11.8c0,0.2,0.1,0.3,0.1,0.3c2.4,15,13.4,16.2,21.9,17.4
				c8.5,1.2,11.9,0.6,15.3-2c3.9-2.9,4.1-9.6,0.5-21.2C1855.1,1033.3,1853.5,1030.7,1851.8,1028.7z"/>
		</g>
	</g>
	<g transform="translate(-510 -80)">
		<g>
			<path class="st7" d="M1480,1189c-0.2,0.4-0.3,0.9-0.1,1.8c2.1,0.4,6.3,1.5,10,5c-0.3-4.8-3.2-7.7-6.2-9.6
				C1482.3,1186.7,1480.6,1187.7,1480,1189z"/>
			<path class="st7" d="M1458.2,1185.3c0-0.2,0.1-0.3,0.1-0.5c-1.4,1-2.6,2.7-3,5.6c-1.2,8.1-8.5,4.6-3.6,15
				c0.8,1.8,1.7,3.2,2.5,4.3c0.2-2.9,1.3-7.5,6-11.8C1458.8,1194.3,1457.6,1189.4,1458.2,1185.3z"/>
			<path class="st7" d="M1461,1183.7c-0.3,0.6-0.5,1.3-0.6,2c-0.5,3.4,0.4,7.5,1.6,10.9c0.7-0.5,1.5-1,2.3-1.6
				c0.7-0.4,1.4-0.9,2.2-1.3c-1.3-12.3,11.7-19.2,11.7-19.2l-2.2-4.4c0,0-2.6,1.4-5.7,3.5l-3.9-4.3l-1.6,1.5l3.7,4.1
				c-0.6,0.4-1.2,0.9-1.7,1.4l-3.7-4.2l-1.6,1.5l3.7,4.2c-0.5,0.5-1,1.1-1.5,1.6l-3.8-4.2l-1.6,1.5l4,4.5
				C1461.7,1182.1,1461.3,1182.9,1461,1183.7z"/>
			<path class="st7" d="M1489.8,1198.7c-5-5.6-11.4-5.9-11.4-5.9c-2.1-4,0.4-6.5,2.8-7.9c1.8-1,3.6-1.5,3.6-1.5v-4.4
				c-6,0-9.8,1.8-12.2,4.3c-1.1,1.1-1.9,2.4-2.5,3.7c-1.5,3.2-1.5,6.6-1.5,8.1c-1.6,0.8-3,1.6-4.3,2.5c-0.6,0.4-1.1,0.8-1.6,1.2
				c-0.6,0.5-1.2,1.1-1.8,1.6c-5.2,5.3-4.8,10.6-4.6,11.8c0,0.2,0.1,0.3,0.1,0.3c2.4,15,13.4,16.2,21.9,17.4
				c8.5,1.2,11.9,0.6,15.3-2c3.9-2.9,4.1-9.6,0.5-21.2C1493.1,1203.3,1491.5,1200.7,1489.8,1198.7z"/>
		</g>
	</g>
	<g>
		<g>
			<g>
				<path class="st9" d="M451.9,770.6c3.4,4.9,1.2,13.2,1.2,13.1c0,0-10,2.4-13.3-2.5c-1.8-2.4-2.5-7.3-3.3-11.2c-0.7-4-1.5-7-1.5-7
					c0,0,3.8,0.3,7.5,1.7C446.3,765.9,450.1,768.2,451.9,770.6z"/>
				<path class="st9" d="M451.8,751.2c3.4,4.9,1.2,13.2,1.2,13.1c0,0-10,2.4-13.3-2.5c-1.8-2.4-2.5-7.3-3.3-11.2c-0.7-4-1.5-7-1.5-7
					c0,0,3.8,0.3,7.5,1.7C446.3,746.6,450.1,748.8,451.8,751.2z"/>
				<path class="st9" d="M451.8,731.8c3.4,4.9,1.2,13.2,1.2,13.1c0,0-10,2.4-13.3-2.5c-1.8-2.4-2.5-7.3-3.3-11.2c-0.7-4-1.5-7-1.5-7
					c0,0,3.8,0.3,7.5,1.7C446.3,727.2,450.1,729.5,451.8,731.8z"/>
				<path class="st9" d="M451.8,712.5c3.4,4.9,1.2,13.2,1.2,13.1c0,0-10,2.4-13.3-2.5c-1.8-2.4-2.5-7.3-3.3-11.2c-0.7-4-1.5-7-1.5-7
					c0,0,3.8,0.3,7.5,1.7C446.2,707.8,450,710.1,451.8,712.5z"/>
				<path class="st9" d="M455.8,782.6c-3.3,4.9-1.1,13.2-1.2,13.1c0,0,10,2.3,13.3-2.6c1.8-2.4,2.5-7.3,3.3-11.2c0.7-4,1.4-7,1.5-7
					c0,0-3.8,0.3-7.5,1.7C461.4,777.9,457.6,780.2,455.8,782.6z"/>
				<path class="st9" d="M455.8,763.2c-3.3,4.9-1.1,13.2-1.2,13.1c0,0,10,2.3,13.3-2.6c1.8-2.4,2.5-7.3,3.3-11.2c0.7-4,1.4-7,1.4-7
					s-3.8,0.3-7.5,1.7C461.4,758.6,457.6,760.8,455.8,763.2z"/>
				<path class="st9" d="M455.8,743.8c-3.3,4.9-1.1,13.2-1.2,13.1c0,0,10,2.3,13.3-2.6c1.8-2.4,2.5-7.3,3.3-11.2c0.7-4,1.4-7,1.4-7
					s-3.8,0.3-7.5,1.7C461.3,739.2,457.6,741.5,455.8,743.8z"/>
				<path class="st9" d="M455.8,724.5c-3.3,4.9-1.1,13.2-1.2,13.1c0.1,0,10,2.3,13.3-2.6c1.8-2.4,2.5-7.3,3.3-11.2
					c0.7-4,1.4-7,1.4-7s-3.8,0.3-7.5,1.7C461.3,719.8,457.5,722.1,455.8,724.5z"/>
				<path class="st9" d="M455.8,705.1c-3.3,4.9-1.1,13.2-1.2,13.1c0.1,0,10,2.3,13.3-2.6c1.8-2.4,2.5-7.3,3.3-11.2
					c0.7-4,1.4-7,1.4-7s-3.8,0.3-7.5,1.7C461.3,700.4,457.5,702.7,455.8,705.1z"/>
				<path class="st9" d="M442,698.1c1.6,5.7,9.4,9.3,9.3,9.3c0.1,0,8.2-6.1,6.6-11.8c-0.7-2.9-4-6.6-6.5-9.7
					c-2.6-3.1-4.4-5.6-4.4-5.6c0,0-2.2,3.1-3.5,6.8C442,690.9,441.3,695.3,442,698.1z"/>
			</g>
			<path class="st9" d="M456.2,831l0.4-31.9l-2.7,5.8l-1.1,28.9C453.9,832.9,455.2,831.9,456.2,831z"/>
			<path class="st9" d="M445.7,754.3l-4,16.6l8.2,11.5l49.6-30.4H553l3.2-14c0,0-1.3-9.3-10.4-8.2c-9.1,1.1-71.7,7.1-71.7,7.1
				L445.7,754.3z"/>
		</g>
	</g>
	<g>
		<g>
			<g>
				<path class="st9" d="M497.4,790c3.4,4.9,1.2,13.2,1.2,13.1c0,0-10,2.4-13.3-2.5c-1.8-2.4-2.5-7.3-3.3-11.2c-0.7-4-1.5-7-1.5-7
					c0,0,3.8,0.3,7.5,1.7C491.8,785.3,495.6,787.6,497.4,790z"/>
				<path class="st9" d="M497.4,770.6c3.4,4.9,1.2,13.2,1.2,13.1c0,0-10,2.4-13.3-2.5c-1.8-2.4-2.5-7.3-3.3-11.2c-0.7-4-1.5-7-1.5-7
					c0,0,3.8,0.3,7.5,1.7C491.8,765.9,495.6,768.2,497.4,770.6z"/>
				<path class="st9" d="M497.4,751.2c3.4,4.9,1.2,13.2,1.2,13.1c0,0-10,2.4-13.3-2.5c-1.8-2.4-2.5-7.3-3.3-11.2c-0.7-4-1.5-7-1.5-7
					c0,0,3.8,0.3,7.5,1.7C491.8,746.6,495.6,748.8,497.4,751.2z"/>
				<path class="st9" d="M497.4,731.8c3.4,4.9,1.2,13.2,1.2,13.1c0,0-10,2.4-13.3-2.5c-1.8-2.4-2.5-7.3-3.3-11.2c-0.7-4-1.5-7-1.5-7
					c0,0,3.8,0.3,7.5,1.7C491.8,727.2,495.6,729.5,497.4,731.8z"/>
				<path class="st9" d="M497.3,712.5c3.4,4.9,1.2,13.2,1.2,13.1c0,0-10,2.4-13.3-2.5c-1.8-2.4-2.5-7.3-3.3-11.2c-0.7-4-1.5-7-1.5-7
					c0,0,3.8,0.3,7.5,1.7C491.8,707.8,495.6,710.1,497.3,712.5z"/>
				<path class="st9" d="M501.4,782.6c-3.3,4.9-1.1,13.2-1.2,13.1c0,0,10,2.3,13.3-2.6c1.8-2.4,2.5-7.3,3.3-11.2c0.7-4,1.4-7,1.5-7
					c0,0-3.8,0.3-7.5,1.7C506.9,777.9,503.1,780.2,501.4,782.6z"/>
				<path class="st9" d="M501.3,763.2c-3.3,4.9-1.1,13.2-1.2,13.1c0,0,10,2.3,13.3-2.6c1.8-2.4,2.5-7.3,3.3-11.2c0.7-4,1.4-7,1.4-7
					s-3.8,0.3-7.5,1.7C506.9,758.6,503.1,760.8,501.3,763.2z"/>
				<path class="st9" d="M501.3,743.8c-3.3,4.9-1.1,13.2-1.2,13.1c0.1,0,10,2.3,13.3-2.6c1.8-2.4,2.5-7.3,3.3-11.2
					c0.7-4,1.4-7,1.4-7s-3.8,0.3-7.5,1.7C506.9,739.2,503.1,741.5,501.3,743.8z"/>
				<path class="st9" d="M501.3,724.5c-3.3,4.9-1.1,13.2-1.2,13.1c0.1,0,10,2.3,13.3-2.6c1.8-2.4,2.5-7.3,3.3-11.2
					c0.7-4,1.4-7,1.4-7s-3.8,0.3-7.5,1.7C506.8,719.8,503.1,722.1,501.3,724.5z"/>
				<path class="st9" d="M501.3,705.1c-3.3,4.9-1.1,13.2-1.2,13.1c0.1,0,10,2.3,13.3-2.6c1.8-2.4,2.5-7.3,3.3-11.2
					c0.7-4,1.4-7,1.4-7s-3.8,0.3-7.5,1.7C506.8,700.4,503,702.7,501.3,705.1z"/>
				<path class="st9" d="M487.5,698.1c1.6,5.7,9.4,9.3,9.3,9.3c0.1,0,8.2-6.1,6.6-11.8c-0.7-2.9-4-6.6-6.5-9.7
					c-2.6-3.1-4.4-5.6-4.4-5.6c0,0-2.2,3.1-3.5,6.8C487.5,690.9,486.8,695.3,487.5,698.1z"/>
			</g>
			<path class="st9" d="M501.7,831l0.4-31.9l-2.7,5.8l-1.1,28.9C499.4,832.9,500.7,831.9,501.7,831z"/>
		</g>
	</g>
	<g>
		<g>
			<g>
				<path class="st9" d="M542.9,790c3.4,4.9,1.2,13.2,1.2,13.1c0,0-10,2.4-13.3-2.5c-1.8-2.4-2.5-7.3-3.3-11.2c-0.7-4-1.5-7-1.5-7
					c0,0,3.8,0.3,7.5,1.7C537.4,785.3,541.2,787.6,542.9,790z"/>
				<path class="st9" d="M542.9,770.6c3.4,4.9,1.2,13.2,1.2,13.1c0,0-10,2.4-13.3-2.5c-1.8-2.4-2.5-7.3-3.3-11.2c-0.7-4-1.5-7-1.5-7
					c0,0,3.8,0.3,7.5,1.7C537.3,765.9,541.1,768.2,542.9,770.6z"/>
				<path class="st9" d="M542.9,751.2c3.4,4.9,1.2,13.2,1.2,13.1c0,0-10,2.4-13.3-2.5c-1.8-2.4-2.5-7.3-3.3-11.2c-0.7-4-1.5-7-1.5-7
					c0,0,3.8,0.3,7.5,1.7C537.3,746.6,541.1,748.8,542.9,751.2z"/>
				<path class="st9" d="M542.9,731.8c3.4,4.9,1.2,13.2,1.2,13.1c0,0-10,2.4-13.3-2.5c-1.8-2.4-2.5-7.3-3.3-11.2c-0.7-4-1.5-7-1.5-7
					c0,0,3.8,0.3,7.5,1.7C537.3,727.2,541.1,729.5,542.9,731.8z"/>
				<path class="st9" d="M542.9,712.5c3.4,4.9,1.2,13.2,1.2,13.1c0,0-10,2.4-13.3-2.5c-1.8-2.4-2.5-7.3-3.3-11.2c-0.7-4-1.5-7-1.5-7
					c0,0,3.8,0.3,7.5,1.7C537.3,707.8,541.1,710.1,542.9,712.5z"/>
				<path class="st9" d="M546.9,782.6c-3.3,4.9-1.1,13.2-1.2,13.1c0,0,10,2.3,13.3-2.6c1.8-2.4,2.5-7.3,3.3-11.2c0.7-4,1.4-7,1.5-7
					c0,0-3.8,0.3-7.5,1.7C552.4,777.9,548.6,780.2,546.9,782.6z"/>
				<path class="st9" d="M546.9,763.2c-3.3,4.9-1.1,13.2-1.2,13.1c0,0,10,2.3,13.3-2.6c1.8-2.4,2.5-7.3,3.3-11.2c0.7-4,1.4-7,1.4-7
					s-3.8,0.3-7.5,1.7C552.4,758.6,548.6,760.8,546.9,763.2z"/>
				<path class="st9" d="M546.8,743.8c-3.3,4.9-1.1,13.2-1.2,13.1c0,0,10,2.3,13.3-2.6c1.8-2.4,2.5-7.3,3.3-11.2c0.7-4,1.4-7,1.4-7
					s-3.8,0.3-7.5,1.7C552.4,739.2,548.6,741.5,546.8,743.8z"/>
				<path class="st9" d="M546.8,724.5c-3.3,4.9-1.1,13.2-1.2,13.1c0,0,10,2.3,13.3-2.6c1.8-2.4,2.5-7.3,3.3-11.2c0.7-4,1.4-7,1.4-7
					s-3.8,0.3-7.5,1.7C552.4,719.8,548.6,722.1,546.8,724.5z"/>
				<path class="st9" d="M546.8,705.1c-3.3,4.9-1.1,13.2-1.2,13.1c0,0,10,2.3,13.3-2.6c1.8-2.4,2.5-7.3,3.3-11.2c0.7-4,1.4-7,1.4-7
					s-3.8,0.3-7.5,1.7C552.4,700.4,548.6,702.7,546.8,705.1z"/>
				<path class="st9" d="M533,698.1c1.6,5.7,9.4,9.3,9.3,9.3c0.1,0,8.2-6.1,6.6-11.8c-0.7-2.9-4-6.6-6.5-9.7
					c-2.6-3.1-4.4-5.6-4.4-5.6c0,0-2.2,3.1-3.5,6.8C533,690.9,532.3,695.3,533,698.1z"/>
			</g>
			<path class="st9" d="M547.3,831l0.4-31.9l-2.7,5.8l-1.1,28.9C545,832.9,546.2,831.9,547.3,831z"/>
		</g>
	</g>
	<g>
		<g>
			<g>
				<path class="st128" d="M459.8,784.5c2.8,4.1,1,11,1,10.9c0,0-8.3,2-11.1-2.1c-1.5-2-2.1-6.1-2.8-9.3c-0.6-3.3-1.2-5.8-1.2-5.8
					c0,0,3.1,0.3,6.3,1.4C455.2,780.6,458.3,782.5,459.8,784.5z"/>
				<path class="st128" d="M459.8,768.3c2.8,4.1,1,11,1,10.9c0,0-8.3,2-11.1-2.1c-1.5-2-2.1-6.1-2.8-9.3c-0.6-3.3-1.2-5.8-1.2-5.8
					c0,0,3.1,0.3,6.3,1.4C455.1,764.5,458.3,766.4,459.8,768.3z"/>
				<path class="st128" d="M459.8,752.2c2.8,4.1,1,11,1,10.9c0,0-8.3,2-11.1-2.1c-1.5-2-2.1-6.1-2.8-9.3c-0.6-3.3-1.2-5.8-1.2-5.8
					c0,0,3.1,0.3,6.3,1.4C455.1,748.3,458.3,750.2,459.8,752.2z"/>
				<path class="st128" d="M459.7,736c2.8,4.1,1,11,1,10.9c0,0-8.3,2-11.1-2.1c-1.5-2-2.1-6.1-2.8-9.3c-0.6-3.3-1.2-5.8-1.2-5.8
					c0,0,3.1,0.3,6.3,1.4C455.1,732.2,458.3,734.1,459.7,736z"/>
				<path class="st128" d="M459.7,719.9c2.8,4.1,1,11,1,10.9c0,0-8.3,2-11.1-2.1c-1.5-2-2.1-6.1-2.8-9.3c-0.6-3.3-1.2-5.8-1.2-5.8
					c0,0,3.1,0.3,6.3,1.4C455.1,716,458.3,717.9,459.7,719.9z"/>
				<path class="st128" d="M463.1,778.3c-2.8,4.1-0.9,11-1,10.9c0,0,8.3,1.9,11.1-2.1c1.5-2,2.1-6.1,2.8-9.3
					c0.6-3.3,1.2-5.8,1.2-5.8c0,0-3.1,0.3-6.3,1.4C467.7,774.4,464.6,776.3,463.1,778.3z"/>
				<path class="st128" d="M463.1,762.2c-2.8,4.1-0.9,11-1,10.9c0,0,8.3,1.9,11.1-2.1c1.5-2,2.1-6.1,2.8-9.3
					c0.6-3.3,1.2-5.8,1.2-5.8s-3.1,0.3-6.3,1.4C467.7,758.3,464.5,760.2,463.1,762.2z"/>
				<path class="st128" d="M463.1,746c-2.8,4.1-0.9,11-1,10.9c0,0,8.3,1.9,11.1-2.1c1.5-2,2.1-6.1,2.8-9.3c0.6-3.3,1.2-5.8,1.2-5.8
					s-3.1,0.3-6.3,1.4C467.7,742.2,464.5,744.1,463.1,746z"/>
				<path class="st128" d="M463,729.9c-2.8,4.1-0.9,11-1,10.9c0,0,8.3,1.9,11.1-2.1c1.5-2,2.1-6.1,2.8-9.3c0.6-3.3,1.2-5.8,1.2-5.8
					s-3.1,0.3-6.3,1.4C467.7,726,464.5,727.9,463,729.9z"/>
				<path class="st128" d="M463,713.7c-2.8,4.1-0.9,11-1,10.9c0,0,8.3,1.9,11.1-2.1c1.5-2,2.1-6.1,2.8-9.3c0.6-3.3,1.2-5.8,1.2-5.8
					s-3.1,0.3-6.3,1.4C467.6,709.9,464.5,711.8,463,713.7z"/>
				<path class="st128" d="M451.5,708c1.3,4.8,7.8,7.8,7.8,7.8c0.1,0,6.8-5.1,5.5-9.9c-0.6-2.4-3.3-5.5-5.4-8.1
					c-2.2-2.6-3.7-4.7-3.7-4.7c0,0-1.8,2.6-3,5.7C451.5,701.9,451,705.6,451.5,708z"/>
			</g>
			<path class="st128" d="M463.4,818.7l0.3-26.5l-2.2,4.8l-0.9,24C461.5,820.2,462.5,819.4,463.4,818.7z"/>
		</g>
	</g>
	<g>
		<g>
			<g>
				<path class="st128" d="M497.7,784.5c2.8,4.1,1,11,1,10.9c0,0-8.3,2-11.1-2.1c-1.5-2-2.1-6.1-2.8-9.3c-0.6-3.3-1.2-5.8-1.2-5.8
					c0,0,3.1,0.3,6.3,1.4C493.1,780.6,496.3,782.5,497.7,784.5z"/>
				<path class="st128" d="M497.7,768.3c2.8,4.1,1,11,1,10.9c0,0-8.3,2-11.1-2.1c-1.5-2-2.1-6.1-2.8-9.3c-0.6-3.3-1.2-5.8-1.2-5.8
					c0,0,3.1,0.3,6.3,1.4C493.1,764.5,496.2,766.4,497.7,768.3z"/>
				<path class="st128" d="M497.7,752.2c2.8,4.1,1,11,1,10.9c0,0-8.3,2-11.1-2.1c-1.5-2-2.1-6.1-2.8-9.3c-0.6-3.3-1.2-5.8-1.2-5.8
					c0,0,3.1,0.3,6.3,1.4C493.1,748.3,496.2,750.2,497.7,752.2z"/>
				<path class="st128" d="M497.7,736c2.8,4.1,1,11,1,10.9c0,0-8.3,2-11.1-2.1c-1.5-2-2.1-6.1-2.8-9.3c-0.6-3.3-1.2-5.8-1.2-5.8
					c0,0,3.1,0.3,6.3,1.4C493,732.2,496.2,734.1,497.7,736z"/>
				<path class="st128" d="M497.7,719.9c2.8,4.1,1,11,1,10.9c0,0-8.3,2-11.1-2.1c-1.5-2-2.1-6.1-2.8-9.3c-0.6-3.3-1.2-5.8-1.2-5.8
					c0,0,3.1,0.3,6.3,1.4C493,716,496.2,717.9,497.7,719.9z"/>
				<path class="st128" d="M501,778.3c-2.8,4.1-0.9,11-1,10.9c0,0,8.3,1.9,11.1-2.1c1.5-2,2.1-6.1,2.8-9.3c0.6-3.3,1.2-5.8,1.2-5.8
					c0,0-3.1,0.3-6.3,1.4C505.6,774.4,502.5,776.3,501,778.3z"/>
				<path class="st128" d="M501,762.2c-2.8,4.1-0.9,11-1,10.9c0,0,8.3,1.9,11.1-2.1c1.5-2,2.1-6.1,2.8-9.3c0.6-3.3,1.2-5.8,1.2-5.8
					s-3.1,0.3-6.3,1.4C505.6,758.3,502.5,760.2,501,762.2z"/>
				<path class="st128" d="M501,746c-2.8,4.1-0.9,11-1,10.9c0,0,8.3,1.9,11.1-2.1c1.5-2,2.1-6.1,2.8-9.3c0.6-3.3,1.2-5.8,1.2-5.8
					s-3.1,0.3-6.3,1.4C505.6,742.2,502.5,744.1,501,746z"/>
				<path class="st128" d="M501,729.9c-2.8,4.1-0.9,11-1,10.9c0,0,8.3,1.9,11.1-2.1c1.5-2,2.1-6.1,2.8-9.3c0.6-3.3,1.2-5.8,1.2-5.8
					s-3.1,0.3-6.3,1.4C505.6,726,502.4,727.9,501,729.9z"/>
				<path class="st128" d="M501,713.7c-2.8,4.1-0.9,11-1,10.9c0,0,8.3,1.9,11.1-2.1c1.5-2,2.1-6.1,2.8-9.3c0.6-3.3,1.2-5.8,1.2-5.8
					s-3.1,0.3-6.3,1.4C505.6,709.9,502.4,711.8,501,713.7z"/>
				<path class="st128" d="M489.5,708c1.3,4.8,7.8,7.8,7.8,7.8c0.1,0,6.8-5.1,5.5-9.9c-0.6-2.4-3.3-5.5-5.4-8.1
					c-2.2-2.6-3.7-4.7-3.7-4.7c0,0-1.8,2.6-3,5.7C489.5,701.9,488.9,705.6,489.5,708z"/>
			</g>
			<path class="st128" d="M501.3,818.7l0.3-26.5l-2.2,4.8l-0.9,24C499.4,820.2,500.5,819.4,501.3,818.7z"/>
		</g>
	</g>
	<g>
		<g>
			<g>
				<path class="st128" d="M535.7,784.5c2.8,4.1,1,11,1,10.9c0,0-8.3,2-11.1-2.1c-1.5-2-2.1-6.1-2.8-9.3c-0.6-3.3-1.2-5.8-1.2-5.8
					c0,0,3.1,0.3,6.3,1.4C531,780.6,534.2,782.5,535.7,784.5z"/>
				<path class="st128" d="M535.6,768.3c2.8,4.1,1,11,1,10.9c0,0-8.3,2-11.1-2.1c-1.5-2-2.1-6.1-2.8-9.3c-0.6-3.3-1.2-5.8-1.2-5.8
					c0,0,3.1,0.3,6.3,1.4C531,764.5,534.2,766.4,535.6,768.3z"/>
				<path class="st128" d="M535.6,752.2c2.8,4.1,1,11,1,10.9c0,0-8.3,2-11.1-2.1c-1.5-2-2.1-6.1-2.8-9.3c-0.6-3.3-1.2-5.8-1.2-5.8
					c0,0,3.1,0.3,6.3,1.4C531,748.3,534.2,750.2,535.6,752.2z"/>
				<path class="st128" d="M535.6,736c2.8,4.1,1,11,1,10.9c0,0-8.3,2-11.1-2.1c-1.5-2-2.1-6.1-2.8-9.3c-0.6-3.3-1.2-5.8-1.2-5.8
					c0,0,3.1,0.3,6.3,1.4C531,732.2,534.1,734.1,535.6,736z"/>
				<path class="st128" d="M535.6,719.9c2.8,4.1,1,11,1,10.9c0,0-8.3,2-11.1-2.1c-1.5-2-2.1-6.1-2.8-9.3c-0.6-3.3-1.2-5.8-1.2-5.8
					c0,0,3.1,0.3,6.3,1.4C531,716,534.1,717.9,535.6,719.9z"/>
				<path class="st128" d="M539,778.3c-2.8,4.1-0.9,11-1,10.9c0,0,8.3,1.9,11.1-2.1c1.5-2,2.1-6.1,2.8-9.3c0.6-3.3,1.2-5.8,1.2-5.8
					c0,0-3.1,0.3-6.3,1.4C543.6,774.4,540.4,776.3,539,778.3z"/>
				<path class="st128" d="M538.9,762.2c-2.8,4.1-0.9,11-1,10.9c0,0,8.3,1.9,11.1-2.1c1.5-2,2.1-6.1,2.8-9.3
					c0.6-3.3,1.2-5.8,1.2-5.8s-3.1,0.3-6.3,1.4C543.6,758.3,540.4,760.2,538.9,762.2z"/>
				<path class="st128" d="M538.9,746c-2.8,4.1-0.9,11-1,10.9c0,0,8.3,1.9,11.1-2.1c1.5-2,2.1-6.1,2.8-9.3c0.6-3.3,1.2-5.8,1.2-5.8
					s-3.1,0.3-6.3,1.4C543.5,742.2,540.4,744.1,538.9,746z"/>
				<path class="st128" d="M538.9,729.9c-2.8,4.1-0.9,11-1,10.9c0,0,8.3,1.9,11.1-2.1c1.5-2,2.1-6.1,2.8-9.3
					c0.6-3.3,1.2-5.8,1.2-5.8s-3.1,0.3-6.3,1.4C543.5,726,540.4,727.9,538.9,729.9z"/>
				<path class="st128" d="M538.9,713.7c-2.8,4.1-0.9,11-1,10.9c0,0,8.3,1.9,11.1-2.1c1.5-2,2.1-6.1,2.8-9.3
					c0.6-3.3,1.2-5.8,1.2-5.8s-3.1,0.3-6.3,1.4C543.5,709.9,540.4,711.8,538.9,713.7z"/>
				<path class="st128" d="M527.4,708c1.3,4.8,7.8,7.8,7.8,7.8c0.1,0,6.8-5.1,5.5-9.9c-0.6-2.4-3.3-5.5-5.4-8.1
					c-2.2-2.6-3.7-4.7-3.7-4.7c0,0-1.8,2.6-3,5.7C527.4,701.9,526.8,705.6,527.4,708z"/>
			</g>
			<path class="st128" d="M539.3,818.7l0.3-26.5l-2.2,4.8l-0.9,24C537.4,820.2,538.4,819.4,539.3,818.7z"/>
		</g>
	</g>
</g>
<rect x="268.7" y="1401.6" class="st33" width="546.6" height="66.5"/>
<text transform="matrix(1 0 0 1 268.7371 1425.3237)"><tspan x="0" y="0" class="st7 st116 st141">For a Swiss woman between 15-49 years.</tspan><tspan x="0" y="26.4" class="st142 st116 st143">DALY are given per 100&apos;000 people.</tspan></text>
<path class="st7" d="M145.4,1454.7h75.7c2.2,0,3.9-1.8,3.9-3.9v-7.7c0-8.3-5.4-15.6-13.3-18c-1-0.3-1.4-0.4-1.5-0.4l-4.6-1.2
	c6.5-5.1,9.4-13.5,7.6-21.5l-4.9-21.2l0,0c-2.9-13.8-16.4-22.7-30.3-19.9c-10,2.1-17.8,9.9-19.9,19.9l-4.9,21.2
	c-1.9,8,1,16.4,7.5,21.5l-4.5,1.2c-0.1,0-0.6,0.2-1.5,0.4c-7.9,2.4-13.3,9.7-13.3,18v7.7C141.5,1452.9,143.2,1454.7,145.4,1454.7
	L145.4,1454.7z M168,1388.3c3.9,0.2,11.3-0.6,20.1-8.1c0.7-0.6,1.9-0.6,2.5,0.2c0.1,0.1,0.1,0.2,0.2,0.3c2.1,3.3,5,6,8.5,7.6
	c0.7,0.4,1.2,1.1,1.2,2l-0.2,9.6c-0.2,5.8-2.8,11.2-7.2,14.9c-0.3,0.2-0.5,0.6-0.5,1v7.6c0,1.5,0.8,2.9,2.1,3.6l-10,13.1
	c-0.6,0.8-1.7,0.9-2.4,0.3c-0.1-0.1-0.2-0.2-0.3-0.3l-10-13.1c1.3-0.7,2.1-2.1,2.1-3.6v-7.6c0-0.4-0.2-0.7-0.5-1
	c-3.4-2.8-5.7-6.7-6.7-11l-0.6-7.8v-0.1l-0.1-5.8c0-1,0.7-1.7,1.7-1.8C167.9,1388.3,167.9,1388.3,168,1388.3z"/>
<path class="st122" d="M880,48.7c-0.9,0-1.7,0.7-1.7,1.7v473.4v3.3V567c0,0.9,0.7,1.7,1.7,1.7s1.7-0.7,1.7-1.7V50.4
	C881.6,49.5,880.9,48.7,880,48.7z"/>
<g>
	<text transform="matrix(0.6894 0.7244 -0.7244 0.6894 225.3058 1197.9279)" class="st128 st131 st113">VitaScore</text>
</g>
<path class="st7" d="M990,535.4c-1-1-2.6-1-3.5,0l-2.7,2.7v-20.7c0-1.4-1.1-2.5-2.5-2.5s-2.5,1.1-2.5,2.5V538l-2.5-2.5
	c-1-1-2.6-1-3.5,0s-1,2.6,0,3.5l6.8,6.8c0.1,0.1,0.2,0.2,0.4,0.3c0.1,0,0.1,0.1,0.2,0.1c0.1,0,0.2,0.1,0.2,0.1
	c0.1,0,0.2,0.1,0.2,0.1c0.1,0,0.1,0,0.2,0.1c0.2,0,0.3,0,0.5,0s0.3,0,0.5,0c0.1,0,0.1,0,0.2-0.1c0.1,0,0.2,0,0.2-0.1
	c0.1,0,0.2-0.1,0.3-0.1c0.1,0,0.1-0.1,0.2-0.1c0.1-0.1,0.3-0.2,0.4-0.3l6.9-6.9C991,537.9,991,536.4,990,535.4z"/>
<path class="st7" d="M1539,314.9c-1-1-2.6-1-3.5,0l-2.7,2.7v-20.7c0-1.4-1.1-2.5-2.5-2.5s-2.5,1.1-2.5,2.5v20.7l-2.5-2.5
	c-1-1-2.6-1-3.5,0s-1,2.6,0,3.5l6.8,6.8c0.1,0.1,0.2,0.2,0.4,0.3c0.1,0,0.1,0.1,0.2,0.1c0.1,0,0.2,0.1,0.2,0.1
	c0.1,0,0.2,0.1,0.2,0.1c0.1,0,0.1,0,0.2,0.1c0.2,0,0.3,0,0.5,0s0.3,0,0.5,0c0.1,0,0.1,0,0.2-0.1c0.1,0,0.2,0,0.2-0.1
	c0.1,0,0.2-0.1,0.3-0.1c0.1,0,0.1-0.1,0.2-0.1c0.1-0.1,0.3-0.2,0.4-0.3l6.9-6.9C1540,317.4,1540,315.8,1539,314.9z"/>
<path class="st7" d="M1547,442.2c-1-1-2.6-1-3.5,0l-2.7,2.7v-20.7c0-1.4-1.1-2.5-2.5-2.5s-2.5,1.1-2.5,2.5v20.7l-2.5-2.5
	c-1-1-2.6-1-3.5,0s-1,2.6,0,3.5l6.8,6.8c0.1,0.1,0.2,0.2,0.4,0.3c0.1,0,0.1,0.1,0.2,0.1c0.1,0,0.2,0.1,0.2,0.1
	c0.1,0,0.2,0.1,0.2,0.1c0.1,0,0.1,0,0.2,0.1c0.2,0,0.3,0,0.5,0s0.3,0,0.5,0c0.1,0,0.1,0,0.2-0.1c0.1,0,0.2,0,0.2-0.1
	c0.1,0,0.2-0.1,0.3-0.1c0.1,0,0.1-0.1,0.2-0.1c0.1-0.1,0.3-0.2,0.4-0.3l6.9-6.9C1548,444.7,1548,443.2,1547,442.2z"/>
<text transform="matrix(1 -1.000000e-03 1.000000e-03 1 920.8571 90.686)" class="st7 st131 st132">Dietary Risk Factors</text>
</svg>
