<?xml version="1.0" encoding="UTF-8"?>
<svg width="60px" height="60px" viewBox="0 0 60 60" version="1.1" xmlns="http://www.w3.org/2000/svg" xmlns:xlink="http://www.w3.org/1999/xlink">
    <!-- Generator: Sketch 48.1 (47250) - http://www.bohemiancoding.com/sketch -->
    <title>Icon / happy water icon / blue</title>
    <desc>Created with Sketch.</desc>
    <defs></defs>
    <g id="Symbols" stroke="none" stroke-width="1" fill="none" fill-rule="evenodd">
        <g id="Icon-/-happy-water-icon-/-blue">
            <g id="Group">
                <g id="Group-2">
                    <rect id="Rectangle" x="0" y="0" width="60" height="60"></rect>
                    <path d="M21.0541933,36.0287624 C20.3780835,34.7691272 20.0272265,33.4734344 20.0016225,32.1416839 C19.9552037,29.727289 20.9184395,28.3702586 21.1403173,27.9216487 C21.8583588,26.469856 23.249455,25.2046136 24.2696414,24.3072417 C25.273399,23.4243208 26.7280686,22.1850723 28.84933,21.0606317 C29.7503035,20.5830427 31.3645073,19.8961655 33.6919414,19 C33.2668433,20.2338691 33.0834043,21.1486267 33.1416242,21.7442728 C33.1980501,22.3215646 33.2631703,22.8178158 33.5256464,23.3933442 C34.0504296,24.5440303 34.4710451,24.6949578 36.9404529,26.971902 C37.1039306,27.1226384 38.2956305,28.2640199 39.144811,29.795585 C39.8361113,31.0424003 40.1225027,32.6586955 39.9927937,33.927445 C39.7603749,36.2008514 38.4862588,38.0567175 36.1704453,39.4950432 L36.1616385,39.4931565 C34.4996118,40.686459 32.3654634,41.4037772 30.0378595,41.4037772 C25.9304511,41.4037772 22.4254616,39.1700532 21.0541933,36.0287624 Z" id="Combined-Shape" fill="#437FCD"></path>
                </g>
            </g>
        </g>
    </g>
</svg>