<?xml version="1.0" encoding="UTF-8"?>
<svg width="100%" height="100%" viewBox="0 0 60 60" version="1.1" xmlns="http://www.w3.org/2000/svg" xmlns:xlink="http://www.w3.org/1999/xlink">
    <!-- Generator: Sketch 48.1 (47250) - http://www.bohemiancoding.com/sketch -->
    <title>Icon / water</title>
    <desc>Created with Sketch.</desc>
    <defs></defs>
    <g id="Symbols" stroke="none" stroke-width="1" fill="none" fill-rule="evenodd">
        <rect id="Rectangle" x="0" y="0" width="60" height="60"></rect>
        <g id="Icon-/-water">
            <g id="Icon-/-Full-/-Water" transform="translate(12.000000, 12.000000)">
                <g id="Group-2">
                    <g id="Group" transform="translate(8.000000, 7.000000)" fill="#000000">
                        <path d="M1.05419333,17.0287624 C0.378083472,15.7691272 0.0272265291,14.4734344 0.00162250631,13.1416839 C-0.0447962674,10.727289 0.918439545,9.37025862 1.14031731,8.92164874 C1.85835884,7.46985598 3.24945502,6.20461356 4.26964139,5.30724166 C5.27339897,4.42432078 6.72806856,3.18507232 8.84933002,2.06063175 C9.75030351,1.58304274 11.3645073,0.896165494 13.6919414,0 C13.2668433,1.23386906 13.0834043,2.14862667 13.1416242,2.74427284 C13.1980501,3.32156456 13.2631703,3.81781581 13.5256464,4.39334416 C14.0504296,5.54403028 14.4710451,5.69495782 16.9404529,7.97190203 C17.1039306,8.1226384 18.2956305,9.26401992 19.144811,10.795585 C19.8361113,12.0424003 20.1225027,13.6586955 19.9927937,14.927445 C19.7603749,17.2008514 18.4862588,19.0567175 16.1704453,20.4950432 L16.1616385,20.4931565 C14.4996118,21.686459 12.3654634,22.4037772 10.0378595,22.4037772 C5.93045108,22.4037772 2.42546157,20.1700532 1.05419333,17.0287624 Z" id="Combined-Shape"></path>
                    </g>
                    <g id="award---sorounding-icon" stroke="#000000" stroke-width="2">
                        <rect id="Rectangle-2" x="1" y="1" width="34" height="34" rx="8"></rect>
                    </g>
                </g>
            </g>
        </g>
    </g>
</svg>
