<?xml version="1.0" encoding="utf-8"?>
<!-- Generator: Adobe Illustrator 19.2.0, SVG Export Plug-In . SVG Version: 6.00 Build 0)  -->
<svg version="1.1" id="Infographic_1" xmlns="http://www.w3.org/2000/svg" xmlns:xlink="http://www.w3.org/1999/xlink" x="0px"
	 y="0px" viewBox="0 0 2144.6 1532.1" style="enable-background:new 0 0 2144.6 1532.1;" xml:space="preserve">
<style type="text/css">
	.st0{fill:#EEF5F7;}
	.st1{fill-rule:evenodd;clip-rule:evenodd;fill:#EE7631;}
	.st2{fill-rule:evenodd;clip-rule:evenodd;fill:#72B84E;}
	.st3{fill-rule:evenodd;clip-rule:evenodd;fill:#195A74;}
	.st4{fill:#EE7631;stroke:#EE7631;stroke-width:3.4089;stroke-miterlimit:10;}
	.st5{fill:none;stroke:#959290;stroke-width:3.4089;stroke-miterlimit:10;}
	.st6{fill-rule:evenodd;clip-rule:evenodd;fill:#80A4D4;}
	.st7{fill:#1B556C;}
	.st8{fill:#72B84E;}
	.st9{fill:#FFFFFF;}
	.st10{fill:#5E5A57;}
	.st11{fill:#45413D;}
	.st12{fill:#26231E;}
	.st13{fill:#F7CE40;}
	.st14{fill:#F7CE40;stroke:#FFFFFF;stroke-width:16.2206;stroke-miterlimit:10;}
	.st15{opacity:0.53;fill:url(#);}
	.st16{fill:#005577;}
	.st17{fill:#EAF3E4;}
	.st18{fill:#C9E0B4;}
	.st19{fill:#98C773;}
	.st20{fill-rule:evenodd;clip-rule:evenodd;fill:#DFDFDF;}
	.st21{fill-rule:evenodd;clip-rule:evenodd;fill:#1D617A;}
	.st22{fill:#EAE9EA;}
	.st23{fill-rule:evenodd;clip-rule:evenodd;fill:#959290;}
	.st24{fill:#F8CF3F;}
	.st25{fill:#F8CF3F;stroke:#FFFFFF;stroke-width:4.4566;stroke-miterlimit:10;}
	.st26{fill:#0B6A7E;}
	.st27{fill:#31768A;}
	.st28{fill:#7A9EAD;}
	.st29{fill:#6F97A7;}
	.st30{fill:#A6BBC7;}
	.st31{fill:#BCCBD5;}
	.st32{fill:#EE7631;}
	.st33{fill:none;}
	.st34{fill-rule:evenodd;clip-rule:evenodd;fill:none;}
	.st35{fill:#DFDFDF;}
	.st36{fill:none;stroke:#195A74;stroke-width:13.6354;stroke-miterlimit:10;}
	.st37{fill:none;stroke:#195A74;stroke-width:13.6354;stroke-linecap:round;stroke-miterlimit:10;}
	.st38{fill-rule:evenodd;clip-rule:evenodd;fill:#ECEBEC;}
	.st39{fill-rule:evenodd;clip-rule:evenodd;fill:#FFFFFF;}
	.st40{opacity:0.72;fill:url(#SVGID_1_);}
	.st41{fill:#59B031;}
	.st42{fill:url(#SVGID_2_);}
	.st43{fill:#1D617A;}
	.st44{fill:url(#SVGID_3_);}
	.st45{fill:url(#SVGID_4_);}
	.st46{fill:url(#SVGID_5_);}
	.st47{clip-path:url(#SVGID_7_);}
	.st48{fill:#1F617B;}
	.st49{opacity:0.52;}
	.st50{clip-path:url(#SVGID_11_);}
	.st51{clip-path:url(#SVGID_13_);}
	.st52{clip-path:url(#SVGID_15_);}
	.st53{fill:none;stroke:#FFFFFF;stroke-width:2.9621;stroke-miterlimit:10;}
	.st54{clip-path:url(#SVGID_16_);fill:none;stroke:#FFFFFF;stroke-width:4.3621;stroke-linejoin:round;stroke-miterlimit:10;}
	.st55{fill:#E7E6E6;}
	.st56{fill:#44403E;}
	.st57{clip-path:url(#SVGID_19_);fill:url(#SVGID_20_);}
	.st58{fill:#DAE7EC;}
	.st59{opacity:0.1;fill:#13110C;}
	.st60{filter:url(#Adobe_OpacityMaskFilter);}
	.st61{mask:url(#SVGID_21_);}
	.st62{fill:#195A74;}
	.st63{clip-path:url(#SVGID_23_);fill:#EE7631;}
	.st64{fill:#4C4846;}
	.st65{fill:#ED6B06;}
	.st66{fill:#FFFBFA;stroke:#ED6C0C;stroke-width:4.3002;stroke-miterlimit:10;}
	.st67{fill-rule:evenodd;clip-rule:evenodd;fill:#FFFBFA;}
	.st68{opacity:0.5;}
	.st69{opacity:0.6;}
	.st70{fill-rule:evenodd;clip-rule:evenodd;fill:#D6E7F5;}
	.st71{fill-rule:evenodd;clip-rule:evenodd;fill:#EEF5F7;}
	.st72{fill:#C1DBE2;}
	.st73{fill:none;stroke:#1C566D;stroke-width:6.527;stroke-miterlimit:10;}
	.st74{fill-rule:evenodd;clip-rule:evenodd;fill:#ED6B06;}
	.st75{clip-path:url(#SVGID_25_);fill:none;stroke:#73B84E;stroke-width:1.6851;stroke-linejoin:round;stroke-miterlimit:10;}
	.st76{clip-path:url(#SVGID_27_);fill:none;stroke:#73B84E;stroke-width:1.6851;stroke-linejoin:round;stroke-miterlimit:10;}
	.st77{fill:url(#SVGID_28_);}
	.st78{fill:url(#SVGID_29_);}
	.st79{clip-path:url(#SVGID_31_);fill:none;stroke:#73B84E;stroke-width:1.4366;stroke-linejoin:round;stroke-miterlimit:10;}
	.st80{fill:#EC6610;}
	.st81{fill:#ED6E5C;}
	.st82{fill:none;stroke:#EC6614;stroke-width:5.2585;stroke-miterlimit:10;}
	.st83{fill:none;stroke:#EC6614;stroke-width:5.2585;stroke-miterlimit:10;stroke-dasharray:8.9228,8.9228;}
	.st84{fill:url(#SVGID_32_);}
	.st85{fill:url(#SVGID_33_);}
	.st86{fill:#CCE3F7;}
	.st87{opacity:0.31;fill:#47666E;}
	.st88{fill:#F6FBFE;}
	.st89{filter:url(#Adobe_OpacityMaskFilter_1_);}
	.st90{opacity:0.2;fill-rule:evenodd;clip-rule:evenodd;fill:#FFFFFF;}
	.st91{mask:url(#SVGID_34_);}
	.st92{fill-rule:evenodd;clip-rule:evenodd;fill:url(#SVGID_35_);}
	.st93{fill-rule:evenodd;clip-rule:evenodd;fill:url(#SVGID_36_);}
	.st94{fill-rule:evenodd;clip-rule:evenodd;fill:url(#SVGID_37_);}
	.st95{fill:#1B556C;stroke:#1B556C;stroke-width:2;stroke-linecap:round;stroke-miterlimit:10;}
	.st96{font-family:'SourceSansPro-SemiBold';}
	.st97{font-size:34.0886px;}
	.st98{font-family:'SourceSansPro-Light';}
	.st99{font-family:'SourceSansPro-Regular';}
	.st100{font-size:41px;}
	.st101{fill:none;stroke:#E5590F;stroke-miterlimit:10;}
	.st102{font-family:'SourceSansPro-Bold';}
	.st103{font-size:72.2245px;}
	.st104{font-size:103.3956px;}
	.st105{font-family:'SourceSansPro-Black';}
	.st106{font-size:54.8444px;}
	.st107{font-size:28.1235px;}
	.st108{font-size:31.1595px;}
	.st109{fill:#5C8591;}
	.st110{font-size:89.9232px;}
	.st111{fill:#E63912;}
	.st112{fill:#FCF5F6;stroke:#E63912;stroke-width:4.0757;stroke-miterlimit:10;}
	.st113{fill:url(#SVGID_38_);}
	.st114{fill-rule:evenodd;clip-rule:evenodd;fill:#1B556C;}
	.st115{fill:none;stroke:#DAE7EC;stroke-width:3.092;stroke-linecap:round;stroke-miterlimit:10;}
	.st116{fill-rule:evenodd;clip-rule:evenodd;fill:#C1DBE2;}
	.st117{fill:#F7FBFE;stroke:#7FA4D4;stroke-width:4.3002;stroke-miterlimit:10;}
	.st118{fill:#1D4E5F;}
	.st119{opacity:0.6;fill:#D6E7F5;}
	.st120{fill:none;stroke:#D6E7F5;stroke-width:8.2827;stroke-linecap:round;stroke-miterlimit:10;}
	.st121{fill:none;stroke:#1C566D;stroke-width:4.1414;stroke-miterlimit:10;}
	.st122{fill:#1B4E5F;}
	.st123{fill-rule:evenodd;clip-rule:evenodd;fill:#A1C1E7;}
	.st124{fill:#5086C5;}
	.st125{opacity:0.2;}
	.st126{opacity:0.2;fill:#1D617A;}
	.st127{fill:#F7FAF1;stroke:#59B031;stroke-width:4.3002;stroke-miterlimit:10;}
	.st128{clip-path:url(#SVGID_40_);fill:none;stroke:#F7FAF1;stroke-width:3.5588;stroke-linejoin:round;stroke-miterlimit:10;}
	.st129{fill:#DDEBCE;}
	.st130{fill:#C1DAA5;}
	.st131{fill:#4DA134;}
	.st132{fill:url(#SVGID_41_);}
	.st133{fill:url(#SVGID_42_);}
	.st134{fill:url(#SVGID_43_);}
	.st135{fill:url(#SVGID_44_);}
	.st136{fill:url(#SVGID_45_);}
	.st137{fill:url(#SVGID_46_);}
	.st138{fill:url(#SVGID_47_);}
	.st139{fill:url(#SVGID_48_);}
	.st140{fill:#519DA6;}
	.st141{fill-rule:evenodd;clip-rule:evenodd;fill:#B3D0ED;}
	.st142{fill-rule:evenodd;clip-rule:evenodd;fill:#CCE3F7;}
	.st143{fill-rule:evenodd;clip-rule:evenodd;fill:#5086C5;}
	.st144{clip-path:url(#SVGID_50_);}
	.st145{fill:#89CED8;}
	.st146{opacity:0.3;}
	.st147{clip-path:url(#SVGID_52_);}
	.st148{fill:#266F85;}
	.st149{fill:none;stroke:#EC6614;stroke-width:2.7448;stroke-linecap:round;stroke-miterlimit:10;}
	.st150{fill:none;stroke:#59B031;stroke-width:3.6597;stroke-linecap:round;stroke-miterlimit:10;}
	
		.st151{fill:none;stroke:#59B031;stroke-width:3.6597;stroke-linecap:round;stroke-miterlimit:10;stroke-dasharray:10.9013,10.9013;}
	.st152{fill:none;stroke:#59B031;stroke-width:3.6597;stroke-miterlimit:10;}
	.st153{fill:#FAFCF6;stroke:#73B84E;stroke-width:4.0757;stroke-miterlimit:10;}
</style>
<g>
	<circle class="st86" cx="283.6" cy="387.4" r="181.2"/>
	<path class="st87" d="M285.8,515.1c-62.7,0-120.3-18.3-165.3-48.9c29.3,60.5,91.4,102.3,163.1,102.3c70.1,0,130.8-39.8,161-98.1
		C400.6,498.5,345.5,515.1,285.8,515.1z"/>
	<path class="st8" d="M438.7,325.2c-1.5-1.8-1.7-7.7-5.3-4.4c0.3-3-0.9-10.1,4.4-9.4c5.8,0.7,3.1,7,4.5,10.2
		c1.6,3.8,6.8,4.1,9.8,6.2c2,1.4,3.3,3.6,4.4,5.3c-7.6-24.3-20.3-46.5-36.7-65.2c0,0.1,0,0.3,0,0.4c-3.8-0.3-7.3,4.9-6.6,8.1
		c0.1,0.5,1.7,1.5,1.9,2.6c0.2,1.2-0.8,1.7-0.9,2.6c-0.1,2.1-0.6,4.1,2.2,4.7c1.8-3.5,6,0.7,6.9,3c1.5,4.1-0.3,6.2,2.6,9.5
		c1.1,1.3,4.5,2.9,3.8,5.2c-0.7,2.3-2.4,1.8-4,1.2c-2.7-1-4.1-5.1-7.3-5.2c-2.1,5.2-0.1,12-1.8,17.6c-0.9,3.1-2.1,3.2,0.6,5.5
		c1,0.8,1.6-0.1,2.8,1.2c0.7,0.8,0.7,2.5,0.6,3.5c1.5-0.9,2.8-2.3,4.7-2.1c-2.8,2.4-2.4,7-4.4,10.1c-2.5,3.9-4.5,2.6-7.9,4.2
		c-5.9,2.7-2.9,8-3.5,12.4c-0.4,2.6-2.5,4.7-3.5,7.2c-1.4,3.5-2.3,7.1-2.4,10.9c-0.1,4.4,1.3,8.4,2.2,12.7
		c0.7,3.5,0.7,10.1,4.1,12.1c2.1,1.2,8.6,1,11.4,1.4c2.7,0.4,6-1,8.4,0.1c2.2,1.1,2,4.9,5,4c1.7-0.5,2.7-4.4,4.8-5.2
		c3.4-1.2,6,1.9,7,4.6c1.2,3.4-0.6,3.5-1.5,7.1c-0.7,2.8,0,5.8,0.9,8.5c1.9,5.4-0.2,3-2.2,8c1.4,0.4,2.9,0.5,4.3,0.5
		c0.1,1.9,0.5,4.7,0.1,6.6c-1.2,5.3-6.3,8.2-6.6,14.3c-0.2,5.6,2.3,12.3,1.3,17.8c-0.8,4-5.3,6.6-4.6,11.2c2.5-1.6,4.5-4.2,7.2-5.6
		c12.4-24.5,19.4-52.2,19.4-81.5c0-16.5-2.2-32.5-6.4-47.6c-3-1.4-5.8-3.3-8.2-6C447.1,330.4,441.6,328.6,438.7,325.2z"/>
	<path class="st8" d="M307.7,211.4c2.2,0.4,4.7,0.4,6.9,0.9c2.5,0.6,4.3,2.3,7,1.2c1.2-0.5,2.2-1.5,3-2.6c-13.2-3-26.9-4.7-41-4.7
		c-33.1,0-64.1,8.9-90.8,24.4c6.9,0.4,5.4,8.2,11.3,1.8c2.7-2.9,5.6-6.8,9-9.3c3.8-2.8,8.1-0.9,12.7-1c-1.5,1.1-10,7.2-9.1,9.2
		c1.3,2.8,6-0.6,4.2,4.7c-1.7,4.7-8.4,1.5-12.6,1.8c-3.2,0.2-5,2.4-8.5,2.6c-3.7,0.2-7.4-0.9-10.9-0.8c-5.7,0.2-9.4,3.5-12.9,7.5
		c-2,2.3-4.4,4.1-5.9,6.9c-1.6,3.1-1,7.1-2.5,9.8c-1.3,2.4-4.2,2.8-6.3,4.2c-2.5,1.7-5.7,4.7-7.6,7c-3.4,4-4.9,11.5-10.7,12.9
		c-0.8,6.1,8.4-2.4,11.2-1.2c1.4-1.9,2-4.3,4-5.7c2.2-1.5,5-1.1,7.4-2.7c4.5-2.9,3.1-9.3,8.7-10.3c4.6-0.9,9.7-1.8,10.8,3.3
		c0.6,2.5-0.4,2.3-0.5,4.7c-0.1,3.2-0.4,1.2,2,3.2c3.6,3,4.3,6.6,1.4,10.8c-1.4,2-2.2,1.7-3,4.3c-0.8,2.7-0.5,5.4-0.4,8.1
		c0.1,3-0.2,6-0.3,9c-0.2,5.1,1.1,6.9,5.1,10.1c3,2.4,6.3,4.2,7.8,8c1.4,3.3,1.1,7.2,2,10.6c0.9,3.5,9.7,10.9,8.7,4.6
		c-0.5-3.2-4.2-4-4.2-7.9c0-1.6,0.7-4,0.8-5.6c5-1.4,3.7,7.2,5,9.8c1.9,3.6,6.9,6,9.5,8.9c-2.4,1.1-6.5,3.5-5.2,6.9
		c1.7,4.2,7.1,1.3,10.1,1.3c6.5,0.2,13,4.5,18.3,8c5.1,3.3,7.1,5.3,13.5,4.8c4.1-0.3,7.8,0.3,11.5,2.3c3,1.6,4.5,3,6,5.9
		c2,3.8,2.9,5.2,6.3,7.8c2.2,1.7,3.4,3.6,5.9,3.4c1.7-0.1,2.9-2.6,5.5-1.8c4.9,1.5,3.5,7.8,1.9,10.6c-1.4,2.4-2.6,5.5-4.1,7.9
		c-1.9,3-7,4.2-7.5,8.2c-0.6,3.8,3.7,8.2,4.6,11.8c0.9,3.3,0.8,6.9,0.8,10.2c-2.2,3.1,10.7,14,13.2,16.1c3.5,3.1,8.6,7.1,10,11.8
		c0.6,1.9,0.2,4.9,0.4,6.9c0.4,4.2,0.5,8.6,0.3,12.9c-0.3,6.2-4.8,10.1-5.8,16c-0.9,4.8,0.8,9.7,0.1,14.4c-0.3,2.1-0.7,5.1-1.3,7.2
		c-0.5,2-1.5,2.1-2.4,3.5c-1.5,2.6-0.7,5.2,0.5,8.1c4-2.9,7.3,2.5,9.2,5.3c2.3,3.4,5.1,4.8,10,4.2c-1.9-1.6-5.1-6.7-4.5-9.5
		c1-4.1,6.9-7.5,9-10.9c2.2-3.7,1.6-7.2,6-8.9c1.3-0.5,2.7-0.2,4-0.8c1.6-0.6,2.4-2.1,3.9-2.8c4.2-2,5.1-1.5,6.9-6.1
		c2.1-5.6,3.9-12.7,9.3-16.3c2.1-1.4,4.4-1.3,6.7-2.3c2.5-1.1,3.3-2.8,5.3-4.2c3.3-2.3,5.4-4.2,8.1-7.2c2.9-3.3,5.1-6.9,7.2-10.8
		c1.3-2.4,1.9-4.7,4-6.6c0.9-0.8,2.2-1.2,3.1-2.1c3.7-3.7,5-9.5,8.2-13.5c1.8-2.3,3.6-3.5,4.5-6.2c-0.3-1-1-1.6-1.4-2.5
		c-0.8-1.4-2.7-2.7-3.6-4.2c-0.3-0.5-0.4-2.1-0.8-2.4c-2.6-2.8-9-4.3-12.6-4.4c-4.9-0.2-12.1-0.9-15.3-5.3
		c-2.4-3.3,1.7-7.9,0.1-11.4c-1.9-4.3-12.1-6.4-15.9-8.8c-2.7-1.6-4.5-4.1-7.1-5.8c-3.9-2.4-6.2-3.4-7.9-7.7c-1-2.6,0.5-3-2.6-4
		c-2.9-0.9-7.4,1.6-10.6,1.9c-2.4,0.2-5.1,0.7-7.4,0c-2.9-0.9-5-4.1-7.9-4.7c-2.7-0.5-8,0.8-10.4,2.4c-2.1,1.4-3.2,3.8-5.5,4.9
		c-3.3,1.5-3.1-0.5-6.3-0.8c-3.2-0.3-4.8,1.5-7.3-2.2c-3.3-4.9-2-14.9-9.8-15.4c-2.3-0.1-6.8,1.8-8.2-1.2
		c-2.1-4.4,5.5-10.2,4.4-14.9c-1.1-4.9-10.3,1.5-12.4,4.3c-1.3,1.7-2.4,6-5.2,6.3c-2.1,0.2-6.4-2.5-7.7-4.1
		c-2.2-2.7-2.4-7.9-2.7-11.2c-0.6-6.4,0.9-8.3,5.3-13.1c3.9-4.2,4.7-4.5,9.7-5.4c3.1-0.5,3-1.6,5.7-0.3c1.2,0.7,2,2.6,3.6,3.2
		c2.1-2.1,3.6-2.7,6.4-2.2c2,0.4,6.3,2.8,7.5,4.7c0.7,1.2,1.8,11.7,5.6,5.2c-2.2-1.8-1.6-4-2.5-6c-0.9-1.9-3-3.5-3.3-6
		c-0.4-2.9,2.2-9.1,5.5-9.7l-0.4-3.3c3.7-0.5,8.1-9.5,7.4-14c-0.4-2.2-2.8-2-1.5-5.2c1.5-3.7,4.1-1.8,7.2-2.5
		c3.3-0.7,2.7-2.8,4.9-4.4c2.5-1.8,3.6-0.4,5.7-0.3c3.9,0.2,9,1,9.3-4.4c2.4-0.3,4.5-1.1,6.9-0.1c0.3-4.3-0.6-7.3-4.3-9.8
		c-3.2-2.2-7.4-2.8-10.7-4.9c-2.1-1.4-3.7-3.3-5.7-4.8c-3.3-2.3-5.5-4.9-8.4-7.5c-3.8-3.3-7.4,0.9-12.3,0.2
		c-6.6-0.9-6.2-5.9-10.2-8.8c-0.5-0.3-1.8,0.1-2.4-0.2c-0.8-0.4-2.3-2.1-2.9-2.7c-2.1-2.2-4-5.5-4.3-8.8c7.3-4.2,9.1,5.8,12.1,9.4
		c1.4,1.6,6.8,2.7,2.6,5.3c2.9,0.2,5.5-0.2,8.3,0.4c1.3,0.3,2.4,1,3.8,1.1c0.3-2.3-0.5-4.5-1-6.6c-0.2-1,0.1-2-0.3-3
		c-0.6-1.4-2.1-2.1-2.7-3.3c-1.6-3.4,0.4-3.4-3.3-5.4c-2.5-1.4-5.5-2.4-8.2-3.6c-1.8-0.8-3.7-1.5-5.1-2.9c-0.6-0.6-4.7-5-5-5.7
		c-2.9-7.2,8.4-0.7,11,0c4.2,1,8.5,2.6,12.5,4.2c3.3,1.3,3.4,2,4.7,5.3c2.3,6,5.6,3.1,9.2,7.2c2.2,2.4,3.9,6.8,5.8,9.6
		c2.4,3.6,11.8,14.9,17.1,9.5c2.8-2.9-2.6-8-2.7-10.8c-0.1-3,1.9-4.9,4-6.5c3.5-2.8,4.3-3.9,0.2-7.2c-5.1-4.1-10.7-4.8-16.8-6.7
		c-6.6-2.1-8.3-5.9-11.7-11.2c2.2-0.4,4.5-0.6,6.8-0.8C303.7,211.1,305.7,211,307.7,211.4z M240.5,257.8c-0.9,2.3-2.4,1.6-3.9,2.7
		c-2.3,1.8,1.7,4.9,0.1,6.1c-0.6,0.4-3.7,0.2-4.4,0c-1.8-0.6-2.4-1.9-4.5-1.9c-2.8,0-5.6-0.5-5-4c0.3-1.6,1.9-3.3,1.2-5.1
		c-0.4-0.9-2.1-2.2-2.9-2.8c-0.7-0.5-1.6-0.4-2.3-0.8c-1.4-0.9-0.9-4.5,0.7-5.1c0.1,4.9,7.3,0.5,8.8,2.7c1.4,2.2-1.5,3.1,0.4,4.6
		c1.1,0.9,4,0.9,5.1,0.5c1.7-0.5,4.6-3.1,6.3-1.2C240.9,254.4,240.8,256.9,240.5,257.8z M263.8,249.2c1.8,0.5,1.5,1.4,2.4,2.8
		c1.1,1.6,2.9,1.5,4.1,2.6c2.4,2.2-1.4,5.2,0,7.9c1.2,2.4,15.1,6,6,8.9c-2.7,0.9-4.2-0.9-6.6-1.6c-2-0.6-5.9-0.2-7.7,0.8
		c-4.4,2.6,5.5,7.3-0.6,9.2c-1.2,0.4-5.3,0.1-5.7-1.4c-0.4-1.4,1.5-1.3,1.9-2.6c1.6-5.1-4.7-2-6.5-2.4c-2.5-0.6-1.7-5.1,0.3-6.1
		c1.1-0.5,3.8-0.3,4.9-0.3c1.9,0,3.9,0.3,5.8,0.1c0.9-3.7-4.7-5.6-7.6-6c-2.3-0.3-2.6-0.8-4.5-2.2c-2.3-1.7-3.3-1.2-1.7-4.3
		c1.4-2.7,3.7-4.1,6-5.9c1.1-0.5,1.9,0.6,3,0.7C259.5,249.9,261.7,248.6,263.8,249.2z"/>
	<path class="st8" d="M279.8,343.7c-2.1-0.7-9.4,1.9-6.4,4.1c2,1.5,6.9-0.4,9.4,0.2c2.6,0.6,5.6-0.3,8,0.6c1.8,0.7,2.8,2.4,4.8,2.9
		c2.4,0.6,3.7-0.4,1.5-2.3c-1.6-1.3-3.8-1.7-5.7-2.6c-1.4-0.6-2.7-1.9-4.1-2.3C285.4,343.9,281.2,345.6,279.8,343.7z"/>
	<path class="st8" d="M305.5,354.7c-1.8,1.1-3.5,1.7-4.1,4c-0.7,2.7,0.4,2.2,2.3,1.2c1.2-0.7,2.8-1.8,4.2-1.7c1.4,0.1,2.6,1.1,4,1.4
		c2.4,0.4,5.1,0.1,7-1.6c1.5-1.3,1.6-3-0.7-3.4c-1.8-0.3-4.7,0.6-6.5,0.8C309.5,355.5,306.5,355.6,305.5,354.7z"/>
	<path class="st8" d="M391.1,528.7c-4.1,2.9-6.7,6.7-11.6,8.8c-5.3,2.2-10.3,5.2-15.8,7.4c-5.4,2.1-11.4,5.6-17.1,7
		c-4.7,1.2-10-1.1-14.8-1c-5.1,0.1-9.8,1.2-14.6,2.4c-3.3,0.9-3.2,0.2-5.7-0.7c-1.9-0.7-1.8-0.8-4-1c-1.6-0.2-3.3,0-4.8-0.4
		c-0.1,2.3,4.9,6.9,6.8,8.3c-14.8,1.3-30.6-0.6-45.3-2.1c-4.3-0.5-6.9,1.4-11,2c-3.8,0.5-7.1-1.6-10.9-1.6c-4.6,0-6.7,0.9-8.6,3.8
		c15.9,4.5,32.6,7,49.9,7c44.2,0,84.6-15.8,116.1-42.1c0-0.6-0.1-1.2-0.1-1.7C397.2,525.7,393.3,527.2,391.1,528.7z"/>
	<g>
		<path class="st8" d="M108.1,389.2c0.7-1.7,1.2-4,0.8-5.9c-0.5-2-1.4-1.9-2.4-3.5c-2.6-4.5,1.3-5.1,1.3-8.9c0-2.2-4.6-7.5-1.6-9.8
			c1.4-1,6.4,1.5,8.9,0.4c-0.4-3.7-4-2.5-5.5-5c-2.2-3.7,1.4-4.5,2.6-6.1c3.6-5.3-1.5-8.1-2.8-12.4c-4.4,15.7-6.9,32.2-6.9,49.4
			c0,0.7,0,1.3,0,1.9C103.8,388.2,105.5,387.8,108.1,389.2z"/>
		<path class="st8" d="M114,337.8c1.8-0.6,1.1-5,1.4-6.2c0.9-3.4,3.5-7.8,5.3-10.6c3-4.5,1.7-6.1,1-11.6c-0.1-0.9-0.2-1.9-0.3-2.9
			c-4.4,8.8-8.2,18-11.1,27.6C111.4,335.6,112.8,338.2,114,337.8z"/>
	</g>
	<path class="st8" d="M110,367.6c-2.8,8.3,6.1,9.5,6.2,16.3c0.1,2.5-1.2,11.2,4.1,10.6c2.1-4.8-1.3-5.5-0.7-10
		c0.4-3,2.6-3.9-0.8-6.4c-0.9-0.7-2.6-0.7-3.3-1.5c-1-1-0.8-2.4-1.5-3.4C112.8,371.5,111,370.4,110,367.6z"/>
	<path class="st8" d="M110,396.2c-2.2,4.9-6.4,22.7,1.6,23.1c0.9,0,2.5-1.6,3.4-1c0.7,0.5,0.1,2.3,0.4,2.5c2.1,1.2,2.6,1.5,3.4-2.1
		c0.7-2.8-0.8-2.9-1.2-4.9c-0.4-1.7-0.2-3.2,0-5.1c-5.2-1.3,5.3-2.4,4.9-4.5c-0.3-1.6-8-1.1-9.1-0.8c-0.3-1.4,0-3,0.2-4.3
		C111.8,398.4,111.3,396.6,110,396.2z"/>
	<path class="st8" d="M136,412.4c-4.5,0.3-6.9-3.8-12.2-2.2c0,1.1-0.3,2.3-0.3,3.3c1.2-0.4,6.7-1.7,5.9,1.5
		c-0.7,2.7-5.6-0.7-4.7,3.2c1.4-0.2,3.5-1.2,4.9-1c2,0.3,2.7,1.3,4.6,1.7c2.5,0.5,2.1-0.7,4.7,1.2c2,1.4,4.1,3.7,4.8,5.9
		c1.4,4.7-0.7,6.6,5.4,7.4c3.2,0.4,9.9,3.8,9.7-1.4c3,1,7.7,10,11.7,9.1c5.1-1.1-4.8-9-4.7-9.9c2-0.2,6.4-2.1,8-3
		c1.7-1,3.1-0.8,2.6-4c-2.4-0.3-3.5,0.9-5.3,1.4c-2.1,0.5-4.4,0.5-6.7,0.3c-5.8-0.5-10.5-2.5-15-6.2c-2.4-2-4.5-3.6-7-5.5
		c-1.6-1.2-1.6-2-3.5-2.5C137.6,411.3,136.5,411.9,136,412.4z"/>
	<path class="st8" d="M110.7,424.1c3.2,0,6.7,0.4,9.9,0c1.1-0.1,2.4-1.9,3.6-0.7c0.5,0.5,0.1,3.3-0.3,3.8c-2,2.2-12.8,1.5-12.1-2.7"
		/>
	<path class="st8" d="M160.3,449.5c-0.3-5.7-2.5-4.9-5.1-8.6c-0.9,2.4-1.9,7.1-5.1,7.4c-4.7,0.5-5.5-6.5-8.3-8.4
		c-4-2.8-13.2-0.1-14.1,3.7c-3.7,1.5-4,3.2-5.5,6.4c-1,2-2.3,4.4-3.8,6.5c-0.6,0.8-1,1.4-1.5,1.9c3.5,8.2,7.6,16.1,12.2,23.6
		c0.4,0.1,0.8,0.2,1.3,0.2c4,0.3,6.1-4.1,9.3-3.7c2.3,0.3,4,4.2,5.9,5.8c5.2,4.4,14.1,7.6,16.2,14c1.2,3.9,2.8,5.6,5.2,8.9
		c1.7,2.3,1.4,6.5,3.9,7.9c0.2-3.8,0.4-7.2,1.4-10.9c1.2-4.5-0.1-8.2,2-12.2c2.1-4,5.4-7.3,5-12.2c-0.3-3.4-2.8-7.6-5.2-10.1
		C167.3,462.8,160.8,460.2,160.3,449.5z"/>
	<path class="st8" d="M206.1,488c-2.9,0.6-1.9,6.3-2.8,8.6c-1.2,3.3-2.3,2.9-5.8,3.8c-1.9,0.5-4.7,1-6.5,1.8
		c-3.2,1.5-3.5,4.1-4.4,7.3c4,0.3,6.2-4.3,9.8-5c3.1-0.6,5.6,0.7,8.7-0.6c8-3.5,6-11.3,7.1-17.7C210,485.8,208.4,487.2,206.1,488z"
		/>
	<path class="st8" d="M209.5,454.6c-1,2.4,0,8,3.5,4.6c1.6-1.6,1.5-5.5-1.6-5.3c0,0.5-0.2,0.6-0.4,1"/>
	<path class="st8" d="M235.5,460.4c-2.9,2.3,3.3,6.1,4.3,2.5C240.6,460.3,236.5,459.5,235.5,460.4"/>
	<path class="st8" d="M189.3,398c0.8,2.1,6.3,3.8,7.3,7.3c0.9,3.2,0.1,6.1,4.8,6.2c-0.1-2.3,1.1-5.4,0.1-7.4
		c-0.5-0.9-2.1-1.1-2.7-2.1c-0.7-1.1-0.2-2.3-0.6-3.3C197.1,396.7,188.2,391.8,189.3,398z"/>
	<path class="st87" d="M285.8,515.1c-62.7,0-120.3-18.3-165.3-48.9c29.3,60.5,91.4,102.3,163.1,102.3c70.1,0,130.8-39.8,161-98.1
		C400.6,498.5,345.5,515.1,285.8,515.1z"/>
</g>
<g>
	<circle class="st88" cx="264.9" cy="1273.3" r="165.4"/>
	<defs>
		<filter id="Adobe_OpacityMaskFilter" filterUnits="userSpaceOnUse" x="99.4" y="1107.8" width="330.9" height="330.9">
			<feColorMatrix  type="matrix" values="1 0 0 0 0  0 1 0 0 0  0 0 1 0 0  0 0 0 1 0"/>
		</filter>
	</defs>
	<mask maskUnits="userSpaceOnUse" x="99.4" y="1107.8" width="330.9" height="330.9" id="SVGID_1_">
		<g class="st60">
			<path class="st90" d="M293.3,1135.4c-3.4-3.2-4-3.4-4.7-5c-0.4-0.8-0.5-1.5-0.5-2.3c-0.1-0.8,0.2-2.1,0.8-3.8
				c-3.2,1.2-5.5,2.2-6.7,2.9c-2.9,1.6-5,3.3-6.4,4.5c-1.4,1.2-3.4,3-4.3,5c-0.3,0.6-1.6,2.5-1.6,5.9c0,1.9,0.5,3.7,1.5,5.4
				c1.9,4.4,6.8,7.5,12.5,7.5c3.2,0,6.2-1,8.5-2.7l0,0c3.2-2,5-4.6,5.3-7.7c0.2-1.8-0.2-4-1.2-5.7
				C295.2,1137.2,293.6,1135.6,293.3,1135.4z"/>
			<path class="st90" d="M293.3,1097.3c-3.4-3.2-4-3.4-4.7-5c-0.4-0.8-0.5-1.5-0.5-2.3c-0.1-0.8,0.2-2.1,0.8-3.8
				c-3.2,1.2-5.5,2.2-6.7,2.9c-2.9,1.6-5,3.3-6.4,4.5c-1.4,1.2-3.4,3-4.3,5c-0.3,0.6-1.6,2.5-1.6,5.9c0,1.9,0.5,3.7,1.5,5.4
				c1.9,4.4,6.8,7.5,12.5,7.5c3.2,0,6.2-1,8.5-2.7l0,0c3.2-2,5-4.6,5.3-7.7c0.2-1.8-0.2-4-1.2-5.7
				C295.2,1099.1,293.6,1097.5,293.3,1097.3z"/>
			<path class="st90" d="M293.3,1173.5c-3.4-3.2-4-3.4-4.7-5c-0.4-0.8-0.5-1.5-0.5-2.3c-0.1-0.8,0.2-2.1,0.8-3.8
				c-3.2,1.2-5.5,2.2-6.7,2.9c-2.9,1.6-5,3.3-6.4,4.5c-1.4,1.2-3.4,3-4.3,5c-0.3,0.6-1.6,2.5-1.6,5.9c0,1.9,0.5,3.7,1.5,5.4
				c1.9,4.4,6.8,7.5,12.5,7.5c3.2,0,6.2-1,8.5-2.7l0,0c3.2-2,5-4.6,5.3-7.7c0.2-1.8-0.2-4-1.2-5.7
				C295.2,1175.3,293.6,1173.7,293.3,1173.5z"/>
			<path class="st90" d="M293.3,1211.6c-3.4-3.2-4-3.4-4.7-5c-0.4-0.8-0.5-1.5-0.5-2.3c-0.1-0.8,0.2-2.1,0.8-3.8
				c-3.2,1.2-5.5,2.2-6.7,2.9c-2.9,1.6-5,3.3-6.4,4.5c-1.4,1.2-3.4,3-4.3,5c-0.3,0.6-1.6,2.5-1.6,5.9c0,1.9,0.5,3.7,1.5,5.4
				c1.9,4.4,6.8,7.5,12.5,7.5c3.2,0,6.2-1,8.5-2.7l0,0c3.2-2,5-4.6,5.3-7.7c0.2-1.8-0.2-4-1.2-5.7
				C295.2,1213.4,293.6,1211.9,293.3,1211.6z"/>
			<path class="st90" d="M293.3,1249.8c-3.4-3.2-4-3.4-4.7-5c-0.4-0.8-0.5-1.5-0.5-2.3c-0.1-0.8,0.2-2.1,0.8-3.8
				c-3.2,1.2-5.5,2.2-6.7,2.9c-2.9,1.6-5,3.3-6.4,4.5c-1.4,1.2-3.4,3-4.3,5c-0.3,0.6-1.6,2.5-1.6,5.9c0,1.9,0.5,3.7,1.5,5.4
				c1.9,4.4,6.8,7.5,12.5,7.5c3.2,0,6.2-1,8.5-2.7l0,0c3.2-2,5-4.6,5.3-7.7c0.2-1.8-0.2-4-1.2-5.7
				C295.2,1251.6,293.6,1250,293.3,1249.8z"/>
			<path class="st90" d="M293.3,1287.9c-3.4-3.2-4-3.4-4.7-5c-0.4-0.8-0.5-1.5-0.5-2.3c-0.1-0.8,0.2-2.1,0.8-3.8
				c-3.2,1.2-5.5,2.2-6.7,2.9c-2.9,1.6-5,3.3-6.4,4.5c-1.4,1.2-3.4,3-4.3,5c-0.3,0.6-1.6,2.5-1.6,5.9c0,1.9,0.5,3.7,1.5,5.4
				c1.9,4.4,6.8,7.5,12.5,7.5c3.2,0,6.2-1,8.5-2.7l0,0c3.2-2,5-4.6,5.3-7.7c0.2-1.8-0.2-4-1.2-5.7
				C295.2,1289.7,293.6,1288.1,293.3,1287.9z"/>
			<path class="st90" d="M293.3,1326c-3.4-3.2-4-3.4-4.7-5c-0.4-0.8-0.5-1.5-0.5-2.3c-0.1-0.8,0.2-2.1,0.8-3.8
				c-3.2,1.2-5.5,2.2-6.7,2.9c-2.9,1.6-5,3.3-6.4,4.5c-1.4,1.2-3.4,3-4.3,5c-0.3,0.6-1.6,2.5-1.6,5.9c0,1.9,0.5,3.7,1.5,5.4
				c1.9,4.4,6.8,7.5,12.5,7.5c3.2,0,6.2-1,8.5-2.7l0,0c3.2-2,5-4.6,5.3-7.7c0.2-1.8-0.2-4-1.2-5.7
				C295.2,1327.8,293.6,1326.2,293.3,1326z"/>
			<path class="st90" d="M293.3,1364.2c-3.4-3.2-4-3.4-4.7-5c-0.4-0.8-0.5-1.5-0.5-2.3c-0.1-0.8,0.2-2.1,0.8-3.8
				c-3.2,1.2-5.5,2.2-6.7,2.9c-2.9,1.6-5,3.3-6.4,4.5c-1.4,1.2-3.4,3-4.3,5c-0.3,0.6-1.6,2.5-1.6,5.9c0,1.9,0.5,3.7,1.5,5.4
				c1.9,4.4,6.8,7.5,12.5,7.5c3.2,0,6.2-1,8.5-2.7l0,0c3.2-2,5-4.6,5.3-7.7c0.2-1.8-0.2-4-1.2-5.7
				C295.2,1366,293.6,1364.4,293.3,1364.2z"/>
			<path class="st90" d="M293.3,1402.3c-3.4-3.2-4-3.4-4.7-5c-0.4-0.8-0.5-1.5-0.5-2.3c-0.1-0.8,0.2-2.1,0.8-3.8
				c-3.2,1.2-5.5,2.2-6.7,2.9c-2.9,1.6-5,3.3-6.4,4.5c-1.4,1.2-3.4,3-4.3,5c-0.3,0.6-1.6,2.5-1.6,5.9c0,1.9,0.5,3.7,1.5,5.4
				c1.9,4.4,6.8,7.5,12.5,7.5c3.2,0,6.2-1,8.5-2.7l0,0c3.2-2,5-4.6,5.3-7.7c0.2-1.8-0.2-4-1.2-5.7
				C295.2,1404.1,293.6,1402.5,293.3,1402.3z"/>
			<path class="st39" d="M251.4,1135.4c-3.4-3.2-4-3.4-4.7-5c-0.4-0.8-0.5-1.5-0.5-2.3c-0.1-0.8,0.2-2.1,0.8-3.8
				c-3.2,1.2-5.5,2.2-6.7,2.9c-2.9,1.6-5,3.3-6.4,4.5c-1.4,1.2-3.4,3-4.3,5c-0.3,0.6-1.6,2.5-1.6,5.9c0,1.9,0.5,3.7,1.5,5.4
				c1.9,4.4,6.8,7.5,12.5,7.5c3.2,0,6.2-1,8.5-2.7l0,0c3.2-2,5-4.6,5.3-7.7c0.2-1.8-0.2-4-1.2-5.7
				C253.2,1137.2,251.6,1135.6,251.4,1135.4z"/>
			<path class="st39" d="M251.4,1097.3c-3.4-3.2-4-3.4-4.7-5c-0.4-0.8-0.5-1.5-0.5-2.3c-0.1-0.8,0.2-2.1,0.8-3.8
				c-3.2,1.2-5.5,2.2-6.7,2.9c-2.9,1.6-5,3.3-6.4,4.5c-1.4,1.2-3.4,3-4.3,5c-0.3,0.6-1.6,2.5-1.6,5.9c0,1.9,0.5,3.7,1.5,5.4
				c1.9,4.4,6.8,7.5,12.5,7.5c3.2,0,6.2-1,8.5-2.7l0,0c3.2-2,5-4.6,5.3-7.7c0.2-1.8-0.2-4-1.2-5.7
				C253.2,1099.1,251.6,1097.5,251.4,1097.3z"/>
			<path class="st39" d="M251.4,1173.5c-3.4-3.2-4-3.4-4.7-5c-0.4-0.8-0.5-1.5-0.5-2.3c-0.1-0.8,0.2-2.1,0.8-3.8
				c-3.2,1.2-5.5,2.2-6.7,2.9c-2.9,1.6-5,3.3-6.4,4.5c-1.4,1.2-3.4,3-4.3,5c-0.3,0.6-1.6,2.5-1.6,5.9c0,1.9,0.5,3.7,1.5,5.4
				c1.9,4.4,6.8,7.5,12.5,7.5c3.2,0,6.2-1,8.5-2.7l0,0c3.2-2,5-4.6,5.3-7.7c0.2-1.8-0.2-4-1.2-5.7
				C253.2,1175.3,251.6,1173.7,251.4,1173.5z"/>
			<path class="st39" d="M251.4,1211.6c-3.4-3.2-4-3.4-4.7-5c-0.4-0.8-0.5-1.5-0.5-2.3c-0.1-0.8,0.2-2.1,0.8-3.8
				c-3.2,1.2-5.5,2.2-6.7,2.9c-2.9,1.6-5,3.3-6.4,4.5c-1.4,1.2-3.4,3-4.3,5c-0.3,0.6-1.6,2.5-1.6,5.9c0,1.9,0.5,3.7,1.5,5.4
				c1.9,4.4,6.8,7.5,12.5,7.5c3.2,0,6.2-1,8.5-2.7l0,0c3.2-2,5-4.6,5.3-7.7c0.2-1.8-0.2-4-1.2-5.7
				C253.2,1213.4,251.6,1211.9,251.4,1211.6z"/>
			<path class="st39" d="M251.4,1249.8c-3.4-3.2-4-3.4-4.7-5c-0.4-0.8-0.5-1.5-0.5-2.3c-0.1-0.8,0.2-2.1,0.8-3.8
				c-3.2,1.2-5.5,2.2-6.7,2.9c-2.9,1.6-5,3.3-6.4,4.5c-1.4,1.2-3.4,3-4.3,5c-0.3,0.6-1.6,2.5-1.6,5.9c0,1.9,0.5,3.7,1.5,5.4
				c1.9,4.4,6.8,7.5,12.5,7.5c3.2,0,6.2-1,8.5-2.7l0,0c3.2-2,5-4.6,5.3-7.7c0.2-1.8-0.2-4-1.2-5.7
				C253.2,1251.6,251.6,1250,251.4,1249.8z"/>
			<path class="st39" d="M251.4,1287.9c-3.4-3.2-4-3.4-4.7-5c-0.4-0.8-0.5-1.5-0.5-2.3c-0.1-0.8,0.2-2.1,0.8-3.8
				c-3.2,1.2-5.5,2.2-6.7,2.9c-2.9,1.6-5,3.3-6.4,4.5c-1.4,1.2-3.4,3-4.3,5c-0.3,0.6-1.6,2.5-1.6,5.9c0,1.9,0.5,3.7,1.5,5.4
				c1.9,4.4,6.8,7.5,12.5,7.5c3.2,0,6.2-1,8.5-2.7l0,0c3.2-2,5-4.6,5.3-7.7c0.2-1.8-0.2-4-1.2-5.7
				C253.2,1289.7,251.6,1288.1,251.4,1287.9z"/>
			<path class="st39" d="M251.4,1326c-3.4-3.2-4-3.4-4.7-5c-0.4-0.8-0.5-1.5-0.5-2.3c-0.1-0.8,0.2-2.1,0.8-3.8
				c-3.2,1.2-5.5,2.2-6.7,2.9c-2.9,1.6-5,3.3-6.4,4.5c-1.4,1.2-3.4,3-4.3,5c-0.3,0.6-1.6,2.5-1.6,5.9c0,1.9,0.5,3.7,1.5,5.4
				c1.9,4.4,6.8,7.5,12.5,7.5c3.2,0,6.2-1,8.5-2.7l0,0c3.2-2,5-4.6,5.3-7.7c0.2-1.8-0.2-4-1.2-5.7
				C253.2,1327.8,251.6,1326.2,251.4,1326z"/>
			<path class="st39" d="M251.4,1364.2c-3.4-3.2-4-3.4-4.7-5c-0.4-0.8-0.5-1.5-0.5-2.3c-0.1-0.8,0.2-2.1,0.8-3.8
				c-3.2,1.2-5.5,2.2-6.7,2.9c-2.9,1.6-5,3.3-6.4,4.5c-1.4,1.2-3.4,3-4.3,5c-0.3,0.6-1.6,2.5-1.6,5.9c0,1.9,0.5,3.7,1.5,5.4
				c1.9,4.4,6.8,7.5,12.5,7.5c3.2,0,6.2-1,8.5-2.7l0,0c3.2-2,5-4.6,5.3-7.7c0.2-1.8-0.2-4-1.2-5.7
				C253.2,1366,251.6,1364.4,251.4,1364.2z"/>
			<path class="st39" d="M251.4,1402.3c-3.4-3.2-4-3.4-4.7-5c-0.4-0.8-0.5-1.5-0.5-2.3c-0.1-0.8,0.2-2.1,0.8-3.8
				c-3.2,1.2-5.5,2.2-6.7,2.9c-2.9,1.6-5,3.3-6.4,4.5c-1.4,1.2-3.4,3-4.3,5c-0.3,0.6-1.6,2.5-1.6,5.9c0,1.9,0.5,3.7,1.5,5.4
				c1.9,4.4,6.8,7.5,12.5,7.5c3.2,0,6.2-1,8.5-2.7l0,0c3.2-2,5-4.6,5.3-7.7c0.2-1.8-0.2-4-1.2-5.7
				C253.2,1404.1,251.6,1402.5,251.4,1402.3z"/>
			<path class="st90" d="M293.3,1440.4c-3.4-3.2-4-3.4-4.7-5c-0.4-0.8-0.5-1.5-0.5-2.3c-0.1-0.8,0.2-2.1,0.8-3.8
				c-3.2,1.2-5.5,2.2-6.7,2.9c-2.9,1.6-5,3.3-6.4,4.5c-1.4,1.2-3.4,3-4.3,5c-0.3,0.6-1.6,2.5-1.6,5.9c0,1.9,0.5,3.7,1.5,5.4
				c1.9,4.4,6.8,7.5,12.5,7.5c3.2,0,6.2-1,8.5-2.7l0,0c3.2-2,5-4.6,5.3-7.7c0.2-1.8-0.2-4-1.2-5.7
				C295.2,1442.2,293.6,1440.6,293.3,1440.4z"/>
			<path class="st39" d="M251.4,1440.4c-3.4-3.2-4-3.4-4.7-5c-0.4-0.8-0.5-1.5-0.5-2.3c-0.1-0.8,0.2-2.1,0.8-3.8
				c-3.2,1.2-5.5,2.2-6.7,2.9c-2.9,1.6-5,3.3-6.4,4.5c-1.4,1.2-3.4,3-4.3,5c-0.3,0.6-1.6,2.5-1.6,5.9c0,1.9,0.5,3.7,1.5,5.4
				c1.9,4.4,6.8,7.5,12.5,7.5c3.2,0,6.2-1,8.5-2.7l0,0c3.2-2,5-4.6,5.3-7.7c0.2-1.8-0.2-4-1.2-5.7
				C253.2,1442.2,251.6,1440.6,251.4,1440.4z"/>
			<path class="st90" d="M339.1,1151c-3.4-3.2-4-3.4-4.7-5c-0.4-0.8-0.5-1.5-0.5-2.3c-0.1-0.8,0.2-2.1,0.8-3.8
				c-3.2,1.2-5.5,2.2-6.7,2.9c-2.9,1.6-5,3.3-6.4,4.5c-1.4,1.2-3.4,3-4.3,5c-0.3,0.6-1.6,2.5-1.6,5.9c0,1.9,0.5,3.7,1.5,5.4
				c1.9,4.4,6.8,7.5,12.5,7.5c3.2,0,6.2-1,8.5-2.7l0,0c3.2-2,5-4.6,5.3-7.7c0.2-1.8-0.2-4-1.2-5.7
				C341,1152.7,339.3,1151.2,339.1,1151z"/>
			<path class="st90" d="M339.1,1112.8c-3.4-3.2-4-3.4-4.7-5c-0.4-0.8-0.5-1.5-0.5-2.3c-0.1-0.8,0.2-2.1,0.8-3.8
				c-3.2,1.2-5.5,2.2-6.7,2.9c-2.9,1.6-5,3.3-6.4,4.5c-1.4,1.2-3.4,3-4.3,5c-0.3,0.6-1.6,2.5-1.6,5.9c0,1.9,0.5,3.7,1.5,5.4
				c1.9,4.4,6.8,7.5,12.5,7.5c3.2,0,6.2-1,8.5-2.7l0,0c3.2-2,5-4.6,5.3-7.7c0.2-1.8-0.2-4-1.2-5.7
				C341,1114.6,339.3,1113,339.1,1112.8z"/>
			<path class="st90" d="M339.1,1189.1c-3.4-3.2-4-3.4-4.7-5c-0.4-0.8-0.5-1.5-0.5-2.3c-0.1-0.8,0.2-2.1,0.8-3.8
				c-3.2,1.2-5.5,2.2-6.7,2.9c-2.9,1.6-5,3.3-6.4,4.5c-1.4,1.2-3.4,3-4.3,5c-0.3,0.6-1.6,2.5-1.6,5.9c0,1.9,0.5,3.7,1.5,5.4
				c1.9,4.4,6.8,7.5,12.5,7.5c3.2,0,6.2-1,8.5-2.7l0,0c3.2-2,5-4.6,5.3-7.7c0.2-1.8-0.2-4-1.2-5.7
				C341,1190.9,339.3,1189.3,339.1,1189.1z"/>
			<path class="st90" d="M339.1,1227.2c-3.4-3.2-4-3.4-4.7-5c-0.4-0.8-0.5-1.5-0.5-2.3c-0.1-0.8,0.2-2.1,0.8-3.8
				c-3.2,1.2-5.5,2.2-6.7,2.9c-2.9,1.6-5,3.3-6.4,4.5c-1.4,1.2-3.4,3-4.3,5c-0.3,0.6-1.6,2.5-1.6,5.9c0,1.9,0.5,3.7,1.5,5.4
				c1.9,4.4,6.8,7.5,12.5,7.5c3.2,0,6.2-1,8.5-2.7l0,0c3.2-2,5-4.6,5.3-7.7c0.2-1.8-0.2-4-1.2-5.7
				C341,1229,339.3,1227.4,339.1,1227.2z"/>
			<path class="st90" d="M339.1,1265.3c-3.4-3.2-4-3.4-4.7-5c-0.4-0.8-0.5-1.5-0.5-2.3c-0.1-0.8,0.2-2.1,0.8-3.8
				c-3.2,1.2-5.5,2.2-6.7,2.9c-2.9,1.6-5,3.3-6.4,4.5c-1.4,1.2-3.4,3-4.3,5c-0.3,0.6-1.6,2.5-1.6,5.9c0,1.9,0.5,3.7,1.5,5.4
				c1.9,4.4,6.8,7.5,12.5,7.5c3.2,0,6.2-1,8.5-2.7l0,0c3.2-2,5-4.6,5.3-7.7c0.2-1.8-0.2-4-1.2-5.7
				C341,1267.1,339.3,1265.6,339.1,1265.3z"/>
			<path class="st90" d="M339.1,1303.5c-3.4-3.2-4-3.4-4.7-5c-0.4-0.8-0.5-1.5-0.5-2.3c-0.1-0.8,0.2-2.1,0.8-3.8
				c-3.2,1.2-5.5,2.2-6.7,2.9c-2.9,1.6-5,3.3-6.4,4.5c-1.4,1.2-3.4,3-4.3,5c-0.3,0.6-1.6,2.5-1.6,5.9c0,1.9,0.5,3.7,1.5,5.4
				c1.9,4.4,6.8,7.5,12.5,7.5c3.2,0,6.2-1,8.5-2.7l0,0c3.2-2,5-4.6,5.3-7.7c0.2-1.8-0.2-4-1.2-5.7
				C341,1305.3,339.3,1303.7,339.1,1303.5z"/>
			<path class="st90" d="M339.1,1341.6c-3.4-3.2-4-3.4-4.7-5c-0.4-0.8-0.5-1.5-0.5-2.3c-0.1-0.8,0.2-2.1,0.8-3.8
				c-3.2,1.2-5.5,2.2-6.7,2.9c-2.9,1.6-5,3.3-6.4,4.5c-1.4,1.2-3.4,3-4.3,5c-0.3,0.6-1.6,2.5-1.6,5.9c0,1.9,0.5,3.7,1.5,5.4
				c1.9,4.4,6.8,7.5,12.5,7.5c3.2,0,6.2-1,8.5-2.7l0,0c3.2-2,5-4.6,5.3-7.7c0.2-1.8-0.2-4-1.2-5.7
				C341,1343.4,339.3,1341.8,339.1,1341.6z"/>
			<path class="st90" d="M339.1,1379.7c-3.4-3.2-4-3.4-4.7-5c-0.4-0.8-0.5-1.5-0.5-2.3c-0.1-0.8,0.2-2.1,0.8-3.8
				c-3.2,1.2-5.5,2.2-6.7,2.9c-2.9,1.6-5,3.3-6.4,4.5c-1.4,1.2-3.4,3-4.3,5c-0.3,0.6-1.6,2.5-1.6,5.9c0,1.9,0.5,3.7,1.5,5.4
				c1.9,4.4,6.8,7.5,12.5,7.5c3.2,0,6.2-1,8.5-2.7l0,0c3.2-2,5-4.6,5.3-7.7c0.2-1.8-0.2-4-1.2-5.7
				C341,1381.5,339.3,1379.9,339.1,1379.7z"/>
			<path class="st90" d="M339.1,1417.9c-3.4-3.2-4-3.4-4.7-5c-0.4-0.8-0.5-1.5-0.5-2.3c-0.1-0.8,0.2-2.1,0.8-3.8
				c-3.2,1.2-5.5,2.2-6.7,2.9c-2.9,1.6-5,3.3-6.4,4.5c-1.4,1.2-3.4,3-4.3,5c-0.3,0.6-1.6,2.5-1.6,5.9c0,1.9,0.5,3.7,1.5,5.4
				c1.9,4.4,6.8,7.5,12.5,7.5c3.2,0,6.2-1,8.5-2.7l0,0c3.2-2,5-4.6,5.3-7.7c0.2-1.8-0.2-4-1.2-5.7
				C341,1419.7,339.3,1418.1,339.1,1417.9z"/>
			<path class="st39" d="M206.7,1151c-3.4-3.2-4-3.4-4.7-5c-0.4-0.8-0.5-1.5-0.5-2.3c-0.1-0.8,0.2-2.1,0.8-3.8
				c-3.2,1.2-5.5,2.2-6.7,2.9c-2.9,1.6-5,3.3-6.4,4.5c-1.4,1.2-3.4,3-4.3,5c-0.3,0.6-1.6,2.5-1.6,5.9c0,1.9,0.5,3.7,1.5,5.4
				c1.9,4.4,6.8,7.5,12.5,7.5c3.2,0,6.2-1,8.5-2.7l0,0c3.2-2,5-4.6,5.3-7.7c0.2-1.8-0.2-4-1.2-5.7
				C208.6,1152.7,207,1151.2,206.7,1151z"/>
			<path class="st39" d="M206.7,1112.8c-3.4-3.2-4-3.4-4.7-5c-0.4-0.8-0.5-1.5-0.5-2.3c-0.1-0.8,0.2-2.1,0.8-3.8
				c-3.2,1.2-5.5,2.2-6.7,2.9c-2.9,1.6-5,3.3-6.4,4.5c-1.4,1.2-3.4,3-4.3,5c-0.3,0.6-1.6,2.5-1.6,5.9c0,1.9,0.5,3.7,1.5,5.4
				c1.9,4.4,6.8,7.5,12.5,7.5c3.2,0,6.2-1,8.5-2.7l0,0c3.2-2,5-4.6,5.3-7.7c0.2-1.8-0.2-4-1.2-5.7
				C208.6,1114.6,207,1113,206.7,1112.8z"/>
			<path class="st39" d="M206.7,1189.1c-3.4-3.2-4-3.4-4.7-5c-0.4-0.8-0.5-1.5-0.5-2.3c-0.1-0.8,0.2-2.1,0.8-3.8
				c-3.2,1.2-5.5,2.2-6.7,2.9c-2.9,1.6-5,3.3-6.4,4.5c-1.4,1.2-3.4,3-4.3,5c-0.3,0.6-1.6,2.5-1.6,5.9c0,1.9,0.5,3.7,1.5,5.4
				c1.9,4.4,6.8,7.5,12.5,7.5c3.2,0,6.2-1,8.5-2.7l0,0c3.2-2,5-4.6,5.3-7.7c0.2-1.8-0.2-4-1.2-5.7
				C208.6,1190.9,207,1189.3,206.7,1189.1z"/>
			<path class="st39" d="M206.7,1227.2c-3.4-3.2-4-3.4-4.7-5c-0.4-0.8-0.5-1.5-0.5-2.3c-0.1-0.8,0.2-2.1,0.8-3.8
				c-3.2,1.2-5.5,2.2-6.7,2.9c-2.9,1.6-5,3.3-6.4,4.5c-1.4,1.2-3.4,3-4.3,5c-0.3,0.6-1.6,2.5-1.6,5.9c0,1.9,0.5,3.7,1.5,5.4
				c1.9,4.4,6.8,7.5,12.5,7.5c3.2,0,6.2-1,8.5-2.7l0,0c3.2-2,5-4.6,5.3-7.7c0.2-1.8-0.2-4-1.2-5.7
				C208.6,1229,207,1227.4,206.7,1227.2z"/>
			<path class="st39" d="M206.7,1265.3c-3.4-3.2-4-3.4-4.7-5c-0.4-0.8-0.5-1.5-0.5-2.3c-0.1-0.8,0.2-2.1,0.8-3.8
				c-3.2,1.2-5.5,2.2-6.7,2.9c-2.9,1.6-5,3.3-6.4,4.5c-1.4,1.2-3.4,3-4.3,5c-0.3,0.6-1.6,2.5-1.6,5.9c0,1.9,0.5,3.7,1.5,5.4
				c1.9,4.4,6.8,7.5,12.5,7.5c3.2,0,6.2-1,8.5-2.7l0,0c3.2-2,5-4.6,5.3-7.7c0.2-1.8-0.2-4-1.2-5.7
				C208.6,1267.1,207,1265.6,206.7,1265.3z"/>
			<path class="st39" d="M206.7,1303.5c-3.4-3.2-4-3.4-4.7-5c-0.4-0.8-0.5-1.5-0.5-2.3c-0.1-0.8,0.2-2.1,0.8-3.8
				c-3.2,1.2-5.5,2.2-6.7,2.9c-2.9,1.6-5,3.3-6.4,4.5c-1.4,1.2-3.4,3-4.3,5c-0.3,0.6-1.6,2.5-1.6,5.9c0,1.9,0.5,3.7,1.5,5.4
				c1.9,4.4,6.8,7.5,12.5,7.5c3.2,0,6.2-1,8.5-2.7l0,0c3.2-2,5-4.6,5.3-7.7c0.2-1.8-0.2-4-1.2-5.7
				C208.6,1305.3,207,1303.7,206.7,1303.5z"/>
			<path class="st39" d="M206.7,1341.6c-3.4-3.2-4-3.4-4.7-5c-0.4-0.8-0.5-1.5-0.5-2.3c-0.1-0.8,0.2-2.1,0.8-3.8
				c-3.2,1.2-5.5,2.2-6.7,2.9c-2.9,1.6-5,3.3-6.4,4.5c-1.4,1.2-3.4,3-4.3,5c-0.3,0.6-1.6,2.5-1.6,5.9c0,1.9,0.5,3.7,1.5,5.4
				c1.9,4.4,6.8,7.5,12.5,7.5c3.2,0,6.2-1,8.5-2.7l0,0c3.2-2,5-4.6,5.3-7.7c0.2-1.8-0.2-4-1.2-5.7
				C208.6,1343.4,207,1341.8,206.7,1341.6z"/>
			<path class="st39" d="M206.7,1379.7c-3.4-3.2-4-3.4-4.7-5c-0.4-0.8-0.5-1.5-0.5-2.3c-0.1-0.8,0.2-2.1,0.8-3.8
				c-3.2,1.2-5.5,2.2-6.7,2.9c-2.9,1.6-5,3.3-6.4,4.5c-1.4,1.2-3.4,3-4.3,5c-0.3,0.6-1.6,2.5-1.6,5.9c0,1.9,0.5,3.7,1.5,5.4
				c1.9,4.4,6.8,7.5,12.5,7.5c3.2,0,6.2-1,8.5-2.7l0,0c3.2-2,5-4.6,5.3-7.7c0.2-1.8-0.2-4-1.2-5.7
				C208.6,1381.5,207,1379.9,206.7,1379.7z"/>
			<path class="st39" d="M206.7,1417.9c-3.4-3.2-4-3.4-4.7-5c-0.4-0.8-0.5-1.5-0.5-2.3c-0.1-0.8,0.2-2.1,0.8-3.8
				c-3.2,1.2-5.5,2.2-6.7,2.9c-2.9,1.6-5,3.3-6.4,4.5c-1.4,1.2-3.4,3-4.3,5c-0.3,0.6-1.6,2.5-1.6,5.9c0,1.9,0.5,3.7,1.5,5.4
				c1.9,4.4,6.8,7.5,12.5,7.5c3.2,0,6.2-1,8.5-2.7l0,0c3.2-2,5-4.6,5.3-7.7c0.2-1.8-0.2-4-1.2-5.7
				C208.6,1419.7,207,1418.1,206.7,1417.9z"/>
			<path class="st90" d="M382.7,1182.3c-3.4-3.2-4-3.4-4.7-5c-0.4-0.8-0.5-1.5-0.5-2.3c-0.1-0.8,0.2-2.1,0.8-3.8
				c-3.2,1.2-5.5,2.2-6.7,2.9c-2.9,1.6-5,3.3-6.4,4.5c-1.4,1.2-3.4,3-4.3,5c-0.3,0.6-1.6,2.5-1.6,5.9c0,1.9,0.5,3.7,1.5,5.4
				c1.9,4.4,6.8,7.5,12.5,7.5c3.2,0,6.2-1,8.5-2.7l0,0c3.2-2,5-4.6,5.3-7.7c0.2-1.8-0.2-4-1.2-5.7
				C384.5,1184.1,382.9,1182.5,382.7,1182.3z"/>
			<path class="st90" d="M382.7,1144.1c-3.4-3.2-4-3.4-4.7-5c-0.4-0.8-0.5-1.5-0.5-2.3c-0.1-0.8,0.2-2.1,0.8-3.8
				c-3.2,1.2-5.5,2.2-6.7,2.9c-2.9,1.6-5,3.3-6.4,4.5c-1.4,1.2-3.4,3-4.3,5c-0.3,0.6-1.6,2.5-1.6,5.9c0,1.9,0.5,3.7,1.5,5.4
				c1.9,4.4,6.8,7.5,12.5,7.5c3.2,0,6.2-1,8.5-2.7l0,0c3.2-2,5-4.6,5.3-7.7c0.2-1.8-0.2-4-1.2-5.7
				C384.5,1145.9,382.9,1144.4,382.7,1144.1z"/>
			<path class="st90" d="M382.7,1220.4c-3.4-3.2-4-3.4-4.7-5c-0.4-0.8-0.5-1.5-0.5-2.3c-0.1-0.8,0.2-2.1,0.8-3.8
				c-3.2,1.2-5.5,2.2-6.7,2.9c-2.9,1.6-5,3.3-6.4,4.5c-1.4,1.2-3.4,3-4.3,5c-0.3,0.6-1.6,2.5-1.6,5.9c0,1.9,0.5,3.7,1.5,5.4
				c1.9,4.4,6.8,7.5,12.5,7.5c3.2,0,6.2-1,8.5-2.7l0,0c3.2-2,5-4.6,5.3-7.7c0.2-1.8-0.2-4-1.2-5.7
				C384.5,1222.2,382.9,1220.6,382.7,1220.4z"/>
			<path class="st90" d="M382.7,1258.5c-3.4-3.2-4-3.4-4.7-5c-0.4-0.8-0.5-1.5-0.5-2.3c-0.1-0.8,0.2-2.1,0.8-3.8
				c-3.2,1.2-5.5,2.2-6.7,2.9c-2.9,1.6-5,3.3-6.4,4.5c-1.4,1.2-3.4,3-4.3,5c-0.3,0.6-1.6,2.5-1.6,5.9c0,1.9,0.5,3.7,1.5,5.4
				c1.9,4.4,6.8,7.5,12.5,7.5c3.2,0,6.2-1,8.5-2.7l0,0c3.2-2,5-4.6,5.3-7.7c0.2-1.8-0.2-4-1.2-5.7
				C384.5,1260.3,382.9,1258.7,382.7,1258.5z"/>
			<path class="st90" d="M382.7,1296.7c-3.4-3.2-4-3.4-4.7-5c-0.4-0.8-0.5-1.5-0.5-2.3c-0.1-0.8,0.2-2.1,0.8-3.8
				c-3.2,1.2-5.5,2.2-6.7,2.9c-2.9,1.6-5,3.3-6.4,4.5c-1.4,1.2-3.4,3-4.3,5c-0.3,0.6-1.6,2.5-1.6,5.9c0,1.9,0.5,3.7,1.5,5.4
				c1.9,4.4,6.8,7.5,12.5,7.5c3.2,0,6.2-1,8.5-2.7l0,0c3.2-2,5-4.6,5.3-7.7c0.2-1.8-0.2-4-1.2-5.7
				C384.5,1298.5,382.9,1296.9,382.7,1296.7z"/>
			<path class="st90" d="M420.6,1244.5c-3.4-3.2-4-3.4-4.7-5c-0.4-0.8-0.5-1.5-0.5-2.3c-0.1-0.8,0.2-2.1,0.8-3.8
				c-3.2,1.2-5.5,2.2-6.7,2.9c-2.9,1.6-5,3.3-6.4,4.5c-1.4,1.2-3.4,3-4.3,5c-0.3,0.6-1.6,2.5-1.6,5.9c0,1.9,0.5,3.7,1.5,5.4
				c1.9,4.4,6.8,7.5,12.5,7.5c3.2,0,6.2-1,8.5-2.7l0,0c3.2-2,5-4.6,5.3-7.7c0.2-1.8-0.2-4-1.2-5.7
				C422.5,1246.3,420.9,1244.7,420.6,1244.5z"/>
			<path class="st90" d="M420.6,1200.8c-3.4-3.2-4-3.4-4.7-5c-0.4-0.8-0.5-1.5-0.5-2.3c-0.1-0.8,0.2-2.1,0.8-3.8
				c-3.2,1.2-5.5,2.2-6.7,2.9c-2.9,1.6-5,3.3-6.4,4.5c-1.4,1.2-3.4,3-4.3,5c-0.3,0.6-1.6,2.5-1.6,5.9c0,1.9,0.5,3.7,1.5,5.4
				c1.9,4.4,6.8,7.5,12.5,7.5c3.2,0,6.2-1,8.5-2.7l0,0c3.2-2,5-4.6,5.3-7.7c0.2-1.8-0.2-4-1.2-5.7
				C422.5,1202.6,420.9,1201,420.6,1200.8z"/>
			<path class="st90" d="M420.6,1282.6c-3.4-3.2-4-3.4-4.7-5c-0.4-0.8-0.5-1.5-0.5-2.3c-0.1-0.8,0.2-2.1,0.8-3.8
				c-3.2,1.2-5.5,2.2-6.7,2.9c-2.9,1.6-5,3.3-6.4,4.5c-1.4,1.2-3.4,3-4.3,5c-0.3,0.6-1.6,2.5-1.6,5.9c0,1.9,0.5,3.7,1.5,5.4
				c1.9,4.4,6.8,7.5,12.5,7.5c3.2,0,6.2-1,8.5-2.7l0,0c3.2-2,5-4.6,5.3-7.7c0.2-1.8-0.2-4-1.2-5.7
				C422.5,1284.4,420.9,1282.8,420.6,1282.6z"/>
			<path class="st90" d="M420.6,1329.5c-3.4-3.2-4-3.4-4.7-5c-0.4-0.8-0.5-1.5-0.5-2.3c-0.1-0.8,0.2-2.1,0.8-3.8
				c-3.2,1.2-5.5,2.2-6.7,2.9c-2.9,1.6-5,3.3-6.4,4.5c-1.4,1.2-3.4,3-4.3,5c-0.3,0.6-1.6,2.5-1.6,5.9c0,1.9,0.5,3.7,1.5,5.4
				c1.9,4.4,6.8,7.5,12.5,7.5c3.2,0,6.2-1,8.5-2.7l0,0c3.2-2,5-4.6,5.3-7.7c0.2-1.8-0.2-4-1.2-5.7
				C422.5,1331.3,420.9,1329.7,420.6,1329.5z"/>
			<path class="st39" d="M127.3,1244.5c-3.4-3.2-4-3.4-4.7-5c-0.4-0.8-0.5-1.5-0.5-2.3c-0.1-0.8,0.2-2.1,0.8-3.8
				c-3.2,1.2-5.5,2.2-6.7,2.9c-2.9,1.6-5,3.3-6.4,4.5c-1.4,1.2-3.4,3-4.3,5c-0.3,0.6-1.6,2.5-1.6,5.9c0,1.9,0.5,3.7,1.5,5.4
				c1.9,4.4,6.8,7.5,12.5,7.5c3.2,0,6.2-1,8.5-2.7l0,0c3.2-2,5-4.6,5.3-7.7c0.2-1.8-0.2-4-1.2-5.7
				C129.2,1246.3,127.5,1244.7,127.3,1244.5z"/>
			<path class="st39" d="M127.3,1282.6c-3.4-3.2-4-3.4-4.7-5c-0.4-0.8-0.5-1.5-0.5-2.3c-0.1-0.8,0.2-2.1,0.8-3.8
				c-3.2,1.2-5.5,2.2-6.7,2.9c-2.9,1.6-5,3.3-6.4,4.5c-1.4,1.2-3.4,3-4.3,5c-0.3,0.6-1.6,2.5-1.6,5.9c0,1.9,0.5,3.7,1.5,5.4
				c1.9,4.4,6.8,7.5,12.5,7.5c3.2,0,6.2-1,8.5-2.7l0,0c3.2-2,5-4.6,5.3-7.7c0.2-1.8-0.2-4-1.2-5.7
				C129.2,1284.4,127.5,1282.8,127.3,1282.6z"/>
			<path class="st90" d="M382.7,1334.8c-3.4-3.2-4-3.4-4.7-5c-0.4-0.8-0.5-1.5-0.5-2.3c-0.1-0.8,0.2-2.1,0.8-3.8
				c-3.2,1.2-5.5,2.2-6.7,2.9c-2.9,1.6-5,3.3-6.4,4.5c-1.4,1.2-3.4,3-4.3,5c-0.3,0.6-1.6,2.5-1.6,5.9c0,1.9,0.5,3.7,1.5,5.4
				c1.9,4.4,6.8,7.5,12.5,7.5c3.2,0,6.2-1,8.5-2.7l0,0c3.2-2,5-4.6,5.3-7.7c0.2-1.8-0.2-4-1.2-5.7
				C384.5,1336.6,382.9,1335,382.7,1334.8z"/>
			<path class="st90" d="M382.7,1372.9c-3.4-3.2-4-3.4-4.7-5c-0.4-0.8-0.5-1.5-0.5-2.3c-0.1-0.8,0.2-2.1,0.8-3.8
				c-3.2,1.2-5.5,2.2-6.7,2.9c-2.9,1.6-5,3.3-6.4,4.5c-1.4,1.2-3.4,3-4.3,5c-0.3,0.6-1.6,2.5-1.6,5.9c0,1.9,0.5,3.7,1.5,5.4
				c1.9,4.4,6.8,7.5,12.5,7.5c3.2,0,6.2-1,8.5-2.7l0,0c3.2-2,5-4.6,5.3-7.7c0.2-1.8-0.2-4-1.2-5.7
				C384.5,1374.7,382.9,1373.1,382.7,1372.9z"/>
			<path class="st39" d="M167.3,1182.3c-3.4-3.2-4-3.4-4.7-5c-0.4-0.8-0.5-1.5-0.5-2.3c-0.1-0.8,0.2-2.1,0.8-3.8
				c-3.2,1.2-5.5,2.2-6.7,2.9c-2.9,1.6-5,3.3-6.4,4.5c-1.4,1.2-3.4,3-4.3,5c-0.3,0.6-1.6,2.5-1.6,5.9c0,1.9,0.5,3.7,1.5,5.4
				c1.9,4.4,6.8,7.5,12.5,7.5c3.2,0,6.2-1,8.5-2.7l0,0c3.2-2,5-4.6,5.3-7.7c0.2-1.8-0.2-4-1.2-5.7
				C169.1,1184.1,167.5,1182.5,167.3,1182.3z"/>
			<path class="st39" d="M167.3,1144.1c-3.4-3.2-4-3.4-4.7-5c-0.4-0.8-0.5-1.5-0.5-2.3c-0.1-0.8,0.2-2.1,0.8-3.8
				c-3.2,1.2-5.5,2.2-6.7,2.9c-2.9,1.6-5,3.3-6.4,4.5c-1.4,1.2-3.4,3-4.3,5c-0.3,0.6-1.6,2.5-1.6,5.9c0,1.9,0.5,3.7,1.5,5.4
				c1.9,4.4,6.8,7.5,12.5,7.5c3.2,0,6.2-1,8.5-2.7l0,0c3.2-2,5-4.6,5.3-7.7c0.2-1.8-0.2-4-1.2-5.7
				C169.1,1145.9,167.5,1144.4,167.3,1144.1z"/>
			<path class="st39" d="M167.3,1220.4c-3.4-3.2-4-3.4-4.7-5c-0.4-0.8-0.5-1.5-0.5-2.3c-0.1-0.8,0.2-2.1,0.8-3.8
				c-3.2,1.2-5.5,2.2-6.7,2.9c-2.9,1.6-5,3.3-6.4,4.5c-1.4,1.2-3.4,3-4.3,5c-0.3,0.6-1.6,2.5-1.6,5.9c0,1.9,0.5,3.7,1.5,5.4
				c1.9,4.4,6.8,7.5,12.5,7.5c3.2,0,6.2-1,8.5-2.7l0,0c3.2-2,5-4.6,5.3-7.7c0.2-1.8-0.2-4-1.2-5.7
				C169.1,1222.2,167.5,1220.6,167.3,1220.4z"/>
			<path class="st39" d="M132.1,1204.8c-3.4-3.2-4-3.4-4.7-5c-0.4-0.8-0.5-1.5-0.5-2.3c-0.1-0.8,0.2-2.1,0.8-3.8
				c-3.2,1.2-5.5,2.2-6.7,2.9c-2.9,1.6-5,3.3-6.4,4.5c-1.4,1.2-3.4,3-4.3,5c-0.3,0.6-1.6,2.5-1.6,5.9c0,1.9,0.5,3.7,1.5,5.4
				c1.9,4.4,6.8,7.5,12.5,7.5c3.2,0,6.2-1,8.5-2.7l0,0c3.2-2,5-4.6,5.3-7.7c0.2-1.8-0.2-4-1.2-5.7
				C134,1206.6,132.4,1205,132.1,1204.8z"/>
			<path class="st39" d="M167.3,1258.5c-3.4-3.2-4-3.4-4.7-5c-0.4-0.8-0.5-1.5-0.5-2.3c-0.1-0.8,0.2-2.1,0.8-3.8
				c-3.2,1.2-5.5,2.2-6.7,2.9c-2.9,1.6-5,3.3-6.4,4.5c-1.4,1.2-3.4,3-4.3,5c-0.3,0.6-1.6,2.5-1.6,5.9c0,1.9,0.5,3.7,1.5,5.4
				c1.9,4.4,6.8,7.5,12.5,7.5c3.2,0,6.2-1,8.5-2.7l0,0c3.2-2,5-4.6,5.3-7.7c0.2-1.8-0.2-4-1.2-5.7
				C169.1,1260.3,167.5,1258.7,167.3,1258.5z"/>
			<path class="st39" d="M167.3,1296.7c-3.4-3.2-4-3.4-4.7-5c-0.4-0.8-0.5-1.5-0.5-2.3c-0.1-0.8,0.2-2.1,0.8-3.8
				c-3.2,1.2-5.5,2.2-6.7,2.9c-2.9,1.6-5,3.3-6.4,4.5c-1.4,1.2-3.4,3-4.3,5c-0.3,0.6-1.6,2.5-1.6,5.9c0,1.9,0.5,3.7,1.5,5.4
				c1.9,4.4,6.8,7.5,12.5,7.5c3.2,0,6.2-1,8.5-2.7l0,0c3.2-2,5-4.6,5.3-7.7c0.2-1.8-0.2-4-1.2-5.7
				C169.1,1298.5,167.5,1296.9,167.3,1296.7z"/>
			<path class="st39" d="M167.3,1334.8c-3.4-3.2-4-3.4-4.7-5c-0.4-0.8-0.5-1.5-0.5-2.3c-0.1-0.8,0.2-2.1,0.8-3.8
				c-3.2,1.2-5.5,2.2-6.7,2.9c-2.9,1.6-5,3.3-6.4,4.5c-1.4,1.2-3.4,3-4.3,5c-0.3,0.6-1.6,2.5-1.6,5.9c0,1.9,0.5,3.7,1.5,5.4
				c1.9,4.4,6.8,7.5,12.5,7.5c3.2,0,6.2-1,8.5-2.7l0,0c3.2-2,5-4.6,5.3-7.7c0.2-1.8-0.2-4-1.2-5.7
				C169.1,1336.6,167.5,1335,167.3,1334.8z"/>
			<path class="st39" d="M167.3,1372.9c-3.4-3.2-4-3.4-4.7-5c-0.4-0.8-0.5-1.5-0.5-2.3c-0.1-0.8,0.2-2.1,0.8-3.8
				c-3.2,1.2-5.5,2.2-6.7,2.9c-2.9,1.6-5,3.3-6.4,4.5c-1.4,1.2-3.4,3-4.3,5c-0.3,0.6-1.6,2.5-1.6,5.9c0,1.9,0.5,3.7,1.5,5.4
				c1.9,4.4,6.8,7.5,12.5,7.5c3.2,0,6.2-1,8.5-2.7l0,0c3.2-2,5-4.6,5.3-7.7c0.2-1.8-0.2-4-1.2-5.7
				C169.1,1374.7,167.5,1373.1,167.3,1372.9z"/>
			<path class="st39" d="M129.1,1323.6c-3.4-3.2-4-3.4-4.7-5c-0.4-0.8-0.5-1.5-0.5-2.3c-0.1-0.8,0.2-2.1,0.8-3.8
				c-3.2,1.2-5.5,2.2-6.7,2.9c-2.9,1.6-5,3.3-6.4,4.5c-1.4,1.2-3.4,3-4.3,5c-0.3,0.6-1.6,2.5-1.6,5.9c0,1.9,0.5,3.7,1.5,5.4
				c1.9,4.4,6.8,7.5,12.5,7.5c3.2,0,6.2-1,8.5-2.7l0,0c3.2-2,5-4.6,5.3-7.7c0.2-1.8-0.2-4-1.2-5.7
				C131,1325.4,129.4,1323.8,129.1,1323.6z"/>
		</g>
	</mask>
	<g style="mask:url(#SVGID_1_);">
		<circle class="st86" cx="264.9" cy="1273.3" r="165.4"/>
		<path class="st8" d="M406.5,1216.5c-1.4-1.7-1.6-7.1-4.8-4c0.2-2.7-0.9-9.2,4-8.6c5.3,0.7,2.9,6.4,4.1,9.3c1.4,3.4,6.2,3.7,9,5.7
			c1.9,1.3,3,3.3,4,4.9c-7-22.2-18.5-42.4-33.5-59.5c0,0.1,0,0.3,0,0.4c-3.5-0.2-6.7,4.4-6,7.4c0.1,0.5,1.5,1.3,1.7,2.4
			c0.2,1.1-0.7,1.5-0.8,2.3c-0.1,1.9-0.6,3.8,2,4.3c1.7-3.2,5.5,0.6,6.3,2.7c1.4,3.8-0.3,5.6,2.4,8.7c1,1.2,4.1,2.6,3.5,4.7
			c-0.6,2.1-2.2,1.7-3.7,1.1c-2.4-0.9-3.8-4.6-6.6-4.7c-1.9,4.8-0.1,11-1.6,16c-0.8,2.8-1.9,2.9,0.6,5c0.9,0.8,1.5-0.1,2.5,1.1
			c0.6,0.7,0.6,2.3,0.6,3.2c1.4-0.8,2.5-2.1,4.3-1.9c-2.6,2.2-2.2,6.4-4,9.2c-2.3,3.6-4.1,2.4-7.2,3.8c-5.4,2.5-2.6,7.3-3.2,11.4
			c-0.3,2.3-2.3,4.3-3.2,6.6c-1.3,3.2-2.1,6.5-2.2,10c-0.1,4,1.2,7.7,2,11.6c0.6,3.2,0.6,9.3,3.7,11.1c1.9,1.1,7.9,0.9,10.4,1.3
			c2.4,0.4,5.5-1,7.6,0.1c2,1,1.8,4.5,4.6,3.7c1.5-0.4,2.4-4,4.4-4.7c3.1-1.1,5.5,1.7,6.4,4.2c1.1,3.1-0.5,3.2-1.4,6.5
			c-0.7,2.6,0,5.3,0.8,7.8c1.7,4.9-0.2,2.8-2,7.3c1.3,0.4,2.6,0.5,4,0.4c0.1,1.8,0.5,4.3,0.1,6.1c-1.1,4.8-5.8,7.4-6,13
			c-0.2,5.1,2.1,11.2,1.1,16.2c-0.7,3.7-4.8,6-4.2,10.3c2.3-1.5,4.1-3.8,6.6-5.1c11.3-22.4,17.7-47.6,17.7-74.4
			c0-15.1-2-29.6-5.8-43.5c-2.8-1.2-5.3-3-7.5-5.5C414.1,1221.2,409.1,1219.6,406.5,1216.5z"/>
		<path class="st8" d="M286.8,1112.6c2,0.4,4.3,0.3,6.3,0.8c2.3,0.6,3.9,2.1,6.4,1.1c1.1-0.4,2.1-1.4,2.8-2.4
			c-12-2.8-24.5-4.3-37.4-4.3c-30.2,0-58.5,8.1-82.9,22.3c6.3,0.4,4.9,7.5,10.4,1.6c2.4-2.6,5.1-6.2,8.2-8.5
			c3.5-2.6,7.4-0.8,11.6-0.9c-1.4,1-9.2,6.6-8.3,8.4c1.2,2.5,5.5-0.5,3.8,4.3c-1.5,4.3-7.7,1.4-11.5,1.7c-3,0.2-4.6,2.2-7.8,2.4
			c-3.4,0.2-6.7-0.8-10-0.7c-5.2,0.2-8.6,3.2-11.7,6.8c-1.8,2.1-4,3.7-5.4,6.3c-1.5,2.8-0.9,6.5-2.3,9c-1.2,2.2-3.9,2.5-5.8,3.8
			c-2.3,1.5-5.2,4.3-7,6.4c-3.1,3.6-4.5,10.5-9.8,11.8c-0.8,5.6,7.7-2.2,10.2-1.1c1.3-1.7,1.8-4,3.7-5.2c2-1.4,4.6-1,6.8-2.4
			c4.2-2.6,2.8-8.5,8-9.4c4.2-0.8,8.8-1.6,9.9,3c0.5,2.3-0.4,2.1-0.4,4.3c-0.1,3-0.3,1.1,1.9,2.9c3.3,2.7,3.9,6,1.3,9.9
			c-1.2,1.8-2,1.6-2.7,3.9c-0.8,2.5-0.5,4.9-0.4,7.4c0.1,2.8-0.2,5.5-0.3,8.2c-0.1,4.6,1,6.3,4.6,9.3c2.8,2.2,5.7,3.8,7.2,7.3
			c1.2,3,1,6.6,1.8,9.7c0.9,3.2,8.9,9.9,8,4.2c-0.5-3-3.8-3.6-3.8-7.2c0-1.5,0.6-3.6,0.8-5.1c4.6-1.3,3.4,6.6,4.6,8.9
			c1.8,3.3,6.3,5.5,8.7,8.1c-2.2,1-5.9,3.2-4.7,6.3c1.6,3.9,6.5,1.2,9.2,1.2c6,0.1,11.9,4.1,16.7,7.3c4.6,3,6.5,4.8,12.3,4.4
			c3.8-0.3,7.1,0.3,10.5,2.1c2.8,1.5,4.1,2.7,5.5,5.4c1.8,3.5,2.7,4.8,5.8,7.1c2,1.6,3.1,3.2,5.3,3.1c1.6-0.1,2.7-2.3,5-1.6
			c4.5,1.4,3.2,7.1,1.7,9.7c-1.2,2.2-2.4,5-3.8,7.2c-1.8,2.8-6.4,3.8-6.9,7.5c-0.5,3.5,3.4,7.5,4.2,10.8c0.8,3,0.7,6.3,0.7,9.3
			c-2,2.8,9.8,12.8,12,14.7c3.2,2.8,7.9,6.5,9.1,10.8c0.5,1.7,0.2,4.5,0.4,6.3c0.4,3.8,0.4,7.9,0.3,11.7c-0.3,5.7-4.4,9.2-5.3,14.6
			c-0.8,4.3,0.8,8.9,0.1,13.2c-0.3,1.9-0.7,4.7-1.2,6.6c-0.5,1.8-1.4,1.9-2.2,3.2c-1.4,2.4-0.7,4.8,0.5,7.4c3.6-2.6,6.7,2.3,8.4,4.8
			c2.1,3.1,4.7,4.4,9.1,3.8c-1.7-1.4-4.7-6.1-4.1-8.7c0.9-3.8,6.3-6.8,8.2-10c2-3.4,1.4-6.6,5.5-8.1c1.1-0.4,2.5-0.2,3.7-0.7
			c1.4-0.6,2.2-1.9,3.6-2.6c3.8-1.8,4.7-1.3,6.3-5.6c1.9-5.1,3.6-11.6,8.5-14.9c1.9-1.3,4-1.2,6.1-2.1c2.3-1,3-2.6,4.9-3.9
			c3-2.1,4.9-3.8,7.4-6.6c2.6-3,4.7-6.3,6.6-9.9c1.2-2.2,1.8-4.3,3.6-6.1c0.8-0.7,2-1.1,2.8-1.9c3.4-3.3,4.6-8.7,7.5-12.4
			c1.6-2.1,3.3-3.2,4.2-5.6c-0.3-0.9-0.9-1.5-1.3-2.3c-0.7-1.3-2.4-2.5-3.3-3.8c-0.3-0.5-0.4-1.9-0.7-2.2c-2.4-2.6-8.2-3.9-11.5-4.1
			c-4.4-0.2-11.1-0.9-14-4.9c-2.2-3,1.5-7.2,0.1-10.4c-1.8-4-11-5.9-14.5-8c-2.4-1.5-4.1-3.7-6.5-5.3c-3.5-2.2-5.7-3.1-7.2-7
			c-0.9-2.3,0.5-2.7-2.4-3.6c-2.6-0.8-6.8,1.5-9.7,1.7c-2.2,0.2-4.7,0.6-6.8,0c-2.6-0.8-4.5-3.7-7.2-4.2c-2.4-0.5-7.3,0.7-9.5,2.2
			c-1.9,1.2-2.9,3.5-5,4.4c-3,1.4-2.8-0.4-5.7-0.7c-2.9-0.3-4.4,1.3-6.7-2c-3-4.5-1.8-13.6-8.9-14.1c-2.1-0.1-6.2,1.6-7.5-1.1
			c-1.9-4,5-9.3,4-13.6c-1-4.5-9.4,1.4-11.3,3.9c-1.2,1.6-2.2,5.5-4.7,5.8c-1.9,0.2-5.8-2.3-7-3.7c-2-2.4-2.1-7.2-2.4-10.3
			c-0.5-5.8,0.8-7.6,4.8-11.9c3.6-3.8,4.3-4.2,8.9-5c2.8-0.5,2.8-1.5,5.2-0.2c1.1,0.6,1.9,2.4,3.2,2.9c1.9-1.9,3.3-2.5,5.9-2
			c1.9,0.4,5.8,2.5,6.8,4.3c0.6,1.1,1.6,10.7,5.1,4.8c-2-1.7-1.5-3.6-2.3-5.5c-0.8-1.8-2.7-3.2-3.1-5.5c-0.4-2.7,2-8.3,5-8.9l-0.3-3
			c3.4-0.5,7.4-8.7,6.7-12.7c-0.3-2-2.5-1.9-1.4-4.8c1.4-3.4,3.7-1.6,6.6-2.3c3-0.7,2.5-2.5,4.5-4c2.2-1.7,3.3-0.4,5.2-0.3
			c3.6,0.2,8.3,0.9,8.5-4c2.2-0.3,4.1-1,6.3-0.1c0.3-3.9-0.6-6.7-3.9-8.9c-2.9-2-6.8-2.6-9.8-4.5c-1.9-1.2-3.3-3-5.2-4.4
			c-3-2.1-5-4.5-7.7-6.9c-3.4-3.1-6.7,0.8-11.3,0.2c-6-0.8-5.6-5.4-9.4-8.1c-0.4-0.3-1.7,0.1-2.2-0.2c-0.7-0.3-2.1-1.9-2.7-2.5
			c-1.9-2-3.7-5-3.9-8.1c6.6-3.8,8.3,5.3,11.1,8.6c1.3,1.5,6.2,2.4,2.3,4.8c2.7,0.2,5.1-0.2,7.6,0.4c1.2,0.3,2.2,0.9,3.5,1
			c0.3-2.1-0.5-4.1-0.9-6.1c-0.2-0.9,0.1-1.8-0.3-2.7c-0.6-1.3-1.9-1.9-2.4-3c-1.5-3.1,0.4-3.1-3-4.9c-2.3-1.3-5.1-2.2-7.4-3.2
			c-1.6-0.7-3.4-1.4-4.7-2.6c-0.6-0.6-4.3-4.5-4.6-5.2c-2.6-6.6,7.7-0.6,10,0c3.8,0.9,7.7,2.4,11.4,3.8c3,1.2,3.1,1.8,4.3,4.9
			c2.1,5.5,5.1,2.9,8.4,6.5c2,2.2,3.6,6.2,5.3,8.8c2.2,3.3,10.8,13.6,15.6,8.7c2.6-2.7-2.4-7.3-2.5-9.9c-0.1-2.8,1.8-4.5,3.7-6
			c3.2-2.5,3.9-3.6,0.2-6.6c-4.6-3.8-9.8-4.4-15.3-6.1c-6-1.9-7.6-5.4-10.7-10.3c2-0.4,4.1-0.5,6.2-0.7
			C283.2,1112.3,285,1112.2,286.8,1112.6z M225.5,1155c-0.8,2.1-2.2,1.4-3.6,2.5c-2.1,1.6,1.6,4.5,0.1,5.5c-0.5,0.4-3.4,0.2-4,0
			c-1.7-0.6-2.2-1.7-4.1-1.7c-2.5,0-5.1-0.5-4.5-3.7c0.3-1.5,1.8-3,1.1-4.6c-0.3-0.8-2-2-2.7-2.5c-0.7-0.5-1.5-0.4-2.1-0.8
			c-1.3-0.8-0.8-4.1,0.6-4.6c0,4.5,6.7,0.4,8.1,2.5c1.3,2-1.4,2.8,0.4,4.2c1,0.8,3.7,0.8,4.7,0.5c1.6-0.5,4.2-2.8,5.7-1.1
			C225.8,1151.9,225.8,1154.2,225.5,1155z M246.8,1147.1c1.7,0.5,1.4,1.3,2.2,2.6c1,1.5,2.6,1.3,3.8,2.4c2.2,2-1.3,4.7,0,7.2
			c1.1,2.2,13.8,5.5,5.5,8.2c-2.4,0.8-3.8-0.8-6-1.4c-1.8-0.5-5.4-0.2-7.1,0.8c-4,2.3,5,6.7-0.6,8.4c-1.1,0.3-4.8,0.1-5.2-1.3
			c-0.3-1.2,1.4-1.2,1.8-2.4c1.4-4.7-4.3-1.8-5.9-2.2c-2.3-0.6-1.6-4.6,0.2-5.5c1-0.5,3.4-0.2,4.5-0.3c1.8,0,3.5,0.2,5.3,0.1
			c0.8-3.4-4.3-5.1-7-5.5c-2.1-0.3-2.4-0.7-4.1-2c-2.1-1.5-3-1.1-1.5-3.9c1.3-2.4,3.4-3.7,5.5-5.4c1-0.5,1.7,0.5,2.7,0.6
			C242.9,1147.8,244.9,1146.5,246.8,1147.1z"/>
		<path class="st8" d="M261.3,1233.4c-1.9-0.7-8.6,1.8-5.8,3.8c1.9,1.3,6.3-0.4,8.6,0.1c2.4,0.5,5.1-0.3,7.4,0.6
			c1.7,0.7,2.5,2.2,4.4,2.7c2.2,0.6,3.4-0.4,1.3-2.1c-1.5-1.2-3.5-1.5-5.2-2.3c-1.3-0.6-2.4-1.8-3.7-2.1
			C266.5,1233.6,262.7,1235.1,261.3,1233.4z"/>
		<path class="st8" d="M284.8,1243.5c-1.7,1-3.2,1.6-3.8,3.7c-0.6,2.5,0.4,2,2.1,1.1c1.1-0.6,2.5-1.7,3.9-1.6c1.2,0.1,2.4,1,3.6,1.3
			c2.2,0.4,4.6,0.1,6.4-1.5c1.4-1.2,1.5-2.8-0.7-3.1c-1.6-0.3-4.2,0.5-6,0.7C288.5,1244.2,285.7,1244.3,284.8,1243.5z"/>
		<path class="st8" d="M363,1402.3c-3.8,2.6-6.1,6.2-10.6,8c-4.9,2-9.4,4.7-14.4,6.7c-4.9,2-10.4,5.1-15.6,6.4
			c-4.3,1.1-9.2-1-13.5-0.9c-4.6,0.1-9,1.1-13.4,2.2c-3,0.8-2.9,0.2-5.2-0.7c-1.7-0.7-1.7-0.7-3.6-0.9c-1.5-0.2-3,0-4.4-0.3
			c-0.1,2.1,4.5,6.3,6.3,7.6c-13.5,1.2-27.9-0.5-41.4-1.9c-4-0.4-6.3,1.3-10.1,1.8c-3.5,0.5-6.4-1.4-10-1.5c-4.2,0-6.1,0.8-7.9,3.5
			c14.5,4.1,29.8,6.4,45.6,6.4c40.3,0,77.3-14.5,106-38.4c0-0.5-0.1-1.1-0.1-1.6C368.5,1399.6,365,1400.9,363,1402.3z"/>
		<g>
			<path class="st8" d="M104.5,1274.9c0.6-1.5,1.1-3.7,0.7-5.3c-0.4-1.9-1.3-1.7-2.2-3.2c-2.4-4.1,1.2-4.6,1.2-8.1
				c0-2-4.2-6.9-1.4-8.9c1.3-0.9,5.9,1.3,8.1,0.4c-0.4-3.3-3.7-2.3-5-4.6c-2-3.4,1.3-4.1,2.3-5.6c3.3-4.9-1.4-7.4-2.6-11.4
				c-4.1,14.3-6.3,29.4-6.3,45.1c0,0.6,0,1.2,0,1.8C100.7,1274,102.3,1273.7,104.5,1274.9z"/>
			<path class="st8" d="M110,1228c1.7-0.5,1-4.6,1.3-5.7c0.9-3.1,3.2-7.1,4.9-9.7c2.7-4.1,1.5-5.6,0.9-10.6
				c-0.1-0.8-0.2-1.8-0.2-2.7c-4,8.1-7.5,16.5-10.1,25.2C107.6,1226,108.8,1228.4,110,1228z"/>
		</g>
		<path class="st8" d="M106.3,1255.2c-2.6,7.6,5.5,8.6,5.7,14.9c0.1,2.3-1.1,10.3,3.7,9.7c2-4.4-1.2-5-0.6-9.1
			c0.4-2.8,2.4-3.6-0.7-5.9c-0.9-0.6-2.4-0.7-3.1-1.3c-0.9-0.9-0.8-2.2-1.4-3.1C108.9,1258.8,107.3,1257.7,106.3,1255.2z"/>
		<path class="st8" d="M106.3,1281.3c-2,4.5-5.8,20.8,1.5,21.1c0.8,0,2.3-1.4,3.1-0.9c0.6,0.4,0.1,2.1,0.4,2.3
			c1.9,1.1,2.4,1.3,3.1-1.9c0.6-2.6-0.7-2.7-1.1-4.4c-0.3-1.6-0.1-3,0-4.6c-4.7-1.2,4.8-2.2,4.4-4.1c-0.3-1.4-7.3-1-8.4-0.7
			c-0.2-1.3,0-2.7,0.2-3.9C108,1283.4,107.5,1281.7,106.3,1281.3z"/>
		<path class="st8" d="M130.1,1296.1c-4.1,0.2-6.3-3.5-11.1-2c0,1-0.3,2.1-0.3,3c1.1-0.3,6.2-1.5,5.3,1.4c-0.7,2.4-5.1-0.6-4.3,2.9
			c1.3-0.1,3.2-1.1,4.5-0.9c1.8,0.2,2.5,1.2,4.2,1.6c2.2,0.5,2-0.6,4.3,1.1c1.9,1.3,3.8,3.3,4.4,5.4c1.3,4.3-0.6,6,4.9,6.7
			c2.9,0.4,9,3.5,8.9-1.2c2.8,0.9,7,9.2,10.7,8.3c4.6-1-4.3-8.3-4.3-9.1c1.8-0.2,5.9-1.9,7.3-2.7c1.5-0.9,2.9-0.7,2.3-3.6
			c-2.2-0.3-3.2,0.8-4.9,1.2c-1.9,0.5-4.1,0.5-6.1,0.3c-5.3-0.4-9.6-2.3-13.7-5.6c-2.2-1.8-4.1-3.3-6.4-5c-1.5-1.1-1.5-1.8-3.2-2.3
			C131.5,1295.1,130.5,1295.7,130.1,1296.1z"/>
		<path class="st8" d="M107,1306.8c3,0,6.1,0.4,9.1,0c1-0.1,2.2-1.7,3.3-0.6c0.4,0.4,0.1,3-0.3,3.4c-1.8,2-11.7,1.4-11.1-2.5"/>
		<path class="st8" d="M152.2,1330c-0.3-5.2-2.3-4.5-4.7-7.8c-0.8,2.2-1.8,6.5-4.7,6.8c-4.3,0.5-5-6-7.6-7.7
			c-3.7-2.5-12.1-0.1-12.9,3.4c-3.4,1.3-3.6,3-5,5.8c-0.9,1.9-2.1,4-3.4,5.9c-0.5,0.7-0.9,1.2-1.3,1.7c3.2,7.5,6.9,14.7,11.1,21.5
			c0.3,0.1,0.7,0.2,1.2,0.2c3.6,0.3,5.6-3.7,8.5-3.4c2.1,0.3,3.7,3.8,5.4,5.3c4.8,4,12.9,6.9,14.8,12.8c1.1,3.6,2.5,5.1,4.8,8.2
			c1.6,2.1,1.2,5.9,3.5,7.2c0.2-3.5,0.4-6.6,1.3-10c1.1-4.1-0.1-7.5,1.8-11.1c1.9-3.7,4.9-6.6,4.6-11.2c-0.2-3.1-2.5-7-4.7-9.2
			C158.6,1342.2,152.7,1339.8,152.2,1330z"/>
		<path class="st8" d="M194.1,1365.1c-2.7,0.5-1.8,5.7-2.5,7.9c-1.1,3-2.1,2.7-5.3,3.5c-1.7,0.4-4.3,0.9-5.9,1.7
			c-2.9,1.4-3.2,3.8-4,6.7c3.6,0.3,5.7-3.9,8.9-4.6c2.8-0.6,5.1,0.7,8-0.6c7.3-3.2,5.5-10.3,6.5-16.2
			C197.6,1363.1,196.1,1364.4,194.1,1365.1z"/>
		<path class="st8" d="M197.1,1334.6c-0.9,2.2,0,7.3,3.2,4.2c1.5-1.4,1.3-5-1.5-4.8c0,0.4-0.2,0.6-0.4,1"/>
		<path class="st8" d="M220.9,1340c-2.6,2.1,3,5.5,4,2.3C225.6,1339.9,221.8,1339.1,220.9,1340"/>
		<path class="st8" d="M178.7,1283c0.8,1.9,5.7,3.5,6.6,6.7c0.8,3,0,5.5,4.4,5.7c-0.1-2.1,1-4.9,0.1-6.7c-0.4-0.8-1.9-1-2.5-1.9
			c-0.6-1-0.1-2.1-0.6-3C185.8,1281.7,177.7,1277.3,178.7,1283z"/>
	</g>
</g>
<linearGradient id="SVGID_2_" gradientUnits="userSpaceOnUse" x1="0" y1="776.2154" x2="1136.1243" y2="776.2154">
	<stop  offset="0" style="stop-color:#FFFFFF"/>
	<stop  offset="1" style="stop-color:#FCEBDC"/>
</linearGradient>
<polygon style="fill-rule:evenodd;clip-rule:evenodd;fill:url(#SVGID_2_);" points="1108,732.1 0,732.1 0,820.3 1108,820.3 
	1136.1,776 "/>
<linearGradient id="SVGID_3_" gradientUnits="userSpaceOnUse" x1="0" y1="864.4258" x2="1136.1243" y2="864.4258">
	<stop  offset="0" style="stop-color:#FFFFFF"/>
	<stop  offset="1" style="stop-color:#EEF5F7"/>
</linearGradient>
<polygon style="fill-rule:evenodd;clip-rule:evenodd;fill:url(#SVGID_3_);" points="1108,820.3 0,820.3 0,908.5 1108,908.5 
	1136.1,864.2 "/>
<linearGradient id="SVGID_4_" gradientUnits="userSpaceOnUse" x1="0" y1="952.6363" x2="1136.1243" y2="952.6363">
	<stop  offset="0" style="stop-color:#FFFFFF"/>
	<stop  offset="1" style="stop-color:#EAF3E4"/>
</linearGradient>
<polygon style="fill-rule:evenodd;clip-rule:evenodd;fill:url(#SVGID_4_);" points="1108,908.5 0,908.5 0,996.7 1108,996.7 
	1136.1,952.5 "/>
<line class="st95" x1="261.9" y1="1089.9" x2="261.9" y2="1459.3"/>
<path class="st62" d="M941.5,1321.1c-1.3,1.4-1.1,3.7,0.3,5.1l3.5,3.5c0,0,0,0.1,0,0.1h-68.5c-1.9,0-3.6,1.4-3.7,3.4
	c-0.1,2,1.5,3.7,3.5,3.7h68.7c0,0,0,0,0,0.1l-3.4,3.4c-1.4,1.4-1.6,3.6-0.3,5.1c1.4,1.5,3.7,1.5,5.1,0.1l9.6-9.6
	c0.2-0.2,0.3-0.3,0.4-0.5c0.1-0.1,0.1-0.2,0.1-0.3c0.1-0.1,0.1-0.2,0.2-0.4c0-0.1,0.1-0.2,0.1-0.4c0-0.1,0.1-0.2,0.1-0.3
	c0-0.2,0.1-0.5,0.1-0.7s0-0.5-0.1-0.7c0-0.1-0.1-0.2-0.1-0.3c0-0.1-0.1-0.2-0.1-0.3c-0.1-0.1-0.1-0.2-0.2-0.4c0-0.1-0.1-0.2-0.1-0.3
	c-0.1-0.2-0.3-0.4-0.4-0.5l-9.8-9.8C945.2,1319.6,942.8,1319.6,941.5,1321.1z"/>
<g>
	<rect x="511.9" y="439.5" class="st33" width="832.3" height="71"/>
	<text transform="matrix(1 0 0 1 511.9038 464.0115)"><tspan x="0" y="0" class="st7 st96 st97">663 million people</tspan><tspan x="269.9" y="0" class="st7 st98 st97"> in the world live without clean water.</tspan></text>
</g>
<g>
	<rect x="169.9" y="661.1" class="st33" width="1059.9" height="45.2"/>
	<text transform="matrix(1 0 0 1 169.9295 690.2957)" class="st7 st99 st100">Water scarcity affects humanity and the ecosystem.</text>
</g>
<g>
	<rect x="505.5" y="1134" class="st33" width="655.8" height="77.6"/>
	<text transform="matrix(1 0 0 1 505.4934 1163.1953)"><tspan x="0" y="0" class="st7 st99 st100">To help we need to reduce world wide </tspan><tspan x="0" y="36" class="st7 st99 st100">dependency on scarce water by 50%.</tspan></text>
</g>
<text transform="matrix(1 0 0 1 169.9292 783.1729)" class="st80 st99 st97">Humans travel long distances for fresh water.</text>
<text transform="matrix(1 0 0 1 1184.2192 783.1729)" class="st80 st102 st97">labor</text>
<text transform="matrix(1 0 0 1 169.9292 871.8364)" class="st7 st99 st97">Poor water quality is a disease risk.</text>
<text transform="matrix(1 0 0 1 1165.4702 871.8364)" class="st7 st102 st97">health</text>
<g>
	<text transform="matrix(1 0 0 1 1200.104 960.7036)" class="st41 st102 st97">food</text>
</g>
<text transform="matrix(1 0 0 1 169.9292 960.7036)" class="st41 st99 st97">Fresh water supply is needed to grow food.</text>
<g>
	<polygon class="st0" points="2424.6,586.3 2419.7,582.2 2409.7,581.1 2405.5,576.2 2403.6,569.7 2404.6,566.5 2407.2,564 
		2409.4,560 2409.9,555.2 2409.7,551.3 2410.7,548.2 2414.7,545.7 2417.4,541.4 2416.9,536.7 2415.2,531.7 2414.8,526.7 
		2419.9,520.5 2421.3,518.3 2422.1,515.3 2423.3,504.3 2422.8,497 2425.7,485.4 2424.4,479.6 2422.4,477.2 2414.4,470.8 2409.5,463 
		2407.1,460.4 2407.1,460.3 2405.8,459.5 2404.5,459.3 2403.3,459.5 2396.5,463.4 2390.6,470.2 2386.5,478 2386.3,484.4 
		2380.5,484.7 2376,483.5 2372.2,484.2 2368.6,490.2 2367.5,494.5 2367.4,497.4 2366.7,500 2364.3,503.5 2354.1,508.7 2348,510.4 
		2343.2,510.2 2333.1,507 2327.8,503.9 2318.8,495.3 2293.7,487.2 2287.9,482.8 2285,478.6 2284.6,475.4 2285.3,471.7 2285.9,463.7 
		2286.9,460.4 2286.9,458.4 2286,457.3 2284.6,457.4 2283.5,456.6 2283.9,452.7 2239.7,438.7 2235.8,438.1 2223.6,439.7 
		2219.1,438.5 2214.4,440 2200.1,437.7 2194.8,436.1 2194.5,432.9 2197.2,429.3 2200.8,425.5 2203,421 2202.9,413.7 2201,408.2 
		2198.5,403.2 2196.6,397.6 2197.2,386 2201.2,374.4 2205.1,367.9 2212.7,355.1 2220.6,345.5 2221.5,343.1 2222.7,337.1 2223.8,334 
		2232.9,322.5 2235.2,317.3 2235.3,302.7 2228.6,296.8 2220,292.8 2213,282.4 2211.3,274.2 2211.3,274.2 2147.1,234.3 2138,232.1 
		2129.2,232.1 2126,227.2 2113.1,227.2 2087.1,224.3 2082.6,226 2078.9,230.1 2070.3,232.8 2061.2,233.7 2055.5,232.1 2048.7,227.1 
		2045.2,223.6 2045.2,221.2 2049.5,220.2 2043.4,214.4 2035.8,210 2029.5,209.7 2027.4,216.5 2029.3,218.6 2016.9,218.8 
		2016.5,216.6 2015.9,213.9 2014,211.6 2013.1,208.8 2013.8,206.5 2016.9,201.8 2017.6,200.5 2016,197 2013.7,196.6 2011.1,197.1 
		2008.7,196.6 2007,193.8 2005.1,189.8 2002.9,186.4 1999.8,185.4 1997.7,187.6 1996.5,195.2 1993.7,197.1 1991.3,195.3 
		1990.5,191.2 1990.3,186.6 1990,184.1 1985.6,182.2 1979.8,181.8 1976.1,184 1978.2,189.4 1974.7,191.2 1962.1,193.7 1959.5,193.7 
		1957.7,194.8 1954.5,199.4 1953.3,202 1951.6,208.9 1949.1,211.2 1943.2,214.5 1940.9,217.1 1940.6,219.7 1941.6,222.2 
		1942.2,225.1 1940.7,228.9 1944.4,230.3 1945.5,230.4 1951.5,235 1956.4,237.8 1960.5,237.6 1964,235.8 1967.2,233.5 1970.7,231.7 
		1982.1,229.8 1985.4,230.3 1989.1,231.9 1991.2,232.1 1990,240.3 1988.4,239.5 1988.3,237.4 1988,236.8 1987,236.9 1985.8,237.4 
		1984.9,238.1 1984.4,240 1984.8,241.5 1985.3,242.9 1985.4,244.1 1985.2,246.5 1985.3,248.9 1985,251.5 1983.5,254.2 1980.3,255.3 
		1977.8,252.1 1974.9,247.4 1971.3,244 1964.3,244.7 1957.2,249.4 1954.5,255.4 1954.2,257 1947,258.2 1932,258.1 1923.1,255.8 
		1920.8,254.3 1919.2,250.9 1918,247.6 1916.7,246.1 1913.9,245.8 1907.9,244 1903.7,244 1891,246.1 1889.8,246.9 1888.6,248.6 
		1887.1,250.3 1882.8,251.6 1877.7,254.3 1875.8,255.8 1873.8,258.1 1872.9,259.8 1871.8,261.3 1869.6,262.9 1859,265.2 
		1828.6,265.2 1828,263.7 1827.5,260.5 1826.7,257.3 1825.3,255.8 1810.3,254.9 1807,253.2 1802.7,259.8 1798.9,264.3 1794.5,266.8 
		1775.1,270.9 1769.9,270.2 1757.8,263.8 1763.9,263.8 1766.4,261.4 1769.5,252.8 1764.2,253.3 1752.6,256.8 1752.2,257.1 
		1743.9,260 1738.3,263.2 1728.1,271.5 1728.6,271.8 1732.5,274.7 1733.3,274.7 1733.4,278.2 1732.4,280.2 1730.5,280.8 
		1728.1,280.3 1726.7,281 1726.4,282.1 1726.9,283.5 1728.6,285.8 1728.8,286.7 1728.8,287.6 1728.5,288.6 1728.1,289.2 
		1724.5,292.4 1721.5,292 1718.4,290 1714.8,288.7 1712.1,289.5 1712.1,291.7 1713.3,293.8 1714.1,294.6 1715.2,296.2 1715.6,298.2 
		1714.9,301.4 1710.2,307.5 1703.7,310.1 1687.4,309.4 1681.3,310.7 1672.4,314.5 1670.9,314.9 1669,314.1 1668.1,312.8 
		1667.4,311.6 1666.5,310.8 1659.6,308.7 1654.5,305.6 1653.2,300 1657.4,290.2 1651.1,290.8 1647.9,290.3 1644.9,288.6 
		1639.4,287.4 1627.7,289.5 1621.7,288.6 1619.6,286.9 1617.4,286.4 1615.3,286.9 1613.2,288.6 1608.9,289.9 1609.5,293.8 
		1611.8,298.5 1613,302.6 1611.2,305.5 1607.8,308.5 1604,310.7 1597.9,312.1 1597.4,318.6 1591.5,322.1 1588,326.6 1585.1,332 
		1583.9,336.4 1611.7,333.7 1616.1,331.6 1619.6,334.5 1623.1,337.6 1625.5,341.1 1623.7,344.9 1621.5,346.3 1619.1,347 
		1616.7,348.4 1613.2,353 1612,353.5 1609.9,353.8 1605.5,358.3 1603.9,365.4 1604.9,373.9 1589,385.6 1582.2,392.6 1577.8,399.9 
		1562.5,414.1 1555.4,416.5 1555.7,422.4 1552.3,424.1 1551.5,424.7 1550.6,426.9 1544.7,429 1542.5,431.2 1539.4,436.6 1542.2,443 
		1536.9,450.7 1521.2,462.6 1496,470.5 1484.7,477.1 1481.2,489 1482.2,492.2 1485.3,498.1 1486,501.8 1485.7,506.6 1484.4,509.8 
		1482.7,512.8 1479,523.9 1478.7,525.5 1479.4,527.5 1480.6,529.1 1482.3,531 1482.4,536.8 1481.6,539.6 1478.9,542.9 1476.5,544.8 
		1468.7,548.9 1462.5,555.8 1460.2,557.8 1443.5,567 1412,595.8 1408.8,599.9 1409.6,604.4 1415.2,610.7 1406.9,621.1 1398.8,635.1 
		1396.1,638 1395.2,640.1 1395.2,641.8 1395.7,643.4 1396.3,644.8 1396.4,645.8 1396.4,648.4 1397,650.7 1396.5,652.9 1393.8,655.5 
		1406.4,663.3 1409.9,667 1412.7,672.1 1413.1,675.8 1405.5,692.7 1404.7,695.4 1403,704.9 1402.9,708.6 1403.1,711.7 1402.1,713.9 
		1397,715.5 1395.6,715.7 1394.2,715.5 1392.3,714.9 1391.9,714.9 1391.5,714.9 1391.2,715.1 1377.1,721.9 1371.5,725.5 
		1370.5,729.6 1373,734.2 1377.1,739.4 1376.4,742.3 1374.6,745.7 1371.5,753 1377.1,749.7 1387.8,747.1 1398.4,746.7 1406.4,750.3 
		1413.9,746.3 1425.9,732.4 1440.9,722.5 1447,716.1 1445.7,708.3 1444.1,707.6 1440.2,709.4 1437.7,708.1 1436.7,706.7 
		1434.5,701.1 1434.4,699.7 1432.2,694 1431.2,690.6 1432.5,686 1437.4,679.3 1444.1,670.5 1451.7,663.9 1458.9,661.6 1466.6,661.2 
		1474.2,659.3 1494.2,645.6 1509.1,642.6 1524.7,643.1 1559.6,652.2 1563.1,653.9 1565.3,657.3 1565.8,663.7 1564.1,669.4 
		1557.9,676.6 1556.7,680.5 1561.2,688.2 1569.5,697 1574.8,706.2 1566.5,722.3 1562.5,734.4 1560.3,745.9 1562.4,751.5 1581,755.7 
		1584.5,759.1 1584.3,761.7 1582.6,764.2 1580.8,766.6 1579.7,768.3 1580.4,767.9 1580.8,771.3 1580.8,774.8 1580.5,775.1 
		1580.6,777.7 1580.1,779.1 1580.3,780.2 1582.3,781.8 1584.5,782.1 1586.3,780.7 1588,779 1589.9,778.2 1595.3,780.5 1611.1,798.4 
		1612.3,799.2 1613.1,802.8 1615.8,809.7 1617.4,815.9 1618.7,819.2 1620.3,821.9 1630.8,833.7 1636.2,836.9 1643.4,838.4 
		1651.1,838.3 1658.1,837 1672.5,831 1679.1,827 1682.2,825.9 1699.8,827.8 1707.3,825.1 1721.1,815 1728.1,812 1733,811.4 
		1735.6,808 1737.8,804.2 1741.8,802.2 1765.6,808.2 1769.3,810.3 1772.8,813.5 1777.2,819.9 1777.6,820.8 1780.4,821.8 
		1782.4,821.3 1784.1,820.5 1786.4,820.2 1797.7,824.3 1804.1,824.2 1808.3,825.5 1809.6,825.5 1812.6,824 1813.1,822.9 
		1812.9,821.1 1813.7,817.6 1819.1,807.3 1825.3,802.9 1841.9,799.2 1844.2,798.5 1845.9,797.1 1848.7,793.3 1848.9,792.6 
		1851.2,787.6 1851.6,786.9 1852.8,777.3 1852.9,773.5 1853.4,769.7 1855.1,766.2 1857.4,764.4 1862.3,763.9 1864.8,763.1 
		1875,754.2 1880.1,743.3 1879.5,730.9 1872.5,717.6 1867,712.8 1866.2,711.5 1867.2,708.7 1869.6,705.4 1874.1,700.7 1879.2,698.4 
		1889.4,696.1 1894.2,692.7 1905.7,677.6 1912.3,674.2 1915,672.2 1917.3,669.4 1918.8,666.3 1918.7,662.9 1917.1,661.7 
		1916.2,660.2 1918.2,656 1923.2,650.7 1929.5,647.2 1942.5,644.4 1949.3,645.6 1952.5,650.2 1953.4,657.9 1953.5,668.1 
		1952.8,677.8 1949,695.3 1948.2,704 1949.1,712.2 1951.7,717.7 1956,721.2 1962.1,723.7 1968.6,726.9 1975.2,733.7 1990,755.6 
		1992.2,756.7 1996.8,758.3 2007.6,764.7 2011.8,764.9 2013.5,763.9 2017.1,760.7 2018.6,760 2020.5,760.7 2022.2,763.9 2024,765.1 
		2027.7,765.7 2034.9,765.5 2038.4,766.7 2044.4,774.6 2040.9,782.4 2034.2,790.6 2030.1,800 2029.3,801.6 2028.8,802.6 
		2032.9,802.8 2036.5,804.1 2049.8,811.2 2051.5,812.5 2053,814.6 2055.3,820 2059.3,827.2 2061.2,831.6 2062.6,836 2063,841.8 
		2062,845.9 2060.6,849.9 2059.7,855.1 2069,852.2 2076.7,855.7 2083.7,857 2091.2,847.8 2097,836.5 2097.9,830.7 2095.3,825.2 
		2093,823.8 2088,822.8 2085.7,821.5 2083.6,818.3 2081.6,812.2 2079.1,809.7 2078.6,808.8 2078.4,808 2078.6,807.1 2079.1,806.3 
		2086.8,799.2 2082.6,787.5 2083.7,783.7 2089.6,779 2094.8,777.4 2097,776.1 2098.8,773 2099.6,768.8 2099.1,761.3 2100,756.9 
		2104.3,750.4 2121.3,738.9 2123.2,735.4 2124.3,731.6 2125.6,728.2 2128.1,726.3 2130.9,725 2133.7,722.5 2135.8,719.1 2139.3,707 
		2146.1,692.7 2147.5,685.2 2147.2,680.9 2144.1,668.9 2144,664.1 2144.7,659.8 2144.2,656.4 2141.1,654.3 2138.8,649.7 
		2140.7,641.4 2144.8,633.2 2149.2,629.1 2160.6,627.7 2165.2,628.9 2165.4,633.1 2171.4,638.8 2173.2,639.6 2175.7,638.6 
		2176.9,636.5 2177.7,634.1 2179.2,632 2183,629.2 2184.9,628.8 2185.6,630.9 2187,663.4 2186.7,668.5 2187.1,670.4 2188.8,672.1 
		2194,675 2196.1,676.7 2200.7,688.8 2203.7,693 2208.7,696.3 2214.1,698.3 2240.9,698.6 2245.4,696.8 2248.9,691.9 2249,689.2 
		2248.7,685.4 2249.1,681.5 2251.6,678.7 2254.2,678.7 2259.9,682.2 2262.9,682.8 2267.7,681.2 2283.3,673.2 2293.5,671.5 
		2298.1,671.8 2302.9,673.1 2308.7,676.9 2310.3,682.4 2310.4,689.1 2311.9,696.5 2315.3,701.1 2324.6,709.3 2326.9,715.1 
		2327.1,722.7 2334.9,722.8 2344.7,719.1 2351.3,715 2354.3,708.5 2351.4,702.5 2341.7,692.7 2339.6,688.9 2338.7,686.1 2338.8,683 
		2340,678.4 2341.7,675.1 2346.6,670.7 2348.3,668.5 2350.1,661.1 2348.4,657.3 2344.3,655.7 2333.8,653.7 2327,651 2323.3,646.4 
		2327.4,639.4 2325.4,638 2324.3,636.1 2323.7,633.7 2323.4,630.5 2324.5,626.9 2324.5,619.5 2324.8,617 2326.8,614 2331.9,609 
		2333.8,606.4 2336.7,595.3 2337.7,592.8 2340,591.6 2362.1,585.2 2368.1,585.1 2371.9,588.2 2372.3,592 2371.1,599 2372.1,602.7 
		2381.8,606 2383.6,607.6 2384.8,609.3 2386.3,610.9 2388.9,612.1 2391.9,612.6 2400.1,611.8 2416.8,616.2 2421.1,615.4 2424.3,610 
		2426.2,601.6 2426.3,592.8 	"/>
</g>
<g>
	<path class="st0" d="M2330.9,1258l-4.2-2.5l-2.2-0.7l-1,0.5l-2.2,2.3l-1.3,0.6h-5.1l-2.1-0.6l-2.3-1.3l-2-1.9l-0.8-2.1l0.1-2
		l0.6-0.7l2.3-0.6l1.2-0.6l0.4-0.3l0.5-0.5l0.3-0.8l-0.1-0.7l0.1-0.7l0.8-0.6v-0.6l-5.7,1.6l-2.6-0.5l0.2-3.1h0.6l0.9,0.5l0.9-0.7
		l1-1.1l1.1-0.6l0.9-0.2l2.6-1.2l0.7-0.6l-0.9-0.6l-0.2,0.1l-0.4,0.4l-1-1.3l-7.6,3.4l-4.1,1l-4.2,0.4l-2.3,0.7l-4.5,3l-2.1,1
		l-0.8,0.1l-1.5-0.1l-0.3,0.2l-0.5,0.8l-0.3,0.2l-1.1,0.3l-0.9,0.7l-0.8,0.8l-1,0.8l-2.3,1.1l-0.6,0.1l-0.5,0.5l-1.5,1.8l-0.3,0.2
		l-0.3,0.5l-1.8,1.8l-0.4,0.1l-0.8-0.2l-0.4,0.1l-0.2,0.3l-0.6,1.2l-0.3,0.5l-2.3,2.5l-1.2,1l-1.3,0.5l-1.5,0.2l-1.1,0.6l-3.7,3.9
		l-1.3,0.8l-1.6,0.4l-5.3,3.4l-0.5,1.4l-0.1,2l0.4,1.7l1.3,1.1l0.7,1.7l0.7,0.6l0.5-0.1l2.1-1.2l0.4,0.9l0.5,0.3l0.6-0.4l0.6-0.8
		l2,2.1l-0.7,0.4l-0.3,0.7l0.2,0.8l0.2,0.2l1.4,2.4l2.1-0.3l1.9-2l0.8-2.6l1-1.1l4.8-2.7l1.6-0.6l2,0.6l2.5,1.5l2.1,2l0.8,2
		l-1.1,2.3l-0.2,1.6l1.1,0.6l0.7,5.2l1.9,2.3l2.9,1.1l6.6,0.5l0.8-0.1l1.1-0.5l0.9-0.1l0.7,0.2l1.1,0.9l0.7,0.2l0.6,0.4l0.2,0.8
		l0.2,1.1l0.4,0.8l0.5,0.4l1.1,0.6l0.5,0.4l2.1,3l0.3,0.4l0.7-0.3l0.7-0.5l0.3-0.3l0.6-0.9l2.9-2.4l6.8-4.2l2.3-2.5l1.2-3.9l0.3,0.3
		l0.8,0.5l0.7-5.3l2.3-4.6l3.1-3.7l3-2.8l-0.6-1.5l0.3-1.5l0.8-1.1l1.2-0.5l1-0.6l0.7-1.3l1-2.7l-0.5-1.2l0.2-0.6l0.5-0.4l0.1-0.6
		l-0.1-0.7l-0.3-0.8l-0.1-0.7l0.5-1L2330.9,1258z M2194.8,1321.5l0.4-0.8l-0.6-0.7l-0.7-0.5l-0.8-0.2l-1.3,0.2l-0.5-0.2l-1.2-1
		l-1-0.1l-1,0.5l-0.7,0.9l-1.6-0.3l-2.1,0.6l-2.1,1l-1.5,1.2l-0.9-0.6l-1.5,1.1l-0.7-0.7h-0.5l-1.8,2l-1.1,0.9l-1,0.4l-0.8,1v2.2
		l0.6,4h-1.8l-0.7,0.2l-0.6,0.5l-0.8-0.6l-0.8,0.1l-0.8,0.5l-0.6,0.6l0.6,1.1l-0.3,1.4l-0.9,2.2l0.3,1.8l0.8,1l2.3,1.6l0.5-1.2
		l1.2-0.4l1.2,0.4l0.6,1.2l0.8-0.2h0.1l0.3,0.1h0.5l1.1-0.5l1.3,1l1.4,1.3l1.3,0.6l0.6-2.4l0.8-2.1l1-1.8l1.2-1.6l0.3,0.4l0.5,0.5
		l0.3,0.4l0.8-1l2.1-1.1l0.9-0.7l2.3-3.6l2.6-1.7l0.4-0.6l0.2-1.5l0.7-1.2l1-0.8l1.2-0.1l-1.2-3.2L2194.8,1321.5z M2398.4,1244.8
		l-1.6-2.6l-0.3-1.4l-0.4-1.6l-0.9-0.3l-1.2,0.1l-1.1-0.6l1.3-0.6l0.1-1.4l-0.7-1.6l-0.7-1l-0.6-0.3l-1.1-0.2l-0.4-0.2l-0.8-0.7
		l-0.4-0.5l-0.5-0.8l-2.1-1.4l-0.5-0.7l0.3-1.3l-0.5-0.6l-0.5,0.4l0.1,1.4l-0.7,1.1l-0.6,0.7l-0.5,0.3l-0.5-0.4l-0.1-0.8l0.2-0.6
		l0.2-0.3l-1.7-1.3l-0.3-0.8l-0.2-1.1l-0.8,0.5l-1.2,1l-1,0.5l-0.8,0.1l-3-0.1l-7.2,0.8l-1.8-0.8l-5.1,1.1l-0.9,1.2l-0.2,1.1
		l-0.3,0.5v0.5l0.7,1.1l0.7,0.6l1.5,0.6l0.6,0.6l-0.8,0.8l-0.3,1.3l-0.1,1.4l-0.3,1.1l2.9,1l5.3-1h3l2.5,1l12.1,7.9l5.2,2.6l3.8-0.5
		l0.2-6.4l0.7,0.4l0.6,0.5l0.5,0.6l0.3,0.6h0.5L2398.4,1244.8z M2187.8,1359.9l-1.5-1.4l-3.7-5.1l-0.2-0.2v-0.2l-0.1-0.1h-0.3
		l-0.3,1.5l-0.8,1.1l-1.1,0.9l-0.4-0.6l-0.7,0.4l-0.5,0.7l0.3,0.4l0.6,0.4v0.7l-0.4,0.8l-0.4,0.7h0.5l-0.5,0.7l0.5,1.5l0.3,0.5
		l0.6-0.1l2.2-1.1l0.8-0.6l0.8-0.3h1.2l4.3,2.2l2.5,0.8l1.8-1l0.1-2.1l-1.9-0.6L2187.8,1359.9z M2221,993.7l1.7,0.3h0.2l0.8-0.2
		l0.3-0.1l-0.8-1.4l-0.8-1.7l-0.7-1.1l-0.8,0.4l-0.8,1.8l0.1,1.3L2221,993.7z M2019.5,1455l1.5,1.8l-1-3.5l0.1-2.3l0.7-2.1l-0.4-0.6
		l-0.5-0.9l-0.3-0.4l-0.1-0.2v-0.3l-0.1-0.2h-0.4l0.3,2.6l-0.1,3.1L2019.5,1455z M2256,1086.1l1.5-1.6l15.1-6.9l9.6-6.2l0.8-0.2h0.8
		l0.7-0.2l0.3-0.8l0.1-0.7l1.1-1l0.4-0.2l0.8-0.3l0.6-0.6l0.5-0.6l0.6-0.6l0.7-0.3l2.3-0.4l2.9-1.2l10-7.4l3.9-4.1l5.5-3.5l1.2-1.3
		l0.9-2.5l1.9-3.2l0.3-2l-0.4-0.7l-1.4-1.1l-0.3-0.6l-0.1-0.7l-0.4-2.1l-0.3-0.7l-0.5-1.6l0.3-2.1l0.1-2.2l-0.9-2.2l-1-0.8l-2.5-1.6
		l-1.2-1.3l-0.5-1.8l0.1-2.4l0.6-3.7l0.8-2.2l0.9-0.8l7.3,0.3l1.2,0.6l0.6-1l0.7-0.6l0.6-0.7l0.3-1.5l0.3-1l1.8-3.5l-1.8-1.2
		l-0.9-0.2l-0.7,0.8h-0.5l-0.9-1.4l-1.8,0.1l-1.7,0.3l-0.7-0.7l-0.3-0.9l-1.3-2.2l-0.4-1.3v-1.2l0.4-2.2l-5,0.8l-2,0.1l-1.9-0.2
		l-1.5-0.5l-0.9-0.6l-0.7-0.7l-0.6-0.9l-0.5-1.1l-0.5-0.1l-2.2-0.1l-0.7-0.2l-1.3,0.8l-2.4-0.9l-2.4,1.9l-1.2,0.2h-1.3l-1.2,0.1
		l-1.2,0.7l-2.2,2.2l-1.2,0.7l-1.6,0.3l-2.9-0.5l-1.5,0.1l-1.3,0.6l-3.2,2.4l-0.6,0.8l0.7,1.9l0.9,1v0.5l-2,0.1l-1.7-0.3l-3.5-1.1
		h-1.4l-0.6,0.6l-0.7,1.7l-0.5,0.5h-0.7l-0.8-0.3l-1.5-0.8l-1.4-0.4l-1.4-1.1l-1.1-1.6l-0.6-1.6h-1.2l-2.3-0.5l-4.3-2.1l-0.9-0.8
		l-2.1-1.1l-2.3,0.3l-4.6,1.4l-3.6-0.5l-1.2,0.6l-0.4,0.6l-0.6,1.5l-0.4,0.6l-1.8,1.4l-1.2,1.3l-0.8,0.6l-1.2,0.3l-2,0.2l-1-0.2
		l-0.9-0.6l-1.5-1.2l-0.7-1.6l-0.9-3.7l-1-1.7l-1.1-0.6l-1.4-0.1l-1.8-0.4l-4.2-2.9l-1.6-0.7l-4.6-0.7l-1.4-0.6v-0.3l-0.1-0.3
		l-0.2-0.2l-0.2-0.1l-0.7,0.8l-0.8,0.4h-0.9l-0.8-0.3l-0.2-0.3l-0.2-0.1l-0.2,0.1l-0.3,0.3l-0.8,2.7l-2.4,1l-4.7,0.6l-0.4,0.5
		l-0.3,0.6l-0.5,0.6l-0.8,0.5l-0.6,0.1l-4.5-0.6l-0.8-0.7v-1.2l-2.2-3.4l1.2-0.6l0.5-0.1l1.5-1l-0.3-1.6l-1.3-1.1l-1.7,0.2l0.3-1.1
		l1.2-2.2v-0.4l-0.7-0.5l0.1-0.9l0.4-1l0.4-0.7l-1.1-1.4l-1.2-3.5l-1.4-2l-1.3-2.3l-0.7-0.4h-0.7l-0.4-0.4l0.3-1.4l-1.8-0.5h-9.2
		l-2.5,0.8l-0.8-0.1l-1.3-0.9l-0.8-1.4l-0.6-1.6l-0.8-1.4l-1.3-1.2l-1.6-0.5l-6.4-0.5l-0.6-0.4l-1.2-1l-0.6-0.3l-0.8,0.3l-0.7,0.6
		l-0.7,0.4l-0.8-0.4l-1.2-1.1l-0.7-0.5l-2.2-0.8l-3.2-1.9l-1.3-0.2l-1.4,0.1l-1.3-0.3l-2.5-1l-1.3-0.1l-2.1,0.2l-1.7,0.7l-0.4,1.5
		l0.2,2.1l-1,2.8l0.8,1.1l-0.6,0.5l-0.3,0.5l-0.5,1l1,0.4l0.9,1.1l0.5,1.5l-0.1,1.7l-0.6,1l-0.9,0.4l-2.6-0.4l-9.2,0.3l-1.2-0.6
		l-2.8,0.8l-1.5,0.1l-1.5-0.3l-0.4-0.4l-0.1-0.4V968l-0.2-0.4l-2.1-1.8l-1.3,0.5l-1.3,1.3l-2.1,2.9l-1.1,0.2l-1.1-1.4l-1.6-2.8
		l-1.2-0.6l-3.9-1l-1.2,0.2l-1.4,0.9l-4.6,0.7l-5.7,2.1l-2.6,0.3l-2.9-1.1l-0.5-0.5l-0.4-0.6l-0.6-0.5l-0.9-0.3l-0.7-0.4l-0.2-0.7
		l-0.1-0.8l-0.5-0.6l-1.2-1l-0.9-1.5l-0.5-1.8l0.2-1.8l-1.3,0.6l-2.2,0.6l-2-0.3l-0.8-1.9l-4.5-2.7l-1.1-1l-0.4,1l-0.6,0.8l-0.6,0.2
		l-0.7-0.6l-3.6,2.8l-1.8,1l-2.2,0.2l-4-1.9h-1.9l-0.1,2.4l-0.7,0.2l-1.2,0.8l-0.6,0.1l-0.7-0.5v-0.6l0.1-0.7l-0.5-0.6l-0.3-0.1
		h-1.2l-0.5-0.2v-0.4l0.2-0.5l-0.1-0.5l-2.9-3.8l-1.3-1.1l-2.5-1.6l-0.8-0.1l-0.8,0.1l-0.7-0.1l-0.7-0.8l-0.4-0.9l0.1-0.6l0.3-0.5
		v-0.8l-1.4-3.5l-2-0.7l-5.7,1l-5.9-0.5l-2.8-0.9l-2.6-2l-0.9-1l-1.2-0.4l-2.6-0.3l-0.6-0.5l-1.2-0.8l-0.6-0.3l-2.8,0.3l-2.4-2
		l-2.5-1.4l-4.3-0.7l-1.4-0.8l-1.2-1.5l-0.4-1.4l0.6-1.3l1.6-1.3l-1.7-0.5l-1.7,0.7l-1.3,1.4l-0.6,2.1l-0.2,2.6l-0.7,1.4l-1.3,0.5
		l-2.1-0.2l-1.8-0.5l-1.7-0.9l-1.3-1.5l-0.9-2.2l0.7-0.8l3.1-3.3l0.9-1.3l1.1-3.2l0.8-4l-0.3-3.7l-2.2-2.2h-0.9l-0.8,0.3l-0.8,0.1
		l-3.1-1.6l-2.3-0.7h-1.5l-1.1,0.7l-0.6,1.8l-0.5,0.9l-0.8,0.5l-0.9,0.1l-0.8-0.1l-0.9-0.5l-0.4-0.5l-0.6-1.8l-0.1-0.9l0.2-0.6v-0.5
		l-0.7-0.6l-1.4-0.6l-0.7-0.1l-1.5,0.6l-1.6,0.2l-0.8,0.5l-0.8,0.1l-0.4-0.8l-0.3-2l-0.9-1.2l-2.2-1v-1.2l0.1-2.1l0.5-2.8l-1.3-0.8
		l-2.7,1.4l-2.8,2.5l-3,1.4l0.5,0.5l0.7,0.8l0.5,0.3l-1,0.7l-0.6-0.5l-0.6-1l-0.9-0.8h-1.1l-0.8,0.4l-1.7,1.1l-5.2,2l-1.6,0.2
		l-0.9,0.3l-2.2,1.7l-0.6-0.2l-0.2-0.5l-0.2-0.5l-0.4-0.2l-0.5,0.1l-0.4,0.3l-0.3,0.2l-0.2,0.1l-0.9-0.3l-0.6-0.7l-0.6-0.7l-0.5-0.4
		l-0.8,0.1l-2.4,0.7l-3.3,0.4l-3.2-0.4l-3-0.9l-7.2-3.4l-1.4-2.2l-1.7-0.7l-3.2-0.7l-4.3-1.9l-2.3-0.5l-0.8-0.4l-0.8-0.3l-0.8,0.2
		l-0.4,0.4l-0.1,0.6v0.6l-0.1,0.5l-0.6,1.9l-0.3,0.4l-0.3-2.2l-0.8-2.5l-0.7-1.1l-1.5-1.5l-1.6-1.1l-0.9-0.2l-1.3,0.5l-1.6,0.7
		l-3.6,0.4l-3.8-0.2l-1.9,0.2l-1.2,0.7v0.7h0.5v1.3l-1.2,0.4l-3.3,2l-0.8,1l-1,0.3l-0.4,0.5v0.4l0.5,0.7l0.3,1.2l0.9,2.4v0.8
		l-3.7-3.2l-2.3-1.5l-1.7,1.3l-1.4-0.2l-3.4-1l-1.7-2l-0.7-0.5l-0.9-0.2l-3.4-1.3l-4.6-0.7l-3.6-1.2l-1-0.2l-2.2,0.7l-1-0.1
		l-0.8-1.2l-1,1.9l-0.7-0.5l-0.8-1.1l-1.5-0.3l1.2-0.7l0.6-0.6l0.3-0.6l0.3-0.6l0.7,0.2l0.8,0.5l0.3,0.3l0.6-0.2l0.5,0.1l0.3-0.1
		l0.1-0.9l-0.1-0.7l-0.3-0.6l-0.4-0.4l-5.1-0.9l-0.7-0.4l-0.8-0.8l-1-0.7l-1.3-0.1l0.1-1.8l-1.9-0.1l-5.7,1.8l-0.8,0.5l-0.8,0.8
		l-0.8,0.6l-2.1,0.2l-0.8,0.4l0.6,0.8l-0.3,0.1h-0.1l-0.1,0.6l-0.6-0.4l-0.5-0.1l-1-0.2v0.6l0.5,0.5l0.5,0.9l0.2,0.9l-0.3,0.5
		l-0.7-0.3l-0.7-1l-0.6-0.2l-0.3,0.3l-1,1.4l-0.5,0.5l-1.1,0.6l-0.7,0.1h-0.8v-0.5l0.1-0.1h0.2l0.3-0.1l-0.4-0.2l-0.4-0.3l-0.8-0.9
		l1-1.1l1.4-0.9l3.3-1.5l-2.1-1.4l-2.2-0.5l-2.2,0.5l-2.1,1.3l-0.4-0.5l-0.2-0.1l-0.9,0.6l-1.2-0.4l-1.3,0.6l-2.5,1.9v0.6l0.7,0.6
		l0.4,0.2l-0.5,0.1h-0.4l-0.4,0.1l-0.4,0.5l-1.8-1.3l-0.6-0.2l-0.6,0.2l-0.1,0.5l-0.1,0.5l-0.5,0.3h-3.4l-1.8,0.3l-4.7,1.5l-2.1,1.6
		l-9.3,1l-3.5-0.4l-0.7,0.4l-0.7,1.3h-0.5l-1.4-1.4l-2.1-0.6l-2.1,0.4l-1.6,1.5l-2-2l-16.8-1.5l-1.5-0.5l-6.1-2.9l-5.3-1.1l-1.7-0.9
		l-0.8-0.2l-0.8,0.2l-1,0.9l-0.6,0.2l-5.2-1.6l-0.9,0.6l-0.7-1.3l-1.8-0.5l-6.5-0.3l-2.5-0.9l-5.3-3.6l-1.2-0.5l-3.1-0.3l-1.1,0.2
		l-0.4,0.6l-0.2,0.7l-0.6,0.7l-0.7,0.4l-1.6,0.6l-0.8,0.5l-0.5-0.7l1.3-1.2l0.9-1.6l-0.2-1.4l-2.2-0.7l-15,0.7l-3.8-0.7l-0.9-1.8
		l-0.6-0.5l-0.4,1.5h-0.5l-1.4-2.2l-4.1-4.9l-1.6-1.4l-2.4-1.2l-1.2-0.1l-0.5,0.9l-0.4,1.2l-0.8,0.5h-2.4l0.2,0.3l0.2,0.7l0.2,0.4
		l-0.9,1.1l0.3,0.8l0.5,0.7l-0.4,0.9h-8.6l-1.2,0.6l-1.1,0.8l-1.1,0.5l-1.2-0.6l-1.1,0.7l-5.8-0.7l-0.9-0.4l-2.3-1.8l-1,0.2
		l-0.6,0.6l-0.5,0.6l-1.8,0.5l-2,0.9l-1.1,0.2h-3.8l-3.8,0.7l-1-0.3l-1.8-1l-1-0.2l0.2,0.5l0.2,1.1l0.1,0.5h-1.9l-0.8,0.2l-0.8,0.6
		l-2.7-1.5l-3.8-1.4l-3.7-0.4l-4.1,2.1l-2-0.2l-3.1-0.9l-4.5,0.4l-1.1-0.4l-7.3,0.3l-4.3,0.9l-0.7,2.4l-1,0.8l-0.5,1.4l-0.3,1.7
		l-0.5,1.7h-0.5l-0.7-1.8l0.4-1.4l0.7-1.2l0.6-1.1l-0.1-2.1l-0.8-0.7l-1.3-0.2l-0.8-0.6l-1.2,0.7l-4.6,0.2l-2.8-0.5l-1.5-0.6h-1.1
		l-0.9,0.4l-0.6,0.6l-0.6,0.3l-1-0.5v-1.1l0.5-0.3l0.2-0.3l0.2-0.4l0.3-0.5l-3.5-1.8l-4.7-6.5l-3-2.3l-6.2-3.5l-0.8-0.3l-2.9-0.4
		l-1,0.5l-0.8,0.8l-0.6,0.6l-0.9-0.4l-0.7,1.5l-0.9,1.3l-0.7,0.3l0.2-1.7l-1.9-3.5l-0.3-1.4l-1.3,0.7l-0.5,0.1l-0.6,0.2l-0.1,0.5
		v0.5l-0.1,0.3l-0.7,0.3l-0.6,0.1l-0.4-0.5v-1.5l1.7-2.2l0.3-0.6l-0.2-1l-0.6-0.8l-0.6-0.3l-0.3,0.4l-0.5,1.6l-1.3,1.5l-1.6,1.1
		l-3,0.7l-1.5,0.8l-1.3,1.1l-1,1.1l0.2,0.4l0.2,0.8l0.2,0.3l-1.9-0.7h-0.9l-0.8,0.6l1.4,2.2l-0.7,0.8l-3.7-0.2v-0.6l0.4-0.1l0.2-0.1
		l0.5-0.5l0.6,0.5l0.3,0.1l0.7-0.6l-0.5-0.8v-0.8l0.4-0.9l0.6-0.8l0.4,0.2l0.7,0.2l0.5,0.3v-0.7l-1.1-1.4l-0.6-1.8l-0.8-1.5
		l-2.1-0.3l-1.5,2l-1.9,1.7l-2.1,1.2l-2.2,0.7h-2.5l-1.1,0.3l-0.5,0.8l-0.3,1.2l-0.4,1.1l0.2,1.1l1.4,1.1l-0.4,0.2l-0.4,0.4
		l-0.3,0.2v0.6l0.2,0.1l0.7-0.1l-0.8,0.4l-0.8-0.1l-0.7-0.6l-0.3-1.1l-10.8,8.3l-2.2,1.1l-1.8-0.3l-0.5,0.2l-1.3-0.2h-0.3l-0.1,1.1
		l0.4,1l0.6,0.8l0.6,0.6l-0.9,1.4l-0.8-0.4l-0.4,1.6l-0.3,2.1l-0.6,1.6l3.3-0.1l1.5-0.6l0.8-1.3l0.7,0.5l0.3,0.3l-0.6,0.3l-0.2,0.2
		l-0.3,0.4l4.5-0.7l1.7-0.8l0.4,0.1l0.1,0.7l-0.3,0.6l-0.6,0.5l-0.6,0.2l-7.5,1l-1.4,1.1l1.2,0.5l1.8,2l1.3,0.5l2.5-0.2l1.3,0.2
		l1.5,0.7l-1.4,0.9l-0.8,0.7l-0.4,0.9v1.6l0.6,3.1v1.6l-0.6,1.7l-0.6-1.6l-0.7-1l-1.7-1.7l-0.5-1.1l-0.3-1.1l-0.5-0.9l-1-0.4
		l-2.2-1.4l-1.5-0.3l-0.7,1.3l0.2,2.4l-0.3,0.9l-0.9,1.1l-1.7-1.5l-0.7-1l-0.3-1.3l-4,1l-0.5,0.4l-0.2,0.5l-0.3,0.4l-1.7,0.6
		l-0.8,0.6l-0.6,0.7l-0.3,0.9l-0.7,0.7l-3.9,1.9l-2.5-1.1l-2.8,0.8l-2.6,1.5l-2.1,0.8l-1.4-0.2l-2.9-0.9l-1.3-0.2l-1.3-0.6l-2.3-2.4
		l-0.9-0.6l-0.8,0.2l-0.6,0.5l-0.6,0.8l-2.3,0.6l-3.2,2.2l-3,1.3l-0.7,0.1l-0.6,0.3l0.7,0.6l0.9,0.5h0.4l1.1,2.2l0.8,0.6l1.6-0.1
		l-1.3,1l-2,0.8l-2,0.1l-1.4-1.2h-0.6l-0.4,1.5l-0.8,1.4l-0.9,1.1l-0.9,0.8l-0.9,0.4l-1.3,0.3h-1.3l-2.8-1.2l-2.4,1.3l-3.6,3.4
		l0.7,1.8l1,0.1l2.3-1.2l-0.1,0.9l1.2,0.1l1.7-0.4l1.3-0.7v0.7l-1.3,0.2l-0.6,0.2l-0.6,0.3l-0.7,0.6l-0.3,0.5l-0.2,0.6l-0.4,0.6
		l-1.1,0.9l-0.9,0.3l-0.9-0.3l-1.1-0.9l-0.4,1.2l-0.8,0.7l-0.8,0.8l-0.4,1.9l-0.6,0.9h-0.9l-0.7,0.6l0.6,2.4l1.1,0.8l0.6,0.6
		l-0.3,0.9l-0.3,0.6l-0.3,0.8l-0.2,0.8l-0.1,0.7l-1.5,4.2l-0.5,0.9v0.7l0.7,0.7l0.8,2.3l0.4,0.3l0.5-0.9l0.7-2.1l0.6-0.8l0.7-0.6
		l0.8-0.6l0.7,0.1l0.3,1.3l0.1,0.3l0.7-0.2l0.5-0.6l-0.5-1.1v-0.7l0.9,0.4l1.1,1.9l0.7,0.5l1.3,0.1l0.6,0.4l0.1,0.6l-0.1,0.9
		l-0.2,0.6l-0.7,0.8l-0.2,0.4l0.1,0.6l0.4,1.3l0.1,0.8l1.4,0.6l1,0.7l0.6,1.1l-0.5,1l-0.6,0.8l-0.7,0.4h-0.9l0.8,1.8l0.4,1.6
		l0.5,1.3l1,0.8l1.4,0.3l0.9-0.5l1.7-1.9l-0.3-1.7l1.6-0.3l3.7,0.6l2-0.3l1.7-0.8l1.1-1.4l0.3-2.3l1.6,0.8l0.2,1.7l-0.5,1.6
		l-0.5,0.7l-1.8,0.5l-1.1,1l-1.9,2.7l-2.2,1.2l-0.2,0.2l-0.8,0.3l-0.6,0.8l-0.4,0.6l-0.8,1.2l-0.5,2.1l-0.3,2.1l0.1,1.2l-0.9,1.5
		l-1,2.6l-0.4,2.4l1.1,1.1l1.7,0.8l0.4,1.7l0.2,1.9l1.1,1.2l1-1.3l0.6-0.6l0.7-0.2l0.6-2.2l0.2-0.6l2.7-0.7l0.8-0.8l-1-1.3l2.4-1.9
		l1-0.5l-0.4,1l1,0.8l0.8-0.6l1.6-2.3l-0.7-0.8l0.2-1.2l1.1-2.7l1,1.4l0.8,1.6l0.9,1.3l1.4,0.6l1.3-0.5l1-1.1l0.7-1.6l0.6-1.6h0.5
		l-0.6,2.2l-2.7,6.2l-0.9,1.2l-0.9,0.3l-0.9,0.8l-0.7,1.2l-0.3,1.5l0.1,1.8l0.9,3.5l-0.9,0.8v1.1l0.2,1.1l-0.3,1l-0.7,0.3l-1.1-0.2
		l-1-0.5l-0.7-0.5l1-0.6v-0.9l-0.7-0.8l-0.9-0.3l-1.1,0.3l-1.5,0.7l-1.4,0.8l-0.6,1l0.6,0.4l2.5,0.5l0.9,0.6l0.6,1l0.4,1.9l0.7,1.1
		l1.8,1.1l2.4,0.3l2.3-0.2l1.6-0.5l1-0.7l1.9-1.5l1.6-1l0.2-0.2l0.3-0.1l0.7-0.1l0.8,0.3h0.6l0.7-0.4l-0.6,1.5l-1,1l-2.4,1.6
		l-1.3,1.1l-2.8,3.4l-0.6,1.3l-0.4,0.3l-2.7-0.7l-1,0.2l-0.3,0.3l0.2,0.5l0.2,0.8v3.3l-0.5,0.7l-1-1.6h-0.5v1.4l-0.8,2.2l-0.3,1.2
		l1.4-0.5l3.9,0.3l0.8-0.2l0.8-0.8l4-1.9l1.5-0.4l1.9-0.7l1-1.8l0.8-1.9l1.1-1l0.7-0.2l0.3,0.1l0.1,0.7v3.1l-0.3,0.8l-0.5,0.5
		l-1.5,1l-1.3,0.6l-2.3,2.2l-0.4,0.2l-0.9,0.4l-3.9,3l-1.4,1.8l-0.4,0.3l-0.7,0.5l-0.4,0.9l-0.2,0.9l-0.2,0.5l-2,1l-0.4,0.4l0.3,0.6
		l1.4,0.7l0.4,0.8l-0.6,0.9l-1.4,0.4h-3l-0.8,0.7l-0.2,1.8l1.5,19.5l-0.2,1.4l1.2,0.5l1.2-1l1.2-1.4l1.2-0.5l1.5-0.5l1.4-1.1
		l1.1-1.5l0.8-1.7l0.7-0.7l1.7-0.8l2-0.6l1.5-1l0.6-1l0.8-2.2l0.7-1l1.3-0.9l1.3-0.3l2.7-0.1l1.4-0.6l2.5-1.8l1.4-0.6l11.5-1.9
		l1.2-0.7l1.9-1.8l0.7-0.5l0.6-0.1l1.3-0.1l1.4-0.6l2.2-1.6l0.7,0.9l0.7,1.5l-0.2,4.3l0.3,1.6l0.9,0.7l1.2-0.1l1.3-0.7l1.6-0.1
		l1.4,0.6l1.1,1.1l0.6,1.5l-0.2,1.8l-0.7,1.2l-1.2,1l-2.1,1.4l-2.2,2.2l-2.9,4.3l-0.7,1.8l-0.1,1.9l0.8,1.8l2.6,1l0.6,0.7l0.1,1.3
		l-0.3,2.6l6.5,0.4l3.4-0.9l2.4-2.5l0.7-1.2l0.9-0.9l1-0.5l1.2,0.2h1.4l0.7-1.3l0.4-1.7l0.4-1.1l1.5-0.6l0.2,2.7l0.5,2.9h2.3
		l0.5-0.6l0.3-0.6l0.4-0.6l0.7-0.3l2.1,0.1l4.6-1.1l2.1-1.1l1.1,0.3l2.1,1.5l1.3,0.7l4,0.2l-1.1,3.1l0.1,0.9l1.2,0.7l1.3,0.1
		l1.6-0.2l1.5-0.6l1.1-0.8l0.4-0.7l0.1-0.7l0.2-0.6l0.6-0.5h0.6l1.1,0.8l0.8,0.1l1,0.4l0.9,1.3l0.7,1.7l0.3,1.6l1-0.8l1.8-2.1l1-0.7
		l1.1-0.2l2.7,0.1l1.3-0.2l5.3-1.8l2.4-1.5l1.5-2.2l0.2-1.6l-0.5-3.3l0.2-1.4l0.6-0.6l1.1-0.8l1.3-0.7l1-0.2l2.4,1.5l2.3,2l2.3,1
		l2.6-1.1l1.8-1.3l1.7,0.8l1.8,1.4l2.1,0.5l4.6-0.4l1.8-1.1l0.5-3l2.2,0.4l2.7,4.2l2.2,0.7l5.3-0.2l2.5-0.7l1-2.2l1.8,0.7l1,1.2
		l0.3,1.6l-0.6,4.3l0.6,0.7l1.3,0.2l2,0.7l-0.8,1.9l-1.8,8.1l-0.3,0.9l-0.6,0.8l-0.5,0.9l0.2,0.8l0.5,0.8l0.4,0.9l0.2,1.9l0.4,2
		l1,1.6l2.1,0.8l0.7-0.2l1.1-0.6l1-0.7l0.5-0.6l0.6-0.5h1l6.1,1.2l3.6,1.3l3.4,2.1l3.2,3.4l1,1.5l0.8,0.9l-3.6,5.2l-2,2.1l-0.5,1
		l0.1,0.7l0.2,0.7v0.7l-2.8,4.6v0.8l-2.3,0.2l-1,0.4l-0.9,0.7h0.2v0.6l-0.1,0.8l-0.2,0.6l-0.3,0.1l-0.9-0.2l-0.3,0.1l-2.3,3.8
		l-2.4,2.4l-2.4,1.9l-4.4,1.9l-0.7,0.5l-4.9,0.1l-1.3,0.3l-0.8,0.9l-2.6,4l-0.6,1.5l-0.5,0.8l-2.6,2.2l-0.9,1.2l-0.3,0.7l0.2,2.4
		l-0.6,1.8l-3,4.4l-1,1l-2.1,0.2l-4.6-0.4l-1.6,0.7l-0.3,1.9l-0.8,1.3l0.2,1.2l0.7,1.1l2.3,2.5l0.9,1.7l1.6,4l0.7,2.1l0.6,0.8
		l1.1,0.3l0.8,0.6l0.6,1.6l-0.3,1.2l-1.2,0.4l-0.1,2.4l0.1,0.7l0.3,1l-0.1,0.6l-0.2,0.6l-0.1,0.9v1.9l0.2,1.4l0.9,3.2l0.6,3.3
		l0.2,1.7v1.2l-0.6,1.7l-1.7,3.2l-0.5,1.5l0.2,1.7l0.7,1l0.8,0.8l0.7,1.3l0.4,1.7l-0.2,1.1l-1.8,2.4l-1.4,3.4l0.5,3.2l1.7,2.8
		l2.5,2.3l-1.3,2.3l-0.7,0.7l-3.2,2.3l-0.5,0.6l-0.3,0.8l-0.1,1.6l-0.2,0.6l-1.4,0.9l-1.4,0.1l-1.5-0.1l-1.4,0.2l-3.2,2.1l-1.3,0.7
		l-0.6,0.9l-0.8,2.2l-0.7,1.1l0.7,1.4l0.6,3.3l0.8,1.3l0.9,0.3l2,0.3l0.8,0.3l0.8,0.8l1,1.6l1.7,2.1l3,5.4l-1.3,2.1l-0.4,1l0.1,1
		l-0.3,0.8l-0.5,2.4l-0.2,0.4l-0.8,0.6l-0.2,0.5v0.6l0.3,0.9v0.5l-0.1,0.8l-0.1,1.6l-0.3,0.9l-1.9,2.8l-0.8,0.5l-1.7,0.7l-0.6,0.5
		l-0.6,1.3l0.1,1l0.3,0.9l0.1,0.8l-0.3,0.9l-0.8,1.6l-0.4,0.9v0.9l0.2,0.7l0.1,0.8l-0.8,2.1l-1.1,0.5l-10.9,1.4l-2.3-0.1l-1.6-1
		l-1.3,0.4l-3-0.1l-1.4,0.3l-1.2,0.6l-1,0.3l-16.1-0.8l0.7,1.6l2.4,6.7l1.3,1.2l2.2,3l1.2,1.2l2.5,1.3l0.7,0.8l0.7,2.2l1.1,0.9
		l1.6,0.7l3.1,0.8l0.6,0.9v2.1l-0.4,2.2l-0.6,1.4l-0.4,1.3v2.1l0.4,2.1l0.6,1.1l1.4,1.1l3.6,4.5l-1,1.8l-0.1,2l0.6,1.9l1,1.5l1.9,1
		l2.1,0.6l1.8,0.8l0.9,1.8l-0.2,0.9l-0.8,1.9l0.1,0.8l0.8,0.8l1.1,0.6l1.1,0.2l0.9-0.4l1.8-1.1l2-0.2l2,0.6l1.7,1.1l1.2,1.1l1,1.7
		l0.5,1.9l-0.5,1.7l0.8,0.7l0.1,0.8l-0.4,0.9l-0.8,0.9l-2.5,4.9l-1.7,2.3l-1.6,1.3l1,1.9l-0.4,1.5l0.1,1.3l-0.6,0.4l-0.9,0.7
		l-0.9,0.9l-1.2,0.6l-3.5,0.7l-0.7,0.7l-0.4,0.9l-1,1.2l-1.2,1l-1.1,0.5l-4.4,3.5l-0.1,0.4l-0.7,1.2l-0.3,0.7l-0.5,3.3l-0.2,2.2v0.9
		l0.1,0.8l0.4,0.7l0.5,0.3l0.5,0.4l0.2,0.8l-0.4,1.3l-3.1,4.5l-1.3,4.8l-0.8,1.1l0.8,1.2l-0.1,1.1l-0.8,1l-1,1.1l1,0.6l2.2,1.6
		l7.9,10.1l0.3,0.6l0.5,1.2l0.3,0.6l0.5,0.6l1.3,0.9l0.4,0.5l3,7.7l1.8,1.6h1.1l1.9-0.4l1.8-0.8l0.9-1.3l0.4,0.1h0.2l2-0.6l2.1-0.2
		l1.2,0.9l-0.8,2.7l-0.6,1.4l-1,3.2l-1.4,2.9l-0.7,2.8l-0.6,1.2l-0.7,2.2l-1.9,0.2l-4.2-1.7l-1.3-0.1l-0.6,0.7l-0.8,2l-0.7,1
		l-0.6,0.4l-0.9,0.3l-0.9,0.5l-0.9-0.1l-0.9-0.3l-0.9-0.1l-0.8,0.6l-2.3,0.5l-0.5,0.6v0.7l0.2,0.9v0.9l-0.4,1.7l-1.6,4.4l-0.9,3.2
		l-2.1,3.6l-6.8,5.7l-1.3,2l-1,2.8l-0.7,4.5l-0.4,1.4l-0.5,0.7l-2,2.2l-0.7,0.5l0.2,0.6l-0.1,0.5l-0.2,0.4l-0.1,0.5l-0.8,0.9
		l-0.3,0.4v1l0.1,0.1h0.3l0.4,1.3l0.1,0.7l0.2,0.6l0.6,1l0.6,0.6l1.3,1l0.4,0.6l0.6,1.7l0.5,2.2l0.2,2.1l-0.2,1l1.5,3.1l0.6,7.4
		l0.7,3.1l-0.5,1.4l0.4,2.1l1.1,4.1l1.2,0.7l1.3,0.6l1.4-0.2l1.5-1.3l1.1-0.5l18-0.5l-1-0.5l-2.2-0.3l-1-0.6l5.9,0.6l2.4,0.8
		l6.5,3.2l1-0.1l-0.1-1l-0.7-1.7l-1.6-2.5v-0.6h2.3l2.1-1.5l3.7-4.2l-0.8,1.7l-2.6,3.9l-0.9,0.7l-0.5,1.1l0.5,2.4l1.3,2.1l1.5,0.7
		l1.5,0.7l3.1,2.5l1.3,0.6l1.8,0.5l2,1l18.2,13.2l2.2,2.2l1.7,2.9l2.4,6.2l2.1,2.7h2.6l0.5-1l-0.5-5.6l0.6-2l1.4-1.1l3.2-1.2
		l1.4,1.2h1.9l1.9-0.8l1.4-1l-2.1,2.8l-6.1-0.5l-2.5,2.2l-0.4,2.1l0.7,3.8l-0.7,2.1l-1,0.8l-2.8,1l-1.4,0.7l-1.4,1.5l-0.4,1.7
		l0.5,1.7l1,1.8l0.7,1.8l0.9,3.7l1.1,1.1l1.3,0.4l5,0.4l0.7,0.5l3,2.7l0.7,1.8l-0.5,2.8l0.6,1.4l1.3,0.2l1.5-0.5l0.6,0.1l-1.6,1.8
		l-0.8,1.2l-0.6,0.6l-0.9,0.2l-1.1-1.3l-0.6-0.9l0.4-0.8l-0.7-0.8l-2.3-2.2l-0.6-0.1l-0.9,0.5l0.6,0.8l1.6,1.4l1.7,3.2l2.1,2.8
		l1.8,4l1.7,3l0.6,1.6l0.5,1.7l0.2,1.5l0.5,1.3l3.6,2.7l1.7,2.8l1.5,3.1l2,2.5l3.1,1.1l3.3-0.7h1.6l1.4,0.9l4.9,4.8l1.6,2.3l1.1,1
		l3.2,0.9l1.5,0.9l1.6,0.6l1.8-0.7l1.3,1l3.1,1.8l2.7,2.2l0.9-0.2l1.1-0.7l8.8-2.6l0.2-0.7l0.5-0.5l0.5-0.7l0.3-1l-0.2-0.8l-0.4-0.9
		l-0.2-0.8l0.4-0.6l-0.5-1.2l-0.1-1.3l0.4-1.1l0.7-0.7l0.3-0.9h1.4l1.8,0.7l1.2,0.8l0.6,1.5h1.5l0.4-4.4l0.4-0.9l3.4-5.1l-0.1-0.7
		l-0.3-0.8l-0.1-0.7l1.2-0.5l0.6-0.4l0.6-0.5l0.4-0.5l0.7-1.4l1.2-3.4l1.4-1.4l2.1-3.6l0.9-1.3l0.9-0.6l1.2-0.4l2.7-0.4l0.9-0.4
		l3.5-2.2l5-1.3l5.2-2.8l0.8-0.7l0.8-0.2l1.7,0.1l9.3,1.7l3.1,0.1l3.2-0.7l1.6-0.7l0.6-0.4l0.6-0.6l1.4-3l9-5.6l0.6-0.8l0.3-1.5
		l0.7-1.3l1-1.1l0.5-0.8l2.1-3.7l0.9-0.8l1.3-0.4l13.3,1l2.1-0.3l8.6-2.9l1.9-0.2l7.3,0.8l7.5-2.1l3.3,0.3l5.7,1.9l3.3-0.3l4.8-1.3
		l0.8,0.4l0.8,0.7l11.1,3.2l2.7,0.1l3.3-1.2l1.5-1.1l1-1l1.1-0.7l7.6-0.9l19.1,1.2l2.8-0.4l1.4,0.1l1.6,0.9l2.1,2.7l0.8,0.5l0.7-0.2
		l0.6-0.8l0.7-0.2l1.4,0.7l1.5,1.1l1.5,0.7l1.5-0.7l1.3,0.5l2.1-0.4l1.9-0.8l0.8-0.8l0.4-0.3l1.9-2l1.5-4.1l2-3l1.2-0.7l6.4-1
		l0.9,0.2l2.1,0.8l0.7,0.2l1.5-0.4l2.4-1.3l1.4-0.3l1.7,0.2l1.6,0.7l2.6,1.6l2,2.2l1.8,2.5l2.1,2.2l2.8,0.8l1.6-0.2l1.5-0.6l1.1-0.9
		l0.7-1.8l0.7-0.3l0.8-0.3l0.7-0.5l0.4-0.7l0.4-1.8l0.3-0.7l1.2-1.3l1.2-0.3l0.8-1.1l0.7-3.8l1-1.2l2.6-1.8l0.9-0.9l0.5-0.2l1.7-0.1
		l0.6-0.2l0.4-0.5l0.1-0.8l-0.1-0.7l-0.3-0.8l-0.2-0.8l0.1-1.1l1.6-2.6l2.2-5.7l0.4-2.6l0.9-2.5l0.6-3.3l1.3-3.7l1.9-2.6l4.4-4.4
		l2.2-3.2l1-1.9l0.4-1.7l0.7-0.8l3.8-2.7l3.8-1.7l1.1-0.2l0.7-0.3l1.5-1.3l0.7-0.5h0.6l0.4,0.3l0.5,0.1l0.7-0.5l0.1-0.7l0.8-3.1
		l0.2-0.5l0.3-0.5l0.6-0.6l0.6-0.5l0.4-0.2l1.5-0.3l1.2-0.8l3.3-3.3l1.2-0.7l1.3-0.5l3.4-0.3l4.1-1.1h0.8l2.7,0.8l0.5,0.5l0.4,0.5
		l0.4,0.2l3.7,1.1l1.7,0.2l-1-0.8l-0.2-0.9l0.4-0.9l0.8-0.8l1.1-0.5l1.3-0.2l4.8,0.1l2.4,0.5l3,1.4l0.7,0.5l1.8-1.2l1-0.5l0.9-0.2
		h2.8l2.1-1.1l1.2-0.3l2.1-0.7l0.8-0.5l0.6,0.5h0.7l0.7-0.4l0.6-0.7l1-0.8l0.3-1.1l-0.5-1.1l-1.4-0.8l-0.7,1.1l-1.5-0.2l-1.7-0.8
		l-2.4-1.6l-0.7-0.9l-2.4-4.4l-0.3-1.8l0.7-1.3l1.7-0.5l0.9-0.8l1.8-5l2.1,2.5l0.4-0.9l-0.4-3.8l0.2-1.5l3-7.5l0.8-1.2l1.4-1.5
		l1.1-0.8l0.6-0.8l0.2-1.8l-0.6-6.7l0.2-4l0.3-1.5l0.6-1.2l0.7-1.6l1-1.5l1.3-1.1l1.7-0.5l2.7,0.2l1.3-0.4l0.8-1.2l-0.2-8l0.7-3.7
		l2.6,0.2l0.3-1.4l0.7-0.8l1-0.3l2.4-0.1l0.5-0.3v-0.9l0.3-1.9l0.8-1.4l2.7-3l0.6-0.4l0.5-1l1.1-0.8l7.1-3l2.3-1.7l1.9-0.7l3.4-0.8
		h3.1l1.1-0.5l1.1-1.2l0.5-1.3l-0.1-1.3v-1.4l0.8-1.6l1-0.8l1-0.4h2.3l1.4-0.3l1-0.5l1-0.3l1.5,0.4l-0.6-1.4l0.8-1.5l0.7-0.7
		l0.8-0.5l0.9-1l0.6-0.3l1.4-0.1l0.3-0.4l0.2-0.2l0.8-2l1-1l1.1-0.7l1.2-0.3l1.4-0.1l0.6-0.6v-1.5l-0.5-1.2l-0.7,0.2l-1.1-1.6
		l-0.6-0.7l-0.8-0.4l0.7-0.6l0.3-0.2l-2.3-2.6l-3.2-1.8l-3.6-1l-3.4-0.4l-2.1-0.6l-1.6-1.2l-2.8-2.9l-2.8-2.2l-1.1-1.4l-2.8-4.9
		l-2.8-3.8l-1.8-4.7l-2.2-4.5l-0.3-1.7l0.2-1l1-0.9l0.3-1l-0.2-0.6l-0.9-1.8l-3.9-10.5l-1.9-6.9l-0.6-4.1l-0.1-4.3l0.5-3.9l0.8-1.7
		l2.3-3.4l0.6-1.3l0.4-1.6l0.9-1.7l1-1.4l1.8-2l0.8-1.2l0.5-1.6l0.2-2.3l0.4-1l7.7-12.8l4.7-5.2l2-2.9l3.2-6.8l2-2.8l4.7-2.9
		l2.1-2.1l5.4-9l3.6-3.7l2.5-3.6l0.9-1l2-1.7l0.8-1l5.1-10.1l2-2l0.5-2.5l1-1.6l1.3-1.4l1.3-1.9l3.5-8.6l1.5-1.5l1.2-1.3l1.5-1
		l6.2-2l2.2-0.2l1.6,0.8l-3.6,3.4l-2.4,1.1l-2.7-0.5l1.3,2.3l1.9-0.1l2-1.4l1.6-1.6l3.6-4.8l2.1-1.9l4.8-1.4l1.2-0.7l0.8-1.4
		l0.5-0.4l0.5-0.5l0.2-0.7l-0.2-0.6l-0.5-0.3l-0.6-0.2l-0.5-0.4l-1-1.1l-2-1.6l-1.8-2.2l-0.8-0.8l-1-0.6l-1.2-0.1l1,0.7l0.3,0.8
		l-0.4,0.5h-0.9l-2.2-0.8l-2-1.1l1.4-2.8l6.7-6.5l4.1-5.4l8.4-8.3l2.4-1.8l2.8-1.3l3.1-0.6l3.3-0.1l0.6,0.2l1.8,1.1l0.8-0.4l0.4-0.6
		l0.3-0.7l1.3-2.3l0.6-0.5l5.2-1.1l18.7-7l6.4-0.5l14.1-3.8l2.5,0.1l0.7-0.2l1.5-0.9l5-1.3l5.1-0.5l3-0.8l5.2-2.9l2.4-2.2l2.2-3
		l3.7-6.4l2-2.7l2.2-1.7l5.5-2.3L2256,1086.1z M1855.7,1672l-1.4,1.5l0.3,2.5l1.5,1.7l2.2-0.8l-0.7-1L1855.7,1672z M1678.7,1619.5
		l-1.2-0.9l-1.7-0.9l-1.4-0.1l-1,0.2l0.7,2.1l0.8,1.9l1.1,1.7l1.7,1.6l0.4-1.6l3.3-2.6l0.6-2l-2,1L1678.7,1619.5z"/>
</g>
<text transform="matrix(1 0 0 1 1579.1504 501.3501)" class="st7 st102 st103">Switzerland</text>
<text transform="matrix(1 0 0 1 1685.8359 597.5981)" class="st7 st98 st104">0.01</text>
<text transform="matrix(1 0 0 1 1681.022 1058.4893)" class="st7 st102 st103">Spain</text>
<text transform="matrix(1 0 0 1 1685.8364 1154.7373)" class="st7 st98 st104">0.63</text>
<text transform="matrix(1 0 0 1 661.7048 1312.2383)"><tspan x="0" y="0" class="st7 st105 st106">182</tspan><tspan x="88.8" y="0" class="st7 st102 st107"> </tspan><tspan x="94.5" y="0" class="st7 st96 st108">liter</tspan><tspan x="0" y="31.2" class="st7 st98 st108">scarce water </tspan><tspan x="0" y="62.5" class="st7 st98 st108">/ day / person</tspan><tspan x="0" y="93.7" class="st7 st98 st108">globally</tspan></text>
<text transform="matrix(1 0 0 1 661.7048 1271.0449)" class="st7 st98 st108">We use</text>
<text transform="matrix(1 0 0 1 1166.6055 1312.2383)"><tspan x="0" y="0" class="st7 st105 st106">91</tspan><tspan x="59.2" y="0" class="st7 st102 st107"> </tspan><tspan x="64.9" y="0" class="st7 st96 st108">liter</tspan><tspan x="0" y="31.2" class="st7 st98 st108">scarce water </tspan><tspan x="0" y="62.5" class="st7 st98 st108">/ day / person</tspan><tspan x="0" y="93.7" class="st7 st98 st108">globally</tspan></text>
<text transform="matrix(1 0 0 1 1166.6055 1271.0449)" class="st7 st98 st108">We have</text>
<g>
	<path class="st58" d="M543.9,1277.5c9.4,0,17-7.6,17-16.9c0-9.4-7.6-17-16.9-17c-9.3,0-16.9,7.6-17,16.9
		C527,1269.9,534.6,1277.5,543.9,1277.5z"/>
	<path class="st58" d="M567.2,1283.9l-47.6-0.1c-8.5,0-15.5,6.9-15.5,15.4l0,57.2c0,3.7,3,6.8,6.7,6.8c3.7,0,6.8-3,6.8-6.7l0.1-51.8
		l2.9,0l-0.1,60.6h0v49.7c0,5.6,4.5,10.1,10.1,10.1l0,0c5.6,0,10.1-4.5,10.1-10.1v-49.7h5.7v49.7c0,5.6,4.5,10.1,10.1,10.1
		c5.6,0,10.1-4.5,10.1-10.1v-54.3l0.1-55.9l2.7,0l-0.1,51.6c0,3.7,3,6.8,6.8,6.8c3.7,0,6.8-3,6.8-6.8l0-56.9
		C582.6,1290.8,575.7,1283.9,567.2,1283.9z"/>
</g>
<g>
	<path class="st58" d="M1048.5,1277.5c9.4,0,17-7.6,17-16.9c0-9.4-7.6-17-16.9-17c-9.3,0-16.9,7.6-17,16.9
		C1031.5,1269.9,1039.1,1277.5,1048.5,1277.5z"/>
	<path class="st58" d="M1071.7,1283.9l-47.6-0.1c-8.5,0-15.5,6.9-15.5,15.4l0,57.2c0,3.7,3,6.8,6.7,6.8c3.7,0,6.8-3,6.8-6.7
		l0.1-51.8l2.9,0l-0.1,60.6h0v49.7c0,5.6,4.5,10.1,10.1,10.1l0,0c5.6,0,10.1-4.5,10.1-10.1v-49.7h5.7v49.7c0,5.6,4.5,10.1,10.1,10.1
		c5.6,0,10.1-4.5,10.1-10.1v-54.3l0.1-55.9l2.7,0l-0.1,51.6c0,3.7,3,6.8,6.8,6.8c3.7,0,6.8-3,6.8-6.8l0-56.9
		C1087.2,1290.8,1080.3,1283.9,1071.7,1283.9z"/>
</g>
<g>
	<g>
		<path class="st7" d="M558.4,1318.4l13.6,100h21.7h21.7l14.3-101.5c-11.4,2.7-25.4,8.5-36,4.1
			C576.5,1313.6,558.4,1318.4,558.4,1318.4z"/>
		<g>
			<path class="st7" d="M621.7,1425h-56l-17.4-119.7H639L621.7,1425z M568.7,1421.5h50l16.4-112.8h-82.7L568.7,1421.5z"/>
		</g>
	</g>
</g>
<g>
	<g>
		<path class="st7" d="M1066.3,1351.3l10.6,67.1h21.7h21.7l10.8-68.5c-11.4,2.7-22,8.3-32.5,3.8
			C1081.4,1346.4,1066.3,1351.3,1066.3,1351.3z"/>
		<g>
			<path class="st7" d="M1126.6,1425h-56l-17.4-119.7h90.7L1126.6,1425z M1073.6,1421.5h50l16.4-112.8h-82.7L1073.6,1421.5z"/>
		</g>
	</g>
</g>
<g>
	<path class="st58" d="M550.1,295.2c7.5,0,13.7-6.1,13.7-13.6c0-7.5-6.1-13.6-13.6-13.6c-7.5,0-13.6,6.1-13.6,13.6
		C536.5,289.1,542.6,295.2,550.1,295.2z"/>
	<path class="st58" d="M568.8,300.3l-38.3-0.1c-6.9,0-12.4,5.5-12.4,12.4l0,46c0,3,2.4,5.4,5.4,5.4c3,0,5.4-2.4,5.4-5.4l0-41.6
		l2.3,0l-0.1,48.7h0v40c0,4.5,3.6,8.1,8.1,8.1l0,0c4.5,0,8.1-3.6,8.1-8.1v-40h4.5v40c0,4.5,3.6,8.1,8.1,8.1c4.5,0,8.1-3.6,8.1-8.1
		V362l0.1-45l2.2,0l0,41.5c0,3,2.4,5.4,5.4,5.4c3,0,5.4-2.4,5.4-5.4l0-45.8C581.2,305.9,575.7,300.3,568.8,300.3z"/>
</g>
<g>
	<path class="st58" d="M628.9,295.2c7.5,0,13.7-6.1,13.7-13.6c0-7.5-6.1-13.6-13.6-13.6c-7.5,0-13.6,6.1-13.6,13.6
		C615.3,289.1,621.4,295.2,628.9,295.2z"/>
	<path class="st58" d="M647.7,300.3l-38.3-0.1c-6.9,0-12.4,5.5-12.4,12.4l0,46c0,3,2.4,5.4,5.4,5.4c3,0,5.4-2.4,5.4-5.4l0-41.6
		l2.3,0l-0.1,48.7h0v40c0,4.5,3.6,8.1,8.1,8.1l0,0c4.5,0,8.1-3.6,8.1-8.1v-40h4.5v40c0,4.5,3.6,8.1,8.1,8.1c4.5,0,8.1-3.6,8.1-8.1
		V362l0.1-45l2.2,0l0,41.5c0,3,2.4,5.4,5.4,5.4c3,0,5.4-2.4,5.4-5.4l0-45.8C660.1,305.9,654.5,300.3,647.7,300.3z"/>
</g>
<g>
	<path class="st58" d="M707.8,295.2c7.5,0,13.7-6.1,13.7-13.6c0-7.5-6.1-13.6-13.6-13.6c-7.5,0-13.6,6.1-13.6,13.6
		C694.2,289.1,700.3,295.2,707.8,295.2z"/>
	<path class="st58" d="M726.5,300.3l-38.3-0.1c-6.9,0-12.4,5.5-12.4,12.4l0,46c0,3,2.4,5.4,5.4,5.4c3,0,5.4-2.4,5.4-5.4l0-41.6
		l2.3,0l-0.1,48.7h0v40c0,4.5,3.6,8.1,8.1,8.1l0,0c4.5,0,8.1-3.6,8.1-8.1v-40h4.5v40c0,4.5,3.6,8.1,8.1,8.1c4.5,0,8.1-3.6,8.1-8.1
		V362l0.1-45l2.2,0l0,41.5c0,3,2.4,5.4,5.4,5.4c3,0,5.4-2.4,5.4-5.4l0-45.8C738.9,305.9,733.3,300.3,726.5,300.3z"/>
</g>
<g>
	<path class="st58" d="M786.6,295.2c7.5,0,13.7-6.1,13.7-13.6c0-7.5-6.1-13.6-13.6-13.6c-7.5,0-13.6,6.1-13.6,13.6
		C773,289.1,779.1,295.2,786.6,295.2z"/>
	<path class="st58" d="M805.3,300.3l-38.3-0.1c-6.9,0-12.4,5.5-12.4,12.4l0,46c0,3,2.4,5.4,5.4,5.4c3,0,5.4-2.4,5.4-5.4l0-41.6
		l2.3,0l-0.1,48.7h0v40c0,4.5,3.6,8.1,8.1,8.1l0,0c4.5,0,8.1-3.6,8.1-8.1v-40h4.5v40c0,4.5,3.6,8.1,8.1,8.1c4.5,0,8.1-3.6,8.1-8.1
		V362l0.1-45l2.2,0l0,41.5c0,3,2.4,5.4,5.4,5.4c3,0,5.4-2.4,5.4-5.4l0-45.8C817.7,305.9,812.2,300.3,805.3,300.3z"/>
</g>
<g>
	<path class="st58" d="M865.4,295.2c7.5,0,13.7-6.1,13.7-13.6c0-7.5-6.1-13.6-13.6-13.6c-7.5,0-13.6,6.1-13.6,13.6
		C851.8,289.1,857.9,295.2,865.4,295.2z"/>
	<path class="st58" d="M884.1,300.3l-38.3-0.1c-6.9,0-12.4,5.5-12.4,12.4l0,46c0,3,2.4,5.4,5.4,5.4c3,0,5.4-2.4,5.4-5.4l0-41.6
		l2.3,0l-0.1,48.7h0v40c0,4.5,3.6,8.1,8.1,8.1l0,0c4.5,0,8.1-3.6,8.1-8.1v-40h4.5v40c0,4.5,3.6,8.1,8.1,8.1c4.5,0,8.1-3.6,8.1-8.1
		V362l0.1-45l2.2,0l0,41.5c0,3,2.4,5.4,5.4,5.4c3,0,5.4-2.4,5.4-5.4l0-45.8C896.6,305.9,891,300.3,884.1,300.3z"/>
</g>
<g>
	<path class="st58" d="M944.3,295.2c7.5,0,13.7-6.1,13.7-13.6c0-7.5-6.1-13.6-13.6-13.6c-7.5,0-13.6,6.1-13.6,13.6
		C930.7,289.1,936.7,295.2,944.3,295.2z"/>
	<path class="st58" d="M963,300.3l-38.3-0.1c-6.9,0-12.4,5.5-12.4,12.4l0,46c0,3,2.4,5.4,5.4,5.4c3,0,5.4-2.4,5.4-5.4l0-41.6l2.3,0
		l-0.1,48.7h0v40c0,4.5,3.6,8.1,8.1,8.1l0,0c4.5,0,8.1-3.6,8.1-8.1v-40h4.5v40c0,4.5,3.6,8.1,8.1,8.1c4.5,0,8.1-3.6,8.1-8.1V362
		l0.1-45l2.2,0l0,41.5c0,3,2.4,5.4,5.4,5.4c3,0,5.4-2.4,5.4-5.4l0-45.8C975.4,305.9,969.8,300.3,963,300.3z"/>
</g>
<g>
	<path class="st58" d="M1023.1,295.2c7.5,0,13.7-6.1,13.7-13.6c0-7.5-6.1-13.6-13.6-13.6c-7.5,0-13.6,6.1-13.6,13.6
		C1009.5,289.1,1015.6,295.2,1023.1,295.2z"/>
	<path class="st58" d="M1041.8,300.3l-38.3-0.1c-6.9,0-12.4,5.5-12.4,12.4l0,46c0,3,2.4,5.4,5.4,5.4c3,0,5.4-2.4,5.4-5.4l0-41.6
		l2.3,0l-0.1,48.7h0v40c0,4.5,3.6,8.1,8.1,8.1l0,0c4.5,0,8.1-3.6,8.1-8.1v-40h4.5v40c0,4.5,3.6,8.1,8.1,8.1c4.5,0,8.1-3.6,8.1-8.1
		V362l0.1-45l2.2,0l0,41.5c0,3,2.4,5.4,5.4,5.4c3,0,5.4-2.4,5.4-5.4l0-45.8C1054.2,305.9,1048.7,300.3,1041.8,300.3z"/>
</g>
<g>
	<path class="st58" d="M1101.9,295.2c7.5,0,13.7-6.1,13.7-13.6c0-7.5-6.1-13.6-13.6-13.6c-7.5,0-13.6,6.1-13.6,13.6
		C1088.3,289.1,1094.4,295.2,1101.9,295.2z"/>
	<path class="st58" d="M1120.6,300.3l-38.3-0.1c-6.9,0-12.4,5.5-12.4,12.4l0,46c0,3,2.4,5.4,5.4,5.4c3,0,5.4-2.4,5.4-5.4l0-41.6
		l2.3,0l-0.1,48.7h0v40c0,4.5,3.6,8.1,8.1,8.1l0,0c4.5,0,8.1-3.6,8.1-8.1v-40h4.5v40c0,4.5,3.6,8.1,8.1,8.1c4.5,0,8.1-3.6,8.1-8.1
		V362l0.1-45l2.2,0l0,41.5c0,3,2.4,5.4,5.4,5.4c3,0,5.4-2.4,5.4-5.4l0-45.8C1133,305.9,1127.5,300.3,1120.6,300.3z"/>
</g>
<g>
	<path class="st58" d="M1180.7,295.2c7.5,0,13.7-6.1,13.7-13.6c0-7.5-6.1-13.6-13.6-13.6c-7.5,0-13.6,6.1-13.6,13.6
		C1167.1,289.1,1173.2,295.2,1180.7,295.2z"/>
	<path class="st58" d="M1199.5,300.3l-38.3-0.1c-6.9,0-12.4,5.5-12.4,12.4l0,46c0,3,2.4,5.4,5.4,5.4c3,0,5.4-2.4,5.4-5.4l0-41.6
		l2.3,0l-0.1,48.7h0v40c0,4.5,3.6,8.1,8.1,8.1l0,0c4.5,0,8.1-3.6,8.1-8.1v-40h4.5v40c0,4.5,3.6,8.1,8.1,8.1c4.5,0,8.1-3.6,8.1-8.1
		V362l0.1-45l2.2,0l0,41.5c0,3,2.4,5.4,5.4,5.4c3,0,5.4-2.4,5.4-5.4l0-45.8C1211.9,305.9,1206.3,300.3,1199.5,300.3z"/>
</g>
<g>
	<path class="st109" d="M1259.6,295.2c7.5,0,13.7-6.1,13.7-13.6c0-7.5-6.1-13.6-13.6-13.6c-7.5,0-13.6,6.1-13.6,13.6
		C1246,289.1,1252.1,295.2,1259.6,295.2z"/>
	<path class="st109" d="M1278.3,300.3l-38.3-0.1c-6.9,0-12.4,5.5-12.4,12.4l0,46c0,3,2.4,5.4,5.4,5.4c3,0,5.4-2.4,5.4-5.4l0-41.6
		l2.3,0l-0.1,48.7h0v40c0,4.5,3.6,8.1,8.1,8.1l0,0c4.5,0,8.1-3.6,8.1-8.1v-40h4.5v40c0,4.5,3.6,8.1,8.1,8.1c4.5,0,8.1-3.6,8.1-8.1
		V362l0.1-45l2.2,0l0,41.5c0,3,2.4,5.4,5.4,5.4c3,0,5.4-2.4,5.4-5.4l0-45.8C1290.7,305.9,1285.1,300.3,1278.3,300.3z"/>
</g>
<rect x="-5.7" y="-10.9" class="st7" width="2155.9" height="163.9"/>
<text transform="matrix(1 0 0 1 772.6758 108.2068)" class="st9 st96 st110">Water Scarcity</text>
<g>
	<rect x="1487" y="285" class="st33" width="569" height="45.2"/>
	<text transform="matrix(1 0 0 1 1510.2515 314.1709)" class="st7 st99 st100">Scarcity is different per region.</text>
</g>
</svg>
