<?xml version="1.0" encoding="utf-8"?>
<!-- Generator: Adobe Illustrator 19.0.0, SVG Export Plug-In . SVG Version: 6.00 Build 0)  -->
<!DOCTYPE svg PUBLIC "-//W3C//DTD SVG 1.1//EN" "http://www.w3.org/Graphics/SVG/1.1/DTD/svg11.dtd">
<svg version="1.1" id="Ebene_1" xmlns="http://www.w3.org/2000/svg" xmlns:xlink="http://www.w3.org/1999/xlink" x="0px" y="0px"
	 width="74.7px" height="68.6px" viewBox="-122 286.4 74.7 68.6" style="enable-background:new -122 286.4 74.7 68.6;"
	 xml:space="preserve">
<style type="text/css">
	.st0{fill:none;stroke:#FA701B;stroke-width:2;stroke-linecap:round;stroke-linejoin:round;stroke-miterlimit:10;}
	.st1{fill:#FFFFFF;stroke:#FA701B;stroke-width:2;stroke-linecap:round;stroke-linejoin:round;stroke-miterlimit:10;}
</style>
<ellipse class="st0" cx="-84.6" cy="321.5" rx="28.5" ry="25.9"/>
<ellipse class="st0" cx="-84.1" cy="332.5" rx="11.4" ry="9.3"/>
<line class="st0" x1="-88.4" y1="332.3" x2="-88.4" y2="334.8"/>
<line class="st0" x1="-80.4" y1="332.3" x2="-80.4" y2="334.8"/>
<path class="st1" d="M-99.3,304.1c0,4.2-3.4,7.7-7.6,7.7c-4.2,0-8.4,0.4-8.4-3.9s9-9.8,13.2-9.8S-99.3,299.8-99.3,304.1z"/>
<path class="st1" d="M-69.4,304.1c0,4.2,3.4,7.7,7.6,7.7s8.4,0.4,8.4-3.9s-9-9.8-13.2-9.8C-70.8,298.1-69.4,299.8-69.4,304.1z"/>
</svg>
