<?xml version="1.0" encoding="utf-8"?>
<!-- Generator: Adobe Illustrator 19.0.0, SVG Export Plug-In . SVG Version: 6.00 Build 0)  -->
<!DOCTYPE svg PUBLIC "-//W3C//DTD SVG 1.1//EN" "http://www.w3.org/Graphics/SVG/1.1/DTD/svg11.dtd">
<svg version="1.1" id="Ebene_1" xmlns="http://www.w3.org/2000/svg" xmlns:xlink="http://www.w3.org/1999/xlink" x="0px" y="0px"
	 width="74.7px" height="68.6px" viewBox="-122 286.4 74.7 68.6" style="enable-background:new -122 286.4 74.7 68.6;"
	 xml:space="preserve">
<style type="text/css">
	.st0{fill:none;stroke:#FA701B;stroke-width:2;stroke-linecap:round;stroke-linejoin:round;stroke-miterlimit:10;}
	.st1{fill:#FFFFFF;stroke:#FA701B;stroke-width:2;stroke-linecap:round;stroke-linejoin:round;stroke-miterlimit:10;}
</style>
<line id="XMLID_17_" class="st0" x1="-100.7" y1="346" x2="-69" y2="346"/>
<path id="XMLID_16_" class="st1" d="M-67,301.9c-2.1,0-4.1,0.5-5.8,1.4c-1.6-5.2-6.4-9-12.2-9c-5.7,0-10.6,3.8-12.2,9
	c-1.7-0.8-3.6-1.3-5.7-1.3c-7,0-12.7,5.7-12.7,12.7s5.7,12.7,12.7,12.7c0.7,0,1.4-0.1,2-0.2v16H-69v-16c0.7,0.1,1.3,0.2,2,0.2
	c7,0,12.7-5.7,12.7-12.7S-59.9,301.9-67,301.9z"/>
</svg>
