<?xml version="1.0" encoding="utf-8"?>
<!-- Generator: Adobe Illustrator 19.0.0, SVG Export Plug-In . SVG Version: 6.00 Build 0)  -->
<!DOCTYPE svg PUBLIC "-//W3C//DTD SVG 1.1//EN" "http://www.w3.org/Graphics/SVG/1.1/DTD/svg11.dtd">
<svg version="1.1" id="Ebene_1" xmlns="http://www.w3.org/2000/svg" xmlns:xlink="http://www.w3.org/1999/xlink" x="0px" y="0px"
	 width="74.7px" height="68.6px" viewBox="-122 286.4 74.7 68.6" style="enable-background:new -122 286.4 74.7 68.6;"
	 xml:space="preserve">
<style type="text/css">
	.st0{fill:none;stroke:#FA701B;stroke-width:2;stroke-linecap:round;stroke-linejoin:round;stroke-miterlimit:10;}
	.st1{fill:#FFFFFF;stroke:#FA701B;stroke-width:2;stroke-linecap:round;stroke-linejoin:round;stroke-miterlimit:10;}
</style>
<g id="XMLID_48_">
	<path id="XMLID_46_" class="st0" d="M-73.7,316.9c0,15.2-4.5,27.6-10.1,27.6S-94,332.1-94,316.9s0.5-27.6,10.1-27.6
		S-73.7,301.6-73.7,316.9z"/>
	<rect id="XMLID_45_" x="-86.2" y="344.4" class="st0" width="4.3" height="8"/>
	<line id="XMLID_44_" class="st0" x1="-82.7" y1="296.2" x2="-85" y2="296.2"/>
	<line id="XMLID_43_" class="st0" x1="-82.7" y1="303.7" x2="-85" y2="303.7"/>
	<line id="XMLID_42_" class="st0" x1="-82.7" y1="311.2" x2="-85" y2="311.2"/>
	<line id="XMLID_41_" class="st0" x1="-82.7" y1="318.7" x2="-85" y2="318.7"/>
	<line id="XMLID_40_" class="st0" x1="-82.7" y1="326.5" x2="-85" y2="326.5"/>
	<line id="XMLID_39_" class="st0" x1="-82.7" y1="334" x2="-85" y2="334"/>
	<line id="XMLID_38_" class="st0" x1="-75.5" y1="296.2" x2="-77.4" y2="296.2"/>
	<line id="XMLID_37_" class="st0" x1="-75.1" y1="303.7" x2="-77.4" y2="303.7"/>
	<line id="XMLID_36_" class="st0" x1="-75.1" y1="311.2" x2="-77.4" y2="311.2"/>
	<line id="XMLID_35_" class="st0" x1="-75.1" y1="318.7" x2="-77.4" y2="318.7"/>
	<line id="XMLID_34_" class="st0" x1="-75.1" y1="326.5" x2="-77.4" y2="326.5"/>
	<line id="XMLID_21_" class="st0" x1="-90.2" y1="296.2" x2="-92.2" y2="296.2"/>
	<line id="XMLID_20_" class="st0" x1="-90.2" y1="303.7" x2="-92.5" y2="303.7"/>
	<line id="XMLID_19_" class="st0" x1="-90.2" y1="311.2" x2="-92.5" y2="311.2"/>
	<line id="XMLID_18_" class="st0" x1="-90.2" y1="318.7" x2="-92.5" y2="318.7"/>
	<line id="XMLID_17_" class="st0" x1="-90.2" y1="326.5" x2="-92.5" y2="326.5"/>
	<path id="XMLID_16_" class="st1" d="M-99.9,307c-0.2,1.9-0.3,3.9-0.3,5.9c0,17.4,7,31.5,15.6,31.5L-99.9,307z"/>
	<path id="XMLID_3_" class="st1" d="M-68.4,307c0.2,1.9,0.3,3.9,0.3,5.9c0,17.4-7,31.5-15.6,31.5L-68.4,307z"/>
</g>
</svg>
