<?xml version="1.0" encoding="utf-8"?>
<!-- Generator: Adobe Illustrator 19.0.0, SVG Export Plug-In . SVG Version: 6.00 Build 0)  -->
<!DOCTYPE svg PUBLIC "-//W3C//DTD SVG 1.1//EN" "http://www.w3.org/Graphics/SVG/1.1/DTD/svg11.dtd">
<svg version="1.1" id="Ebene_1" xmlns="http://www.w3.org/2000/svg" xmlns:xlink="http://www.w3.org/1999/xlink" x="0px" y="0px"
	 width="74.7px" height="68.6px" viewBox="-122 286.4 74.7 68.6" style="enable-background:new -122 286.4 74.7 68.6;"
	 xml:space="preserve">
<style type="text/css">
	.st0{fill:none;stroke:#FA701B;stroke-width:2;stroke-linecap:round;stroke-linejoin:round;stroke-miterlimit:10;}
</style>
<g id="XMLID_16_">
	<g id="XMLID_40_">
		<g id="XMLID_44_">
			<line id="XMLID_46_" class="st0" x1="-104.6" y1="326.5" x2="-104.6" y2="329.1"/>
			<line id="XMLID_45_" class="st0" x1="-98" y1="326.5" x2="-98" y2="329.1"/>
		</g>
		<g id="XMLID_41_">
			<line id="XMLID_43_" class="st0" x1="-104.6" y1="335.2" x2="-104.6" y2="337.7"/>
			<line id="XMLID_42_" class="st0" x1="-98" y1="335.2" x2="-98" y2="337.7"/>
		</g>
	</g>
	<line id="XMLID_39_" class="st0" x1="-91.1" y1="326.5" x2="-91.1" y2="329.1"/>
	<line id="XMLID_38_" class="st0" x1="-91.1" y1="335.2" x2="-91.1" y2="337.7"/>
	<g id="XMLID_35_">
		<line id="XMLID_37_" class="st0" x1="-84.5" y1="326.5" x2="-84.5" y2="329.1"/>
		<line id="XMLID_36_" class="st0" x1="-84.5" y1="335.2" x2="-84.5" y2="337.7"/>
	</g>
	<g id="XMLID_20_">
		<line id="XMLID_34_" class="st0" x1="-77.9" y1="326.5" x2="-77.9" y2="329.1"/>
		<line id="XMLID_21_" class="st0" x1="-77.9" y1="335.2" x2="-77.9" y2="337.7"/>
	</g>
	<polyline id="XMLID_19_" class="st0" points="-71.3,311.2 -77.7,311.2 -88.7,321.2 -88.7,311.2 -99.8,321.2 -99.8,311.2 
		-110.9,321.2 -110.9,344.1 -73,344.1 	"/>
	<polygon id="XMLID_18_" class="st0" points="-60.4,306.6 -71.1,306.6 -73,344.1 -58.7,344.1 	"/>
	<rect id="XMLID_17_" x="-69.2" y="296" class="st0" width="6.7" height="10.6"/>
</g>
</svg>
