<svg class="img-fluid safari" id="outputsvg" xmlns="http://www.w3.org/2000/svg" width="100%" height="100%" viewBox="0 0 9160 19200"><g id="l7PcXkZ1bWi1u5Yd8Ez56zc" fill="rgb(90,160,20)" style="transform: none;"><g><path id="p1nJvQz94" d="M5014 19175 c-1234 -123 -2006 -800 -2263 -1985 -82 -375 -104 -656 -105 -1335 -1 -546 6 -692 50 -1004 31 -220 67 -391 149 -700 101 -386 130 -526 159 -761 28 -225 36 -780 16 -1110 -38 -656 -156 -1140 -386 -1590 -127 -250 -245 -420 -598 -862 -385 -483 -513 -671 -666 -973 -305 -602 -463 -1336 -486 -2245 -26 -1031 223 -1806 751 -2335 498 -499 1197 -756 2190 -805 946 -46 1886 68 2660 324 1338 444 2211 1290 2529 2452 93 342 125 584 133 1000 9 497 -24 837 -129 1309 -75 343 -178 662 -443 1370 -361 967 -493 1459 -574 2135 -42 349 -46 443 -45 955 0 552 5 632 74 1280 82 777 94 965 95 1520 0 446 -5 556 -41 855 -83 685 -279 1240 -584 1645 -385 512 -946 800 -1687 864 -163 15 -636 12 -799 -4z m3071 -10125 l0 -165 -317 -3 -318 -2 0 -35 c0 -30 15 -50 118 -161 314 -338 423 -499 473 -693 70 -274 -59 -536 -311 -633 -191 -74 -461 -58 -655 38 -119 59 -113 44 -76 181 18 65 34 124 36 130 3 9 24 4 73 -17 171 -73 360 -65 443 19 54 54 73 128 66 251 -3 52 -13 117 -22 144 -31 100 -122 243 -272 428 -43 53 -149 184 -235 290 l-158 195 0 102 0 101 578 -2 577 -3 0 -165z m-2430 -274 c426 -75 715 -394 854 -944 85 -332 118 -746 91 -1117 -58 -775 -326 -1273 -769 -1424 -35 -12 -107 -29 -161 -38 -274 -47 -598 72 -800 295 -296 325 -454 838 -454 1472 0 655 153 1174 438 1489 45 49 153 132 219 169 176 98 382 133 582 98z m-1825 -11 c120 -16 270 -54 270 -67 -1 -29 -59 -491 -62 -493 -2 -3 -39 2 -82 10 -103 20 -330 20 -415 0 -144 -34 -308 -160 -389 -297 -113 -192 -168 -436 -179 -793 -21 -743 173 -1189 573 -1312 82 -25 319 -24 417 1 38 10 70 16 71 15 2 -2 25 -114 51 -247 55 -276 59 -251 -45 -281 -148 -44 -337 -61 -471 -42 -320 47 -546 158 -765 376 -193 192 -317 410 -402 706 -101 348 -124 762 -67 1151 43 284 139 553 271 755 65 102 238 279 329 338 247 161 566 225 895 180z"></path><path id="pRfscQKii" d="M5449 8250 c-65 -11 -99 -31 -155 -93 -113 -124 -182 -354 -214 -722 -15 -169 -15 -665 0 -825 42 -455 144 -725 302 -804 44 -22 65 -26 137 -26 107 0 150 18 214 90 147 163 217 526 217 1124 0 464 -45 825 -127 1021 -31 73 -99 170 -139 197 -37 26 -121 49 -168 47 -11 -1 -42 -5 -67 -9z"></path><path id="p11jXiGVrh" d="M8089 4337 c-99 -37 -189 -128 -249 -252 -190 -388 -76 -964 222 -1126 57 -31 71 -34 143 -34 68 0 88 5 135 29 104 54 197 177 251 333 69 196 66 479 -7 687 -54 154 -163 295 -269 346 -60 29 -170 37 -226 17z"></path><path id="p1BZ2PwDSE" d="M6955 3617 c-371 -94 -578 -705 -425 -1257 48 -175 176 -381 283 -458 94 -67 153 -87 252 -87 82 0 97 3 157 33 198 97 343 343 388 657 13 93 13 285 -1 381 -32 232 -120 439 -240 568 -74 79 -139 126 -207 150 -61 22 -150 27 -207 13z"></path><path id="p1BtKtnZdg" d="M1350 3599 c-395 -28 -796 -369 -1059 -903 -186 -377 -281 -789 -281 -1211 0 -381 58 -663 191 -929 136 -270 330 -449 564 -522 48 -15 91 -19 210 -18 137 0 157 3 235 28 346 115 649 413 871 856 147 294 233 588 274 930 18 145 20 447 5 582 -75 665 -410 1128 -857 1186 -32 4 -101 4 -153 1z"></path><path id="pivFlrlPc" d="M5507 3139 c-179 -26 -364 -187 -486 -418 -111 -214 -164 -443 -164 -721 -1 -240 30 -405 110 -596 67 -160 161 -284 276 -365 101 -71 176 -93 297 -87 89 4 104 8 181 46 46 23 111 65 143 94 166 148 299 415 353 708 27 149 25 471 -5 612 -62 296 -195 530 -369 650 -94 64 -224 94 -336 77z"></path><path id="pLGc7g19A" d="M3664 3090 c-372 -51 -716 -470 -849 -1033 -68 -287 -75 -625 -19 -902 56 -278 198 -545 361 -677 340 -277 758 -158 1065 302 363 545 403 1429 88 1945 -159 260 -402 398 -646 365z"></path></g></g><g id="lPTFuq55Rx87GZI5F6uKEx" fill="rgb(255,255,255)" style="transform: none;"><g><path id="pVowpShQi" d="M6900 9119 l0 -132 158 -195 c86 -106 192 -237 235 -290 151 -186 242 -329 272 -428 59 -195 5 -347 -140 -389 -50 -15 -70 -16 -137 -7 -79 12 -181 49 -231 84 -16 12 -32 17 -37 12 -9 -10 -90 -304 -90 -328 0 -20 118 -89 200 -116 199 -67 481 -66 643 2 120 50 226 153 273 264 49 115 59 293 25 424 -50 196 -159 355 -475 696 l-120 129 320 5 319 5 0 195 0 195 -607 3 -608 2 0 -131z"></path><path id="p1HXeei6Ib" d="M5290 8800 c-498 -106 -801 -585 -891 -1410 -20 -173 -17 -594 5 -769 58 -478 204 -849 436 -1103 104 -114 248 -208 398 -258 201 -66 428 -66 627 2 278 95 497 342 625 703 180 511 201 1301 49 1897 -139 550 -428 869 -854 944 -110 19 -290 17 -395 -6z m364 -618 c40 -27 108 -124 139 -197 80 -191 127 -558 127 -991 0 -566 -73 -934 -217 -1094 -58 -64 -109 -89 -184 -90 -271 -1 -419 423 -420 1200 -1 474 46 801 144 999 35 71 114 164 160 188 74 38 184 32 251 -15z"></path><path id="p1G9NypmEU" d="M3360 8790 c-262 -45 -435 -135 -621 -319 -160 -159 -262 -329 -344 -575 -155 -466 -164 -1096 -23 -1585 85 -296 209 -514 402 -706 144 -144 278 -232 458 -301 253 -97 578 -110 838 -34 115 34 111 11 56 286 -26 132 -52 260 -58 286 l-9 47 -64 -24 c-124 -47 -298 -55 -424 -19 -383 109 -592 580 -567 1279 6 197 22 319 60 465 50 196 114 317 226 430 86 87 180 141 286 166 91 21 306 14 417 -14 42 -10 77 -17 77 -15 0 12 60 521 64 545 5 25 1 28 -57 46 -196 63 -495 80 -717 42z"></path></g></g></svg>
