<svg xmlns="http://www.w3.org/2000/svg" width="100%" height="100%" viewBox="0 0 170 221">
  <g id="Artboard" fill="none" fill-rule="evenodd" stroke="none" stroke-width="1">
    <g id="erlangen" fill-rule="nonzero" transform="translate(35.118 5.844)">
      <g id="Group" fill="#5AA014">
        <path id="p1nJvQz94" d="M54.628821,209.160966 C41.1572052,207.818171 32.7292576,200.427342 29.9235808,187.49066 C29.0283843,183.396774 28.7882096,180.329088 28.7772926,172.916424 C28.7663755,166.955726 28.8427948,165.361839 29.3231441,161.955726 C29.6615721,159.553979 30.0545852,157.687167 30.9497817,154.313804 C32.0524017,150.099831 32.3689956,148.571446 32.6855895,146.005944 C32.9912664,143.549612 33.0786026,137.49066 32.860262,133.88804 C32.4454148,126.726468 31.1572052,121.442625 28.6462882,116.529962 C27.2598253,113.800704 25.9716157,111.944809 22.1179039,107.119481 C17.9148472,101.846555 16.5174672,99.7941537 14.8471616,96.4972105 C11.5174672,89.9251581 9.79257642,81.9120577 9.54148472,71.9884769 C9.25764192,60.7330184 11.9759825,52.2723197 17.7401747,46.4972105 C23.1768559,41.0496123 30.8078603,38.2439354 41.6484716,37.7090009 C51.9759825,37.2068175 62.2379913,38.451359 70.6877729,41.2461188 C85.2947598,46.0932804 94.8253275,55.3290882 98.2969432,68.0146778 C99.3122271,71.7483022 99.6615721,74.3902236 99.7489083,78.9317083 C99.8471616,84.3574725 99.4868996,88.0692629 98.3406114,93.2221013 C97.5218341,96.9666428 96.3973799,100.449176 93.5043668,108.178433 C89.5633188,118.735202 88.1222707,124.106381 87.2379913,131.486293 C86.779476,135.296337 86.7358079,136.322538 86.7467249,141.912058 C86.7467249,147.938259 86.80131,148.811621 87.5545852,155.885857 C88.4497817,164.36839 88.580786,166.420791 88.5917031,172.479743 C88.5917031,177.348739 88.5371179,178.549612 88.1441048,181.813804 C87.2379913,189.29197 85.0982533,195.350922 81.768559,199.77232 C77.5655022,205.361839 71.441048,208.505944 63.3515284,209.204634 C61.5720524,209.36839 56.4082969,209.335638 54.628821,209.160966 Z M88.1550218,98.6260315 L88.1550218,96.8247214 L84.6943231,96.7919703 L81.2227074,96.7701363 L81.2227074,96.3880402 C81.2227074,96.0605293 81.3864629,95.8421887 82.510917,94.6303983 C85.9388646,90.940442 87.128821,89.1828 87.6746725,87.0648961 C88.4388646,84.0736297 87.0305677,81.2133677 84.279476,80.1544158 C82.1943231,79.3465555 79.2467249,79.521228 77.128821,80.5692629 C75.8296943,81.2133677 75.8951965,81.0496123 76.2991266,82.5452454 C76.4956332,83.2548524 76.6703057,83.8989572 76.6921397,83.9644594 C76.7248908,84.0627127 76.9541485,84.0081275 77.489083,83.7788699 C79.3558952,82.9819267 81.419214,83.0692629 82.3253275,83.9862935 C82.9148472,84.5758131 83.1222707,85.3836734 83.0458515,86.7264682 C83.0131004,87.2941537 82.9039301,88.0037607 82.8056769,88.2985206 C82.4672489,89.3902236 81.4737991,90.951359 79.8362445,92.9710096 C79.3668122,93.5496123 78.209607,94.9797433 77.2707424,96.1369485 L75.5458515,98.2657695 L75.5458515,99.3793066 L75.5458515,100.481927 L81.8558952,100.460093 L88.1550218,100.427342 L88.1550218,98.6260315 Z M61.6266376,95.6347651 C66.2772926,94.8159878 69.4323144,91.3334551 70.9497817,85.3290882 C71.8777293,81.7046341 72.2379913,77.1849834 71.9432314,73.1347651 C71.3100437,64.6740664 68.3842795,59.2373852 63.5480349,57.5889136 C63.1659389,57.4579092 62.3799127,57.2723197 61.790393,57.1740664 C58.7991266,56.660966 55.2620087,57.9600926 53.0567686,60.3945904 C49.8253275,63.9426254 48.1004367,69.543062 48.1004367,76.4644594 C48.1004367,83.6151144 49.7707424,89.2810533 52.8820961,92.7199179 C53.3733624,93.2548524 54.5524017,94.160966 55.2729258,94.5648961 C57.1943231,95.6347651 59.4432314,96.0168612 61.6266376,95.6347651 Z M41.7030568,95.5146778 C43.0131004,95.3400053 44.650655,94.9251581 44.650655,94.7832367 C44.639738,94.4666428 44.0065502,89.4229747 43.9737991,89.4011406 C43.9519651,89.3683896 43.5480349,89.4229747 43.0786026,89.510311 C41.9541485,89.7286516 39.4759825,89.7286516 38.5480349,89.510311 C36.9759825,89.1391319 35.1855895,87.7635861 34.30131,86.2679529 C33.0676856,84.171883 32.4672489,81.5081275 32.3471616,77.6107476 C32.1179039,69.4993939 34.2358079,64.6303983 38.6026201,63.2876035 C39.4978166,63.0146778 42.0851528,63.0255948 43.1550218,63.2985206 C43.569869,63.4076909 43.919214,63.473193 43.930131,63.462276 C43.9519651,63.440442 44.2030568,62.2177345 44.4868996,60.7657695 C45.0873362,57.752669 45.1310044,58.0255948 43.9956332,57.6980839 C42.3799127,57.2177345 40.3165939,57.032145 38.8537118,57.2395686 C35.360262,57.752669 32.8930131,58.9644594 30.5021834,61.3443721 C28.3951965,63.440442 27.0414847,65.8203546 26.1135371,69.0517957 C25.010917,72.8509223 24.7598253,77.370573 25.3820961,81.6172979 C25.8515284,84.7177345 26.8995633,87.6544158 28.3406114,89.8596559 C29.0502183,90.973193 30.9388646,92.9055075 31.9323144,93.5496123 C34.628821,95.3072542 38.1113537,96.0059441 41.7030568,95.5146778 Z"/>
        <path id="pRfscQKii" d="M59.3777293,89.892407 C58.6681223,89.7723197 58.2969432,89.5539791 57.6855895,88.8771232 C56.4519651,87.5234114 55.69869,85.0124944 55.349345,80.9950271 C55.1855895,79.1500489 55.1855895,73.7352018 55.349345,71.9884769 C55.8078603,67.021228 56.9213974,64.0736297 58.6462882,63.2111843 C59.1266376,62.9710096 59.3558952,62.9273415 60.1419214,62.9273415 C61.3100437,62.9273415 61.779476,63.1238481 62.4781659,63.9098743 C64.0829694,65.6893503 64.8471616,69.6522323 64.8471616,76.1806166 C64.8471616,81.2461188 64.3558952,85.1871668 63.4606987,87.3269048 C63.1222707,88.1238481 62.3799127,89.1828 61.9432314,89.4775599 C61.5393013,89.7614027 60.6222707,90.0124944 60.1091703,89.9906603 C59.989083,89.9797433 59.650655,89.9360751 59.3777293,89.892407 Z"/>
        <path id="p11jXiGVrh" d="M88.19869,47.1740664 C87.1179039,46.7701363 86.1353712,45.7766865 85.4803493,44.4229747 C83.4061135,40.1871668 84.650655,33.8989572 87.9039301,32.1303983 C88.5262009,31.7919703 88.6790393,31.7592192 89.4650655,31.7592192 C90.2074236,31.7592192 90.4257642,31.8138044 90.9388646,32.0758131 C92.0742358,32.6653328 93.0895197,34.0081275 93.6790393,35.7111843 C94.4323144,37.8509223 94.3995633,40.940442 93.6026201,43.2111843 C93.0131004,44.892407 91.8231441,46.4317083 90.6659389,46.9884769 C90.010917,47.3050708 88.8100437,47.392407 88.19869,47.1740664 Z"/>
        <path id="p1BZ2PwDSE" d="M75.8187773,39.3138044 C71.768559,38.2876035 69.5087336,31.6172979 71.1790393,25.591097 C71.7030568,23.6806166 73.1004367,21.4317083 74.268559,20.591097 C75.2947598,19.8596559 75.9388646,19.6413153 77.0196507,19.6413153 C77.9148472,19.6413153 78.0786026,19.6740664 78.7336245,20.0015773 C80.8951965,21.0605293 82.4781659,23.7461188 82.9694323,27.1740664 C83.1113537,28.1893503 83.1113537,30.2854201 82.9585153,31.3334551 C82.6091703,33.8662061 81.6484716,36.1260315 80.3384279,37.5343284 C79.5305677,38.3967738 78.8209607,38.9098743 78.0786026,39.171883 C77.4126638,39.4120577 76.441048,39.4666428 75.8187773,39.3138044 Z"/>
        <path id="p1BtKtnZdg" d="M14.628821,39.1172979 C10.3165939,38.811621 5.93886463,35.0889136 3.06768559,29.2592192 C1.0371179,25.1434987 0,20.6456821 0,16.0386952 C0,11.8793066 0.633187773,8.80070396 2.08515284,5.89677383 C3.569869,2.94917558 5.68777293,0.995027108 8.24235808,0.198083876 C8.76637555,0.0343284178 9.23580786,-0.00933970448 10.5349345,0.00157732608 C12.0305677,0.00157732608 12.2489083,0.0343284178 13.1004367,0.307254182 C16.8777293,1.5627127 20.1855895,4.81598781 22.6091703,9.65223235 C24.2139738,12.8618393 25.1528384,16.0714463 25.6004367,19.8050708 C25.7969432,21.3880402 25.8187773,24.6849834 25.6550218,26.1587826 C24.8362445,33.4186079 21.1790393,38.473193 16.2991266,39.1063808 C15.9497817,39.1500489 15.1965066,39.1500489 14.628821,39.1172979 Z"/>
        <path id="pivFlrlPc" d="M60.010917,34.0954638 C58.0567686,33.811621 56.0371179,32.0539791 54.7052402,29.532145 C53.4934498,27.1959005 52.9148472,24.6959005 52.9148472,21.660966 C52.9039301,19.0408786 53.2423581,17.2395686 54.1157205,15.1544158 C54.8471616,13.4076909 55.8733624,12.0539791 57.128821,11.1696996 C58.231441,10.3945904 59.0502183,10.1544158 60.371179,10.2199179 C61.3427948,10.2635861 61.5065502,10.3072542 62.3471616,10.7221013 C62.849345,10.973193 63.558952,11.4317083 63.9082969,11.7483022 C65.720524,13.3640227 67.1724891,16.2788699 67.7620087,19.4775599 C68.0567686,21.1041974 68.0349345,24.6194813 67.7074236,26.1587826 C67.0305677,29.3902236 65.5786026,31.9448088 63.6790393,33.2548524 C62.6528384,33.9535424 61.2336245,34.2810533 60.010917,34.0954638 Z"/>
        <path id="pLGc7g19A" d="M39.8908297,33.5605293 C35.8296943,33.0037607 32.0742358,28.4295249 30.6222707,22.2832367 C29.8799127,19.1500489 29.8034934,15.4600926 30.4148472,12.4360751 C31.0262009,9.40114064 32.5764192,6.48629348 34.3558952,5.04524545 C38.0676856,2.02122798 42.6310044,3.32035462 45.9825328,8.34218868 C49.9454148,14.2919703 50.3820961,23.9426254 46.9432314,29.5758131 C45.2074236,32.4142411 42.5545852,33.9207913 39.8908297,33.5605293 Z"/>
      </g>
      <g id="Group" fill="#FFF" transform="translate(24.696 56.713)">
        <path id="pVowpShQi" d="M50.5220987,42.6665153 L50.5220987,41.2254672 L52.2469896,39.0966463 C53.1858542,37.939441 54.3430594,36.50931 54.8124918,35.9307074 C56.4609634,33.9001397 57.4544132,32.3390044 57.7819241,31.2582183 C58.4260289,29.1293974 57.8365092,27.4700087 56.2535398,27.0114934 C55.7076883,26.847738 55.4893477,26.8368209 54.7579066,26.9350742 C53.8954612,27.0660786 52.7819241,27.4700087 52.2360725,27.8521048 C52.0614001,27.9831092 51.8867276,28.0376943 51.8321424,27.9831092 C51.7338891,27.8739388 50.8496097,24.6643319 50.8496097,24.4023231 C50.8496097,24.1839825 52.1378193,23.4307074 53.0330158,23.1359476 C55.2055049,22.4045065 58.2841075,22.4154236 60.0526664,23.1577816 C61.3627101,23.7036332 62.5199153,24.8280873 63.0330158,26.0398777 C63.5679503,27.2953362 63.6771206,29.2385677 63.3059415,30.6686987 C62.76009,32.8084367 61.5701337,34.5442445 58.120352,38.2669519 L56.8103084,39.6752489 L60.3037581,39.729834 L63.7862909,39.7844192 L63.7862909,41.9132402 L63.7862909,44.0420611 L57.1596533,44.0748122 L50.5220987,44.0966463 L50.5220987,42.6665153 Z"/>
        <path id="p1HXeei6Ib" d="M32.9456795,39.1839825 C27.5089983,38.0267773 24.2011381,32.7975196 23.2186053,23.7909694 C23.0002647,21.9023231 23.0330158,17.3062533 23.2731905,15.3957729 C23.9063782,10.1774323 25.5002647,6.12721396 28.0330158,3.35428819 C29.168387,2.10974671 30.7404394,1.08354584 32.3779939,0.537694308 C34.5723171,-0.182829709 37.050483,-0.182829709 39.2229721,0.559528369 C42.2579066,1.59664627 44.6487363,4.29315282 46.0461162,8.23420086 C48.0111817,13.8128035 48.2404394,22.4372576 46.5810507,28.9438078 C45.0635835,34.9481747 41.9085616,38.4307074 37.2579066,39.2494847 C36.0570332,39.4569083 34.0919677,39.4350742 32.9456795,39.1839825 Z M36.9194787,32.4372576 C37.3561599,32.1424978 38.098518,31.0835458 38.4369459,30.2866026 C39.3103084,28.2014498 39.8234088,24.1948995 39.8234088,19.4678253 C39.8234088,13.288786 39.0264656,9.27131876 37.4544132,7.52459387 C36.8212254,6.82590391 36.2644568,6.55297815 35.4456795,6.54204185 C32.4871643,6.53114409 30.8714437,11.1599651 30.8605267,19.6424978 C30.8496097,24.8171703 31.3627101,28.3870393 32.4325791,30.5486113 C32.8146752,31.3237205 33.6771206,32.3390044 34.179304,32.6010131 C34.9871643,33.0158602 36.1880376,32.9503581 36.9194787,32.4372576 Z"/>
        <path id="p1G9NypmEU" d="M11.8758105,39.0748122 C9.01554853,38.5835458 7.12690224,37.6010131 5.09633456,35.5922795 C3.34960967,33.8564716 2.23607255,32.0005764 1.34087604,29.3149869 C-0.351263697,24.2276506 -0.449516972,17.3499214 1.08978434,12.0114934 C2.01773194,8.78005239 3.37144373,6.40013972 5.47843063,4.30406985 C7.05048303,2.73201745 8.51336512,1.77131876 10.4784306,1.01804365 C13.2404394,-0.0409083121 16.7884743,-0.182829709 19.6269022,0.646864614 C20.8823608,1.01804365 20.8386926,0.76695195 20.238256,3.76913536 C19.9544132,5.21018339 19.6705704,6.6075633 19.6050682,6.8914061 L19.5068149,7.40450654 L18.8081249,7.1424978 C17.4544132,6.62939736 15.5548498,6.54206112 14.179304,6.93507422 C9.99808128,8.12503055 7.71642189,13.2669519 7.98934766,20.8979563 C8.05484984,23.0486113 8.22952233,24.3804891 8.64436949,25.9743755 C9.19022102,28.1141135 9.88891098,29.4350742 11.1116184,30.6686987 C12.050483,31.6184803 13.0766839,32.208 14.2338891,32.4809257 C15.2273389,32.7101834 17.5745005,32.6337642 18.7862909,32.3280873 C19.2448062,32.218917 19.6269022,32.1424978 19.6269022,32.1643319 C19.6269022,32.2953362 20.2819241,37.8521048 20.3255922,38.1141135 C20.3801774,38.3870393 20.3365092,38.4197904 19.7033215,38.6162969 C17.5635835,39.3040699 14.2993913,39.4896594 11.8758105,39.0748122 Z"/>
      </g>
    </g>
  </g>
</svg>
