<?xml version="1.0" encoding="utf-8"?>
<!-- Generator: Adobe Illustrator 15.0.0, SVG Export Plug-In . SVG Version: 6.00 Build 0)  -->
<!DOCTYPE svg PUBLIC "-//W3C//DTD SVG 1.1//EN" "http://www.w3.org/Graphics/SVG/1.1/DTD/svg11.dtd">
<svg version="1.1" id="Layer_3" xmlns="http://www.w3.org/2000/svg" xmlns:xlink="http://www.w3.org/1999/xlink" x="0px" y="0px"
	 width="32px" height="32px" viewBox="0 0 32 32" enable-background="new 0 0 32 32" xml:space="preserve">
<g>
	<path fill="#11586C" d="M23.622,10.991c-2.212,0-4.004-1.789-4.004-3.996C19.618,4.789,21.41,3,23.622,3
		c2.211,0,4.004,1.789,4.004,3.995C27.626,9.202,25.833,10.991,23.622,10.991z M28.622,13.148l-0.786,7.045L25.622,22v6
		c0,0-1.329,1-2.5,1c-1.187,0-2.5-1-2.5-1v-6l-2-2l-1-7c0,0,3.136-1,5.5-1C25.473,12,28.622,13.148,28.622,13.148z M11.622,22v6
		c0,0-1.329,1-2.5,1c-1.186,0-2.5-1-2.5-1v-6l-2-2l-1-7c0,0,3.136-1,5.5-1c2.35,0,5.5,1.148,5.5,1.148l-0.786,7.045L11.622,22z
		 M9.622,10.991c-2.212,0-4.004-1.789-4.004-3.996C5.618,4.789,7.41,3,9.622,3c2.211,0,4.004,1.789,4.004,3.995
		C13.626,9.202,11.833,10.991,9.622,10.991z"/>
	<path fill="#FFFFFF" d="M16.622,0c3.313,0,6,2.687,6,6s-2.687,6-6,6c-3.313,0-6-2.687-6-6S13.309,0,16.622,0z"/>
	<path fill="#FFFFFF" d="M8.622,12c0,0,4.561-1,8-1c3.418,0,8,1,8,1l-1,9l-3,2l-1,8c0,0-1.296,1-3,1c-1.725,0-3-1-3-1l-1-8l-3-2
		L8.622,12z"/>
	<path fill="#11586C" d="M9.622,13c0,0,3.99-1,7-1c2.989,0,7,1,7,1l-1,8l-3,2v7c0,0-1.511,1-3,1c-1.509,0-3-1-3-1v-7l-3-2L9.622,13z
		"/>
	<path fill="#11586C" d="M16.622,1c2.762,0,5,2.238,5,5s-2.238,5-5,5c-2.762,0-5-2.238-5-5S13.86,1,16.622,1z"/>
</g>
</svg>
