<?xml version="1.0" encoding="utf-8"?>
<!-- Generator: Adobe Illustrator 19.0.0, SVG Export Plug-In . SVG Version: 6.00 Build 0)  -->
<!DOCTYPE svg PUBLIC "-//W3C//DTD SVG 1.1//EN" "http://www.w3.org/Graphics/SVG/1.1/DTD/svg11.dtd">
<svg version="1.1" id="Ebene_1" xmlns="http://www.w3.org/2000/svg" xmlns:xlink="http://www.w3.org/1999/xlink" x="0px" y="0px"
	 width="108.3px" height="100px" viewBox="0 0 108.3 100" style="enable-background:new 0 0 108.3 100;" xml:space="preserve">
<style type="text/css">
	.st0{fill:#11586C;}
</style>
<g>
	<path class="st0" d="M78,57c0,0-0.1,0.5-0.1,0.5l-0.2,0.8c0,0-2.8,12.6-3.3,14.6c-0.1-0.5-2.8-13.1-2.8-13.1
		c-0.1-0.5-0.3-1.2-0.5-1.9l-0.2-0.5c-0.8-1.9-2.6-3.1-4.7-3.1c-2,0-3.8,1.2-4.6,3c-0.1,0.4-0.3,0.8-0.4,1.3
		c-0.1,0.5-0.2,0.9-0.3,1.3c0,0-2.4,11.3-2.8,13.2c-0.1-0.5-3.5-14.7-3.5-14.7l-0.1-0.6c-0.1-0.4-0.2-0.7-0.3-0.9
		c-0.7-1.5-2.1-2.5-3.8-2.5c-1.2,0-2.3,0.5-3.2,1.4c-0.6,0.7-0.9,1.5-1,2.4c0,0,0,0.2,0,0.2c0,0.2,0,0.5,0,0.7
		c0.1,0.9,0.3,1.5,0.5,2.2l5.5,18l0.1,0.4l0.3,0.8c0.9,2,2.8,3.2,4.9,3.2l0,0c2.2,0,4.2-1.3,5-3.4c0,0,0.3-0.9,0.3-0.9
		c0,0,0-0.2,0-0.2s3.1-12.5,3.3-13c0.1,0.5,3.3,13.2,3.3,13.2l0.2,0.8c0.8,2.1,2.8,3.5,5,3.5l0,0c2.1,0,4-1.2,4.9-3.1
		c0.1-0.3,0.2-0.6,0.3-1l0.1-0.3l5.5-18c0.2-0.7,0.4-1.4,0.5-2.2c0-0.2,0-0.5,0-0.7l0-0.2c-0.1-0.9-0.4-1.7-1-2.4
		c-0.8-0.9-2-1.4-3.1-1.4C80.1,54.2,78.6,55.3,78,57"/>
	<path class="st0" d="M59.3,16.7l0,31.1c0,2.4,1.9,4.3,4.3,4.3c2.4,0,4.3-1.9,4.3-4.3v-0.1V35.3c0-3.3,2.7-5.4,5.2-5.4
		c3.7,0,4.2,2.9,4.2,4.7v13.2l0,0.1c0,2.3,2,4.3,4.3,4.3c2.4,0,4.3-1.9,4.3-4.3V33c0-6.6-3.8-10.5-10.1-10.5c-3.2,0-5.9,1.1-8,3.2
		v-9.1v-0.1c0-2.3-2-4.3-4.3-4.3C61.3,12.3,59.3,14.3,59.3,16.7"/>
	<path class="st0" d="M36.7,72.7c0,2.8-2.5,5.5-6.7,5.5c-2.6,0-4.2-1.4-4.2-3.1c0-2.3,1.7-3.3,4.9-3.7l2.7-0.4
		c0.9-0.2,2.4-0.4,3.3-1.2V72.7z M45.2,78.8C45,78,44.7,77,44.7,75.1V62.5c0-5.3-4.5-8.2-12.7-8.2c-7.7,0-12.4,3.6-12.4,7.1
		c0,1.9,1.6,3.5,3.5,3.5c0.8,0,1.6-0.3,2.2-0.8c0.4-0.3,0.7-0.6,1.1-1c1.2-1.1,2.5-2.4,5.5-2.4c2.1,0,4.3,0.7,4.3,2.7
		c0,1.7-1,2.1-2.9,2.4l-4.6,0.5c-5.4,0.6-10.9,2.2-10.9,9.1c0,5.1,4.6,8.1,9,8.1c4.1,0,7.4-1.3,10-3.9c0.4,2.5,2.1,3.9,4.8,3.9
		c2.2,0,3.8-1.5,3.8-3.3C45.5,79.7,45.4,79.3,45.2,78.8"/>
	<path class="st0" d="M35.6,23.9c-0.4,0-0.8,0.1-1.2,0.2C33,24.5,32,25.9,32,27.4c0,1.5,1,2.9,2.4,3.3c0.4,0.1,0.8,0.2,1.2,0.2h9.7
		c-0.4,0.4-13.4,14.6-13.4,14.6c-0.8,0.8-1.1,1.9-1.1,3.1l0,0.2c0.1,1.5,1.3,3.2,3.7,3.3l0.2,0H54c0.4,0,0.8-0.1,1.2-0.2
		c1.4-0.5,2.4-1.8,2.4-3.3c0-1.5-1-2.9-2.4-3.3l0,0c-0.4-0.1-0.8-0.2-1.2-0.2H42.8c0.4-0.4,13.1-14.4,13.1-14.4
		c0.8-0.9,1.3-2,1.3-2.9l0-0.4c0-0.6-0.2-1.2-0.4-1.7c-0.4-0.8-1.1-1.3-1.9-1.6c-0.4-0.1-0.8-0.2-1.3-0.2H35.6z"/>
</g>
</svg>
