<?xml version="1.0" encoding="utf-8"?>
<!-- Generator: Adobe Illustrator 19.2.0, SVG Export Plug-In . SVG Version: 6.00 Build 0)  -->
<svg version="1.1" id="Ebene_1" xmlns="http://www.w3.org/2000/svg" xmlns:xlink="http://www.w3.org/1999/xlink" x="0px" y="0px"
	 viewBox="0 0 688.7 161.8" style="enable-background:new 0 0 688.7 161.8;" xml:space="preserve">
<style type="text/css">
	.st0{fill:#46CC00;}
	.st1{fill:#11586C;}
	.st2{fill:#858585;}
	.st3{enable-background:new    ;}
	.st4{fill:#FFFFFF;}
	.st5{font-family:'SourceSansPro-Semibold';}
	.st6{font-size:21px;}
</style>
<g>
	<rect x="149.4" y="24.5" class="st0" width="530.6" height="47.1"/>
</g>
<g>
	<rect x="149.4" y="91.1" class="st1" width="265" height="47.1"/>
</g>
<g>
	<rect x="147.9" y="3.5" class="st2" width="3" height="154.9"/>
</g>
<g class="st3">
	<path d="M18,47.7c0-1.5-0.4-3.2-2.4-3.2c-1.4,0-2.5,0.7-3.2,1.2L12,45c0.7-0.5,2.1-1.3,3.7-1.3c2.4,0,3.2,1.7,3.2,3.9V54h-0.8
		L18,52.7l0,0c-1,0.8-2.2,1.6-3.6,1.6c-1.6,0-2.9-0.9-2.9-2.8C11.5,49.2,13.5,48.2,18,47.7z M14.5,53.3c1.2,0,2.2-0.6,3.4-1.6v-3.4
		c-4.1,0.5-5.5,1.4-5.5,3C12.3,52.8,13.3,53.3,14.5,53.3z"/>
	<path d="M20.7,43.8h1l2.3,6.3c0.3,1,0.7,2,1,2.9h0.1c0.3-0.9,0.7-1.9,1-2.9l2.3-6.3h0.9L25.7,54h-1.1L20.7,43.8z"/>
	<path d="M35.1,43.6c2.4,0,3.9,1.7,3.9,4.7c0,0.3,0,0.5,0,0.8h-7.3c0,2.5,1.5,4.4,3.8,4.4c1.1,0,2-0.4,2.7-0.9l0.4,0.7
		c-0.8,0.5-1.7,1-3.2,1c-2.6,0-4.7-2-4.7-5.3C30.7,45.7,32.9,43.6,35.1,43.6z M38,48.2c0-2.6-1.2-3.9-3-3.9c-1.7,0-3.3,1.5-3.5,3.9
		H38z"/>
	<path d="M41.7,43.8h0.8l0.1,1.9h0.1c0.7-1.2,1.7-2.1,2.9-2.1c0.4,0,0.7,0,1,0.2l-0.2,0.8c-0.3-0.1-0.5-0.2-0.9-0.2
		c-0.9,0-2,0.7-2.8,2.6v6.9h-1V43.8z"/>
	<path d="M53.9,47.7c0-1.5-0.4-3.2-2.4-3.2c-1.4,0-2.5,0.7-3.2,1.2L47.9,45c0.7-0.5,2.1-1.3,3.7-1.3c2.4,0,3.2,1.7,3.2,3.9V54H54
		l-0.1-1.3l0,0c-1,0.8-2.2,1.6-3.6,1.6c-1.6,0-2.9-0.9-2.9-2.8C47.4,49.2,49.4,48.2,53.9,47.7z M50.4,53.3c1.2,0,2.2-0.6,3.4-1.6
		v-3.4c-4.1,0.5-5.5,1.4-5.5,3C48.2,52.8,49.2,53.3,50.4,53.3z"/>
	<path d="M59,53.6L59,53.6c-0.5-0.4-0.9-0.9-0.9-1.7c0-0.9,0.7-1.5,1.1-1.8V50c-0.6-0.5-1.3-1.6-1.3-2.8c0-2.1,1.6-3.5,3.5-3.5
		c0.5,0,1,0.1,1.3,0.3h3.4v0.8h-2.4c0.7,0.6,1.1,1.5,1.1,2.5c0,2.1-1.5,3.5-3.5,3.5c-0.6,0-1.2-0.1-1.7-0.4
		c-0.4,0.4-0.8,0.8-0.8,1.4c0,0.7,0.4,1.3,1.9,1.3h2.2c2.3,0,3.3,0.7,3.3,2.3c0,1.7-1.9,3.4-4.8,3.4c-2.5,0-4.1-1.1-4.1-2.8
		C57.6,55.1,58,54.2,59,53.6z M61.7,58.1c2.3,0,3.7-1.3,3.7-2.5c0-1.1-0.8-1.5-2.3-1.5h-2.2c-0.2,0-0.7,0-1.3-0.2
		c-0.9,0.6-1.3,1.4-1.3,2.1C58.5,57.2,59.6,58.1,61.7,58.1z M64.1,47.2c0-1.7-1.2-2.8-2.6-2.8s-2.6,1.1-2.6,2.8
		c0,1.7,1.2,2.8,2.6,2.8C62.9,50,64.1,48.8,64.1,47.2z"/>
	<path d="M72,43.6c2.4,0,3.9,1.7,3.9,4.7c0,0.3,0,0.5,0,0.8h-7.3c0,2.5,1.5,4.4,3.8,4.4c1.1,0,2-0.4,2.7-0.9l0.4,0.7
		c-0.8,0.5-1.7,1-3.2,1c-2.6,0-4.7-2-4.7-5.3C67.6,45.7,69.6,43.6,72,43.6z M74.9,48.2c0-2.6-1.2-3.9-3-3.9c-1.7,0-3.3,1.5-3.5,3.9
		H74.9z"/>
	<path d="M82.7,43.8h0.8l0.1,1.6h0.1c0.9-1,2.1-1.8,3.2-1.8c1.6,0,2.4,0.8,2.8,2.1c1.2-1.3,2.3-2.1,3.4-2.1c2,0,3,1.3,3,3.9v6.5
		h-0.9v-6.3c0-2.1-0.7-3.1-2.2-3.1c-0.9,0-1.9,0.6-3,1.9v7.6h-0.9v-6.3c0-2.1-0.7-3.1-2.3-3.1c-0.9,0-1.9,0.6-3,1.9v7.6h-0.9V43.9
		L82.7,43.8L82.7,43.8z"/>
	<path d="M103.2,43.6c2.4,0,3.9,1.7,3.9,4.7c0,0.3,0,0.5,0,0.8h-7.3c0,2.5,1.5,4.4,3.8,4.4c1.1,0,2-0.4,2.7-0.9l0.4,0.7
		c-0.8,0.5-1.7,1-3.2,1c-2.6,0-4.7-2-4.7-5.3C98.9,45.7,101,43.6,103.2,43.6z M106.2,48.2c0-2.6-1.2-3.9-3-3.9
		c-1.7,0-3.3,1.5-3.5,3.9H106.2z"/>
	<path d="M115.4,47.7c0-1.5-0.4-3.2-2.4-3.2c-1.4,0-2.5,0.7-3.2,1.2l-0.4-0.7c0.7-0.5,2.1-1.3,3.7-1.3c2.4,0,3.2,1.7,3.2,3.9V54
		h-0.8l-0.1-1.3l0,0c-1,0.8-2.2,1.6-3.6,1.6c-1.6,0-2.9-0.9-2.9-2.8C108.9,49.2,111,48.2,115.4,47.7z M112,53.3
		c1.2,0,2.2-0.6,3.4-1.6v-3.4c-4.1,0.5-5.5,1.4-5.5,3C109.9,52.8,110.9,53.3,112,53.3z"/>
	<path d="M120,38.8h0.9v13.9c0,0.4,0.2,0.7,0.4,0.7c0.1,0,0.2,0,0.4,0l0.2,0.8c-0.2,0.1-0.4,0.1-0.7,0.1c-0.8,0-1.2-0.5-1.2-1.6
		L120,38.8L120,38.8z"/>
</g>
<g>
	<g>
		<path class="st4" d="M648.5,45.5c-0.9,0-1.5,0.7-1.5,2s0.6,2.1,1.5,2.1s1.5-0.8,1.5-2.1S649.3,45.5,648.5,45.5z"/>
	</g>
	<g>
		<path class="st4" d="M661,46.5c0.2-0.6,0.2-1.2,0.2-1.8c0-4-3.3-7.3-7.3-7.3c-1.4,0-2.7,0.4-3.8,1.1c-1.3-2.1-3.6-3.5-6.2-3.5
			c-4,0-7.3,3.3-7.3,7.3l0,0c-3.7,0.4-6.5,3.5-6.5,7.2c0,4,3.3,7.3,7.3,7.3c0.4,0,0.8,0,1.1-0.1c1.5,2.6,4.3,4.4,7.6,4.4
			c2.5,0,4.8-1.1,6.4-2.8c1.1,0.6,2.3,1,3.6,1c4,0,7.3-3.3,7.3-7.3C663.6,49.7,662.6,47.8,661,46.5z M641.6,51.2
			c-2.1,0-3.8-1.2-3.8-3.6s1.8-3.8,3.9-3.8c1,0,1.9,0.4,2.4,0.9L643,46c-0.4-0.3-0.7-0.5-1.2-0.5c-0.9,0-1.8,0.8-1.8,2.1
			c0,1.3,0.7,2.1,1.7,2.1c0.6,0,1-0.2,1.4-0.6l1.1,1.1C643.5,50.8,642.6,51.2,641.6,51.2z M648.5,51.2c-2.2,0-3.7-1.4-3.7-3.7
			c0-2.4,1.5-3.7,3.7-3.7c2.2,0,3.7,1.3,3.7,3.7C652.1,49.8,650.6,51.2,648.5,51.2z M657.6,54.2H653v-0.9c1.5-1.2,2.7-2.2,2.7-3
			c0-0.5-0.3-0.8-0.8-0.8c-0.4,0-0.7,0.3-1,0.5l-0.9-0.8c0.7-0.6,1.3-0.9,2.2-0.9c1.3,0,2.2,0.7,2.2,1.9c0,0.9-1,1.9-1.8,2.7
			c0.3,0,0.8-0.1,1.1-0.1h1.1v1.4L657.6,54.2L657.6,54.2z"/>
	</g>
</g>
<g>
	<g>
		<path class="st4" d="M369.9,113.6c-0.9,0-1.5,0.7-1.5,2s0.6,2.1,1.5,2.1s1.5-0.8,1.5-2.1C371.4,114.3,370.8,113.6,369.9,113.6z"/>
	</g>
	<g>
		<path class="st4" d="M382.6,114.7c0.2-0.6,0.2-1.2,0.2-1.8c0-4-3.3-7.3-7.3-7.3c-1.4,0-2.7,0.4-3.8,1.1c-1.3-2.1-3.6-3.5-6.2-3.5
			c-4,0-7.3,3.3-7.3,7.3l0,0c-3.7,0.4-6.5,3.5-6.5,7.2c0,4,3.3,7.3,7.3,7.3c0.4,0,0.8,0,1.1-0.1c1.5,2.6,4.3,4.4,7.6,4.4
			c2.5,0,4.8-1.1,6.4-2.8c1.1,0.6,2.3,1,3.6,1c4,0,7.3-3.3,7.3-7.3C385,117.8,384,116,382.6,114.7z M363,119.3
			c-2.1,0-3.8-1.2-3.8-3.6s1.8-3.8,3.9-3.8c1,0,1.9,0.4,2.4,0.9l-1.1,1.2c-0.4-0.3-0.7-0.5-1.2-0.5c-0.9,0-1.8,0.8-1.8,2.1
			c0,1.3,0.7,2.1,1.7,2.1c0.6,0,1-0.2,1.4-0.6l1.1,1.1C364.9,119,364,119.3,363,119.3z M369.9,119.3c-2.2,0-3.7-1.4-3.7-3.7
			c0-2.4,1.5-3.7,3.7-3.7s3.7,1.3,3.7,3.7C373.6,118,372.2,119.3,369.9,119.3z M379,122.5h-4.6v-0.9c1.5-1.2,2.7-2.2,2.7-3
			c0-0.5-0.3-0.8-0.8-0.8c-0.4,0-0.7,0.3-1,0.5l-0.9-0.8c0.7-0.6,1.3-0.9,2.2-0.9c1.3,0,2.2,0.7,2.2,1.9c0,0.9-1,1.9-1.8,2.7
			c0.3,0,0.8-0.1,1.1-0.1h1.1v1.4L379,122.5L379,122.5z"/>
	</g>
</g>
<g class="st3">
	<path d="M15.7,98.3c1.4,0,2.3,0.6,3,1.2l-0.5,0.7c-0.7-0.6-1.4-1.1-2.4-1.1c-2.1,0-3.7,1.8-3.7,4.5c0,2.6,1.4,4.5,3.7,4.5
		c1.1,0,2-0.5,2.7-1.2l0.5,0.6c-0.9,0.8-1.9,1.3-3.2,1.3c-2.6,0-4.6-1.9-4.6-5.3C11.1,100.2,13.3,98.3,15.7,98.3z"/>
	<path d="M21.4,93.6h0.9v13.9c0,0.4,0.2,0.7,0.4,0.7c0.1,0,0.2,0,0.4,0l0.2,0.8c-0.2,0.1-0.4,0.1-0.7,0.1c-0.8,0-1.2-0.5-1.2-1.6
		L21.4,93.6L21.4,93.6z"/>
	<path d="M26,95.3c0-0.5,0.4-0.8,0.8-0.8s0.8,0.3,0.8,0.8s-0.4,0.8-0.8,0.8S26,95.7,26,95.3z M26.4,98.6h0.9v10.1h-0.9V98.6z"/>
	<path d="M31.1,98.6h0.8l0.1,1.6h0.1c0.9-1,2.1-1.8,3.2-1.8c1.6,0,2.4,0.8,2.8,2.1c1.2-1.3,2.3-2.1,3.4-2.1c2,0,3,1.3,3,3.9v6.5
		h-0.9v-6.3c0-2.1-0.7-3.1-2.2-3.1c-0.9,0-1.9,0.6-3,1.9v7.6h-0.9v-6.3c0-2.1-0.7-3.1-2.3-3.1c-0.9,0-1.9,0.6-3,1.9v7.6h-0.9V98.6
		L31.1,98.6L31.1,98.6z"/>
	<path d="M54.1,102.3c0-1.5-0.4-3.2-2.4-3.2c-1.4,0-2.5,0.7-3.2,1.2l-0.4-0.7c0.7-0.5,2.1-1.3,3.7-1.3c2.4,0,3.2,1.7,3.2,3.9v6.4
		h-0.8l-0.1-1.3l0,0c-1,0.8-2.2,1.6-3.6,1.6c-1.6,0-2.9-0.9-2.9-2.8C47.6,103.8,49.7,102.8,54.1,102.3z M50.7,108.1
		c1.2,0,2.2-0.6,3.4-1.6v-3.4c-4.1,0.5-5.5,1.4-5.5,3C48.6,107.6,49.6,108.1,50.7,108.1z"/>
	<path d="M59,99.3h-1.6v-0.7l1.6-0.1l0.1-2.9h0.8v2.9h2.9v0.8h-2.9v6.6c0,1.3,0.3,2.1,1.7,2.1c0.4,0,0.9-0.1,1.3-0.3l0.3,0.8
		c-0.6,0.2-1.2,0.4-1.6,0.4c-2,0-2.5-1.2-2.5-3v-6.6L59,99.3L59,99.3z"/>
	<path d="M68.6,98.3c2.4,0,3.9,1.7,3.9,4.7c0,0.3,0,0.5,0,0.8h-7.3c0,2.5,1.5,4.4,3.8,4.4c1.1,0,2-0.4,2.7-0.9l0.4,0.7
		c-0.8,0.5-1.7,1-3.2,1c-2.6,0-4.7-2-4.7-5.3C64.2,100.3,66.4,98.3,68.6,98.3z M71.6,103.1c0-2.6-1.2-3.9-3-3.9
		c-1.7,0-3.3,1.5-3.5,3.9H71.6z"/>
	<path d="M74.2,103h4.6v0.8h-4.6C74.3,103.7,74.3,103,74.2,103z"/>
</g>
<g class="st3">
	<path d="M15.9,119.6c-0.4-0.2-0.8-0.3-1.2-0.3c-1.1,0-1.6,0.8-1.6,2.3v2.2h2.3v0.8h-2.3v9.3h-0.9v-9.3h-1.4v-0.7l1.4-0.1v-2.2
		c0-2,0.9-3,2.5-3c0.5,0,1,0.1,1.5,0.3L15.9,119.6z"/>
	<path d="M17.5,123.7h0.8l0.1,1.9h0.1c0.7-1.2,1.7-2.1,2.9-2.1c0.4,0,0.7,0,1,0.2l-0.2,0.8c-0.3-0.1-0.5-0.2-0.9-0.2
		c-0.9,0-2,0.7-2.8,2.6v6.9h-0.9L17.5,123.7L17.5,123.7L17.5,123.7z"/>
	<path d="M23.7,120.6c0-0.5,0.4-0.8,0.8-0.8s0.8,0.3,0.8,0.8s-0.4,0.8-0.8,0.8S23.7,121,23.7,120.6z M24.1,123.7H25v10.1h-0.9V123.7
		z"/>
	<path d="M32.6,123.6c2.4,0,3.9,1.7,3.9,4.7c0,0.3,0,0.5,0,0.8h-7.3c0,2.5,1.5,4.4,3.8,4.4c1.1,0,2-0.4,2.7-0.9l0.4,0.7
		c-0.8,0.5-1.7,1-3.2,1c-2.6,0-4.7-2-4.7-5.3C28.1,125.6,30.2,123.6,32.6,123.6z M35.5,128.2c0-2.6-1.2-3.9-3-3.9
		c-1.7,0-3.3,1.5-3.5,3.9H35.5z"/>
	<path d="M39.1,123.7h0.8l0.1,1.6h0.1c1-1,2.1-1.8,3.5-1.8c2.1,0,3,1.3,3,3.9v6.5h-0.9v-6.3c0-2.1-0.7-3.1-2.3-3.1
		c-1.2,0-2.1,0.6-3.3,1.9v7.6h-0.9L39.1,123.7L39.1,123.7L39.1,123.7z"/>
	<path d="M54,123.6c1.2,0,2,0.5,3,1.2V123v-4.2h0.9v15.1h-0.8l-0.1-1.3h-0.1c-0.8,0.8-1.9,1.6-3.3,1.6c-2.5,0-4.2-1.9-4.2-5.3
		C49.5,125.6,51.6,123.6,54,123.6z M53.7,133.2c1.1,0,2.1-0.6,3.2-1.7v-6c-1.1-0.9-2-1.3-2.9-1.3c-2,0-3.5,2-3.5,4.5
		C50.5,131.5,51.6,133.2,53.7,133.2z"/>
	<path d="M61.6,118.7h0.9v13.9c0,0.4,0.2,0.7,0.4,0.7c0.1,0,0.2,0,0.4,0l0.2,0.8c-0.2,0.1-0.4,0.1-0.7,0.1c-0.8,0-1.2-0.5-1.2-1.6
		L61.6,118.7L61.6,118.7z"/>
	<path d="M66.2,137.6c1.2,0,2.1-1.1,2.6-2.7l0.3-0.9L65,123.7h1l2.4,6.3c0.3,0.8,0.7,1.9,1.1,2.8h0.1c0.3-0.9,0.7-2,0.9-2.8l2.2-6.3
		h0.9l-4,11.3c-0.6,1.7-1.6,3.3-3.4,3.3c-0.4,0-0.8-0.1-1-0.2l0.2-0.8C65.6,137.5,66,137.6,66.2,137.6z"/>
	<path d="M80,123.7h0.8l0.1,1.6H81c0.9-1,2.1-1.8,3.2-1.8c1.6,0,2.4,0.8,2.8,2.1c1.2-1.3,2.3-2.1,3.4-2.1c2,0,3,1.3,3,3.9v6.5h-0.9
		v-6.3c0-2.1-0.7-3.1-2.2-3.1c-0.9,0-1.9,0.6-3,1.9v7.6h-0.9v-6.3c0-2.1-0.7-3.1-2.3-3.1c-0.9,0-1.9,0.6-3,1.9v7.6h-0.9v-10.4
		L80,123.7L80,123.7z"/>
	<path d="M100.7,123.6c2.4,0,3.9,1.7,3.9,4.7c0,0.3,0,0.5,0,0.8h-7.3c0,2.5,1.5,4.4,3.8,4.4c1.1,0,2-0.4,2.7-0.9l0.4,0.7
		c-0.8,0.5-1.7,1-3.2,1c-2.6,0-4.7-2-4.7-5.3C96.2,125.6,98.4,123.6,100.7,123.6z M103.6,128.2c0-2.6-1.2-3.9-3-3.9
		c-1.7,0-3.3,1.5-3.5,3.9H103.6z"/>
	<path d="M112.9,127.6c0-1.5-0.4-3.2-2.4-3.2c-1.4,0-2.5,0.7-3.2,1.2l-0.4-0.7c0.7-0.5,2.1-1.3,3.7-1.3c2.4,0,3.2,1.7,3.2,3.9v6.4
		H113l-0.1-1.3l0,0c-1,0.8-2.2,1.6-3.6,1.6c-1.6,0-2.9-0.9-2.9-2.8C106.4,129.1,108.4,128.1,112.9,127.6z M109.4,133.2
		c1.2,0,2.2-0.6,3.4-1.6v-3.4c-4.1,0.5-5.5,1.4-5.5,3C107.2,132.8,108.2,133.2,109.4,133.2z"/>
	<path d="M117.4,118.7h0.9v13.9c0,0.4,0.2,0.7,0.4,0.7c0.1,0,0.2,0,0.4,0l0.2,0.8c-0.2,0.1-0.4,0.1-0.7,0.1c-0.8,0-1.2-0.5-1.2-1.6
		L117.4,118.7L117.4,118.7z"/>
</g>
<g>
	<path class="st1" d="M454.9,113.1c0-2.7,1.3-4.2,3.2-4.2c1.9,0,3.2,1.5,3.2,4.2s-1.3,4.3-3.2,4.3
		C456.3,117.3,454.9,115.7,454.9,113.1z M459.7,113.1c0-2-0.6-2.9-1.5-2.9s-1.5,0.8-1.5,2.9s0.6,2.9,1.5,2.9
		S459.7,115.1,459.7,113.1z M458.7,122.7l7.3-13.9h1.4l-7.3,13.9H458.7z M464.6,118.6c0-2.7,1.3-4.2,3.2-4.2s3.2,1.5,3.2,4.2
		s-1.3,4.3-3.2,4.3S464.6,121.2,464.6,118.6z M469.3,118.6c0-2-0.6-2.9-1.5-2.9s-1.5,0.8-1.5,2.9s0.6,2.9,1.5,2.9
		C468.7,121.5,469.3,120.6,469.3,118.6z"/>
	<path class="st1" d="M478.3,109.1h2.4v11.4h5.6v2h-8V109.1z"/>
	<path class="st1" d="M488.8,109.1h8.1v2h-5.7v3.4h4.8v2h-4.8v4h5.9v2h-8.3V109.1z"/>
	<path class="st1" d="M500.6,119.2c1,0.9,2.3,1.5,3.5,1.5c1.5,0,2.3-0.7,2.3-1.7c0-1.1-0.9-1.5-2.1-2l-1.9-0.8
		c-1.3-0.6-2.7-1.6-2.7-3.6c0-2.1,1.9-3.8,4.5-3.8c1.6,0,3.1,0.7,4.1,1.7l-1.2,1.5c-0.9-0.7-1.8-1.2-2.9-1.2c-1.3,0-2.1,0.6-2.1,1.6
		s1,1.4,2.1,1.9l1.8,0.8c1.6,0.7,2.7,1.7,2.7,3.6c0,2.2-1.8,4-4.8,4c-1.8,0-3.6-0.7-4.9-2L500.6,119.2z"/>
	<path class="st1" d="M511.8,119.2c1,0.9,2.3,1.5,3.5,1.5c1.5,0,2.3-0.7,2.3-1.7c0-1.1-0.9-1.5-2.1-2l-1.9-0.8
		c-1.3-0.6-2.7-1.6-2.7-3.6c0-2.1,1.9-3.8,4.5-3.8c1.6,0,3.1,0.7,4.1,1.7l-1.2,1.5c-0.9-0.7-1.8-1.2-2.9-1.2c-1.3,0-2.1,0.6-2.1,1.6
		s1,1.4,2.1,1.9l1.8,0.8c1.6,0.7,2.7,1.7,2.7,3.6c0,2.2-1.8,4-4.8,4c-1.8,0-3.6-0.7-4.9-2L511.8,119.2z"/>
	<path class="st1" d="M533,108.8c1.6,0,3,0.8,3.8,1.7l-1.3,1.5c-0.7-0.7-1.4-1.1-2.5-1.1c-2.2,0-3.8,1.9-3.8,4.9
		c0,3.1,1.4,4.9,3.7,4.9c1.2,0,2.1-0.5,2.8-1.3l1.3,1.5c-1.1,1.3-2.5,2-4.2,2c-3.4,0-6.1-2.5-6.1-6.9
		C526.8,111.5,529.6,108.8,533,108.8z"/>
	<path class="st1" d="M538.3,115.7c0-4.3,2.4-6.9,5.9-6.9s5.9,2.6,5.9,6.9c0,4.4-2.4,7-5.9,7C540.6,122.7,538.3,120.2,538.3,115.7z
		 M547.6,115.7c0-3-1.4-4.8-3.5-4.8s-3.5,1.8-3.5,4.8s1.4,5,3.5,5C546.3,120.7,547.6,118.7,547.6,115.7z"/>
	<path class="st1" d="M551.8,128.6c2.1-2.1,3.5-3.4,3.5-4.6c0-0.8-0.4-1.3-1.3-1.3c-0.6,0-1.1,0.4-1.5,0.9l-0.8-0.8
		c0.7-0.7,1.4-1.2,2.4-1.2c1.5,0,2.4,0.9,2.4,2.3s-1.3,2.7-2.8,4.3c0.4,0,0.9-0.1,1.3-0.1h1.9v1.2h-5.1V128.6L551.8,128.6z"/>
	<path class="st1" d="M564,109.1h8.1v2h-5.7v3.4h4.8v2h-4.8v4h5.9v2H564V109.1z"/>
	<path class="st1" d="M575.1,112.5h2l0.2,1.4h0.1c0.8-0.9,1.8-1.6,3.1-1.6c1.5,0,2.3,0.7,2.8,1.8c1-1,2-1.8,3.2-1.8
		c2.1,0,3.1,1.5,3.1,4v6.3h-2.4v-6c0-1.7-0.5-2.3-1.5-2.3c-0.6,0-1.3,0.4-2.1,1.3v7.1h-2.4v-6c0-1.7-0.5-2.3-1.6-2.3
		c-0.6,0-1.3,0.4-2.1,1.3v7.1h-2.4V112.5L575.1,112.5z"/>
	<path class="st1" d="M592.5,109.3c0-0.8,0.6-1.4,1.5-1.4c0.8,0,1.5,0.6,1.5,1.4s-0.6,1.3-1.5,1.3
		C593.1,110.7,592.5,110.2,592.5,109.3z M592.8,112.5h2.4v10.1h-2.4V112.5z"/>
	<path class="st1" d="M598.6,119.8c0.9,0.7,1.8,1.1,2.8,1.1c1.1,0,1.6-0.5,1.6-1.2c0-0.8-1.1-1.2-2.2-1.6c-1.3-0.5-2.8-1.3-2.8-2.9
		c0-1.8,1.4-3,3.7-3c1.4,0,2.5,0.6,3.4,1.2l-1.1,1.4c-0.7-0.5-1.4-0.9-2.2-0.9c-1,0-1.5,0.5-1.5,1.1c0,0.8,1,1.1,2.1,1.5
		c1.4,0.5,2.9,1.2,2.9,3.1c0,1.7-1.4,3.1-3.9,3.1c-1.4,0-2.8-0.6-3.8-1.4L598.6,119.8z"/>
	<path class="st1" d="M607.8,119.8c0.9,0.7,1.8,1.1,2.8,1.1c1.1,0,1.6-0.5,1.6-1.2c0-0.8-1.1-1.2-2.2-1.6c-1.3-0.5-2.8-1.3-2.8-2.9
		c0-1.8,1.4-3,3.7-3c1.4,0,2.5,0.6,3.4,1.2l-1.1,1.4c-0.7-0.5-1.4-0.9-2.2-0.9c-1,0-1.5,0.5-1.5,1.1c0,0.8,1,1.1,2.1,1.5
		c1.4,0.5,2.9,1.2,2.9,3.1c0,1.7-1.4,3.1-3.9,3.1c-1.4,0-2.8-0.6-3.8-1.4L607.8,119.8z"/>
	<path class="st1" d="M616.6,109.3c0-0.8,0.6-1.4,1.5-1.4c0.8,0,1.5,0.6,1.5,1.4s-0.6,1.3-1.5,1.3
		C617.1,110.7,616.6,110.2,616.6,109.3z M616.8,112.5h2.4v10.1h-2.4V112.5z"/>
	<path class="st1" d="M626.6,112.2c2.5,0,4.8,1.9,4.8,5.3s-2.3,5.3-4.8,5.3s-4.8-1.9-4.8-5.3C621.8,114.2,624.1,112.2,626.6,112.2z
		 M626.6,120.8c1.5,0,2.4-1.3,2.4-3.4c0-2-0.9-3.4-2.4-3.4s-2.4,1.3-2.4,3.4C624.3,119.6,625.1,120.8,626.6,120.8z"/>
	<path class="st1" d="M634.1,112.5h2l0.2,1.4h0.1c0.9-0.9,1.9-1.6,3.3-1.6c2.2,0,3.1,1.5,3.1,4v6.3h-2.4v-6c0-1.7-0.5-2.3-1.6-2.3
		c-0.9,0-1.5,0.4-2.3,1.3v7.1h-2.4V112.5L634.1,112.5z"/>
	<path class="st1" d="M646,119.8c0.9,0.7,1.8,1.1,2.8,1.1c1.1,0,1.6-0.5,1.6-1.2c0-0.8-1.1-1.2-2.2-1.6c-1.3-0.5-2.8-1.3-2.8-2.9
		c0-1.8,1.4-3,3.7-3c1.4,0,2.5,0.6,3.4,1.2l-1.1,1.4c-0.7-0.5-1.4-0.9-2.2-0.9c-1,0-1.5,0.5-1.5,1.1c0,0.8,1,1.1,2.1,1.5
		c1.4,0.5,2.9,1.2,2.9,3.1c0,1.7-1.4,3.1-3.9,3.1c-1.4,0-2.8-0.6-3.8-1.4L646,119.8z"/>
	<text transform="matrix(1 0 0 1 432.1903 122.5504)" class="st1 st5 st6">50 </text>
</g>
<text transform="matrix(1 0 0 1 288.6 122.45)" class="st4 st5 st6">629 g</text>
<text transform="matrix(1 0 0 1 561.0004 55.2505)" class="st4 st5 st6">1258 g</text>
</svg>
