<?xml version="1.0" encoding="utf-8"?>
<!-- Generator: Adobe Illustrator 19.0.0, SVG Export Plug-In . SVG Version: 6.00 Build 0)  -->
<!DOCTYPE svg PUBLIC "-//W3C//DTD SVG 1.1//EN" "http://www.w3.org/Graphics/SVG/1.1/DTD/svg11.dtd">
<svg version="1.1" id="Ebene_1" xmlns="http://www.w3.org/2000/svg" xmlns:xlink="http://www.w3.org/1999/xlink" x="0px" y="0px"
	 width="688.7px" height="161.8px" viewBox="184 240.2 688.7 161.8" style="enable-background:new 184 240.2 688.7 161.8;"
	 xml:space="preserve">
<style type="text/css">
	.st0{fill:#46CC00;}
	.st1{fill:#11586C;}
	.st2{enable-background:new    ;}
	.st3{fill:#FFFFFF;}
	.st4{fill:none;stroke:#858585;stroke-width:2;stroke-miterlimit:10;}
</style>
<g>
	<rect x="336.9" y="259.1" class="st0" width="530.6" height="47.1"/>
</g>
<g>
	<rect x="336.9" y="325.7" class="st1" width="253" height="47.1"/>
</g>
<g class="st2">
	<path d="M196.4,282.3c0-1.5-0.4-3.2-2.4-3.2c-1.4,0-2.5,0.7-3.2,1.2l-0.4-0.7c0.7-0.5,2.1-1.3,3.7-1.3c2.4,0,3.2,1.7,3.2,3.9v6.4
		h-0.8l-0.1-1.3l0,0c-1,0.8-2.2,1.6-3.6,1.6c-1.6,0-2.9-0.9-2.9-2.8C189.9,283.8,191.9,282.8,196.4,282.3z M192.9,288
		c1.2,0,2.2-0.6,3.4-1.6V283c-4.1,0.5-5.5,1.4-5.5,3C190.8,287.5,191.8,288,192.9,288z"/>
	<path d="M199.2,278.5h1l2.3,6.3c0.3,1,0.7,2,1,2.9h0.1c0.3-0.9,0.7-1.9,1-2.9l2.3-6.3h0.9l-3.7,10.1H203L199.2,278.5z"/>
	<path d="M213.6,278.2c2.4,0,3.9,1.7,3.9,4.7c0,0.3,0,0.5,0,0.8h-7.3c0,2.5,1.5,4.4,3.8,4.4c1.1,0,2-0.4,2.7-0.9l0.4,0.7
		c-0.8,0.5-1.7,1-3.2,1c-2.6,0-4.7-2-4.7-5.3C209.2,280.3,211.3,278.2,213.6,278.2z M216.5,282.9c0-2.6-1.2-3.9-3-3.9
		c-1.7,0-3.3,1.5-3.5,3.9H216.5z"/>
	<path d="M220.2,278.5h0.8l0.1,1.9h0.1c0.7-1.2,1.7-2.1,2.9-2.1c0.4,0,0.7,0,1,0.2l-0.2,0.8c-0.3-0.1-0.5-0.2-0.9-0.2
		c-0.9,0-2,0.7-2.8,2.6v6.9h-1V278.5z"/>
	<path d="M232.3,282.3c0-1.5-0.4-3.2-2.4-3.2c-1.4,0-2.5,0.7-3.2,1.2l-0.4-0.7c0.7-0.5,2.1-1.3,3.7-1.3c2.4,0,3.2,1.7,3.2,3.9v6.4
		h-0.8l-0.1-1.3l0,0c-1,0.8-2.2,1.6-3.6,1.6c-1.6,0-2.9-0.9-2.9-2.8C225.8,283.8,227.8,282.8,232.3,282.3z M228.8,288
		c1.2,0,2.2-0.6,3.4-1.6V283c-4.1,0.5-5.5,1.4-5.5,3C226.7,287.5,227.7,288,228.8,288z"/>
	<path d="M237.5,288.2L237.5,288.2c-0.5-0.4-0.9-0.9-0.9-1.7c0-0.9,0.7-1.5,1.1-1.8v-0.1c-0.6-0.5-1.3-1.6-1.3-2.8
		c0-2.1,1.6-3.5,3.5-3.5c0.5,0,1,0.1,1.3,0.3h3.4v0.8h-2.4c0.7,0.6,1.1,1.5,1.1,2.5c0,2.1-1.5,3.5-3.5,3.5c-0.6,0-1.2-0.1-1.7-0.4
		c-0.4,0.4-0.8,0.8-0.8,1.4c0,0.7,0.4,1.3,1.9,1.3h2.2c2.3,0,3.3,0.7,3.3,2.3c0,1.7-1.9,3.4-4.8,3.4c-2.5,0-4.1-1.1-4.1-2.8
		C236,289.7,236.5,288.9,237.5,288.2z M240.2,292.7c2.3,0,3.7-1.3,3.7-2.5c0-1.1-0.8-1.5-2.3-1.5h-2.2c-0.2,0-0.7,0-1.3-0.2
		c-0.9,0.6-1.3,1.4-1.3,2.1C236.9,291.8,238.1,292.7,240.2,292.7z M242.6,281.8c0-1.7-1.2-2.8-2.6-2.8s-2.6,1.1-2.6,2.8
		c0,1.7,1.2,2.8,2.6,2.8C241.3,284.6,242.6,283.5,242.6,281.8z"/>
	<path d="M250.4,278.2c2.4,0,3.9,1.7,3.9,4.7c0,0.3,0,0.5,0,0.8H247c0,2.5,1.5,4.4,3.8,4.4c1.1,0,2-0.4,2.7-0.9l0.4,0.7
		c-0.8,0.5-1.7,1-3.2,1c-2.6,0-4.7-2-4.7-5.3C246,280.3,248.1,278.2,250.4,278.2z M253.3,282.9c0-2.6-1.2-3.9-3-3.9
		c-1.7,0-3.3,1.5-3.5,3.9H253.3z"/>
	<path d="M261.1,278.5h0.8l0.1,1.6h0.1c0.9-1,2.1-1.8,3.2-1.8c1.6,0,2.4,0.8,2.8,2.1c1.2-1.3,2.3-2.1,3.4-2.1c2,0,3,1.3,3,3.9v6.5
		h-0.9v-6.3c0-2.1-0.7-3.1-2.2-3.1c-0.9,0-1.9,0.6-3,1.9v7.6h-0.9v-6.3c0-2.1-0.7-3.1-2.3-3.1c-0.9,0-1.9,0.6-3,1.9v7.6h-0.9v-10.4
		H261.1z"/>
	<path d="M281.7,278.2c2.4,0,3.9,1.7,3.9,4.7c0,0.3,0,0.5,0,0.8h-7.3c0,2.5,1.5,4.4,3.8,4.4c1.1,0,2-0.4,2.7-0.9l0.4,0.7
		c-0.8,0.5-1.7,1-3.2,1c-2.6,0-4.7-2-4.7-5.3C277.3,280.3,279.5,278.2,281.7,278.2z M284.7,282.9c0-2.6-1.2-3.9-3-3.9
		c-1.7,0-3.3,1.5-3.5,3.9H284.7z"/>
	<path d="M293.9,282.3c0-1.5-0.4-3.2-2.4-3.2c-1.4,0-2.5,0.7-3.2,1.2l-0.4-0.7c0.7-0.5,2.1-1.3,3.7-1.3c2.4,0,3.2,1.7,3.2,3.9v6.4
		H294l-0.1-1.3l0,0c-1,0.8-2.2,1.6-3.6,1.6c-1.6,0-2.9-0.9-2.9-2.8C287.4,283.8,289.5,282.8,293.9,282.3z M290.5,288
		c1.2,0,2.2-0.6,3.4-1.6V283c-4.1,0.5-5.5,1.4-5.5,3C288.4,287.5,289.4,288,290.5,288z"/>
	<path d="M298.5,273.5h0.9v13.9c0,0.4,0.2,0.7,0.4,0.7c0.1,0,0.2,0,0.4,0l0.2,0.8c-0.2,0.1-0.4,0.1-0.7,0.1c-0.8,0-1.2-0.5-1.2-1.6
		L298.5,273.5L298.5,273.5z"/>
</g>
<g class="st2">
	<path class="st3" d="M483.4,345.9h-6.3v-2h9v1.5c-3.1,3.9-3.7,6.7-3.9,11.9h-2.5C479.9,352.5,480.8,349.5,483.4,345.9z"/>
	<path class="st3" d="M487.7,355.8c3.7-3.6,6-5.9,6-8c0-1.4-0.8-2.3-2.2-2.3c-1,0-1.9,0.7-2.6,1.5l-1.3-1.3c1.2-1.3,2.4-2.1,4.3-2.1
		c2.6,0,4.2,1.6,4.2,4.1c0,2.4-2.2,4.8-4.8,7.6c0.7-0.1,1.6-0.1,2.2-0.1h3.3v2.1h-9v-1.5H487.7z"/>
	<path class="st3" d="M498.5,350.5c0-4.5,1.8-6.9,4.5-6.9s4.5,2.4,4.5,6.9s-1.8,7-4.5,7S498.5,355,498.5,350.5z M505.3,350.5
		c0-3.8-0.9-5-2.2-5c-1.3,0-2.2,1.2-2.2,5s0.9,5.1,2.2,5.1S505.3,354.3,505.3,350.5z"/>
	<path class="st3" d="M515.1,356.9L515.1,356.9c-0.5-0.4-0.9-1-0.9-1.8s0.5-1.5,1.1-1.9v-0.1c-0.7-0.5-1.3-1.5-1.3-2.7
		c0-2.4,1.9-3.7,4.1-3.7c0.6,0,1.1,0.1,1.5,0.3h3.7v1.8h-1.9c0.3,0.4,0.6,1,0.6,1.7c0,2.3-1.7,3.5-3.9,3.5c-0.4,0-0.9-0.1-1.4-0.3
		c-0.3,0.3-0.5,0.5-0.5,1c0,0.6,0.4,0.9,1.7,0.9h1.8c2.5,0,3.8,0.8,3.8,2.5c0,2-2.1,3.6-5.5,3.6c-2.5,0-4.3-0.9-4.3-2.7
		C513.6,358.2,514.1,357.5,515.1,356.9z M518.3,360.2c1.7,0,2.8-0.8,2.8-1.7c0-0.8-0.7-1-1.8-1h-1.4c-0.6,0-1,0-1.4-0.1
		c-0.5,0.4-0.8,0.9-0.8,1.4C515.6,359.7,516.6,360.2,518.3,360.2z M519.8,350.4c0-1.3-0.8-2-1.8-2s-1.8,0.7-1.8,2s0.8,2.1,1.8,2.1
		C519,352.4,519.8,351.7,519.8,350.4z"/>
</g>
<g>
	<path class="st1" d="M626.3,354.1c0.8,0.8,1.8,1.4,3.1,1.4c1.5,0,2.6-0.9,2.6-2.6c0-1.6-1-2.5-2.5-2.5c-0.9,0-1.3,0.2-2.1,0.8
		l-1.2-0.7l0.4-6.6h7.1v2h-5l-0.3,3.2c0.6-0.3,1.1-0.4,1.8-0.4c2.3,0,4.2,1.3,4.2,4.2c0,2.9-2.2,4.6-4.7,4.6c-2.2,0-3.6-0.9-4.6-1.8
		L626.3,354.1z"/>
	<path class="st1" d="M637.1,354c0.8,0.8,1.8,1.5,3.2,1.5s2.5-0.8,2.5-2c0-1.4-0.9-2.3-3.9-2.3v-1.7c2.6,0,3.5-0.9,3.5-2.1
		c0-1.1-0.8-1.8-2-1.8c-1,0-1.9,0.5-2.7,1.3l-1.2-1.5c1.1-1,2.4-1.7,4-1.7c2.6,0,4.3,1.3,4.3,3.5c0,1.5-0.9,2.5-2.3,3.1v0.1
		c1.6,0.4,2.8,1.6,2.8,3.3c0,2.4-2.1,3.9-4.7,3.9c-2.2,0-3.6-0.8-4.5-1.9L637.1,354z"/>
	<path class="st1" d="M646.9,347.6c0-2.8,1.3-4.3,3.3-4.3s3.3,1.6,3.3,4.3c0,2.8-1.3,4.4-3.3,4.4S646.9,350.3,646.9,347.6z
		 M651.7,347.6c0-2.1-0.7-2.9-1.5-2.9s-1.5,0.9-1.5,2.9s0.7,3,1.5,3S651.7,349.6,651.7,347.6z M650.6,357.5l7.5-14.2h1.5l-7.5,14.2
		H650.6z M656.7,353.1c0-2.8,1.3-4.3,3.3-4.3s3.3,1.6,3.3,4.3c0,2.8-1.3,4.4-3.3,4.4S656.7,355.9,656.7,353.1z M661.5,353.1
		c0-2.1-0.7-2.9-1.5-2.9s-1.5,0.9-1.5,2.9s0.7,3,1.5,3S661.5,355.2,661.5,353.1z"/>
	<path class="st1" d="M669.7,342.4h2.4v12.3c0,0.6,0.3,0.8,0.5,0.8c0.1,0,0.2,0,0.4,0l0.3,1.8c-0.3,0.1-0.7,0.2-1.3,0.2
		c-1.7,0-2.4-1.1-2.4-2.9L669.7,342.4L669.7,342.4z"/>
	<path class="st1" d="M679.5,346.7c2.8,0,4.3,2,4.3,4.9c0,0.5,0,0.9-0.1,1.1h-6.6c0.2,1.9,1.4,2.9,3,2.9c0.9,0,1.6-0.3,2.4-0.8
		l0.8,1.5c-1,0.7-2.2,1.1-3.5,1.1c-2.9,0-5.1-2-5.1-5.4C674.7,348.7,677.1,346.7,679.5,346.7z M681.7,351.2c0-1.6-0.7-2.6-2.1-2.6
		c-1.2,0-2.3,0.9-2.5,2.6H681.7z"/>
	<path class="st1" d="M686.2,354.5c0.9,0.7,1.8,1.2,2.9,1.2c1.1,0,1.6-0.5,1.6-1.2c0-0.9-1.1-1.2-2.2-1.7c-1.4-0.5-2.9-1.3-2.9-3
		c0-1.8,1.4-3.1,3.8-3.1c1.4,0,2.6,0.6,3.4,1.2l-1.1,1.5c-0.7-0.5-1.4-0.9-2.3-0.9c-1,0-1.5,0.5-1.5,1.1c0,0.8,1,1.1,2.1,1.5
		c1.4,0.5,3,1.2,3,3.1c0,1.8-1.4,3.2-4,3.2c-1.4,0-2.9-0.6-3.9-1.4L686.2,354.5z"/>
	<path class="st1" d="M695.2,354.5c0.9,0.7,1.8,1.2,2.9,1.2c1.1,0,1.6-0.5,1.6-1.2c0-0.9-1.1-1.2-2.2-1.7c-1.4-0.5-2.9-1.3-2.9-3
		c0-1.8,1.4-3.1,3.8-3.1c1.4,0,2.6,0.6,3.4,1.2l-1.1,1.5c-0.7-0.5-1.4-0.9-2.3-0.9c-1,0-1.5,0.5-1.5,1.1c0,0.8,1,1.1,2.1,1.5
		c1.4,0.5,3,1.2,3,3.1c0,1.8-1.4,3.2-4,3.2c-1.4,0-2.9-0.6-3.9-1.4L695.2,354.5z"/>
	<path class="st1" d="M714.3,343.3c1.7,0,3,0.8,3.9,1.7l-1.4,1.5c-0.7-0.7-1.5-1.1-2.5-1.1c-2.3,0-3.9,1.9-3.9,5s1.5,5,3.8,5
		c1.2,0,2.1-0.5,2.9-1.4l1.4,1.5c-1.1,1.3-2.6,2-4.3,2c-3.5,0-6.2-2.5-6.2-7.1C708,345.9,710.8,343.3,714.3,343.3z"/>
	<path class="st1" d="M719.4,350.3c0-4.4,2.5-7.1,6-7.1c3.6,0,6.1,2.6,6.1,7.1s-2.5,7.2-6.1,7.2
		C721.8,357.5,719.4,354.8,719.4,350.3z M729,350.3c0-3.1-1.4-4.9-3.5-4.9c-2.2,0-3.5,1.9-3.5,4.9c0,3.1,1.4,5.1,3.5,5.1
		C727.6,355.4,729,353.4,729,350.3z"/>
</g>
<g>
	<path class="st1" d="M733.1,363.4c2.2-2.1,3.5-3.5,3.5-4.7c0-0.8-0.5-1.3-1.3-1.3c-0.6,0-1.1,0.4-1.5,0.9l-0.8-0.8
		c0.7-0.8,1.4-1.2,2.5-1.2c1.5,0,2.5,0.9,2.5,2.4c0,1.4-1.3,2.8-2.8,4.4c0.4,0,0.9-0.1,1.3-0.1h1.9v1.2h-5.3L733.1,363.4
		L733.1,363.4z"/>
</g>
<g>
	<path class="st1" d="M746.8,343.5h8.3v2.1h-5.9v3.5h4.9v2.1h-4.9v4.1h6v2.1h-8.5L746.8,343.5L746.8,343.5z"/>
	<path class="st1" d="M757.9,346.9h2l0.2,1.4h0.1c0.9-0.9,1.9-1.7,3.1-1.7c1.5,0,2.4,0.7,2.9,1.8c1-1.1,2-1.8,3.3-1.8
		c2.2,0,3.2,1.5,3.2,4.1v6.5h-2.5V351c0-1.7-0.5-2.3-1.6-2.3c-0.7,0-1.4,0.4-2.2,1.3v7.2H764V351c0-1.7-0.5-2.3-1.6-2.3
		c-0.6,0-1.4,0.4-2.2,1.3v7.2h-2.4v-10.3H757.9z"/>
	<path class="st1" d="M775.3,343.8c0-0.8,0.6-1.4,1.5-1.4s1.5,0.6,1.5,1.4s-0.6,1.4-1.5,1.4C776,345.1,775.3,344.6,775.3,343.8z
		 M775.6,346.9h2.4v10.3h-2.4V346.9z"/>
	<path class="st1" d="M781.2,354.5c0.9,0.7,1.8,1.2,2.9,1.2c1.1,0,1.6-0.5,1.6-1.2c0-0.9-1.1-1.2-2.2-1.7c-1.4-0.5-2.9-1.3-2.9-3
		c0-1.8,1.4-3.1,3.8-3.1c1.4,0,2.6,0.6,3.4,1.2l-1.1,1.5c-0.7-0.5-1.4-0.9-2.3-0.9c-1,0-1.5,0.5-1.5,1.1c0,0.8,1,1.1,2.1,1.5
		c1.4,0.5,3,1.2,3,3.1c0,1.8-1.4,3.2-4,3.2c-1.4,0-2.9-0.6-3.9-1.4L781.2,354.5z"/>
	<path class="st1" d="M790.3,354.5c0.9,0.7,1.8,1.2,2.9,1.2c1.1,0,1.6-0.5,1.6-1.2c0-0.9-1.1-1.2-2.2-1.7c-1.4-0.5-2.9-1.3-2.9-3
		c0-1.8,1.4-3.1,3.8-3.1c1.4,0,2.6,0.6,3.4,1.2l-1.1,1.5c-0.7-0.5-1.4-0.9-2.3-0.9c-1,0-1.5,0.5-1.5,1.1c0,0.8,1,1.1,2.1,1.5
		c1.4,0.5,3,1.2,3,3.1c0,1.8-1.4,3.2-4,3.2c-1.4,0-2.9-0.6-3.9-1.4L790.3,354.5z"/>
	<path class="st1" d="M798.9,343.8c0-0.8,0.6-1.4,1.5-1.4s1.5,0.6,1.5,1.4s-0.6,1.4-1.5,1.4C799.6,345.1,798.9,344.6,798.9,343.8z
		 M799.2,346.9h2.4v10.3h-2.4V346.9z"/>
	<path class="st1" d="M808.9,346.7c2.6,0,4.9,2,4.9,5.4s-2.3,5.4-4.9,5.4c-2.6,0-4.9-2-4.9-5.4C804,348.6,806.4,346.7,808.9,346.7z
		 M808.9,355.5c1.5,0,2.4-1.4,2.4-3.4c0-2.1-0.9-3.4-2.4-3.4s-2.4,1.4-2.4,3.4S807.4,355.5,808.9,355.5z"/>
	<path class="st1" d="M816.2,346.9h2l0.2,1.4h0.1c0.9-0.9,2-1.6,3.4-1.6c2.2,0,3.2,1.5,3.2,4.1v6.5h-2.4v-6.2c0-1.7-0.5-2.3-1.6-2.3
		c-0.9,0-1.5,0.4-2.4,1.3v7.2h-2.5V346.9z"/>
	<path class="st1" d="M828.1,354.5c0.9,0.7,1.8,1.2,2.9,1.2c1.1,0,1.6-0.5,1.6-1.2c0-0.9-1.1-1.2-2.2-1.7c-1.4-0.5-2.9-1.3-2.9-3
		c0-1.8,1.4-3.1,3.8-3.1c1.4,0,2.6,0.6,3.4,1.2l-1.1,1.5c-0.7-0.5-1.4-0.9-2.3-0.9c-1,0-1.5,0.5-1.5,1.1c0,0.8,1,1.1,2.1,1.5
		c1.4,0.5,3,1.2,3,3.1c0,1.8-1.4,3.2-4,3.2c-1.4,0-2.9-0.6-3.9-1.4L828.1,354.5z"/>
</g>
<g>
	<g>
		<path class="st3" d="M835.9,280.1c-0.9,0-1.5,0.7-1.5,2s0.6,2.1,1.5,2.1s1.5-0.8,1.5-2.1S836.8,280.1,835.9,280.1z"/>
	</g>
	<g>
		<path class="st3" d="M848.5,281.1c0.2-0.6,0.2-1.2,0.2-1.8c0-4-3.3-7.3-7.3-7.3c-1.4,0-2.7,0.4-3.8,1.1c-1.3-2.1-3.6-3.5-6.2-3.5
			c-4,0-7.3,3.3-7.3,7.3l0,0c-3.7,0.4-6.5,3.5-6.5,7.2c0,4,3.3,7.3,7.3,7.3c0.4,0,0.8,0,1.1-0.1c1.5,2.6,4.3,4.4,7.6,4.4
			c2.5,0,4.8-1.1,6.4-2.8c1.1,0.6,2.3,1,3.6,1c4,0,7.3-3.3,7.3-7.3C851,284.4,850,282.5,848.5,281.1z M829,285.9
			c-2.1,0-3.8-1.2-3.8-3.6s1.8-3.8,3.9-3.8c1,0,1.9,0.4,2.4,0.9l-1.1,1.2c-0.4-0.3-0.7-0.5-1.2-0.5c-0.9,0-1.8,0.8-1.8,2.1
			c0,1.3,0.7,2.1,1.7,2.1c0.6,0,1-0.2,1.4-0.6l1.1,1.1C830.9,285.5,830,285.9,829,285.9z M835.9,285.9c-2.2,0-3.7-1.4-3.7-3.7
			c0-2.4,1.5-3.7,3.7-3.7s3.7,1.3,3.7,3.7C839.6,284.5,838.1,285.9,835.9,285.9z M845.1,288.9h-4.6V288c1.5-1.2,2.7-2.2,2.7-3
			c0-0.5-0.3-0.8-0.8-0.8c-0.4,0-0.7,0.3-1,0.5l-0.9-0.8c0.7-0.6,1.3-0.9,2.2-0.9c1.3,0,2.2,0.7,2.2,1.9c0,0.9-1,1.9-1.8,2.7
			c0.3,0,0.8-0.1,1.1-0.1h1.1v1.4L845.1,288.9L845.1,288.9z"/>
	</g>
</g>
<g>
	<g>
		<path class="st3" d="M557.4,348.2c-0.9,0-1.5,0.7-1.5,2s0.6,2.1,1.5,2.1s1.5-0.8,1.5-2.1C558.9,349,558.3,348.2,557.4,348.2z"/>
	</g>
	<g>
		<path class="st3" d="M570,349.3c0.2-0.6,0.2-1.2,0.2-1.8c0-4-3.3-7.3-7.3-7.3c-1.4,0-2.7,0.4-3.8,1.1c-1.3-2.1-3.6-3.5-6.2-3.5
			c-4,0-7.3,3.3-7.3,7.3l0,0c-3.7,0.4-6.5,3.5-6.5,7.2c0,4,3.3,7.3,7.3,7.3c0.4,0,0.8,0,1.1-0.1c1.5,2.6,4.3,4.4,7.6,4.4
			c2.5,0,4.8-1.1,6.4-2.8c1.1,0.6,2.3,1,3.6,1c4,0,7.3-3.3,7.3-7.3C572.5,352.5,571.5,350.6,570,349.3z M550.5,354
			c-2.1,0-3.8-1.2-3.8-3.6s1.8-3.8,3.9-3.8c1,0,1.9,0.4,2.4,0.9l-1.1,1.2c-0.4-0.3-0.7-0.5-1.2-0.5c-0.9,0-1.8,0.8-1.8,2.1
			c0,1.3,0.7,2.1,1.7,2.1c0.6,0,1-0.2,1.4-0.6l1.1,1.1C552.4,353.6,551.5,354,550.5,354z M557.4,354c-2.2,0-3.7-1.4-3.7-3.7
			c0-2.4,1.5-3.7,3.7-3.7s3.7,1.3,3.7,3.7C561,352.6,559.6,354,557.4,354z M566.5,357.1h-4.6v-0.9c1.5-1.2,2.7-2.2,2.7-3
			c0-0.5-0.3-0.8-0.8-0.8c-0.4,0-0.7,0.3-1,0.5l-0.9-0.8c0.7-0.6,1.3-0.9,2.2-0.9c1.3,0,2.2,0.7,2.2,1.9c0,0.9-1,1.9-1.8,2.7
			c0.3,0,0.8-0.1,1.1-0.1h1.1v1.4L566.5,357.1L566.5,357.1z"/>
	</g>
</g>
<g>
	<g class="st2">
		<path class="st3" d="M749.5,287.6h3v-8.8H750v-1.5c1.3-0.3,2.2-0.6,3.1-1.1h1.8v11.4h2.6v2h-8L749.5,287.6L749.5,287.6z"/>
		<path class="st3" d="M760.4,286.4c0.8,0.8,1.8,1.4,3.1,1.4c1.5,0,2.6-0.9,2.6-2.6c0-1.6-1-2.5-2.5-2.5c-0.9,0-1.3,0.2-2.1,0.8
			l-1.2-0.7l0.4-6.6h7.1v2h-5l-0.3,3.2c0.6-0.3,1.1-0.4,1.8-0.4c2.3,0,4.2,1.3,4.2,4.2c0,2.9-2.2,4.6-4.7,4.6
			c-2.2,0-3.6-0.9-4.6-1.8L760.4,286.4z"/>
		<path class="st3" d="M771.1,287.6h3v-8.8h-2.5v-1.5c1.3-0.3,2.2-0.6,3.1-1.1h1.8v11.4h2.6v2h-8L771.1,287.6L771.1,287.6z"/>
		<path class="st3" d="M781.1,282.8c0-4.5,1.8-6.9,4.5-6.9s4.5,2.4,4.5,6.9s-1.8,7-4.5,7S781.1,287.3,781.1,282.8z M787.9,282.8
			c0-3.8-0.9-5-2.2-5s-2.2,1.2-2.2,5s0.9,5.1,2.2,5.1S787.9,286.6,787.9,282.8z"/>
		<path class="st3" d="M797.7,289.2L797.7,289.2c-0.5-0.4-0.9-1-0.9-1.8s0.5-1.5,1.1-1.9v-0.1c-0.7-0.5-1.3-1.5-1.3-2.7
			c0-2.4,1.9-3.7,4.1-3.7c0.6,0,1.1,0.1,1.5,0.3h3.7v1.8H804c0.3,0.4,0.6,1,0.6,1.7c0,2.3-1.7,3.5-3.9,3.5c-0.4,0-0.9-0.1-1.4-0.3
			c-0.3,0.3-0.5,0.5-0.5,1c0,0.6,0.4,0.9,1.7,0.9h1.8c2.5,0,3.8,0.8,3.8,2.5c0,2-2.1,3.6-5.5,3.6c-2.5,0-4.3-0.9-4.3-2.7
			C796.2,290.6,796.7,289.8,797.7,289.2z M800.9,292.6c1.7,0,2.8-0.8,2.8-1.7c0-0.8-0.7-1-1.8-1h-1.4c-0.6,0-1,0-1.4-0.1
			c-0.5,0.4-0.8,0.9-0.8,1.4C798.2,292,799.2,292.6,800.9,292.6z M802.4,282.7c0-1.3-0.8-2-1.8-2s-1.8,0.7-1.8,2s0.8,2.1,1.8,2.1
			C801.6,284.8,802.4,284,802.4,282.7z"/>
	</g>
</g>
<g class="st2">
	<path d="M194.2,333c1.4,0,2.3,0.6,3,1.2l-0.5,0.7c-0.7-0.6-1.4-1.1-2.4-1.1c-2.1,0-3.7,1.8-3.7,4.5c0,2.6,1.4,4.5,3.7,4.5
		c1.1,0,2-0.5,2.7-1.2l0.5,0.6c-0.9,0.8-1.9,1.3-3.2,1.3c-2.6,0-4.6-1.9-4.6-5.3C189.6,334.9,191.7,333,194.2,333z"/>
	<path d="M199.8,328.2h0.9v13.9c0,0.4,0.2,0.7,0.4,0.7c0.1,0,0.2,0,0.4,0l0.2,0.8c-0.2,0.1-0.4,0.1-0.7,0.1c-0.8,0-1.2-0.5-1.2-1.6
		L199.8,328.2L199.8,328.2z"/>
	<path d="M204.5,330c0-0.5,0.4-0.8,0.8-0.8s0.8,0.3,0.8,0.8s-0.4,0.8-0.8,0.8S204.5,330.4,204.5,330z M204.8,333.2h0.9v10.1h-0.9
		V333.2z"/>
	<path d="M209.6,333.2h0.8l0.1,1.6h0.1c0.9-1,2.1-1.8,3.2-1.8c1.6,0,2.4,0.8,2.8,2.1c1.2-1.3,2.3-2.1,3.4-2.1c2,0,3,1.3,3,3.9v6.5
		h-0.9v-6.3c0-2.1-0.7-3.1-2.2-3.1c-0.9,0-1.9,0.6-3,1.9v7.6H216v-6.3c0-2.1-0.7-3.1-2.3-3.1c-0.9,0-1.9,0.6-3,1.9v7.6h-0.9v-10.4
		H209.6z"/>
	<path d="M232.6,337c0-1.5-0.4-3.2-2.4-3.2c-1.4,0-2.5,0.7-3.2,1.2l-0.4-0.7c0.7-0.5,2.1-1.3,3.7-1.3c2.4,0,3.2,1.7,3.2,3.9v6.4
		h-0.8l-0.1-1.3l0,0c-1,0.8-2.2,1.6-3.6,1.6c-1.6,0-2.9-0.9-2.9-2.8C226.1,338.5,228.2,337.5,232.6,337z M229.2,342.7
		c1.2,0,2.2-0.6,3.4-1.6v-3.4c-4.1,0.5-5.5,1.4-5.5,3C227.1,342.2,228.1,342.7,229.2,342.7z"/>
	<path d="M237.4,334h-1.6v-0.7l1.6-0.1l0.1-2.9h0.8v2.9h2.9v0.8h-2.9v6.6c0,1.3,0.3,2.1,1.7,2.1c0.4,0,0.9-0.1,1.3-0.3l0.3,0.8
		c-0.6,0.2-1.2,0.4-1.6,0.4c-2,0-2.5-1.2-2.5-3V334H237.4z"/>
	<path d="M247.1,333c2.4,0,3.9,1.7,3.9,4.7c0,0.3,0,0.5,0,0.8h-7.3c0,2.5,1.5,4.4,3.8,4.4c1.1,0,2-0.4,2.7-0.9l0.4,0.7
		c-0.8,0.5-1.7,1-3.2,1c-2.6,0-4.7-2-4.7-5.3C242.7,335,244.8,333,247.1,333z M250,337.7c0-2.6-1.2-3.9-3-3.9
		c-1.7,0-3.3,1.5-3.5,3.9H250z"/>
	<path d="M252.7,337.6h4.6v0.8h-4.6V337.6z"/>
</g>
<g class="st2">
	<path d="M194.3,354.2c-0.4-0.2-0.8-0.3-1.2-0.3c-1.1,0-1.6,0.8-1.6,2.3v2.2h2.3v0.8h-2.3v9.3h-0.9v-9.3h-1.4v-0.7l1.4-0.1v-2.2
		c0-2,0.9-3,2.5-3c0.5,0,1,0.1,1.5,0.3L194.3,354.2z"/>
	<path d="M195.9,358.4h0.8l0.1,1.9h0.1c0.7-1.2,1.7-2.1,2.9-2.1c0.4,0,0.7,0,1,0.2l-0.2,0.8c-0.3-0.1-0.5-0.2-0.9-0.2
		c-0.9,0-2,0.7-2.8,2.6v6.9H196v-10.1H195.9z"/>
	<path d="M202.2,355.2c0-0.5,0.4-0.8,0.8-0.8s0.8,0.3,0.8,0.8s-0.4,0.8-0.8,0.8S202.2,355.6,202.2,355.2z M202.6,358.4h0.9v10.1
		h-0.9V358.4z"/>
	<path d="M211,358.2c2.4,0,3.9,1.7,3.9,4.7c0,0.3,0,0.5,0,0.8h-7.3c0,2.5,1.5,4.4,3.8,4.4c1.1,0,2-0.4,2.7-0.9l0.4,0.7
		c-0.8,0.5-1.7,1-3.2,1c-2.6,0-4.7-2-4.7-5.3C206.6,360.2,208.7,358.2,211,358.2z M213.9,362.9c0-2.6-1.2-3.9-3-3.9
		c-1.7,0-3.3,1.5-3.5,3.9H213.9z"/>
	<path d="M217.6,358.4h0.8l0.1,1.6h0.1c1-1,2.1-1.8,3.5-1.8c2.1,0,3,1.3,3,3.9v6.5h-0.9v-6.3c0-2.1-0.7-3.1-2.3-3.1
		c-1.2,0-2.1,0.6-3.3,1.9v7.6h-0.9v-10.3H217.6z"/>
	<path d="M232.4,358.2c1.2,0,2,0.5,3,1.2v-1.8v-4.2h0.9v15.1h-0.8l-0.1-1.3h-0.1c-0.8,0.8-1.9,1.6-3.3,1.6c-2.5,0-4.2-1.9-4.2-5.3
		C227.9,360.2,230,358.2,232.4,358.2z M232.2,367.9c1.1,0,2.1-0.6,3.2-1.7v-6c-1.1-0.9-2-1.3-2.9-1.3c-2,0-3.5,2-3.5,4.5
		C228.9,366.1,230,367.9,232.2,367.9z"/>
	<path d="M240.1,353.4h0.9v13.9c0,0.4,0.2,0.7,0.4,0.7c0.1,0,0.2,0,0.4,0l0.2,0.8c-0.2,0.1-0.4,0.1-0.7,0.1c-0.8,0-1.2-0.5-1.2-1.6
		L240.1,353.4L240.1,353.4z"/>
	<path d="M244.7,372.2c1.2,0,2.1-1.1,2.6-2.7l0.3-0.9l-4.1-10.3h1l2.4,6.3c0.3,0.8,0.7,1.9,1.1,2.8h0.1c0.3-0.9,0.7-2,0.9-2.8
		l2.2-6.3h0.9l-4,11.3c-0.6,1.7-1.6,3.3-3.4,3.3c-0.4,0-0.8-0.1-1-0.2l0.2-0.8C244.1,372.1,244.4,372.2,244.7,372.2z"/>
	<path d="M258.5,358.4h0.8l0.1,1.6h0.1c0.9-1,2.1-1.8,3.2-1.8c1.6,0,2.4,0.8,2.8,2.1c1.2-1.3,2.3-2.1,3.4-2.1c2,0,3,1.3,3,3.9v6.5
		H271v-6.3c0-2.1-0.7-3.1-2.2-3.1c-0.9,0-1.9,0.6-3,1.9v7.6h-0.9v-6.3c0-2.1-0.7-3.1-2.3-3.1c-0.9,0-1.9,0.6-3,1.9v7.6h-0.9v-10.4
		H258.5z"/>
	<path d="M279.1,358.2c2.4,0,3.9,1.7,3.9,4.7c0,0.3,0,0.5,0,0.8h-7.3c0,2.5,1.5,4.4,3.8,4.4c1.1,0,2-0.4,2.7-0.9l0.4,0.7
		c-0.8,0.5-1.7,1-3.2,1c-2.6,0-4.7-2-4.7-5.3C274.7,360.2,276.8,358.2,279.1,358.2z M282,362.9c0-2.6-1.2-3.9-3-3.9
		c-1.7,0-3.3,1.5-3.5,3.9H282z"/>
	<path d="M291.3,362.2c0-1.5-0.4-3.2-2.4-3.2c-1.4,0-2.5,0.7-3.2,1.2l-0.4-0.7c0.7-0.5,2.1-1.3,3.7-1.3c2.4,0,3.2,1.7,3.2,3.9v6.4
		h-0.8l-0.1-1.3l0,0c-1,0.8-2.2,1.6-3.6,1.6c-1.6,0-2.9-0.9-2.9-2.8C284.8,363.7,286.8,362.7,291.3,362.2z M287.9,367.9
		c1.2,0,2.2-0.6,3.4-1.6v-3.4c-4.1,0.5-5.5,1.4-5.5,3C285.7,367.4,286.7,367.9,287.9,367.9z"/>
	<path d="M295.8,353.4h0.9v13.9c0,0.4,0.2,0.7,0.4,0.7c0.1,0,0.2,0,0.4,0l0.2,0.8c-0.2,0.1-0.4,0.1-0.7,0.1c-0.8,0-1.2-0.5-1.2-1.6
		L295.8,353.4L295.8,353.4z"/>
	<path d="M301.2,358.8c0.5,0,0.9,0.4,0.9,1s-0.4,0.9-0.9,0.9s-0.9-0.4-0.9-0.9C300.3,359.2,300.7,358.8,301.2,358.8z M301.2,366.8
		c0.5,0,0.9,0.4,0.9,1s-0.4,0.9-0.9,0.9s-0.9-0.4-0.9-0.9C300.3,367.2,300.7,366.8,301.2,366.8z"/>
</g>
<line class="st4" x1="336.9" y1="248" x2="336.9" y2="387.5"/>
</svg>
