<?xml version="1.0" encoding="utf-8"?>
<!-- Generator: Adobe Illustrator 16.0.0, SVG Export Plug-In . SVG Version: 6.00 Build 0)  -->
<!DOCTYPE svg PUBLIC "-//W3C//DTD SVG 1.1//EN" "http://www.w3.org/Graphics/SVG/1.1/DTD/svg11.dtd">
<svg version="1.1" id="Layer_1" xmlns="http://www.w3.org/2000/svg" xmlns:xlink="http://www.w3.org/1999/xlink" x="0px" y="0px"
	 width="38.977px" height="28.587px" viewBox="0 0 38.977 28.587" enable-background="new 0 0 38.977 28.587" xml:space="preserve">
<g>
	<defs>
		<rect id="SVGID_1_" width="38.977" height="28.587"/>
	</defs>
	<clipPath id="SVGID_2_">
		<use xlink:href="#SVGID_1_"  overflow="visible"/>
	</clipPath>
	<path clip-path="url(#SVGID_2_)" fill="#E87124" d="M1.836,0.148c0,0-1.687,0-1.687,1.688v24.915c0,0,0,1.687,1.687,1.687h32.707
		c0,0,1.688,0,1.688-1.687V1.836c0,0,0-1.688-1.688-1.688H1.836z"/>
</g>
<text transform="matrix(1 0 0 1 3.2363 21.1084)" fill="#FFFFFF" font-family="'FuturaLT-Heavy', sans-serif" font-size="17.0383">20</text>
<text transform="matrix(1 0 0 1 24.6357 21.1084)" fill="#FFFFFF" font-family="'FuturaLT-Heavy', sans-serif" font-size="10.7133">%</text>
<g>
	<defs>
		<rect id="SVGID_3_" width="38.977" height="28.587"/>
	</defs>
	<clipPath id="SVGID_4_">
		<use xlink:href="#SVGID_3_"  overflow="visible"/>
	</clipPath>
	
		<path clip-path="url(#SVGID_4_)" fill="none" stroke="#FFFFFF" stroke-width="0.298" stroke-linecap="round" stroke-linejoin="round" stroke-miterlimit="10" d="
		M1.836,0.148c0,0-1.687,0-1.687,1.688v24.915c0,0,0,1.687,1.687,1.687h32.707c0,0,1.688,0,1.688-1.687V1.836
		c0,0,0-1.688-1.688-1.688H1.836z"/>
</g>
<polygon fill="#E87124" points="30.903,14.568 34.939,19.593 38.977,14.568 34.939,9.546 "/>
</svg>
