<?xml version="1.0" encoding="utf-8"?>
<!-- Generator: Adobe Illustrator 16.0.0, SVG Export Plug-In . SVG Version: 6.00 Build 0)  -->
<svg version="1.2" baseProfile="tiny" id="Layer_1" xmlns="http://www.w3.org/2000/svg" xmlns:xlink="http://www.w3.org/1999/xlink"
	 x="0px" y="0px" width="400px" height="400px" viewBox="0 0 400 400" xml:space="preserve">
<g>
	<g>
		<path fill="#B0B3B6" d="M209.912,228.863c-12.328,0-20.574,9.99-20.574,21.725v0.25c0,11.736,8.485,21.958,20.82,21.958
			c12.428,0,20.675-9.992,20.675-21.745v-0.213C230.833,239.086,222.347,228.863,209.912,228.863"/>
		<path fill="#B0B3B6" d="M352.916,217.158c0.773-4.371,1.249-8.847,1.249-13.446c0-42.698-34.615-77.27-77.282-77.27
			c-12.879,0-25.009,3.197-35.678,8.761c-15.176-22.255-40.714-36.878-69.702-36.878c-46.564,0-84.277,37.745-84.277,84.299
			c0,0.127,0.023,0.242,0.023,0.361c-39.417,3.534-70.271,36.585-70.271,76.921c0,42.668,34.568,77.238,77.281,77.238
			c1.952,0,3.884-0.139,5.814-0.286c23.137,29.569,59.08,48.655,99.531,48.655c27.568,0,52.991-8.924,73.768-23.908
			c7.77,2.372,16.021,3.657,24.562,3.657c46.576,0,84.308-37.727,84.308-84.311C382.242,255.435,370.857,232.605,352.916,217.158
			 M125.587,293.141c-23.252,0-41.96-17.787-41.96-42.086v-0.217c0-23.732,18.243-42.32,42.882-42.32
			c16.63,0,27.316,6.967,34.532,16.97l-16.97,13.132c-4.65-5.801-9.987-9.535-17.781-9.535c-11.402,0-19.422,9.654-19.422,21.509
			v0.245c0,12.203,8.02,21.733,19.422,21.733c8.478,0,13.474-3.954,18.358-9.88l16.97,12.081
			C153.964,285.359,143.605,293.141,125.587,293.141 M253.863,250.838c0,23.355-18.842,42.303-43.956,42.303
			c-25.117,0-43.708-18.705-43.708-42.086v-0.217c0-23.371,18.832-42.32,43.959-42.32c25.093,0,43.705,18.703,43.705,42.075V250.838
			z M315.056,311.031h-52.779v-13.898l24.968-19.053c6.192-4.863,8.563-8.006,8.563-12.016c0-4.179-2.952-6.748-7.429-6.748
			c-4.472,0-8.006,2.569-13.242,8.559l-12.475-10.377c7.135-9.232,14.187-14.296,27.14-14.296c14.576,0,24.583,8.669,24.583,21.245
			v0.195c0,10.667-5.534,16.207-15.443,23.333l-11.425,8.002h27.539V311.031z"/>
	</g>
</g>
</svg>
