<?xml version="1.0" encoding="utf-8"?>
<!-- Generator: Adobe Illustrator 16.0.0, SVG Export Plug-In . SVG Version: 6.00 Build 0)  -->
<!DOCTYPE svg PUBLIC "-//W3C//DTD SVG 1.1//EN" "http://www.w3.org/Graphics/SVG/1.1/DTD/svg11.dtd">
<svg version="1.1" id="Layer_1" xmlns="http://www.w3.org/2000/svg" xmlns:xlink="http://www.w3.org/1999/xlink" x="0px" y="0px"
	 width="329.412px" height="216.172px" viewBox="37.176 93.443 329.412 216.172"
	 enable-background="new 37.176 93.443 329.412 216.172" xml:space="preserve">
<g>
	<path fill="#B0B3B6" d="M160.706,258.146H37.176c0,28.418,27.677,51.469,61.767,51.469
		C133.051,309.615,160.706,286.564,160.706,258.146z"/>
	<path fill="#B0B3B6" d="M304.826,309.615c34.106,0,61.762-23.051,61.762-51.469H243.062
		C243.062,286.564,270.736,309.615,304.826,309.615z"/>
	<path fill="#B0B3B6" d="M172.904,114.023H89.375c-6.059,0-11.022,4.631-11.022,10.295c0,5.654,4.963,10.295,11.022,10.295h3.824
		L42.876,235.26l9.209,4.586l46.857-93.725l46.872,93.725l9.209-4.586l-50.318-100.646h68.198
		c4.264,11.965,15.568,20.59,28.979,20.59c13.429,0,24.737-8.625,29-20.59h68.198L248.754,235.26l9.209,4.586l46.863-93.725
		l46.879,93.725l9.21-4.586l-50.327-100.646h3.833c6.049,0,10.986-4.641,10.986-10.295c0-5.664-4.938-10.295-10.986-10.295h-83.538
		c-4.263-11.965-15.572-20.581-29-20.581C188.472,93.442,177.167,102.058,172.904,114.023z"/>
</g>
</svg>
