<?xml version="1.0" standalone="no"?>
<!DOCTYPE svg PUBLIC "-//W3C//DTD SVG 1.1//EN" "http://www.w3.org/Graphics/SVG/1.1/DTD/svg11.dtd">
<svg width="100%" height="100%" viewBox="0 0 3322 1885" version="1.1" xmlns="http://www.w3.org/2000/svg" xmlns:xlink="http://www.w3.org/1999/xlink" xml:space="preserve" style="fill-rule:evenodd;clip-rule:evenodd;stroke-linejoin:round;stroke-miterlimit:1.41421;">
    <g id="Ebene 1" transform="matrix(4.16667,0,0,4.16667,0,0)">
        <clipPath id="_clip1">
            <path d="M214.431,176.343C202.233,177.287 191.637,185.267 183.389,193.728C183.281,193.84 183.171,193.962 183.061,194.083C172.867,201.521 163.544,210.052 154.257,218.634C143.243,228.812 131.891,238.539 120.155,247.859C96.218,266.869 70.219,283.359 48.704,305.302C48.614,305.394 48.525,305.493 48.435,305.592C48.222,305.722 48.01,305.853 47.797,305.98C44.491,307.979 41.035,312.272 41.124,316.37C41.219,320.692 45.618,319.487 48.079,318.187C61.046,311.325 74.208,304.886 87.114,297.855C100.788,290.404 114.485,282.993 128.206,275.628C155.898,260.763 183.784,246.28 211.624,231.702C222.863,225.818 232.736,218.344 238.261,206.508C241.889,198.732 241.311,190.112 236.048,183.381C231.721,177.846 224.571,176.207 217.862,176.207C216.7,176.207 215.55,176.256 214.431,176.343Z"/>
        </clipPath>
        <g clip-path="url(#_clip1)">
            <path d="M225.237,163.262L252.038,208.03L48.181,332.322L21.38,287.553L225.237,163.262Z" style="fill:url(#_Linear2);fill-rule:nonzero;"/>
        </g>
        <clipPath id="_clip3">
            <path d="M160.471,114.667C156.183,115.228 151.842,115.783 147.51,115.735C148.848,115.748 146.587,115.631 146.156,115.579C145.545,115.504 144.955,115.384 144.354,115.253C144.19,115.218 144.096,115.22 144.047,115.234C144.055,115.191 144.053,115.118 144.025,115C143.38,112.299 139.406,113.887 138.078,114.742C135.128,116.64 132.232,120.298 132.287,123.976C132.399,131.451 143.316,129.855 148.064,129.425C158.908,128.447 169.662,126.475 180.466,125.144C192.738,123.631 205.247,122.508 217.593,123.733C227.808,124.746 238.428,127.534 245.26,135.713C253.313,145.353 251.392,160.372 248.561,171.679C248.077,173.616 248.991,175.628 251.236,175.318C254.182,174.91 257.352,171.752 258.239,168.993C262.403,156.021 266.309,139.94 259.137,127.213C253.737,117.629 243.424,112.962 233.055,110.858C226.345,109.497 219.529,108.96 212.673,108.959C195.206,108.959 177.469,112.445 160.471,114.667Z"/>
        </clipPath>
        <g clip-path="url(#_clip3)">
            <path d="M266.309,175.628L132.232,175.628L132.232,108.959L266.309,108.959L266.309,175.628Z" style="fill:url(#_Linear4);fill-rule:nonzero;"/>
        </g>
        <clipPath id="_clip5">
            <path d="M296.984,41.24C286.873,41.457 276.211,50.785 270.263,58.167C263.839,66.139 259.976,75.661 259.085,85.835C258.413,93.498 260.808,101.624 266.582,106.888C274.278,113.905 285.161,112.235 294.195,109.513C297.033,108.657 299.526,105.445 300.618,102.84C301.492,100.756 301.685,96.466 298.14,97.19C291.754,98.496 284.216,98.606 278.761,94.563C274.265,91.232 272.618,85.726 272.395,80.365C272.134,74.081 274.248,68.862 277.166,64.404C277.243,64.286 277.31,64.183 277.368,64.093C277.465,63.985 277.639,63.778 277.922,63.422C278.484,62.715 279.095,62.05 279.706,61.386C279.224,61.911 281.62,59.767 281.947,59.53C285.287,57.113 288.995,56.229 292.703,54.605C295.806,53.245 298.366,50.478 299.671,47.368C300.83,44.602 300.696,41.239 297.111,41.238C297.069,41.238 297.027,41.239 296.984,41.24Z"/>
        </clipPath>
        <g clip-path="url(#_clip5)">
            <path d="M258.413,113.905L258.413,41.238L301.685,41.238L301.685,113.905L258.413,113.905Z" style="fill:url(#_Linear6);fill-rule:nonzero;"/>
        </g>
        <path d="M398.144,116.733C394.027,117.3 390.276,121.488 388.818,125.155C386.984,129.769 384.958,134.446 381.865,137.934C382.345,137.391 380.364,138.85 380.357,138.854C378.778,139.592 377.275,139.757 375.442,139.884C367.673,140.426 359.212,135.828 352.394,132.694C341.622,127.743 330.998,122.841 319.081,121.413C304.773,119.698 292.307,124.974 279.499,130.523C276.719,131.727 274.261,134.538 273.62,137.53C273.06,140.151 274.852,141.649 277.333,140.646C290.916,135.152 305.604,133.97 319.689,138.05C330.942,141.308 341.107,147.503 351.898,151.928C360.066,155.278 368.81,156.929 377.23,153.47C389.466,148.442 396.915,135.31 401.099,123.473C401.997,120.933 402.408,116.68 398.864,116.68C398.64,116.68 398.4,116.697 398.144,116.733Z" style="fill:url(#_Linear7);fill-rule:nonzero;"/>
        <g>
            <text x="322.901px" y="296.492px" style="font-family:Myriad Pro;font-size:158px;fill:white;">er<tspan x="454.357px " y="296.492px ">n</tspan>i</text>
            <text x="579.019px" y="296.492px" style="font-family:Myriad Pro;font-size:158px;fill:white;">t</text>
            <text x="634.739px" y="296.492px" style="font-family:Myriad Pro;font-size:158px;fill:white;">y </text>
            <text x="103.038px" y="297.563px" style="font-family:Myriad Pro;font-size:156px;font-weight:600;fill:white;">ea</text>
            <text x="261.846px" y="297.563px" style="font-family:Myriad Pro;font-size:156px;font-weight:600;fill:white;">t</text>
        </g>
        <clipPath id="_clip8">
            <path d="M276.075,153.99C272.779,154.621 270.022,157.595 268.767,160.59C267.896,162.668 267.79,166.376 271.083,165.872C288.719,163.175 310.995,166.181 322.038,181.879C326.089,187.639 328.182,194.469 328.302,201.472C328.432,209.114 326.134,213.393 322.496,219.074C317.099,227.504 307.741,233.678 299.823,239.511C290.056,246.709 280.099,253.761 271.767,262.648C260.383,274.79 252.187,293.662 262.066,309.241C273.1,326.643 297.118,324.525 313.722,317.69C317.517,316.128 320.875,312.16 321.736,308.139C322.564,304.269 320.036,302.919 316.674,303.891C300.745,308.495 278.49,309.917 272.535,290.372C271.719,287.694 271.637,284.495 272.016,281.896C272.568,278.099 273.542,276.222 275.393,273.463C280.166,266.346 290.385,259.429 298.006,253.818C315.616,240.851 333.939,226.98 340.461,205.098C344.807,190.516 340.29,174.433 329.403,163.981C319.998,154.952 307.811,151.971 295.408,151.971C288.9,151.971 282.332,152.791 276.075,153.99Z"/>
        </clipPath>
        <g clip-path="url(#_clip8)">
            <path d="M336.472,143.245L366.286,312.329L258.82,331.278L229.006,162.194L336.472,143.245Z" style="fill:url(#_Linear9);fill-rule:nonzero;"/>
        </g>
        <rect x="275.255" y="232.577" width="18.867" height="41.1" style="fill:white;fill-rule:nonzero;"/>
    </g>
    <defs>
        <linearGradient id="_Linear2" x1="0" y1="0" x2="1" y2="0" gradientUnits="userSpaceOnUse" gradientTransform="matrix(25.614,42.7851,-42.4122,25.8587,124.478,226.695)"><stop offset="0%" style="stop-color:rgb(247,171,101);stop-opacity:1"/><stop offset="100%" style="stop-color:rgb(201,113,47);stop-opacity:1"/></linearGradient>
        <linearGradient id="_Linear4" x1="0" y1="0" x2="1" y2="0" gradientUnits="userSpaceOnUse" gradientTransform="matrix(-130.832,1.14e-05,-1.14e-05,-130.832,263.119,142.154)"><stop offset="0%" style="stop-color:rgb(108,176,75);stop-opacity:1"/><stop offset="100%" style="stop-color:rgb(156,206,117);stop-opacity:1"/></linearGradient>
        <linearGradient id="_Linear6" x1="0" y1="0" x2="1" y2="0" gradientUnits="userSpaceOnUse" gradientTransform="matrix(-3.1e-06,-70.6235,70.6235,-3.1e-06,280.065,111.862)"><stop offset="0%" style="stop-color:rgb(95,171,76);stop-opacity:1"/><stop offset="100%" style="stop-color:rgb(136,190,113);stop-opacity:1"/></linearGradient>
        <linearGradient id="_Linear7" x1="0" y1="0" x2="1" y2="0" gradientUnits="userSpaceOnUse" gradientTransform="matrix(128.205,0,0,128.205,273.517,136.033)"><stop offset="0%" style="stop-color:rgb(110,177,75);stop-opacity:1"/><stop offset="100%" style="stop-color:rgb(136,190,113);stop-opacity:1"/></linearGradient>
        <linearGradient id="_Linear9" x1="0" y1="0" x2="1" y2="0" gradientUnits="userSpaceOnUse" gradientTransform="matrix(29.4108,166.797,-166.797,29.4108,283.865,152.602)"><stop offset="0%" style="stop-color:rgb(108,176,75);stop-opacity:1"/><stop offset="100%" style="stop-color:rgb(129,185,99);stop-opacity:1"/></linearGradient>
    </defs>
</svg>
