<?xml version="1.0" encoding="utf-8"?>
<!-- Generator: Adobe Illustrator 19.0.0, SVG Export Plug-In . SVG Version: 6.00 Build 0)  -->
<!DOCTYPE svg PUBLIC "-//W3C//DTD SVG 1.1//EN" "http://www.w3.org/Graphics/SVG/1.1/DTD/svg11.dtd">
<svg version="1.1" id="Ebene_1" xmlns="http://www.w3.org/2000/svg" xmlns:xlink="http://www.w3.org/1999/xlink" x="0px" y="0px"
	 width="314.2px" height="60.5px" viewBox="-2 260.5 314.2 60.5" style="enable-background:new -2 260.5 314.2 60.5;"
	 xml:space="preserve">
<style type="text/css">
	.st0{fill:#FFFFFF;}
</style>
<g>
	<path class="st0" d="M77.9,293.5c0.2,5.3,4.3,7.6,9,7.6c3.4,0,5.9-0.5,8.1-1.3l1.1,5.1c-2.5,1-6,1.8-10.2,1.8
		c-9.5,0-15.1-5.8-15.1-14.8c0-8.1,4.9-15.8,14.3-15.8c9.5,0,12.7,7.8,12.7,14.3c0,1.4-0.1,2.5-0.2,3.1L77.9,293.5L77.9,293.5z
		 M90.8,288.3c0.1-2.7-1.1-7.2-6.1-7.2c-4.6,0-6.5,4.2-6.8,7.2H90.8z"/>
	<path class="st0" d="M121.4,306.1l-0.5-3.3h-0.2c-1.8,2.3-4.9,3.9-8.7,3.9c-5.9,0-9.2-4.3-9.2-8.7c0-7.4,6.6-11.1,17.4-11.1v-0.5
		c0-1.9-0.8-5.1-6-5.1c-2.9,0-5.9,0.9-7.9,2.2l-1.4-4.8c2.2-1.3,6-2.6,10.6-2.6c9.4,0,12.1,6,12.1,12.4v10.6c0,2.7,0.1,5.2,0.4,7.1
		h-6.6V306.1z M120.4,291.8c-5.2-0.1-10.2,1-10.2,5.5c0,2.9,1.9,4.2,4.2,4.2c3,0,5.1-1.9,5.8-4c0.2-0.5,0.2-1.1,0.2-1.6V291.8z"/>
	<path class="st0" d="M144.8,268.4v8.4h7.1v5.5h-7.1v13c0,3.6,1,5.4,3.8,5.4c1.3,0,2.2-0.2,2.9-0.4l0.1,5.7c-1.1,0.4-3,0.7-5.4,0.7
		c-2.7,0-5-0.9-6.4-2.4c-1.6-1.7-2.3-4.3-2.3-8.2v-13.8h-4.2v-5.5h4.2v-6.6L144.8,268.4z"/>
	<path class="st0" d="M165.6,292.5c0.1,7.2,4.7,10.1,10,10.1c3.8,0,6.1-0.7,8.1-1.5l0.9,3.8c-1.9,0.8-5.1,1.8-9.7,1.8
		c-9,0-14.3-5.9-14.3-14.7c0-8.8,5.2-15.7,13.7-15.7c9.5,0,12.1,8.4,12.1,13.7c0,1.1-0.1,1.9-0.2,2.5L165.6,292.5L165.6,292.5z
		 M181.1,288.7c0.1-3.4-1.4-8.6-7.4-8.6c-5.4,0-7.7,4.9-8.1,8.6H181.1z"/>
	<path class="st0" d="M194,286.1c0-3.4-0.1-6.4-0.2-9.1h4.6l0.2,5.7h0.2c1.3-3.9,4.5-6.4,8.1-6.4c0.6,0,1,0.1,1.5,0.2v5
		c-0.5-0.1-1.1-0.2-1.8-0.2c-3.7,0-6.4,2.8-7.1,6.8c-0.1,0.7-0.2,1.6-0.2,2.5v15.6h-5.2v-20.1H194z"/>
	<path class="st0" d="M215.1,284.8c0-3-0.1-5.5-0.2-7.9h4.7l0.3,4.8h0.1c1.4-2.8,4.8-5.5,9.6-5.5c4,0,10.3,2.4,10.3,12.4V306h-5.3
		v-16.8c0-4.7-1.7-8.6-6.8-8.6c-3.5,0-6.2,2.5-7.1,5.4c-0.2,0.7-0.4,1.6-0.4,2.5V306H215L215.1,284.8L215.1,284.8z"/>
	<path class="st0" d="M255.6,268.8c0.1,1.8-1.3,3.3-3.4,3.3c-1.9,0-3.2-1.4-3.2-3.3s1.4-3.3,3.3-3.3
		C254.3,265.4,255.6,266.9,255.6,268.8z M249.7,306.1v-29.2h5.3v29.2H249.7z"/>
	<path class="st0" d="M271.3,268.6v8.4h7.6v4h-7.6v15.7c0,3.6,1,5.7,4,5.7c1.4,0,2.4-0.2,3.1-0.4l0.2,4c-1,0.4-2.7,0.7-4.7,0.7
		c-2.5,0-4.5-0.8-5.7-2.2c-1.5-1.6-2-4.2-2-7.6V281h-4.5v-4h4.5v-7L271.3,268.6z"/>
	<path class="st0" d="M288.5,277l6.4,17.2c0.7,1.9,1.4,4.2,1.9,6h0.1c0.5-1.7,1.1-4,1.9-6.1l5.8-17.1h5.6l-8,20.8
		c-3.8,10-6.4,15.1-10,18.3c-2.6,2.3-5.2,3.2-6.5,3.4l-1.3-4.5c1.3-0.4,3.1-1.3,4.6-2.6c1.4-1.1,3.3-3.2,4.5-5.9
		c0.2-0.5,0.4-1,0.4-1.3s-0.1-0.7-0.4-1.4l-10.8-26.9h5.8V277z"/>
</g>
<g>
	<path class="st0" d="M32.2,269.5c0.3,0.1,0.5,0.1,0.8,0.2c7.1,1.7,12.5,7.9,13.2,15.2c0.9,9.3-5.2,17.5-14.3,19.1
		c-5.6,1-10.6-0.5-14.9-4.3c-3.1-2.8-4.9-6.2-5.5-10.3c-1.4-9.5,4.9-18.1,14-19.9c1.5-0.3,3-0.4,4.6-0.3c0.4,0,0.6-0.1,0.7-0.5
		c0.9-2.2,1.7-4.3,2.6-6.5c0.3-0.8,0.5-0.8,1.4-0.4c0.6,0.3,0.7,0.6,0.4,1.3c-0.9,2-1.9,3.9-2.8,5.9
		C32.3,269.2,32.3,269.3,32.2,269.5z M28.4,274.7c-0.6,0.1-1,0.1-1.5,0.2c-6.2,0.9-11.3,6.8-10.1,13.9c1,6.4,7.1,10.9,13.6,10
		c9-1.2,13.5-11.5,8.2-18.9c-2.1-2.9-4.9-4.5-8.4-5c-0.3,0-0.5,0-0.6,0.3c-0.9,1.9-1.8,3.7-2.6,5.6c-0.4,0.8-0.5,1.7-0.1,2.5
		c0.6,1.2,0.7,2.4,0.4,3.6c-0.4,1.9-1.4,3.6-3.2,4.6c-1.7,0.9-3.4,0.2-3.8-1.7c-0.4-1.9,0.1-3.7,1.2-5.3c0.6-0.9,1.4-1.7,2.6-2.1
		c1.1-0.3,1.8-1,2.2-2c0.2-0.4,0.3-0.7,0.5-1.1C27.2,277.6,27.7,276.2,28.4,274.7z"/>
	<g>
		<path class="st0" d="M45.8,311.2c-1.9-0.1-3.9,0.1-5.8,0.3c-2.2,0.3-4.5,0.6-6.7,0.8c-1,0.1-2,0.2-2.9,0.3
			c-0.6,0.1-0.6,0.2-0.4,0.7c0.3,0.6,0.7,1,1.3,1.2c0.8,0.2,1.7,0.5,2.5,0.6c3.1,0.1,6.1-0.3,9-1.6c1.2-0.6,2.4-1.3,3.6-2
			c0-0.1-0.1-0.1-0.1-0.2C46.1,311.2,45.9,311.2,45.8,311.2z"/>
		<path class="st0" d="M27.4,312.7c-0.1,0-0.2,0-0.3,0c-2.6-0.3-5.3-0.6-7.9-0.9c-2.1-0.2-4.2-0.4-6.3-0.6c-0.5,0-1,0-1.5,0
			c0,0.1,0,0.1,0,0.2l0.1,0.1c3.7,2.7,7.9,3.8,12.4,3.6c0.9,0,1.8-0.4,2.6-0.6c0.5-0.2,0.9-0.6,1.2-1.2
			C27.9,312.8,27.9,312.7,27.4,312.7z"/>
		<path class="st0" d="M13.8,308.1c0-0.1,0-0.1,0-0.2c-0.1-0.1-0.2-0.1-0.3-0.2c-2-1.8-4-3.7-6-5.5c-1.7-1.5-3.4-3-5.3-4.2
			c-0.2-0.1-0.3-0.2-0.5-0.3c0.9,2.7,2.4,5.1,4.4,7.1c1.4,1.4,2.9,2.6,4.8,3.3c0.6,0.2,1.3,0.2,2,0.3
			C13.2,308.4,13.5,308.2,13.8,308.1z"/>
		<path class="st0" d="M43.8,308c0,0.1,0,0.1,0,0.2c0.4,0.1,0.8,0.3,1.2,0.3c1.2,0.1,2.3-0.5,3.3-1.1c3.1-1.8,5.2-4.5,6.8-7.7
			c0.3-0.6,0.6-1.2,0.8-1.9l-0.1-0.1C51.4,300.5,47.8,304.5,43.8,308z"/>
		<path class="st0" d="M26.9,310.6c-1-0.7-2-1.5-3.1-2.1c-1.6-1-3.2-1.8-4.8-2.8c-0.8-0.5-1.5-1.1-2.4-1.7c0,0.2,0,0.3,0,0.5
			c0.1,1.6,0.8,3,1.9,4.2c2,2,4.4,3.1,7.2,3.3c0.7,0.1,1.4,0,2.1,0C27.7,311.5,27.5,311.1,26.9,310.6z"/>
		<path class="st0" d="M32.6,312c3-0.4,5.5-1.7,7.3-4.2c0.8-1,1.2-2.2,1.1-3.7c-0.2,0.1-0.3,0.2-0.4,0.2c-1.6,1-3.3,2.1-5,3.1
			c-1.1,0.7-2.3,1.2-3.4,1.9c-0.8,0.5-1.5,1.2-2.2,1.8c-0.2,0.2-0.3,0.5-0.4,0.8c0,0.1,0.1,0.1,0.1,0.2
			C30.8,312.1,31.7,312.1,32.6,312z"/>
		<path class="st0" d="M53.3,296.8c1.1-0.5,1.8-1.4,2.3-2.4c1.9-3.7,2.3-7.7,1.7-11.8c-2.3,4.6-3.5,9.5-4.9,14.5
			C52.7,296.9,53,296.9,53.3,296.8z"/>
		<path class="st0" d="M4.4,296.8c0.3,0.1,0.5,0.1,0.9,0.3c-0.1-0.3-0.1-0.5-0.1-0.6c-0.3-1.1-0.6-2.3-1-3.4c-1-3-2-6.1-3.1-9.1
			c-0.2-0.5-0.5-1-0.7-1.5c-0.5,2.5-0.4,5,0.1,7.5c0.4,1.8,1,3.6,2,5.2C3,295.8,3.6,296.5,4.4,296.8z"/>
		<path class="st0" d="M9.4,295.3c-0.1-0.1-0.1-0.2-0.2-0.4c-0.5,0.9-0.7,1.7-0.8,2.6c-0.2,3.1,1.1,5.6,3.1,7.9
			c0.8,0.8,1.6,1.6,2.8,2.2c0-0.4,0.1-0.8,0.1-1.1c-0.2-0.9-0.5-1.8-0.9-2.6C12.2,301,10.8,298.1,9.4,295.3z"/>
		<path class="st0" d="M48.3,295.1c-1.3,2.7-2.6,5.4-3.9,8.1c-0.4,0.9-0.8,1.7-1.1,2.6c-0.1,0.5,0,1,0,1.6c0.2-0.1,0.2-0.1,0.3-0.1
			c2.6-1.6,4.4-3.9,5.2-6.8c0.5-1.7,0.6-3.4-0.1-5.1c-0.1-0.2-0.2-0.4-0.3-0.6C48.4,295,48.3,295,48.3,295.1z"/>
		<path class="st0" d="M50.4,287.2c0.1,1.7,0,3.4,0.1,5.1c0.1,1.2,0.3,2.4,0.6,3.5c0.1,0.3,0.3,0.6,0.5,1c0.2-0.3,0.3-0.5,0.4-0.7
			c1-2,1.3-4.1,1.1-6.3c-0.1-1.8-0.6-3.5-1.6-4.9c-0.4-0.5-0.8-1-1.3-1.5c-0.1,0-0.1,0.1-0.2,0.1c0,0.2,0,0.3,0,0.5
			C50.2,285.1,50.3,286.1,50.4,287.2z"/>
		<path class="st0" d="M7.1,283.8c-0.6,0.8-1.2,1.5-1.6,2.3c-1.3,2.9-1.3,5.9-0.3,8.8c0.2,0.6,0.5,1.2,0.8,1.8
			c0.6-0.6,0.8-1.2,0.9-1.9c0.2-1.5,0.3-3,0.4-4.5c0.1-1.8,0.1-3.5,0.2-5.3c0-0.5,0.1-1,0.1-1.6c-0.1,0-0.2,0-0.2,0.1
			C7.3,283.6,7.2,283.7,7.1,283.8z"/>
		<path class="st0" d="M3.4,283.9c1-4.8,2.2-9.4,2.3-14.3c-0.2,0.1-0.3,0.2-0.3,0.3c-1.2,1.7-2.1,3.6-2.7,5.6
			c-0.5,1.9-0.9,3.9-0.6,5.9C2.3,282.4,2.6,283.2,3.4,283.9z"/>
		<path class="st0" d="M54.5,283.7c0.8-0.8,1-1.7,1.1-2.7c0.1-4.1-1.1-7.9-3.5-11.2c0-0.1-0.1-0.1-0.2-0.2c0.3,4.9,1.4,9.6,2.4,14.4
			C54.4,283.8,54.4,283.7,54.5,283.7z"/>
		<path class="st0" d="M48.3,271.7c0.8,0.9,1.7,1.7,2.6,2.6c0.1,0,0.1-0.1,0.2-0.1c-0.4-3-2-5.4-4.3-7.4c-1.9-1.6-4-2.8-6.6-3.3
			c0.1,0.1,0.1,0.2,0.2,0.2C43.2,266.1,45.7,268.9,48.3,271.7z"/>
		<path class="st0" d="M17.4,263.4C17.4,263.5,17.4,263.4,17.4,263.4L17.4,263.4z"/>
		<path class="st0" d="M17.3,263.4c-0.1,0-0.2,0-0.3,0.1c-2.1,0.5-4,1.5-5.7,2.9c-2.2,1.7-3.7,3.9-4.5,6.6c-0.1,0.4-0.1,0.8-0.2,1.2
			c0.1,0,0.1,0.1,0.2,0.1C10.3,270.6,13.8,267,17.3,263.4z"/>
		<path class="st0" d="M17.4,263.4C17.3,263.4,17.3,263.4,17.4,263.4C17.3,263.4,17.3,263.4,17.4,263.4
			C17.3,263.4,17.3,263.4,17.4,263.4C17.3,263.4,17.4,263.4,17.4,263.4z"/>
		<path class="st0" d="M52.5,283.3c0.2,0.3,0.5,0.5,0.8,0.7c0.1-0.1,0.1-0.2,0.1-0.2c0-0.4,0-0.8-0.1-1.3c-0.3-2.7-1.3-5.1-3.1-7.1
			c-1-1.1-2.2-1.8-3.7-2.2c0.1,0.2,0.1,0.2,0.1,0.3c1.2,2.1,2.3,4.2,3.5,6.3C50.9,281,51.7,282.2,52.5,283.3z"/>
		<path class="st0" d="M4.3,284c0.3-0.2,0.6-0.4,0.7-0.6c0.6-0.7,1.2-1.4,1.7-2.2c1.5-2.6,2.9-5.1,4.3-7.7c0-0.1,0-0.1,0.1-0.3
			c-2.3,0.6-3.8,2-5,3.9C4.8,279.2,4.2,281.4,4.3,284z"/>
	</g>
</g>
</svg>
