<?xml version="1.0" encoding="UTF-8" standalone="no"?>
<!DOCTYPE svg PUBLIC "-//W3C//DTD SVG 1.1//EN" "http://www.w3.org/Graphics/SVG/1.1/DTD/svg11.dtd">
<svg width="100%" height="100%" viewBox="0 0 245 88" version="1.1" xmlns="http://www.w3.org/2000/svg" xmlns:xlink="http://www.w3.org/1999/xlink" xml:space="preserve" xmlns:serif="http://www.serif.com/" style="fill-rule:evenodd;clip-rule:evenodd;stroke-miterlimit:10;">
    <g opacity="0.16">
        <g>
            <clipPath id="_clip1">
                <path d="M171,2L171,48.9L211,24.4C202.7,10.9 187.9,2 171,2Z"/>
            </clipPath>
            <g clip-path="url(#_clip1)">
                <rect x="175.7" y="-0.1" width="50" height="10" style="fill:none;"/>
                <g>
                    <path d="M175.7,9.9L225.7,9.9L225.7,-0.1L175.7,-0.1L175.7,9.9Z" style="fill:none;fill-rule:nonzero;"/>
                    <g>
                        <path d="M175.7,9.9L225.7,9.9L225.7,-0.1L175.7,-0.1L175.7,9.9Z" style="fill:none;fill-rule:nonzero;"/>
                        <path d="M225.7,8.9L175.7,8.9" style="fill:none;fill-rule:nonzero;stroke:rgb(16,93,115);stroke-width:1px;"/>
                        <path d="M225.7,6.9L175.7,6.9" style="fill:none;fill-rule:nonzero;stroke:rgb(16,93,115);stroke-width:1px;"/>
                        <path d="M225.7,4.9L175.7,4.9" style="fill:none;fill-rule:nonzero;stroke:rgb(16,93,115);stroke-width:1px;"/>
                        <path d="M225.7,2.9L175.7,2.9" style="fill:none;fill-rule:nonzero;stroke:rgb(16,93,115);stroke-width:1px;"/>
                        <path d="M225.7,0.9L175.7,0.9" style="fill:none;fill-rule:nonzero;stroke:rgb(16,93,115);stroke-width:1px;"/>
                    </g>
                </g>
            </g>
        </g>
        <g>
            <clipPath id="_clip2">
                <path d="M171,2L171,48.9L211,24.4C202.7,10.9 187.9,2 171,2Z"/>
            </clipPath>
            <g clip-path="url(#_clip2)">
                <rect x="175.7" y="9.9" width="50" height="10" style="fill:none;"/>
                <g>
                    <path d="M175.7,19.9L225.7,19.9L225.7,9.9L175.7,9.9L175.7,19.9Z" style="fill:none;fill-rule:nonzero;"/>
                    <g>
                        <path d="M175.7,19.9L225.7,19.9L225.7,9.9L175.7,9.9L175.7,19.9Z" style="fill:none;fill-rule:nonzero;"/>
                        <path d="M225.7,18.9L175.7,18.9" style="fill:none;fill-rule:nonzero;stroke:rgb(16,93,115);stroke-width:1px;"/>
                        <path d="M225.7,16.9L175.7,16.9" style="fill:none;fill-rule:nonzero;stroke:rgb(16,93,115);stroke-width:1px;"/>
                        <path d="M225.7,14.9L175.7,14.9" style="fill:none;fill-rule:nonzero;stroke:rgb(16,93,115);stroke-width:1px;"/>
                        <path d="M225.7,12.9L175.7,12.9" style="fill:none;fill-rule:nonzero;stroke:rgb(16,93,115);stroke-width:1px;"/>
                        <path d="M225.7,10.9L175.7,10.9" style="fill:none;fill-rule:nonzero;stroke:rgb(16,93,115);stroke-width:1px;"/>
                    </g>
                </g>
            </g>
        </g>
        <g>
            <clipPath id="_clip3">
                <path d="M171,2L171,48.9L211,24.4C202.7,10.9 187.9,2 171,2Z"/>
            </clipPath>
            <g clip-path="url(#_clip3)">
                <rect x="175.7" y="19.9" width="50" height="10" style="fill:none;"/>
                <g>
                    <path d="M175.7,29.9L225.7,29.9L225.7,19.9L175.7,19.9L175.7,29.9Z" style="fill:none;fill-rule:nonzero;"/>
                    <g>
                        <path d="M175.7,29.9L225.7,29.9L225.7,19.9L175.7,19.9L175.7,29.9Z" style="fill:none;fill-rule:nonzero;"/>
                        <path d="M225.7,28.9L175.7,28.9" style="fill:none;fill-rule:nonzero;stroke:rgb(16,93,115);stroke-width:1px;"/>
                        <path d="M225.7,26.9L175.7,26.9" style="fill:none;fill-rule:nonzero;stroke:rgb(16,93,115);stroke-width:1px;"/>
                        <path d="M225.7,24.9L175.7,24.9" style="fill:none;fill-rule:nonzero;stroke:rgb(16,93,115);stroke-width:1px;"/>
                        <path d="M225.7,22.9L175.7,22.9" style="fill:none;fill-rule:nonzero;stroke:rgb(16,93,115);stroke-width:1px;"/>
                        <path d="M225.7,20.9L175.7,20.9" style="fill:none;fill-rule:nonzero;stroke:rgb(16,93,115);stroke-width:1px;"/>
                    </g>
                </g>
            </g>
        </g>
        <g>
            <clipPath id="_clip4">
                <path d="M171,2L171,48.9L211,24.4C202.7,10.9 187.9,2 171,2Z"/>
            </clipPath>
            <g clip-path="url(#_clip4)">
                <rect x="175.7" y="29.9" width="50" height="10" style="fill:none;"/>
                <g>
                    <path d="M175.7,39.9L225.7,39.9L225.7,29.9L175.7,29.9L175.7,39.9Z" style="fill:none;fill-rule:nonzero;"/>
                    <g>
                        <path d="M175.7,39.9L225.7,39.9L225.7,29.9L175.7,29.9L175.7,39.9Z" style="fill:none;fill-rule:nonzero;"/>
                        <path d="M225.7,38.9L175.7,38.9" style="fill:none;fill-rule:nonzero;stroke:rgb(16,93,115);stroke-width:1px;"/>
                        <path d="M225.7,36.9L175.7,36.9" style="fill:none;fill-rule:nonzero;stroke:rgb(16,93,115);stroke-width:1px;"/>
                        <path d="M225.7,34.9L175.7,34.9" style="fill:none;fill-rule:nonzero;stroke:rgb(16,93,115);stroke-width:1px;"/>
                        <path d="M225.7,32.9L175.7,32.9" style="fill:none;fill-rule:nonzero;stroke:rgb(16,93,115);stroke-width:1px;"/>
                        <path d="M225.7,30.9L175.7,30.9" style="fill:none;fill-rule:nonzero;stroke:rgb(16,93,115);stroke-width:1px;"/>
                    </g>
                </g>
            </g>
        </g>
        <g>
            <clipPath id="_clip5">
                <path d="M171,2L171,48.9L211,24.4C202.7,10.9 187.9,2 171,2Z"/>
            </clipPath>
            <g clip-path="url(#_clip5)">
                <rect x="175.7" y="39.9" width="50" height="10" style="fill:none;"/>
                <g>
                    <path d="M175.7,49.9L225.7,49.9L225.7,39.9L175.7,39.9L175.7,49.9Z" style="fill:none;fill-rule:nonzero;"/>
                    <g>
                        <path d="M175.7,49.9L225.7,49.9L225.7,39.9L175.7,39.9L175.7,49.9Z" style="fill:none;fill-rule:nonzero;"/>
                        <path d="M225.7,48.9L175.7,48.9" style="fill:none;fill-rule:nonzero;stroke:rgb(16,93,115);stroke-width:1px;"/>
                        <path d="M225.7,46.9L175.7,46.9" style="fill:none;fill-rule:nonzero;stroke:rgb(16,93,115);stroke-width:1px;"/>
                        <path d="M225.7,44.9L175.7,44.9" style="fill:none;fill-rule:nonzero;stroke:rgb(16,93,115);stroke-width:1px;"/>
                        <path d="M225.7,42.9L175.7,42.9" style="fill:none;fill-rule:nonzero;stroke:rgb(16,93,115);stroke-width:1px;"/>
                        <path d="M225.7,40.9L175.7,40.9" style="fill:none;fill-rule:nonzero;stroke:rgb(16,93,115);stroke-width:1px;"/>
                    </g>
                </g>
            </g>
        </g>
        <g>
            <clipPath id="_clip6">
                <path d="M171,2L171,48.9L211,24.4C202.7,10.9 187.9,2 171,2Z"/>
            </clipPath>
            <g clip-path="url(#_clip6)">
                <rect x="125.7" y="-0.1" width="50" height="10" style="fill:none;"/>
                <g>
                    <path d="M125.7,9.9L175.7,9.9L175.7,-0.1L125.7,-0.1L125.7,9.9Z" style="fill:none;fill-rule:nonzero;"/>
                    <g>
                        <path d="M125.7,9.9L175.7,9.9L175.7,-0.1L125.7,-0.1L125.7,9.9Z" style="fill:none;fill-rule:nonzero;"/>
                        <path d="M175.7,8.9L125.7,8.9" style="fill:none;fill-rule:nonzero;stroke:rgb(16,93,115);stroke-width:1px;"/>
                        <path d="M175.7,6.9L125.7,6.9" style="fill:none;fill-rule:nonzero;stroke:rgb(16,93,115);stroke-width:1px;"/>
                        <path d="M175.7,4.9L125.7,4.9" style="fill:none;fill-rule:nonzero;stroke:rgb(16,93,115);stroke-width:1px;"/>
                        <path d="M175.7,2.9L125.7,2.9" style="fill:none;fill-rule:nonzero;stroke:rgb(16,93,115);stroke-width:1px;"/>
                        <path d="M175.7,0.9L125.7,0.9" style="fill:none;fill-rule:nonzero;stroke:rgb(16,93,115);stroke-width:1px;"/>
                    </g>
                </g>
            </g>
        </g>
        <g>
            <clipPath id="_clip7">
                <path d="M171,2L171,48.9L211,24.4C202.7,10.9 187.9,2 171,2Z"/>
            </clipPath>
            <g clip-path="url(#_clip7)">
                <rect x="125.7" y="9.9" width="50" height="10" style="fill:none;"/>
                <g>
                    <path d="M125.7,19.9L175.7,19.9L175.7,9.9L125.7,9.9L125.7,19.9Z" style="fill:none;fill-rule:nonzero;"/>
                    <g>
                        <path d="M125.7,19.9L175.7,19.9L175.7,9.9L125.7,9.9L125.7,19.9Z" style="fill:none;fill-rule:nonzero;"/>
                        <path d="M175.7,18.9L125.7,18.9" style="fill:none;fill-rule:nonzero;stroke:rgb(16,93,115);stroke-width:1px;"/>
                        <path d="M175.7,16.9L125.7,16.9" style="fill:none;fill-rule:nonzero;stroke:rgb(16,93,115);stroke-width:1px;"/>
                        <path d="M175.7,14.9L125.7,14.9" style="fill:none;fill-rule:nonzero;stroke:rgb(16,93,115);stroke-width:1px;"/>
                        <path d="M175.7,12.9L125.7,12.9" style="fill:none;fill-rule:nonzero;stroke:rgb(16,93,115);stroke-width:1px;"/>
                        <path d="M175.7,10.9L125.7,10.9" style="fill:none;fill-rule:nonzero;stroke:rgb(16,93,115);stroke-width:1px;"/>
                    </g>
                </g>
            </g>
        </g>
        <g>
            <clipPath id="_clip8">
                <path d="M171,2L171,48.9L211,24.4C202.7,10.9 187.9,2 171,2Z"/>
            </clipPath>
            <g clip-path="url(#_clip8)">
                <rect x="125.7" y="19.9" width="50" height="10" style="fill:none;"/>
                <g>
                    <path d="M125.7,29.9L175.7,29.9L175.7,19.9L125.7,19.9L125.7,29.9Z" style="fill:none;fill-rule:nonzero;"/>
                    <g>
                        <path d="M125.7,29.9L175.7,29.9L175.7,19.9L125.7,19.9L125.7,29.9Z" style="fill:none;fill-rule:nonzero;"/>
                        <path d="M175.7,28.9L125.7,28.9" style="fill:none;fill-rule:nonzero;stroke:rgb(16,93,115);stroke-width:1px;"/>
                        <path d="M175.7,26.9L125.7,26.9" style="fill:none;fill-rule:nonzero;stroke:rgb(16,93,115);stroke-width:1px;"/>
                        <path d="M175.7,24.9L125.7,24.9" style="fill:none;fill-rule:nonzero;stroke:rgb(16,93,115);stroke-width:1px;"/>
                        <path d="M175.7,22.9L125.7,22.9" style="fill:none;fill-rule:nonzero;stroke:rgb(16,93,115);stroke-width:1px;"/>
                        <path d="M175.7,20.9L125.7,20.9" style="fill:none;fill-rule:nonzero;stroke:rgb(16,93,115);stroke-width:1px;"/>
                    </g>
                </g>
            </g>
        </g>
        <g>
            <clipPath id="_clip9">
                <path d="M171,2L171,48.9L211,24.4C202.7,10.9 187.9,2 171,2Z"/>
            </clipPath>
            <g clip-path="url(#_clip9)">
                <rect x="125.7" y="29.9" width="50" height="10" style="fill:none;"/>
                <g>
                    <path d="M125.7,39.9L175.7,39.9L175.7,29.9L125.7,29.9L125.7,39.9Z" style="fill:none;fill-rule:nonzero;"/>
                    <g>
                        <path d="M125.7,39.9L175.7,39.9L175.7,29.9L125.7,29.9L125.7,39.9Z" style="fill:none;fill-rule:nonzero;"/>
                        <path d="M175.7,38.9L125.7,38.9" style="fill:none;fill-rule:nonzero;stroke:rgb(16,93,115);stroke-width:1px;"/>
                        <path d="M175.7,36.9L125.7,36.9" style="fill:none;fill-rule:nonzero;stroke:rgb(16,93,115);stroke-width:1px;"/>
                        <path d="M175.7,34.9L125.7,34.9" style="fill:none;fill-rule:nonzero;stroke:rgb(16,93,115);stroke-width:1px;"/>
                        <path d="M175.7,32.9L125.7,32.9" style="fill:none;fill-rule:nonzero;stroke:rgb(16,93,115);stroke-width:1px;"/>
                        <path d="M175.7,30.9L125.7,30.9" style="fill:none;fill-rule:nonzero;stroke:rgb(16,93,115);stroke-width:1px;"/>
                    </g>
                </g>
            </g>
        </g>
        <g>
            <clipPath id="_clip10">
                <path d="M171,2L171,48.9L211,24.4C202.7,10.9 187.9,2 171,2Z"/>
            </clipPath>
            <g clip-path="url(#_clip10)">
                <rect x="125.7" y="39.9" width="50" height="10" style="fill:none;"/>
                <g>
                    <path d="M125.7,49.9L175.7,49.9L175.7,39.9L125.7,39.9L125.7,49.9Z" style="fill:none;fill-rule:nonzero;"/>
                    <g>
                        <path d="M125.7,49.9L175.7,49.9L175.7,39.9L125.7,39.9L125.7,49.9Z" style="fill:none;fill-rule:nonzero;"/>
                        <path d="M175.7,48.9L125.7,48.9" style="fill:none;fill-rule:nonzero;stroke:rgb(16,93,115);stroke-width:1px;"/>
                        <path d="M175.7,46.9L125.7,46.9" style="fill:none;fill-rule:nonzero;stroke:rgb(16,93,115);stroke-width:1px;"/>
                        <path d="M175.7,44.9L125.7,44.9" style="fill:none;fill-rule:nonzero;stroke:rgb(16,93,115);stroke-width:1px;"/>
                        <path d="M175.7,42.9L125.7,42.9" style="fill:none;fill-rule:nonzero;stroke:rgb(16,93,115);stroke-width:1px;"/>
                        <path d="M175.7,40.9L125.7,40.9" style="fill:none;fill-rule:nonzero;stroke:rgb(16,93,115);stroke-width:1px;"/>
                    </g>
                </g>
            </g>
        </g>
    </g>
    <path d="M211,24.4L171,48.9L212.4,71C215.9,64.4 217.9,56.9 217.9,48.9C217.9,39.9 215.4,31.5 211,24.4Z" style="fill:rgb(16,93,115);fill-opacity:0.2;fill-rule:nonzero;"/>
    <path d="M39,86.4C18.3,86.4 1.5,69.6 1.5,48.9C1.5,28.2 18.3,11.4 39,11.4C59.7,11.4 76.5,28.2 76.5,48.9C76.5,69.6 59.7,86.4 39,86.4ZM39,12.4C18.9,12.4 2.5,28.8 2.5,48.9C2.5,69 18.9,85.4 39,85.4C59.1,85.4 75.5,69 75.5,48.9C75.5,28.8 59.1,12.4 39,12.4Z" style="fill:rgb(16,93,115);fill-rule:nonzero;"/>
    <path d="M39,2L39,48.9L80.4,71C83.9,64.4 85.9,56.9 85.9,48.9C85.9,23 64.9,2 39,2Z" style="fill:rgb(16,93,115);fill-opacity:0.2;fill-rule:nonzero;"/>
    <g>
        <g>
            <path d="M34.4,53.9C34.2,55.9 33.4,57.5 32.2,58.6C31,59.7 29.3,60.2 27.2,60.2C25.8,60.2 24.5,59.8 23.4,59.1C22.3,58.4 21.4,57.4 20.8,56C20.2,54.7 19.9,53.2 19.9,51.5L19.9,49C19.9,47.3 20.2,45.7 20.8,44.4C21.4,43.1 22.3,42 23.4,41.3C24.5,40.6 25.8,40.2 27.3,40.2C29.4,40.2 31,40.8 32.2,41.9C33.4,43 34.1,44.6 34.3,46.6L32.8,46.6C32.4,43.3 30.6,41.6 27.4,41.6C25.6,41.6 24.2,42.3 23.2,43.6C22.2,44.9 21.6,46.7 21.6,49.1L21.6,51.5C21.6,53.7 22.1,55.5 23.1,56.9C24.1,58.2 25.5,58.9 27.2,58.9C28.9,58.9 30.2,58.5 31.1,57.7C32,56.9 32.5,55.6 32.7,54L34.4,53.9Z" style="fill:rgb(16,93,115);fill-rule:nonzero;"/>
            <path d="M52.8,51.3C52.8,53.1 52.5,54.7 51.9,56C51.3,57.4 50.4,58.4 49.3,59.1C48.2,59.8 46.8,60.2 45.3,60.2C43,60.2 41.2,59.4 39.8,57.8C38.4,56.2 37.7,54 37.7,51.2L37.7,49.2C37.7,47.4 38,45.9 38.6,44.5C39.2,43.1 40.1,42.1 41.3,41.3C42.5,40.5 43.8,40.2 45.3,40.2C46.8,40.2 48.1,40.6 49.3,41.3C50.4,42 51.3,43 51.9,44.4C52.5,45.7 52.8,47.2 52.9,49L52.9,51.3L52.8,51.3ZM51.1,49.1C51.1,46.8 50.6,44.9 49.5,43.6C48.4,42.3 47,41.6 45.1,41.6C43.3,41.6 41.9,42.3 40.8,43.6C39.7,44.9 39.2,46.8 39.2,49.2L39.2,51.2C39.2,53.5 39.7,55.3 40.8,56.7C41.9,58 43.3,58.7 45.2,58.7C47.1,58.7 48.5,58 49.6,56.7C50.6,55.4 51.2,53.5 51.2,51.1L51.1,49.1Z" style="fill:rgb(16,93,115);fill-rule:nonzero;"/>
        </g>
        <path d="M62.6,69L55.5,69L55.5,68.3L59.4,63.9C60,63.2 60.5,62.5 60.7,62.1C60.9,61.6 61.1,61.1 61.1,60.7C61.1,60 60.9,59.4 60.5,59C60.1,58.6 59.5,58.4 58.8,58.4C58,58.4 57.4,58.6 57,59.1C56.6,59.6 56.3,60.2 56.3,61L55.4,61C55.4,60.4 55.5,59.8 55.8,59.3C56.1,58.8 56.5,58.4 57,58.1C57.5,57.8 58.1,57.7 58.8,57.7C59.8,57.7 60.6,58 61.2,58.5C61.8,59 62.1,59.8 62.1,60.7C62.1,61.2 61.9,61.8 61.6,62.4C61.3,63 60.7,63.8 59.9,64.8L56.7,68.4L62.7,68.4L62.6,69Z" style="fill:rgb(16,93,115);fill-rule:nonzero;"/>
    </g>
    <g>
        <g>
            <path d="M167,53.9C166.8,55.9 166,57.5 164.8,58.6C163.6,59.7 161.9,60.2 159.8,60.2C158.4,60.2 157.1,59.8 156,59.1C154.9,58.4 154,57.4 153.4,56C152.8,54.7 152.5,53.2 152.5,51.5L152.5,49C152.5,47.3 152.8,45.7 153.4,44.4C154,43.1 154.9,42 156,41.3C157.1,40.6 158.4,40.2 159.9,40.2C162,40.2 163.6,40.8 164.8,41.9C166,43 166.7,44.6 166.9,46.6L165.2,46.6C164.8,43.3 163,41.6 159.8,41.6C158,41.6 156.6,42.3 155.6,43.6C154.6,44.9 154,46.7 154,49.1L154,51.5C154,53.7 154.5,55.5 155.5,56.9C156.5,58.2 157.9,58.9 159.6,58.9C161.3,58.9 162.6,58.5 163.5,57.7C164.4,56.9 164.9,55.6 165.1,54L167,53.9Z" style="fill:rgb(16,93,115);fill-rule:nonzero;"/>
            <path d="M185.4,51.3C185.4,53.1 185.1,54.7 184.5,56C183.9,57.4 183,58.4 181.9,59.1C180.8,59.8 179.4,60.2 177.9,60.2C175.6,60.2 173.8,59.4 172.4,57.8C171,56.2 170.3,54 170.3,51.2L170.3,49.2C170.3,47.4 170.6,45.9 171.2,44.5C171.8,43.1 172.7,42.1 173.9,41.3C175,40.6 176.4,40.2 177.9,40.2C179.4,40.2 180.7,40.6 181.9,41.3C183,42 183.9,43 184.5,44.4C185.1,45.7 185.4,47.2 185.5,49L185.4,51.3ZM183.7,49.1C183.7,46.8 183.2,44.9 182.1,43.6C181,42.3 179.6,41.6 177.7,41.6C175.9,41.6 174.5,42.3 173.4,43.6C172.3,44.9 171.8,46.8 171.8,49.2L171.8,51.2C171.8,53.5 172.3,55.3 173.4,56.7C174.5,58 175.9,58.7 177.8,58.7C179.7,58.7 181.1,58 182.2,56.7C183.2,55.4 183.8,53.5 183.8,51.1L183.7,49.1Z" style="fill:rgb(16,93,115);fill-rule:nonzero;"/>
        </g>
        <path d="M195.2,69L188.1,69L188.1,68.3L192,63.9C192.6,63.2 193.1,62.5 193.3,62.1C193.5,61.6 193.7,61.1 193.7,60.7C193.7,60 193.5,59.4 193.1,59C192.7,58.6 192.1,58.4 191.4,58.4C190.6,58.4 190,58.6 189.6,59.1C189.1,59.6 188.9,60.2 188.9,61L188,61C188,60.4 188.1,59.8 188.4,59.3C188.7,58.8 189.1,58.4 189.6,58.1C190.1,57.8 190.7,57.7 191.4,57.7C192.4,57.7 193.2,58 193.8,58.5C194.4,59 194.7,59.8 194.7,60.7C194.7,61.2 194.5,61.8 194.2,62.4C193.9,63 193.3,63.8 192.5,64.8L189.3,68.4L195.3,68.4L195.2,69Z" style="fill:rgb(16,93,115);fill-rule:nonzero;"/>
    </g>
    <g>
        <path d="M63.4,11.2C63.9,11.7 64.4,12 65.2,12C66,12 66.6,11.6 66.6,10.8C66.6,10 66.1,9.5 64.4,9.5L64.4,8.5C65.9,8.5 66.4,8 66.4,7.3C66.4,6.7 66,6.3 65.3,6.3C64.7,6.3 64.2,6.6 63.8,7L63.1,6.1C63.7,5.5 64.5,5.1 65.4,5.1C66.9,5.1 67.9,5.8 67.9,7.1C67.9,8 67.4,8.5 66.6,8.9C67.5,9.1 68.2,9.8 68.2,10.8C68.2,12.2 67,13 65.5,13C64.3,13 63.4,12.5 62.9,11.9L63.4,11.2Z" style="fill:rgb(250,112,27);fill-rule:nonzero;"/>
        <g>
            <path d="M75.3,7.5C75.3,5.9 76.1,5 77.2,5C78.3,5 79.1,5.9 79.1,7.5C79.1,9.1 78.3,10 77.2,10C76.1,10 75.3,9.1 75.3,7.5ZM78.1,7.5C78.1,6.3 77.7,5.8 77.2,5.8C76.7,5.8 76.3,6.3 76.3,7.5C76.3,8.7 76.7,9.2 77.2,9.2C77.7,9.2 78.1,8.7 78.1,7.5ZM77.4,13.2L81.7,5.1L82.5,5.1L78.2,13.2L77.4,13.2ZM80.9,10.7C80.9,9.1 81.7,8.2 82.8,8.2C83.9,8.2 84.7,9.1 84.7,10.7C84.7,12.3 83.9,13.2 82.8,13.2C81.7,13.2 80.9,12.3 80.9,10.7ZM83.7,10.7C83.7,9.5 83.3,9 82.8,9C82.3,9 81.9,9.5 81.9,10.7C81.9,11.9 82.3,12.4 82.8,12.4C83.3,12.4 83.7,11.9 83.7,10.7Z" style="fill:rgb(250,112,27);fill-rule:nonzero;"/>
            <path d="M88.5,5.2L93.2,5.2L93.2,6.4L89.8,6.4L89.8,8.6L92.7,8.6L92.7,9.8L89.8,9.8L89.8,13.1L88.4,13.1L88.4,5.2L88.5,5.2Z" style="fill:rgb(250,112,27);fill-rule:nonzero;"/>
            <path d="M96.7,7C98.2,7 99.5,8.1 99.5,10.1C99.5,12.1 98.2,13.2 96.7,13.2C95.2,13.2 93.9,12.1 93.9,10.1C93.9,8.1 95.3,7 96.7,7ZM96.7,12.1C97.6,12.1 98.1,11.3 98.1,10.1C98.1,8.9 97.6,8.1 96.7,8.1C95.8,8.1 95.3,8.9 95.3,10.1C95.4,11.3 95.9,12.1 96.7,12.1Z" style="fill:rgb(250,112,27);fill-rule:nonzero;"/>
            <path d="M103.3,7C104.8,7 106.1,8.1 106.1,10.1C106.1,12.1 104.8,13.2 103.3,13.2C101.8,13.2 100.5,12.1 100.5,10.1C100.5,8.1 101.9,7 103.3,7ZM103.3,12.1C104.2,12.1 104.7,11.3 104.7,10.1C104.7,8.9 104.2,8.1 103.3,8.1C102.4,8.1 101.9,8.9 101.9,10.1C101.9,11.3 102.5,12.1 103.3,12.1Z" style="fill:rgb(250,112,27);fill-rule:nonzero;"/>
            <path d="M109.6,7C110.3,7 110.7,7.3 111.1,7.6L111.1,6.7L111.1,4.6L112.5,4.6L112.5,13.1L111.4,13.1L111.3,12.5C110.9,12.9 110.3,13.3 109.6,13.3C108.1,13.3 107.2,12.2 107.2,10.2C107.1,8.2 108.4,7 109.6,7ZM109.9,12.1C110.4,12.1 110.7,11.9 111.1,11.4L111.1,8.6C110.7,8.2 110.3,8.1 109.9,8.1C109.1,8.1 108.5,8.8 108.5,10C108.6,11.4 109.1,12.1 109.9,12.1Z" style="fill:rgb(250,112,27);fill-rule:nonzero;"/>
        </g>
        <g transform="matrix(1,0,0,1,-158,0)">
            <path d="M227.1,9.2C227.1,6.6 228.1,5.3 229.7,5.3C231.3,5.3 232.3,6.7 232.3,9.2C232.3,11.8 231.3,13.2 229.7,13.2C228.1,13.2 227.1,11.8 227.1,9.2ZM231,9.2C231,7 230.5,6.4 229.7,6.4C229,6.4 228.4,7.1 228.4,9.2C228.4,11.4 228.9,12.1 229.7,12.1C230.4,12.1 231,11.4 231,9.2Z" style="fill:rgb(250,112,27);fill-rule:nonzero;"/>
        </g>
    </g>
    <g>
        <path d="M194.5,11.1C195.1,11.6 195.8,12 196.5,12C197.4,12 197.9,11.6 197.9,11C197.9,10.4 197.4,10.1 196.7,9.8L195.6,9.3C194.8,9 194,8.4 194,7.2C194,6 195.1,5 196.6,5C197.5,5 198.4,5.4 199,6L198.3,6.9C197.8,6.5 197.3,6.2 196.6,6.2C195.9,6.2 195.4,6.5 195.4,7.1C195.4,7.7 196,7.9 196.6,8.2L197.7,8.6C198.6,9 199.3,9.6 199.3,10.7C199.3,12 198.2,13 196.5,13C195.4,13 194.4,12.6 193.7,11.8L194.5,11.1Z" style="fill:rgb(250,112,27);fill-rule:nonzero;"/>
        <path d="M203.8,9.3C203.8,8.7 203.5,8.1 202.7,8.1C202.1,8.1 201.6,8.4 201,8.7L200.5,7.8C201.1,7.4 202,7 202.9,7C204.4,7 205.1,7.9 205.1,9.5L205.1,13L204,13L203.9,12.4C203.4,12.8 202.8,13.2 202.1,13.2C201.1,13.2 200.3,12.5 200.3,11.5C200.4,10.2 201.4,9.5 203.8,9.3ZM202.6,12.1C203.1,12.1 203.5,11.9 203.9,11.5L203.9,10.2C202.3,10.4 201.8,10.8 201.8,11.4C201.7,11.9 202.1,12.1 202.6,12.1Z" style="fill:rgb(250,112,27);fill-rule:nonzero;"/>
        <path d="M206.2,7.2L207.6,7.2L208.5,10.3C208.7,10.9 208.8,11.5 209,12.1C209.2,11.5 209.3,10.9 209.5,10.3L210.4,7.2L211.7,7.2L209.7,13.1L208.1,13.1L206.2,7.2Z" style="fill:rgb(250,112,27);fill-rule:nonzero;"/>
        <path d="M215.1,7C216.7,7 217.5,8.2 217.5,9.8C217.5,10.1 217.5,10.3 217.4,10.4L213.7,10.4C213.8,11.5 214.5,12.1 215.4,12.1C215.9,12.1 216.3,11.9 216.8,11.7L217.3,12.6C216.7,13 216,13.2 215.3,13.2C213.7,13.2 212.4,12.1 212.4,10.1C212.4,8.2 213.7,7 215.1,7ZM216.3,9.6C216.3,8.7 215.9,8.1 215.1,8.1C214.4,8.1 213.8,8.6 213.7,9.6L216.3,9.6Z" style="fill:rgb(250,112,27);fill-rule:nonzero;"/>
        <path d="M221.4,11.3C221.9,11.7 222.4,12.1 223.2,12.1C224.1,12.1 224.7,11.6 224.7,10.6C224.7,9.7 224.1,9.2 223.3,9.2C222.8,9.2 222.5,9.3 222.1,9.6L221.4,9.2L221.6,5.4L225.7,5.4L225.7,6.6L222.8,6.6L222.6,8.4C222.9,8.2 223.2,8.1 223.6,8.1C224.9,8.1 226,8.8 226,10.5C226,12.2 224.7,13.1 223.3,13.1C222.1,13.1 221.3,12.6 220.7,12L221.4,11.3Z" style="fill:rgb(250,112,27);fill-rule:nonzero;"/>
        <path d="M227.1,9.2C227.1,6.6 228.1,5.3 229.7,5.3C231.3,5.3 232.3,6.7 232.3,9.2C232.3,11.8 231.3,13.2 229.7,13.2C228.1,13.2 227.1,11.8 227.1,9.2ZM231,9.2C231,7 230.5,6.4 229.7,6.4C229,6.4 228.4,7.1 228.4,9.2C228.4,11.4 228.9,12.1 229.7,12.1C230.4,12.1 231,11.4 231,9.2Z" style="fill:rgb(250,112,27);fill-rule:nonzero;"/>
        <path d="M233.1,7.5C233.1,5.9 233.9,5 235,5C236.1,5 236.9,5.9 236.9,7.5C236.9,9.1 236.1,10 235,10C233.9,10 233.1,9.1 233.1,7.5ZM235.9,7.5C235.9,6.3 235.5,5.8 235,5.8C234.5,5.8 234.1,6.3 234.1,7.5C234.1,8.7 234.5,9.2 235,9.2C235.5,9.2 235.9,8.7 235.9,7.5ZM235.3,13.2L239.6,5.1L240.4,5.1L236.1,13.2L235.3,13.2ZM238.8,10.7C238.8,9.1 239.6,8.2 240.7,8.2C241.8,8.2 242.6,9.1 242.6,10.7C242.6,12.3 241.8,13.2 240.7,13.2C239.5,13.2 238.8,12.3 238.8,10.7ZM241.5,10.7C241.5,9.5 241.1,9 240.6,9C240.1,9 239.7,9.5 239.7,10.7C239.7,11.9 240.1,12.4 240.6,12.4C241.1,12.4 241.5,11.9 241.5,10.7Z" style="fill:rgb(250,112,27);fill-rule:nonzero;"/>
    </g>
    <path d="M171,86.4C150.3,86.4 133.5,69.6 133.5,48.9C133.5,28.2 150.3,11.4 171,11.4C191.7,11.4 208.5,28.2 208.5,48.9C208.5,69.6 191.7,86.4 171,86.4ZM171,12.4C150.9,12.4 134.5,28.8 134.5,48.9C134.5,69 150.9,85.4 171,85.4C191.1,85.4 207.5,69 207.5,48.9C207.5,28.8 191.1,12.4 171,12.4Z" style="fill:rgb(16,93,115);fill-rule:nonzero;"/>
    <path d="M108,57.1L107.2,56.3L111.8,51.8L107.2,47.3L108,46.5L113.2,51.8L108,57.1Z" style="fill:rgb(16,93,115);fill-rule:nonzero;"/>
</svg>
