<?xml version="1.0" encoding="utf-8"?>
<!-- Generator: Adobe Illustrator 19.0.0, SVG Export Plug-In . SVG Version: 6.00 Build 0)  -->
<!DOCTYPE svg PUBLIC "-//W3C//DTD SVG 1.1//EN" "http://www.w3.org/Graphics/SVG/1.1/DTD/svg11.dtd">
<svg version="1.1" id="Ebene_1" xmlns="http://www.w3.org/2000/svg" xmlns:xlink="http://www.w3.org/1999/xlink" x="0px" y="0px"
	 width="244.5px" height="87.9px" viewBox="-37 277.1 244.5 87.9" style="enable-background:new -37 277.1 244.5 87.9;"
	 xml:space="preserve">
<style type="text/css">
	.st0{opacity:0.16;enable-background:new    ;}
	.st1{clip-path:url(#SVGID_2_);}
	.st2{fill:none;}
	.st3{fill:none;stroke:#105D73;stroke-miterlimit:10;}
	.st4{opacity:0.2;enable-background:new    ;}
	.st5{fill:#105D73;}
	.st6{enable-background:new    ;}
	.st7{fill:#FA701B;}
</style>
<g class="st0">
	<g>
		<defs>
			<path id="SVGID_1_" d="M134,279.1V326l40-24.5C165.7,288,150.9,279.1,134,279.1z"/>
		</defs>
		<clipPath id="SVGID_2_">
			<use xlink:href="#SVGID_1_"  style="overflow:visible;"/>
		</clipPath>
		<g class="st1">
			<rect x="138.7" y="277" class="st2" width="50" height="10"/>
			<g>
				<polygon class="st2" points="138.7,287 188.7,287 188.7,277 138.7,277 				"/>
				<g>
					<polygon class="st2" points="138.7,287 188.7,287 188.7,277 138.7,277 					"/>
					<line class="st3" x1="188.7" y1="286" x2="138.7" y2="286"/>
					<line class="st3" x1="188.7" y1="284" x2="138.7" y2="284"/>
					<line class="st3" x1="188.7" y1="282" x2="138.7" y2="282"/>
					<line class="st3" x1="188.7" y1="280" x2="138.7" y2="280"/>
					<line class="st3" x1="188.7" y1="278" x2="138.7" y2="278"/>
				</g>
			</g>
		</g>
		<g class="st1">
			<rect x="138.7" y="287" class="st2" width="50" height="10"/>
			<g>
				<polygon class="st2" points="138.7,297 188.7,297 188.7,287 138.7,287 				"/>
				<g>
					<polygon class="st2" points="138.7,297 188.7,297 188.7,287 138.7,287 					"/>
					<line class="st3" x1="188.7" y1="296" x2="138.7" y2="296"/>
					<line class="st3" x1="188.7" y1="294" x2="138.7" y2="294"/>
					<line class="st3" x1="188.7" y1="292" x2="138.7" y2="292"/>
					<line class="st3" x1="188.7" y1="290" x2="138.7" y2="290"/>
					<line class="st3" x1="188.7" y1="288" x2="138.7" y2="288"/>
				</g>
			</g>
		</g>
		<g class="st1">
			<rect x="138.7" y="297" class="st2" width="50" height="10"/>
			<g>
				<polygon class="st2" points="138.7,307 188.7,307 188.7,297 138.7,297 				"/>
				<g>
					<polygon class="st2" points="138.7,307 188.7,307 188.7,297 138.7,297 					"/>
					<line class="st3" x1="188.7" y1="306" x2="138.7" y2="306"/>
					<line class="st3" x1="188.7" y1="304" x2="138.7" y2="304"/>
					<line class="st3" x1="188.7" y1="302" x2="138.7" y2="302"/>
					<line class="st3" x1="188.7" y1="300" x2="138.7" y2="300"/>
					<line class="st3" x1="188.7" y1="298" x2="138.7" y2="298"/>
				</g>
			</g>
		</g>
		<g class="st1">
			<rect x="138.7" y="307" class="st2" width="50" height="10"/>
			<g>
				<polygon class="st2" points="138.7,317 188.7,317 188.7,307 138.7,307 				"/>
				<g>
					<polygon class="st2" points="138.7,317 188.7,317 188.7,307 138.7,307 					"/>
					<line class="st3" x1="188.7" y1="316" x2="138.7" y2="316"/>
					<line class="st3" x1="188.7" y1="314" x2="138.7" y2="314"/>
					<line class="st3" x1="188.7" y1="312" x2="138.7" y2="312"/>
					<line class="st3" x1="188.7" y1="310" x2="138.7" y2="310"/>
					<line class="st3" x1="188.7" y1="308" x2="138.7" y2="308"/>
				</g>
			</g>
		</g>
		<g class="st1">
			<rect x="138.7" y="317" class="st2" width="50" height="10"/>
			<g>
				<polygon class="st2" points="138.7,327 188.7,327 188.7,317 138.7,317 				"/>
				<g>
					<polygon class="st2" points="138.7,327 188.7,327 188.7,317 138.7,317 					"/>
					<line class="st3" x1="188.7" y1="326" x2="138.7" y2="326"/>
					<line class="st3" x1="188.7" y1="324" x2="138.7" y2="324"/>
					<line class="st3" x1="188.7" y1="322" x2="138.7" y2="322"/>
					<line class="st3" x1="188.7" y1="320" x2="138.7" y2="320"/>
					<line class="st3" x1="188.7" y1="318" x2="138.7" y2="318"/>
				</g>
			</g>
		</g>
		<g class="st1">
			<rect x="88.7" y="277" class="st2" width="50" height="10"/>
			<g>
				<polygon class="st2" points="88.7,287 138.7,287 138.7,277 88.7,277 				"/>
				<g>
					<polygon class="st2" points="88.7,287 138.7,287 138.7,277 88.7,277 					"/>
					<line class="st3" x1="138.7" y1="286" x2="88.7" y2="286"/>
					<line class="st3" x1="138.7" y1="284" x2="88.7" y2="284"/>
					<line class="st3" x1="138.7" y1="282" x2="88.7" y2="282"/>
					<line class="st3" x1="138.7" y1="280" x2="88.7" y2="280"/>
					<line class="st3" x1="138.7" y1="278" x2="88.7" y2="278"/>
				</g>
			</g>
		</g>
		<g class="st1">
			<rect x="88.7" y="287" class="st2" width="50" height="10"/>
			<g>
				<polygon class="st2" points="88.7,297 138.7,297 138.7,287 88.7,287 				"/>
				<g>
					<polygon class="st2" points="88.7,297 138.7,297 138.7,287 88.7,287 					"/>
					<line class="st3" x1="138.7" y1="296" x2="88.7" y2="296"/>
					<line class="st3" x1="138.7" y1="294" x2="88.7" y2="294"/>
					<line class="st3" x1="138.7" y1="292" x2="88.7" y2="292"/>
					<line class="st3" x1="138.7" y1="290" x2="88.7" y2="290"/>
					<line class="st3" x1="138.7" y1="288" x2="88.7" y2="288"/>
				</g>
			</g>
		</g>
		<g class="st1">
			<rect x="88.7" y="297" class="st2" width="50" height="10"/>
			<g>
				<polygon class="st2" points="88.7,307 138.7,307 138.7,297 88.7,297 				"/>
				<g>
					<polygon class="st2" points="88.7,307 138.7,307 138.7,297 88.7,297 					"/>
					<line class="st3" x1="138.7" y1="306" x2="88.7" y2="306"/>
					<line class="st3" x1="138.7" y1="304" x2="88.7" y2="304"/>
					<line class="st3" x1="138.7" y1="302" x2="88.7" y2="302"/>
					<line class="st3" x1="138.7" y1="300" x2="88.7" y2="300"/>
					<line class="st3" x1="138.7" y1="298" x2="88.7" y2="298"/>
				</g>
			</g>
		</g>
		<g class="st1">
			<rect x="88.7" y="307" class="st2" width="50" height="10"/>
			<g>
				<polygon class="st2" points="88.7,317 138.7,317 138.7,307 88.7,307 				"/>
				<g>
					<polygon class="st2" points="88.7,317 138.7,317 138.7,307 88.7,307 					"/>
					<line class="st3" x1="138.7" y1="316" x2="88.7" y2="316"/>
					<line class="st3" x1="138.7" y1="314" x2="88.7" y2="314"/>
					<line class="st3" x1="138.7" y1="312" x2="88.7" y2="312"/>
					<line class="st3" x1="138.7" y1="310" x2="88.7" y2="310"/>
					<line class="st3" x1="138.7" y1="308" x2="88.7" y2="308"/>
				</g>
			</g>
		</g>
		<g class="st1">
			<rect x="88.7" y="317" class="st2" width="50" height="10"/>
			<g>
				<polygon class="st2" points="88.7,327 138.7,327 138.7,317 88.7,317 				"/>
				<g>
					<polygon class="st2" points="88.7,327 138.7,327 138.7,317 88.7,317 					"/>
					<line class="st3" x1="138.7" y1="326" x2="88.7" y2="326"/>
					<line class="st3" x1="138.7" y1="324" x2="88.7" y2="324"/>
					<line class="st3" x1="138.7" y1="322" x2="88.7" y2="322"/>
					<line class="st3" x1="138.7" y1="320" x2="88.7" y2="320"/>
					<line class="st3" x1="138.7" y1="318" x2="88.7" y2="318"/>
				</g>
			</g>
		</g>
	</g>
</g>
<g class="st4">
	<path class="st5" d="M174,301.5L134,326l41.4,22.1c3.5-6.6,5.5-14.1,5.5-22.1C180.9,317,178.4,308.6,174,301.5z"/>
</g>
<g>
	<path class="st5" d="M2,363.5c-20.7,0-37.5-16.8-37.5-37.5s16.8-37.5,37.5-37.5s37.5,16.8,37.5,37.5S22.7,363.5,2,363.5z M2,289.5
		c-20.1,0-36.5,16.4-36.5,36.5c0,20.1,16.4,36.5,36.5,36.5s36.5-16.4,36.5-36.5C38.5,305.9,22.1,289.5,2,289.5z"/>
</g>
<g>
	<g class="st4">
		<path class="st5" d="M2,279.1V326l41.4,22.1c3.5-6.6,5.5-14.1,5.5-22.1C48.9,300.1,27.9,279.1,2,279.1z"/>
	</g>
</g>
<g>
	<g class="st6">
		<g>
			<path class="st5" d="M-2.6,331c-0.2,2-1,3.6-2.2,4.7s-2.9,1.6-5,1.6c-1.4,0-2.7-0.4-3.8-1.1s-2-1.7-2.6-3.1
				c-0.6-1.3-0.9-2.8-0.9-4.5v-2.5c0-1.7,0.3-3.3,0.9-4.6c0.6-1.3,1.5-2.4,2.6-3.1s2.4-1.1,3.9-1.1c2.1,0,3.7,0.6,4.9,1.7
				s1.9,2.7,2.1,4.7h-1.5c-0.4-3.3-2.2-5-5.4-5c-1.8,0-3.2,0.7-4.2,2s-1.6,3.1-1.6,5.5v2.4c0,2.2,0.5,4,1.5,5.4c1,1.3,2.4,2,4.1,2
				s3-0.4,3.9-1.2c0.9-0.8,1.4-2.1,1.6-3.7L-2.6,331L-2.6,331z"/>
		</g>
		<g>
			<path class="st5" d="M15.8,328.4c0,1.8-0.3,3.4-0.9,4.7c-0.6,1.4-1.5,2.4-2.6,3.1s-2.5,1.1-4,1.1c-2.3,0-4.1-0.8-5.5-2.4
				s-2.1-3.8-2.1-6.6v-2c0-1.8,0.3-3.3,0.9-4.7c0.6-1.4,1.5-2.4,2.7-3.2s2.5-1.1,4-1.1s2.8,0.4,4,1.1c1.1,0.7,2,1.7,2.6,3.1
				c0.6,1.3,0.9,2.8,1,4.6v2.3H15.8z M14.1,326.2c0-2.3-0.5-4.2-1.6-5.5s-2.5-2-4.4-2c-1.8,0-3.2,0.7-4.3,2s-1.6,3.2-1.6,5.6v2
				c0,2.3,0.5,4.1,1.6,5.5c1.1,1.3,2.5,2,4.4,2s3.3-0.7,4.4-2c1-1.3,1.6-3.2,1.6-5.6L14.1,326.2L14.1,326.2z"/>
		</g>
	</g>
	<g class="st6">
		<g>
			<path class="st5" d="M25.6,346.1h-7.1v-0.7l3.9-4.4c0.6-0.7,1.1-1.4,1.3-1.8c0.2-0.5,0.4-1,0.4-1.4c0-0.7-0.2-1.3-0.6-1.7
				c-0.4-0.4-1-0.6-1.7-0.6c-0.8,0-1.4,0.2-1.8,0.7s-0.7,1.1-0.7,1.9h-0.9c0-0.6,0.1-1.2,0.4-1.7s0.7-0.9,1.2-1.2s1.1-0.4,1.8-0.4
				c1,0,1.8,0.3,2.4,0.8s0.9,1.3,0.9,2.2c0,0.5-0.2,1.1-0.5,1.7s-0.9,1.4-1.7,2.4l-3.2,3.6h6L25.6,346.1L25.6,346.1z"/>
		</g>
	</g>
</g>
<g>
	<g class="st6">
		<g>
			<path class="st5" d="M130,331c-0.2,2-1,3.6-2.2,4.7s-2.9,1.6-5,1.6c-1.4,0-2.7-0.4-3.8-1.1s-2-1.7-2.6-3.1
				c-0.6-1.3-0.9-2.8-0.9-4.5v-2.5c0-1.7,0.3-3.3,0.9-4.6c0.6-1.3,1.5-2.4,2.6-3.1s2.4-1.1,3.9-1.1c2.1,0,3.7,0.6,4.9,1.7
				c1.2,1.1,1.9,2.7,2.1,4.7h-1.7c-0.4-3.3-2.2-5-5.4-5c-1.8,0-3.2,0.7-4.2,2s-1.6,3.1-1.6,5.5v2.4c0,2.2,0.5,4,1.5,5.4
				c1,1.3,2.4,2,4.1,2s3-0.4,3.9-1.2s1.4-2.1,1.6-3.7L130,331L130,331z"/>
		</g>
		<g>
			<path class="st5" d="M148.4,328.4c0,1.8-0.3,3.4-0.9,4.7c-0.6,1.4-1.5,2.4-2.6,3.1s-2.5,1.1-4,1.1c-2.3,0-4.1-0.8-5.5-2.4
				s-2.1-3.8-2.1-6.6v-2c0-1.8,0.3-3.3,0.9-4.7c0.6-1.4,1.5-2.4,2.7-3.2c1.1-0.7,2.5-1.1,4-1.1s2.8,0.4,4,1.1c1.1,0.7,2,1.7,2.6,3.1
				c0.6,1.3,0.9,2.8,1,4.6L148.4,328.4L148.4,328.4z M146.7,326.2c0-2.3-0.5-4.2-1.6-5.5s-2.5-2-4.4-2c-1.8,0-3.2,0.7-4.3,2
				s-1.6,3.2-1.6,5.6v2c0,2.3,0.5,4.1,1.6,5.5c1.1,1.3,2.5,2,4.4,2s3.3-0.7,4.4-2c1-1.3,1.6-3.2,1.6-5.6L146.7,326.2L146.7,326.2z"
				/>
		</g>
	</g>
	<g class="st6">
		<g>
			<path class="st5" d="M158.2,346.1h-7.1v-0.7l3.9-4.4c0.6-0.7,1.1-1.4,1.3-1.8c0.2-0.5,0.4-1,0.4-1.4c0-0.7-0.2-1.3-0.6-1.7
				c-0.4-0.4-1-0.6-1.7-0.6c-0.8,0-1.4,0.2-1.8,0.7c-0.5,0.5-0.7,1.1-0.7,1.9H151c0-0.6,0.1-1.2,0.4-1.7c0.3-0.5,0.7-0.9,1.2-1.2
				c0.5-0.3,1.1-0.4,1.8-0.4c1,0,1.8,0.3,2.4,0.8s0.9,1.3,0.9,2.2c0,0.5-0.2,1.1-0.5,1.7s-0.9,1.4-1.7,2.4l-3.2,3.6h6L158.2,346.1
				L158.2,346.1z"/>
		</g>
	</g>
</g>
<g>
	<g class="st6">
		<path class="st7" d="M26.4,288.3c0.5,0.5,1,0.8,1.8,0.8c0.8,0,1.4-0.4,1.4-1.2c0-0.8-0.5-1.3-2.2-1.3v-1c1.5,0,2-0.5,2-1.2
			c0-0.6-0.4-1-1.1-1c-0.6,0-1.1,0.3-1.5,0.7l-0.7-0.9c0.6-0.6,1.4-1,2.3-1c1.5,0,2.5,0.7,2.5,2c0,0.9-0.5,1.4-1.3,1.8v0
			c0.9,0.2,1.6,0.9,1.6,1.9c0,1.4-1.2,2.2-2.7,2.2c-1.2,0-2.1-0.5-2.6-1.1L26.4,288.3z"/>
	</g>
	<g class="st6">
		<path class="st7" d="M33,289h1.7v-5h-1.4v-0.9c0.8-0.1,1.3-0.3,1.8-0.6h1v6.5h1.5v1.1H33V289z"/>
	</g>
	<g class="st6">
		<path class="st7" d="M38.3,284.6c0-1.6,0.8-2.5,1.9-2.5c1.1,0,1.9,0.9,1.9,2.5c0,1.6-0.8,2.5-1.9,2.5
			C39.1,287.1,38.3,286.2,38.3,284.6z M41.1,284.6c0-1.2-0.4-1.7-0.9-1.7c-0.5,0-0.9,0.5-0.9,1.7c0,1.2,0.4,1.7,0.9,1.7
			C40.7,286.3,41.1,285.8,41.1,284.6z M40.4,290.3l4.3-8.1h0.8l-4.3,8.1H40.4z M43.9,287.8c0-1.6,0.8-2.5,1.9-2.5s1.9,0.9,1.9,2.5
			c0,1.6-0.8,2.5-1.9,2.5S43.9,289.4,43.9,287.8z M46.7,287.8c0-1.2-0.4-1.7-0.9-1.7s-0.9,0.5-0.9,1.7s0.4,1.7,0.9,1.7
			S46.7,289,46.7,287.8z"/>
		<path class="st7" d="M51.5,282.3h4.7v1.2h-3.4v2.2h2.9v1.2h-2.9v3.3h-1.4V282.3z"/>
		<path class="st7" d="M59.7,284.1c1.5,0,2.8,1.1,2.8,3.1c0,2-1.3,3.1-2.8,3.1c-1.5,0-2.8-1.1-2.8-3.1
			C56.9,285.2,58.3,284.1,59.7,284.1z M59.7,289.2c0.9,0,1.4-0.8,1.4-2c0-1.2-0.5-2-1.4-2c-0.9,0-1.4,0.8-1.4,2
			C58.4,288.4,58.9,289.2,59.7,289.2z"/>
		<path class="st7" d="M66.3,284.1c1.5,0,2.8,1.1,2.8,3.1c0,2-1.3,3.1-2.8,3.1c-1.5,0-2.8-1.1-2.8-3.1
			C63.5,285.2,64.9,284.1,66.3,284.1z M66.3,289.2c0.9,0,1.4-0.8,1.4-2c0-1.2-0.5-2-1.4-2c-0.9,0-1.4,0.8-1.4,2
			C64.9,288.4,65.5,289.2,66.3,289.2z"/>
		<path class="st7" d="M72.6,284.1c0.7,0,1.1,0.3,1.5,0.6l0-0.9v-2.1h1.4v8.5h-1.1l-0.1-0.6h0c-0.4,0.4-1,0.8-1.7,0.8
			c-1.5,0-2.4-1.1-2.4-3.1C70.1,285.3,71.4,284.1,72.6,284.1z M72.9,289.2c0.5,0,0.8-0.2,1.2-0.7v-2.8c-0.4-0.4-0.8-0.5-1.2-0.5
			c-0.8,0-1.4,0.7-1.4,1.9C71.6,288.5,72.1,289.2,72.9,289.2z"/>
	</g>
</g>
<g>
	<g class="st6">
		<path class="st7" d="M157.5,288.2c0.6,0.5,1.3,0.9,2,0.9c0.9,0,1.4-0.4,1.4-1c0-0.6-0.5-0.9-1.2-1.2l-1.1-0.5
			c-0.8-0.3-1.6-0.9-1.6-2.1c0-1.2,1.1-2.2,2.6-2.2c0.9,0,1.8,0.4,2.4,1l-0.7,0.9c-0.5-0.4-1-0.7-1.7-0.7c-0.7,0-1.2,0.3-1.2,0.9
			c0,0.6,0.6,0.8,1.2,1.1l1.1,0.4c0.9,0.4,1.6,1,1.6,2.1c0,1.3-1.1,2.3-2.8,2.3c-1.1,0-2.1-0.4-2.8-1.2L157.5,288.2z"/>
		<path class="st7" d="M166.8,286.4c0-0.6-0.3-1.2-1.1-1.2c-0.6,0-1.1,0.3-1.7,0.6l-0.5-0.9c0.6-0.4,1.5-0.8,2.4-0.8
			c1.5,0,2.2,0.9,2.2,2.5v3.5h-1.1l-0.1-0.6h0c-0.5,0.4-1.1,0.8-1.8,0.8c-1,0-1.8-0.7-1.8-1.7C163.4,287.3,164.4,286.6,166.8,286.4z
			 M165.6,289.2c0.5,0,0.9-0.2,1.3-0.6v-1.3c-1.6,0.2-2.1,0.6-2.1,1.2C164.7,289,165.1,289.2,165.6,289.2z"/>
		<path class="st7" d="M169.2,284.3h1.4l0.9,3.1c0.2,0.6,0.3,1.2,0.5,1.8h0c0.2-0.6,0.3-1.2,0.5-1.8l0.9-3.1h1.3l-2,5.9h-1.6
			L169.2,284.3z"/>
		<path class="st7" d="M178.1,284.1c1.6,0,2.4,1.2,2.4,2.8c0,0.3,0,0.5-0.1,0.6h-3.7c0.1,1.1,0.8,1.7,1.7,1.7c0.5,0,0.9-0.2,1.4-0.4
			l0.5,0.9c-0.6,0.4-1.3,0.6-2,0.6c-1.6,0-2.9-1.1-2.9-3.1C175.4,285.3,176.7,284.1,178.1,284.1z M179.3,286.7
			c0-0.9-0.4-1.5-1.2-1.5c-0.7,0-1.3,0.5-1.4,1.5H179.3z"/>
		<path class="st7" d="M184.4,288.4c0.5,0.4,1,0.8,1.8,0.8c0.9,0,1.5-0.5,1.5-1.5c0-0.9-0.6-1.4-1.4-1.4c-0.5,0-0.8,0.1-1.2,0.4
			l-0.7-0.4l0.2-3.8h4.1v1.2h-2.9l-0.2,1.8c0.3-0.2,0.6-0.3,1-0.3c1.3,0,2.4,0.7,2.4,2.4c0,1.7-1.3,2.6-2.7,2.6
			c-1.2,0-2-0.5-2.6-1.1L184.4,288.4z"/>
		<path class="st7" d="M190.1,286.3c0-2.6,1-3.9,2.6-3.9s2.6,1.4,2.6,3.9c0,2.6-1,4-2.6,4S190.1,288.9,190.1,286.3z M194,286.3
			c0-2.2-0.5-2.8-1.3-2.8c-0.7,0-1.3,0.7-1.3,2.8c0,2.2,0.5,2.9,1.3,2.9C193.4,289.2,194,288.5,194,286.3z"/>
		<path class="st7" d="M196.1,284.6c0-1.6,0.8-2.5,1.9-2.5s1.9,0.9,1.9,2.5c0,1.6-0.8,2.5-1.9,2.5S196.1,286.2,196.1,284.6z
			 M198.9,284.6c0-1.2-0.4-1.7-0.9-1.7s-0.9,0.5-0.9,1.7c0,1.2,0.4,1.7,0.9,1.7S198.9,285.8,198.9,284.6z M198.3,290.3l4.3-8.1h0.8
			l-4.3,8.1H198.3z M201.8,287.8c0-1.6,0.8-2.5,1.9-2.5c1.1,0,1.9,0.9,1.9,2.5c0,1.6-0.8,2.5-1.9,2.5
			C202.5,290.3,201.8,289.4,201.8,287.8z M204.5,287.8c0-1.2-0.4-1.7-0.9-1.7c-0.5,0-0.9,0.5-0.9,1.7s0.4,1.7,0.9,1.7
			C204.1,289.5,204.5,289,204.5,287.8z"/>
	</g>
</g>
<g>
	<path class="st5" d="M134,363.5c-20.7,0-37.5-16.8-37.5-37.5s16.8-37.5,37.5-37.5s37.5,16.8,37.5,37.5S154.7,363.5,134,363.5z
		 M134,289.5c-20.1,0-36.5,16.4-36.5,36.5c0,20.1,16.4,36.5,36.5,36.5s36.5-16.4,36.5-36.5C170.5,305.9,154.1,289.5,134,289.5z"/>
</g>
<g>
	<polygon class="st5" points="71,334.2 70.2,333.4 74.8,328.9 70.2,324.4 71,323.6 76.2,328.9 	"/>
</g>
</svg>
