<?xml version="1.0" encoding="UTF-8"?>
<svg width="110px" height="56px" viewBox="0 0 110 56" version="1.1" xmlns="http://www.w3.org/2000/svg" xmlns:xlink="http://www.w3.org/1999/xlink">
    <!-- Generator: Sketch 62 (91390) - https://sketch.com -->
    <title>L&amp;D </title>
    <desc>Created with Sketch.</desc>
    <g id="OnePager" stroke="none" stroke-width="1" fill="none" fill-rule="evenodd">
        <g id="OnePager-1" transform="translate(-1199.000000, -8356.000000)">
            <g id="L&amp;D-" transform="translate(1199.000000, 8350.000000)">
                <rect id="Rectangle-Copy-19" x="0" y="0" width="110" height="62"></rect>
                <path d="M50.3910615,57.0055866 L50.3910615,57.2770333 L47.8981765,57.2770333 L47.8981765,59.2374816 L50.1591652,59.2374816 L50.1591652,59.5089283 L47.8981765,59.5089283 L47.8981765,61.650341 L50.3910615,61.650341 L50.3910615,61.9217877 L47.3184358,61.9217877 L47.3184358,57.0055866 L50.3910615,57.0055866 Z M62.2953872,57.0055866 L64.5251397,61.9217877 L63.934121,61.9217877 L63.2087798,60.2327861 L60.8178405,60.2327861 L60.0924993,61.9217877 L59.6089385,61.9217877 L61.8655555,57.0055866 L62.2953872,57.0055866 Z M73.1284916,57.0055866 L73.1284916,57.2770333 L71.5871417,57.2770333 L71.5871417,61.9217877 L70.9826907,61.9217877 L70.9826907,57.2770333 L69.4413408,57.2770333 L69.4413408,57.0055866 L73.1284916,57.0055866 Z M81.7318436,57.0055866 C82.1707901,57.0055866 82.5512104,57.0634243 82.8438414,57.2080184 C83.1657356,57.3236937 83.3998404,57.4972067 83.6046821,57.7285573 C83.8095238,57.959908 83.9558393,58.2201775 84.0436286,58.5093658 C84.160681,58.7985541 84.1899441,59.1166612 84.1899441,59.4636872 C84.1899441,59.8107131 84.1314179,60.1288202 84.0436286,60.4180085 C83.9558393,60.7071968 83.8095238,60.9674663 83.6046821,61.198817 C83.3998404,61.4301676 83.1364725,61.6036806 82.8438414,61.7193559 C82.5219473,61.8350312 82.141527,61.9217877 81.7318436,61.9217877 C81.292897,61.9217877 80.9124767,61.86395 80.6198457,61.7193559 C80.2979516,61.6036806 80.0638468,61.4301676 79.8590051,61.198817 C79.6541633,60.9674663 79.5078478,60.7361157 79.4200585,60.4180085 C79.3322692,60.1288202 79.273743,59.8107131 79.273743,59.4636872 C79.273743,59.1166612 79.3322692,58.8274729 79.4200585,58.5093658 C79.5078478,58.2201775 79.6541633,57.959908 79.8590051,57.7285573 C80.0638468,57.4972067 80.2979516,57.3236937 80.6198457,57.2080184 C80.9417398,57.0923431 81.292897,57.0055866 81.7318436,57.0055866 Z M93.4078212,57.0055866 C93.8467678,57.0055866 94.2271881,57.0634243 94.5198191,57.2080184 C94.8417132,57.3236937 95.075818,57.4972067 95.2806597,57.7285573 C95.4855015,57.959908 95.631817,58.2201775 95.7196063,58.5093658 C95.8366587,58.7985541 95.8659218,59.1166612 95.8659218,59.4636872 C95.8659218,59.8107131 95.8073956,60.1288202 95.7196063,60.4180085 C95.631817,60.7071968 95.4855015,60.9674663 95.2806597,61.198817 C95.075818,61.4301676 94.8124501,61.6036806 94.5198191,61.7193559 C94.197925,61.8350312 93.8467678,61.9217877 93.4078212,61.9217877 C92.9688747,61.9217877 92.5884544,61.86395 92.2958234,61.7193559 C91.9739292,61.6036806 91.7398244,61.4301676 91.5349827,61.198817 C91.330141,60.9674663 91.1838255,60.7361157 91.0960362,60.4180085 C91.0082469,60.1288202 90.9497207,59.8107131 90.9497207,59.4636872 C90.9497207,59.1166612 91.0082469,58.8274729 91.0960362,58.5093658 C91.1838255,58.2201775 91.330141,57.959908 91.5349827,57.7285573 C91.7398244,57.4972067 91.9739292,57.3236937 92.2958234,57.2080184 C92.6177175,57.0923431 92.9688747,57.0055866 93.4078212,57.0055866 Z M110,57.0055866 L110,57.2770333 L107.507115,57.2770333 L107.507115,59.2374816 L109.768104,59.2374816 L109.768104,59.5089283 L107.507115,59.5089283 L107.507115,61.650341 L110,61.650341 L110,61.9217877 L106.927374,61.9217877 L106.927374,57.0055866 L110,57.0055866 Z M1.51989424,57.0055866 C2.25169517,57.0055866 2.78647277,57.1240493 3.15237324,57.3905903 C3.5182737,57.6571313 3.68715084,57.9829037 3.68715084,58.4271387 C3.68715084,58.6344484 3.63085846,58.8417581 3.5182737,59.0194521 C3.40568894,59.1971461 3.2368118,59.3452245 3.01164229,59.4933028 C2.78647277,59.6117655 2.50501087,59.7302282 2.13911041,59.7894595 C1.77320994,59.8486909 1.3510171,59.8783065 0.872531878,59.8486909 L0.562923792,59.8190752 L0.562923792,61.9217877 L0,61.9217877 L0,57.2721276 C0.168877138,57.2128963 0.365900465,57.1536649 0.647362361,57.0944336 C0.900678067,57.0352023 1.21028615,57.0055866 1.51989424,57.0055866 Z M67.7791007,57.0055866 C68.0813261,57.0055866 68.3533291,57.0348497 68.5951094,57.0641128 C68.8368898,57.122639 69.0182251,57.1811652 69.1693379,57.2396914 L68.9880026,57.5030593 C68.8671124,57.4445331 68.6857771,57.3860069 68.5044418,57.3567438 C68.292884,57.2982176 68.0813261,57.2689545 67.8093232,57.2689545 C67.355985,57.2689545 67.023537,57.3567438 66.7817566,57.5323224 C66.5399762,57.707901 66.419086,57.9420059 66.419086,58.2346369 C66.419086,58.3809524 66.4493085,58.4980048 66.5399762,58.5857941 C66.6004213,58.7028465 66.7213115,58.7906358 66.8422017,58.849162 C66.9630919,58.9369513 67.1142046,58.9954775 67.2653173,59.0540037 C67.4164301,59.1125299 67.5977654,59.141793 67.7488781,59.2003192 C68.1115487,59.2881085 68.4137742,59.3758978 68.625332,59.4929503 C68.8368898,59.6100027 69.0182251,59.7270551 69.1391153,59.8441075 C69.2600055,59.9611599 69.3506731,60.0782123 69.3808957,60.1952647 C69.4111182,60.3415802 69.4413408,60.4586326 69.4413408,60.5464219 C69.4413408,60.7512636 69.3808957,60.9268422 69.290228,61.1024209 C69.1693379,61.2779995 69.0484477,61.424315 68.8671124,61.5413674 C68.6857771,61.6584198 68.4742193,61.7462091 68.2022163,61.8339984 C67.9302134,61.8925246 67.6582105,61.9217877 67.355985,61.9217877 C66.9630919,61.9217877 66.6306438,61.8925246 66.3888634,61.8632615 C66.1470831,61.8047353 65.9355252,61.7462091 65.7541899,61.6876829 L65.9355252,61.424315 C66.086638,61.4828412 66.2679733,61.5413674 66.4795311,61.5998936 C66.6910889,61.6291567 66.9328693,61.6584198 67.2653173,61.6584198 C67.7488781,61.6584198 68.1417712,61.5706305 68.4137742,61.3657888 C68.6857771,61.1609471 68.8368898,60.9268422 68.8368898,60.6049481 C68.8368898,60.3708433 68.7159996,60.1660016 68.5044418,60.0196861 C68.292884,59.8733706 67.9302134,59.7270551 67.4164301,59.6100027 C67.1142046,59.5222134 66.8422017,59.434424 66.6306438,59.3466347 C66.419086,59.2588454 66.2679733,59.141793 66.1470831,59.0247406 C66.0261929,58.9076882 65.9355252,58.7906358 65.9053027,58.6735834 C65.8448576,58.556531 65.8448576,58.4394786 65.8448576,58.3224262 C65.8448576,58.1468476 65.8750801,58.0005321 65.9657478,57.8249534 C66.0564154,57.6786379 66.1773056,57.5323224 66.3586409,57.41527 C66.5399762,57.2982176 66.7213115,57.2104283 66.9630919,57.122639 C67.2048722,57.0641128 67.4768752,57.0055866 67.7791007,57.0055866 Z M35.027933,57.0055866 L35.027933,61.9217877 L34.4134078,61.9217877 L34.4134078,57.0055866 L35.027933,57.0055866 Z M105.083799,57.0055866 L105.083799,61.9217877 L104.469274,61.9217877 L104.469274,57.0055866 L105.083799,57.0055866 Z M16.1589889,57.0055866 C16.4612144,57.0055866 16.7332173,57.0348497 16.9749977,57.0641128 C17.2167781,57.122639 17.3981134,57.1811652 17.5492261,57.2396914 L17.3678908,57.5030593 C17.2470006,57.4445331 17.0656654,57.3860069 16.8541075,57.3567438 C16.6425497,57.2982176 16.4309918,57.2689545 16.1589889,57.2689545 C15.7056507,57.2689545 15.3732027,57.3567438 15.1314223,57.5323224 C14.8896419,57.707901 14.7687517,57.9420059 14.7687517,58.2346369 C14.7687517,58.3809524 14.7989743,58.4980048 14.8896419,58.5857941 C14.950087,58.7028465 15.0709772,58.7906358 15.1918674,58.849162 C15.3127576,58.9369513 15.4638703,58.9954775 15.6149831,59.0540037 C15.7660958,59.1125299 15.9474311,59.141793 16.0985438,59.2003192 C16.4612144,59.2881085 16.7634399,59.3758978 16.9749977,59.4929503 C17.1865555,59.6100027 17.3678908,59.7270551 17.488781,59.8441075 C17.6096712,59.9611599 17.7003389,60.0782123 17.7305614,60.1952647 C17.7910065,60.3415802 17.8212291,60.4586326 17.8212291,60.5464219 C17.8212291,60.7512636 17.760784,60.9268422 17.6701163,61.1024209 C17.5492261,61.2779995 17.4283359,61.424315 17.2470006,61.5413674 C17.0656654,61.6584198 16.8541075,61.7462091 16.5821046,61.8339984 C16.3101017,61.8925246 16.0380987,61.9217877 15.7358732,61.9217877 C15.3429801,61.9217877 15.0105321,61.8925246 14.7687517,61.8632615 C14.5269713,61.8047353 14.3154135,61.7462091 14.1340782,61.6876829 L14.3154135,61.424315 C14.4665262,61.4828412 14.6478615,61.5413674 14.8594194,61.5998936 C15.0709772,61.6291567 15.3127576,61.6584198 15.6452056,61.6584198 C16.1287664,61.6584198 16.5216595,61.5706305 16.7936624,61.3657888 C17.0656654,61.1609471 17.2167781,60.9268422 17.2167781,60.6049481 C17.2167781,60.3708433 17.0958879,60.1660016 16.8843301,60.0196861 C16.6727722,59.8733706 16.3101017,59.7270551 15.7963183,59.6100027 C15.4940929,59.5222134 15.2220899,59.434424 15.0105321,59.3466347 C14.7989743,59.2588454 14.6478615,59.141793 14.5269713,59.0247406 C14.4060811,58.9076882 14.3154135,58.7906358 14.285191,58.6735834 C14.2247459,58.556531 14.2247459,58.4394786 14.2247459,58.3224262 C14.2247459,58.1468476 14.2549684,58.0005321 14.345636,57.8249534 C14.4363037,57.6786379 14.5571939,57.5323224 14.7385292,57.41527 C14.9198645,57.2982176 15.1011997,57.2104283 15.3429801,57.122639 C15.5847605,57.0641128 15.8567634,57.0055866 16.1589889,57.0055866 Z M86.1798351,57.0055866 L89.4280394,60.9025753 C89.5743549,61.0524595 89.6914073,61.2622973 89.8377228,61.4421583 L89.8669859,61.4421583 C89.8377228,61.2323205 89.8377228,61.0524595 89.8377228,60.8725984 L89.8377228,57.0055866 L90.3351955,57.0055866 L90.3351955,61.8918109 L89.7499335,61.8918109 L89.7499335,61.9217877 L86.4139399,57.9348685 C86.3261506,57.8149612 86.2383613,57.7250307 86.150572,57.6051233 C86.0627827,57.5151928 86.0042565,57.4252623 85.9749933,57.3653086 C85.9457302,57.305355 85.9164671,57.2753781 85.9164671,57.2753781 L85.887204,57.2753781 L85.887204,57.3653086 C85.887204,57.4252623 85.887204,57.485216 85.9164671,57.6051233 L85.9164671,61.8918109 L85.4189944,61.8918109 L85.4189944,57.0055866 L86.1798351,57.0055866 Z M56.7253975,57.0055866 C57.0838705,57.0055866 57.359619,57.0346765 57.6077926,57.0637665 C57.8559662,57.1219464 58.0489901,57.1510363 58.1868643,57.2383062 L58.0214153,57.4710258 C57.9111159,57.4128459 57.7456668,57.3837559 57.5526429,57.325576 C57.359619,57.2964861 57.0838705,57.2673961 56.7805472,57.2673961 C56.1187509,57.2673961 55.6224037,57.4419358 55.2363558,57.7910152 C54.850308,58.1400945 54.6572841,58.6928035 54.6572841,59.4491422 C54.6572841,59.7982215 54.7124337,60.089121 54.8227331,60.3800205 C54.9330325,60.64183 55.0984816,60.8745496 55.2915055,61.0490893 C55.4845294,61.223629 55.7051282,61.3690787 55.9808767,61.4563486 C56.2290503,61.5436184 56.5047987,61.6017983 56.808122,61.6017983 C57.0838705,61.6017983 57.3044693,61.5727083 57.4699183,61.5436184 C57.6353674,61.5145284 57.7456668,61.4854385 57.8283913,61.4563486 L57.8283913,59.4491422 L56.5323736,59.4491422 L56.5323736,59.1873327 L58.3798883,59.1873327 L58.3798883,61.6017983 C58.1317147,61.747248 57.9386907,61.8054279 57.6905171,61.8636078 C57.4423435,61.9217877 57.1390202,61.9217877 56.7529724,61.9217877 C56.4220742,61.9217877 56.1187509,61.8636078 55.7878527,61.776338 C55.4569546,61.6890681 55.1812061,61.5436184 54.9330325,61.3399888 C54.6848589,61.1363591 54.4642601,60.8745496 54.3263859,60.5545602 C54.1609368,60.2345708 54.0782123,59.8564014 54.0782123,59.4200522 C54.0782123,59.012793 54.1609368,58.6346236 54.2988111,58.3437242 C54.4642601,58.0528247 54.6572841,57.7910152 54.9054577,57.5873855 C55.1536313,57.3837559 55.4293797,57.2383062 55.7602779,57.1510363 C56.091176,57.0637665 56.3944994,57.0055866 56.7253975,57.0055866 Z M25.3418462,57.0055866 L28.5900505,60.9025753 C28.7363661,61.0524595 28.8534185,61.2622973 28.999734,61.4421583 L29.0289971,61.4421583 C28.999734,61.2323205 28.999734,61.0524595 28.999734,60.8725984 L28.999734,57.0055866 L29.4972067,57.0055866 L29.4972067,61.8918109 L28.9119447,61.8918109 L28.9119447,61.9217877 L25.5759511,57.9348685 C25.4881617,57.8149612 25.4003724,57.7250307 25.3125831,57.6051233 C25.2247938,57.5151928 25.1662676,57.4252623 25.1370045,57.3653086 C25.1077414,57.305355 25.0784783,57.2753781 25.0784783,57.2753781 L25.0492152,57.2753781 L25.0492152,57.3653086 C25.0492152,57.4252623 25.0492152,57.485216 25.0784783,57.6051233 L25.0784783,61.8918109 L24.5810056,61.8918109 L24.5810056,57.0055866 L25.3418462,57.0055866 Z M39.311127,57.0055866 C39.6160793,57.0055866 39.8378628,57.0346765 40.0596463,57.0637665 C40.2537069,57.1219464 40.4200445,57.1801263 40.5586592,57.2383062 L40.3923216,57.4710258 C40.2814298,57.4128459 40.1428151,57.3837559 39.9764775,57.325576 C39.8101399,57.2964861 39.6160793,57.2673961 39.3942958,57.2673961 C39.0338976,57.2673961 38.7566682,57.325576 38.5071618,57.4419358 C38.2576553,57.5582956 38.0635947,57.7328353 37.8972571,57.9364649 C37.7586424,58.1400945 37.6477507,58.3728141 37.5645818,58.6346236 C37.509136,58.8964332 37.4536901,59.1582427 37.4536901,59.4491422 C37.4536901,59.7400417 37.481413,60.0018512 37.5645818,60.2636607 C37.6477507,60.5254702 37.7586424,60.7581898 37.8972571,60.9618194 C38.0635947,61.1654491 38.2576553,61.3108988 38.5071618,61.4272586 C38.7566682,61.5436184 39.0338976,61.6017983 39.3665729,61.6017983 C39.5883564,61.6017983 39.7824169,61.5727083 39.9210316,61.5436184 C40.0873693,61.5145284 40.225984,61.4563486 40.3645986,61.3981687 L40.5309363,61.6308882 C40.4477675,61.747248 40.2814298,61.8054279 40.0596463,61.8636078 C39.8378628,61.9217877 39.5883564,61.9217877 39.3388499,61.9217877 C38.9507288,61.9217877 38.6180535,61.8636078 38.3131012,61.747248 C38.0081489,61.6308882 37.7586424,61.4563486 37.5368589,61.223629 C37.3150754,60.9909094 37.1764607,60.7581898 37.037846,60.4382004 C36.9269543,60.1473009 36.8715084,59.8273115 36.8715084,59.4782321 C36.8715084,59.1291528 36.9269543,58.8382533 37.037846,58.5182639 C37.1487378,58.2273644 37.3150754,57.9655549 37.509136,57.7328353 C37.7031965,57.5001157 37.9804259,57.325576 38.2853783,57.2092162 C38.5903306,57.0928564 38.9230058,57.0055866 39.311127,57.0055866 Z M7.98882682,57.0055866 L7.98882682,57.2770333 L5.49594182,57.2770333 L5.49594182,59.2374816 L7.75693054,59.2374816 L7.75693054,59.5089283 L5.49594182,59.5089283 L5.49594182,61.650341 L7.98882682,61.650341 L7.98882682,61.9217877 L4.91620112,61.9217877 L4.91620112,57.0055866 L7.98882682,57.0055866 Z M20.8938547,57.244059 C21.3328013,57.244059 21.7132216,57.2990911 22.0058526,57.4366714 C22.3277467,57.5467356 22.5618516,57.7118319 22.7666933,57.9319603 C22.971535,58.1520887 23.1178505,58.3997332 23.2056398,58.6748937 C23.2934291,58.9500542 23.3519553,59.2527308 23.3519553,59.5829234 C23.3519553,59.913116 23.2934291,60.2157925 23.2056398,60.4909531 C23.1178505,60.7661136 22.971535,61.013758 22.7666933,61.2338864 C22.5618516,61.4540148 22.3277467,61.6191111 22.0058526,61.7291754 C21.6839585,61.8392396 21.3328013,61.9217877 20.8938547,61.9217877 C20.4549082,61.9217877 20.0744879,61.8667556 19.7818569,61.7291754 C19.4599628,61.6191111 19.2258579,61.4540148 19.0210162,61.2338864 C18.8161745,61.013758 18.669859,60.7936296 18.5820697,60.4909531 C18.4942804,60.2157925 18.4357542,59.913116 18.4357542,59.5829234 C18.4357542,59.2527308 18.4942804,58.9775702 18.5820697,58.6748937 C18.669859,58.3997332 18.8161745,58.1520887 19.0210162,57.9319603 C19.2258579,57.7118319 19.4599628,57.5467356 19.7818569,57.4366714 C20.103751,57.3266072 20.4549082,57.244059 20.8938547,57.244059 Z M42.3769802,57.0055866 L42.3769802,59.2374816 L45.5001148,59.2374816 L45.5001148,57.0055866 L46.0893855,57.0055866 L46.0893855,61.9217877 L45.5001148,61.9217877 L45.5001148,59.5089283 L42.3769802,59.5089283 L42.3769802,61.9217877 L41.7877095,61.9217877 L41.7877095,57.0055866 L42.3769802,57.0055866 Z M10.0509001,57.0055866 C10.7337058,57.0055866 11.2526381,57.1240493 11.6076971,57.3609746 C11.9627561,57.5979 12.1539417,57.953288 12.1539417,58.3975231 C12.1539417,58.8713738 11.9627561,59.1971461 11.5530726,59.4340715 C11.1433892,59.6709968 10.5971446,59.7894595 9.91433892,59.7598438 L9.91433892,59.7894595 L12.2905028,61.9217877 L11.6350093,61.9217877 L9.14959652,59.6117655 L9.1222843,59.6117655 L9.1222843,61.9217877 L8.60335196,61.9217877 L8.60335196,57.2721276 C8.7399131,57.2128963 8.9310987,57.1536649 9.17690875,57.0944336 C9.42271881,57.0352023 9.72315332,57.0055866 10.0509001,57.0055866 Z M98.0606544,57.0055866 L99.6408619,60.9868047 C99.6993881,61.1677691 99.7579143,61.3487336 99.8164405,61.5598588 L99.8457036,61.5598588 C99.9042298,61.3487336 99.9627561,61.1677691 100.021282,60.9868047 L101.630753,57.0055866 L102.333067,57.0055866 L103.240223,61.9217877 L102.684225,61.9217877 L102.040436,57.7897659 C102.011173,57.6389622 101.98191,57.4579977 101.98191,57.2167118 L101.952647,57.2167118 C101.894121,57.427837 101.806331,57.6389622 101.747805,57.7897659 L100.109072,61.9217877 L99.5823357,61.9217877 L97.943602,57.7897659 C97.8850758,57.6389622 97.8265496,57.4579977 97.7680234,57.2167118 L97.7387603,57.2167118 C97.7094972,57.4579977 97.7094972,57.6389622 97.6802341,57.7897659 L97.0071828,61.9217877 L96.4804469,61.9217877 L97.35834,57.0055866 L98.0606544,57.0055866 Z M31.3533235,57.0055866 L31.3533235,61.650341 L33.7988827,61.650341 L33.7988827,61.9217877 L30.726257,61.9217877 L30.726257,57.0055866 L31.3533235,57.0055866 Z M75.8158926,57.0055866 C76.5037939,57.0055866 77.0265988,57.1240493 77.3843075,57.3609746 C77.7420162,57.5979 77.9071125,57.953288 77.9071125,58.3975231 C77.9071125,58.8713738 77.7145001,59.1971461 77.3017594,59.4340715 C76.8890186,59.6709968 76.3386976,59.7894595 75.6507963,59.7598438 L75.6507963,59.7894595 L78.0446927,61.9217877 L77.4118236,61.9217877 L74.9078629,59.6117655 L74.8803469,59.6117655 L74.8803469,61.9217877 L74.3575419,61.9217877 L74.3575419,57.2721276 C74.4951222,57.2128963 74.6877345,57.1536649 74.935379,57.0944336 C75.1830234,57.0352023 75.4857,57.0055866 75.8158926,57.0055866 Z M20.8645916,57.5192195 C20.4841713,57.5192195 20.1915403,57.5742516 19.9574355,57.7118319 C19.7233307,57.8218961 19.518489,57.9869924 19.4014366,58.1796048 C19.255121,58.3722171 19.1673317,58.5923455 19.1088055,58.83999 C19.0502793,59.0876345 19.0210162,59.3352789 19.0210162,59.5829234 C19.0210162,59.8305678 19.0502793,60.0782123 19.0795424,60.2983407 C19.1380686,60.5459852 19.2258579,60.7661136 19.3429103,60.9587259 C19.4892259,61.1513383 19.6648045,61.3164346 19.8989093,61.4264988 C20.1330141,61.536563 20.4549082,61.6191111 20.8353285,61.6191111 C21.2157489,61.6191111 21.537643,61.564079 21.7717478,61.4264988 C22.0058526,61.3164346 22.2106943,61.1513383 22.3277467,60.9587259 C22.4740623,60.7661136 22.5618516,60.5459852 22.5911147,60.2983407 C22.7374302,60.0506962 22.7666933,59.8030518 22.7666933,59.5829234 C22.7666933,59.3352789 22.7374302,59.0876345 22.678904,58.83999 C22.6203778,58.5923455 22.5325885,58.3722171 22.3862729,58.1796048 C22.2399574,57.9869924 22.0643788,57.8218961 21.8010109,57.7118319 C21.5669061,57.6017677 21.245012,57.5192195 20.8645916,57.5192195 Z M81.7025805,57.2947749 C81.3221601,57.2947749 81.0295291,57.3526126 80.7954243,57.4972067 C80.5613195,57.612882 80.3564778,57.786395 80.2101623,57.9888268 C80.0638468,58.1912586 79.9760575,58.4226093 79.9175313,58.6828787 C79.8590051,58.9431482 79.829742,59.2034177 79.829742,59.4636872 C79.829742,59.7239566 79.8590051,59.9842261 79.8882682,60.2155767 C79.9467944,60.4758462 80.0345837,60.7071968 80.1516361,60.9096287 C80.2979516,61.1120605 80.4735302,61.2855734 80.7368981,61.4012488 C80.9710029,61.5169241 81.292897,61.6036806 81.6733174,61.6036806 C82.0537377,61.6036806 82.3756318,61.5458429 82.6097366,61.4012488 C82.8438414,61.2855734 83.0486832,61.1120605 83.1657356,60.9096287 C83.3120511,60.7071968 83.3998404,60.4758462 83.4291035,60.2155767 C83.575419,59.9553073 83.6046821,59.6950378 83.6046821,59.4636872 C83.6046821,59.2034177 83.575419,58.9431482 83.5168928,58.6828787 C83.4583666,58.4226093 83.3705773,58.1912586 83.2242618,57.9888268 C83.0779463,57.786395 82.9023677,57.612882 82.6389997,57.4972067 C82.4048949,57.3815314 82.0830008,57.2947749 81.7025805,57.2947749 Z M93.3785581,57.2947749 C92.9981378,57.2947749 92.7055068,57.3526126 92.471402,57.4972067 C92.2372972,57.612882 92.0324554,57.786395 91.915403,57.9888268 C91.7690875,58.1912586 91.6812982,58.4226093 91.622772,58.6828787 C91.5642458,58.9431482 91.5349827,59.2034177 91.5349827,59.4636872 C91.5349827,59.7239566 91.5642458,59.9842261 91.5935089,60.2155767 C91.6520351,60.4758462 91.7398244,60.7071968 91.8568768,60.9096287 C92.0031923,61.1120605 92.1787709,61.2855734 92.4421389,61.4012488 C92.6762437,61.5169241 92.9981378,61.6036806 93.3785581,61.6036806 C93.7589785,61.6036806 94.0808726,61.5458429 94.3442405,61.4012488 C94.5783453,61.2855734 94.783187,61.1120605 94.9002394,60.9096287 C95.0465549,60.7071968 95.1343442,60.4758462 95.1928704,60.2155767 C95.2806597,59.9553073 95.2806597,59.6950378 95.2806597,59.4636872 C95.2806597,59.2034177 95.2513966,58.9431482 95.1928704,58.6828787 C95.1343442,58.4226093 95.0465549,58.1912586 94.9002394,57.9888268 C94.7539239,57.786395 94.5783453,57.612882 94.3149774,57.4972067 C94.0808726,57.3815314 93.7589785,57.2947749 93.3785581,57.2947749 Z M62.0804713,57.3675155 L62.0536069,57.3675155 C61.9998779,57.54848 61.9192844,57.7596052 61.838691,57.9707304 L60.9790274,59.9613394 L63.1281863,59.9613394 L62.2685228,57.9707304 C62.1879293,57.7596052 62.1073358,57.5786407 62.0804713,57.3675155 Z M1.43545567,57.2425119 C1.23843234,57.2425119 1.04140902,57.2425119 0.900678067,57.2721276 C0.759947119,57.3017433 0.619216171,57.331359 0.562923792,57.331359 L0.562923792,59.5229185 L0.900678067,59.5525342 C1.32287091,59.5821498 1.66062519,59.5821498 1.94208708,59.5229185 C2.22354898,59.4636872 2.4487185,59.4044558 2.64574182,59.2859931 C2.81461896,59.1675305 2.95534991,59.0490678 3.03978848,58.9009894 C3.09608086,58.7529111 3.12422705,58.6048327 3.12422705,58.3975231 C3.12422705,58.0125194 2.9834961,57.7163627 2.73018039,57.5386686 C2.47686469,57.331359 2.02652565,57.2425119 1.43545567,57.2425119 Z M10.0235878,57.2128963 C9.64121664,57.2128963 9.34078212,57.2425119 9.1222843,57.331359 L9.1222843,59.4636872 C9.17690875,59.4636872 9.28615767,59.4933028 9.42271881,59.4933028 C9.55927995,59.4933028 9.66852886,59.5229185 9.80509001,59.5229185 C10.405959,59.5229185 10.8702669,59.4340715 11.1707014,59.2267618 C11.4711359,59.0786834 11.6076971,58.7825268 11.6076971,58.3975231 C11.6076971,58.0125194 11.4711359,57.7163627 11.1980137,57.509053 C10.9248914,57.331359 10.5425202,57.2128963 10.0235878,57.2128963 Z M75.8158926,57.2128963 C75.4306679,57.2128963 75.1279913,57.2425119 74.9078629,57.331359 L74.9078629,59.4636872 C74.962895,59.4636872 75.0729592,59.4933028 75.2105395,59.4933028 C75.3481197,59.4933028 75.4581839,59.5229185 75.5957642,59.5229185 C76.2011173,59.5229185 76.6688902,59.4340715 76.9715667,59.2267618 C77.2467273,59.0786834 77.4118236,58.7825268 77.4118236,58.3975231 C77.4118236,58.0125194 77.2742433,57.7163627 76.9990828,57.509053 C76.7239223,57.331359 76.3386976,57.2128963 75.8158926,57.2128963 Z M20.1622772,56.3910615 C20.2500665,56.3910615 20.3378558,56.4185775 20.396382,56.4460936 C20.4256451,56.5011257 20.4841713,56.5561578 20.4841713,56.6111899 C20.4841713,56.666222 20.4549082,56.7212541 20.396382,56.7762862 C20.3378558,56.8313183 20.2500665,56.8313183 20.1622772,56.8313183 C20.0744879,56.8313183 19.9866986,56.8038022 19.9281724,56.7762862 C19.8696462,56.7212541 19.8403831,56.693738 19.8403831,56.6111899 C19.8403831,56.5561578 19.8696462,56.5011257 19.9281724,56.4460936 C19.9866986,56.3910615 20.0744879,56.3910615 20.1622772,56.3910615 Z M21.6839585,56.3910615 C21.7717478,56.3910615 21.8595371,56.4185775 21.9180633,56.4460936 C21.9765895,56.5011257 22.0058526,56.5561578 22.0058526,56.6111899 C22.0058526,56.666222 21.9765895,56.7212541 21.9180633,56.7762862 C21.8595371,56.8313183 21.7717478,56.8313183 21.6839585,56.8313183 C21.5961692,56.8313183 21.5083799,56.8038022 21.4498537,56.7762862 C21.3913275,56.7212541 21.3620644,56.693738 21.3620644,56.6111899 C21.3620644,56.5561578 21.3913275,56.5011257 21.4498537,56.4460936 C21.5083799,56.3910615 21.5961692,56.3910615 21.6839585,56.3910615 Z M16.9211045,6 C17.5895663,6 18.1466179,6.22280605 18.536554,6.66841816 C18.9543427,7.11403027 19.1771633,7.64319465 19.2050159,8.28376206 L19.2050159,33.9064583 C19.2050159,38.0005195 20.6533499,41.5375656 23.5500181,44.4897459 C26.4466862,47.3026723 29.9839637,48.7230609 34.1339978,48.7787624 L51.2076283,48.7787624 C51.7925325,48.7787624 52.2938789,48.9737177 52.7395201,49.391479 C53.1851614,49.8370912 53.4358346,50.3941063 53.4636872,51.0625245 C53.407982,51.6473903 53.1851614,52.148704 52.7395201,52.5943161 C52.2938789,53.0399282 51.7925325,53.290585 51.2076283,53.3184358 L34.1339978,53.3184358 C28.7305976,53.179182 24.1070697,51.2574798 20.2912664,47.5533291 C16.6425787,43.7656262 14.7764559,39.2259528 14.7486034,33.9064583 L14.7486034,8.28376206 C14.7486034,7.67104541 14.9435714,7.11403027 15.3613601,6.66841816 C15.7791487,6.22280605 16.3083477,6 16.9211045,6 Z M75.9632366,6 C82.4018742,6.05573432 87.9801766,8.34084134 92.6981438,12.8831882 C97.1385835,17.5370038 99.4420616,23.1383027 99.5530726,29.687085 C99.4143089,36.1522659 97.0553253,41.7535648 92.4761218,46.4909818 C87.8969184,50.9218601 82.3741215,53.1791 75.9354839,53.3184358 L71.6893134,53.3184358 C71.0232474,53.2627014 70.4681925,53.0397642 70.0241485,52.5938896 C69.63561,52.1480151 69.413588,51.6464062 69.413588,51.0611959 C69.3580825,50.3923841 69.5801045,49.8350409 70.0241485,49.3891664 C70.4681925,48.9432918 71.0232474,48.7482217 71.6893134,48.7760889 L75.9632366,48.7760889 C81.1530005,48.6367531 85.6766985,46.7975206 89.5065778,43.2305242 C93.0589295,39.4405906 94.9183637,34.9261109 95.0293747,29.7149522 C94.8906109,24.3644577 93.003424,19.8221108 89.367814,16.1157787 C85.621193,12.4094465 81.1807533,10.5702141 75.9632366,10.5702141 L65.3894395,10.5702141 L65.3894395,51.0611959 C65.3061813,51.6464062 65.0286538,52.1480151 64.5846098,52.5938896 C64.1960714,53.0397642 63.6965219,53.2905686 63.1137142,53.3184358 C62.5031537,53.2627014 61.9480988,53.0397642 61.5040548,52.5938896 C61.0600108,52.1480151 60.8379888,51.6464062 60.8379888,51.0611959 L60.8379888,8.28510703 C60.8657416,7.64416237 61.0877636,7.11468635 61.5318075,6.66881181 C61.9758515,6.22293727 62.5031537,6 63.1414669,6 L75.9632366,6 Z M42.6003909,21.3631285 L43.1338886,21.3907624 L43.6954651,21.4183963 L44.2008839,21.4736641 L44.7343816,21.5565657 L45.2398005,21.6394674 L45.7732981,21.750003 L46.2506382,21.8605386 L46.7279782,21.998708 L47.1772394,22.1368775 L47.6545794,22.3026808 L48.1038406,22.4408503 L48.4969441,22.6342876 L48.9181265,22.8277248 L49.3112301,23.048796 L49.6762548,23.2698671 L50.0412795,23.4633043 L50.3782254,23.7120094 L50.7151713,23.9607144 L50.9959596,24.2094194 L51.2767478,24.4857584 L51.5575361,24.7620973 L51.7821667,25.0384362 L52.0067973,25.3147752 L52.203349,25.5911141 L52.371822,25.8950869 L52.5122161,26.1990597 L52.6245314,26.5030326 L52.7368467,26.8346393 L52.7930044,27.166246 L52.849162,27.4702188 L52.849162,28.1334322 L52.7930044,28.437405 L52.7368467,28.7690118 L52.6245314,29.1006185 L52.5122161,29.4045913 L52.371822,29.7085641 L52.203349,30.0125369 L52.0067973,30.2888759 L51.7821667,30.5652148 L51.5575361,30.8691876 L51.2767478,31.1178926 L50.9959596,31.3665977 L50.7151713,31.6429366 L50.3782254,31.8916416 L50.0412795,32.1127128 L49.3112301,32.5548551 L48.9181265,32.7759262 L48.4969441,32.9693635 L48.1038406,33.1351668 L47.6545794,33.3009702 L47.1772394,33.4667735 L46.7279782,33.604943 L46.2506382,33.7431125 L45.7732981,33.853648 L45.2398005,33.9641836 L44.7343816,34.0470853 L44.2008839,34.129987 L43.6954651,34.1852547 L43.1338886,34.2128886 L42.6003909,34.2405225 L42.0107356,34.2681564 L41.4772379,34.2405225 L40.9437402,34.2128886 L40.4102426,34.1852547 L39.8767449,34.129987 L39.371326,34.0470853 L38.8659072,33.9641836 L38.3604884,33.853648 L37.8831483,33.7431125 L37.4058083,33.604943 L36.9565471,33.4667735 L36.5072859,33.3009702 L36.0580247,33.1351668 L35.6368423,32.9693635 L35.2437388,32.7759262 L34.8506352,32.5548551 L34.1205858,32.1127128 L33.8117187,31.8916416 L33.4747728,31.6429366 L33.1659057,31.3665977 L32.8851175,31.1178926 L32.6324081,30.8691876 L32.4077775,30.5652148 L32.1831469,30.2888759 L31.9865951,30.0125369 L31.8181221,29.7085641 L31.677728,29.4045913 L31.5654127,29.1006185 L31.4530974,28.7690118 L31.3969398,28.437405 L31.3407821,28.1334322 L31.3407821,27.4702188 L31.3969398,27.166246 L31.4530974,26.8346393 L31.5654127,26.5030326 L31.677728,26.1990597 L31.8181221,25.8950869 L31.9865951,25.5911141 L32.1831469,25.3147752 L32.4077775,25.0384362 L32.6324081,24.7620973 L32.8851175,24.4857584 L33.1659057,24.2094194 L33.4747728,23.9607144 L33.8117187,23.7120094 L34.1205858,23.4633043 L34.4856105,23.2698671 L34.8506352,23.048796 L35.2437388,22.8277248 L35.6368423,22.6342876 L36.0580247,22.4408503 L36.5072859,22.3026808 L36.9565471,22.1368775 L37.4058083,21.998708 L37.8831483,21.8605386 L38.3604884,21.750003 L38.8659072,21.6394674 L39.8767449,21.4736641 L40.4102426,21.4183963 L40.9437402,21.3907624 L41.4772379,21.3631285 L42.6003909,21.3631285 Z M42.0949721,22.4132164 C41.7018685,22.4132164 41.3368438,22.4684842 40.9998979,22.5513859 C40.6348732,22.6342876 40.3540849,22.8000909 40.0732967,23.0211621 C39.7925084,23.2422332 39.5959566,23.4909382 39.4555625,23.7949111 C39.3151684,24.0988839 39.2590108,24.3752228 39.2590108,24.6791956 C39.2590108,24.9831684 39.3151684,25.3147752 39.4555625,25.6463819 C39.5959566,25.9779886 39.8205872,26.4201309 40.185612,26.9175409 C39.6240355,27.2215138 39.2028531,27.4978527 38.893986,27.7189238 C38.585119,27.939995 38.3324095,28.1887 38.1358578,28.437405 C37.939306,28.713744 37.7989119,28.962449 37.7146754,29.211154 C37.6304389,29.4598591 37.6023601,29.736198 37.6023601,29.984903 C37.6023601,30.509947 37.770833,30.9797232 38.0516213,31.4218655 C38.3324095,31.8363739 38.7535919,32.1679806 39.3151684,32.3890517 C39.8767449,32.6101229 40.494479,32.7206584 41.1964497,32.7206584 C41.5053167,32.7206584 41.8141838,32.7206584 42.0949721,32.6653906 C42.4038391,32.6377567 42.6565486,32.582489 42.8811792,32.4995873 C43.1058098,32.4166856 43.3023615,32.3337839 43.4989133,32.2232484 C43.6954651,32.1127128 43.863938,32.0021772 43.9762533,31.9192755 C44.0604898,31.8570993 44.176315,31.7638349 44.3000373,31.6627985 L44.4255145,31.5600349 L45.4925099,32.5548551 C45.7732981,32.5272212 46.0260076,32.5272212 46.2506382,32.5272212 C46.4191111,32.5272212 46.6718205,32.5548551 47.0368453,32.5548551 C46.756057,32.30615 46.4752688,32.0298111 46.1664017,31.7534722 C45.8575346,31.4771333 45.5486675,31.2007943 45.2678793,30.9244554 C45.5205887,30.509947 45.6890617,30.0678047 45.8294558,29.5980285 C45.9417711,29.1282524 46.0260076,28.6308423 46.0260076,28.1334322 C45.801377,28.1610661 45.6048252,28.1610661 45.4644311,28.1610661 C45.3240369,28.1610661 45.1274852,28.1334322 44.8747757,28.1334322 C44.8747757,28.3268695 44.8466969,28.5203067 44.8747757,28.713744 C44.8466969,28.8795473 44.8186181,29.0729846 44.7905393,29.2387879 C44.7343816,29.4322252 44.7063028,29.5703947 44.678224,29.6532963 C44.6501451,29.7638319 44.5939875,29.9020014 44.509751,30.0678047 C43.8077804,29.4045913 43.386598,28.9900829 43.2181251,28.8242795 C42.7688639,28.3821373 42.3476815,27.939995 41.9826568,27.4978527 C41.5333956,26.9728087 41.1964497,26.5030326 40.9718191,26.1161581 C40.8033461,25.8398191 40.6910308,25.618748 40.6348732,25.4253107 C40.5787155,25.2318735 40.5506367,25.0660701 40.5506367,24.8726329 C40.5506367,24.5962939 40.6348732,24.3475889 40.7752673,24.0988839 C40.9437402,23.8501788 41.1683708,23.6567416 41.4491591,23.5185721 C41.7299473,23.3804027 42.0388144,23.3251349 42.4038391,23.3251349 C42.6565486,23.3251349 42.909258,23.3804027 43.1338886,23.4356705 C43.2462039,23.4633043 43.3304404,23.4909382 43.4427557,23.546206 C43.5831498,23.6014738 43.7797016,23.1593315 43.9481745,23.2698671 C43.9265754,23.0998124 43.921591,23.3221916 43.9204408,23.2074802 L43.9200957,22.9935282 C43.863938,22.9935282 43.8077804,22.7171892 43.7516227,22.6895553 C43.4427557,22.6066537 43.1619674,22.523752 42.909258,22.4961181 C42.6284697,22.4408503 42.3476815,22.4132164 42.0949721,22.4132164 Z M40.7471885,27.6912899 C41.1964497,28.2439678 41.6737897,28.7690118 42.1230509,29.2387879 C42.5723121,29.7085641 43.1058098,30.2336081 43.7235439,30.8139198 C43.555071,30.9797232 43.4427557,31.1178926 43.3304404,31.2284282 C43.2181251,31.3113299 43.0496521,31.4218655 42.8531003,31.5047671 C42.6565486,31.5876688 42.4038391,31.6705705 42.1511297,31.7258383 C41.8984203,31.7811061 41.617632,31.80874 41.3368438,31.80874 C40.8595038,31.80874 40.4383214,31.7534722 40.0452178,31.5876688 C39.6521143,31.4218655 39.3432472,31.2007943 39.1466955,30.9244554 C38.9501437,30.6481165 38.8378284,30.3165098 38.8378284,29.9572691 C38.8378284,29.7914658 38.8659072,29.5980285 38.9220649,29.4322252 C38.9501437,29.2664218 39.062459,29.0729846 39.2028531,28.8795473 C39.3432472,28.6861101 39.539799,28.4926728 39.7644296,28.3268695 C40.017139,28.1610661 40.3260061,27.939995 40.7471885,27.6912899 Z" fill="#3E4651"></path>
            </g>
        </g>
    </g>
</svg>