<?xml version="1.0" encoding="utf-8"?>
<!-- Generator: Adobe Illustrator 22.1.0, SVG Export Plug-In . SVG Version: 6.00 Build 0)  -->
<svg version="1.1" id="Ebene_1" xmlns="http://www.w3.org/2000/svg" xmlns:xlink="http://www.w3.org/1999/xlink" x="0px" y="0px"
	 viewBox="0 0 138.3 103.2" style="enable-background:new 0 0 138.3 103.2;" xml:space="preserve">
<style type="text/css">
	.st0{fill:#1D1D1B;}
</style>
<title>STO-Logo-Signet</title>
<g id="Ebene_2_1_">
	<path class="st0" d="M101.3,55.6l-1.4-0.8c0,0-0.4-0.2,0.1-0.3c0.3-0.1,0.2-0.4-0.3-0.2c-0.6,0.2-0.3,0.3-0.7,0.2
		c-0.3-0.1-0.6-0.4-0.9-0.7c-0.3-0.3-5.9-5.4-6.5-6s-5.1-3.5-5.5-3.8c0.1,0,0.2,0,0.5-0.3s0-2.1-0.2-3.9c-0.2-1.3-0.4-2.6-0.5-3.4
		c0-0.3-0.1-0.5-0.1-0.6s0-0.1,0-0.1c0,0,0.7-1.2,0.9-1.5c0.1-0.1-0.1-0.2-0.2-0.4l0,0c-0.1-0.3,0.1-0.5,0.8-0.6
		c0.4-0.1,0.8-0.7,0.9-0.9l0,0l1.2,0.4l0.3,0.1c0.4,0.1,0.4,0,0.4-0.2c0-0.1-0.2-0.2-0.2-0.2l-1.6-0.6c0,0,0,0,0,0
		c0-0.3-0.1-0.7-0.3-0.9c-0.4-0.4-1.1-0.8-1.4-0.5c-0.2,0.2-0.4,0.4-0.6,0.5l0,0L85,30.7L83.3,30l-2.6-1.1c0-0.3,0.2-0.6,0.5-0.8
		c0.4-0.2,0.7-0.5,1-0.8c0.4-0.4,0.5-0.5,0.3-0.7c-0.1-0.2-0.1-0.5,0.1-0.6c0.2-0.2-0.3-0.3-0.2-0.6s0.4-0.5-0.3-0.6
		s-0.3-0.3-0.8-0.9c-0.3-0.3-0.7-0.5-1.1-0.5c0,0-0.3-0.2-1.5-2.4c-0.4-0.7-0.9-2-1.5-3.3c-0.6-1.6-1.1-2.9-1.7-4.4
		c-0.2-0.5-0.4-1-0.8-1.5c-0.5-0.5-1.3-0.7-2-0.5c-0.7,0.3-1.2,0.9-1.3,1.6c-0.4,0.1-0.8,0.3-1.2,0.5c-0.4,0.2-0.6,0.6-0.7,1
		c0,0.1,0,0.1,0,0.2c-0.1,0.1-0.1,0.1-0.2,0.1c-0.7,0.2-1.3,0.7-1.6,1.3c-0.3,0.5-0.4,1.2-0.1,1.8c0.5,0.7,1.1,1.3,1.9,1.7
		c0.8,0.5,1.1,0.7,1.8,1.1c1.2,0.9,2.3,1.8,3.4,2.8c0.7,0.7,1.3,1.2,1.4,1.3c0.3,0.4,0.9,0.6,0.9,1.5c0.1,0.6,0.4,1.2,0.9,1.7
		l-4-1.7c-0.7-0.9-4.8-5.5-7.6-5.3c-0.8,0.1-1.4,0.5-1.8,1.2c-0.3,0.7-0.2,1.5,0.2,2.1c1.6,2.3,7.8,2.5,8.9,2.5l5,2l-0.4,0.7
		c-0.4,1.1-0.4,2.4-0.1,3.5c0.4,1.9,0.6,3.8,0.5,5.8c-0.1,1.5-0.4,2.9-0.9,4.3l1.2,1c-0.1,0.8-0.1,1.7-0.1,2.5
		c0.1,1,0.8,1.8,0.5,3.1s-2.1,2.7-2.4,2.9l0,0c-1.4-1.3-3-2.8-3.3-3c-0.5-0.5-4.5-3.2-4.9-3.4c0,0,0.2,0,0.4-0.2
		c0.2-0.2,0-1.9-0.2-3.5c-0.2-1.2-0.4-2.4-0.5-3c0-0.3-0.1-0.5-0.1-0.5c0,0,0-0.1,0-0.1l0.7-1.3c0,0,0-0.1,0-0.1
		c0-0.1-0.1-0.2-0.2-0.3c0-0.1,0-0.1,0-0.2l0,0c0.1-0.2,0.3-0.3,0.7-0.4s0.6-0.5,0.7-0.7l1.4,0.5c0.3,0.1,0.4-0.1,0.4-0.2
		c0.1-0.1-0.2-0.4-0.2-0.4l-1.5-0.6c0-0.3-0.1-0.5-0.3-0.7c-0.3-0.4-1-0.7-1.3-0.4c-0.1,0.1-0.2,0.2-0.4,0.3l-4.7-1.9
		c0-0.2,0.2-0.5,0.4-0.6c0.4-0.2,0.7-0.4,0.9-0.8c0.3-0.4,0.4-0.4,0.3-0.7c-0.1-0.2-0.1-0.4,0.1-0.5c0.2-0.2-0.2-0.3-0.2-0.6
		s0.4-0.5-0.3-0.6c-0.6-0.1-0.2-0.2-0.7-0.8c-0.2-0.3-0.6-0.5-1-0.5c0,0-0.3-0.2-1.3-2.1c-0.3-0.6-0.8-1.8-1.3-3
		c-0.6-1.4-1-2.6-1.5-3.9c-0.1-0.5-0.4-0.9-0.7-1.3c-0.5-0.5-1.2-0.6-1.8-0.4c-0.6,0.2-1.1,0.8-1.2,1.4c-0.4,0.1-0.7,0.3-1,0.5
		c-0.3,0.2-0.5,0.6-0.6,0.9c0,0.1,0,0.1,0,0.2c-0.1,0.1-0.1,0.1-0.2,0.1c-0.6,0.2-1.1,0.6-1.4,1.2c-0.3,0.5-0.3,1-0.1,1.5
		c0.4,0.6,1,1.1,1.7,1.5c0.7,0.4,1,0.6,1.6,1c1,0.8,2,1.6,3,2.5c0.7,0.6,1.1,1.1,1.2,1.2c0.3,0.4,0.8,0.6,0.8,1.4
		c0,0.2,0,0.3,0.1,0.5c0.1,0.2,0.2,0.4,0.4,0.6c-1.6-0.6-2.8-1.1-3.1-1.3s-0.5-0.2-0.7-0.7c-0.2-0.3-0.5-0.6-0.8-0.7
		c-0.2-0.1-1.8-0.6-3.1-1.1c-1.6-0.6-2.2-0.9-2.2-0.9c-0.1,0-0.2-0.1-0.3-0.1c0,0,0,0.1,0,0.1c0.8,0.4,1.6,0.8,2.4,1.2
		c1.2,0.5,2.6,1,2.8,1.1c0.3,0.1,0.4,0.4,0.3,0.7c0,0,0,0,0,0l0,0c-0.1,0.3-0.4,0.4-0.7,0.3c0,0,0,0,0,0c-0.4-0.1-1.5-0.7-2.5-1.1
		c-1.4-0.5-2.2-0.8-2.7-1c0,0,0,0.1-0.1,0.1s0.2,0.1,0.3,0.2c0.7,0.4,1.2,0.5,2.3,1c0.9,0.4,1.9,0.9,2.5,1.2
		c0.4,0.2,0.9,0.3,1.4,0.3c0.3,0,0.6,0,0.9,0.1l4.1,1.6c0.1,0.1,0,0.2,0,0.4L61.6,33c-0.3,1-0.4,2.1-0.1,3.2
		c0.4,1.7,0.5,3.5,0.4,5.2c-0.1,1.3-0.4,2.6-0.8,3.8l1.1,0.9c-0.1,0.7-0.1,1.5-0.1,2.2c0.1,0.9,0.7,1.6,0.5,2.8
		c-0.4,1-1.1,1.9-2,2.5c-1.4-1.2-2.9-2.6-3.2-2.9c-0.5-0.5-4.2-2.9-4.5-3.1c0,0,0.2,0,0.4-0.2s0-1.7-0.2-3.2
		c-0.2-1.1-0.3-2.2-0.4-2.8c0-0.3-0.1-0.4-0.1-0.5s0-0.1,0-0.1s0.4-0.7,0.6-1l0,0l0.1-0.2c0-0.1-0.1-0.2-0.2-0.4s0.1-0.4,0.6-0.5
		c0.2,0,0.5-0.4,0.6-0.6l0.1,0c0.2,0,0.4-0.1,0.4-0.2c0-0.1,0-0.3-0.1-0.4l-0.2-0.1c0-0.2-0.1-0.5-0.3-0.6c-0.3-0.3-0.9-0.6-1.2-0.4
		c-0.1,0.1-0.2,0.2-0.3,0.3l-0.4-0.1c-0.1,0-0.1-0.1-0.1-0.2c0-0.2,0-0.6-0.2-0.6l-3.3-1.3l0,0c0.3-0.2,0.6-0.4,0.9-0.7
		c0.3-0.3,0.4-0.4,0.3-0.6c-0.1-0.2,0-0.4,0.1-0.5c0.2-0.2-0.2-0.3-0.2-0.5s0.3-0.5-0.3-0.5s-0.2-0.2-0.6-0.7
		c-0.2-0.3-0.6-0.4-0.9-0.4c0,0-0.3-0.2-1.2-2c-0.3-0.6-0.7-1.6-1.2-2.7c-0.5-1.3-0.9-2.4-1.4-3.6c-0.1-0.4-0.4-0.9-0.7-1.2
		c-0.4-0.4-1.1-0.6-1.6-0.4c-0.6,0.2-1,0.7-1.1,1.3c-0.3,0.1-0.7,0.3-0.9,0.5c-0.3,0.2-0.5,0.5-0.6,0.9c0,0,0,0.1,0,0.1
		c0,0-0.1,0.1-0.2,0.1c-0.6,0.2-1,0.6-1.3,1.1c-0.3,0.4-0.3,1-0.1,1.4c0.4,0.6,0.9,1.1,1.5,1.4c0.6,0.4,0.9,0.5,1.4,0.9
		c0.5,0.4,1.9,1.5,2.8,2.3c0.6,0.6,1,1,1.1,1.1c0.3,0.3,0.8,0.5,0.8,1.2c0,0,0,0.1,0,0.1l-4.9-2c-0.2-0.1-0.4,0.2-0.6,0.3
		c-0.1,0.1-0.1,0.1-0.2,0l-1.6-0.6c-0.2-0.1-0.3,0-0.4,0.2c-0.1,0.2,0,0.3,0.1,0.4l1.6,0.7c0.1,0,0.1,0.1,0.1,0.2
		c0,0.2,0,0.6,0.2,0.6l6.6,2.7l0,0c-0.3,0.9-0.3,2,0,2.9c0.4,1.6,0.5,3.1,0.4,4.7c-0.1,1.2-0.3,2.4-0.8,3.5l1,0.8
		c-0.1,0.7-0.1,1.3-0.1,2c0.1,0.8,0.7,1.5,0.4,2.5s-1.7,2.2-1.9,2.4l-1.8,1.3c-0.3,0.3-0.4,0.6-0.5,1c0,0.2,0,0.3,0,0.5
		c-0.1,0.2-0.2,0.3-0.3,0.4c-0.5,0.5-1,0.9-1.6,1.3c-0.4,0-0.9,0.2-1.2,0.5c-0.4,0.3,0,1.4,0.4,1.6s0.7,0.1,0.5,0.7
		c-0.2,0.6,0.3,1,1.1,1.5c0.5,0.4,1.2,0.5,1.8,0.3c0.6-0.1-0.3-1-0.7-1.4s-0.9-0.8-0.6-0.8c0.2,0,0.5-0.2,0.5-0.3s-0.3-0.3-0.4-0.2
		s-0.3,0.4-0.4-0.2c-0.1-0.7,0.2-1.4,0.8-1.8l0,0c0.3-0.3,0.8-0.6,1.2-0.8c0.2,0,0.3,0,0.5,0c0.5,0,1-0.2,1.3-0.6l1.1-0.8
		c0,0,0.9-0.7,1.2-0.9s0.9-0.8,1.2-1.2c0.8-1.2,1.5-2.4,2.1-3.8c0,0,0.4-0.1,2.1,0.8s2.2,1.3,3.5,2.1c0.5,0.4,1,0.8,1.4,1.3L58.5,55
		c-0.3,0.3-0.5,0.7-0.5,1.1c0,0.2,0,0.3,0,0.5c-0.1,0.2-0.2,0.3-0.3,0.5c-0.5,0.6-1.1,1-1.8,1.4c-0.5,0-0.9,0.2-1.3,0.5
		c-0.4,0.3,0,1.5,0.4,1.8s0.8,0.1,0.6,0.7s0.3,1.1,1.2,1.7c0.5,0.4,1.3,0.6,1.9,0.3c0.7-0.1-0.4-1.1-0.7-1.5s-1-0.9-0.6-0.8
		c0.2,0,0.5-0.2,0.5-0.3s-0.3-0.3-0.4-0.2s-0.3,0.5-0.5-0.2c-0.1-0.8,0.2-1.5,0.8-2l0,0c0.4-0.4,0.8-0.7,1.3-0.8c0.2,0,0.3,0,0.5,0
		c0.5,0,1.1-0.3,1.5-0.6l0,0c0.2,0.3,0.5,0.5,0.8,0.5c0.7,0.2,0.9-0.2,1.2-0.2s1,0.5,1.7,0.7c0.7,0.1,1.9,0.2,1.9,0
		c0-0.3-0.9-0.7-1.5-1l-1.2-0.5c0,0-0.3-0.1,0-0.3c0.2-0.1,0.1-0.3-0.2-0.2s-0.3,0.3-0.6,0.2c-0.2-0.1-0.4-0.2-0.5-0.3l0.5-0.4
		c0.4-0.4,1.1-1.1,1.5-1.5c0.9-1.3,1.7-2.7,2.3-4.1c0,0,0.5-0.1,2.3,0.8c1.8,0.9,2.4,1.4,3.8,2.3c0.6,0.3,1.1,0.7,1.5,1.2
		c-0.3,0.3-0.5,0.8-0.5,1.2c0,0.2,0,0.4,0,0.6c-0.1,0.2-0.3,0.4-0.5,0.5c-0.6,0.6-1.2,1.1-1.9,1.5c-0.5,0-1,0.2-1.5,0.5
		c-0.5,0.4,0.1,1.7,0.5,2c0.4,0.3,0.9,0.1,0.7,0.8s0.4,1.2,1.3,1.9c0.6,0.5,1.4,0.7,2.2,0.4c0.7-0.2-0.4-1.2-0.8-1.7s-1.1-1-0.7-0.9
		c0.2,0,0.6-0.2,0.6-0.3c0-0.2-0.3-0.3-0.5-0.2c-0.2,0.1-0.4,0.5-0.5-0.3C73,59.3,73.3,58.5,74,58c0.4-0.4,0.9-0.7,1.5-0.9
		c0.2,0,0.4,0,0.6,0c0.6,0,1.2-0.3,1.6-0.7l0,0c0.1,0.4,0.4,0.6,0.9,0.7c0.8,0.2,0.9-0.2,1.3-0.2s1.1,0.6,1.9,0.7s2.1,0.2,2.1,0
		c0-0.4-0.9-0.7-1.6-1.1L81,55.8c0,0-0.4-0.1,0-0.3c0.2-0.1,0.2-0.3-0.2-0.2c-0.6,0.2-0.3,0.3-0.6,0.2c-0.3-0.1-0.5-0.2-0.7-0.5l0,0
		c0.2-0.2,0.4-0.3,0.7-0.5c0.4-0.4,1.3-1.2,1.7-1.7c1-1.4,1.9-3,2.6-4.6c0,0,0.5-0.1,2.6,0.9s2.7,1.6,4.3,2.5c0.9,0.5,2,2,2.4,2.1
		s1.2-0.7,1.7-0.3c0.6,0.3,0.9,0.9,0.8,1.5c-0.2,0.8,0.2,1.2,1,1.4s1-0.3,1.4-0.3s1.2,0.7,2.1,0.8s2.3,0.2,2.4,0
		C103.1,56.4,102,56,101.3,55.6z M65,24.1c-0.3-0.5-0.4-1.1-0.2-1.6c0.6,2.1,4.3,3.3,6.7,3.8C69.2,26.1,66,25.5,65,24.1z M65.1,22.1
		L65.1,22.1c0.2,0.4,0.5,0.6,0.8,0.9c2,1.3,4.2,2.4,6.5,3.1C70,25.6,65.3,24.4,65.1,22.1z M65.4,22c1.8-0.1,5.3,2.5,6.9,3.7
		c-2.2-0.7-4.3-1.8-6.3-3C65.8,22.5,65.6,22.2,65.4,22z M65.5,21.6c0.2-0.2,0.5-0.3,0.8-0.3h0.2c2,0,4.9,2.8,6.3,4.3
		C71.4,24.5,67.6,21.6,65.5,21.6z M52.5,38.4L52.5,38.4l-0.4,0.5c-0.2-0.3-0.4-0.5-0.5-0.8c0-0.1-0.1-0.4-0.2-0.6l0,0
		c0.2,0.1,0.4-0.2,0.6-0.3c0.1-0.1,0.1-0.1,0.2,0l0.3,0.1c0,0.2-0.1,0.6,0,0.7C52.5,38.1,52.5,38.3,52.5,38.4z M68.2,36.1L68.2,36.1
		l-0.4,0.6c-0.2-0.3-0.4-0.6-0.5-0.9c-0.2-0.5-0.4-1-0.5-1.5c0-0.1-0.1-0.2-0.1-0.3l1.6,0.6c0.1,0.1-0.1,0.7,0,0.9
		C68.3,35.8,68.3,35.9,68.2,36.1z M85.6,33l-0.3,0.4l-0.2,0.3c-0.2-0.3-0.4-0.6-0.6-1c-0.2-0.4-0.8-2-0.8-2s1.5,0.6,1.8,0.8
		c0.1,0.1-0.1,0.8,0,1.1C85.6,32.6,85.7,32.8,85.6,33z"/>
	<rect x="36.9" y="89.1" class="st0" width="12.6" height="1"/>
	<rect x="91.1" y="89.1" class="st0" width="12.6" height="1"/>
	<path class="st0" d="M56.2,87.8c-0.2-0.1-0.4-0.1-0.6-0.1c-0.2,0-0.5,0.1-0.7,0.2c-0.2,0.1-0.2,0.3-0.2,0.6c0,0.1,0,0.2,0.1,0.4
		c0.1,0.1,0.1,0.2,0.2,0.3c0.1,0.1,0.2,0.1,0.3,0.2l0.4,0.2l0.4,0.2c0.1,0.1,0.2,0.1,0.4,0.2c0.1,0.1,0.2,0.2,0.3,0.3
		c0.1,0.1,0.1,0.3,0.1,0.5c0,0.4-0.2,0.7-0.5,0.9c-0.4,0.2-0.8,0.3-1.3,0.3c-0.4,0-0.7-0.1-1.1-0.2l0,0l0.2-1.1h0.2l0.2,0.9
		c0.2,0.1,0.4,0.1,0.7,0.1c0.3,0,0.5-0.1,0.7-0.2c0.2-0.1,0.3-0.4,0.3-0.6c0-0.1,0-0.3-0.1-0.4c-0.1-0.1-0.1-0.2-0.2-0.3
		c-0.1-0.1-0.2-0.1-0.3-0.2l-0.4-0.2l-0.5-0.2c-0.1-0.1-0.3-0.2-0.4-0.3c-0.1-0.1-0.2-0.2-0.3-0.3c-0.1-0.2-0.1-0.3-0.1-0.5
		c0-0.4,0.2-0.7,0.5-0.9c0.3-0.2,0.7-0.3,1.2-0.3c0.3,0,0.7,0,1,0.1l0,0l-0.2,1h-0.1L56.2,87.8z"/>
	<path class="st0" d="M58.8,87.5H61l0,0l-0.2,1h-0.1l-0.2-0.7h-1.5v1.7h1c0.1,0,0.1,0,0.1-0.1l0.1-0.4h0.2c0,0.3,0,0.5,0,0.6
		s0,0.3,0,0.6h-0.2l-0.1-0.4c0,0-0.1-0.1-0.1-0.1h-1v1.1c0,0.2,0,0.5,0,0.7h1.5l0.4-0.8h0.1L61,91.9l0,0h-3v-0.1l0.4-0.1
		c0,0,0.1,0,0.1-0.1c0-0.1,0-0.2,0-0.3v-3.2c0-0.1,0-0.2,0-0.2c0,0,0-0.1-0.1-0.1L58,87.6v-0.1L58.8,87.5z"/>
	<path class="st0" d="M63.4,90.9v0.6c0,0.1,0,0.1,0.1,0.1l0.4,0.1v0.1h-1.6v-0.1l0.4-0.1c0,0,0.1,0,0.1-0.1v-0.3c0-0.1,0-0.2,0-0.3
		v-2.5c0-0.1,0-0.2,0-0.3v-0.2c0,0,0-0.1-0.1-0.1l-0.4-0.1v-0.1h1.5v0.1l-0.4,0.1c0,0-0.1,0.1-0.1,0.1L63.4,90.9L63.4,90.9z"/>
	<path class="st0" d="M66.9,91.9h-0.8v-0.1l0.5-0.1c0,0,0.1,0,0.1-0.1c0-0.2,0-0.4,0-0.6v-3.1h-1.1l-0.3,0.8h-0.1L65,87.5l0,0h3.8
		l0,0l-0.2,1.1h-0.1l-0.2-0.8h-1.1v3.1c0,0.3,0,0.4,0,0.6c0,0,0,0.1,0.1,0.1l0.5,0.1v0.1L66.9,91.9z"/>
	<path class="st0" d="M72.2,87.8v-0.1l1.4-0.2l0,0c0,0.5,0,1,0,1.5v1.6c0,0.4,0,0.7,0,0.9c0,0.1,0,0.1,0.1,0.1l0.6,0.2v0.1h-2.1
		v-0.1l0.6-0.2c0,0,0.1-0.1,0.1-0.1c0-0.2,0-0.5,0-0.8v-1.3c0-0.6,0-1.1,0-1.5L72.2,87.8z"/>
	<path class="st0" d="M75.9,91.7c0.2,0,0.5-0.1,0.7-0.2c0.2-0.1,0.4-0.2,0.6-0.4c0.2-0.2,0.3-0.4,0.4-0.6c0.1-0.2,0.2-0.5,0.3-0.8
		l0,0c-0.2,0.3-0.6,0.4-1,0.4c-0.4,0-0.7-0.1-1-0.4c-0.3-0.3-0.4-0.6-0.4-0.9c0-0.4,0.2-0.7,0.4-1c0.3-0.3,0.6-0.4,1-0.4
		c0.4,0,0.8,0.2,1.1,0.5c0.3,0.4,0.5,0.8,0.4,1.3c0,0.7-0.3,1.4-0.7,1.8c-0.5,0.5-1.2,0.8-1.9,0.9L75.9,91.7z M76.3,88.6
		c0,0.3,0.1,0.6,0.2,0.9c0.1,0.2,0.4,0.3,0.6,0.3c0.2,0,0.4-0.1,0.6-0.3c0.1-0.2,0.2-0.5,0.2-0.7c0-0.3-0.1-0.7-0.3-0.9
		c-0.1-0.2-0.4-0.4-0.6-0.4c-0.2,0-0.4,0.1-0.5,0.3C76.3,88.1,76.3,88.4,76.3,88.6z"/>
	<path class="st0" d="M80.3,89.4c0.3,0,0.6-0.1,0.9-0.3c0.2-0.1,0.4-0.4,0.4-0.6c0-0.2-0.1-0.4-0.2-0.5c-0.2-0.1-0.4-0.2-0.6-0.2
		c-0.3,0-0.6,0.1-0.9,0.3l-0.1-0.2c0.4-0.3,0.8-0.4,1.3-0.4c0.3,0,0.6,0.1,0.8,0.2c0.2,0.1,0.3,0.4,0.3,0.6c0,0.5-0.3,0.8-1,1.1l0,0
		c0.4,0,0.7,0.1,1,0.3c0.2,0.2,0.3,0.4,0.3,0.7c0,0.5-0.3,0.9-0.8,1.1c-0.6,0.3-1.3,0.5-2,0.5v-0.2c0.6,0,1.1-0.1,1.6-0.4
		c0.3-0.2,0.5-0.5,0.5-0.9c0-0.2-0.1-0.5-0.3-0.6c-0.2-0.2-0.5-0.2-0.8-0.2h-0.4L80.3,89.4z"/>
	<path class="st0" d="M84.2,91.9l1.9-3.9H84l-0.2,0.6h-0.1l-0.1-1.1l0,0h1.5h0.2h1.3v0.1c-0.1,0.2-0.2,0.5-0.3,0.7s-0.2,0.5-0.3,0.8
		s-0.2,0.5-0.3,0.8s-0.2,0.5-0.3,0.8s-0.2,0.5-0.3,0.7l-0.2,0.6H84.2L84.2,91.9z"/>
	<path class="st0" d="M13.8,77.1c0.9,0.6,2,1,3.1,1c0.8,0,1.5-0.2,1.5-0.8s-0.3-0.6-0.8-0.8l-1.5-0.4c-1.6-0.5-2.5-1.3-2.5-2.8
		c0-1.9,1.6-2.9,3.6-2.9c1,0,2.1,0.2,3,0.7v2.3c-0.8-0.6-1.8-1-2.9-1c-0.7,0-1.3,0.2-1.3,0.7s0.3,0.6,0.8,0.8l1.4,0.4
		c1.7,0.5,2.5,1.5,2.5,2.9c0,2.1-1.8,3-3.9,3c-1.1,0-2.2-0.3-3.2-0.8V77.1z"/>
	<path class="st0" d="M22.4,70.5h8.4v2.2h-3v7.4h-2.5v-7.4h-2.9V70.5z"/>
	<path class="st0" d="M36.9,80.2c-2.7,0.1-5-1.9-5.2-4.7c-0.1-2.7,1.9-5,4.7-5.2s5,1.9,5.2,4.7c0,0.1,0,0.2,0,0.3
		c0.2,2.5-1.8,4.7-4.3,4.9C37.1,80.2,37,80.2,36.9,80.2z M36.9,72.5c-1.3,0-2.1,1.1-2.1,2.7s0.8,2.7,2.1,2.7s2.2-1.1,2.2-2.7
		S38.2,72.5,36.9,72.5z"/>
	<path class="st0" d="M43.8,70.5h2.5v7.4h4v2.2h-6.5V70.5z"/>
	<path class="st0" d="M52.5,70.5H55v7.4h4v2.2h-6.5V70.5z"/>
	<path class="st0" d="M61.3,77.1c0.9,0.6,2,1,3.1,1c0.8,0,1.5-0.2,1.5-0.8s-0.3-0.6-0.8-0.8l-1.5-0.4c-1.6-0.5-2.5-1.3-2.5-2.8
		c0-1.9,1.6-2.9,3.6-2.9c1,0,2.1,0.2,3,0.7v2.3c-0.8-0.6-1.9-1-2.9-1c-0.7,0-1.3,0.2-1.3,0.7s0.3,0.6,0.8,0.8l1.5,0.4
		c1.7,0.5,2.5,1.5,2.5,2.9c0,2.1-1.8,3-3.9,3c-1.1,0-2.2-0.3-3.1-0.8V77.1z"/>
	<path class="st0" d="M70,70.5h8.4v2.2h-2.9v7.4h-2.5v-7.4H70V70.5z"/>
	<path class="st0" d="M87.6,70.5v2.2h-4.4v1.5h4v2.1h-4v1.7h4.4v2.2h-6.8v-9.6H87.6z"/>
	<path class="st0" d="M93.1,80.1h-2.5v-9.6h2.5V80.1z"/>
	<path class="st0" d="M101,78l-2.5-3.4v5.5h-2.4v-9.6h2.3l2.6,3.9l2.6-3.9h2.3v9.6h-2.5v-5.5L101,78L101,78z"/>
	<path class="st0" d="M116,70.5v2.2h-4.4v1.5h4v2.1h-4v1.7h4.4v2.2h-6.8v-9.6H116z"/>
	<path class="st0" d="M121.4,76.9v3.2h-2.5v-9.6h4.3c2,0,3.5,1.2,3.5,3.3c0.1,1.3-0.7,2.5-1.9,2.9l2.2,3.4h-2.8l-2-3.2L121.4,76.9z
		 M121.4,74.9h1.6c0.9,0,1.3-0.4,1.3-1.2s-0.4-1.2-1.3-1.2h-1.6V74.9z"/>
</g>
</svg>
