<?xml version="1.0" encoding="UTF-8"?>
<svg width="108px" height="34px" viewBox="0 0 108 34" version="1.1" xmlns="http://www.w3.org/2000/svg" xmlns:xlink="http://www.w3.org/1999/xlink">
    <!-- Generator: Sketch 62 (91390) - https://sketch.com -->
    <title>WISAG</title>
    <desc>Created with Sketch.</desc>
    <g id="OnePager" stroke="none" stroke-width="1" fill="none" fill-rule="evenodd">
        <g id="OnePager-1" transform="translate(-861.000000, -8512.000000)">
            <g id="WISAG" transform="translate(861.000000, 8484.000000)">
                <path d="M34,28.0005865 L34,40.9131147 L31.1631477,43.7493316 L23.4566687,36.043572 L23.4566687,51.4562641 L12.9133375,62 L0,62 L0,49.0868853 L2.64507003,46.4418609 L2.83743876,46.2500819 L10.5439178,53.956428 L10.5439178,38.5437359 L21.087249,28.0005865 L34,28.0005865 Z M101.392093,45 C104.487199,45 106.606913,46.5401233 107.497262,48.5459843 C107.684126,48.9667426 107.844377,49.4467144 107.902808,49.8367272 L107.902808,49.8367272 L104.09496,49.8367272 C104.04,49.6659187 103.958428,49.4899859 103.900575,49.390917 C103.426185,48.5824235 102.707658,48.1656507 101.30705,48.1656507 C100.408023,48.1656507 99.6871812,48.4936031 99.2220475,48.9940719 C98.9223718,49.2975417 98.6880694,49.8150914 98.5914558,50.3013263 C98.4618663,50.9481211 98.4271548,51.905218 98.4271548,53.493737 L98.4278879,53.8015795 C98.4347322,55.1970115 98.4895197,56.0245495 98.5931913,56.6383214 C98.6880694,57.2002813 98.9223718,57.7109987 99.2295683,58.018454 C99.6871812,58.5098131 100.376782,58.8212539 101.274652,58.8212539 C102.563027,58.8212539 103.112046,58.5137986 103.646024,57.9763213 C104.181738,57.4103758 104.340832,56.6559716 104.363973,55.8748074 L104.363973,55.8748074 L104.363973,55.1460245 L101.511269,55.1460245 L101.511269,52.1261304 L108,52.1261304 L108,54.4012995 C108,56.5267265 107.789996,58.5826914 106.341949,60.0527832 C104.944812,61.4687856 103.180312,62 101.289116,62 L101.289116,62 L101.27176,62 C99.3117188,61.9994306 97.6710233,61.3384018 96.4046331,60.1797508 C94.7957564,58.7073816 94.6337695,56.4441691 94.6337695,53.8518655 L94.6337695,53.8518655 L94.6337695,53.0456494 C94.6337695,50.4522071 94.7222838,48.5271954 96.4081042,46.8566883 C97.6536675,45.6194655 99.0941936,45 101.272338,45 L101.272338,45 Z M25.2243497,40.3119728 L34,49.0868853 L34,62 L21.087249,62 L18.443352,59.3549756 L18.2503967,59.1626102 L25.2243497,52.1887775 L25.2243497,40.3119728 Z M85.43118,45.0723089 C87.7452781,45.0723089 89.3350635,45.5676536 90.480542,46.5230424 L90.480542,46.5230424 C91.6277561,47.4778619 92.1923961,48.8961417 92.1923961,50.8302632 L92.1923961,50.8302632 L92.1923961,61.7198741 L88.6616609,61.7198741 L88.6616609,60.1165517 L88.4424001,60.3989551 C87.4282467,61.5604528 86.0941691,61.9823498 84.4060346,61.9823498 C82.5507065,61.9823498 81.3172922,61.3588988 80.3644623,60.397247 C79.5163454,59.5130283 79.1107997,58.2632795 79.1107997,56.8034363 C79.1275769,54.2065778 80.6595098,52.1090495 84.4621515,52.086275 L84.4621515,52.086275 L88.5557909,52.086275 L88.5905024,51.0893228 C88.5905024,50.1413357 88.3556215,49.3852234 87.8019735,48.907529 C87.24659,48.4332507 86.4250851,48.2294193 85.3004335,48.2294193 C83.8037906,48.2208788 82.9469957,48.5875477 82.1422681,49.4478532 L82.1422681,49.4478532 L79.7541189,47.1180253 C81.195802,45.8255744 82.7803807,45.0723089 85.43118,45.0723089 Z M71.6362629,45.0723089 C73.9185421,45.0757251 75.6141975,45.6393931 77.0495168,47.0098466 L77.0495168,47.0098466 L77.1553868,47.1083462 L74.907819,49.2941255 L74.8048417,49.1990421 C73.8063084,48.2544712 72.6006633,48.1201018 71.5222936,48.1201018 C69.8677134,48.1257954 69.1167886,48.9986268 69.1167886,50.0274633 C69.1144745,50.409505 69.2434855,50.8023645 69.5547317,51.0881841 C69.8526718,51.3626164 70.3577237,51.6034564 71.0097208,51.6917074 L71.0097208,51.6917074 L72.9564558,51.9667091 C74.4750827,52.1682631 75.4626241,52.5907295 76.1857797,53.2568826 C77.1033196,54.1103557 77.5053941,55.3453011 77.5053941,56.8085605 C77.4949807,60.0539219 74.7475678,61.9100409 71.250387,61.9214281 L71.250387,61.9214281 L71.2098903,61.9214281 C68.7193423,61.91972 66.7639294,61.3384018 65.1243909,59.7094581 L65.1243909,59.7094581 L65.0665385,59.6382879 L67.331462,57.2959341 L67.4355964,57.3955724 C68.4370223,58.3874004 69.775728,58.7626097 71.2914623,58.7626097 C72.2338787,58.7421127 72.8800906,58.6231161 73.3782002,58.2792216 C73.8398628,57.9603791 74.0678014,57.4786992 74.0678014,56.9013665 C74.0637518,56.3536406 73.9075502,55.9186483 73.6020892,55.6339674 C73.3041491,55.3652287 72.9691834,55.209793 72.2252009,55.0987675 L72.2252009,55.0987675 L70.2240845,54.827182 C68.7899223,54.6165182 67.710974,54.1752629 66.9386438,53.433954 C66.1200316,52.6368477 65.7150645,51.5396879 65.7150645,50.1515842 L65.7150645,50.1515842 L65.7202751,49.9349239 C65.8426892,47.0682246 68.0759383,45.0945279 71.6131219,45.0723089 L71.6131219,45.0723089 Z M63.1880694,45.220343 L63.1880694,61.7255677 L59.6318791,61.7255677 L59.6318791,45.220343 L63.1880694,45.220343 Z M40.6591676,45.2209123 L43.1040122,55.0389845 L45.9879569,45.220343 L48.608673,45.220343 L51.4937748,55.0446781 L51.6603898,54.3859267 L53.9600248,45.2209123 L57.6145642,45.2209123 L53.1211642,61.7255677 L50.2210208,61.7255677 L47.2988935,52.2354478 L44.3790802,61.7255677 L41.4719945,61.7255677 L37,45.2209123 L40.6591676,45.2209123 Z M88.5916595,54.7503182 L85.0817512,54.7503182 C84.3007431,54.7503182 83.6464319,54.9330833 83.1731988,55.2912117 C82.7011228,55.6499096 82.4639218,56.1862482 82.4639218,56.8330431 C82.4627707,57.4582022 82.6282287,57.9603791 83.0708,58.4033425 C83.5168424,58.8474446 84.2081792,59.0917007 85.0643955,59.0917007 L85.0643955,59.0917007 L85.0817512,59.0917007 C86.2642553,59.0917007 87.0788179,58.8280863 87.7840392,58.1044276 C88.3614067,57.5122915 88.5945521,56.8859937 88.5945521,55.705707 L88.5945521,55.705707 L88.5916595,55.705707 L88.5916595,54.7503182 Z M12.9133375,28 L15.7496033,30.8373898 L8.77565031,37.8112225 L8.77565031,49.6880272 L0,40.9131147 L0,28 L12.9133375,28 Z" fill="#3E4651"></path>
                <rect id="Rectangle-Copy-10" x="0" y="0" width="108" height="62"></rect>
            </g>
        </g>
    </g>
</svg>