<?xml version="1.0" encoding="utf-8"?>
<!-- Generator: Adobe Illustrator 16.0.0, SVG Export Plug-In . SVG Version: 6.00 Build 0)  -->
<!DOCTYPE svg PUBLIC "-//W3C//DTD SVG 1.1//EN" "http://www.w3.org/Graphics/SVG/1.1/DTD/svg11.dtd">
<svg version="1.1" id="Layer_1" xmlns="http://www.w3.org/2000/svg" xmlns:xlink="http://www.w3.org/1999/xlink" x="0px" y="0px"
	 width="362.281px" height="267.34px" viewBox="0 0 362.281 267.34" enable-background="new 0 0 362.281 267.34"
	 xml:space="preserve">
<path fill="#E87225" d="M30.195,201.354h301.893c16.681,0,30.193,14.553,30.193,32.5c0,17.918-13.516,32.486-30.193,32.486H30.195
	C13.514,266.34,0,251.772,0,233.854C0,215.904,13.514,201.354,30.195,201.354"/>
<path fill="none" stroke="#FFFFFF" stroke-width="0.081" stroke-miterlimit="10" d="M30.195,201.354h301.893
	c16.681,0,30.193,14.553,30.193,32.5c0,17.918-13.516,32.486-30.193,32.486H30.195C13.514,266.34,0,251.772,0,233.854
	C0,215.904,13.514,201.354,30.195,201.354"/>
<path fill="#E87225" d="M181.043,60.232c-13.332,0-24.161-10.964-24.161-24.494c0-13.528,10.829-12.246,24.161-12.246
	c13.347,0,24.16-1.282,24.16,12.246C205.203,49.267,194.39,60.232,181.043,60.232 M48.157,158.204l48.307-61.248h36.264
	L48.157,158.204z M338.105,145.956c0,0-26.997-72.813-111.908-92.858c2.021-5.407,3.168-11.244,3.168-17.36
	c0-27.057-21.627-36.739-48.322-36.739c-26.679,0-48.314,9.682-48.314,36.739c0,6.177,1.168,12.051,3.228,17.496
	c-81.932,20.247-99.895,92.724-99.895,92.724c-13.339,0-24.154,10.948-24.154,24.491c0,13.515,10.814,24.464,24.154,24.464h302.044
	c13.362,0,24.176-10.949,24.176-24.464C362.281,156.906,351.468,145.956,338.105,145.956"/>
<path fill="none" stroke="#FFFFFF" stroke-width="0.081" stroke-miterlimit="10" d="M181.043,60.232
	c-13.332,0-24.161-10.964-24.161-24.494c0-13.528,10.829-12.246,24.161-12.246c13.347,0,24.16-1.282,24.16,12.246
	C205.203,49.267,194.39,60.232,181.043,60.232 M48.157,158.204l48.307-61.248h36.264L48.157,158.204z M338.105,145.956
	c0,0-26.997-72.813-111.908-92.858c2.021-5.407,3.168-11.244,3.168-17.36c0-27.057-21.627-36.739-48.322-36.739
	c-26.679,0-48.314,9.682-48.314,36.739c0,6.177,1.168,12.051,3.228,17.496c-81.932,20.247-99.895,92.724-99.895,92.724
	c-13.339,0-24.154,10.948-24.154,24.491c0,13.515,10.814,24.464,24.154,24.464h302.044c13.362,0,24.176-10.949,24.176-24.464
	C362.281,156.906,351.468,145.956,338.105,145.956"/>
</svg>
