<?xml version="1.0" encoding="utf-8"?>
<!-- Generator: Adobe Illustrator 16.0.0, SVG Export Plug-In . SVG Version: 6.00 Build 0)  -->
<!DOCTYPE svg PUBLIC "-//W3C//DTD SVG 1.1//EN" "http://www.w3.org/Graphics/SVG/1.1/DTD/svg11.dtd">
<svg version="1.1" id="Layer_1" xmlns="http://www.w3.org/2000/svg" xmlns:xlink="http://www.w3.org/1999/xlink" x="0px" y="0px"
	 width="362.281px" height="268.341px" viewBox="0 -1.001 362.281 268.341" enable-background="new 0 -1.001 362.281 268.341"
	 xml:space="preserve">
<path fill="#8D8D8D" d="M30.194,201.354h301.894c16.68,0,30.193,14.553,30.193,32.5c0,17.918-13.516,32.486-30.193,32.486H30.194
	C13.513,266.34,0,251.772,0,233.854C-0.001,215.904,13.513,201.354,30.194,201.354"/>
<path fill="none" stroke="#FFFFFF" stroke-width="0.081" stroke-miterlimit="10" d="M30.194,201.354h301.894
	c16.68,0,30.193,14.553,30.193,32.5c0,17.918-13.516,32.486-30.193,32.486H30.194C13.513,266.34,0,251.772,0,233.854
	C-0.001,215.904,13.513,201.354,30.194,201.354"/>
<path fill="#8D8D8D" d="M181.042,60.232c-13.332,0-24.161-10.964-24.161-24.494c0-13.528,10.829-12.246,24.161-12.246
	c13.346,0,24.161-1.282,24.161,12.246C205.203,49.267,194.389,60.232,181.042,60.232 M48.156,158.204l48.307-61.248h36.264
	L48.156,158.204z M338.105,145.956c0,0-26.998-72.813-111.908-92.858c2.021-5.407,3.168-11.244,3.168-17.36
	c0-27.057-21.627-36.739-48.323-36.739c-26.679,0-48.314,9.682-48.314,36.739c0,6.177,1.168,12.051,3.228,17.496
	c-81.932,20.247-99.895,92.724-99.895,92.724c-13.339,0-24.154,10.948-24.154,24.491c0,13.515,10.814,24.464,24.154,24.464h302.044
	c13.361,0,24.176-10.949,24.176-24.464C362.281,156.906,351.467,145.956,338.105,145.956"/>
<path fill="none" stroke="#FFFFFF" stroke-width="0.081" stroke-miterlimit="10" d="M181.042,60.232
	c-13.332,0-24.161-10.964-24.161-24.494c0-13.528,10.829-12.246,24.161-12.246c13.346,0,24.161-1.282,24.161,12.246
	C205.203,49.267,194.389,60.232,181.042,60.232 M48.156,158.204l48.307-61.248h36.264L48.156,158.204z M338.105,145.956
	c0,0-26.998-72.813-111.908-92.858c2.021-5.407,3.168-11.244,3.168-17.36c0-27.057-21.627-36.739-48.323-36.739
	c-26.679,0-48.314,9.682-48.314,36.739c0,6.177,1.168,12.051,3.228,17.496c-81.932,20.247-99.895,92.724-99.895,92.724
	c-13.339,0-24.154,10.948-24.154,24.491c0,13.515,10.814,24.464,24.154,24.464h302.044c13.361,0,24.176-10.949,24.176-24.464
	C362.281,156.906,351.467,145.956,338.105,145.956"/>
</svg>
