<?xml version="1.0" encoding="utf-8"?>
<!-- Generator: Adobe Illustrator 19.0.0, SVG Export Plug-In . SVG Version: 6.00 Build 0)  -->
<!DOCTYPE svg PUBLIC "-//W3C//DTD SVG 1.1//EN" "http://www.w3.org/Graphics/SVG/1.1/DTD/svg11.dtd">
<svg version="1.1" id="Ebene_1" xmlns="http://www.w3.org/2000/svg" xmlns:xlink="http://www.w3.org/1999/xlink" x="0px" y="0px"
	 width="244.5px" height="87.9px" viewBox="-175 377 244.5 87.9" style="enable-background:new -175 377 244.5 87.9;"
	 xml:space="preserve">
<style type="text/css">
	.st0{fill:#FFFFFF;stroke:#105D73;stroke-linecap:round;stroke-linejoin:round;stroke-miterlimit:10;}
	.st1{fill:none;stroke:#105D73;stroke-linecap:round;stroke-linejoin:round;stroke-miterlimit:10;}
	.st2{fill:#DC7E36;}
	.st3{fill:none;stroke:#105D73;stroke-miterlimit:10;}
	.st4{opacity:0.25;fill:#105D73;stroke:#105D73;stroke-width:3;stroke-miterlimit:10;}
	.st5{fill:none;stroke:#105D73;stroke-linejoin:round;stroke-miterlimit:10;}
	.st6{opacity:0.25;fill:#105D73;stroke:#105D73;stroke-width:8;stroke-miterlimit:10;}
</style>
<path class="st0" d="M16.6,410.7c7.6,1.8,9.8,6.5,8.5,12.2c-1.4,5.7-8.6,8.8-16.2,7c-7.6-1.8-12.7-7.9-11.3-13.6
	c0.7-3.1,4.2-4.1,8.4-4.9C9.3,410.7,13.2,409.9,16.6,410.7z"/>
<g>
	<line class="st1" x1="3" y1="415.7" x2="3" y2="417.3"/>
	<line class="st1" x1="4.3" y1="418.9" x2="4.3" y2="420.5"/>
	<line class="st1" x1="5.7" y1="416.1" x2="5.7" y2="417.7"/>
	<line class="st1" x1="6.6" y1="421.1" x2="6.6" y2="422.7"/>
	<line class="st1" x1="8.3" y1="418.2" x2="8.3" y2="419.7"/>
	<line class="st1" x1="10.7" y1="420.5" x2="10.7" y2="422.1"/>
	<line class="st1" x1="9" y1="423.2" x2="9" y2="424.8"/>
	<line class="st1" x1="11.4" y1="424.8" x2="11.4" y2="426.4"/>
</g>
<g>
	<path class="st0" d="M11.4,421c-4.9,6.1-3.8,11.2,0.7,14.8s12.2,1.7,17.1-4.3c4.9-6.1,5.2-14,0.7-17.7c-2.5-2-5.9-0.7-9.6,1.2
		C17.2,416.6,13.6,418.3,11.4,421z"/>
	<line class="st0" x1="29.5" y1="424.3" x2="29.5" y2="425.9"/>
	<line class="st0" x1="28.2" y1="427.6" x2="28.2" y2="429.2"/>
	<line class="st0" x1="26.7" y1="424.7" x2="26.7" y2="426.3"/>
	<line class="st0" x1="25.8" y1="429.7" x2="25.8" y2="431.3"/>
	<line class="st0" x1="24.1" y1="426.8" x2="24.1" y2="428.4"/>
	<line class="st0" x1="21.7" y1="429.2" x2="21.7" y2="430.7"/>
	<line class="st0" x1="23.5" y1="431.9" x2="23.5" y2="433.4"/>
	<line class="st0" x1="21" y1="433.4" x2="21" y2="435"/>
	<line class="st0" x1="17.3" y1="434.2" x2="17.3" y2="435.8"/>
	<line class="st0" x1="18.6" y1="431.1" x2="18.6" y2="432.7"/>
</g>
<g>
	<path class="st2" d="M-96.1,403h-1.1v-7.2l-2.2,0.8v-1l3.1-1.2h0.2V403z"/>
	<path class="st2" d="M-91.1,400.1l-0.7,0.7v2.2h-1.1v-9h1.1v5.4l0.6-0.7l2-2.1h1.3l-2.5,2.7l2.8,3.7h-1.3L-91.1,400.1z"/>
	<path class="st2" d="M-87.1,399.8c0-1,0.2-1.8,0.7-2.4c0.5-0.6,1.1-0.9,1.8-0.9c0.8,0,1.4,0.3,1.8,0.8l0.1-0.7h1v6.2
		c0,0.8-0.2,1.5-0.7,1.9c-0.5,0.5-1.1,0.7-2,0.7c-0.5,0-0.9-0.1-1.3-0.3c-0.4-0.2-0.8-0.5-1-0.8l0.6-0.7c0.5,0.6,1,0.9,1.7,0.9
		c0.5,0,0.9-0.1,1.2-0.4s0.4-0.7,0.4-1.3v-0.5c-0.4,0.5-1,0.8-1.8,0.8c-0.7,0-1.3-0.3-1.8-0.9C-86.9,401.6-87.1,400.8-87.1,399.8z
		 M-86,399.9c0,0.7,0.1,1.3,0.4,1.7c0.3,0.4,0.7,0.6,1.2,0.6c0.7,0,1.2-0.3,1.5-0.9v-2.9c-0.3-0.6-0.8-0.9-1.5-0.9
		c-0.5,0-0.9,0.2-1.2,0.6C-85.9,398.5-86,399.1-86,399.9z"/>
</g>
<g>
	<path class="st2" d="M30,396.7c0,0.4-0.1,0.8-0.3,1.1c-0.2,0.3-0.5,0.6-0.9,0.8c0.4,0.2,0.8,0.5,1.1,0.8c0.3,0.4,0.4,0.8,0.4,1.2
		c0,0.7-0.2,1.3-0.7,1.8c-0.5,0.4-1.2,0.7-2,0.7c-0.8,0-1.5-0.2-2-0.7c-0.5-0.4-0.7-1-0.7-1.8c0-0.5,0.1-0.9,0.4-1.2
		c0.3-0.4,0.6-0.7,1-0.8c-0.4-0.2-0.7-0.4-0.9-0.8c-0.2-0.3-0.3-0.7-0.3-1.1c0-0.7,0.2-1.3,0.7-1.7c0.5-0.4,1.1-0.6,1.8-0.6
		c0.8,0,1.4,0.2,1.8,0.6C29.8,395.4,30,396,30,396.7z M29.1,400.7c0-0.5-0.2-0.9-0.5-1.2S28,399,27.5,399s-0.9,0.1-1.2,0.4
		c-0.3,0.3-0.4,0.7-0.4,1.2c0,0.5,0.1,0.9,0.4,1.1c0.3,0.3,0.7,0.4,1.2,0.4c0.5,0,0.9-0.1,1.2-0.4S29.1,401.1,29.1,400.7z
		 M27.5,395.2c-0.4,0-0.8,0.1-1,0.4c-0.3,0.3-0.4,0.6-0.4,1.1c0,0.4,0.1,0.8,0.4,1.1c0.3,0.3,0.6,0.4,1,0.4c0.4,0,0.8-0.1,1-0.4
		c0.3-0.3,0.4-0.6,0.4-1.1s-0.1-0.8-0.4-1.1S27.9,395.2,27.5,395.2z"/>
	<path class="st2" d="M36.9,399.4c0,1.3-0.2,2.2-0.7,2.8c-0.4,0.6-1.1,0.9-2,0.9c-0.9,0-1.6-0.3-2-0.9c-0.4-0.6-0.7-1.5-0.7-2.7V398
		c0-1.3,0.2-2.2,0.7-2.8s1.1-0.9,2-0.9c0.9,0,1.6,0.3,2,0.9c0.4,0.6,0.7,1.5,0.7,2.7V399.4z M35.8,397.9c0-0.9-0.1-1.6-0.4-2
		c-0.3-0.4-0.7-0.6-1.2-0.6c-0.6,0-1,0.2-1.2,0.6c-0.3,0.4-0.4,1.1-0.4,1.9v1.7c0,0.9,0.1,1.6,0.4,2c0.3,0.4,0.7,0.7,1.2,0.7
		c0.5,0,0.9-0.2,1.2-0.6s0.4-1.1,0.4-2V397.9z"/>
	<path class="st2" d="M40.2,400.1l-0.7,0.7v2.2h-1.1v-9h1.1v5.4l0.6-0.7l2-2.1h1.3l-2.5,2.7l2.8,3.7h-1.3L40.2,400.1z"/>
	<path class="st2" d="M44.1,399.8c0-1,0.2-1.8,0.7-2.4c0.5-0.6,1.1-0.9,1.8-0.9c0.8,0,1.4,0.3,1.8,0.8l0.1-0.7h1v6.2
		c0,0.8-0.2,1.5-0.7,1.9c-0.5,0.5-1.1,0.7-2,0.7c-0.5,0-0.9-0.1-1.3-0.3c-0.4-0.2-0.8-0.5-1-0.8l0.6-0.7c0.5,0.6,1,0.9,1.7,0.9
		c0.5,0,0.9-0.1,1.2-0.4s0.4-0.7,0.4-1.3v-0.5c-0.4,0.5-1,0.8-1.8,0.8c-0.7,0-1.3-0.3-1.8-0.9C44.4,401.6,44.1,400.8,44.1,399.8z
		 M45.2,399.9c0,0.7,0.1,1.3,0.4,1.7c0.3,0.4,0.7,0.6,1.2,0.6c0.7,0,1.2-0.3,1.5-0.9v-2.9c-0.3-0.6-0.8-0.9-1.5-0.9
		c-0.5,0-0.9,0.2-1.2,0.6C45.4,398.5,45.2,399.1,45.2,399.9z"/>
</g>
<line class="st3" x1="-57.9" y1="423.4" x2="-42.6" y2="423.4"/>
<line class="st3" x1="-57.9" y1="429" x2="-42.6" y2="429"/>
<path class="st1" d="M-98.6,422.2"/>
<path class="st4" d="M-92.7,412.7L-92.7,412.7c-0.7-4.4-3.1-9-6.6-12.7c-3.6-3.8-8-6.4-12.4-7.4c-4.9-1.1-9.2-0.1-12.2,2.7
	c-0.1,0.1-0.2,0.2-0.2,0.3c-1.7,1.3-9.9,7.8-10,18.4c0,0.2,0,0.6,0,1.3c0.1,1.6,0.2,5.5,0,7.4c-0.3,2.8-2.5,6.2-3.4,7.4l-4.6,4.9
	c-0.6-0.2-1.3-0.4-2.1-0.4c-2.6-0.2-5,0.7-6.6,2.6c-2.5,3.1-2.2,7.6,0.7,10.3c1,0.9,2.3,1.6,3.6,1.9c0.4,1.3,1.1,2.5,2.1,3.4
	c1.4,1.3,3.2,2,5.2,2l0.3,0c2-0.1,3.9-0.9,5.3-2.4c1.2-1.3,1.9-3.1,1.8-5c0-1.3-0.3-2.5-0.7-3.5l4.1-4.4c0.1-0.1,0.2-0.2,0.3-0.3
	c1.1-1,4.4-3.5,7.2-4.1c1.9-0.4,5.7-0.5,7.5-0.6c0.6,0,1,0,1.2-0.1c11.4-0.9,17.4-10.9,17.8-11.6C-92.7,420.1-92,416.6-92.7,412.7z"
	/>
<path class="st5" d="M-135.5,447.4c0-2.3-0.9-3.1-2-3.7l6.9-7.4l0,0c0.2-2.3-1.7-4.3-4.1-4l-0.2,0l-6.8,7.4
	c-0.5-0.8-1.3-1.5-2.8-1.6c-1.3-0.1-2.7,0.3-3.5,1.3c-1.3,1.6-1.2,4,0.4,5.4c1.4,1.3,3.5,1.4,5,0.3c-1,1.6-0.8,3.7,0.6,5
	c1.6,1.5,4.1,1.4,5.6-0.2C-135.8,449.2-135.5,448.3-135.5,447.4z"/>
<path class="st3" d="M-121.9,398.2c4.5-4.2,13.6-2.6,19.9,4.2c6.3,6.7,7.8,15.8,3.3,20"/>
<path class="st1" d="M-134.8,432.3c0,0,3.7-4.8,4.3-9.3c0.3-2.8,0-8.3,0-9c0.1-9.8,8.7-15.7,8.7-15.7"/>
<path class="st1" d="M-98.2,422c0,0-4.7,8.1-14.5,8.9c-0.7,0.1-6.2,0.1-9,0.7c-4.5,0.9-9,5-9,5"/>
<path class="st0" d="M11.3,424.1c4.9,6.1,3.8,11.2-0.7,14.8s-12.2,1.7-17.1-4.3c-4.9-6.1-5.2-14-0.7-17.7c2.5-2,5.9-0.7,9.6,1.2
	C5.5,419.7,9.1,421.4,11.3,424.1z"/>
<path class="st6" d="M30,413.8c-1.9-1.5-4.3-1.1-7,0c-1.4-1.4-3.5-2.4-6.3-3.1c-3.4-0.8-7.3,0-10.7,0.7c-4.1,0.8-7.6,1.8-8.3,4.8
	c-1.8-0.4-3.4-0.3-4.8,0.8c-4.5,3.7-4.2,11.6,0.7,17.7c4.9,6.1,12.6,8,17.1,4.3c1-0.8,1.8-1.6,2.4-2.5c4.6,2.8,11.6,0.8,16.3-4.9
	C34.2,425.3,34.5,417.4,30,413.8z"/>
<line class="st1" x1="-6.8" y1="427.4" x2="-6.8" y2="429"/>
<line class="st1" x1="-5.5" y1="430.7" x2="-5.5" y2="432.3"/>
<line class="st1" x1="-4" y1="427.9" x2="-4" y2="429.4"/>
<line class="st1" x1="-3.1" y1="432.8" x2="-3.1" y2="434.4"/>
<line class="st1" x1="-1.4" y1="429.9" x2="-1.4" y2="431.5"/>
<line class="st1" x1="1" y1="432.3" x2="1" y2="433.9"/>
<line class="st1" x1="-0.8" y1="435" x2="-0.8" y2="436.6"/>
<line class="st1" x1="1.6" y1="436.6" x2="1.6" y2="438.2"/>
<line class="st1" x1="5.4" y1="437.4" x2="5.4" y2="438.9"/>
<line class="st1" x1="4.1" y1="434.2" x2="4.1" y2="435.8"/>
<path class="st1" d="M-112.4,400.7c0,0-7.4-2.1-11.8,6.7"/>
</svg>
