<?xml version="1.0" encoding="utf-8"?>
<!-- Generator: Adobe Illustrator 19.0.0, SVG Export Plug-In . SVG Version: 6.00 Build 0)  -->
<!DOCTYPE svg PUBLIC "-//W3C//DTD SVG 1.1//EN" "http://www.w3.org/Graphics/SVG/1.1/DTD/svg11.dtd">
<svg version="1.1" id="Ebene_1" xmlns="http://www.w3.org/2000/svg" xmlns:xlink="http://www.w3.org/1999/xlink" x="0px" y="0px"
	 width="244.5px" height="87.9px" viewBox="-175 377 244.5 87.9" style="enable-background:new -175 377 244.5 87.9;"
	 xml:space="preserve">
<style type="text/css">
	.st0{opacity:0.25;fill:#105D73;}
	.st1{fill:none;stroke:#105D73;stroke-miterlimit:10;}
	.st2{fill:#DC7E36;}
	.st3{fill:none;stroke:#105D73;stroke-linecap:round;stroke-miterlimit:10;}
	.st4{opacity:0.25;}
	.st5{fill:#105D73;stroke:#105D73;stroke-width:8;stroke-miterlimit:10;}
</style>
<path class="st0" d="M-80.7,454.8h-70.6c-2.8,0-5-2.2-5-5v-47.2c0-2.8,2.2-5,5-5h70.6c2.8,0,5,2.2,5,5v47.2
	C-75.7,452.5-77.9,454.8-80.7,454.8z"/>
<path class="st1" d="M-100.7,449.9h-46.9c-2.2,0-3.9-1.8-3.9-3.9v-39.6c0-2.2,1.8-3.9,3.9-3.9h46.9c2.2,0,3.9,1.8,3.9,3.9V446
	C-96.7,448.1-98.5,449.9-100.7,449.9z"/>
<g>
	<line class="st1" x1="-116" y1="402.4" x2="-129.5" y2="388.9"/>
	<line class="st1" x1="-116" y1="402.4" x2="-102.4" y2="388.9"/>
</g>
<circle class="st1" cx="-86.2" cy="412.2" r="3.8"/>
<circle class="st1" cx="-86.2" cy="424.8" r="3.8"/>
<circle class="st1" cx="-86.2" cy="437.4" r="3.8"/>
<line class="st1" x1="-145.8" y1="419" x2="-135.5" y2="408.6"/>
<line class="st1" x1="-145.7" y1="425.9" x2="-128.6" y2="408.6"/>
<g>
	<path class="st2" d="M-81.2,399.1l0.4-4.3h4.4v1h-3.5l-0.3,2.3c0.4-0.2,0.9-0.4,1.4-0.4c0.8,0,1.4,0.3,1.9,0.8
		c0.5,0.5,0.7,1.2,0.7,2.1c0,0.9-0.2,1.6-0.7,2.1c-0.5,0.5-1.1,0.8-2,0.8c-0.8,0-1.4-0.2-1.8-0.6c-0.5-0.4-0.7-1-0.8-1.7h1
		c0.1,0.5,0.2,0.9,0.5,1.1c0.3,0.2,0.7,0.4,1.1,0.4c0.5,0,0.9-0.2,1.2-0.5s0.4-0.8,0.4-1.4c0-0.6-0.2-1-0.5-1.4
		c-0.3-0.3-0.7-0.5-1.2-0.5c-0.5,0-0.8,0.1-1.1,0.3l-0.3,0.2L-81.2,399.1z"/>
	<path class="st2" d="M-69.6,399.8c0,1.3-0.2,2.2-0.7,2.8c-0.4,0.6-1.1,0.9-2,0.9c-0.9,0-1.6-0.3-2-0.9c-0.4-0.6-0.7-1.5-0.7-2.7
		v-1.4c0-1.3,0.2-2.2,0.7-2.8s1.1-0.9,2-0.9c0.9,0,1.6,0.3,2,0.9c0.4,0.6,0.7,1.5,0.7,2.7V399.8z M-70.6,398.3c0-0.9-0.1-1.6-0.4-2
		c-0.3-0.4-0.7-0.6-1.2-0.6c-0.6,0-1,0.2-1.2,0.6c-0.3,0.4-0.4,1.1-0.4,1.9v1.7c0,0.9,0.1,1.6,0.4,2c0.3,0.4,0.7,0.7,1.2,0.7
		c0.5,0,0.9-0.2,1.2-0.6s0.4-1.1,0.4-2V398.3z"/>
	<path class="st2" d="M-62.8,399.8c0,1.3-0.2,2.2-0.7,2.8c-0.4,0.6-1.1,0.9-2,0.9c-0.9,0-1.6-0.3-2-0.9c-0.4-0.6-0.7-1.5-0.7-2.7
		v-1.4c0-1.3,0.2-2.2,0.7-2.8s1.1-0.9,2-0.9c0.9,0,1.6,0.3,2,0.9c0.4,0.6,0.7,1.5,0.7,2.7V399.8z M-63.9,398.3c0-0.9-0.1-1.6-0.4-2
		c-0.3-0.4-0.7-0.6-1.2-0.6c-0.6,0-1,0.2-1.2,0.6c-0.3,0.4-0.4,1.1-0.4,1.9v1.7c0,0.9,0.1,1.6,0.4,2c0.3,0.4,0.7,0.7,1.2,0.7
		c0.5,0,0.9-0.2,1.2-0.6s0.4-1.1,0.4-2V398.3z"/>
	<path class="st2" d="M-60.2,397.8c0.5-0.6,1.1-0.9,1.9-0.9c1.3,0,2,0.8,2,2.3v4.2h-1.1v-4.2c0-0.5-0.1-0.8-0.3-1
		c-0.2-0.2-0.5-0.3-1-0.3c-0.4,0-0.7,0.1-0.9,0.3c-0.3,0.2-0.5,0.4-0.6,0.7v4.5h-1.1v-9h1.1V397.8z"/>
</g>
<g>
	<path class="st2" d="M31.3,403.4h-1.1v-7.2l-2.2,0.8v-1l3.1-1.2h0.2V403.4z"/>
	<path class="st2" d="M36.8,399.4l1.4-2.3h1.3l-2.1,3.1l2.1,3.2h-1.3l-1.5-2.4l-1.5,2.4H34l2.1-3.2l-2.1-3.1h1.3L36.8,399.4z"/>
</g>
<line class="st1" x1="-51.7" y1="425.4" x2="-36.5" y2="425.4"/>
<line class="st1" x1="-51.7" y1="431" x2="-36.5" y2="431"/>
<path class="st1" d="M33.1,421.1h-42l0,0c0-7.2,5.9-13.1,13.1-13.1h15.9C27.3,408,33.1,413.8,33.1,421.1L33.1,421.1z"/>
<path class="st1" d="M29.6,432.8h-35c-2.3,0-4.2-1.9-4.2-4.2l0,0c0-2.3,1.9-4.2,4.2-4.2h35c2.3,0,4.2,1.9,4.2,4.2l0,0
	C33.8,430.9,31.9,432.8,29.6,432.8z"/>
<g>
	<path class="st1" d="M31,435.8H6.6v1.5c0,1-0.8,1.8-1.8,1.8S3,438.2,3,437.2v-1.5H0.8v2.9c0,1-0.8,1.8-1.8,1.8s-1.8-0.8-1.8-1.8
		v-2.9h-3.9c-1.2,0-2.1,1-2.1,2.1v6h42v-6C33.1,436.7,32.2,435.8,31,435.8z"/>
	<path class="st1" d="M-2.8,435.8v2.9c0,1,0.8,1.8,1.8,1.8s1.8-0.8,1.8-1.8v-2.9"/>
	<path class="st1" d="M3,435.8v1.5c0,1,0.8,1.8,1.8,1.8s1.8-0.8,1.8-1.8v-1.5"/>
</g>
<line class="st3" x1="0.8" y1="411.5" x2="0.8" y2="413.2"/>
<line class="st3" x1="4.5" y1="413.6" x2="4.5" y2="415.4"/>
<line class="st3" x1="-3.8" y1="416.3" x2="-3.8" y2="418.1"/>
<line class="st3" x1="8.5" y1="411.5" x2="8.5" y2="413.2"/>
<line class="st3" x1="10.8" y1="416.3" x2="10.8" y2="418.1"/>
<line class="st3" x1="14.5" y1="412.4" x2="14.5" y2="414.1"/>
<line class="st3" x1="18.4" y1="414.5" x2="18.4" y2="416.3"/>
<line class="st3" x1="23.6" y1="413.2" x2="23.6" y2="415"/>
<line class="st3" x1="27.3" y1="415.7" x2="27.3" y2="417.5"/>
<g class="st4">
	<path class="st5" d="M20.1,408H4.2c-7.2,0-13.1,5.9-13.1,13.1h42C33.1,413.8,27.3,408,20.1,408z"/>
	<path class="st5" d="M-5.4,432.8h35c2.3,0,4.2-1.9,4.2-4.2c0-2.3-1.9-4.2-4.2-4.2h-35c-2.3,0-4.2,1.9-4.2,4.2
		C-9.5,430.9-7.7,432.8-5.4,432.8z"/>
	<path class="st5" d="M31,435.8H6.6H3H0.8h-3.6h-3.9c-1.2,0-2.1,1-2.1,2.1v6h42v-6C33.1,436.7,32.2,435.8,31,435.8z"/>
</g>
</svg>
