<?xml version="1.0" encoding="utf-8"?>
<!-- Generator: Adobe Illustrator 19.0.0, SVG Export Plug-In . SVG Version: 6.00 Build 0)  -->
<!DOCTYPE svg PUBLIC "-//W3C//DTD SVG 1.1//EN" "http://www.w3.org/Graphics/SVG/1.1/DTD/svg11.dtd">
<svg version="1.1" id="Ebene_1" xmlns="http://www.w3.org/2000/svg" xmlns:xlink="http://www.w3.org/1999/xlink" x="0px" y="0px"
	 width="244.5px" height="87.9px" viewBox="-175 377 244.5 87.9" style="enable-background:new -175 377 244.5 87.9;"
	 xml:space="preserve">
<style type="text/css">
	.st0{opacity:0.25;fill:#105D73;stroke:#105D73;stroke-width:9;stroke-linecap:round;stroke-linejoin:round;stroke-miterlimit:10;}
	.st1{fill:none;stroke:#105D73;stroke-linecap:round;stroke-linejoin:round;stroke-miterlimit:10;}
	.st2{fill:#105D73;}
	.st3{fill:none;stroke:#105D73;stroke-width:3;stroke-linecap:round;stroke-linejoin:round;stroke-miterlimit:10;}
</style>
<path class="st0" d="M21.7,447.9h-148c-2.7,0-4.9-2.2-4.9-4.9v-40.8c0-2.7,2.2-4.9,4.9-4.9h148c2.7,0,4.9,2.2,4.9,4.9V443
	C26.6,445.7,24.4,447.9,21.7,447.9z"/>
<path class="st1" d="M21.7,447.9h-148c-2.7,0-4.9-2.2-4.9-4.9v-40.8c0-2.7,2.2-4.9,4.9-4.9h148c2.7,0,4.9,2.2,4.9,4.9V443
	C26.6,445.7,24.4,447.9,21.7,447.9z"/>
<g>
	<rect x="-121" y="422.6" class="st1" width="15.1" height="14.6"/>
	<rect x="-100.9" y="422.6" class="st1" width="15.1" height="14.6"/>
	<rect x="-80.7" y="422.6" class="st1" width="15.1" height="14.6"/>
	<rect x="-60.6" y="422.6" class="st1" width="15.1" height="14.6"/>
	<rect x="-40.5" y="422.6" class="st1" width="15.1" height="14.6"/>
	<rect x="-20.4" y="422.6" class="st1" width="15.1" height="14.6"/>
	<rect x="-0.3" y="422.6" class="st1" width="15.1" height="14.6"/>
</g>
<g>
	<path class="st2" d="M-114.1,417.9h-4.8v-0.8l2.4-2.6c0.3-0.4,0.6-0.7,0.7-1c0.1-0.3,0.2-0.5,0.2-0.8c0-0.3-0.1-0.6-0.3-0.8
		c-0.2-0.2-0.4-0.3-0.8-0.3c-0.4,0-0.7,0.1-0.9,0.4c-0.2,0.2-0.3,0.6-0.3,1h-1.2c0-0.4,0.1-0.8,0.3-1.2c0.2-0.3,0.5-0.6,0.8-0.8
		s0.8-0.3,1.3-0.3c0.7,0,1.2,0.2,1.6,0.5s0.6,0.8,0.6,1.4c0,0.4-0.1,0.7-0.3,1.1s-0.5,0.8-1,1.3l-1.7,1.9h3.3V417.9z"/>
	<path class="st2" d="M-111.8,413.8h0.7c0.4,0,0.7-0.1,0.9-0.3s0.3-0.5,0.3-0.8c0-0.3-0.1-0.6-0.3-0.8c-0.2-0.2-0.5-0.3-0.8-0.3
		c-0.3,0-0.6,0.1-0.8,0.3c-0.2,0.2-0.3,0.4-0.3,0.7h-1.2c0-0.4,0.1-0.7,0.3-1s0.5-0.5,0.8-0.7c0.3-0.2,0.7-0.3,1.2-0.3
		c0.7,0,1.3,0.2,1.7,0.5s0.6,0.9,0.6,1.5c0,0.3-0.1,0.6-0.3,0.9s-0.5,0.5-0.8,0.6c0.4,0.1,0.7,0.3,0.9,0.6c0.2,0.3,0.3,0.6,0.3,1
		c0,0.6-0.2,1.2-0.7,1.5c-0.4,0.4-1,0.6-1.7,0.6c-0.7,0-1.3-0.2-1.7-0.5c-0.4-0.4-0.7-0.9-0.7-1.5h1.2c0,0.3,0.1,0.6,0.3,0.8
		c0.2,0.2,0.5,0.3,0.9,0.3c0.4,0,0.7-0.1,0.9-0.3c0.2-0.2,0.3-0.5,0.3-0.9c0-0.4-0.1-0.7-0.3-0.9c-0.2-0.2-0.6-0.3-1-0.3h-0.7V413.8
		z"/>
</g>
<g>
	<path class="st2" d="M-94.6,417.9h-4.8v-0.8l2.4-2.6c0.3-0.4,0.6-0.7,0.7-1c0.1-0.3,0.2-0.5,0.2-0.8c0-0.3-0.1-0.6-0.3-0.8
		c-0.2-0.2-0.4-0.3-0.8-0.3c-0.4,0-0.7,0.1-0.9,0.4c-0.2,0.2-0.3,0.6-0.3,1h-1.2c0-0.4,0.1-0.8,0.3-1.2c0.2-0.3,0.5-0.6,0.8-0.8
		s0.8-0.3,1.3-0.3c0.7,0,1.2,0.2,1.6,0.5s0.6,0.8,0.6,1.4c0,0.4-0.1,0.7-0.3,1.1s-0.5,0.8-1,1.3l-1.7,1.9h3.3V417.9z"/>
	<path class="st2" d="M-89.7,415.4h0.9v1h-0.9v1.6h-1.2v-1.6H-94l0-0.7l3.1-4.8h1.2V415.4z M-92.7,415.4h1.9v-3l-0.1,0.2
		L-92.7,415.4z"/>
</g>
<g>
	<path class="st2" d="M-74.1,417.9h-4.8v-0.8l2.4-2.6c0.3-0.4,0.6-0.7,0.7-1c0.1-0.3,0.2-0.5,0.2-0.8c0-0.3-0.1-0.6-0.3-0.8
		c-0.2-0.2-0.4-0.3-0.8-0.3c-0.4,0-0.7,0.1-0.9,0.4c-0.2,0.2-0.3,0.6-0.3,1H-79c0-0.4,0.1-0.8,0.3-1.2c0.2-0.3,0.5-0.6,0.8-0.8
		s0.8-0.3,1.3-0.3c0.7,0,1.2,0.2,1.6,0.5s0.6,0.8,0.6,1.4c0,0.4-0.1,0.7-0.3,1.1s-0.5,0.8-1,1.3l-1.7,1.9h3.3V417.9z"/>
	<path class="st2" d="M-72.8,414.4l0.4-3.6h3.8v1h-2.8l-0.2,1.7c0.3-0.2,0.7-0.3,1.1-0.3c0.7,0,1.2,0.2,1.6,0.7
		c0.4,0.4,0.6,1,0.6,1.8c0,0.7-0.2,1.3-0.6,1.7c-0.4,0.4-1,0.6-1.7,0.6c-0.7,0-1.2-0.2-1.6-0.6c-0.4-0.4-0.7-0.9-0.7-1.5h1.2
		c0,0.3,0.2,0.6,0.4,0.8c0.2,0.2,0.5,0.3,0.8,0.3c0.4,0,0.7-0.1,0.9-0.4s0.3-0.6,0.3-1.1c0-0.4-0.1-0.8-0.3-1
		c-0.2-0.3-0.5-0.4-0.9-0.4c-0.2,0-0.4,0-0.5,0.1c-0.2,0.1-0.3,0.2-0.5,0.3L-72.8,414.4z"/>
</g>
<g>
	<path class="st2" d="M-54.4,417.9h-4.8v-0.8l2.4-2.6c0.3-0.4,0.6-0.7,0.7-1c0.1-0.3,0.2-0.5,0.2-0.8c0-0.3-0.1-0.6-0.3-0.8
		c-0.2-0.2-0.4-0.3-0.8-0.3c-0.4,0-0.7,0.1-0.9,0.4c-0.2,0.2-0.3,0.6-0.3,1h-1.2c0-0.4,0.1-0.8,0.3-1.2c0.2-0.3,0.5-0.6,0.8-0.8
		s0.8-0.3,1.3-0.3c0.7,0,1.2,0.2,1.6,0.5s0.6,0.8,0.6,1.4c0,0.4-0.1,0.7-0.3,1.1s-0.5,0.8-1,1.3l-1.7,1.9h3.3V417.9z"/>
	<path class="st2" d="M-49.8,410.7v1h-0.1c-0.7,0-1.2,0.2-1.6,0.5c-0.4,0.4-0.6,0.9-0.7,1.5c0.4-0.4,0.9-0.6,1.5-0.6
		c0.6,0,1.1,0.2,1.5,0.7s0.5,1,0.5,1.7c0,0.7-0.2,1.3-0.6,1.8c-0.4,0.5-1,0.7-1.7,0.7c-0.7,0-1.3-0.3-1.7-0.8
		c-0.4-0.5-0.7-1.2-0.7-2.1v-0.4c0-1.3,0.3-2.2,0.9-2.9s1.5-1.1,2.6-1.1H-49.8z M-51,414.2c-0.3,0-0.5,0.1-0.7,0.2
		c-0.2,0.1-0.4,0.3-0.5,0.6v0.4c0,0.5,0.1,1,0.3,1.3s0.5,0.5,0.9,0.5s0.6-0.1,0.8-0.4c0.2-0.3,0.3-0.6,0.3-1c0-0.4-0.1-0.8-0.3-1.1
		C-50.4,414.3-50.7,414.2-51,414.2z"/>
</g>
<g>
	<path class="st2" d="M-33.4,417.9h-4.8v-0.8l2.4-2.6c0.3-0.4,0.6-0.7,0.7-1s0.2-0.5,0.2-0.8c0-0.3-0.1-0.6-0.3-0.8
		c-0.2-0.2-0.4-0.3-0.8-0.3c-0.4,0-0.7,0.1-0.9,0.4c-0.2,0.2-0.3,0.6-0.3,1h-1.2c0-0.4,0.1-0.8,0.3-1.2s0.5-0.6,0.8-0.8
		s0.8-0.3,1.3-0.3c0.7,0,1.2,0.2,1.6,0.5c0.4,0.3,0.6,0.8,0.6,1.4c0,0.4-0.1,0.7-0.3,1.1s-0.5,0.8-1,1.3l-1.7,1.9h3.3V417.9z"/>
	<path class="st2" d="M-27.7,411.4l-2.9,6.5h-1.3l2.9-6.2h-3.7v-1h5V411.4z"/>
</g>
<g>
	<path class="st2" d="M-14.1,417.9H-19v-0.8l2.4-2.6c0.3-0.4,0.6-0.7,0.7-1s0.2-0.5,0.2-0.8c0-0.3-0.1-0.6-0.3-0.8
		c-0.2-0.2-0.4-0.3-0.8-0.3c-0.4,0-0.7,0.1-0.9,0.4c-0.2,0.2-0.3,0.6-0.3,1h-1.2c0-0.4,0.1-0.8,0.3-1.2s0.5-0.6,0.8-0.8
		s0.8-0.3,1.3-0.3c0.7,0,1.2,0.2,1.6,0.5c0.4,0.3,0.6,0.8,0.6,1.4c0,0.4-0.1,0.7-0.3,1.1s-0.5,0.8-1,1.3l-1.7,1.9h3.3V417.9z"/>
	<path class="st2" d="M-8.7,412.7c0,0.4-0.1,0.7-0.3,0.9c-0.2,0.3-0.4,0.5-0.7,0.6c0.4,0.2,0.7,0.4,0.9,0.7s0.3,0.6,0.3,1
		c0,0.6-0.2,1.1-0.6,1.5c-0.4,0.4-1,0.6-1.7,0.6c-0.7,0-1.3-0.2-1.7-0.6c-0.4-0.4-0.6-0.9-0.6-1.5c0-0.4,0.1-0.7,0.3-1
		c0.2-0.3,0.5-0.5,0.9-0.7c-0.3-0.2-0.6-0.4-0.7-0.6c-0.2-0.3-0.3-0.6-0.3-0.9c0-0.6,0.2-1.1,0.6-1.4c0.4-0.4,0.9-0.5,1.6-0.5
		c0.7,0,1.2,0.2,1.6,0.5C-8.9,411.6-8.7,412-8.7,412.7z M-9.8,415.9c0-0.4-0.1-0.6-0.3-0.9s-0.5-0.3-0.8-0.3s-0.6,0.1-0.8,0.3
		c-0.2,0.2-0.3,0.5-0.3,0.9c0,0.4,0.1,0.6,0.3,0.8c0.2,0.2,0.5,0.3,0.8,0.3c0.4,0,0.6-0.1,0.8-0.3S-9.8,416.3-9.8,415.9z
		 M-9.9,412.7c0-0.3-0.1-0.6-0.3-0.8s-0.4-0.3-0.7-0.3c-0.3,0-0.5,0.1-0.7,0.3s-0.3,0.5-0.3,0.8c0,0.3,0.1,0.6,0.3,0.8
		c0.2,0.2,0.4,0.3,0.7,0.3c0.3,0,0.5-0.1,0.7-0.3C-10,413.3-9.9,413-9.9,412.7z"/>
</g>
<g>
	<path class="st2" d="M6.6,417.9H1.8v-0.8l2.4-2.6c0.3-0.4,0.6-0.7,0.7-1s0.2-0.5,0.2-0.8c0-0.3-0.1-0.6-0.3-0.8
		c-0.2-0.2-0.4-0.3-0.8-0.3c-0.4,0-0.7,0.1-0.9,0.4c-0.2,0.2-0.3,0.6-0.3,1H1.6c0-0.4,0.1-0.8,0.3-1.2s0.5-0.6,0.8-0.8
		s0.8-0.3,1.3-0.3c0.7,0,1.2,0.2,1.6,0.5c0.4,0.3,0.6,0.8,0.6,1.4c0,0.4-0.1,0.7-0.3,1.1s-0.5,0.8-1,1.3L3.3,417h3.3V417.9z"/>
	<path class="st2" d="M10.9,414.9c-0.4,0.4-0.9,0.6-1.4,0.6c-0.6,0-1.1-0.2-1.5-0.7c-0.4-0.4-0.6-1-0.6-1.7c0-0.5,0.1-0.9,0.3-1.3
		c0.2-0.4,0.5-0.7,0.8-0.9c0.4-0.2,0.8-0.3,1.2-0.3c0.7,0,1.3,0.3,1.7,0.8s0.6,1.3,0.6,2.2v0.3c0,1.3-0.3,2.3-0.9,3
		c-0.6,0.7-1.5,1-2.6,1H8.4v-1h0.2c0.7,0,1.2-0.2,1.6-0.5C10.6,416.1,10.8,415.6,10.9,414.9z M9.7,414.6c0.2,0,0.5-0.1,0.7-0.2
		c0.2-0.1,0.4-0.3,0.5-0.6v-0.5c0-0.5-0.1-1-0.3-1.3c-0.2-0.3-0.5-0.5-0.8-0.5s-0.6,0.1-0.8,0.4c-0.2,0.3-0.3,0.6-0.3,1.1
		c0,0.4,0.1,0.8,0.3,1.1C9.1,414.5,9.4,414.6,9.7,414.6z"/>
</g>
<g>
	<line class="st1" x1="-122.7" y1="420.9" x2="-104.3" y2="439.2"/>
	<line class="st1" x1="-104.3" y1="420.9" x2="-122.7" y2="439.2"/>
</g>
<g>
	<line class="st1" x1="-82.4" y1="420.9" x2="-64" y2="439.2"/>
	<line class="st1" x1="-64" y1="420.9" x2="-82.4" y2="439.2"/>
</g>
<g>
	<line class="st1" x1="-22" y1="420.9" x2="-3.7" y2="439.2"/>
	<line class="st1" x1="-3.7" y1="420.9" x2="-22" y2="439.2"/>
</g>
<g>
	<line class="st3" x1="-97.3" y1="401.5" x2="-97.3" y2="392.9"/>
	<line class="st3" x1="-7.2" y1="401.5" x2="-7.2" y2="392.9"/>
</g>
</svg>
