<?xml version="1.0" encoding="utf-8"?>
<!-- Generator: Adobe Illustrator 19.0.0, SVG Export Plug-In . SVG Version: 6.00 Build 0)  -->
<!DOCTYPE svg PUBLIC "-//W3C//DTD SVG 1.1//EN" "http://www.w3.org/Graphics/SVG/1.1/DTD/svg11.dtd">
<svg version="1.1" id="Ebene_1" xmlns="http://www.w3.org/2000/svg" xmlns:xlink="http://www.w3.org/1999/xlink" x="0px" y="0px"
	 width="688.7px" height="161.8px" viewBox="46 340.1 688.7 161.8" style="enable-background:new 46 340.1 688.7 161.8;"
	 xml:space="preserve">
<style type="text/css">
	.st0{fill:#46CC00;}
	.st1{fill:#11586C;}
	.st2{fill:#858585;}
	.st3{enable-background:new    ;}
	.st4{fill:#FFFFFF;}
</style>
<g>
	<rect x="193.6" y="364.5" class="st0" width="530.6" height="47.1"/>
</g>
<g>
	<rect x="193.6" y="431.1" class="st1" width="253" height="47.1"/>
</g>
<g>
	<rect x="192.1" y="343.5" class="st2" width="3" height="154.9"/>
</g>
<g class="st3">
	<path d="M62.2,387.7c0-1.5-0.4-3.2-2.4-3.2c-1.4,0-2.5,0.7-3.2,1.2l-0.4-0.7c0.7-0.5,2.1-1.3,3.7-1.3c2.4,0,3.2,1.7,3.2,3.9v6.4
		h-0.8l-0.1-1.3l0,0c-1,0.8-2.2,1.6-3.6,1.6c-1.6,0-2.9-0.9-2.9-2.8C55.7,389.2,57.7,388.2,62.2,387.7z M58.7,393.4
		c1.2,0,2.2-0.6,3.4-1.6v-3.4c-4.1,0.5-5.5,1.4-5.5,3C56.5,392.9,57.5,393.4,58.7,393.4z"/>
	<path d="M64.9,383.9h1l2.3,6.3c0.3,1,0.7,2,1,2.9h0.1c0.3-0.9,0.7-1.9,1-2.9l2.3-6.3h0.9L69.9,394h-1.1L64.9,383.9z"/>
	<path d="M79.3,383.6c2.4,0,3.9,1.7,3.9,4.7c0,0.3,0,0.5,0,0.8h-7.3c0,2.5,1.5,4.4,3.8,4.4c1.1,0,2-0.4,2.7-0.9l0.4,0.7
		c-0.8,0.5-1.7,1-3.2,1c-2.6,0-4.7-2-4.7-5.3C74.9,385.7,77.1,383.6,79.3,383.6z M82.2,388.3c0-2.6-1.2-3.9-3-3.9
		c-1.7,0-3.3,1.5-3.5,3.9H82.2z"/>
	<path d="M85.9,383.9h0.8l0.1,1.9h0.1c0.7-1.2,1.7-2.1,2.9-2.1c0.4,0,0.7,0,1,0.2l-0.2,0.8c-0.3-0.1-0.5-0.2-0.9-0.2
		c-0.9,0-2,0.7-2.8,2.6v6.9h-1V383.9z"/>
	<path d="M98.1,387.7c0-1.5-0.4-3.2-2.4-3.2c-1.4,0-2.5,0.7-3.2,1.2l-0.4-0.7c0.7-0.5,2.1-1.3,3.7-1.3c2.4,0,3.2,1.7,3.2,3.9v6.4
		h-0.8l-0.1-1.3l0,0c-1,0.8-2.2,1.6-3.6,1.6c-1.6,0-2.9-0.9-2.9-2.8C91.6,389.2,93.6,388.2,98.1,387.7z M94.6,393.4
		c1.2,0,2.2-0.6,3.4-1.6v-3.4c-4.1,0.5-5.5,1.4-5.5,3C92.4,392.9,93.4,393.4,94.6,393.4z"/>
	<path d="M103.2,393.6L103.2,393.6c-0.5-0.4-0.9-0.9-0.9-1.7c0-0.9,0.7-1.5,1.1-1.8V390c-0.6-0.5-1.3-1.6-1.3-2.8
		c0-2.1,1.6-3.5,3.5-3.5c0.5,0,1,0.1,1.3,0.3h3.4v0.8h-2.4c0.7,0.6,1.1,1.5,1.1,2.5c0,2.1-1.5,3.5-3.5,3.5c-0.6,0-1.2-0.1-1.7-0.4
		c-0.4,0.4-0.8,0.8-0.8,1.4c0,0.7,0.4,1.3,1.9,1.3h2.2c2.3,0,3.3,0.7,3.3,2.3c0,1.7-1.9,3.4-4.8,3.4c-2.5,0-4.1-1.1-4.1-2.8
		C101.8,395.1,102.2,394.3,103.2,393.6z M105.9,398.1c2.3,0,3.7-1.3,3.7-2.5c0-1.1-0.8-1.5-2.3-1.5h-2.2c-0.2,0-0.7,0-1.3-0.2
		c-0.9,0.6-1.3,1.4-1.3,2.1C102.7,397.2,103.8,398.1,105.9,398.1z M108.3,387.2c0-1.7-1.2-2.8-2.6-2.8s-2.6,1.1-2.6,2.8
		c0,1.7,1.2,2.8,2.6,2.8C107.1,390,108.3,388.9,108.3,387.2z"/>
	<path d="M116.2,383.6c2.4,0,3.9,1.7,3.9,4.7c0,0.3,0,0.5,0,0.8h-7.3c0,2.5,1.5,4.4,3.8,4.4c1.1,0,2-0.4,2.7-0.9l0.4,0.7
		c-0.8,0.5-1.7,1-3.2,1c-2.6,0-4.7-2-4.7-5.3C111.8,385.7,113.8,383.6,116.2,383.6z M119.1,388.3c0-2.6-1.2-3.9-3-3.9
		c-1.7,0-3.3,1.5-3.5,3.9H119.1z"/>
	<path d="M126.9,383.9h0.8l0.1,1.6h0.1c0.9-1,2.1-1.8,3.2-1.8c1.6,0,2.4,0.8,2.8,2.1c1.2-1.3,2.3-2.1,3.4-2.1c2,0,3,1.3,3,3.9v6.5
		h-0.9v-6.3c0-2.1-0.7-3.1-2.2-3.1c-0.9,0-1.9,0.6-3,1.9v7.6h-0.9v-6.3c0-2.1-0.7-3.1-2.3-3.1c-0.9,0-1.9,0.6-3,1.9v7.6h-0.9v-10.4
		L126.9,383.9L126.9,383.9z"/>
	<path d="M147.4,383.6c2.4,0,3.9,1.7,3.9,4.7c0,0.3,0,0.5,0,0.8H144c0,2.5,1.5,4.4,3.8,4.4c1.1,0,2-0.4,2.7-0.9l0.4,0.7
		c-0.8,0.5-1.7,1-3.2,1c-2.6,0-4.7-2-4.7-5.3C143.1,385.7,145.2,383.6,147.4,383.6z M150.4,388.3c0-2.6-1.2-3.9-3-3.9
		c-1.7,0-3.3,1.5-3.5,3.9H150.4z"/>
	<path d="M159.6,387.7c0-1.5-0.4-3.2-2.4-3.2c-1.4,0-2.5,0.7-3.2,1.2l-0.4-0.7c0.7-0.5,2.1-1.3,3.7-1.3c2.4,0,3.2,1.7,3.2,3.9v6.4
		h-0.8l-0.1-1.3l0,0c-1,0.8-2.2,1.6-3.6,1.6c-1.6,0-2.9-0.9-2.9-2.8C153.1,389.2,155.2,388.2,159.6,387.7z M156.2,393.4
		c1.2,0,2.2-0.6,3.4-1.6v-3.4c-4.1,0.5-5.5,1.4-5.5,3C154.1,392.9,155.1,393.4,156.2,393.4z"/>
	<path d="M164.2,378.9h0.9v13.9c0,0.4,0.2,0.7,0.4,0.7c0.1,0,0.2,0,0.4,0l0.2,0.8c-0.2,0.1-0.4,0.1-0.7,0.1c-0.8,0-1.2-0.5-1.2-1.6
		L164.2,378.9L164.2,378.9z"/>
</g>
<g class="st3">
	<path class="st4" d="M340.1,451.3h-6.3v-2h9v1.5c-3.1,3.9-3.7,6.7-3.9,11.9h-2.5C336.6,457.9,337.5,454.9,340.1,451.3z"/>
	<path class="st4" d="M344.5,461.2c3.7-3.6,6-5.9,6-8c0-1.4-0.8-2.3-2.2-2.3c-1,0-1.9,0.7-2.6,1.5l-1.3-1.3c1.2-1.3,2.4-2.1,4.3-2.1
		c2.6,0,4.2,1.6,4.2,4.1c0,2.4-2.2,4.8-4.8,7.6c0.7-0.1,1.6-0.1,2.2-0.1h3.3v2.1h-9v-1.5L344.5,461.2L344.5,461.2z"/>
	<path class="st4" d="M355.2,455.9c0-4.5,1.8-6.9,4.5-6.9s4.5,2.4,4.5,6.9s-1.8,7-4.5,7S355.2,460.4,355.2,455.9z M362,455.9
		c0-3.8-0.9-5-2.2-5c-1.3,0-2.2,1.2-2.2,5s0.9,5.1,2.2,5.1S362,459.7,362,455.9z"/>
	<path class="st4" d="M371.9,462.3L371.9,462.3c-0.5-0.4-0.9-1-0.9-1.8s0.5-1.5,1.1-1.9v-0.1c-0.7-0.5-1.3-1.5-1.3-2.7
		c0-2.4,1.9-3.7,4.1-3.7c0.6,0,1.1,0.1,1.5,0.3h3.7v1.8h-1.9c0.3,0.4,0.6,1,0.6,1.7c0,2.3-1.7,3.5-3.9,3.5c-0.4,0-0.9-0.1-1.4-0.3
		c-0.3,0.3-0.5,0.5-0.5,1c0,0.6,0.4,0.9,1.7,0.9h1.8c2.5,0,3.8,0.8,3.8,2.5c0,2-2.1,3.6-5.5,3.6c-2.5,0-4.3-0.9-4.3-2.7
		C370.4,463.6,370.9,462.9,371.9,462.3z M375,465.6c1.7,0,2.8-0.8,2.8-1.7c0-0.8-0.7-1-1.8-1h-1.4c-0.6,0-1,0-1.4-0.1
		c-0.5,0.4-0.8,0.9-0.8,1.4C372.4,465.1,373.4,465.6,375,465.6z M376.5,455.8c0-1.3-0.8-2-1.8-2s-1.8,0.7-1.8,2s0.8,2.1,1.8,2.1
		C375.8,457.8,376.5,457.1,376.5,455.8z"/>
</g>
<g>
	<g>
		<path class="st4" d="M692.7,385.5c-0.9,0-1.5,0.7-1.5,2s0.6,2.1,1.5,2.1s1.5-0.8,1.5-2.1S693.5,385.5,692.7,385.5z"/>
	</g>
	<g>
		<path class="st4" d="M705.2,386.5c0.2-0.6,0.2-1.2,0.2-1.8c0-4-3.3-7.3-7.3-7.3c-1.4,0-2.7,0.4-3.8,1.1c-1.3-2.1-3.6-3.5-6.2-3.5
			c-4,0-7.3,3.3-7.3,7.3l0,0c-3.7,0.4-6.5,3.5-6.5,7.2c0,4,3.3,7.3,7.3,7.3c0.4,0,0.8,0,1.1-0.1c1.5,2.6,4.3,4.4,7.6,4.4
			c2.5,0,4.8-1.1,6.4-2.8c1.1,0.6,2.3,1,3.6,1c4,0,7.3-3.3,7.3-7.3C707.8,389.8,706.8,387.9,705.2,386.5z M685.8,391.3
			c-2.1,0-3.8-1.2-3.8-3.6s1.8-3.8,3.9-3.8c1,0,1.9,0.4,2.4,0.9l-1.1,1.2c-0.4-0.3-0.7-0.5-1.2-0.5c-0.9,0-1.8,0.8-1.8,2.1
			c0,1.3,0.7,2.1,1.7,2.1c0.6,0,1-0.2,1.4-0.6l1.1,1.1C687.7,390.9,686.8,391.3,685.8,391.3z M692.7,391.3c-2.2,0-3.7-1.4-3.7-3.7
			c0-2.4,1.5-3.7,3.7-3.7s3.7,1.3,3.7,3.7C696.3,389.9,694.8,391.3,692.7,391.3z M701.8,394.3h-4.6v-0.9c1.5-1.2,2.7-2.2,2.7-3
			c0-0.5-0.3-0.8-0.8-0.8c-0.4,0-0.7,0.3-1,0.5l-0.9-0.8c0.7-0.6,1.3-0.9,2.2-0.9c1.3,0,2.2,0.7,2.2,1.9c0,0.9-1,1.9-1.8,2.7
			c0.3,0,0.8-0.1,1.1-0.1h1.1v1.4L701.8,394.3L701.8,394.3z"/>
	</g>
</g>
<g>
	<g>
		<path class="st4" d="M414.1,453.6c-0.9,0-1.5,0.7-1.5,2s0.6,2.1,1.5,2.1s1.5-0.8,1.5-2.1C415.6,454.4,415,453.6,414.1,453.6z"/>
	</g>
	<g>
		<path class="st4" d="M426.8,454.7c0.2-0.6,0.2-1.2,0.2-1.8c0-4-3.3-7.3-7.3-7.3c-1.4,0-2.7,0.4-3.8,1.1c-1.3-2.1-3.6-3.5-6.2-3.5
			c-4,0-7.3,3.3-7.3,7.3l0,0c-3.7,0.4-6.5,3.5-6.5,7.2c0,4,3.3,7.3,7.3,7.3c0.4,0,0.8,0,1.1-0.1c1.5,2.6,4.3,4.4,7.6,4.4
			c2.5,0,4.8-1.1,6.4-2.8c1.1,0.6,2.3,1,3.6,1c4,0,7.3-3.3,7.3-7.3C429.2,457.9,428.2,456,426.8,454.7z M407.2,459.4
			c-2.1,0-3.8-1.2-3.8-3.6s1.8-3.8,3.9-3.8c1,0,1.9,0.4,2.4,0.9l-1.1,1.2c-0.4-0.3-0.7-0.5-1.2-0.5c-0.9,0-1.8,0.8-1.8,2.1
			c0,1.3,0.7,2.1,1.7,2.1c0.6,0,1-0.2,1.4-0.6l1.1,1.1C409.1,459,408.2,459.4,407.2,459.4z M414.1,459.4c-2.2,0-3.7-1.4-3.7-3.7
			c0-2.4,1.5-3.7,3.7-3.7s3.7,1.3,3.7,3.7C417.8,458,416.4,459.4,414.1,459.4z M423.2,462.5h-4.6v-0.9c1.5-1.2,2.7-2.2,2.7-3
			c0-0.5-0.3-0.8-0.8-0.8c-0.4,0-0.7,0.3-1,0.5l-0.9-0.8c0.7-0.6,1.3-0.9,2.2-0.9c1.3,0,2.2,0.7,2.2,1.9c0,0.9-1,1.9-1.8,2.7
			c0.3,0,0.8-0.1,1.1-0.1h1.1v1.4L423.2,462.5L423.2,462.5z"/>
	</g>
</g>
<g>
	<g class="st3">
		<path class="st4" d="M606.2,393h3v-8.8h-2.5v-1.5c1.3-0.3,2.2-0.6,3.1-1.1h1.8V393h2.6v2h-8L606.2,393L606.2,393z"/>
		<path class="st4" d="M617.2,391.8c0.8,0.8,1.8,1.4,3.1,1.4c1.5,0,2.6-0.9,2.6-2.6c0-1.6-1-2.5-2.5-2.5c-0.9,0-1.3,0.2-2.1,0.8
			l-1.2-0.7l0.4-6.6h7.1v2h-5l-0.3,3.2c0.6-0.3,1.1-0.4,1.8-0.4c2.3,0,4.2,1.3,4.2,4.2c0,2.9-2.2,4.6-4.7,4.6
			c-2.2,0-3.6-0.9-4.6-1.8L617.2,391.8z"/>
		<path class="st4" d="M627.8,393h3v-8.8h-2.5v-1.5c1.3-0.3,2.2-0.6,3.1-1.1h1.8V393h2.6v2h-8L627.8,393L627.8,393z"/>
		<path class="st4" d="M637.8,388.2c0-4.5,1.8-6.9,4.5-6.9s4.5,2.4,4.5,6.9s-1.8,7-4.5,7S637.8,392.7,637.8,388.2z M644.7,388.2
			c0-3.8-0.9-5-2.2-5s-2.2,1.2-2.2,5s0.9,5.1,2.2,5.1S644.7,392,644.7,388.2z"/>
		<path class="st4" d="M654.5,394.6L654.5,394.6c-0.5-0.4-0.9-1-0.9-1.8s0.5-1.5,1.1-1.9v-0.1c-0.7-0.5-1.3-1.5-1.3-2.7
			c0-2.4,1.9-3.7,4.1-3.7c0.6,0,1.1,0.1,1.5,0.3h3.7v1.8h-1.9c0.3,0.4,0.6,1,0.6,1.7c0,2.3-1.7,3.5-3.9,3.5c-0.4,0-0.9-0.1-1.4-0.3
			c-0.3,0.3-0.5,0.5-0.5,1c0,0.6,0.4,0.9,1.7,0.9h1.8c2.5,0,3.8,0.8,3.8,2.5c0,2-2.1,3.6-5.5,3.6c-2.5,0-4.3-0.9-4.3-2.7
			C653,396,653.5,395.2,654.5,394.6z M657.7,398c1.7,0,2.8-0.8,2.8-1.7c0-0.8-0.7-1-1.8-1h-1.4c-0.6,0-1,0-1.4-0.1
			c-0.5,0.4-0.8,0.9-0.8,1.4C655,397.4,656,398,657.7,398z M659.2,388.1c0-1.3-0.8-2-1.8-2s-1.8,0.7-1.8,2s0.8,2.1,1.8,2.1
			C658.3,390.2,659.2,389.4,659.2,388.1z"/>
	</g>
</g>
<g class="st3">
	<path d="M59.9,438.4c1.4,0,2.3,0.6,3,1.2l-0.5,0.7c-0.7-0.6-1.4-1.1-2.4-1.1c-2.1,0-3.7,1.8-3.7,4.5c0,2.6,1.4,4.5,3.7,4.5
		c1.1,0,2-0.5,2.7-1.2l0.5,0.6c-0.9,0.8-1.9,1.3-3.2,1.3c-2.6,0-4.6-1.9-4.6-5.3C55.3,440.3,57.5,438.4,59.9,438.4z"/>
	<path d="M65.6,433.6h0.9v13.9c0,0.4,0.2,0.7,0.4,0.7c0.1,0,0.2,0,0.4,0l0.2,0.8c-0.2,0.1-0.4,0.1-0.7,0.1c-0.8,0-1.2-0.5-1.2-1.6
		L65.6,433.6L65.6,433.6z"/>
	<path d="M70.2,435.4c0-0.5,0.4-0.8,0.8-0.8s0.8,0.3,0.8,0.8s-0.4,0.8-0.8,0.8S70.2,435.8,70.2,435.4z M70.6,438.6h0.9v10.1h-0.9
		V438.6z"/>
	<path d="M75.3,438.6h0.8l0.1,1.6h0.1c0.9-1,2.1-1.8,3.2-1.8c1.6,0,2.4,0.8,2.8,2.1c1.2-1.3,2.3-2.1,3.4-2.1c2,0,3,1.3,3,3.9v6.5
		h-0.9v-6.3c0-2.1-0.7-3.1-2.2-3.1c-0.9,0-1.9,0.6-3,1.9v7.6h-0.9v-6.3c0-2.1-0.7-3.1-2.3-3.1c-0.9,0-1.9,0.6-3,1.9v7.6h-0.9v-10.4
		H75.3z"/>
	<path d="M98.3,442.4c0-1.5-0.4-3.2-2.4-3.2c-1.4,0-2.5,0.7-3.2,1.2l-0.4-0.7c0.7-0.5,2.1-1.3,3.7-1.3c2.4,0,3.2,1.7,3.2,3.9v6.4
		h-0.8l-0.1-1.3l0,0c-1,0.8-2.2,1.6-3.6,1.6c-1.6,0-2.9-0.9-2.9-2.8C91.8,443.9,93.9,442.9,98.3,442.4z M94.9,448.1
		c1.2,0,2.2-0.6,3.4-1.6v-3.4c-4.1,0.5-5.5,1.4-5.5,3C92.8,447.6,93.8,448.1,94.9,448.1z"/>
	<path d="M103.2,439.4h-1.6v-0.7l1.6-0.1l0.1-2.9h0.8v2.9h2.9v0.8h-2.9v6.6c0,1.3,0.3,2.1,1.7,2.1c0.4,0,0.9-0.1,1.3-0.3l0.3,0.8
		c-0.6,0.2-1.2,0.4-1.6,0.4c-2,0-2.5-1.2-2.5-3v-6.6L103.2,439.4L103.2,439.4z"/>
	<path d="M112.8,438.4c2.4,0,3.9,1.7,3.9,4.7c0,0.3,0,0.5,0,0.8h-7.3c0,2.5,1.5,4.4,3.8,4.4c1.1,0,2-0.4,2.7-0.9l0.4,0.7
		c-0.8,0.5-1.7,1-3.2,1c-2.6,0-4.7-2-4.7-5.3C108.4,440.4,110.6,438.4,112.8,438.4z M115.8,443.1c0-2.6-1.2-3.9-3-3.9
		c-1.7,0-3.3,1.5-3.5,3.9H115.8z"/>
	<path d="M118.4,443h4.6v0.8h-4.6C118.5,443.8,118.5,443,118.4,443z"/>
</g>
<g class="st3">
	<path d="M60.1,459.6c-0.4-0.2-0.8-0.3-1.2-0.3c-1.1,0-1.6,0.8-1.6,2.3v2.2h2.3v0.8h-2.3v9.3h-0.9v-9.3H55v-0.7l1.4-0.1v-2.2
		c0-2,0.9-3,2.5-3c0.5,0,1,0.1,1.5,0.3L60.1,459.6z"/>
	<path d="M61.7,463.8h0.8l0.1,1.9h0.1c0.7-1.2,1.7-2.1,2.9-2.1c0.4,0,0.7,0,1,0.2l-0.2,0.8c-0.3-0.1-0.5-0.2-0.9-0.2
		c-0.9,0-2,0.7-2.8,2.6v6.9h-0.9L61.7,463.8L61.7,463.8L61.7,463.8z"/>
	<path d="M67.9,460.6c0-0.5,0.4-0.8,0.8-0.8s0.8,0.3,0.8,0.8s-0.4,0.8-0.8,0.8S67.9,461,67.9,460.6z M68.3,463.8h0.9v10.1h-0.9
		V463.8z"/>
	<path d="M76.8,463.6c2.4,0,3.9,1.7,3.9,4.7c0,0.3,0,0.5,0,0.8h-7.3c0,2.5,1.5,4.4,3.8,4.4c1.1,0,2-0.4,2.7-0.9l0.4,0.7
		c-0.8,0.5-1.7,1-3.2,1c-2.6,0-4.7-2-4.7-5.3C72.3,465.6,74.4,463.6,76.8,463.6z M79.7,468.3c0-2.6-1.2-3.9-3-3.9
		c-1.7,0-3.3,1.5-3.5,3.9H79.7z"/>
	<path d="M83.3,463.8h0.8l0.1,1.6h0.1c1-1,2.1-1.8,3.5-1.8c2.1,0,3,1.3,3,3.9v6.5h-0.9v-6.3c0-2.1-0.7-3.1-2.3-3.1
		c-1.2,0-2.1,0.6-3.3,1.9v7.6h-0.9L83.3,463.8L83.3,463.8L83.3,463.8z"/>
	<path d="M98.2,463.6c1.2,0,2,0.5,3,1.2V463v-4.2h0.9v15.1h-0.8l-0.1-1.3h-0.1c-0.8,0.8-1.9,1.6-3.3,1.6c-2.5,0-4.2-1.9-4.2-5.3
		C93.7,465.6,95.8,463.6,98.2,463.6z M97.9,473.3c1.1,0,2.1-0.6,3.2-1.7v-6c-1.1-0.9-2-1.3-2.9-1.3c-2,0-3.5,2-3.5,4.5
		C94.7,471.5,95.8,473.3,97.9,473.3z"/>
	<path d="M105.8,458.8h0.9v13.9c0,0.4,0.2,0.7,0.4,0.7c0.1,0,0.2,0,0.4,0l0.2,0.8c-0.2,0.1-0.4,0.1-0.7,0.1c-0.8,0-1.2-0.5-1.2-1.6
		L105.8,458.8L105.8,458.8z"/>
	<path d="M110.4,477.6c1.2,0,2.1-1.1,2.6-2.7l0.3-0.9l-4.1-10.3h1l2.4,6.3c0.3,0.8,0.7,1.9,1.1,2.8h0.1c0.3-0.9,0.7-2,0.9-2.8
		l2.2-6.3h0.9l-4,11.3c-0.6,1.7-1.6,3.3-3.4,3.3c-0.4,0-0.8-0.1-1-0.2l0.2-0.8C109.8,477.5,110.2,477.6,110.4,477.6z"/>
	<path d="M124.2,463.8h0.8l0.1,1.6h0.1c0.9-1,2.1-1.8,3.2-1.8c1.6,0,2.4,0.8,2.8,2.1c1.2-1.3,2.3-2.1,3.4-2.1c2,0,3,1.3,3,3.9v6.5
		h-0.9v-6.3c0-2.1-0.7-3.1-2.2-3.1c-0.9,0-1.9,0.6-3,1.9v7.6h-0.9v-6.3c0-2.1-0.7-3.1-2.3-3.1c-0.9,0-1.9,0.6-3,1.9v7.6h-0.9v-10.4
		L124.2,463.8L124.2,463.8z"/>
	<path d="M144.9,463.6c2.4,0,3.9,1.7,3.9,4.7c0,0.3,0,0.5,0,0.8h-7.3c0,2.5,1.5,4.4,3.8,4.4c1.1,0,2-0.4,2.7-0.9l0.4,0.7
		c-0.8,0.5-1.7,1-3.2,1c-2.6,0-4.7-2-4.7-5.3C140.4,465.6,142.6,463.6,144.9,463.6z M147.8,468.3c0-2.6-1.2-3.9-3-3.9
		c-1.7,0-3.3,1.5-3.5,3.9H147.8z"/>
	<path d="M157.1,467.6c0-1.5-0.4-3.2-2.4-3.2c-1.4,0-2.5,0.7-3.2,1.2l-0.4-0.7c0.7-0.5,2.1-1.3,3.7-1.3c2.4,0,3.2,1.7,3.2,3.9v6.4
		h-0.8l-0.1-1.3l0,0c-1,0.8-2.2,1.6-3.6,1.6c-1.6,0-2.9-0.9-2.9-2.8C150.6,469.1,152.6,468.1,157.1,467.6z M153.6,473.3
		c1.2,0,2.2-0.6,3.4-1.6v-3.4c-4.1,0.5-5.5,1.4-5.5,3C151.4,472.8,152.4,473.3,153.6,473.3z"/>
	<path d="M161.6,458.8h0.9v13.9c0,0.4,0.2,0.7,0.4,0.7c0.1,0,0.2,0,0.4,0l0.2,0.8c-0.2,0.1-0.4,0.1-0.7,0.1c-0.8,0-1.2-0.5-1.2-1.6
		L161.6,458.8L161.6,458.8z"/>
</g>
<g>
	<path class="st1" d="M478.5,459.5c0.8,0.7,1.7,1.4,3.1,1.4c1.5,0,2.5-0.9,2.5-2.5s-1-2.4-2.4-2.4c-0.8,0-1.3,0.2-2.1,0.7l-1.1-0.7
		l0.4-6.5h7v2H481l-0.3,3.2c0.6-0.3,1-0.4,1.7-0.4c2.2,0,4.1,1.3,4.1,4.1c0,2.9-2.2,4.5-4.6,4.5c-2.1,0-3.5-0.8-4.5-1.8L478.5,459.5
		z"/>
	<path class="st1" d="M489.4,459.5c0.8,0.8,1.8,1.4,3.1,1.4c1.4,0,2.4-0.7,2.4-2c0-1.4-0.9-2.2-3.8-2.2V455c2.6,0,3.4-0.9,3.4-2.1
		c0-1.1-0.7-1.7-1.9-1.7c-1,0-1.8,0.5-2.6,1.2l-1.2-1.5c1.1-1,2.4-1.6,3.9-1.6c2.5,0,4.2,1.2,4.2,3.5c0,1.5-0.9,2.4-2.3,3v0.1
		c1.5,0.4,2.7,1.5,2.7,3.2c0,2.4-2.1,3.8-4.6,3.8c-2.1,0-3.5-0.8-4.4-1.9L489.4,459.5z"/>
	<path class="st1" d="M499.1,453.1c0-2.7,1.3-4.2,3.2-4.2c1.9,0,3.2,1.5,3.2,4.2s-1.3,4.3-3.2,4.3
		C500.5,457.4,499.1,455.8,499.1,453.1z M503.9,453.1c0-2-0.6-2.9-1.5-2.9s-1.5,0.8-1.5,2.9s0.6,2.9,1.5,2.9
		S503.9,455.1,503.9,453.1z M502.9,462.8l7.3-13.9h1.4l-7.3,13.9H502.9z M508.8,458.6c0-2.7,1.3-4.2,3.2-4.2s3.2,1.5,3.2,4.2
		s-1.3,4.3-3.2,4.3S508.8,461.3,508.8,458.6z M513.5,458.6c0-2-0.6-2.9-1.5-2.9s-1.5,0.8-1.5,2.9s0.6,2.9,1.5,2.9
		S513.5,460.6,513.5,458.6z"/>
	<path class="st1" d="M522.5,449.1h2.4v11.4h5.6v2h-8V449.1z"/>
	<path class="st1" d="M533,449.1h8.1v2h-5.7v3.4h4.8v2h-4.8v4h5.9v2H533V449.1z"/>
	<path class="st1" d="M544.8,459.2c1,0.9,2.3,1.5,3.5,1.5c1.5,0,2.3-0.7,2.3-1.7c0-1.1-0.9-1.5-2.1-2l-1.9-0.8
		c-1.3-0.6-2.7-1.6-2.7-3.6c0-2.1,1.9-3.8,4.5-3.8c1.6,0,3.1,0.7,4.1,1.7l-1.2,1.5c-0.9-0.7-1.8-1.2-2.9-1.2c-1.3,0-2.1,0.6-2.1,1.6
		s1,1.4,2.1,1.9l1.8,0.8c1.6,0.7,2.7,1.7,2.7,3.6c0,2.2-1.8,4-4.8,4c-1.8,0-3.6-0.7-4.9-2L544.8,459.2z"/>
	<path class="st1" d="M556,459.2c1,0.9,2.3,1.5,3.5,1.5c1.5,0,2.3-0.7,2.3-1.7c0-1.1-0.9-1.5-2.1-2l-1.9-0.8
		c-1.3-0.6-2.7-1.6-2.7-3.6c0-2.1,1.9-3.8,4.5-3.8c1.6,0,3.1,0.7,4.1,1.7l-1.2,1.5c-0.9-0.7-1.8-1.2-2.9-1.2c-1.3,0-2.1,0.6-2.1,1.6
		s1,1.4,2.1,1.9l1.8,0.8c1.6,0.7,2.7,1.7,2.7,3.6c0,2.2-1.8,4-4.8,4c-1.8,0-3.6-0.7-4.9-2L556,459.2z"/>
	<path class="st1" d="M577.2,448.9c1.6,0,3,0.8,3.8,1.7l-1.3,1.5c-0.7-0.7-1.4-1.1-2.5-1.1c-2.2,0-3.8,1.9-3.8,4.9
		c0,3.1,1.4,4.9,3.7,4.9c1.2,0,2.1-0.5,2.8-1.3l1.3,1.5c-1.1,1.3-2.5,2-4.2,2c-3.4,0-6.1-2.5-6.1-6.9
		C571,451.5,573.8,448.9,577.2,448.9z"/>
	<path class="st1" d="M582.5,455.8c0-4.3,2.4-6.9,5.9-6.9s5.9,2.6,5.9,6.9c0,4.4-2.4,7-5.9,7C584.8,462.8,582.5,460.2,582.5,455.8z
		 M591.8,455.8c0-3-1.4-4.8-3.5-4.8s-3.5,1.8-3.5,4.8s1.4,5,3.5,5C590.5,460.8,591.8,458.8,591.8,455.8z"/>
	<path class="st1" d="M596,468.6c2.1-2.1,3.5-3.4,3.5-4.6c0-0.8-0.4-1.3-1.3-1.3c-0.6,0-1.1,0.4-1.5,0.9l-0.8-0.8
		c0.7-0.7,1.4-1.2,2.4-1.2c1.5,0,2.4,0.9,2.4,2.3s-1.3,2.7-2.8,4.3c0.4,0,0.9-0.1,1.3-0.1h1.9v1.2H596L596,468.6L596,468.6z"/>
	<path class="st1" d="M608.2,449.1h8.1v2h-5.7v3.4h4.8v2h-4.8v4h5.9v2h-8.3V449.1z"/>
	<path class="st1" d="M619.3,452.5h2l0.2,1.4h0.1c0.8-0.9,1.8-1.6,3.1-1.6c1.5,0,2.3,0.7,2.8,1.8c1-1,2-1.8,3.2-1.8
		c2.1,0,3.1,1.5,3.1,4v6.3h-2.4v-6c0-1.7-0.5-2.3-1.5-2.3c-0.6,0-1.3,0.4-2.1,1.3v7.1h-2.4v-6c0-1.7-0.5-2.3-1.6-2.3
		c-0.6,0-1.3,0.4-2.1,1.3v7.1h-2.4L619.3,452.5L619.3,452.5z"/>
	<path class="st1" d="M636.7,449.4c0-0.8,0.6-1.4,1.5-1.4c0.8,0,1.5,0.6,1.5,1.4s-0.6,1.3-1.5,1.3
		C637.3,450.7,636.7,450.2,636.7,449.4z M637,452.5h2.4v10.1H637V452.5z"/>
	<path class="st1" d="M642.8,459.9c0.9,0.7,1.8,1.1,2.8,1.1c1.1,0,1.6-0.5,1.6-1.2c0-0.8-1.1-1.2-2.2-1.6c-1.3-0.5-2.8-1.3-2.8-2.9
		c0-1.8,1.4-3,3.7-3c1.4,0,2.5,0.6,3.4,1.2l-1.1,1.4c-0.7-0.5-1.4-0.9-2.2-0.9c-1,0-1.5,0.5-1.5,1.1c0,0.8,1,1.1,2.1,1.5
		c1.4,0.5,2.9,1.2,2.9,3.1c0,1.7-1.4,3.1-3.9,3.1c-1.4,0-2.8-0.6-3.8-1.4L642.8,459.9z"/>
	<path class="st1" d="M652,459.9c0.9,0.7,1.8,1.1,2.8,1.1c1.1,0,1.6-0.5,1.6-1.2c0-0.8-1.1-1.2-2.2-1.6c-1.3-0.5-2.8-1.3-2.8-2.9
		c0-1.8,1.4-3,3.7-3c1.4,0,2.5,0.6,3.4,1.2l-1.1,1.4c-0.7-0.5-1.4-0.9-2.2-0.9c-1,0-1.5,0.5-1.5,1.1c0,0.8,1,1.1,2.1,1.5
		c1.4,0.5,2.9,1.2,2.9,3.1c0,1.7-1.4,3.1-3.9,3.1c-1.4,0-2.8-0.6-3.8-1.4L652,459.9z"/>
	<path class="st1" d="M660.8,449.4c0-0.8,0.6-1.4,1.5-1.4c0.8,0,1.5,0.6,1.5,1.4s-0.6,1.3-1.5,1.3
		C661.3,450.7,660.8,450.2,660.8,449.4z M661,452.5h2.4v10.1H661V452.5z"/>
	<path class="st1" d="M670.8,452.2c2.5,0,4.8,1.9,4.8,5.3s-2.3,5.3-4.8,5.3s-4.8-1.9-4.8-5.3C666,454.2,668.3,452.2,670.8,452.2z
		 M670.8,460.9c1.5,0,2.4-1.3,2.4-3.4c0-2-0.9-3.4-2.4-3.4s-2.4,1.3-2.4,3.4C668.5,459.6,669.3,460.9,670.8,460.9z"/>
	<path class="st1" d="M678.3,452.5h2l0.2,1.4h0.1c0.9-0.9,1.9-1.6,3.3-1.6c2.2,0,3.1,1.5,3.1,4v6.3h-2.4v-6c0-1.7-0.5-2.3-1.6-2.3
		c-0.9,0-1.5,0.4-2.3,1.3v7.1h-2.4L678.3,452.5L678.3,452.5z"/>
	<path class="st1" d="M690.2,459.9c0.9,0.7,1.8,1.1,2.8,1.1c1.1,0,1.6-0.5,1.6-1.2c0-0.8-1.1-1.2-2.2-1.6c-1.3-0.5-2.8-1.3-2.8-2.9
		c0-1.8,1.4-3,3.7-3c1.4,0,2.5,0.6,3.4,1.2l-1.1,1.4c-0.7-0.5-1.4-0.9-2.2-0.9c-1,0-1.5,0.5-1.5,1.1c0,0.8,1,1.1,2.1,1.5
		c1.4,0.5,2.9,1.2,2.9,3.1c0,1.7-1.4,3.1-3.9,3.1c-1.4,0-2.8-0.6-3.8-1.4L690.2,459.9z"/>
</g>
</svg>
