<?xml version="1.0" encoding="UTF-8"?>
<svg width="100%" height="100%" viewBox="0 0 60 60" version="1.1" xmlns="http://www.w3.org/2000/svg" xmlns:xlink="http://www.w3.org/1999/xlink">
    <!-- Generator: Sketch 46.2 (44496) - http://www.bohemiancoding.com/sketch -->
    <title>Icon / Indicator / CO₂ / blue</title>
    <desc>Created with Sketch.</desc>
    <defs></defs>
    <g id="Awards-&amp;-Illustrations" stroke="none" stroke-width="1" fill="none" fill-rule="evenodd">
        <g id="Icon-/-Indicator-/-CO2-/-blue">
            <g id="Group-2">
                <g id="Group">
                    <rect id="Rectangle" x="0" y="0" width="60" height="60"></rect>
                    <g id="cloud" transform="translate(18.000000, 20.000000)" fill-rule="nonzero" fill="#FF6E00">
                        <path d="M21.7866249,8.01751811 C21.8361383,7.73541192 21.8668965,7.44655318 21.8668965,7.15019162 C21.8668965,4.39590479 19.6335456,2.16606539 16.8818052,2.16606539 C16.0513318,2.16606539 15.2688712,2.37239306 14.5816864,2.73102807 C13.6019227,1.29573777 11.9559799,0.352632745 10.0857267,0.352632745 C7.08341885,0.352632745 4.65126445,2.78729925 4.65126445,5.78992956 C4.65126445,5.79818267 4.65276485,5.80568549 4.65276485,5.81318831 C2.11033078,6.04127418 0.120795472,8.17282658 0.120795472,10.7748061 C0.120795472,13.526842 2.35039537,15.7566814 5.10513657,15.7566814 C5.23117048,15.7566814 5.35570399,15.7469278 5.4802375,15.7386747 C6.97238898,17.6451423 9.2905127,18.8778564 11.8997147,18.8778564 C13.6784433,18.8778564 15.3176344,18.3016395 16.6574949,17.3345254 C17.1586297,17.4868327 17.6905228,17.5701141 18.2404208,17.5701141 C21.244229,17.5701141 23.6778838,15.1369481 23.6778838,12.132067 C23.6778838,10.4866976 22.9434362,9.01389319 21.7866249,8.01751811 L21.7866249,8.01751811 Z" id="Shape"></path>
                    </g>
                </g>
                <g id="cloud" transform="translate(18.000000, 20.000000)">
                    <path d="M20.2408148,8.57026173 C20.2820845,8.33514985 20.3077217,8.09441031 20.3077217,7.84741778 C20.3077217,5.55195055 18.4462109,3.69356629 16.1526196,3.69356629 C15.4604152,3.69356629 14.8082299,3.86552311 14.2354574,4.16441533 C13.4188188,2.96822115 12.046916,2.18222215 10.4880493,2.18222215 C7.98560854,2.18222215 5.95839394,4.21131264 5.95839394,6.71375336 C5.95839394,6.72063163 5.95964454,6.72688461 5.95964454,6.73313758 C3.84051121,6.92322803 2.18222215,8.69969832 2.18222215,10.8682302 C2.18222215,13.1618215 4.04060642,15.0202058 6.33669895,15.0202058 C6.44174893,15.0202058 6.54554832,15.0120769 6.64934771,15.0051986 C7.8930645,16.5940796 9.82523387,17.6214435 12.0000187,17.6214435 C13.4825991,17.6214435 14.8488742,17.141215 15.9656556,16.3352065 C16.3833544,16.4621419 16.8266903,16.5315499 17.2850334,16.5315499 C19.7887247,16.5315499 21.8171899,14.50371 21.8171899,11.9993934 C21.8171899,10.6281159 21.2050236,9.40065685 20.2408148,8.57026173 L20.2408148,8.57026173 Z" id="Path" fill="#FFFFFF"></path>
                    <path d="M12.566089,8.77307653 C11.7707194,8.77307653 11.2387222,9.41762602 11.2387222,10.1754782 L11.2387222,10.1912355 C11.2387222,10.9483373 11.7857264,11.6078938 12.5818463,11.6078938 C13.3832187,11.6078938 13.9152159,10.9633443 13.9152159,10.2054921 L13.9152159,10.1912355 C13.9159662,9.432633 13.3682117,8.77307653 12.566089,8.77307653 M19.3484905,14.0735395 L15.9441587,14.0735395 L15.9441587,13.1768728 L17.5544069,11.9478017 C17.9535924,11.634156 18.1066635,11.4315618 18.1066635,11.1734419 C18.1066635,10.9048171 17.9160749,10.7382397 17.6271907,10.7382397 C17.3383065,10.7382397 17.1109508,10.9048171 16.7725436,11.2897459 L15.9681698,10.6204349 C16.4281335,10.0246581 16.8835952,9.69825642 17.7187332,9.69825642 C18.6589201,9.69825642 19.3034696,10.2572662 19.3034696,11.0683931 L19.3034696,11.081149 C19.3034696,11.7699691 18.9463037,12.1278854 18.3085073,12.5863484 L17.5716649,13.1025883 L19.3477402,13.1025883 L19.3484905,14.0735395 L19.3484905,14.0735395 Z M15.4009062,10.1904851 C15.4009062,11.6971853 14.1860918,12.9195032 12.566089,12.9195032 C10.9460862,12.9195032 9.74627874,11.7129426 9.74627874,10.2047418 L9.74627874,10.1904851 C9.74627874,8.68303469 10.9610932,7.46071672 12.581096,7.46071672 C14.199598,7.46071672 15.4009062,8.66727736 15.4009062,10.1754782 L15.4009062,10.1904851 Z M7.12681157,12.9195032 C5.6268646,12.9195032 4.42030395,11.7729705 4.42030395,10.2047418 L4.42030395,10.1904851 C4.42030395,8.65977388 5.59685065,7.46071672 7.18683946,7.46071672 C8.25983804,7.46071672 8.94940846,7.91017557 9.41462463,8.55547541 L8.31986594,9.40261905 C8.02047682,9.02819507 7.67606679,8.78733315 7.17333318,8.78733315 C6.4379915,8.78733315 5.92025092,9.41012254 5.92025092,10.1754782 L5.92025092,10.1912355 C5.92025092,10.9783512 6.43724115,11.5928868 7.17333318,11.5928868 C7.72033736,11.5928868 8.04223693,11.3370179 8.35738337,10.9543401 L9.45214206,11.7339523 C8.9576623,12.41752 8.28910164,12.9195032 7.12681157,12.9195032 L7.12681157,12.9195032 Z M21.7894346,8.01791497 C21.838956,7.73579529 21.8697193,7.44692275 21.8697193,7.15054703 C21.8697193,4.3961286 19.6360025,2.16618265 16.8838113,2.16618265 C16.0532018,2.16618265 15.2706131,2.37252018 14.5833156,2.73117232 C13.6033915,1.29581344 11.957179,0.352663355 10.0866194,0.352663355 C7.08381972,0.352663355 4.65126686,2.78744619 4.65126686,5.79021997 C4.65126686,5.79847348 4.65276751,5.80597666 4.65276751,5.81347984 C2.10991692,6.0415766 0.120055671,8.17323085 0.120055671,10.7753347 C0.120055671,13.5275021 2.35002084,15.7574481 5.10521334,15.7574481 C5.2312679,15.7574481 5.35582181,15.7476939 5.48037572,15.7394404 C6.97277165,17.6459992 9.29127515,18.8787722 11.9009046,18.8787722 C13.6799246,18.8787722 15.3193842,18.3025277 16.6594642,17.3353674 C17.1606812,17.4876821 17.6926614,17.5709674 18.2426495,17.5709674 C21.2469498,17.5709674 23.6810033,15.1376852 23.6810033,12.1326604 C23.6810033,10.4872124 22.9464354,9.01433765 21.7894346,8.01791497 L21.7894346,8.01791497 Z" id="Shape" fill="#FF9500" fill-rule="nonzero"></path>
                </g>
            </g>
        </g>
    </g>
</svg>
