<svg xmlns="http://www.w3.org/2000/svg" width="60" height="60" viewBox="0 0 60 60">
  <g id="Icon-/-Balance-Award" fill="none" fill-rule="evenodd" stroke="none" stroke-width="1">
    <g id="Group-2" stroke="#000" stroke-width="2" transform="translate(12 12)">
      <rect id="Rectangle-2" width="34" height="34" x="1" y="1" rx="8"/>
    </g>
    <path id="Fill-131" fill="#000" d="M33.125,34.1904762 C33.125,36.2938776 35.2253069,38 37.8125,38 C40.4010882,38 42.5,36.2938776 42.5,34.1904762 L33.125,34.1904762 Z M22.1875,38 C24.7760882,38 26.875,36.2938776 26.875,34.1904762 L17.5,34.1904762 C17.5,36.2938776 19.6003069,38 22.1875,38 L22.1875,38 Z M33.5574777,32.4965986 L34.2564174,32.8367347 L37.8125,25.9 L41.3699777,32.8367347 L42.0689174,32.4965986 L38.2498605,25.047619 L38.5400391,25.047619 C38.999721,25.047619 39.375,24.7040816 39.375,24.2857143 C39.375,23.8673469 38.999721,23.5238095 38.5400391,23.5238095 L32.2007533,23.5238095 C31.8777902,22.6387755 31.0191127,22 30,22 C28.9822824,22 28.1236049,22.6387755 27.8006417,23.5238095 L21.461356,23.5238095 C21.0016741,23.5238095 20.625,23.8673469 20.625,24.2857143 C20.625,24.7040816 21.0016741,25.047619 21.461356,25.047619 L21.7515346,25.047619 L17.9324777,32.4965986 L18.6314174,32.8367347 L22.1875,25.9 L25.7449777,32.8367347 L26.4439174,32.4965986 L22.6248605,25.047619 L27.8006417,25.047619 C28.1236049,25.9333333 28.9822824,26.5714286 30,26.5714286 C31.0191127,26.5714286 31.8777902,25.9333333 32.2007533,25.047619 L37.3765346,25.047619 L33.5574777,32.4965986 L33.5574777,32.4965986 Z"/>
  </g>
</svg>
