<svg xmlns="http://www.w3.org/2000/svg" width="60" height="60" viewBox="0 0 60 60">
  <g id="Icon-/-Eaternity" fill="none" fill-rule="evenodd" stroke="none" stroke-width="1">
    <rect id="Rectangle" width="60" height="60" x="0" y="0"/>
    <g id="Page-1" transform="translate(12 12)">
      <g id="Group-10" fill="#000" transform="translate(3.248 5.547)">
        <path id="Fill-6" d="M7.63968944,1.41188272 C6.42229814,2.60324074 5.35118012,3.83533951 4.17385093,5.04212963 C3.92043478,5.28966049 3.67447205,5.51651235 3.39248447,5.73225309 C3.4089441,5.35385802 3.4763354,5.04583333 3.59248447,4.68564815 C4.28192547,2.86712963 5.48409938,1.68317901 7.16981366,0.752314815 C7.77726708,0.438734568 8.42819876,0.203858025 9.09993789,0.0720679012 C8.6021118,0.506018519 8.11453416,0.951697531 7.63968944,1.41188272 M1.76515528,10.6649691 C0.385031056,9.70787037 1.26795031,6.56342593 1.73161491,5.35385802 C2.03192547,4.61589506 2.52012422,3.80972222 3.00521739,3.16682099 C3.01981366,5.12947531 2.1763354,8.91805556 1.76515528,10.6649691 M2.75055901,17.3760802 C2.65459627,17.3887346 2.57944099,17.383179 2.48534161,17.3606481 C0.804906832,16.900463 0.0859627329,13.6029321 0.0241614907,12.0720679 C-0.00440993789,11.2695988 0.0353416149,10.5856481 0.158322981,9.79151235 C1.08130435,11.2976852 2.34652174,15.8992284 2.75055901,17.3760802 M5.44745342,21.4834877 C6.00459627,21.9970679 6.56360248,22.5087963 7.12291925,23.020216 C6.39838509,23.6597222 5.04062112,22.8878086 4.39217391,22.4770062 C3.47322981,21.8486111 2.84807453,21.1939815 2.18503106,20.3020062 C1.61795031,19.5195988 1.13161491,18.5905864 0.792484472,17.679784 C2.09869565,18.2837963 4.4073913,20.5276235 5.44745342,21.4834877 M7.21888199,24.6134259 C7.89434783,24.6532407 8.55304348,24.7307099 9.22354037,24.8155864 C10.9384472,25.033179 12.6021118,25.2569444 14.3278882,25.4115741 C14.0142236,27.3973765 9.53813665,26.541821 8.51888199,26.1807099 C7.51111801,25.8236111 6.56142857,25.3063272 5.70428571,24.6683642 C6.1952795,24.5822531 6.72198758,24.5871914 7.21888199,24.6134259 M2.15242236,10.7023148 C3.10304348,10.3131173 4.2536646,7.71867284 4.75614907,6.80787037 L5.76484472,5.12268519 C3.50118012,5.60262346 2.05024845,8.34212963 2.15242236,10.7023148 M3.06763975,17.2458333 C3.87757764,16.6729938 3.69714286,13.1100309 3.75708075,12.0720679 C3.79124224,11.4853395 3.8415528,10.9149691 3.91049689,10.3319444 C3.32695652,10.729784 2.88161491,11.4162037 2.64372671,12.0720679 C2.03627329,13.7976852 2.17447205,15.650463 3.06763975,17.2458333 M5.61919255,21.3223765 C6.13658385,21.9390432 6.6157764,22.3563272 7.30552795,22.7739198 C7.63968944,22.0618827 6.99186335,20.958179 6.67447205,20.3294753 C5.92757764,18.8516975 5.3347205,17.774537 4.73813665,16.204784 C4.50521739,16.5680556 4.37664596,16.9878086 4.33254658,17.4134259 C4.20863354,18.9316358 4.70335404,20.1334877 5.61919255,21.3223765 M8.73068323,22.224537 C8.98565217,22.8087963 9.28906832,23.2069444 9.75024845,23.6455247 C11.1021118,24.8291667 12.5496273,25.228858 14.3278882,25.1248457 C14.1682609,24.066821 11.2806832,22.8094136 10.3260248,22.2239198 C9.69962733,21.8362654 9.09403727,21.420216 8.51267081,20.9683642 C8.4778882,21.3973765 8.5657764,21.8279321 8.73068323,22.224537"/>
        <path id="Fill-8" d="M21.9470186,1.41188272 C23.1644099,2.60324074 24.235528,3.83533951 25.4131677,5.04212963 C25.6668944,5.28966049 25.912236,5.51651235 26.1945342,5.73225309 C26.177764,5.35385802 26.1106832,5.04583333 25.9948447,4.68564815 C25.3047826,2.86712963 24.1029193,1.68317901 22.4175155,0.752314815 C21.809441,0.438734568 21.1578882,0.203858025 20.4870807,0.0720679012 C20.9849068,0.506018519 21.4724845,0.951697531 21.9470186,1.41188272 M27.8215528,10.6649691 C29.2010559,9.70787037 28.3187578,6.56342593 27.8554037,5.35385802 C27.5547826,4.61589506 27.0665839,3.80972222 26.5818012,3.16682099 C26.5662733,5.12947531 27.4103727,8.91805556 27.8215528,10.6649691 M26.8361491,17.3760802 C26.9321118,17.3887346 27.006646,17.383179 27.101677,17.3606481 C28.7814907,16.900463 29.5001242,13.6029321 29.5625466,12.0720679 C29.5914286,11.2695988 29.5510559,10.5856481 29.4286957,9.79151235 C28.5054037,11.2976852 27.2398758,15.8992284 26.8361491,17.3760802 M24.1395652,21.4834877 C23.5821118,21.9970679 23.0224845,22.5087963 22.4640994,23.020216 C23.1877019,23.6597222 24.5463975,22.8878086 25.1942236,22.4770062 C26.1137888,21.8486111 26.7386335,21.1939815 27.4019876,20.3020062 C27.9690683,19.5195988 28.4554037,18.5905864 28.7942236,17.679784 C27.488323,18.2837963 25.1786957,20.5276235 24.1395652,21.4834877 M22.3681366,24.6134259 C21.6920497,24.6532407 21.0339752,24.7307099 20.3625466,24.8155864 C18.6485714,25.033179 16.9752795,25.2569444 15.2504348,25.4115741 C15.5640994,27.3973765 20.048882,26.541821 21.0678261,26.1807099 C22.0749689,25.8236111 23.0249689,25.3063272 23.8821118,24.6683642 C23.3914286,24.5822531 22.8647205,24.5871914 22.3681366,24.6134259 M27.4342857,10.7023148 C26.4836646,10.3131173 25.3330435,7.71867284 24.8302484,6.80787037 L23.8215528,5.12268519 C26.0861491,5.60262346 27.5364596,8.34212963 27.4342857,10.7023148 M26.5184472,17.2458333 C25.7091304,16.6729938 25.8898758,13.1100309 25.8299379,12.0720679 C25.7954658,11.4853395 25.7454658,10.9149691 25.6762112,10.3319444 C26.2597516,10.729784 26.7050932,11.4162037 26.9432919,12.0720679 C27.5498137,13.7976852 27.412236,15.650463 26.5184472,17.2458333 M23.9675155,21.3223765 C23.4495031,21.9390432 22.9709317,22.3563272 22.2808696,22.7739198 C21.9470186,22.0618827 22.5942236,20.958179 22.912236,20.3294753 C23.6591304,18.8516975 24.2519876,17.774537 24.8491925,16.204784 C25.0814907,16.5680556 25.209441,16.9878086 25.2541615,17.4134259 C25.3783851,18.9316358 24.883354,20.1334877 23.9675155,21.3223765 M20.8563354,22.224537 C20.601677,22.8087963 20.2979503,23.2069444 19.8364596,23.6455247 C18.4839752,24.8291667 17.0293168,25.228858 15.2504348,25.1248457 C15.4100621,24.066821 18.3041615,22.8094136 19.2603727,22.2239198 C19.8867702,21.8362654 20.4929814,21.420216 21.0746584,20.9683642 C21.1097516,21.3973765 21.0209317,21.8279321 20.8563354,22.224537"/>
      </g>
      <path id="Fill-11" fill="#000" d="M20.4372671,4.92530864 L18.9192547,8.6882716 C18.6124224,8.65709877 18.3018634,8.64012346 17.9872671,8.64012346 L17.9872671,8.64012346 C13.0145963,8.64012346 8.96925466,12.682716 8.96925466,17.6509259 L8.96925466,17.6509259 C8.96925466,22.6209877 13.0145963,26.6632716 17.9872671,26.6632716 L17.9872671,26.6632716 C18.647205,26.6632716 19.3055901,26.591358 19.9419255,26.45 L19.9419255,26.45 C23.2080745,25.7308642 25.7919255,23.2851852 26.6863354,20.067284 L26.6863354,20.067284 C26.9037267,19.2848765 27.0139752,18.4703704 27.0139752,17.6509259 L27.0139752,17.6509259 C27.0139752,13.287037 23.8888199,9.63703704 19.7549689,8.8154321 L19.7549689,8.8154321 L21.4158385,5.35277778 C21.4913043,5.18179012 21.4139752,4.98209877 21.2413043,4.90740741 L21.2413043,4.90740741 L20.8869565,4.75030864 C20.842236,4.73148148 20.7956522,4.72160494 20.7506211,4.72160494 L20.7506211,4.72160494 C20.6189441,4.72160494 20.4931677,4.79753086 20.4372671,4.92530864 M11.7934783,17.6509259 C11.7934783,14.3030864 14.4698758,11.5691358 17.7975155,11.4675926 L17.7975155,11.4675926 L16.6608696,14.2851852 C16.5798137,14.4694444 16.3223602,14.9666667 15.8667702,15.1759259 L15.8667702,15.1759259 C15.8568323,15.1802469 15.710559,15.232716 15.6975155,15.237037 L15.6975155,15.237037 C15.0006211,15.3808642 14.2692547,16.0438272 13.8475155,17.0021605 L13.8475155,17.0021605 C13.2680124,18.3175926 13.4913043,19.6895062 14.3453416,20.0657407 L14.3453416,20.0657407 C15.2009317,20.4416667 16.3639752,19.6805556 16.9434783,18.3654321 L16.9434783,18.3654321 C17.2878882,17.5833333 17.3490683,16.7820988 17.1621118,16.1814815 L17.1621118,16.1814815 C17.1192547,16.0459877 17.0642857,15.9203704 16.9965839,15.8058642 L16.9965839,15.8058642 C16.9909938,15.795679 16.9546584,15.7148148 16.9437888,15.6861111 L16.9437888,15.6861111 C16.7624224,15.1981481 16.9661491,14.6459877 17.0503106,14.4561728 L17.0503106,14.4561728 L18.4754658,11.4839506 C21.6677019,11.7333333 24.1897516,14.4037037 24.1897516,17.6509259 L24.1897516,17.6509259 C24.1897516,18.216358 24.1139752,18.7753086 23.9645963,19.3126543 L23.9645963,19.3126543 C23.3503106,21.5216049 21.5767081,23.1996914 19.3326087,23.6947531 L19.3326087,23.6947531 C18.8950311,23.7907407 18.4425466,23.8410494 17.9872671,23.8410494 L17.9872671,23.8410494 C14.5720497,23.8410494 11.7934783,21.0641975 11.7934783,17.6509259"/>
      <g id="Group" stroke="#000" stroke-width="2">
        <rect id="Rectangle-2" width="34" height="34" x="1" y="1" rx="8"/>
      </g>
    </g>
  </g>
</svg>
