<svg xmlns="http://www.w3.org/2000/svg" width="60" height="60" viewBox="0 0 60 60">
  <g id="Icon-/-local" fill="none" fill-rule="evenodd" stroke="none" stroke-width="1">
    <g id="Group">
      <rect id="Rectangle" width="60" height="60" x="0" y="0"/>
      <polygon id="Path-5" stroke="#000" points="21.25 39.5 38.75 39.5 34.566 34 25.48 34"/>
      <path id="Oval-4" fill="#000" stroke="#FFF" stroke-width=".75" d="M30,18.625 C31.7604076,18.625 33.3541576,19.3385462 34.5078057,20.4921943 C35.6614538,21.6458424 36.375,23.2395924 36.375,25 C36.375,28.2108519 30.862468,36.3135346 30.3468445,37.0653275 C29.3566081,36.6359433 29.2407523,36.4637423 29.1061608,36.2622733 C28.9168124,35.9788394 28.6896633,35.6346045 28.4371342,35.2439527 C28.0630547,34.6652677 27.63329,33.984736 27.188195,33.2491125 C26.5228052,32.1494002 25.8233648,30.9268051 25.2238208,29.7368701 C24.3004615,27.9042485 23.625,26.1449075 23.625,25 C23.625,23.2395924 24.3385462,21.6458424 25.4921943,20.4921943 C26.6458424,19.3385462 28.2395924,18.625 30,18.625 Z"/>
      <circle id="Oval-4" cx="30" cy="25" r="3" fill="#FFF"/>
      <rect id="Rectangle-2" width="34" height="34" x="1" y="1" stroke="#000" stroke-width="2" rx="8" transform="translate(12 12)"/>
    </g>
  </g>
</svg>
