<svg xmlns="http://www.w3.org/2000/svg" width="60" height="60" viewBox="0 0 60 60">
  <g id="Icon-/-nutrition" fill="none" fill-rule="evenodd" stroke="none" stroke-width="1">
    <g id="Group-2" transform="translate(12 12)">
      <g id="Group" stroke="#000" stroke-width="2">
        <rect id="Rectangle-2" width="34" height="34" x="1" y="1" rx="8"/>
      </g>
      <path id="Path-3" fill="#000" d="M15.6703569,29.3069449 C11.890119,27.8691931 10,25.5137435 10,22.240596 C10,17.9940625 12.1658013,17.5181782 14.4028919,13.8370957 C15.0464706,12.7781014 15.806822,10.4990695 16.6839463,7 C22.7177736,11.0461791 26.0189232,15.0454872 26.5873951,18.9979244 C27.155867,22.9503617 25.5819088,26.2649532 21.8655206,28.9416991 C23.2603486,25.4174757 23.6891603,22.6638107 23.1519558,20.6807041 C22.6147513,18.6975975 21.1094869,16.8540223 18.6361626,15.1499786 C17.8290533,17.2654892 17.1345115,18.7086761 16.5525374,19.4795393 C15.0855713,21.4226328 13.7816103,23.0140798 13.5518119,24.1109989 C13.1732831,25.9178666 13.8794648,27.6498486 15.6703569,29.3069449 Z"/>
    </g>
  </g>
</svg>
