<svg xmlns="http://www.w3.org/2000/svg" width="60" height="60" viewBox="0 0 60 60">
  <g id="Icon-/-season" fill="none" fill-rule="evenodd" stroke="none" stroke-width="1">
    <g id="Group" fill="#000" transform="translate(9 9)">
      <g id="0" transform="translate(6 7)">
        <path id="Path-4" d="M20.2514974,5.3659342 C19.6155872,6.17132667 19.0152477,6.21489648 18.072886,6.77638534 C17.8915223,6.88444752 17.6488503,7.08126508 17.3448698,7.36683803 C17.2740393,6.91949921 17.1855288,6.61841059 17.0793381,6.46357217 C16.8779197,6.1698805 16.5294345,5.76266501 16.4290868,5.29398757 C16.3352834,4.85587537 16.5345192,4.12078251 17.0267942,3.08870899 C16.1936702,3.70967546 15.6124196,4.32508492 15.2830426,4.93493735 C14.9536655,5.54478979 14.6926513,6.38008785 14.5,7.44083154 L17.2737022,7.8133342 L19.6401477,9.08528977 C19.6822466,8.69030929 19.742083,8.43777161 19.819657,8.32767672 C20.5907639,7.23330253 21.2382227,6.83350879 21.4287949,5.76266501 C21.5606045,5.02201382 21.3861276,3.93445881 20.9053641,2.5 C20.9028864,3.86167099 20.6849308,4.81698239 20.2514974,5.3659342 Z"/>
      </g>
      <g id="45" transform="rotate(45 9.55 25.243)">
        <path id="Path-4" d="M20.2514974,5.3659342 C19.6155872,6.17132667 19.0152477,6.21489648 18.072886,6.77638534 C17.8915223,6.88444752 17.6488503,7.08126508 17.3448698,7.36683803 C17.2740393,6.91949921 17.1855288,6.61841059 17.0793381,6.46357217 C16.8779197,6.1698805 16.5294345,5.76266501 16.4290868,5.29398757 C16.3352834,4.85587537 16.5345192,4.12078251 17.0267942,3.08870899 C16.1936702,3.70967546 15.6124196,4.32508492 15.2830426,4.93493735 C14.9536655,5.54478979 14.6926513,6.38008785 14.5,7.44083154 L17.2737022,7.8133342 L19.6401477,9.08528977 C19.6822466,8.69030929 19.742083,8.43777161 19.819657,8.32767672 C20.5907639,7.23330253 21.2382227,6.83350879 21.4287949,5.76266501 C21.5606045,5.02201382 21.3861276,3.93445881 20.9053641,2.5 C20.9028864,3.86167099 20.6849308,4.81698239 20.2514974,5.3659342 Z"/>
      </g>
      <g id="90" transform="rotate(90 14.5 21)">
        <path id="Path-4" d="M20.2514974,5.3659342 C19.6155872,6.17132667 19.0152477,6.21489648 18.072886,6.77638534 C17.8915223,6.88444752 17.6488503,7.08126508 17.3448698,7.36683803 C17.2740393,6.91949921 17.1855288,6.61841059 17.0793381,6.46357217 C16.8779197,6.1698805 16.5294345,5.76266501 16.4290868,5.29398757 C16.3352834,4.85587537 16.5345192,4.12078251 17.0267942,3.08870899 C16.1936702,3.70967546 15.6124196,4.32508492 15.2830426,4.93493735 C14.9536655,5.54478979 14.6926513,6.38008785 14.5,7.44083154 L17.2737022,7.8133342 L19.6401477,9.08528977 C19.6822466,8.69030929 19.742083,8.43777161 19.819657,8.32767672 C20.5907639,7.23330253 21.2382227,6.83350879 21.4287949,5.76266501 C21.5606045,5.02201382 21.3861276,3.93445881 20.9053641,2.5 C20.9028864,3.86167099 20.6849308,4.81698239 20.2514974,5.3659342 Z"/>
      </g>
      <g id="135" transform="rotate(135 16.55 19.243)">
        <path id="Path-4" d="M20.2514974,5.3659342 C19.6155872,6.17132667 19.0152477,6.21489648 18.072886,6.77638534 C17.8915223,6.88444752 17.6488503,7.08126508 17.3448698,7.36683803 C17.2740393,6.91949921 17.1855288,6.61841059 17.0793381,6.46357217 C16.8779197,6.1698805 16.5294345,5.76266501 16.4290868,5.29398757 C16.3352834,4.85587537 16.5345192,4.12078251 17.0267942,3.08870899 C16.1936702,3.70967546 15.6124196,4.32508492 15.2830426,4.93493735 C14.9536655,5.54478979 14.6926513,6.38008785 14.5,7.44083154 L17.2737022,7.8133342 L19.6401477,9.08528977 C19.6822466,8.69030929 19.742083,8.43777161 19.819657,8.32767672 C20.5907639,7.23330253 21.2382227,6.83350879 21.4287949,5.76266501 C21.5606045,5.02201382 21.3861276,3.93445881 20.9053641,2.5 C20.9028864,3.86167099 20.6849308,4.81698239 20.2514974,5.3659342 Z"/>
      </g>
      <g id="180" transform="rotate(180 18 18)">
        <path id="Path-4" d="M20.2514974,5.3659342 C19.6155872,6.17132667 19.0152477,6.21489648 18.072886,6.77638534 C17.8915223,6.88444752 17.6488503,7.08126508 17.3448698,7.36683803 C17.2740393,6.91949921 17.1855288,6.61841059 17.0793381,6.46357217 C16.8779197,6.1698805 16.5294345,5.76266501 16.4290868,5.29398757 C16.3352834,4.85587537 16.5345192,4.12078251 17.0267942,3.08870899 C16.1936702,3.70967546 15.6124196,4.32508492 15.2830426,4.93493735 C14.9536655,5.54478979 14.6926513,6.38008785 14.5,7.44083154 L17.2737022,7.8133342 L19.6401477,9.08528977 C19.6822466,8.69030929 19.742083,8.43777161 19.819657,8.32767672 C20.5907639,7.23330253 21.2382227,6.83350879 21.4287949,5.76266501 C21.5606045,5.02201382 21.3861276,3.93445881 20.9053641,2.5 C20.9028864,3.86167099 20.6849308,4.81698239 20.2514974,5.3659342 Z"/>
      </g>
      <g id="225" transform="rotate(-135 19.45 16.757)">
        <path id="Path-4" d="M20.2514974,5.3659342 C19.6155872,6.17132667 19.0152477,6.21489648 18.072886,6.77638534 C17.8915223,6.88444752 17.6488503,7.08126508 17.3448698,7.36683803 C17.2740393,6.91949921 17.1855288,6.61841059 17.0793381,6.46357217 C16.8779197,6.1698805 16.5294345,5.76266501 16.4290868,5.29398757 C16.3352834,4.85587537 16.5345192,4.12078251 17.0267942,3.08870899 C16.1936702,3.70967546 15.6124196,4.32508492 15.2830426,4.93493735 C14.9536655,5.54478979 14.6926513,6.38008785 14.5,7.44083154 L17.2737022,7.8133342 L19.6401477,9.08528977 C19.6822466,8.69030929 19.742083,8.43777161 19.819657,8.32767672 C20.5907639,7.23330253 21.2382227,6.83350879 21.4287949,5.76266501 C21.5606045,5.02201382 21.3861276,3.93445881 20.9053641,2.5 C20.9028864,3.86167099 20.6849308,4.81698239 20.2514974,5.3659342 Z"/>
      </g>
      <g id="270" transform="rotate(-90 21.5 15)">
        <path id="Path-4" d="M20.2514974,5.3659342 C19.6155872,6.17132667 19.0152477,6.21489648 18.072886,6.77638534 C17.8915223,6.88444752 17.6488503,7.08126508 17.3448698,7.36683803 C17.2740393,6.91949921 17.1855288,6.61841059 17.0793381,6.46357217 C16.8779197,6.1698805 16.5294345,5.76266501 16.4290868,5.29398757 C16.3352834,4.85587537 16.5345192,4.12078251 17.0267942,3.08870899 C16.1936702,3.70967546 15.6124196,4.32508492 15.2830426,4.93493735 C14.9536655,5.54478979 14.6926513,6.38008785 14.5,7.44083154 L17.2737022,7.8133342 L19.6401477,9.08528977 C19.6822466,8.69030929 19.742083,8.43777161 19.819657,8.32767672 C20.5907639,7.23330253 21.2382227,6.83350879 21.4287949,5.76266501 C21.5606045,5.02201382 21.3861276,3.93445881 20.9053641,2.5 C20.9028864,3.86167099 20.6849308,4.81698239 20.2514974,5.3659342 Z"/>
      </g>
      <g id="315" transform="rotate(-45 26.45 10.757)">
        <path id="Path-4" d="M20.2514974,5.3659342 C19.6155872,6.17132667 19.0152477,6.21489648 18.072886,6.77638534 C17.8915223,6.88444752 17.6488503,7.08126508 17.3448698,7.36683803 C17.2740393,6.91949921 17.1855288,6.61841059 17.0793381,6.46357217 C16.8779197,6.1698805 16.5294345,5.76266501 16.4290868,5.29398757 C16.3352834,4.85587537 16.5345192,4.12078251 17.0267942,3.08870899 C16.1936702,3.70967546 15.6124196,4.32508492 15.2830426,4.93493735 C14.9536655,5.54478979 14.6926513,6.38008785 14.5,7.44083154 L17.2737022,7.8133342 L19.6401477,9.08528977 C19.6822466,8.69030929 19.742083,8.43777161 19.819657,8.32767672 C20.5907639,7.23330253 21.2382227,6.83350879 21.4287949,5.76266501 C21.5606045,5.02201382 21.3861276,3.93445881 20.9053641,2.5 C20.9028864,3.86167099 20.6849308,4.81698239 20.2514974,5.3659342 Z"/>
      </g>
      <circle id="Oval-3" cx="21" cy="21.5" r="6.5"/>
      <circle id="Oval-3" cx="21" cy="21.5" r="6.75" stroke="#FFF" stroke-width=".75"/>
    </g>
    <g id="Group" stroke="#000" stroke-width="2" transform="translate(12 12)">
      <rect id="Rectangle-2" width="34" height="34" x="1" y="1" rx="8"/>
    </g>
    <rect id="Rectangle" width="60" height="60" x="0" y="0"/>
  </g>
</svg>
