<svg xmlns="http://www.w3.org/2000/svg" width="60" height="60" viewBox="0 0 60 60">
  <g id="Icon-/-water" fill="none" fill-rule="evenodd" stroke="none" stroke-width="1">
    <g id="Group-2" transform="translate(12 12)">
      <g id="Group" fill="#000" transform="translate(8 7)">
        <path id="Combined-Shape" d="M13.6919414,0 C13.2668433,1.23386906 13.0834043,2.14862667 13.1416242,2.74427284 C13.1980501,3.32156456 13.2631703,3.81781581 13.5256464,4.39334416 C14.0504296,5.54403028 14.4710451,5.69495782 16.9404529,7.97190203 C17.1039306,8.1226384 18.2956305,9.26401992 19.144811,10.795585 C19.8361113,12.0424003 20.1225027,13.6586955 19.9927937,14.927445 C19.7603749,17.2008514 18.4862588,19.0567175 16.1704453,20.4950432 L16.1609062,20.4936823 C14.498985,21.6866697 12.3651216,22.4037772 10.0378595,22.4037772 C5.93183997,22.4037772 2.42783202,20.1715636 1.05558513,17.0319488 L1.19792952,17.2874879 C0.427751979,15.9467277 0.0289829756,14.564793 0.00162250631,13.1416839 C-0.0351256895,11.2302879 0.560913104,9.9815805 0.920945796,9.32166062 L1.02578193,9.13275056 C1.07326415,9.04799528 1.11258259,8.97772497 1.14031731,8.92164874 C1.85835884,7.46985598 3.24945502,6.20461356 4.26964139,5.30724166 C5.27339897,4.42432078 6.72806856,3.18507232 8.84933002,2.06063175 C9.75030351,1.58304274 11.3645073,0.896165494 13.6919414,0 Z"/>
      </g>
      <g id="Group" stroke="#000" stroke-width="2">
        <rect id="Rectangle-2" width="34" height="34" x="1" y="1" rx="8"/>
      </g>
    </g>
    <rect id="Rectangle" width="60" height="60" x="0" y="0"/>
  </g>
</svg>
