<svg xmlns="http://www.w3.org/2000/svg" width="200" height="200" viewBox="0 0 200 200">
  <g id="Animal-Icon-vegan-grey" fill="none" fill-opacity=".2" fill-rule="evenodd" stroke="none" stroke-width="1">
    <path id="Fill-60" fill="#161717" d="M122.669307,33.64 C70.349307,52.92 54.849307,71.04 45.909307,92.21 C38.899307,108.81 41.319307,128.32 53.149307,150.76 C57.099307,144.66 60.329307,140.6 62.839307,138.58 C80.549307,124.31 97.179307,109.63 104.479307,100.51 C113.359307,89.41 121.249307,75.17 128.129307,57.8 C120.749307,81.27 112.099307,98.87 102.179307,110.59 C81.899307,134.56 70.349307,136.89 62.069307,150.76 C56.549307,160 53.579307,169.9 53.149307,180.44 L62.839307,176.47 C62.579307,174.74 62.989307,172.28 64.079307,169.1 C65.159307,165.91 67.139307,161.37 70.029307,155.47 C108.769307,157.32 135.179307,144.28 149.279307,116.36 C163.379307,88.43 160.569307,56.31 140.849307,20 C134.579307,26.94 128.519307,31.48 122.669307,33.64"/>
  </g>
</svg>
