<svg xmlns="http://www.w3.org/2000/svg" width="200" height="200" viewBox="0 0 200 200">
  <g id="Animal-Icon-Color" fill="none" fill-rule="evenodd" stroke="none" stroke-width="1">
    <g id="cow" fill="#161717" transform="translate(12 24)">
      <path id="Fill-10" d="M112.45,75.779198 C109.75,75.779198 107.56,73.589198 107.56,70.889198 C107.56,68.189198 109.75,65.999198 112.45,65.999198 C115.15,65.999198 117.34,68.189198 117.34,70.889198 C117.34,73.589198 115.15,75.779198 112.45,75.779198 M107.56,124.309198 C105.12,134.079198 95.34,138.969198 88,138.969198 C80.67,138.969198 70.89,134.079198 68.45,124.309198 C66.67,117.189198 70.89,112.079198 75.78,107.189198 C80.67,102.309198 80.67,87.639198 80.67,85.189198 C80.67,82.749198 80.67,70.529198 75.78,63.189198 C70.89,55.859198 63.56,55.859198 63.56,41.189198 C63.56,26.529198 88,24.079198 88,24.079198 C88,24.079198 112.45,26.529198 112.45,41.189198 C112.45,55.859198 105.12,55.859198 100.23,63.189198 C95.34,70.529198 95.34,82.749198 95.34,85.189198 C95.34,87.639198 95.34,102.309198 100.23,107.189198 C105.12,112.079198 109.34,117.189198 107.56,124.309198 M63.56,75.779198 C60.86,75.779198 58.67,73.589198 58.67,70.889198 C58.67,68.189198 60.86,65.999198 63.56,65.999198 C66.26,65.999198 68.45,68.189198 68.45,70.889198 C68.45,73.589198 66.26,75.779198 63.56,75.779198 M151.56,28.969198 C144.23,28.969198 124.67,39.329198 124.67,33.859198 C124.67,31.409198 134.45,31.409198 139.34,26.529198 C144.23,21.639198 146.67,11.859198 144.23,4.52919799 C139.72,-9.00080201 134.45,11.859198 127.12,14.299198 C123.84,15.399198 114.89,19.189198 107.56,16.749198 C99.2,13.959198 92.89,11.859198 88,11.859198 C83.12,11.859198 76.81,13.959198 68.45,16.749198 C61.11,19.189198 52.17,15.399198 48.89,14.299198 C41.56,11.859198 36.29,-9.00080201 31.78,4.52919799 C29.34,11.859198 31.78,21.639198 36.67,26.529198 C41.56,31.409198 51.34,31.409198 51.34,33.859198 C51.34,39.329198 31.78,28.969198 24.45,28.969198 C12.23,28.969198 0,36.299198 0,43.639198 C0,48.529198 7.34,55.859198 22,55.859198 C36.87,55.859198 41.56,43.639198 44,50.969198 C44,50.969198 41.31,72.729198 53.78,85.189198 C61.11,92.529198 58.67,102.309198 56.23,107.189198 C53.78,112.079198 50.44,131.579198 63.56,141.419198 C73.34,148.749198 81.99,151.199198 88,151.199198 C94.02,151.199198 102.67,148.749198 112.45,141.419198 C125.57,131.579198 122.23,112.079198 119.78,107.189198 C117.34,102.309198 114.89,92.529198 122.23,85.189198 C134.69,72.729198 132.01,50.969198 132.01,50.969198 C134.45,43.639198 139.13,55.859198 154.01,55.859198 C168.67,55.859198 176.01,48.529198 176.01,43.639198 C176.01,36.299198 163.79,28.969198 151.56,28.969198"/>
      <path id="Fill-12" d="M76.9,121.391198 C75.21,121.391198 73.83,122.771198 73.83,124.461198 C73.83,126.161198 75.21,127.541198 76.9,127.541198 C83.04,127.541198 80.88,132.651198 83.04,132.651198 C85.1,132.651198 85.1,121.391198 76.9,121.391198"/>
      <path id="Fill-14" d="M93.397,132.654198 C95.567,132.654198 93.397,127.534198 99.537,127.534198 C101.237,127.534198 102.617,126.164198 102.617,124.464198 C102.617,122.764198 101.237,121.394198 99.537,121.394198 C91.347,121.394198 91.347,132.654198 93.397,132.654198"/>
    </g>
  </g>
</svg>
