<svg xmlns="http://www.w3.org/2000/svg" width="200" height="200" viewBox="0 0 200 200">
  <g id="Climate-Icon-Inverted" fill="none" fill-rule="evenodd" stroke="none" stroke-width="1">
    <path id="Fill-90" fill="#FFF" d="M104.24,93.99 C98.86,93.99 95.26,98.35 95.26,103.48 L95.26,103.59 C95.26,108.71 98.96,113.18 104.35,113.18 C109.77,113.18 113.37002,108.82 113.37002,103.69 L113.37002,103.59 C113.38,98.45 109.67,93.99 104.24,93.99 L104.24,93.99 Z M150.15,129.87 L127.1,129.87 L127.1,123.8 L138,115.48 C140.7,113.36 141.74,111.98 141.74,110.24 C141.74,108.42 140.45,107.29 138.5,107.29 C136.54,107.29 135,108.42 132.71,111.02 L127.27,106.49 C130.38,102.46 133.46,100.25 139.12,100.25 C145.48,100.25 149.84,104.04 149.84,109.53 L149.84,109.61 C149.84,114.27 147.42,116.7 143.11,119.8 L138.12,123.29 L150.14,123.29 L150.15,129.87 Z M123.43,103.58 C123.43,113.78 115.2,122.05 104.24,122.05 C93.28,122.05 85.15,113.89 85.15,103.68 L85.15,103.58 C85.15,93.38 93.38,85.11 104.34,85.11 C115.3,85.11 123.43,93.27 123.43,103.48 L123.43,103.58 Z M67.42,122.05 C57.27,122.05 49.11,114.29 49.11,103.68 L49.11,103.58 C49.11,93.22 57.07,85.11 67.83,85.11 C75.09,85.11 79.76,88.15 82.91,92.52 L75.5,98.25 C73.47,95.72 71.14,94.09 67.74,94.09 C62.76,94.09 59.26,98.3 59.26,103.48 L59.26,103.59 C59.26,108.92 62.76,113.08 67.74,113.08 C71.44,113.08 73.62,111.34 75.75,108.75 L83.16,114.03 C79.82,118.66 75.29,122.05 67.42,122.05 L67.42,122.05 Z M166.67,88.88 C167,86.97 167.21,85.01 167.21,83.01 C167.21,64.37 152.09,49.27 133.46,49.27 C127.84,49.27 122.55,50.67 117.89,53.1 C111.26,43.38 100.12,37 87.46,37 C67.13,37 50.67,53.48 50.67,73.8 C50.67,73.86 50.68,73.91 50.68,73.96 C33.47,75.5 20,89.93 20,107.54 C20,126.17 35.09,141.26 53.74,141.26 C54.6,141.26 55.44,141.2 56.28,141.14 C66.38,154.05 82.07,162.39 99.74,162.39 C111.78,162.39 122.88,158.49 131.95,151.94 C135.34,152.97 138.94,153.54 142.66,153.54 C163,153.54 179.47,137.07 179.47,116.73 C179.47,105.59 174.5,95.62 166.67,88.88 L166.67,88.88 Z"/>
  </g>
</svg>
