<svg xmlns="http://www.w3.org/2000/svg" width="200" height="200" viewBox="0 0 200 200">
  <g id="Tree-Icon-Color" fill="none" fill-rule="evenodd" stroke="none" stroke-width="1">
    <path id="Fill-48" fill="#008D36" d="M172.67,95.88 C172.67,87.85 167.38,81.11 160.22,79.17 C158.75,73.39 154.47,68.78 148.98,67.04 C149.77,65.02 150.22,62.82 150.22,60.51 C150.22,50.97 142.74,43.22 133.53,43.22 C130.55,43.22 127.77,44.04 125.35,45.45 C122.54,40.45 117.39,37.05 111.45,36.86 C108.8,29.92 102.28,25 94.63,25 C89.13,25 84.21,27.55 80.89,31.56 C79.82,31.33 78.71,31.22 77.56,31.22 C69.8,31.22 63.29,36.72 61.43,44.16 C59.54,43.38 57.48,42.94 55.33,42.94 C46.11,42.94 38.64,50.69 38.64,60.24 C38.64,60.67 38.67,61.1 38.7,61.52 C32.05,63.8 27.25,70.28 27.25,77.94 C27.25,86.42 33.14,93.46 40.92,94.94 C39.71,97.08 38.93,99.51 38.72,102.11 C31.93,104.3 27,110.87 27,118.62 C27,128.17 34.47,135.91 43.69,135.91 C44.07,135.91 44.44,135.88 44.82,135.86 C47.01,142.77 53.27,147.76 60.67,147.76 C65.81,147.76 70.4,145.35 73.46,141.56 C74.85,141.88 76.29,142.05 77.77,142.05 C81.57,142.05 85.11,140.93 88.13,139.02 C89.79,139.6 91.56,139.93 93.42,139.93 C96.52,139.93 99.43,139.02 101.92,137.48 C104.32,139.53 107.38,140.76 110.73,140.76 C115.02,140.76 118.86,138.73 121.41,135.54 C123.11,136.02 124.88,136.29 126.72,136.29 C130.2,136.29 133.48,135.39 136.35,133.8 C139.3,138.66 144.51,141.91 150.47,141.91 C159.68,141.91 167.16,134.17 167.16,124.61 C167.16,119.65 165.12,115.19 161.89,112.04 C168.19,109.56 172.67,103.27 172.67,95.88"/>
    <path id="Fill-50" fill="#008D36" d="M133.41974,167.66 C133.41974,167.66 130.59974,165.65 126.30974,165.87 C122.01974,166.09 119.13974,164.81 117.49974,163.74 C115.84974,162.68 115.38974,158.76 115.49974,156.92 C115.61974,155.07 115.90974,147.32 115.90974,147.32 L116.44974,146.78 C114.61974,147.61 112.56974,148.08 110.39974,148.08 C106.97974,148.08 103.83974,146.92 101.38974,145 C98.8497396,146.45 95.8797396,147.29 92.6897396,147.29 C90.8697396,147.29 89.1197396,147 87.4697396,146.5 L87.2397396,147.12 C87.4697396,148.58 87.6497396,154.45 87.6497396,154.45 C87.6497396,154.45 87.7697396,159.71 84.0097396,161.84 C80.2497396,163.97 70.9697396,164.36 70.9697396,164.36 C70.9697396,164.36 64.5597396,164.41 64.0497396,169.51 C63.5397396,174.6 67.1197396,175.09 67.1197396,175.09 L132.94974,175.09 C132.94974,175.09 134.58974,175.27 135.41974,172.47 C136.23974,169.67 133.41974,167.66 133.41974,167.66"/>
  </g>
</svg>
