<?xml version="1.0" encoding="utf-8"?>
<!-- Generator: Adobe Illustrator 19.0.0, SVG Export Plug-In . SVG Version: 6.00 Build 0)  -->
<!DOCTYPE svg PUBLIC "-//W3C//DTD SVG 1.1//EN" "http://www.w3.org/Graphics/SVG/1.1/DTD/svg11.dtd">
<svg version="1.1" id="Ebene_1" xmlns="http://www.w3.org/2000/svg" xmlns:xlink="http://www.w3.org/1999/xlink" x="0px" y="0px"
	 width="184.3px" height="93.3px" viewBox="0 0 184.3 93.3" style="enable-background:new 0 0 184.3 93.3;" xml:space="preserve">
<style type="text/css">
	.st0{fill:#12596D;}
</style>
<g id="XMLID_145_">
	<path id="XMLID_181_" class="st0" d="M143,43.6h-17.1c-0.3,0-0.6-0.3-0.6-0.6V13.8c0-0.3,0.3-0.6,0.6-0.6h3.2
		c0.3,0,0.6,0.3,0.6,0.6V18h-1.2v-3.6h-2v28h15.9v-1.7h-13.3c-0.3,0-0.6-0.3-0.6-0.6V25.7h1.2v13.7H143c0.3,0,0.6,0.3,0.6,0.6V43
		C143.6,43.3,143.3,43.6,143,43.6z"/>
	<path id="XMLID_179_" class="st0" d="M94.1,80.8h-3.3c-0.3,0-0.6-0.3-0.6-0.6V50.9c0-0.3,0.3-0.6,0.6-0.6c0.3,0,0.7,0,1,0
		c0.7,0,1.4,0,2,0c1.2-0.1,2.1,0.3,2.7,1.5c3.6,6.2,6.8,11.7,9.8,16.9c0.7,1.2,1.6,2.5,2.4,3.6c0.4,0.5,0.8,1.1,1.1,1.7l-1,0.7
		c-0.4-0.5-0.7-1.1-1.1-1.6c-0.8-1.2-1.7-2.4-2.4-3.7c-3-5.1-6.3-10.7-9.8-16.9c-0.4-0.7-0.8-0.9-1.6-0.9c-0.7,0.1-1.4,0.1-2.1,0
		c-0.1,0-0.2,0-0.4,0v28.1h2.2V56.1h1.2v24.1C94.7,80.5,94.4,80.8,94.1,80.8z"/>
	<path id="XMLID_177_" class="st0" d="M77.5,44.2c-3.9,0-8.3-1.6-10.3-6.2c-2.4-5.6-2.6-11.4-0.6-17.9c1.3-4.2,4.2-6.1,6.5-6.9
		c3.7-1.4,8.2-0.9,11.3,1c4.4,2.8,5.3,7.4,5.7,12c0.3,4.3-0.3,8.3-1.7,12l-1.1-0.4c1.4-3.5,2-7.4,1.6-11.5
		c-0.4-4.9-1.4-8.7-5.1-11.1c-2.8-1.8-6.9-2.2-10.3-0.9c-2,0.7-4.6,2.4-5.8,6.1c-1.9,6.2-1.7,11.8,0.6,17.1c2.1,4.9,7.2,5.9,11,5.4
		c0.7-0.1,1.3-0.2,2-0.2l0.9-0.1l0.1,1.2l-0.9,0.1c-0.6,0.1-1.3,0.1-1.9,0.2C78.9,44.2,78.2,44.2,77.5,44.2z"/>
	<path id="XMLID_175_" class="st0" d="M143.7,80.8h-20.1c-0.3,0-0.6-0.3-0.6-0.6v-2.9h1.2v2.3h18.9v-1.7h-16.2
		c-0.3,0-0.6-0.3-0.6-0.6V65.7c0-0.3,0.3-0.6,0.6-0.6h14.2v-1.7h-1.3v-1.2h1.9c0.3,0,0.6,0.3,0.6,0.6v2.9c0,0.3-0.3,0.6-0.6,0.6
		h-14.2v10.4h16.2c0.3,0,0.6,0.3,0.6,0.6v2.9C144.3,80.5,144,80.8,143.7,80.8z"/>
	<path id="XMLID_173_" class="st0" d="M37.6,38.5c0-0.1-0.1-0.1-0.1-0.1c-0.1-0.1-0.3-0.3-0.4-0.5c-1.9-4.5-2.3-9.6-1.1-15.7
		c0.6-3.1,1.9-5.4,3.9-7.1c2.4-2,5.5-2.9,9.2-2.6c5.3,0.4,9.1,3.6,10.3,8.6c0.1,0.6-0.1,1.6-0.7,1.9c-0.6,0.3-1.2,0.6-1.9,0.8
		c-0.2,0.1-0.5,0.2-0.7,0.2c-0.2,0.1-0.3,0-0.5,0c-0.1-0.1-0.3-0.2-0.3-0.4L55.2,23c-0.1-0.4-0.2-0.8-0.3-1.2
		c-1-3.2-3.2-4.9-6.4-5.1c-3.3-0.2-5.6,0.8-6.8,3.1c-0.6,1.2-0.9,2.5-1.2,3.9c-0.1,0.6-0.3,1.3-0.4,1.9l-1.1-0.3
		c0.2-0.6,0.3-1.2,0.4-1.9c0.3-1.4,0.6-2.9,1.3-4.2c1.4-2.7,4.1-4,7.9-3.8c3.8,0.2,6.4,2.3,7.5,6c0.1,0.4,0.2,0.9,0.3,1.3l0,0
		c0,0,0.1,0,0.1,0c0.6-0.2,1.2-0.4,1.7-0.7c0.1-0.1,0.2-0.4,0.1-0.6c-1.1-4.5-4.5-7.3-9.3-7.7c-3.5-0.3-6.2,0.5-8.4,2.3
		c-1.8,1.5-2.9,3.6-3.5,6.4c-1.1,5.8-0.8,10.6,1.1,15c0,0.1,0.1,0.2,0.2,0.2c0.1,0.1,0.1,0.1,0.2,0.2L37.6,38.5z"/>
	<path id="XMLID_171_" class="st0" d="M124.1,69H123V51c0-0.3,0.3-0.6,0.6-0.6h19.7c0.3,0,0.6,0.3,0.6,0.6v2.9
		c0,0.3-0.3,0.6-0.6,0.6h-15.8v7.7h4.6v1.2h-5.2c-0.3,0-0.6-0.3-0.6-0.6v-8.9c0-0.3,0.3-0.6,0.6-0.6h15.8v-1.7h-18.5V69z"/>
	<path id="XMLID_169_" class="st0" d="M65.6,80.8h-3.1c-0.3,0-0.6-0.3-0.6-0.6v-11h1.2v10.4H65V51.5c-0.3,0-0.7-0.1-1-0.1
		c-1.1-0.1-2.1-0.2-2.7,0.2c-0.7,0.5-1.1,1.8-1.5,3c-0.1,0.4-0.3,0.8-0.4,1.2c-1.2,3.4-2.5,6.7-3.7,10.1c-0.8,2.1-1.5,4.2-2.3,6.4
		c-0.1,0.4-0.3,0.7-0.5,1.1c-0.1,0.1-0.2,0.3-0.2,0.4l-1.1-0.5c0.1-0.2,0.2-0.3,0.2-0.5c0.2-0.3,0.3-0.6,0.4-0.9
		c0.8-2.1,1.5-4.2,2.3-6.4c1.2-3.4,2.4-6.7,3.7-10.1c0.1-0.4,0.3-0.7,0.4-1.1c0.4-1.4,0.9-2.8,1.9-3.6c0.9-0.7,2.2-0.5,3.5-0.4
		c0.5,0.1,1,0.1,1.5,0.1c0.3,0,0.6,0.3,0.6,0.6v29.3C66.2,80.5,65.9,80.8,65.6,80.8z"/>
	<path id="XMLID_167_" class="st0" d="M41.5,80.8h-3.1c-0.3,0-0.6-0.3-0.6-0.6V50.9c0-0.3,0.3-0.6,0.6-0.6h4.1v1.2H39v28.1h1.9
		l0-5.6c0-5.2,0-10.3,0-15.5c0-0.4,0.1-0.8,0.2-1.2c0-0.2,0.1-0.3,0.1-0.5l1.2,0.2c0,0.2-0.1,0.3-0.1,0.5c-0.1,0.3-0.2,0.7-0.2,0.9
		c0,5.2,0,10.3,0,15.5l0,6.2C42.1,80.5,41.8,80.8,41.5,80.8z"/>
	<path id="XMLID_165_" class="st0" d="M79,80.8h-3.3c-0.3,0-0.6-0.3-0.6-0.6v-8.9h1.2v8.4h2.2V51.5h-2.2v12H75V50.9
		c0-0.3,0.3-0.6,0.6-0.6H79c0.3,0,0.6,0.3,0.6,0.6v29.3C79.5,80.5,79.3,80.8,79,80.8z"/>
	<path id="XMLID_163_" class="st0" d="M77.6,41.3c-3.6,0-6.1-1.6-7.3-4.6c-2-5.2-2.1-10.5-0.1-16.4c0.8-2.4,2.9-4,5.9-4.6
		c3.2-0.6,6.3,0.3,7.9,2.2c1.8,2.2,2.3,4.6,2.7,7.5l-1.2,0.1c-0.3-2.7-0.8-4.9-2.4-6.9c-1.3-1.6-4.1-2.3-6.8-1.8
		c-2.5,0.5-4.3,1.9-5,3.8c-1.9,5.6-1.8,10.7,0.1,15.6c1.1,2.8,3.6,4.1,7.3,3.8c2.9-0.3,4.8-1.8,5.9-4.6c0.2-0.5,0.4-0.9,0.6-1.4
		l0.3-0.6l1.1,0.5l-0.3,0.6c-0.2,0.4-0.4,0.9-0.6,1.4c-1.2,3.3-3.6,5.1-6.9,5.4C78.4,41.2,78,41.3,77.6,41.3z"/>
	<path id="XMLID_161_" class="st0" d="M110.5,80.9c-1.5,0-2.6-0.8-3.6-2.5c-2.2-3.9-4.5-7.8-6.8-11.6c-0.9-1.5-1.8-3-2.7-4.5l1-0.6
		c0.9,1.5,1.8,3,2.7,4.5c2.3,3.8,4.6,7.7,6.8,11.6c0.9,1.6,1.8,2.1,3.3,1.8c0.3-0.1,0.7,0,1,0V51.5h-0.9v-1.2h1.5
		c0.3,0,0.6,0.3,0.6,0.6v29.3c0,0.3-0.3,0.6-0.6,0.6c-0.2,0-0.4,0-0.5,0c-0.3,0-0.6,0-0.9,0C111.1,80.9,110.8,80.9,110.5,80.9z"/>
	<path id="XMLID_159_" class="st0" d="M52,80.9c-1.5,0-1.9-1-2.2-1.8C47.9,73.8,46,68.5,44,63.3c-0.7-1.8-1.4-3.6-2.1-5.5l-0.9-2.4
		l1.1-0.4l0.9,2.4c0.7,1.8,1.4,3.6,2.1,5.5c2,5.2,3.9,10.5,5.8,15.7c0.3,0.9,0.4,1.1,1.1,1.1c0.7,0,0.8-0.2,1.1-1.1
		c2-5.6,4-11.2,6-16.7l1.9-5.1l1.1,0.4l-1.9,5.1c-2,5.4-4.1,11.1-6,16.6c-0.3,1-0.6,1.8-2.2,1.9C52.1,80.9,52.1,80.9,52,80.9z"/>
	<path id="XMLID_157_" class="st0" d="M116.1,43.7c-1.2,0-2-0.7-2.4-2.1c-0.2-0.6-0.4-1.2-0.6-1.8c-0.3-0.7-0.6-1.5-0.7-2.3
		c-0.1-0.5-0.2-0.5-0.9-0.5l-1.8,0c-2.6,0-5.2,0-7.9,0c-0.7,0-0.8,0.1-1,0.7c-0.4,1.4-0.9,2.9-1.6,4.8c-0.2,0.5-0.8,1-1.3,1.1
		c-0.7,0.1-1.3,0.1-2.1,0c-0.3,0-0.6,0-0.9,0c-0.2,0-0.4-0.1-0.5-0.3c-0.1-0.2-0.1-0.4-0.1-0.5l3.7-10.7l1.1,0.4l-3.5,10
		c0,0,0.1,0,0.1,0c0.7,0,1.3,0,1.9,0c0.1,0,0.3-0.2,0.3-0.3c0.7-1.9,1.2-3.3,1.6-4.7c0.3-1.1,1-1.6,2.2-1.6c2.6,0,5.3,0,7.8,0l1.8,0
		c0.7,0,1.7,0,2,1.5c0.2,0.7,0.4,1.4,0.7,2.1c0.2,0.6,0.5,1.3,0.7,1.9c0.3,1,0.7,1.3,1.6,1.1c0.4-0.1,0.7-0.1,1.1,0l-3.9-10.9
		c-0.6-1.5-1.1-3.1-1.7-4.6c-1.4-4-2.9-8.1-4.3-12.1c-0.2-0.5-0.2-0.5-0.8-0.4c-0.3,0-0.6,0-0.9,0c-0.5-0.1-0.6-0.1-0.7,0.4
		c-0.8,2.6-1.7,5.2-2.6,7.7c-0.4,1-0.7,2-1.1,3l-1.1-0.4c0.3-1,0.7-2,1.1-3c0.9-2.5,1.8-5.1,2.6-7.6c0.4-1.4,1.5-1.3,2-1.3
		c0.2,0,0.4,0,0.6,0c0.5-0.1,1.5-0.2,2,1.2c1.4,4.1,2.8,8.1,4.3,12.1c0.6,1.5,1.1,3.1,1.7,4.6l4.2,11.7c0.1,0.2,0,0.4-0.1,0.5
		c-0.3,0.4-0.8,0.3-1.2,0.2c-0.4,0-0.8,0-1.1,0C116.5,43.7,116.3,43.7,116.1,43.7z"/>
	<path id="XMLID_155_" class="st0" d="M48.1,44.2c-1.4,0-2.9-0.2-4.3-0.6l0.3-1.2c3.7,1,7.4,0.6,10-1.1c2.2-1.4,3.8-3.7,4.4-6.7
		l-2-0.8c-0.1,0.2-0.2,0.4-0.2,0.6c-0.7,3.5-2.8,5.7-5.9,6.4c-4.3,0.9-7.4-0.1-9.4-3.1c-0.6-1-1-2.1-1.3-3.1
		c-0.2-0.5-0.3-0.9-0.5-1.4l1.1-0.4c0.2,0.5,0.3,1,0.5,1.5c0.3,1,0.7,2,1.2,2.8c1.7,2.5,4.4,3.4,8.1,2.6c3.4-0.7,4.6-3.4,5-5.5
		c0.1-0.3,0.2-0.6,0.3-0.9c0.1-0.1,0.1-0.3,0.2-0.4c0.1-0.2,0.2-0.3,0.3-0.3c0.1-0.1,0.3-0.1,0.5,0l3,1.2c0.3,0.1,0.4,0.4,0.4,0.7
		c-0.6,3.5-2.3,6.2-5,7.9C52.8,43.6,50.5,44.2,48.1,44.2z"/>
	<path id="XMLID_153_" class="st0" d="M110.2,75H109V57.5h1.2V75z"/>
	<path id="XMLID_151_" class="st0" d="M51.6,74.8c0-0.2-0.1-0.3-0.1-0.5c0-0.3-0.1-0.6-0.2-0.9c-1.5-4.2-3-8.4-4.5-12.5l-1.3-3.5
		l1.1-0.4l1.3,3.5c1.5,4.2,3,8.4,4.5,12.5c0.1,0.4,0.2,0.7,0.2,1.1c0,0.1,0,0.3,0.1,0.4L51.6,74.8z"/>
	<path id="XMLID_148_" class="st0" d="M111.6,34h-9.9c-0.2,0-0.4-0.1-0.5-0.2c-0.1-0.2-0.1-0.4-0.1-0.5l0.4-1.2
		c0.3-0.9,0.6-1.9,1-2.8c0.8-2.3,1.6-4.7,2.3-7c0.1-0.5,0.4-1,0.6-1.4c0.4-0.9,0.8-1.7,0.6-2.6l1.1-0.3c0.2,0.7,0.1,1.4-0.1,2
		l0.5-0.2l4.7,13.5c0.1,0.2,0,0.4-0.1,0.5C112,33.9,111.8,34,111.6,34z M102.5,32.8h8.3l-4.1-12c-0.1,0.1-0.1,0.3-0.2,0.4
		c-0.2,0.4-0.4,0.8-0.5,1.2c-0.7,2.4-1.5,4.8-2.3,7.1c-0.3,0.9-0.6,1.9-1,2.8L102.5,32.8z"/>
	<path id="XMLID_146_" class="st0" d="M61.9,61.8L61.6,57l1.2-0.1l0.3,4.9L61.9,61.8z"/>
</g>
</svg>
