<?xml version="1.0" encoding="utf-8"?>
<!-- Generator: Adobe Illustrator 19.0.0, SVG Export Plug-In . SVG Version: 6.00 Build 0)  -->
<!DOCTYPE svg PUBLIC "-//W3C//DTD SVG 1.1//EN" "http://www.w3.org/Graphics/SVG/1.1/DTD/svg11.dtd">
<svg version="1.1" id="Ebene_1" xmlns="http://www.w3.org/2000/svg" xmlns:xlink="http://www.w3.org/1999/xlink" x="0px" y="0px"
	 width="276.4px" height="93.3px" viewBox="0 0 276.4 93.3" style="enable-background:new 0 0 276.4 93.3;" xml:space="preserve">
<style type="text/css">
	.st0{fill:#12596D;}
</style>
<g id="XMLID_359_">
	<path id="XMLID_382_" class="st0" d="M46.2,37.3H35.1V44h10.8v4H35.1v9.3h11.1v4H30.9V33.3h15.3V37.3z"/>
	<path id="XMLID_379_" class="st0" d="M81.1,61.8h-5.3l-2.2-2.2c-2.3,1.5-4.9,2.2-7.7,2.2c-3.7,0-6.9-1.3-9.8-3.8
		c-3.1-2.8-4.7-6.3-4.7-10.6c0-4.2,1.5-7.7,4.4-10.5c2.9-2.7,6.2-4.1,10.1-4.1c3.5,0,6.7,1.2,9.5,3.6c3.4,2.9,5,6.6,5,11.2
		c0,3.6-1.3,6.8-4,9.6L81.1,61.8z M69.6,50.2l4,4c1.8-1.9,2.7-4.1,2.7-6.9c0-3-1-5.5-3-7.5c-2-2-4.4-3-7.4-3c-3,0-5.4,1-7.3,3
		c-1.9,2-2.9,4.6-2.9,7.6c0,3,1,5.5,3,7.4c2.1,2,4.4,3,7.1,3c1.8,0,3.4-0.4,4.9-1.2l-6.5-6.4H69.6z"/>
	<path id="XMLID_377_" class="st0" d="M91,33.3v16.8c0,2.4,0.4,4.1,1.2,5.3c1.2,1.6,2.8,2.4,4.9,2.4c2.1,0,3.8-0.8,4.9-2.4
		c0.8-1.1,1.2-2.8,1.2-5.3V33.3h4.2v18c0,2.9-0.9,5.4-2.7,7.3c-2,2.1-4.6,3.2-7.5,3.2c-3,0-5.5-1.1-7.5-3.2
		c-1.8-1.9-2.7-4.3-2.7-7.3v-18H91z"/>
	<path id="XMLID_375_" class="st0" d="M119.3,33.3v27.9h-4.2V33.3H119.3z"/>
	<path id="XMLID_373_" class="st0" d="M123.8,50.5h8v3.5h-8V50.5z"/>
	<path id="XMLID_371_" class="st0" d="M144.3,37.3v23.9h-4.2V37.3h-6.4v-4h16.9v4H144.3z"/>
	<path id="XMLID_368_" class="st0" d="M170.3,54.5h-11.9l-3.1,6.8h-4.5l13.7-29.6l13.2,29.6h-4.6L170.3,54.5z M168.6,50.5l-4.1-9.5
		l-4.3,9.5H168.6z"/>
	<path id="XMLID_364_" class="st0" d="M182.3,61.2V33.3h4.2c1.9,0,3.3,0.1,4.4,0.4c1.1,0.3,2.1,0.8,2.8,1.5c0.8,0.7,1.4,1.6,1.9,2.7
		c0.5,1.1,0.7,2.2,0.7,3.3c0,2-0.8,3.7-2.3,5.1c1.5,0.5,2.6,1.4,3.5,2.7c0.9,1.3,1.3,2.7,1.3,4.4c0,2.2-0.8,4-2.3,5.5
		c-0.9,0.9-2,1.6-3.1,1.9c-1.3,0.3-2.8,0.5-4.7,0.5H182.3z M186.5,45.3h1.3c1.6,0,2.7-0.3,3.4-1c0.7-0.7,1.1-1.7,1.1-3.1
		c0-1.3-0.4-2.3-1.1-3c-0.7-0.7-1.8-1-3.2-1h-1.5V45.3z M186.5,57.3h2.6c1.9,0,3.3-0.4,4.2-1.1c0.9-0.8,1.4-1.8,1.4-3.1
		c0-1.2-0.4-2.2-1.3-3c-0.9-0.8-2.4-1.2-4.7-1.2h-2.1V57.3z"/>
	<path id="XMLID_362_" class="st0" d="M209.4,33.3v23.9h8.2v4h-12.3V33.3H209.4z"/>
	<path id="XMLID_360_" class="st0" d="M237.9,37.3h-11.1V44h10.8v4h-10.8v9.3h11.1v4h-15.3V33.3h15.3V37.3z"/>
</g>
</svg>
