<?xml version="1.0" encoding="utf-8"?>
<!-- Generator: Adobe Illustrator 19.0.0, SVG Export Plug-In . SVG Version: 6.00 Build 0)  -->
<!DOCTYPE svg PUBLIC "-//W3C//DTD SVG 1.1//EN" "http://www.w3.org/Graphics/SVG/1.1/DTD/svg11.dtd">
<svg version="1.1" id="Ebene_1" xmlns="http://www.w3.org/2000/svg" xmlns:xlink="http://www.w3.org/1999/xlink" x="0px" y="0px"
	 width="184.6px" height="171.7px" viewBox="0 0 184.6 171.7" style="enable-background:new 0 0 184.6 171.7;" xml:space="preserve"
	>
<style type="text/css">
	.st0{fill:#12596D;}
</style>
<path id="XMLID_36_" class="st0" d="M102.8,27.6c0.9,0.2,1.6,0.4,2.4,0.6c22,5.4,38.6,24.4,40.7,46.8c2.8,28.5-16.1,53.8-44.2,58.7
	c-17.3,3.1-32.8-1.5-45.9-13.2c-9.5-8.5-15.1-19.2-17-31.7C34.4,59.6,53.9,33,82,27.6c4.7-0.9,9.4-1.1,14.1-0.8
	c1.3,0.1,1.8-0.4,2.2-1.5c2.7-6.7,5.4-13.4,8.1-20.1c1-2.4,1.7-2.6,4.5-1.3c2,0.9,2.3,1.8,1.3,3.9c-2.9,6.1-5.8,12.1-8.7,18.2
	C103.2,26.4,103,26.9,102.8,27.6z M91,43.5c-1.7,0.2-3.1,0.3-4.5,0.5c-19,2.7-34.8,20.8-31.2,42.8c3.2,19.8,21.9,33.5,41.7,30.8
	c27.7-3.8,41.5-35.6,25.3-58.3c-6.3-8.9-15.1-14-25.9-15.5c-0.8-0.1-1.5-0.2-2,0.8C91.8,50.3,89,56,86.4,61.7
	c-1.1,2.4-1.6,5.1-0.3,7.7c1.8,3.6,2.1,7.2,1.2,11c-1.4,6-4.2,11-9.7,14.1c-5.2,2.9-10.4,0.6-11.7-5.3c-1.2-5.9,0.3-11.4,3.7-16.3
	c2-2.9,4.4-5.4,7.9-6.3c3.4-0.9,5.4-3.1,6.8-6.2c0.5-1.1,0.9-2.3,1.4-3.5C87.4,52.5,89.1,48.2,91,43.5z"/>
<g id="XMLID_15_">
	<path id="XMLID_35_" class="st0" d="M144.6,155.9c-6-0.4-11.9,0.3-17.8,1c-6.9,0.9-13.8,1.7-20.7,2.5c-3,0.4-6,0.6-9,0.9
		c-1.7,0.2-2,0.6-1.1,2.2c0.9,1.7,2.3,3,4,3.6c2.5,0.8,5.2,1.6,7.8,1.7c9.5,0.4,18.9-0.8,27.6-5c3.8-1.8,7.4-4.1,11.1-6.2
		c-0.1-0.2-0.2-0.4-0.3-0.6C145.7,156,145.2,155.9,144.6,155.9z"/>
	<path id="XMLID_34_" class="st0" d="M88,160.5c-0.3,0-0.6-0.1-0.9-0.1c-8.1-1-16.3-2-24.4-2.8c-6.4-0.7-12.9-1.2-19.3-1.7
		c-1.6-0.1-3.1,0-4.7,0c0,0.2-0.1,0.4-0.1,0.6c0.1,0.1,0.2,0.3,0.4,0.4c11.4,8.4,24.3,11.8,38.3,11.1c2.7-0.1,5.4-1.1,8-2
		c1.7-0.5,2.9-1.9,3.6-3.6C89.6,161,89.4,160.7,88,160.5z"/>
	<path id="XMLID_33_" class="st0" d="M46.2,146.4c0-0.2,0-0.3,0-0.5c-0.3-0.2-0.6-0.4-0.9-0.6c-6.2-5.7-12.3-11.4-18.5-17
		c-5.2-4.7-10.4-9.3-16.4-13c-0.5-0.3-1-0.5-1.5-0.8c2.9,8.4,7.3,15.7,13.4,22c4.3,4.4,9,8,14.8,10c1.9,0.7,4.1,0.8,6.1,0.9
		C44.3,147.4,45.3,146.7,46.2,146.4z"/>
	<path id="XMLID_32_" class="st0" d="M138.6,146c0,0.2,0,0.4,0,0.6c1.2,0.3,2.5,0.8,3.7,0.8c3.8,0.2,7.1-1.5,10.2-3.3
		c9.6-5.6,16.1-13.9,21-23.7c0.9-1.9,1.7-3.8,2.6-5.8c-0.1-0.1-0.3-0.2-0.4-0.3C161.8,123.1,150.9,135.4,138.6,146z"/>
	<path id="XMLID_31_" class="st0" d="M86.4,154.1c-3.1-2.3-6.2-4.5-9.5-6.4c-4.8-2.9-9.9-5.6-14.7-8.5c-2.5-1.5-4.7-3.3-7.3-5.1
		c0,0.6-0.1,1-0.1,1.4c0.3,5.1,2.5,9.3,6,12.8c6.1,6.3,13.5,9.6,22.2,10.3c2.1,0.2,4.2,0,6.4,0C89.1,157,88.3,155.6,86.4,154.1z"/>
	<path id="XMLID_30_" class="st0" d="M104.1,158.4c9.2-1.3,16.8-5.4,22.3-12.9c2.4-3.2,3.8-6.9,3.5-11.3c-0.5,0.3-0.8,0.5-1.1,0.7
		c-5.1,3.2-10.1,6.5-15.2,9.6c-3.4,2.1-7,3.8-10.3,6c-2.4,1.6-4.5,3.6-6.6,5.5c-0.7,0.6-0.9,1.6-1.4,2.4c0.1,0.2,0.2,0.3,0.4,0.5
		C98.5,158.7,101.3,158.8,104.1,158.4z"/>
	<path id="XMLID_29_" class="st0" d="M167.8,111.5c3.3-1.6,5.4-4.4,7-7.5c5.8-11.5,7.1-23.8,5.2-36.5c-7,14.2-10.9,29.4-15,44.6
		C166.1,112,167,111.9,167.8,111.5z"/>
	<path id="XMLID_28_" class="st0" d="M17.2,111.6c0.8,0.3,1.6,0.5,2.8,0.8c-0.2-1-0.3-1.5-0.4-1.9c-1-3.5-1.8-7-3-10.5
		c-3.1-9.3-6.3-18.7-9.5-28c-0.6-1.6-1.4-3.1-2.2-4.6c-1.4,7.8-1.4,15.5,0.4,23.2c1.3,5.6,3,11.1,6.2,15.9
		C13,108.6,14.8,110.5,17.2,111.6z"/>
	<path id="XMLID_27_" class="st0" d="M32.7,106.9c-0.2-0.4-0.3-0.8-0.6-1.3c-1.6,2.6-2.2,5.3-2.4,8.1c-0.5,9.5,3.3,17.3,9.5,24.2
		c2.3,2.6,5,4.8,8.5,6.8c0.1-1.4,0.5-2.4,0.2-3.4c-0.7-2.7-1.5-5.5-2.6-8C41.1,124.4,36.9,115.7,32.7,106.9z"/>
	<path id="XMLID_26_" class="st0" d="M152.4,106.3c-4,8.4-8,16.7-11.9,25.1c-1.2,2.6-2.4,5.3-3.3,8.1c-0.4,1.5-0.1,3.2-0.1,5.1
		c0.5-0.2,0.7-0.3,0.9-0.4c7.9-5,13.4-12,16-21c1.5-5.2,1.7-10.5-0.3-15.7c-0.2-0.6-0.6-1.1-1-1.8
		C152.6,106,152.5,106.2,152.4,106.3z"/>
	<path id="XMLID_25_" class="st0" d="M158.7,82c0.2,5.2,0.1,10.4,0.4,15.6c0.3,3.6,1,7.3,1.8,10.8c0.2,1,0.9,1.9,1.6,3.1
		c0.6-1,0.9-1.6,1.2-2.2c3-6.1,4.1-12.6,3.5-19.3c-0.5-5.4-1.7-10.6-4.9-15.1c-1.2-1.6-2.6-3.1-3.9-4.6c-0.2,0.1-0.3,0.2-0.5,0.3
		c0,0.5,0,1,0.1,1.5C158.2,75.4,158.6,78.7,158.7,82z"/>
	<path id="XMLID_24_" class="st0" d="M25.5,71.5c-1.7,2.4-3.8,4.6-5,7.2c-3.9,8.9-4.1,18-0.9,27.2c0.6,1.8,1.5,3.6,2.4,5.6
		c1.9-1.7,2.4-3.7,2.7-5.7c0.6-4.6,1-9.3,1.2-13.9c0.3-5.4,0.4-10.8,0.6-16.2c0.1-1.6,0.2-3.2,0.4-4.9c-0.4,0.1-0.5,0.1-0.6,0.2
		C26,71,25.7,71.2,25.5,71.5z"/>
	<path id="XMLID_23_" class="st0" d="M14.3,71.9C17.5,57.2,21,42.8,21.4,28c-0.5,0.3-0.8,0.6-1,1c-3.7,5.3-6.6,11-8.2,17.3
		c-1.6,6-2.9,12-1.9,18.2C10.7,67.3,11.6,69.8,14.3,71.9z"/>
	<path id="XMLID_22_" class="st0" d="M171.5,71.1c2.3-2.3,3.2-5.3,3.2-8.4c0.3-12.7-3.5-24.2-10.9-34.5c-0.1-0.2-0.3-0.3-0.7-0.6
		c0.8,15.2,4.2,29.6,7.4,44.3C171.1,71.5,171.3,71.3,171.5,71.1z"/>
	<path id="XMLID_21_" class="st0" d="M152.3,34.3c2.5,2.7,5.2,5.3,7.9,7.9c0.2-0.1,0.3-0.3,0.5-0.4c-1.4-9.3-6.2-16.7-13.3-22.7
		c-5.8-5-12.4-8.7-20.3-10.3c0.3,0.4,0.4,0.6,0.5,0.7C136.5,17,144.3,25.8,152.3,34.3z"/>
	<path id="XMLID_20_" class="st0" d="M57.1,8.9C57.2,8.9,57.2,8.9,57.1,8.9L57.1,8.9z"/>
	<path id="XMLID_19_" class="st0" d="M57,8.9c-0.3,0-0.6,0.1-0.8,0.2c-6.6,1.6-12.3,4.7-17.5,8.9C32,23.2,27.2,29.8,24.8,38.1
		c-0.3,1.2-0.4,2.4-0.6,3.7c0.2,0.1,0.4,0.2,0.6,0.3C35.5,31,46.3,19.9,57,8.9z"/>
	<path id="XMLID_18_" class="st0" d="M57.1,8.9C57.1,8.9,57.1,8.8,57.1,8.9C57,8.8,57,8.9,57.1,8.9C57,8.9,57.1,8.9,57.1,8.9
		C57.1,8.9,57.1,8.9,57.1,8.9z"/>
	<path id="XMLID_17_" class="st0" d="M165.3,69.9c0.6,0.9,1.7,1.4,2.6,2.2c0.2-0.4,0.3-0.6,0.3-0.7c-0.1-1.3-0.1-2.6-0.2-3.9
		c-0.8-8.4-3.9-15.8-9.7-22c-3-3.2-6.7-5.6-11.4-6.7c0.2,0.5,0.3,0.8,0.4,1c3.6,6.5,7.1,13.1,10.9,19.5
		C160.4,63.1,162.8,66.5,165.3,69.9z"/>
	<path id="XMLID_16_" class="st0" d="M16.8,72.2c1-0.8,1.8-1.2,2.2-1.8c1.8-2.2,3.7-4.4,5.2-6.9c4.6-7.9,8.9-15.8,13.4-23.8
		c0.1-0.2,0.1-0.4,0.2-0.8c-7,1.9-11.8,6.2-15.4,12C18.5,57.3,16.5,64.2,16.8,72.2z"/>
</g>
</svg>
