<?xml version="1.0" encoding="utf-8"?>
<!-- Generator: Adobe Illustrator 19.0.0, SVG Export Plug-In . SVG Version: 6.00 Build 0)  -->
<!DOCTYPE svg PUBLIC "-//W3C//DTD SVG 1.1//EN" "http://www.w3.org/Graphics/SVG/1.1/DTD/svg11.dtd">
<svg version="1.1" id="Ebene_1" xmlns="http://www.w3.org/2000/svg" xmlns:xlink="http://www.w3.org/1999/xlink" x="0px" y="0px"
	 width="276.4px" height="93.3px" viewBox="0 0 276.4 93.3" style="enable-background:new 0 0 276.4 93.3;" xml:space="preserve">
<style type="text/css">
	.st0{fill-rule:evenodd;clip-rule:evenodd;fill:#12596D;}
</style>
<g id="XMLID_210_">
	<path id="XMLID_330_" class="st0" d="M69.1,4.6c1,1.1,1.4,2.6,1.9,4c-1.8,2.4-4.8,3.5-7.3,5c-0.8,0.2-1.1,0.8-1.9,1.1
		c-1.1-0.5-3.1-1-3.1-2.7c-0.8-1.2-1.6-2.4-1.6-3.7c2.1-2.4,5.5-1.8,7.6-4.1c1.1,0,1.9-0.9,3.1-0.2C68.2,4.2,68.6,4.6,69.1,4.6"/>
	<path id="XMLID_328_" class="st0" d="M61.2,19c2.1-0.3,4.6-1.2,6.2,0.6c0.7,0.3,0.5,1,0.7,1.5c-0.1,0.3-0.3,1.2-1.1,1.4
		c-0.8-0.1-1.7,0.7-2.6,1c0.5,0.2,1.4,0.7,1.6,1.4c0.6,0.9,0,2,0,2.8c-0.6,1.8-3.3,1.6-3.1,4c-3,1-4.8,4-8,4.3
		c-1.8,1.6-4.1,2.8-5.6,4.9c-0.7-5.6,3.4-10.9,8.1-13.4c-0.3-1.2-2.3-1.8-2.3-3.3c-0.8-0.9-1.4-2.3-1.4-3.4c1.9-1.5,3.9-3.5,6.5-2.7
		C60.2,18.4,60.9,18.4,61.2,19"/>
	<path id="XMLID_326_" class="st0" d="M79.2,34.5c0-0.2-0.2-0.5-0.5-0.6c-0.6,0.1-1-0.3-1.5,0.1c-0.2-1-2.1-0.2-2.4-1.2
		C76.6,32.4,78.3,33.4,79.2,34.5"/>
	<path id="XMLID_324_" class="st0" d="M76.8,34.8l-0.1-0.8l0.3,0.3L76.8,34.8z"/>
	<path id="XMLID_322_" class="st0" d="M79.9,35.1c-0.1,0.8-0.7,1.1-1.3,1.4l0.6-1.1c0,0.1,0.1,0.2,0.1,0.2
		C79.6,35.5,79.7,35.1,79.9,35.1"/>
	<path id="XMLID_320_" class="st0" d="M77.7,35.2c-0.1,0.2-0.5,0.5-0.3,0.8c0.3-0.2,0.9,0.3,0.9,0.7c0,0.1-0.1,0.2-0.2,0.3
		c0-0.3-0.3-0.6-0.7-0.5l-0.1,0.1c0,0.7,0.1-0.3-0.1-0.3c-1.6,0.1-0.5,1.7-1.9,1.8c0-0.5,0.3-0.6,0.7-0.8c-0.5-1-1,0.2-1.6,0
		l0.6-0.6l-0.1-0.1c0.1,0,1.1,0.2,1.3-0.6c0.3,0.8,0.9-0.1,1.3-0.3C77.2,35.4,77.2,35,77.7,35.2"/>
	<path id="XMLID_318_" class="st0" d="M73.2,37.9c-0.2-0.2-0.2-0.5,0.1-0.7C73.2,37.5,73.1,37.7,73.2,37.9"/>
	<path id="XMLID_316_" class="st0" d="M62.1,41.8c-0.8,0-1.5,0-1.9,0.6l-0.2-0.1c0.1-0.7,1.5-0.3,2.2-0.8V41.8z"/>
	<path id="XMLID_314_" class="st0" d="M57.8,45.5c-0.1,0.3-0.5,0.3-0.7,0.3C57.3,45.6,57.6,45.5,57.8,45.5"/>
	<path id="XMLID_312_" class="st0" d="M50.2,46.6c-0.3,0-0.8,0.1-1-0.1c0.2-0.3,0.8,0,1-0.3V46.6z"/>
	<path id="XMLID_308_" class="st0" d="M47.6,31.7c-0.9,3.2-3.8,2.3-6.2,3.6c0.1,0.2-0.8,0.3-1.5,0.5l-0.7,0.3
		c-2.5,0.3-4.1,2-6.4,3.1c0.1,1-1.3,0.5-1.8,1c-0.2,0.8-1.7,0.5-1.4,1.5c-1,0.8-2.5,1.5-3,2.6c1.3,1.1,3,0.9,4.3,1.2
		c4.6,0.5,8.6-0.1,12.8-0.1c1.3-0.2,2.4-0.7,3.8-0.7v0.1c0.9,0.3,1.6-0.8,2.6-0.3c0.7-0.8,2.1-0.1,2.7-1c1.4-0.5,3.3-0.1,4.3-0.8
		v0.2c-0.5-0.1-0.3,0.3-0.6,0.6c0.2,0.2,0.7,0.1,1,0.1c1.5-1.6,2.7,0.5,4.1-1.4c0.6-0.8,1.5-1.1,2.4-1.4l0.3,0.5
		c0.5-1.4,1.9-0.9,2.7-1.6c-0.6,0.1-0.7,1-1.5,0.7c0.6,1-0.9,1.1-1.3,1.7c-0.3,0.1-1.1,0-1-0.6c-0.3,0.3-0.3,1.6-1.1,1.1
		c-0.9,0.2-2.2,0.6-3.2,1.1c-1.1,0.1-2.6,0.8-3.9,0.5c-1,0.6-2.1,0.5-3.2,0.9c-1.5,0.3-3.7,0.2-4.9,1c-0.5,0-0.2,0.7-0.7,0.7
		c0.5,0,0.3,1.2,1,0.7c-0.3,0-0.6,0.5-0.7,0c-0.7,0.1-1.3,0.9-1.8,0.2c-0.9,0.5-2.2,0.2-3.2,0.3v-0.3c0.7,0.6,0.5-0.6,1-0.7v-0.5
		c-1.7,0.7-3.7,0.5-5.6,1.2c0.6,1.1-1,0.2-1.4,0.7c0-0.2,0.2-0.2,0.3-0.3c-2.4-0.8-3.5,0.8-6.2,0.2L29.8,49
		c-1.1-0.7-2.6,0.7-3.8-0.1c-1.3-0.2-3-0.6-3.4-1.8c-0.5,0.1-0.6-0.2-0.7-0.6c0.2-1.2-2.1-1.7-1-3.1c-0.7-0.8,0.2-1.7,0.3-2.5
		c0.1-0.1,0.1-0.3,0.2-0.6l0.2,0.3c0.6-0.5,0.7-1.1,0.9-1.7l1.7-1.8c-0.1,0.1,0,0.2,0.1,0.2c0.2,0,0.3-0.2,0.6-0.3
		c-0.2-0.7,0.2-0.8,0.7-1.1c0.3-0.1,0.8,0.2,0.9-0.2c-0.3-0.9,1.1,0,1.1-1c1.3,0.1,1.5-1.4,2.7-1.1c1.7-1.7,4.1-1.8,6-3.2
		C39.8,29.4,45.5,26.9,47.6,31.7 M44,46.7h-0.5L44,47V46.7z M42.9,47.8h0.5c0.2-0.1,0.2-0.3,0.5-0.6C43.4,47.2,43,47.4,42.9,47.8"/>
	<path id="XMLID_306_" class="st0" d="M35.7,48.5c-0.1,0.2-0.3,0.1-0.5,0.1v-0.2C35.4,48.4,35.6,48.2,35.7,48.5"/>
	<path id="XMLID_304_" class="st0" d="M72.2,37.9c-0.2,0.2-0.6,0.7-0.9,0.2h-0.1C71.4,38,71.8,37.8,72.2,37.9"/>
	<path id="XMLID_302_" class="st0" d="M50.7,56.3c0.5,2.7-0.9,5.1-2.4,7.3l-0.7,0.1l0.1-0.1l-0.1-0.1c-1.3,1.6-2.7,2.8-3.1,4.9
		c-0.2,0.1-0.5,0.1-0.6,0.2c-0.3-1.1-1.1-2.6-0.5-3.7c-0.2-3.4,1.4-5.9,3-8.7c1-0.6,2.1-2.4,3.2-1.5L50.7,56.3z"/>
	<path id="XMLID_300_" class="st0" d="M44,78.4c0.5,0.9,0.3,1.8,0.1,2.7c-0.7,0.1-1.4,0-1.9-0.3l-0.1,0.1c-0.8-0.5-1.5-1-1.6-1.9
		c-0.2-1.2,1.4-1,1.6-2C42.8,77.2,43.5,77.9,44,78.4"/>
	<path id="XMLID_298_" class="st0" d="M87.1,65.3v5.3c-1.4,0.7-6.7,1.1-8.1,1.1c-7.4,0-9.8-3.9-9.8-10.8c0-7.3,3.1-10.8,10.5-10.8
		c2.7,0,4.7,0.5,7.4,1.2v4.8h-1.7v-0.8c-0.5-3.4-1.9-4.1-5.7-4.1c-5.7,0-7.3,4.1-7.3,9.1c0,5.4,0.9,10.3,7.4,10.3
		c4.7,0,5.1-1.2,5.6-5.4H87.1z"/>
	<path id="XMLID_244_" class="st0" d="M95.2,61.2c0-7.6,2.5-10.8,10.4-10.8c7.9,0,10.4,3.2,10.4,10.8c0,7.6-2.1,10.8-10.4,10.8
		C97.7,72,95.2,68.8,95.2,61.2 M98.2,61.2c0,5.1,1.3,9.8,7.3,9.8c6.2,0,7.3-4.7,7.3-9.8c0-5.1-1.1-9.6-7.3-9.6
		C99.5,51.5,98.2,56.1,98.2,61.2"/>
	<path id="XMLID_242_" class="st0" d="M142.4,53.9h-0.1L135,71.4c-0.2,0.3-0.5,0.3-0.7,0.1l-7.4-17.2v14.2c0,1.9,0.5,2,2.5,2v1h-3.2
		H123v-1c2.1,0,2.5-0.1,2.5-2V53.7c0-2-0.6-2-2.5-2v-1h2.4h2.4l7.5,16.8l7.2-16.8h2.5h2.4v1c-1.9,0-2.5,0-2.5,2v14.8
		c0,1.9,0.5,2,2.5,2v1h-3.8h-3.9v-1c2.2,0,2.6-0.1,2.6-2V53.9z"/>
	<path id="XMLID_239_" class="st0" d="M161.7,68.4c0,1.6-0.1,2,2.9,2v1c-1.4,0-2.9,0-4.2-0.1c-1.5,0.1-2.9,0.1-4.3,0.1v-1
		c3,0,3-0.5,3-2V53.7c0-1.7,0-2.2-3-2.2v-1c1.5,0.1,2.9,0.1,4.3,0.1c2.1,0,4.1,0,6.3-0.1c3.9,0,5.9,1.1,5.9,5.3
		c0,5.7-3.2,6.4-8.1,6.4h-2.7V68.4z M161.7,61.1h1.5c3.8,0,6.4-0.1,6.4-4.7c0-4.4-1.5-4.8-4.9-4.8h-3V61.1z"/>
	<path id="XMLID_236_" class="st0" d="M189.6,50.6l6.4,16.6c0.3,0.9,1.1,3.5,3.5,3.3v1h-4.1h-4.2v-1c0,0,2.6,0,2.6-1.2
		c0-0.6-0.2-1.1-0.5-1.6l-1.9-5.1h-7.3l-1.9,5.2c-0.1,0.5-0.2,0.9-0.2,1.4c0,1.4,1.5,1.4,2.5,1.4v1H181h-3.7v-1c1-0.1,1.6,0,2.3-0.9
		c0.5-0.5,1.3-2.6,1.6-3.2l6.5-15.8H189.6z M190.9,61.1l-3.1-7.7l-3.3,8.1h6.5L190.9,61.1z"/>
	<path id="XMLID_234_" class="st0" d="M214.6,59.8c2.9,1,5.5,2.4,5.5,5.8c0,5-4.1,6.2-8.3,6.2c-2.2,0-4.5-0.3-6.5-1.2v-5.4h1.9
		c0.3,3-0.5,5.7,4.9,5.7c2.7,0,5.2-1.2,5.2-4.2c0-3.4-3.3-4.1-5.9-5c-2.9-1-5.4-2-5.4-5.6c0-4,3.3-5.8,7-5.8c2.1,0,4,0.3,6.2,1.1v5
		h-1.7c-0.2-2.4,0.3-5-4.3-5c-2.5,0-4.4,1-4.4,3.7c0,1.8,0.9,2.7,2.5,3.4L214.6,59.8z"/>
	<path id="XMLID_232_" class="st0" d="M237.7,59.5c2.9,1,5.5,2.3,5.5,5.8c0,5-4.1,6.2-8.3,6.2c-2.2,0-4.4-0.3-6.5-1.2v-5.4h1.9
		c0.3,3-0.5,5.7,4.9,5.7c2.7,0,5.2-1.2,5.2-4.2c0-3.4-3.3-4.1-5.9-5c-2.9-1-5.4-2-5.4-5.6c0-4.1,3.3-5.8,7-5.8c2.1,0,4,0.3,6.2,1.1
		v5h-1.7c-0.2-2.4,0.3-5-4.3-5c-2.5,0-4.4,1-4.4,3.7c0,1.7,0.9,2.7,2.5,3.4L237.7,59.5z"/>
	<path id="XMLID_230_" class="st0" d="M123.2,85.6c0-0.7,0-0.8-1.4-0.8v-0.5c0.8,0.1,1.4,0.1,1.9,0.1c0.6,0,1.1,0,1.5-0.1v0.5
		c-0.9,0-0.9,0.2-0.9,0.8v1.1v0.5c-1,0.3-2.2,0.6-3.2,0.6c-3,0-4-1.5-4-4.2c0-2.8,1.3-4.3,4.2-4.3c1.1,0,1.9,0.1,3,0.5v1.9h-0.7
		c-0.1-1.7-0.6-2-2.3-2c-2.4,0-3,1.9-3,4c0,2.3,0.6,3.7,3.1,3.7c0.5,0,1.1-0.1,1.7-0.5V85.6z"/>
	<path id="XMLID_227_" class="st0" d="M137.6,86.4c0,0.7-0.1,0.9,1.1,0.9v0.3H137h-1.7v-0.3c1.1,0,1.1-0.2,1.1-0.9v-5.8
		c0-0.7,0-0.8-1.1-0.8v-0.5h1.7h2.3c1.5,0,2.5,0.1,2.5,1.8c0,1.5-0.8,2-2.1,2.2c0.3,0.6,1.7,2.7,2.1,3.2c0.3,0.3,0.6,0.7,1.3,0.8
		v0.3h-0.9h-0.9c-0.8-1.2-2.5-4-2.9-4.1c-0.2-0.1-0.6-0.1-0.8-0.1V86.4z M137.6,83.1h0.6c1.3,0,2.5,0,2.5-1.7c0-1.2-0.6-1.6-1.8-1.6
		h-1.3V83.1z"/>
	<path id="XMLID_224_" class="st0" d="M153.2,83.4c0-3,1-4.2,4.1-4.2c3.2,0,4.1,1.2,4.1,4.2c0,3.1-0.8,4.3-4.1,4.3
		C154.3,87.7,153.2,86.5,153.2,83.4 M154.5,83.4c0,2,0.5,3.9,2.9,3.9c2.4,0,2.9-1.8,2.9-3.9c0-1.9-0.5-3.9-2.9-3.9
		C154.9,79.6,154.5,81.5,154.5,83.4"/>
	<path id="XMLID_222_" class="st0" d="M174.2,84.9c0,1.6,0.7,2.4,2.3,2.4c1.8,0,2.6-0.7,2.6-2.5v-4.2c0-0.8,0-0.8-1.3-0.8v-0.5h1.5
		h1.5v0.5c-1.1,0-1.1,0.1-1.1,0.8v4.1c0,2.4-1.3,3.1-3.5,3.1c-1.9,0-3.1-0.8-3.1-2.7v-4.4c0-0.7,0.1-0.8-1-0.8v-0.5h1.6h1.7v0.5
		c-1.1,0-1.1,0.1-1.1,0.8V84.9z"/>
	<path id="XMLID_219_" class="st0" d="M193.2,86.4c0,0.7,0,0.9,1.1,0.9v0.3h-1.7h-1.7v-0.3c1.1,0,1.1-0.2,1.1-0.9v-5.8
		c0-0.7,0-0.8-1.1-0.8v-0.5h1.7h2.5c1.5,0,2.4,0.5,2.4,2c0,2.3-1.4,2.6-3.3,2.6h-1V86.4z M193.2,83.5h0.6c1.5,0,2.5-0.1,2.5-1.9
		c0-1.7-0.6-1.8-1.9-1.8h-1.1V83.5z"/>
	<path id="XMLID_217_" class="st0" d="M68.3,41.1c-0.2,0-0.7,0.1-1-0.1c0.3-0.3,0.8,0,1-0.3V41.1z"/>
	<path id="XMLID_215_" class="st0" d="M70.4,39c-0.7,0-1.4,0-1.9,0.7l-0.1-0.2c0.1-0.7,1.5-0.3,2.1-0.8V39z"/>
	<path id="XMLID_213_" class="st0" d="M73,39c-0.2-0.1-0.7,0.1-0.9-0.2c0.2-0.2,0.7,0.1,0.9-0.2V39z"/>
	<path id="XMLID_211_" class="st0" d="M71.2,39.7l-0.1-0.8l0.3,0.2L71.2,39.7z"/>
</g>
</svg>
