<?xml version="1.0" standalone="no"?><!DOCTYPE svg PUBLIC "-//W3C//DTD SVG 1.1//EN" "http://www.w3.org/Graphics/SVG/1.1/DTD/svg11.dtd"><svg width="24px" height="24px" viewBox="0 0 400 400" version="1.1" xmlns="http://www.w3.org/2000/svg" xmlns:xlink="http://www.w3.org/1999/xlink" xml:space="preserve" style="fill-rule:evenodd;clip-rule:evenodd;stroke-linejoin:round;stroke-miterlimit:1.41421;"><g id="Ebene1"><path d="M111.19,71.19c-15.205,14.891 -28.583,30.294 -43.291,45.376c-3.163,3.094 -6.234,5.929 -9.756,8.626c0.206,-4.729 1.046,-8.58 2.498,-13.08c8.611,-22.73 23.624,-37.53 44.681,-49.166c7.587,-3.919 15.716,-6.853 24.105,-8.504c-6.219,5.425 -12.308,10.995 -18.237,16.748ZM37.819,186.85c-17.236,-11.965 -6.211,-51.267 -0.42,-66.387c3.752,-9.222 9.849,-19.3 15.907,-27.337c0.184,24.533 -10.352,71.888 -15.487,93.724ZM50.128,270.733c-1.2,0.16 -2.139,0.092 -3.316,-0.191c-20.988,-5.753 -29.965,-46.973 -30.737,-66.104c-0.359,-10.032 0.138,-18.582 1.673,-28.506c11.529,18.825 27.33,76.342 32.38,94.801ZM83.807,322.076c6.96,6.418 13.943,12.813 20.927,19.208c-9.047,7.992 -26.008,-1.658 -34.107,-6.792c-11.476,-7.855 -19.284,-16.037 -27.566,-27.185c-7.083,-9.779 -13.157,-21.393 -17.39,-32.777c16.312,7.549 45.147,35.597 58.136,47.546ZM105.933,361.195c8.435,0.496 16.664,1.467 25.037,2.529c21.416,2.72 42.198,5.516 63.752,7.449c-3.92,24.823 -59.824,14.127 -72.553,9.611c-12.584,-4.461 -24.449,-10.925 -35.153,-18.902c6.135,-1.077 12.713,-1.016 18.917,-0.687ZM42.656,187.316c11.873,-4.867 26.244,-37.293 32.517,-48.677l12.599,-21.064c-28.269,5.997 -46.392,40.241 -45.116,69.741ZM54.086,269.106c10.116,-7.159 7.862,-51.695 8.61,-64.668c0.428,-7.335 1.055,-14.463 1.918,-21.752c-7.289,4.973 -12.851,13.554 -15.823,21.752c-7.587,21.568 -5.86,44.726 5.295,64.668ZM85.954,320.059c6.463,7.709 12.446,12.928 21.064,18.146c4.172,-8.901 -3.919,-22.7 -7.885,-30.554c-9.329,-18.474 -16.732,-31.937 -24.182,-51.557c-2.91,4.538 -4.515,9.787 -5.065,15.105c-1.551,18.979 4.63,34 16.068,48.86ZM124.812,331.336c3.186,7.304 6.976,12.278 12.737,17.764c16.885,14.792 34.962,19.788 57.173,18.49c-1.995,-13.226 -38.057,-28.942 -49.984,-36.261c-7.823,-4.844 -15.387,-10.048 -22.646,-15.694c-0.435,5.364 0.665,10.743 2.72,15.701Z" style="fill:#fff;fill-rule:nonzero;"/><path d="M289.882,71.19c15.204,14.891 28.583,30.294 43.29,45.376c3.171,3.094 6.235,5.929 9.757,8.626c-0.206,-4.729 -1.047,-8.58 -2.491,-13.08c-8.618,-22.73 -23.631,-37.53 -44.681,-49.166c-7.594,-3.919 -15.731,-6.853 -24.112,-8.504c6.219,5.425 12.308,10.995 18.237,16.748ZM363.252,186.85c17.229,-11.965 6.212,-51.267 0.42,-66.387c-3.751,-9.222 -9.848,-19.3 -15.907,-27.337c-0.191,24.533 10.353,71.888 15.487,93.724ZM350.944,270.733c1.199,0.16 2.131,0.092 3.316,-0.191c20.98,-5.753 29.957,-46.973 30.737,-66.104c0.359,-10.032 -0.145,-18.582 -1.674,-28.506c-11.529,18.825 -27.337,76.342 -32.379,94.801ZM317.265,322.076c-6.96,6.418 -13.951,12.813 -20.927,19.208c9.039,7.992 26.008,-1.658 34.099,-6.792c11.483,-7.855 19.292,-16.037 27.574,-27.185c7.083,-9.779 13.157,-21.393 17.389,-32.777c-16.312,7.549 -45.154,35.597 -58.135,47.546ZM295.139,361.195c-8.443,0.496 -16.664,1.467 -25.045,2.529c-21.409,2.72 -42.305,5.516 -63.851,7.449c3.92,24.823 59.931,14.127 72.66,9.611c12.576,-4.461 24.441,-10.925 35.145,-18.902c-6.127,-1.077 -12.705,-1.016 -18.909,-0.687ZM358.416,187.316c-11.873,-4.867 -26.245,-37.293 -32.525,-48.677l-12.599,-21.064c28.285,5.997 46.4,40.241 45.124,69.741ZM346.978,269.106c-10.108,-7.159 -7.854,-51.695 -8.603,-64.668c-0.428,-7.335 -1.054,-14.463 -1.917,-21.752c7.288,4.973 12.851,13.554 15.823,21.752c7.579,21.568 5.86,44.726 -5.303,64.668ZM315.118,320.059c-6.471,7.709 -12.446,12.928 -21.064,18.146c-4.172,-8.901 3.912,-22.7 7.885,-30.554c9.328,-18.474 16.732,-31.937 24.189,-51.557c2.903,4.538 4.5,9.787 5.058,15.105c1.551,18.979 -4.63,34 -16.068,48.86ZM276.259,331.336c-3.178,7.304 -6.975,12.278 -12.736,17.764c-16.893,14.792 -35.062,19.788 -57.28,18.49c1.994,-13.226 38.141,-28.942 50.083,-36.261c7.823,-4.844 15.395,-10.048 22.661,-15.694c0.435,5.364 -0.672,10.743 -2.728,15.701Z" style="fill:#fff;fill-rule:nonzero;"/><path d="M274.51,225.609c-7.671,27.612 -29.828,48.6 -57.853,54.774c-5.463,1.215 -11.117,1.826 -16.801,1.826c-42.656,0 -77.359,-34.703 -77.359,-77.359c0,-41.854 33.427,-76.029 74.99,-77.297l-14.203,35.214c-1.009,2.308 -4.225,8.527 -9.917,11.14c-0.115,0.053 -1.949,0.703 -2.109,0.756c-8.702,1.811 -17.84,10.108 -23.104,22.081c-7.243,16.434 -4.455,33.579 6.219,38.278c10.681,4.699 25.205,-4.813 32.441,-21.248c4.309,-9.772 5.065,-19.796 2.735,-27.299c-0.535,-1.696 -1.222,-3.27 -2.063,-4.683c-0.069,-0.138 -0.527,-1.146 -0.665,-1.505c-2.261,-6.105 0.283,-13.012 1.33,-15.38l17.802,-37.148c39.867,3.117 71.368,36.49 71.368,77.091c0,7.06 -0.947,14.043 -2.811,20.759ZM221.929,94.401l20.743,-43.282c0.948,-2.139 -0.023,-4.638 -2.177,-5.57l-4.424,-1.941c-2.155,-0.939 -4.676,0.031 -5.616,2.17l-18.963,47.034c-3.828,-0.389 -7.709,-0.596 -11.636,-0.596c-62.109,0 -112.634,50.526 -112.634,112.634c0,62.109 50.525,112.634 112.634,112.634c8.244,0 16.465,-0.894 24.411,-2.659c40.792,-8.985 73.064,-39.561 84.235,-79.772c2.719,-9.788 4.095,-19.949 4.095,-30.203c0,-54.559 -39.035,-100.165 -90.668,-110.449Z" style="fill:#fff;"/></g></svg>
