<?xml version="1.0" encoding="utf-8"?>
<!-- Generator: Adobe Illustrator 19.0.0, SVG Export Plug-In . SVG Version: 6.00 Build 0)  -->
<!DOCTYPE svg PUBLIC "-//W3C//DTD SVG 1.1//EN" "http://www.w3.org/Graphics/SVG/1.1/DTD/svg11.dtd">
<svg version="1.1" id="Ebene_1" xmlns="http://www.w3.org/2000/svg" xmlns:xlink="http://www.w3.org/1999/xlink" x="0px" y="0px"
	 width="29.5px" height="29.5px" viewBox="-144 306.5 29.5 29.5" style="enable-background:new -144 306.5 29.5 29.5;"
	 xml:space="preserve">
<style type="text/css">
	.st0{fill:#FA701B;}
</style>
<path class="st0" d="M-118,319.1c-3.7,0-7.4,0-11,0c0,1.5,0,3,0,4.5c2.1,0,4.3,0,6.4,0c-0.2,1.4-1.1,2.7-2.3,3.6
	c-0.8,0.5-1.7,0.8-2.6,1c-0.9,0.2-1.9,0.2-2.8,0c-0.9-0.2-1.8-0.6-2.6-1.1c-1.2-0.9-2.2-2.1-2.7-3.5s-0.5-3,0-4.5
	c0.4-1,0.9-2,1.7-2.7c0.9-1,2.2-1.6,3.5-1.9c1.1-0.4,2.3-0.3,3.4,0c0.9,0.3,1.8,0.8,2.5,1.5c0.7-0.7,1.4-1.4,2.2-2.1
	c0.4-0.4,0.8-0.7,1.1-1.1c-1.1-1-2.4-1.8-3.8-2.3c-2.5-1-5.3-1-7.9-0.1c-2.9,1-5.3,3.1-6.6,5.7c-0.5,0.9-0.8,1.9-1,2.9
	c-0.5,2.5-0.2,5.2,1,7.4c0.8,1.5,1.9,2.8,3.2,3.8s2.7,1.7,4.3,2.1c2,0.5,4,0.5,6,0.1c1.8-0.4,3.5-1.2,4.8-2.5c1.4-1.3,2.4-3,3-4.8
	C-117.7,323.2-117.6,321.1-118,319.1z"/>
</svg>
