<?xml version="1.0" encoding="utf-8"?>
<!-- Generator: Adobe Illustrator 19.0.0, SVG Export Plug-In . SVG Version: 6.00 Build 0)  -->
<!DOCTYPE svg PUBLIC "-//W3C//DTD SVG 1.1//EN" "http://www.w3.org/Graphics/SVG/1.1/DTD/svg11.dtd">
<svg version="1.1" id="Ebene_1" xmlns="http://www.w3.org/2000/svg" xmlns:xlink="http://www.w3.org/1999/xlink" x="0px" y="0px"
	 width="29.5px" height="29.5px" viewBox="-144 306.5 29.5 29.5" style="enable-background:new -144 306.5 29.5 29.5;"
	 xml:space="preserve">
<style type="text/css">
	.st0{fill:#FA701B;}
</style>
<path class="st0" d="M-114.8,313.2c-1.1,0.5-2.2,0.8-3.4,0.9c1.2-0.7,2.2-1.9,2.6-3.2c-1.1,0.6-2.4,1.1-3.7,1.4
	c-1.1-1.1-2.6-1.8-4.3-1.8c-3.3,0-5.9,2.6-5.9,5.8c0,0.5,0.1,0.9,0.2,1.3c-5.1-0.3-9.5-2.6-12.4-6.1c-0.5,0.9-0.8,1.9-0.8,2.9
	c0,2,1,3.8,2.6,4.8c-1,0-1.9-0.3-2.7-0.7c0,0,0,0,0,0.1c0,2.8,2,5.2,4.8,5.7c-0.5,0.1-1,0.2-1.6,0.2c-0.4,0-0.8,0-1.1-0.1
	c0.8,2.3,3,4,5.6,4c-2,1.6-4.6,2.5-7.4,2.5c-0.5,0-1,0-1.4-0.1c2.6,1.7,5.7,2.6,9.1,2.6c10.9,0,16.9-8.8,16.9-16.5
	c0-0.3,0-0.5,0-0.8C-116.6,315.4-115.6,314.3-114.8,313.2z"/>
</svg>
